<svg version="1.1" xmlns="http://www.w3.org/2000/svg" xmlns:xlink="http://www.w3.org/1999/xlink" width="143.41567" height="134.28829" viewBox="0,0,143.41567,134.28829"><g transform="translate(-270.44887,-121.93702)"><g stroke-miterlimit="10"><path d="M286.71098,192.27234c-3.54531,-29.14832 17.21003,-55.65175 46.35835,-59.19707c29.14832,-3.54531 55.65175,17.21003 59.19707,46.35835c3.54531,29.14832 -17.21003,55.65175 -46.35835,59.19707c-29.14832,3.54531 -55.65175,-17.21003 -59.19707,-46.35835z" fill="#fff15b" stroke="none" stroke-width="0"/><path d="M292.66708,191.5479c-3.14522,-25.85886 15.26783,-49.37131 41.12669,-52.51652c25.85886,-3.14522 49.37131,15.26783 52.51652,41.12669c3.14522,25.85886 -15.26783,49.37131 -41.12669,52.51652c-25.85886,3.14522 -49.37131,-15.26783 -52.51652,-41.12669z" fill="#fff799" stroke="#000000" stroke-width="0"/><path d="M307.725,136.47271c0.30185,2.48171 -2.17986,2.78356 -2.17986,2.78356l-1.10013,0.12347c-3.08086,0.65526 -6.38651,1.41648 -9.08215,3.17788c-3.31021,2.16297 -5.16236,6.54993 -7.81715,9.38528c0,0 -0.04368,0.04641 -0.12449,0.11745c-1.18998,3.35172 -2.10386,6.93606 -2.08915,10.28212l0.02198,0.02075c0,0 0.30185,2.48171 -2.17986,2.78356l-0.00001,-0.00001c-2.48171,0.30185 -2.78356,-2.17986 -2.78356,-2.17986l-0.05852,-0.64104c0.05171,-5.45767 1.94944,-11.17109 4.04985,-16.20446c0,0 0.77699,-1.84748 2.59376,-1.53839c1.61642,-2.28577 3.23451,-4.59512 5.54885,-6.14171c3.24448,-2.16816 7.13541,-3.13985 10.86987,-3.94995l1.54702,-0.19851c0,0 2.48171,-0.30185 2.78356,2.17986z" fill="#fff15b" stroke="none" stroke-width="0.5"/><path d="M380.7814,230.42476c0.29392,-0.5365 0.84365,-1.02828 1.86303,-1.15227c2.48171,-0.30185 2.78356,2.17986 2.78356,2.17986l-1.23952,2.82485c-5.52417,2.99141 -11.77262,4.21833 -17.60286,6.59769c0,0 -0.61952,0.25269 -1.34829,0.17614c-2.1535,1.83682 -4.45763,3.51035 -6.56917,5.44336c0,0 -0.38733,0.35458 -0.96946,0.56121c-0.58033,1.10375 -1.95051,1.27041 -1.95051,1.27041c-2.53686,0.30856 -5.07372,0.61712 -7.61058,0.92568l-2.31626,0.28173c0,0 -2.48171,0.30185 -2.78356,-2.17986c-0.30185,-2.48171 2.17986,-2.78356 2.17986,-2.78356c2.43223,-0.29583 6.9936,-0.85063 9.60146,-1.16783c0.22913,-0.37264 0.47288,-0.59578 0.47288,-0.59578c2.69545,-2.46754 5.82223,-4.5036 8.37665,-7.05883c0.18669,-0.71672 0.70421,-1.56637 2.09126,-1.73507c1.24791,-0.15178 1.94464,0.40026 2.32897,0.98668c4.27832,-1.4386 8.71299,-2.56415 12.69254,-4.5744z" fill="#fff15b" stroke="none" stroke-width="0.5"/><path d="M404.93909,171.00938c0.0225,0.24368 0.16375,2.47668 -2.18207,2.762c-2.48171,0.30185 -2.78356,-2.17986 -2.78356,-2.17986l-0.02232,-1.05674c0.89838,-5.09211 0.03245,-9.90296 -0.58595,-14.98719c0,0 -0.01003,-0.0825 -0.0114,-0.21923c-2.62396,-4.97616 -4.80654,-9.88756 -6.81704,-15.12891c0,0 -0.89474,-2.33441 1.43966,-3.22915c2.33441,-0.89474 3.22915,1.43966 3.22915,1.43966c2.02925,5.29837 4.30004,10.2266 6.89831,15.28723l0.74052,2.88633c0,0 0.20985,0.83792 -0.10969,1.65203c0.51409,4.27058 0.88157,8.40746 0.20439,12.77382z" fill="#fff15b" stroke="none" stroke-width="0.5"/><path d="M300.56688,237.74454c0.15839,1.30226 -0.71476,2.49225 -1.97785,2.75069c-1.35986,0.53013 -2.54801,-0.58795 -2.54801,-0.58795l-2.05898,-1.95264c-2.02329,-2.83363 -4.49914,-4.30995 -6.84949,-6.85018c0,0 -0.44256,-0.48344 -0.62695,-1.18185c-0.83047,-0.32363 -1.46066,-1.08206 -1.57581,-2.02877c-0.16671,-1.37061 0.80925,-2.61685 2.17986,-2.78356c1.29317,-0.15729 2.47563,0.70262 2.74514,1.95146c0.59027,0.25635 0.96577,0.66654 0.96577,0.66654c2.33221,2.5811 4.80902,4.06703 6.91407,6.9221l1.07563,1.00282c0.91869,0.27887 1.63327,1.07704 1.75664,2.09135z" fill="#fff15b" stroke="none" stroke-width="0.5"/><path d="M280.48282,140.64876c2.28335,1.01799 1.26536,3.30134 1.26536,3.30134l-0.97506,2.11408c-2.39295,3.6232 -5.27092,4.2916 -5.08551,8.40209c0.44979,0.3916 0.76184,0.94454 0.83952,1.58317c0.16671,1.37061 -0.80925,2.61685 -2.17986,2.78356c-0.80226,0.09758 -1.56191,-0.19633 -2.0874,-0.73173c-1.25516,-0.52253 -1.43844,-2.02943 -1.43844,-2.02943c-0.32621,-3.07874 -0.98883,-4.85115 1.00365,-7.81007c1.27192,-1.88885 3.53847,-2.98227 4.74856,-4.91131l0.60784,-1.43634c0,0 1.01799,-2.28335 3.30134,-1.26536z" fill="#fff15b" stroke="none" stroke-width="0.5"/><path d="M411.67313,153.21111c-2.48171,0.30185 -2.78356,-2.17986 -2.78356,-2.17986l-0.04025,-0.33089c0.00004,-0.65131 0.35238,-1.4061 0.00011,-1.95392c-0.41407,-0.64392 -1.54518,-0.52166 -1.99185,-1.14341c-0.88539,-1.23245 -1.21708,-2.78031 -1.82562,-4.17047c0,0 -0.9442,-2.31484 1.37065,-3.25904c0.39603,-0.16154 0.75194,-0.22768 1.06987,-0.22635c0.33662,-0.24989 0.74077,-0.4184 1.1867,-0.47264c1.37061,-0.16671 2.61685,0.80925 2.78356,2.17986c0.11316,0.93039 -0.3002,1.80348 -1.00613,2.32049c0.07743,0.15254 0.16621,0.29891 0.27021,0.43702c0.58467,0.77642 1.91535,0.82964 2.38136,1.68257c0.65003,1.18975 0.48303,2.66812 0.72455,4.00219l0.04025,0.33089c0,0 0.30185,2.48171 -2.17986,2.78356z" fill="#fff15b" stroke="none" stroke-width="0.5"/><path d="M362.65456,254.0339c-0.30185,-2.48171 2.17986,-2.78356 2.17986,-2.78356l2.15433,-0.2106c0.25599,-0.15681 0.51156,-0.33068 0.76764,-0.51605c0.23534,-0.98821 1.06342,-1.77283 2.13086,-1.90267c0.11252,-0.01369 0.22421,-0.01967 0.33453,-0.01837c1.37534,-1.03772 2.84278,-1.91919 4.5298,-1.90141c0.0922,0.00097 0.18416,0.00395 0.27587,0.0088l-0.00688,-0.05655l2.64716,-0.32197c1.37061,-0.16671 2.61685,0.80925 2.78356,2.17986c0.13189,1.08432 -0.45139,2.09081 -1.37947,2.5465l-2.34179,1.21858c-1.62526,1.20132 -3.40532,2.19811 -5.22832,3.07054c0,0 -1.17654,0.5579 -2.23405,0.01933c-0.22622,0.14389 -0.4557,0.28251 -0.68958,0.41408l-3.13998,0.43335c0,0 -2.48171,0.30185 -2.78356,-2.17986z" fill="#fff15b" stroke="none" stroke-width="0.5"/><path d="M335.17577,124.73912c-0.16671,-1.37061 0.80925,-2.61685 2.17986,-2.78356c1.37061,-0.16671 2.61685,0.80925 2.78356,2.17986c0.16671,1.37061 -0.80925,2.61685 -2.17986,2.78356c-1.37061,0.16671 -2.61685,-0.80925 -2.78356,-2.17986z" fill="#fff15b" stroke="none" stroke-width="0.5"/></g></g></svg>