<svg version="1.1" xmlns="http://www.w3.org/2000/svg" xmlns:xlink="http://www.w3.org/1999/xlink" width="263.02244" height="192.32284" viewBox="0,0,263.02244,192.32284"><defs><linearGradient x1="350.62928" y1="150.67659" x2="350.62928" y2="279.43717" gradientUnits="userSpaceOnUse" id="color-1"><stop offset="0" stop-color="#c7ad00"/><stop offset="1" stop-color="#ff0088"/></linearGradient></defs><g transform="translate(-219.5546,-88.68268)"><g stroke-miterlimit="10"><path d="M286.39403,270.15968c0,0 -2.113,-5.05365 -2.113,-21.36636c0,-21.90116 0,-50.41457 0,-63.81798c0,-14.21979 3.09906,-26.4269 3.09906,-26.4269c0,0 1.9462,-7.87185 7.32508,-7.87185c14.82673,0 84.99103,0 111.81299,0c6.50392,0 7.07857,8.43409 7.07857,8.43409c0,0 3.3808,6.41373 3.3808,24.74008c0,21.62501 0,48.09346 0,60.72549c0,13.87123 -2.32431,24.74 -2.32431,24.74c0,0 -1.45722,8.49546 -7.71201,8.59481c-26.53557,0.42144 -97.5858,1.52611 -113.25731,1.52611c-6.14802,0 -7.28985,-9.27751 -7.28985,-9.27751z" fill="url(#color-1)" stroke="#000000" stroke-width="2.5" stroke-linecap="butt"/><path d="M289.57149,266.93679c0,0 -2.00849,-4.75358 -2.00849,-20.09756c0,-20.60058 0,-47.42082 0,-60.02829c0,-13.37538 2.94577,-24.85758 2.94577,-24.85758c0,0 1.84992,-7.40439 6.96273,-7.40439c14.09331,0 80.78686,0 106.28206,0c6.18219,0 6.72841,7.93326 6.72841,7.93326c0,0 3.21358,6.03283 3.21358,23.27092c0,20.34084 0,45.23756 0,57.11945c0,13.04752 -2.20934,23.27084 -2.20934,23.27084c0,0 -1.38514,7.99099 -7.33055,8.08443c-25.22296,0.39643 -92.75863,1.4355 -107.65493,1.4355c-5.8439,0 -6.92926,-8.7266 -6.92926,-8.7266z" fill="none" stroke="#2e29b1" stroke-width="6.5" stroke-linecap="butt"/><text transform="translate(252.0961,138.00654) scale(0.97671,0.97671)" font-size="40" xml:space="preserve" fill="#000000" stroke="#ffffff" stroke-width="1" stroke-linecap="butt" font-family="Pixel" font-weight="normal" text-anchor="start"><tspan x="0" dy="0">You Got!</tspan></text><g fill="#ffffff" stroke="none" stroke-width="0" stroke-linecap="butt"><path d="M375.44741,173.63784c0.10366,-4.89751 1.18233,-8.53234 2.40931,-8.11862c1.22698,0.41373 2.13762,4.71932 2.03397,9.61682c-0.10366,4.89751 -1.18233,8.53234 -2.40931,8.11862c-1.22698,-0.41373 -2.13762,-4.71932 -2.03397,-9.61682z"/><path d="M385.15423,175.63501c0.10366,-4.89751 1.83613,-8.31189 3.8696,-7.62623c0.71122,0.23981 1.73779,0.72072 2.28296,1.75171c0.55066,1.04138 3.42858,0.82452 5.42023,2.85166c1.67408,1.7039 2.55771,5.61393 2.52694,7.06827c-0.02761,1.30403 0.25638,5.95757 -1.71293,7.05246c-1.87024,1.03979 -0.07575,0.70734 -0.43913,1.37804c-0.69099,1.27539 -7.47562,-2.03697 -8.45343,-2.36664c-2.03348,-0.68566 -3.59791,-5.21172 -3.49425,-10.1092z"/></g><text transform="translate(367.93407,168.24689) scale(0.66735,0.66735)" font-size="40" xml:space="preserve" fill="#ffffff" stroke="#000000" stroke-width="1" stroke-linecap="butt" font-family="Pixel" font-weight="normal" text-anchor="start"><tspan x="0" dy="0">39%</tspan></text><g><path d="M354.47013,179.27925c0,0 2.96939,-7.14276 5.1751,-9.65018c1.8945,-2.15363 13.21894,-3.99444 13.21894,-3.99444l4.72482,8.89051c0,0 -6.65112,1.64093 -8.57047,3.82284c-2.19206,2.49189 -3.87276,10.3224 -3.87276,10.3224z" fill="#794100" stroke="none" stroke-width="0" stroke-linecap="butt"/><path d="M340.83211,209.42631l4.07081,-6.49215" fill="none" stroke="#000000" stroke-width="1" stroke-linecap="round"/><path d="M334.06814,225.25152l2.58416,-4.82747" fill="none" stroke="#000000" stroke-width="1" stroke-linecap="round"/><path d="M316.64265,253.59505l4.86863,-9.57727" fill="none" stroke="#000000" stroke-width="1" stroke-linecap="round"/><path d="M346.70872,195.11042l-2.10739,3.58456" fill="none" stroke="#000000" stroke-width="1" stroke-linecap="round"/><path d="M368.16557,205.86875l-0.21963,-0.121c0,0 0.07856,0.04211 0.21963,0.121z" fill="#89440f" stroke="none" stroke-width="0" stroke-linecap="butt"/><path d="M316.75893,167.00959l16.58656,7.21276" fill="none" stroke="#000000" stroke-width="0.5" stroke-linecap="round"/><path d="M349.10896,177.65092l-6.33962,-3.47327" fill="none" stroke="#000000" stroke-width="0.5" stroke-linecap="round"/><path d="M353.98718,189.65821l-15.02207,-8.57782" fill="none" stroke="#000000" stroke-width="0.5" stroke-linecap="round"/><path d="M362.54514,189.35826l-6.67238,-2.90731" fill="none" stroke="#000000" stroke-width="0.5" stroke-linecap="round"/><path d="M368.18425,190.13488l6.9837,4.10581" fill="none" stroke="#000000" stroke-width="0.5" stroke-linecap="round"/><path d="M381.51141,206.34776l-13.8234,-8.88857" fill="none" stroke="#000000" stroke-width="0.5" stroke-linecap="round"/><path d="M390.28143,208.71124l-3.37607,-3.76191" fill="none" stroke="#000000" stroke-width="0.5" stroke-linecap="round"/><path d="M390.439,213.6274l2.73199,3.12938" fill="none" stroke="#000000" stroke-width="0.5" stroke-linecap="round"/><path d="M312.39037,254.92535c0,0 25.3024,-47.01894 31.39366,-58.33822c2.5006,-4.64681 -0.38847,-12.26597 -0.38847,-12.26597l22.90063,12.42982c0,0 -7.35003,0.62711 -10.21965,5.73593c-0.88177,1.5698 -3.96922,2.93401 -4.98004,4.71877c-1.72122,3.03906 -1.45664,6.64313 -3.29068,9.81293c-2.60102,4.49537 -5.14993,8.81017 -7.17709,12.05927c-6.67721,10.70213 -20.84218,30.64803 -20.84218,30.64803c0,0 -3.54049,0.7357 -4.66385,0.00657c-1.31249,-0.8519 -2.73233,-4.80713 -2.73233,-4.80713z" fill="#613600" stroke="none" stroke-width="NaN" stroke-linecap="butt"/><path d="M312.83676,255.42139c0,0 25.3024,-47.01893 31.39366,-58.33821c2.5006,-4.64681 -0.38847,-12.26599 -0.38847,-12.26599l22.90063,12.42982c0,0 -2.89849,0.2473 -5.76576,1.69646c-1.12241,-0.44984 -2.30715,-0.82229 -3.55601,-1.10907c-6.2624,-1.43812 -14.04154,2.66124 -17.22631,8.07832c-7.74387,13.17178 -12.54937,28.70561 -18.99376,42.8448c-1.6719,3.66819 -4.43407,6.49016 -7.25252,9.23232c-0.64518,-1.26946 -1.11148,-2.56844 -1.11148,-2.56844z" fill="#573000" stroke="none" stroke-width="NaN" stroke-linecap="butt"/><path d="M338.75654,223.25041l-8.86162,16.36903" fill="none" stroke="#000000" stroke-width="0.5" stroke-linecap="round"/><path d="M344.0105,206.53748l-3.99297,6.79178" fill="none" stroke="#000000" stroke-width="0.5" stroke-linecap="round"/><path d="M318.24684,255.11186l5.98946,-10.18766" fill="none" stroke="#000000" stroke-width="0.5" stroke-linecap="round"/><path d="M353.54337,201.98718l-2.70674,3.73992" fill="none" stroke="#000000" stroke-width="0.5" stroke-linecap="round"/><path d="M310.54333,170.98365l-12.92158,-2.60294l20.2326,-9.83264c0,0 33.86718,12.67472 47.93325,20.94435c12.62786,7.42409 32.61486,26.41096 32.61486,26.41096l-2.49574,22.97396l-4.81529,-10.53839c0,0 -18.04524,-17.84529 -30.05778,-24.90763c-14.40124,-8.46668 -50.49034,-22.44768 -50.49034,-22.44768z" fill="#ff8900" stroke="#000000" stroke-width="0.5" stroke-linecap="butt"/><path d="M311.87104,171.61717l-13.54217,-2.96779l14.71497,-6.68089c2.32264,1.1429 4.26547,2.06241 4.94468,2.4533c16.1704,9.3061 34.87903,18.66356 49.03305,30.85818c1.45571,1.2542 2.70117,2.68164 3.85081,4.18998c-2.0092,-1.43469 -3.95973,-2.7293 -5.77614,-3.79719c-15.23342,-8.95593 -53.22525,-24.05556 -53.22525,-24.05556z" fill="#d67200" stroke="none" stroke-width="0" stroke-linecap="butt"/><path d="M376.29856,202.20184c-0.65961,-0.19433 -0.46528,-0.85392 -0.46528,-0.85392l0.23576,-0.78207c1.32245,-2.27262 2.83156,-6.38569 5.66061,-6.52498c0,0 0.68761,-0.00615 0.69374,0.68146c0.00613,0.68762 -0.68146,0.69375 -0.68146,0.69375c-1.83369,-0.10768 -3.5115,4.18483 -4.41105,5.6967l-0.17841,0.62378c0,0 -0.19431,0.65961 -0.85392,0.46528z" fill="#ca6b00" stroke="none" stroke-width="0.5" stroke-linecap="butt"/><path d="M360.31646,190.74042c-0.66559,0.17273 -0.83832,-0.49286 -0.83832,-0.49286l-0.05347,-1.00781c1.94174,-3.30278 3.64793,-6.05858 7.17567,-7.7693c0,0 0.6188,-0.2999 0.91871,0.31887c0.2999,0.61879 -0.31887,0.91871 -0.31887,0.91871c-3.26115,1.57977 -4.78922,4.16583 -6.58993,7.22873l0.19908,-0.03466c0,0 0.17273,0.66559 -0.49286,0.83832z" fill="#ca6b00" stroke="none" stroke-width="0.5" stroke-linecap="butt"/><path d="M346.75445,184.44394c-0.59278,-0.34849 -0.24428,-0.94128 -0.24428,-0.94128l0.00304,0.09187c0.60992,-3.99186 2.7317,-7.06893 6.07958,-9.24273c0,0 0.57682,-0.37433 0.95116,0.20247c0.37433,0.5768 -0.20247,0.95115 -0.20247,0.95115c-3.01503,1.95578 -4.92298,4.6947 -5.46863,8.29594l-0.17711,0.39831c0,0 -0.34849,0.59277 -0.94129,0.24428z" fill="#ca6b00" stroke="none" stroke-width="0.5" stroke-linecap="butt"/><path d="M332.78514,176.64356c-0.59278,-0.34849 -0.24429,-0.94129 -0.24429,-0.94129l0.18016,-0.30642c1.68576,-2.86735 3.37118,-4.66281 5.75798,-6.93627c0,0 0.49793,-0.47423 0.97216,0.02371c0.47423,0.49794 -0.02371,0.97218 -0.02371,0.97218c-2.32033,2.20951 -3.88263,3.85086 -5.52087,6.63739l-0.18016,0.30642c0,0 -0.34849,0.59278 -0.94128,0.24428z" fill="#ca6b00" stroke="none" stroke-width="0.5" stroke-linecap="butt"/><path d="M322.55606,171.24826c-0.59278,-0.34849 -0.24428,-0.94129 -0.24428,-0.94129l0.11332,-0.15224c0.79526,-2.63785 2.61792,-4.21369 4.38494,-6.05575c0,0 0.48188,-0.49056 0.97243,-0.00869c0.49056,0.48187 0.00868,0.97243 0.00868,0.97243c-1.6248,1.62466 -3.35958,3.0777 -4.04684,5.48067l-0.24697,0.46059c0,0 -0.34849,0.59277 -0.94128,0.24428z" fill="#ca6b00" stroke="none" stroke-width="0.5" stroke-linecap="butt"/><path d="M339.58177,179.66288c0,0 -2.05112,-3.97264 -2.21882,-6.53335c-0.2392,-3.65284 0.92034,-13.29575 0.92034,-13.29575l6.45283,11.06187c0,0 5.56899,6.01279 9.13627,8.11005c1.03793,0.61021 5.2899,3.17752 5.2899,3.17752l0.33145,0.38373l0.67413,3.65514l3.16976,1.93586l2.92806,-2.32308l6.8074,1.72045c0,0 3.55486,-0.16571 5.64603,0.0572c3.11045,0.33154 11.20502,1.73893 11.20502,1.73893c0,0 -6.4452,4.19446 -10.25475,5.40129c-1.03015,0.32634 -9.17855,2.94621 -9.17855,2.94621l1.25015,-5.58567l-3.52333,-0.93888l-3.31616,4.25804l-3.8202,-0.43712c0,0 -6.38967,-3.28904 -8.24206,-4.37807c-0.6159,-0.36209 -3.96677,-2.01352 -4.44788,-3.88754c-0.07971,-0.31047 -0.31487,-1.07623 -0.31487,-1.07623l2.10299,-3.57046l-3.83409,-2.85542c0,0 -2.6654,3.33739 -3.41809,3.38583c-1.24426,0.08008 -3.34556,-2.95054 -3.34556,-2.95054z" fill="#ffe500" stroke="#000000" stroke-width="1" stroke-linecap="butt"/><path d="M368.97097,165.40331l-0.81798,17.15317l-13.77276,-8.09719z" fill="#ffe500" stroke="#000000" stroke-width="1" stroke-linecap="butt"/><path d="M360.33292,145.65951l-0.81797,17.15316l-13.77276,-8.09719z" fill="#ffe500" stroke="#000000" stroke-width="1" stroke-linecap="butt"/><path d="M389.90076,164.02321l-0.81797,17.15317l-13.77276,-8.09719z" fill="#ffe500" stroke="#000000" stroke-width="1" stroke-linecap="butt"/></g><text transform="translate(220.68486,267.18406) scale(0.80212,0.80212)" font-size="40" xml:space="preserve" fill="#ffffff" stroke="#000000" stroke-width="1" stroke-linecap="butt" font-family="Pixel" font-weight="normal" text-anchor="start"><tspan x="0" dy="0">Jack o Lantern</tspan></text><text transform="translate(282.40079,240.05475) scale(0.70836,0.70836)" font-size="40" xml:space="preserve" fill="#ffffff" stroke="#000000" stroke-width="1" stroke-linecap="butt" font-family="Pixel" font-weight="normal" text-anchor="start"><tspan x="0" dy="0">Rainbow</tspan></text></g></g></svg>