<svg version="1.1" xmlns="http://www.w3.org/2000/svg" xmlns:xlink="http://www.w3.org/1999/xlink" width="198.05049" height="193.00051" viewBox="0,0,198.05049,193.00051"><defs><linearGradient x1="350.62928" y1="150.67659" x2="350.62928" y2="279.43717" gradientUnits="userSpaceOnUse" id="color-1"><stop offset="0" stop-color="#c7ad00"/><stop offset="1" stop-color="#ff0088"/></linearGradient></defs><g transform="translate(-251.72028,-88.00501)"><g stroke-miterlimit="10"><path d="M286.39403,270.15968c0,0 -2.113,-5.05365 -2.113,-21.36636c0,-21.90116 0,-50.41457 0,-63.81798c0,-14.21979 3.09906,-26.4269 3.09906,-26.4269c0,0 1.9462,-7.87185 7.32508,-7.87185c14.82673,0 84.99103,0 111.81299,0c6.50392,0 7.07857,8.43409 7.07857,8.43409c0,0 3.3808,6.41373 3.3808,24.74008c0,21.62501 0,48.09346 0,60.72549c0,13.87123 -2.32431,24.74 -2.32431,24.74c0,0 -1.45722,8.49546 -7.71201,8.59481c-26.53557,0.42144 -97.5858,1.52611 -113.25731,1.52611c-6.14802,0 -7.28985,-9.27751 -7.28985,-9.27751z" fill="url(#color-1)" stroke="#000000" stroke-width="2.5" stroke-linecap="butt"/><path d="M289.57149,266.93679c0,0 -2.00849,-4.75358 -2.00849,-20.09756c0,-20.60058 0,-47.42082 0,-60.02829c0,-13.37538 2.94577,-24.85758 2.94577,-24.85758c0,0 1.84992,-7.40439 6.96273,-7.40439c14.09331,0 80.78686,0 106.28206,0c6.18219,0 6.72841,7.93326 6.72841,7.93326c0,0 3.21358,6.03283 3.21358,23.27092c0,20.34084 0,45.23756 0,57.11945c0,13.04752 -2.20934,23.27084 -2.20934,23.27084c0,0 -1.38514,7.99099 -7.33055,8.08443c-25.22296,0.39643 -92.75863,1.4355 -107.65493,1.4355c-5.8439,0 -6.92926,-8.7266 -6.92926,-8.7266z" fill="none" stroke="#2e29b1" stroke-width="6.5" stroke-linecap="butt"/><text transform="translate(253.09655,137.32887) scale(0.97671,0.97671)" font-size="40" xml:space="preserve" fill="#000000" stroke="#ffffff" stroke-width="1" stroke-linecap="butt" font-family="Pixel" font-weight="normal" text-anchor="start"><tspan x="0" dy="0">You Got!</tspan></text><path d="M319.86163,156.24283c0.6617,-0.88306 1.91398,-1.06252 2.79705,-0.40081c0.88306,0.6617 1.06252,1.91398 0.40081,2.79705c-0.6617,0.88306 -1.91398,1.06252 -2.79705,0.40081c-0.88306,-0.6617 -1.06252,-1.91398 -0.40081,-2.79705z" fill="#969696" stroke="none" stroke-width="0" stroke-linecap="butt"/><g fill="#ffffff" stroke="none" stroke-width="0" stroke-linecap="butt"><path d="M382.98735,179.01561c0.10701,-5.05609 1.22062,-8.80862 2.48732,-8.3815c1.26671,0.42711 2.20683,4.87212 2.09982,9.92821c-0.10701,5.05609 -1.22062,8.80862 -2.48732,8.38151c-1.26671,-0.42711 -2.20683,-4.87213 -2.09982,-9.92821z"/><path d="M393.00843,181.07746c0.10701,-5.05609 1.89559,-8.58103 3.99491,-7.87316c0.73426,0.24757 1.79407,0.74406 2.35689,1.80843c0.56849,1.07511 3.53959,0.85121 5.59573,2.944c1.7283,1.75907 2.64054,5.79571 2.60876,7.29715c-0.0285,1.34626 0.26469,6.15049 -1.76839,7.28081c-1.9308,1.07345 -0.07821,0.73024 -0.45335,1.42266c-0.71335,1.31669 -7.71767,-2.10292 -8.72716,-2.44327c-2.09931,-0.70786 -3.7144,-5.38047 -3.60739,-10.43653z"/></g><text transform="translate(378.35115,174.17097) scale(0.68896,0.68896)" font-size="40" xml:space="preserve" fill="#ffffff" stroke="#000000" stroke-width="1" stroke-linecap="butt" font-family="Pixel" font-weight="normal" text-anchor="start"><tspan x="0" dy="0">25%</tspan></text><g><path d="M323.61057,258.11945l4.37318,-10.21068" fill="none" stroke="#000000" stroke-width="1" stroke-linecap="round"/><path d="M400.0632,214.92443l-3.03074,-3.04316" fill="none" stroke="#000000" stroke-width="0.5" stroke-linecap="round"/><path d="M330.85652,248.6591l-5.48813,10.91642" fill="none" stroke="#000000" stroke-width="0.5" stroke-linecap="round"/><path d="M345.57013,210.91174l3.75936,-6.9738" fill="none" stroke="#000000" stroke-width="1" stroke-linecap="round"/><path d="M339.66535,227.69673l2.33855,-5.15558" fill="none" stroke="#000000" stroke-width="1" stroke-linecap="round"/><path d="M350.66183,195.74402l-1.931,3.84097" fill="none" stroke="#000000" stroke-width="1" stroke-linecap="round"/><path d="M373.52765,205.38768l-0.23481,-0.10994c0,0 0.0839,0.03811 0.23481,0.10994z" fill="#89440f" stroke="none" stroke-width="0" stroke-linecap="butt"/><path d="M335.45881,175.10103l-17.60088,-6.31614" fill="none" stroke="#000000" stroke-width="0.5" stroke-linecap="round"/><path d="M345.17798,174.41577l6.7759,3.15323" fill="none" stroke="#000000" stroke-width="0.5" stroke-linecap="round"/><path d="M357.8009,189.62555l-16.07942,-7.83051" fill="none" stroke="#000000" stroke-width="0.5" stroke-linecap="round"/><path d="M366.60947,188.73568l-7.0808,-2.54681" fill="none" stroke="#000000" stroke-width="0.5" stroke-linecap="round"/><path d="M372.47978,189.15443l7.48326,3.76213" fill="none" stroke="#000000" stroke-width="0.5" stroke-linecap="round"/><path d="M387.32848,204.97668l-14.86389,-8.23239" fill="none" stroke="#000000" stroke-width="0.5" stroke-linecap="round"/><path d="M392.79837,203.16812l3.73808,3.65205" fill="none" stroke="#000000" stroke-width="0.5" stroke-linecap="round"/><path d="M319.31387,259.78027c0,0 22.91446,-50.22362 28.43082,-62.31439c2.2646,-4.96353 -1.23271,-12.62794 -1.23271,-12.62794l24.46869,11.2701c0,0 -7.54018,1.14548 -10.15417,6.61067c-0.80319,1.67931 -3.89589,3.29609 -4.81767,5.20593c-1.56957,3.252 -1.0522,6.95224 -2.72931,10.34678c-2.37848,4.8141 -4.71543,9.43838 -6.58639,12.92783c-6.16276,11.49382 -19.42334,33.03191 -19.42334,33.03191c0,0 -3.60266,0.99912 -4.81105,0.3231c-1.41182,-0.78984 -3.1449,-4.77399 -3.1449,-4.77399z" fill="#613600" stroke="none" stroke-width="NaN" stroke-linecap="butt"/><path d="M319.80805,260.26174c0,0 22.91445,-50.22362 28.43081,-62.3144c2.2646,-4.96353 -1.23269,-12.62797 -1.23269,-12.62797l24.46871,11.27013c0,0 -2.97349,0.45174 -5.83326,2.14124c-1.18845,-0.38795 -2.43595,-0.69184 -3.7438,-0.90301c-6.5582,-1.05891 -14.30561,3.69787 -17.22378,9.50244c-7.09567,14.11399 -10.99974,30.46553 -16.68915,45.48945c-1.47604,3.89771 -4.13425,6.99639 -6.85594,10.01651c-0.7517,-1.26588 -1.32088,-2.57438 -1.32088,-2.57438z" fill="#573000" stroke="none" stroke-width="NaN" stroke-linecap="butt"/><path d="M344.36648,225.31427l-8.03197,17.48829" fill="none" stroke="#000000" stroke-width="0.5" stroke-linecap="round"/><path d="M348.65323,207.71586l-3.65875,7.27763" fill="none" stroke="#000000" stroke-width="0.5" stroke-linecap="round"/><path d="M358.17924,202.37496l-2.53878,4.0419" fill="none" stroke="#000000" stroke-width="0.5" stroke-linecap="round"/><path d="M311.71508,173.30634l-13.50721,-1.80896l20.20625,-11.51617c0,0 35.79902,10.77893 50.87133,18.35635c13.53116,6.80264 35.43871,25.03505 35.43871,25.03505l-1.0166,23.87056l-5.6825,-10.54544c0,0 -19.82688,-17.18633 -32.69871,-23.65751c-15.43144,-7.75797 -53.61131,-19.73391 -53.61131,-19.73391z" fill="#2d2d2d" stroke="#000000" stroke-width="0.5" stroke-linecap="butt"/><path d="M313.12782,173.86986l-14.17219,-2.14325l14.72772,-7.89043c2.47368,1.02154 4.54039,1.83841 5.26762,2.19562c17.31352,8.504 37.24911,16.88878 52.67835,28.5095c1.58688,1.19519 2.96857,2.58335 4.25691,4.06145c-2.17012,-1.34384 -4.27021,-2.54713 -6.21657,-3.52565c-16.32313,-8.20628 -56.54188,-21.2072 -56.54188,-21.2072z" fill="#000000" stroke="none" stroke-width="0" stroke-linecap="butt"/><path d="M377.20396,188.78232l1.76935,-2.32324l12.69431,9.66795l-1.76935,2.32323z" fill="#ffffff" stroke="none" stroke-width="0" stroke-linecap="butt"/><path d="M392.98173,202.3824l2.18623,-2.43744l2.5446,2.28235l-2.18622,2.43743z" fill="#ffffff" stroke="none" stroke-width="0" stroke-linecap="butt"/><g stroke="none" stroke-width="0" stroke-linecap="butt"><path d="M319.42519,180.07898c0,0 1.8544,-3.53674 0.59997,-5.60084c-1.02505,-1.68664 -5.2121,-1.84696 -5.16444,-2.79961c0.08982,-1.79465 5.16015,-3.50086 5.16015,-3.50086c0,0 0.21408,-6.44193 1.62636,-6.97959c0.19298,-0.07347 3.02544,-0.90122 3.18058,-0.89345c0.20205,0.01011 2.79111,1.87432 3.02955,2.01644c1.31635,0.78456 -0.01098,6.24827 -0.01098,6.24827c0,0 5.71226,5.06078 5.62426,6.8191c-0.06144,1.22757 -3.02503,-1.81697 -4.75397,-0.76703c-1.27826,0.77626 -1.46596,5.84923 -1.46596,5.84923c0,0 -7.29839,4.29274 -8.62867,4.22616c-1.27596,-0.06387 0.80317,-4.61783 0.80317,-4.61783z" fill-opacity="0.59608" fill="#ffffff"/><path d="M322.62713,165.7874c0.04105,-0.82 0.73906,-1.45147 1.55906,-1.41044c0.82,0.04105 1.45147,0.73906 1.41044,1.55906c-0.04105,0.82 -0.73906,1.45147 -1.55906,1.41044c-0.82,-0.04105 -1.45147,-0.73906 -1.41044,-1.55906z" fill-opacity="0.69412" fill="#000000"/><path d="M321.72624,162.79456c0.02736,-0.54666 0.49271,-0.96765 1.03937,-0.94029c0.54666,0.02736 0.96765,0.49271 0.94029,1.03937c-0.02736,0.54666 -0.49271,0.96765 -1.03937,0.94029c-0.54666,-0.02736 -0.96765,-0.49271 -0.94029,-1.03937z" fill-opacity="0.69412" fill="#000000"/><path d="M325.15571,163.08297c0.02736,-0.54666 0.49271,-0.96765 1.03937,-0.94029c0.54666,0.02736 0.96765,0.49271 0.94029,1.03937c-0.02736,0.54666 -0.49271,0.96765 -1.03937,0.94029c-0.54666,-0.02736 -0.96765,-0.49271 -0.94029,-1.03937z" fill-opacity="0.69412" fill="#000000"/></g><g stroke="none" stroke-width="0" stroke-linecap="butt"><path d="M383.33313,197.11202c0,0 3.89123,-0.89754 4.63979,-3.19403c0.61165,-1.87652 -1.99477,-5.15735 -1.241,-5.74187c1.41998,-1.10114 6.01783,1.63362 6.01783,1.63362c0,0 5.02643,-4.03477 6.35445,-3.3137c0.18146,0.09854 2.65487,1.70797 2.75004,1.83072c0.12397,0.15988 0.39664,3.33859 0.44418,3.61205c0.26248,1.50976 -4.74718,4.06266 -4.74718,4.06266c0,0 -0.11743,7.6307 -1.50864,8.70955c-0.97129,0.7532 -0.59254,-3.47866 -2.51552,-4.10618c-1.42173,-0.46394 -5.39244,2.69891 -5.39244,2.69891c0,0 -8.01174,-2.73979 -8.82794,-3.79234c-0.7829,-1.00957 4.02646,-2.3994 4.02646,-2.3994z" fill-opacity="0.59608" fill="#ffffff"/><path d="M396.26111,190.22954c0.64881,-0.50313 1.58264,-0.38504 2.08578,0.26378c0.50313,0.64881 0.38504,1.58264 -0.26378,2.08578c-0.64881,0.50313 -1.58264,0.38504 -2.08578,-0.26378c-0.50313,-0.64881 -0.38504,-1.58264 0.26378,-2.08578z" fill-opacity="0.69412" fill="#000000"/><path d="M397.94455,187.59614c0.43253,-0.33543 1.05509,-0.25668 1.39052,0.17586c0.33543,0.43253 0.25668,1.05509 -0.17586,1.39052c-0.43253,0.33543 -1.05509,0.25668 -1.39052,-0.17586c-0.33543,-0.43253 -0.25669,-1.05509 0.17584,-1.39052z" fill-opacity="0.69412" fill="#000000"/><path d="M399.96023,190.38571c0.43253,-0.33543 1.05509,-0.25669 1.39052,0.17584c0.33543,0.43253 0.25668,1.05509 -0.17586,1.39052c-0.43253,0.33543 -1.05509,0.25668 -1.39052,-0.17586c-0.33543,-0.43253 -0.25668,-1.05509 0.17586,-1.39052z" fill-opacity="0.69412" fill="#000000"/></g><g stroke="none" stroke-width="0" stroke-linecap="butt"><path d="M355.49637,183.53968c0,0 3.2297,-2.3487 3.01988,-4.75498c-0.17144,-1.96622 -3.85387,-3.96548 -3.38895,-4.79833c0.87583,-1.569 6.1772,-0.85156 6.1772,-0.85156c0,0 3.0467,-5.67998 4.55098,-5.53608c0.20556,0.01968 3.11152,0.53286 3.24713,0.60856c0.17664,0.09861 1.67147,2.91713 1.82224,3.1502c0.83236,1.28666 -2.7788,5.59636 -2.7788,5.59636c0,0 2.87801,7.06815 2.01991,8.60537c-0.59907,1.07322 -1.90657,-2.96937 -3.92176,-2.79435c-1.48991,0.1294 -3.90627,4.59386 -3.90627,4.59386c0,0 -8.44496,0.61387 -9.60798,-0.03533c-1.11552,-0.62269 2.76642,-3.7837 2.76642,-3.7837z" fill-opacity="0.59608" fill="#ffffff"/><path d="M364.70012,172.14703c0.40019,-0.7169 1.30575,-0.97366 2.02267,-0.57346c0.7169,0.40019 0.97366,1.30575 0.57347,2.02266c-0.40019,0.7169 -1.30575,0.97366 -2.02266,0.57347c-0.7169,-0.40019 -0.97366,-1.30575 -0.57347,-2.02267z" fill-opacity="0.69412" fill="#000000"/><path d="M365.21881,169.06487c0.26679,-0.47794 0.87052,-0.6491 1.34844,-0.38231c0.47794,0.26679 0.6491,0.87052 0.38231,1.34844c-0.26679,0.47794 -0.8705,0.6491 -1.34844,0.38231c-0.47794,-0.26679 -0.64911,-0.8705 -0.38232,-1.34844z" fill-opacity="0.69412" fill="#000000"/><path d="M368.16535,170.84321c0.26679,-0.47794 0.8705,-0.6491 1.34844,-0.38231c0.47794,0.26679 0.6491,0.87052 0.38231,1.34844c-0.26679,0.47794 -0.87052,0.6491 -1.34844,0.38231c-0.47794,-0.26679 -0.64908,-0.8705 -0.3823,-1.34843z" fill-opacity="0.69412" fill="#000000"/></g></g><text transform="translate(259.27333,270.76694) scale(0.68896,0.68896)" font-size="40" xml:space="preserve" fill="#ffffff" stroke="#000000" stroke-width="1" stroke-linecap="butt" font-family="Pixel" font-weight="normal" text-anchor="start"><tspan x="0" dy="0">Soul Splitter</tspan></text><text transform="translate(289.90079,243.55475) scale(0.70836,0.70836)" font-size="40" xml:space="preserve" fill="#ffffff" stroke="#000000" stroke-width="1" stroke-linecap="butt" font-family="Pixel" font-weight="normal" text-anchor="start"><tspan x="0" dy="0">Rainbow</tspan></text></g></g></svg>