<svg version="1.1" xmlns="http://www.w3.org/2000/svg" xmlns:xlink="http://www.w3.org/1999/xlink" width="238.01302" height="201.90428" viewBox="0,0,238.01302,201.90428"><g transform="translate(-239.36879,-88.005)"><g stroke-miterlimit="10"><path d="M288.45745,273.6237c0,0 -2.10109,-5.02518 -2.10109,-21.24601c0,-21.7778 0,-50.13062 0,-63.45852c0,-14.13969 3.08162,-26.27803 3.08162,-26.27803c0,0 1.93522,-7.8275 7.28381,-7.8275c14.74321,0 84.51229,0 111.18317,0c6.46727,0 7.03868,8.38658 7.03868,8.38658c0,0 3.36176,6.37761 3.36176,24.60072c0,21.50321 0,47.82258 0,60.38344c0,13.79309 -2.31122,24.60065 -2.31122,24.60065c0,0 -1.449,8.44762 -7.66857,8.5464c-26.3861,0.41906 -97.03611,1.51751 -112.61936,1.51751c-6.1134,0 -7.24878,-9.22525 -7.24878,-9.22525z" fill="#c7c7c7" stroke="#000000" stroke-width="2.5" stroke-linecap="butt"/><path d="M291.61705,270.41898c0,0 -1.99717,-4.72679 -1.99717,-19.98435c0,-20.48455 0,-47.15371 0,-59.69017c0,-13.30005 2.92919,-24.71757 2.92919,-24.71757c0,0 1.8395,-7.36267 6.9235,-7.36267c14.01393,0 80.33181,0 105.6834,0c6.14738,0 6.69052,7.88857 6.69052,7.88857c0,0 3.19547,5.99886 3.19547,23.13985c0,20.22626 0,44.98274 0,56.79771c0,12.97403 -2.19689,23.13976 -2.19689,23.13976c0,0 -1.37734,7.94597 -7.28925,8.03888c-25.0809,0.3942 -92.23614,1.42741 -107.04854,1.42741c-5.81099,0 -6.89023,-8.67744 -6.89023,-8.67744z" fill="none" stroke="#8f8f8f" stroke-width="6.5" stroke-linecap="butt"/><g fill="#ffffff" stroke="none" stroke-width="0" stroke-linecap="butt"><path d="M385.57986,180.51093c0.1094,-5.1692 1.24792,-9.00565 2.54296,-8.56898c1.29505,0.43667 2.25619,4.9811 2.14679,10.1503c-0.1094,5.1692 -1.24791,9.00565 -2.54296,8.56898c-1.29505,-0.43667 -2.2562,-4.9811 -2.14679,-10.15029z"/><path d="M395.82516,182.61888c0.1094,-5.16918 1.938,-8.77298 4.08427,-8.04927c0.75069,0.25311 1.83419,0.7607 2.40961,1.84887c0.58121,1.09915 3.61878,0.87025 5.7209,3.00985c1.76695,1.79842 2.69961,5.92536 2.66712,7.46037c-0.02914,1.37638 0.2706,6.28806 -1.80795,7.44368c-1.974,1.09746 -0.07995,0.74658 -0.46349,1.45448c-0.72932,1.34615 -7.8903,-2.14997 -8.92236,-2.49793c-2.14627,-0.7237 -3.79749,-5.50083 -3.6881,-10.66998z"/></g><text transform="translate(384.7287,175.5579) scale(0.70437,0.70437)" font-size="40" xml:space="preserve" fill="#ffffff" stroke="#000000" stroke-width="1" stroke-linecap="butt" font-family="Pixel" font-weight="normal" text-anchor="start"><tspan x="0" dy="0">10%</tspan></text><text transform="translate(248.03173,137.32886) scale(0.97671,0.97671)" font-size="40" xml:space="preserve" fill="#000000" stroke="#ffffff" stroke-width="1" stroke-linecap="butt" font-family="Pixel" font-weight="normal" text-anchor="start"><tspan x="0" dy="0">You Got!</tspan></text><g><path d="M328.09623,253.69494l-4.93578,11.12186" fill="none" stroke="#000000" stroke-width="1" stroke-linecap="round"/><path d="M325.06511,266.43674l6.16709,-11.87899" fill="none" stroke="#000000" stroke-width="0.5" stroke-linecap="round"/><path d="M352.10431,205.83606l-4.21727,7.5851" fill="none" stroke="#000000" stroke-width="1" stroke-linecap="round"/><path d="M343.81493,226.10854l-2.63504,5.61379" fill="none" stroke="#000000" stroke-width="1" stroke-linecap="round"/><path d="M353.68056,196.87987l-2.16989,4.17966" fill="none" stroke="#000000" stroke-width="1" stroke-linecap="round"/><path d="M378.58901,207.76914l-0.25562,-0.12377c0,0 0.09137,0.04295 0.25562,0.12377z" fill="#89440f" stroke="none" stroke-width="0" stroke-linecap="butt"/><path d="M361.58757,190.27984l-17.50087,-8.80645" fill="none" stroke="#000000" stroke-width="0.5" stroke-linecap="round"/><path d="M318.43038,266.57468c0,0 25.81556,-54.68548 32.03034,-67.85039c2.55132,-5.40449 -1.17015,-13.84956 -1.17015,-13.84956l26.64098,12.69363c0,0 -8.27545,1.14716 -11.21661,7.09616c-0.90372,1.82797 -4.31436,3.5548 -5.35127,5.63359c-1.76559,3.53968 -1.25168,7.60011 -3.1371,11.29439c-2.67391,5.2392 -5.29964,10.27104 -7.39875,14.06653c-6.91428,12.50183 -21.7464,35.90437 -21.7464,35.90437c0,0 -3.96041,1.04301 -5.27437,0.2853c-1.53517,-0.88529 -3.37667,-5.27402 -3.37667,-5.27402z" fill="#613600" stroke="none" stroke-width="NaN" stroke-linecap="butt"/><path d="M318.96481,267.10911c0,0 25.81555,-54.68546 32.03032,-67.85039c2.55132,-5.40449 -1.17013,-13.84959 -1.17013,-13.84959l26.64099,12.69368c0,0 -3.26345,0.45241 -6.41997,2.26219c-1.29623,-0.4419 -2.65834,-0.79254 -4.08789,-1.04249c-7.16841,-1.25341 -15.72235,3.84642 -19.00153,10.16281c-7.97351,15.35852 -12.48303,33.21345 -18.92919,49.5887c-1.67236,4.2483 -4.62821,7.6045 -7.65248,10.87375c-0.80531,-1.3973 -1.4101,-2.83866 -1.4101,-2.83866z" fill="#573000" stroke="none" stroke-width="NaN" stroke-linecap="butt"/><path d="M346.36322,229.17978l-9.0472,19.04119" fill="none" stroke="#000000" stroke-width="0.5" stroke-linecap="round"/><path d="M347.1983,217.88388l4.11139,-7.91935" fill="none" stroke="#000000" stroke-width="0.5" stroke-linecap="round"/><path d="M358.98165,208.64135l2.83849,-4.39107" fill="none" stroke="#000000" stroke-width="0.5" stroke-linecap="round"/><path d="M311.34036,171.74737l-14.76928,-2.17408l22.2971,-12.32602c0,0 39.05861,12.31723 55.45994,20.83211c14.7243,7.64423 38.46063,27.92749 38.46063,27.92749l-1.45396,26.13204l-6.0739,-11.63194c0,0 -21.4722,-19.10776 -35.47902,-26.37953c-16.79213,-8.71775 -58.44153,-22.38008 -58.44153,-22.38008z" fill-opacity="0.47451" fill="#000000" stroke="#000000" stroke-width="0.5" stroke-linecap="butt"/><path d="M312.87976,172.38477l-15.4929,-2.54973l16.24449,-8.43272c2.69496,1.15422 4.94707,2.07845 5.73855,2.48009c18.84302,9.56175 40.55982,19.03032 57.29444,31.97909c1.72112,1.33179 3.21478,2.872 4.60486,4.50941c-2.35787,-1.50291 -4.64103,-2.85089 -6.75902,-3.95047c-17.76245,-9.22152 -61.63049,-24.03564 -61.63049,-24.03564z" fill-opacity="0.18431" fill="#000000" stroke="none" stroke-width="0" stroke-linecap="butt"/><path d="M382.85266,189.63294l1.97119,-2.51951l13.76679,10.7708l-1.97117,2.51951z" fill="#ffffff" stroke="none" stroke-width="0" stroke-linecap="butt"/><path d="M399.94083,204.75478l2.42945,-2.63867l2.75467,2.53626l-2.42943,2.63865z" fill="#ffffff" stroke="none" stroke-width="0" stroke-linecap="butt"/></g><text transform="translate(240.36131,282.5134) scale(0.70437,0.70437)" font-size="40" xml:space="preserve" fill="#ffffff" stroke="#000000" stroke-width="1" stroke-linecap="butt" font-family="Pixel" font-weight="normal" text-anchor="start"><tspan x="0" dy="0">Shadow Cleaver</tspan></text></g></g></svg>