<svg version="1.1" xmlns="http://www.w3.org/2000/svg" xmlns:xlink="http://www.w3.org/1999/xlink" width="186.22591" height="193.20558" viewBox="0,0,186.22591,193.20558"><g transform="translate(-251.72027,-88.00502)"><g stroke-miterlimit="10"><text transform="translate(253.09655,137.32887) scale(0.97671,0.97671)" font-size="40" xml:space="preserve" fill="#000000" stroke="#ffffff" stroke-width="1" stroke-linecap="butt" font-family="Pixel" font-weight="normal" text-anchor="start"><tspan x="0" dy="0">You Got!</tspan></text><path d="M319.86163,156.24283c0.6617,-0.88306 1.91398,-1.06252 2.79705,-0.40081c0.88306,0.6617 1.06252,1.91398 0.40081,2.79705c-0.6617,0.88306 -1.91398,1.06252 -2.79705,0.40081c-0.88306,-0.6617 -1.06252,-1.91398 -0.40081,-2.79705z" fill="#969696" stroke="none" stroke-width="0" stroke-linecap="butt"/><path d="M287.98992,270.09119c0,0 -2.05513,-4.91524 -2.05513,-20.78117c0,-21.30132 0,-49.03379 0,-62.0701c0,-13.83033 3.01419,-25.7031 3.01419,-25.7031c0,0 1.89288,-7.65624 7.12445,-7.65624c14.42064,0 82.66324,0 108.75059,0c6.32578,0 6.88467,8.2031 6.88467,8.2031c0,0 3.28821,6.23807 3.28821,24.06249c0,21.03274 0,46.77626 0,59.06232c0,13.49132 -2.26065,24.06241 -2.26065,24.06241c0,0 -1.41731,8.26279 -7.5008,8.35942c-25.8088,0.4099 -94.91307,1.48431 -110.15535,1.48431c-5.97963,0 -7.09019,-9.02342 -7.09019,-9.02342z" fill="#c7c7c7" stroke="#000000" stroke-width="2.5" stroke-linecap="butt"/><path d="M291.08035,266.95655c0,0 -1.95348,-4.62338 -1.95348,-19.54711c0,-20.03636 0,-46.12203 0,-58.3842c0,-13.00905 2.86509,-24.17676 2.86509,-24.17676c0,0 1.79925,-7.20159 6.77202,-7.20159c13.70731,0 78.57423,0 103.37115,0c6.01288,0 6.54413,7.71597 6.54413,7.71597c0,0 3.12556,5.8676 3.12556,22.63356c0,19.78373 0,43.99857 0,55.55504c0,12.69016 -2.14883,22.63349 -2.14883,22.63349c0,0 -1.3472,7.77212 -7.12977,7.863c-24.53215,0.38557 -90.21809,1.39618 -104.70642,1.39618c-5.68385,0 -6.73949,-8.48759 -6.73949,-8.48759z" fill="none" stroke="#8f8f8f" stroke-width="6.5" stroke-linecap="butt"/><g fill="#ffffff" stroke="none" stroke-width="0" stroke-linecap="butt"><path d="M382.98735,179.01561c0.10701,-5.05609 1.22062,-8.80862 2.48732,-8.3815c1.26671,0.42711 2.20683,4.87212 2.09982,9.92821c-0.10701,5.05609 -1.22062,8.80862 -2.48732,8.38151c-1.26671,-0.42711 -2.20683,-4.87213 -2.09982,-9.92821z"/><path d="M393.00843,181.07746c0.10701,-5.05609 1.89559,-8.58103 3.99491,-7.87316c0.73426,0.24757 1.79407,0.74406 2.35689,1.80843c0.56849,1.07511 3.53959,0.85121 5.59573,2.944c1.7283,1.75907 2.64054,5.79571 2.60876,7.29715c-0.0285,1.34626 0.26469,6.15049 -1.76839,7.28081c-1.9308,1.07345 -0.07821,0.73024 -0.45335,1.42266c-0.71335,1.31669 -7.71767,-2.10292 -8.72716,-2.44327c-2.09931,-0.70786 -3.7144,-5.38047 -3.60739,-10.43653z"/></g><text transform="translate(378.35115,174.17097) scale(0.68896,0.68896)" font-size="40" xml:space="preserve" fill="#ffffff" stroke="#000000" stroke-width="1" stroke-linecap="butt" font-family="Pixel" font-weight="normal" text-anchor="start"><tspan x="0" dy="0">10%</tspan></text><g><path d="M326.27896,244.77715l-4.27782,10.07322" fill="none" stroke="#000000" stroke-width="1" stroke-linecap="round"/><path d="M397.19517,212.06185l-2.99519,-2.98912" fill="none" stroke="#000000" stroke-width="0.5" stroke-linecap="round"/><path d="M329.11159,245.50772l-5.37417,10.7719" fill="none" stroke="#000000" stroke-width="0.5" stroke-linecap="round"/><path d="M347.17691,201.3907l-3.68284,6.88226" fill="none" stroke="#000000" stroke-width="1" stroke-linecap="round"/><path d="M337.72712,224.82808l2.28848,-5.08656" fill="none" stroke="#000000" stroke-width="1" stroke-linecap="round"/><path d="M348.46485,193.31366l-1.89091,3.79013" fill="none" stroke="#000000" stroke-width="1" stroke-linecap="round"/><path d="M371.02238,202.74597l-0.23167,-0.10759c0,0 0.08278,0.0373 0.23167,0.10759z" fill="#89440f" stroke="none" stroke-width="0" stroke-linecap="butt"/><path d="M333.42381,173.02118l-17.36024,-6.16978" fill="none" stroke="#000000" stroke-width="0.5" stroke-linecap="round"/><path d="M342.99749,172.31669l6.68544,3.08624" fill="none" stroke="#000000" stroke-width="0.5" stroke-linecap="round"/><path d="M355.48009,187.26392l-15.86581,-7.6664" fill="none" stroke="#000000" stroke-width="0.5" stroke-linecap="round"/><path d="M364.15599,186.36058l-6.984,-2.48783" fill="none" stroke="#000000" stroke-width="0.5" stroke-linecap="round"/><path d="M369.94096,186.75539l7.38419,3.68402" fill="none" stroke="#000000" stroke-width="0.5" stroke-linecap="round"/><path d="M369.9489,194.23331l14.66943,8.06603" fill="none" stroke="#000000" stroke-width="0.5" stroke-linecap="round"/><path d="M393.69599,204.08783l-3.69395,-3.58687" fill="none" stroke="#000000" stroke-width="0.5" stroke-linecap="round"/><path d="M317.77286,256.49967c0,0 22.42465,-49.55172 27.82311,-61.48075c2.2162,-4.89711 -1.25266,-12.43789 -1.25266,-12.43789l24.14167,11.02992c0,0 -7.42547,1.15135 -9.98437,6.54379c-0.78627,1.65696 -3.82844,3.25922 -4.73085,5.14367c-1.53659,3.20875 -1.01568,6.85284 -2.65779,10.20236c-2.32884,4.75025 -4.61733,9.31335 -6.45016,12.75696c-6.0371,11.34284 -19.03698,32.60316 -19.03698,32.60316c0,0 -3.54648,0.99526 -4.73907,0.33287c-1.39338,-0.77392 -3.1129,-4.69404 -3.1129,-4.69404z" fill="#613600" stroke="none" stroke-width="NaN" stroke-linecap="butt"/><path d="M318.26119,256.97253c0,0 22.42464,-49.55172 27.8231,-61.48075c2.2162,-4.89711 -1.25265,-12.4379 -1.25265,-12.4379l24.14168,11.02993c0,0 -2.92824,0.45405 -5.7407,2.12725c-1.17208,-0.37863 -2.4021,-0.67427 -3.69129,-0.87835c-6.46464,-1.02348 -14.08335,3.68651 -16.94091,9.41422c-6.94834,13.92715 -10.74541,30.04921 -16.3055,44.86861c-1.44248,3.84464 -4.05211,6.90563 -6.72454,9.8894c-0.74443,-1.24494 -1.30916,-2.5324 -1.30916,-2.5324z" fill="#573000" stroke="none" stroke-width="NaN" stroke-linecap="butt"/><path d="M334.49107,239.72108l7.86063,-17.2545" fill="none" stroke="#000000" stroke-width="0.5" stroke-linecap="round"/><path d="M346.52204,205.1149l-3.58277,7.1813" fill="none" stroke="#000000" stroke-width="0.5" stroke-linecap="round"/><path d="M353.40224,203.81399l2.48911,-3.98993" fill="none" stroke="#000000" stroke-width="0.5" stroke-linecap="round"/><path d="M310.02502,171.32469l-13.31336,-1.74147l19.87332,-11.40727c0,0 35.30334,10.51177 50.17611,17.93187c13.35205,6.66139 34.99138,24.5586 34.99138,24.5586l-0.9295,23.52138l-5.63049,-10.37267c0,0 -19.5862,-16.87285 -32.28765,-23.20967c-15.22715,-7.59689 -52.87983,-19.28079 -52.87983,-19.28079z" fill="#b90000" stroke="#000000" stroke-width="0.5" stroke-linecap="butt"/><path d="M311.41863,171.87563l-13.96954,-2.06883l14.48656,-7.81848c2.44027,0.999 4.47895,1.79757 5.19652,2.14731c17.08372,8.32622 36.75046,16.52707 51.98712,27.92971c1.56706,1.17276 2.93256,2.53626 4.20636,3.98867c-2.14215,-1.31745 -4.21489,-2.49665 -6.13547,-3.45485c-16.10703,-8.0359 -55.77158,-20.7235 -55.77158,-20.7235z" fill="#9c0000" stroke="none" stroke-width="0" stroke-linecap="butt"/><path d="M329.58146,168.34239c-0.40564,0.96763 -1.37328,0.56199 -1.37328,0.56199l-0.56291,-0.23598c-2.52731,-1.05948 -3.53968,-1.53834 -3.97426,-4.42456c0,0 -0.15,-1.03844 0.88844,-1.18845c1.03844,-0.15 1.18845,0.88844 1.18845,0.88844c0.29319,2.14205 0.73571,1.96223 2.70866,2.78931l0.56291,0.23598c0,0 0.96763,0.40564 0.56199,1.37328z" fill="#8f0000" stroke="none" stroke-width="0.5" stroke-linecap="butt"/><path d="M315.588,169.09459c-0.40564,0.96763 -1.37328,0.56199 -1.37328,0.56199l-0.37527,-0.15731c-1.38094,-0.59101 -2.32543,-1.33783 -3.39323,-2.38632c0,0 -0.74777,-0.73599 -0.01177,-1.48377c0.73599,-0.74777 1.48377,-0.01177 1.48377,-0.01177c0.87451,0.86301 1.58856,1.47967 2.73251,1.94659l0.37527,0.15731c0,0 0.96763,0.40564 0.56199,1.37328z" fill="#8f0000" stroke="none" stroke-width="0.5" stroke-linecap="butt"/><path d="M331.35157,174.18936c0.19924,1.03014 -0.8309,1.22937 -0.8309,1.22937l-0.9983,0.15542c-2.65197,-0.21705 -3.66,-0.8713 -5.59959,-2.56805c0,0 -0.7897,-0.69082 -0.09888,-1.48052c0.69082,-0.7897 1.48052,-0.09888 1.48052,-0.09888c1.64104,1.43556 2.12687,1.90287 4.37561,2.05494l0.44217,-0.12318c0,0 1.03014,-0.19924 1.22937,0.8309z" fill="#8f0000" stroke="none" stroke-width="0.5" stroke-linecap="butt"/><path d="M348.19723,173.13574c0.39739,0.97106 -0.57367,1.36844 -0.57367,1.36844l-0.11207,0.03043c-3.06286,1.74585 -5.46606,0.58046 -7.66629,-1.97504c0,0 -0.68407,-0.79556 0.1115,-1.47963c0.79556,-0.68407 1.47963,0.1115 1.47963,0.1115c1.4214,1.65537 2.98711,2.94416 4.97193,1.55815l0.42054,-0.18752c0,0 0.97106,-0.39739 1.36844,0.57367z" fill="#8f0000" stroke="none" stroke-width="0.5" stroke-linecap="butt"/><path d="M360.25958,175.48579c-0.01726,1.04908 -1.06633,1.03182 -1.06633,1.03182l-1.29359,-0.04022c-1.31946,-0.53254 -2.63088,-1.08238 -3.94309,-1.63248c0,0 -0.96763,-0.40564 -0.56199,-1.37328c0.40564,-0.96763 1.37328,-0.56199 1.37328,-0.56199c1.19021,0.49895 2.38169,0.99305 3.56249,1.51397l0.89743,-0.00417c0,0 1.04908,0.01726 1.03182,1.06633z" fill="#8f0000" stroke="none" stroke-width="0.5" stroke-linecap="butt"/><path d="M355.15531,182.59314c-0.40564,0.96763 -1.37328,0.56199 -1.37328,0.56199l0.3181,-0.11596c-2.72476,0.70837 -4.24676,-0.65739 -6.63718,-1.65064c0,0 -0.96763,-0.40564 -0.56199,-1.37328c0.40564,-0.96763 1.37328,-0.56199 1.37328,-0.56199c1.77124,0.74824 3.27934,2.20763 5.25045,1.5679l1.06864,0.19868c0,0 0.96763,0.40564 0.56199,1.37328z" fill="#8f0000" stroke="none" stroke-width="0.5" stroke-linecap="butt"/><path d="M368.28294,187.02693c-0.24106,1.02116 -1.26221,0.7801 -1.26221,0.7801l-1.28791,-0.30769c-1.24656,-0.51857 -2.38733,-0.99584 -3.5336,-1.71356c0,0 -0.88778,-0.55921 -0.32859,-1.44699c0.55921,-0.88778 1.44699,-0.32859 1.44699,-0.32859c0.99283,0.62969 1.98344,1.03648 3.06409,1.49353l1.1211,0.26096c0,0 1.02116,0.24106 0.7801,1.26221z" fill="#8f0000" stroke="none" stroke-width="0.5" stroke-linecap="butt"/><path d="M378.18428,194.75196c0.39739,0.97106 -0.57367,1.36844 -0.57367,1.36844l-0.65537,0.18711c-1.89758,-0.00804 -3.05238,-0.52577 -4.77802,-1.24918c0,0 -0.96763,-0.40564 -0.56199,-1.37328c0.40564,-0.96763 1.37328,-0.56199 1.37328,-0.56199c1.45093,0.60826 2.36276,1.12407 3.95007,1.08607l-0.12276,-0.03085c0,0 0.97106,-0.39739 1.36844,0.57367z" fill="#8f0000" stroke="none" stroke-width="0.5" stroke-linecap="butt"/><path d="M382.80808,191.61617c0.39739,0.97106 -0.57367,1.36844 -0.57367,1.36844l-0.59378,0.18482c-2.79934,0.1654 -5.02808,-0.80971 -7.06025,-2.69147c0,0 -0.7636,-0.71957 -0.04401,-1.48317c0.71957,-0.7636 1.48317,-0.04401 1.48317,-0.04401c1.54296,1.48595 3.31277,2.29073 5.48126,2.12487l-0.06116,-0.03314c0,0 0.97106,-0.39739 1.36844,0.57367z" fill="#8f0000" stroke="none" stroke-width="0.5" stroke-linecap="butt"/><path d="M395.58357,203.2241c0.06992,1.04689 -0.97697,1.11681 -0.97697,1.11681l-0.54112,0.0325c-3.39733,-0.073 -7.05139,-1.94715 -4.88388,-5.71751c0,0 0.55921,-0.88778 1.44699,-0.32859c0.88778,0.55921 0.32859,1.44699 0.32859,1.44699c-1.48082,2.00638 1.64549,2.48555 3.14284,2.50093l0.36677,-0.02812c0,0 1.04689,-0.06992 1.11681,0.97697z" fill="#8f0000" stroke="none" stroke-width="0.5" stroke-linecap="butt"/><path d="M397.93557,209.20918c0.39739,0.97106 -0.57367,1.36844 -0.57367,1.36844l-0.94725,0.29598c-0.8901,-0.02767 -1.78394,-0.23813 -2.60974,-0.57143c0,0 -0.96763,-0.40564 -0.56199,-1.37328c0.40564,-0.96763 1.37328,-0.56199 1.37328,-0.56199c0.57274,0.25265 1.207,0.41145 1.83298,0.40855l0.11796,-0.13994c0,0 0.97106,-0.39739 1.36844,0.57367z" fill="#8f0000" stroke="none" stroke-width="0.5" stroke-linecap="butt"/><path d="M379.63855,187.34146c-0.40564,0.96763 -1.37328,0.56199 -1.37328,0.56199l0.20075,0.00278c-4.11978,-0.06944 -6.11845,-1.05073 -6.06203,-5.38122c0,0 0.01726,-1.04908 1.06633,-1.03182c1.04908,0.01726 1.03182,1.06633 1.03182,1.06633c-0.06348,3.12421 0.88787,3.19867 3.99839,3.24855l0.57602,0.16011c0,0 0.96763,0.40564 0.56199,1.37328z" fill="#8f0000" stroke="none" stroke-width="0.5" stroke-linecap="butt"/></g><text transform="translate(272.11164,273.97652) scale(0.68896,0.68896)" font-size="40" xml:space="preserve" fill="#ffffff" stroke="#000000" stroke-width="1" stroke-linecap="butt" font-family="Pixel" font-weight="normal" text-anchor="start"><tspan x="0" dy="0">Cranberry</tspan></text></g></g></svg>