<svg version="1.1" xmlns="http://www.w3.org/2000/svg" xmlns:xlink="http://www.w3.org/1999/xlink" width="681.43333" height="296.1671" viewBox="0,0,681.43333,296.1671"><defs><radialGradient cx="268.08764" cy="199.66137" r="48.55407" gradientUnits="userSpaceOnUse" id="color-1"><stop offset="0" stop-color="#000000" stop-opacity="0.73333"/><stop offset="1" stop-color="#000000" stop-opacity="0"/></radialGradient><linearGradient x1="501.73226" y1="187.79291" x2="501.73226" y2="196.87661" gradientUnits="userSpaceOnUse" id="color-2"><stop offset="0" stop-color="#cb00ff"/><stop offset="1" stop-color="#ff0000"/></linearGradient><linearGradient x1="501.26775" y1="281.37137" x2="501.26775" y2="290.45508" gradientUnits="userSpaceOnUse" id="color-3"><stop offset="0" stop-color="#ffc000"/><stop offset="1" stop-color="#5aff00"/></linearGradient><linearGradient x1="500.59373" y1="195.7381" x2="500.59373" y2="281.2317" gradientUnits="userSpaceOnUse" id="color-4"><stop offset="0" stop-color="#ff0000"/><stop offset="1" stop-color="#ffc800"/></linearGradient><linearGradient x1="500.86091" y1="203.21881" x2="500.86091" y2="274.81969" gradientUnits="userSpaceOnUse" id="color-5"><stop offset="0" stop-color="#704100"/><stop offset="1" stop-color="#ff0000"/></linearGradient></defs><g transform="translate(0.74843,-24.24269)"><g stroke-miterlimit="10"><path d="M41.46437,133.60851c0,0 -1.59875,-3.82373 -1.59875,-16.16639c0,-16.57103 0,-38.14508 0,-48.28647c0,-10.75908 2.34485,-19.99533 2.34485,-19.99533c0,0 1.47254,-5.95606 5.54236,-5.95606c11.21831,0 64.30658,0 84.60083,0c4.92105,0 5.35583,6.38147 5.35583,6.38147c0,0 2.55801,4.85281 2.55801,18.71903c0,16.36209 0,36.38887 0,45.94661c0,10.49536 -1.75864,18.71897 -1.75864,18.71897c0,0 -1.10257,6.42791 -5.83512,6.50308c-20.07755,0.31887 -73.83614,1.15469 -85.69365,1.15469c-4.65177,0 -5.5157,-7.01963 -5.5157,-7.01963z" fill="#c7c7c7" stroke="#000000" stroke-width="2.5" stroke-linecap="butt"/><path d="M43.86854,131.16999c0,0 -1.51967,-3.59669 -1.51967,-15.20637c0,-15.58697 0,-35.87991 0,-45.41908c0,-10.12019 2.22885,-18.80794 2.22885,-18.80794c0,0 1.3997,-5.60236 5.2682,-5.60236c10.66339,0 61.1256,0 80.41598,0c4.67763,0 5.0909,6.00252 5.0909,6.00252c0,0 2.43149,4.56461 2.43149,17.60743c0,15.39045 0,34.228 0,43.21817c0,9.87212 -1.67165,17.60737 -1.67165,17.60737c0,0 -1.04804,6.04621 -5.54649,6.1169c-19.0844,0.29995 -70.18376,1.08614 -81.45473,1.08614c-4.42166,0 -5.24287,-6.6028 -5.24287,-6.6028z" fill="none" stroke="#8f8f8f" stroke-width="6.5" stroke-linecap="butt"/><g fill="#ffffff" stroke="none" stroke-width="0" stroke-linecap="butt"><path d="M115.36612,62.7577c0.08325,-3.93331 0.94956,-6.85253 1.93497,-6.52026c0.98542,0.33228 1.71677,3.7902 1.63353,7.7235c-0.08325,3.93331 -0.94956,6.85253 -1.93497,6.52026c-0.98542,-0.33228 -1.71677,-3.7902 -1.63353,-7.7235z"/><path d="M123.1619,64.36167c0.08325,-3.93331 1.47464,-6.67548 3.10777,-6.12481c0.5712,0.1926 1.39566,0.57883 1.8335,1.40684c0.44225,0.83636 2.75357,0.66219 4.35312,2.29024c1.34449,1.36844 2.05416,4.50868 2.02945,5.6767c-0.02217,1.0473 0.2059,4.78467 -1.3757,5.664c-1.50203,0.83508 -0.06084,0.56808 -0.35268,1.10674c-0.55495,1.0243 -6.00385,-1.63594 -6.78915,-1.90071c-1.63314,-0.55067 -2.88957,-4.18566 -2.80632,-8.11894z"/></g><text transform="translate(109.33198,58.42809) scale(0.53596,0.53596)" font-size="40" xml:space="preserve" fill="#ffffff" stroke="#000000" stroke-width="1" stroke-linecap="butt" font-family="Pixel" font-weight="normal" text-anchor="start"><tspan x="0" dy="0">39%</tspan></text><g><path d="M98.51876,67.28845c0,0 2.38479,-5.73652 4.15625,-7.75029c1.52152,-1.72963 10.61645,-3.20803 10.61645,-3.20803l3.79462,7.14018c0,0 -5.34167,1.31787 -6.88315,3.07021c-1.7605,2.0013 -3.11031,8.29017 -3.11031,8.29017z" fill="#794100" stroke="none" stroke-width="0" stroke-linecap="butt"/><path d="M87.56574,91.50027l3.26937,-5.214" fill="none" stroke="#000000" stroke-width="1" stroke-linecap="round"/><path d="M84.20884,100.33282l-2.0754,3.87706" fill="none" stroke="#000000" stroke-width="1" stroke-linecap="round"/><path d="M68.13861,126.97326l3.91011,-7.69174" fill="none" stroke="#000000" stroke-width="1" stroke-linecap="round"/><path d="M90.59289,82.88169l1.6925,-2.87885" fill="none" stroke="#000000" stroke-width="1" stroke-linecap="round"/><path d="M109.5179,88.64311l-0.17639,-0.09718c0,0 0.06309,0.03382 0.17639,0.09718z" fill="#89440f" stroke="none" stroke-width="0" stroke-linecap="butt"/><path d="M68.23199,57.43439l13.32106,5.79274" fill="none" stroke="#000000" stroke-width="0.5" stroke-linecap="round"/><path d="M94.21308,65.9807l-5.0915,-2.78947" fill="none" stroke="#000000" stroke-width="0.5" stroke-linecap="round"/><path d="M98.1309,75.62404l-12.06459,-6.88905" fill="none" stroke="#000000" stroke-width="0.5" stroke-linecap="round"/><path d="M99.64525,73.04821l5.35875,2.33493" fill="none" stroke="#000000" stroke-width="0.5" stroke-linecap="round"/><path d="M115.14168,79.30434l-5.60878,-3.29747" fill="none" stroke="#000000" stroke-width="0.5" stroke-linecap="round"/><path d="M109.13437,81.8892l11.1019,7.13862" fill="none" stroke="#000000" stroke-width="0.5" stroke-linecap="round"/><path d="M127.27968,90.92599l-2.7114,-3.02128" fill="none" stroke="#000000" stroke-width="0.5" stroke-linecap="round"/><path d="M127.40623,94.87427l2.19413,2.51328" fill="none" stroke="#000000" stroke-width="0.5" stroke-linecap="round"/><path d="M64.7235,128.04165c0,0 20.32097,-37.76204 25.213,-46.85283c2.00829,-3.73196 -0.31199,-9.8511 -0.31199,-9.8511l18.39205,9.98269c0,0 -5.90299,0.50365 -8.20765,4.60666c-0.70817,1.26074 -3.18778,2.35637 -3.99959,3.78976c-1.38235,2.44074 -1.16986,5.33526 -2.64282,7.881c-2.08894,3.61034 -4.13603,7.07566 -5.76409,9.68509c-5.36263,8.59514 -16.73886,24.61417 -16.73886,24.61417c0,0 -2.84345,0.59086 -3.74565,0.00528c-1.05409,-0.68418 -2.1944,-3.86072 -2.1944,-3.86072z" fill="#613600" stroke="none" stroke-width="NaN" stroke-linecap="butt"/><path d="M65.082,128.44003c0,0 20.32097,-37.76203 25.213,-46.85282c2.00829,-3.73196 -0.31199,-9.85111 -0.31199,-9.85111l18.39205,9.98269c0,0 -2.32785,0.19861 -4.63062,1.36247c-0.90143,-0.36128 -1.85293,-0.6604 -2.85592,-0.89072c-5.02948,-1.15499 -11.2771,2.13731 -13.83486,6.48789c-6.21929,10.57857 -10.0787,23.05417 -15.25434,34.40969c-1.34274,2.94601 -3.56111,5.2124 -5.82467,7.4147c-0.51816,-1.01953 -0.89266,-2.06278 -0.89266,-2.06278z" fill="#573000" stroke="none" stroke-width="NaN" stroke-linecap="butt"/><path d="M85.8988,102.60274l-7.11698,13.14636" fill="none" stroke="#000000" stroke-width="0.5" stroke-linecap="round"/><path d="M86.91153,94.63483l3.20685,-5.45464" fill="none" stroke="#000000" stroke-width="0.5" stroke-linecap="round"/><path d="M69.42697,128.19143l4.81028,-8.18195" fill="none" stroke="#000000" stroke-width="0.5" stroke-linecap="round"/><path d="M95.60061,88.52935l2.17385,-3.00362" fill="none" stroke="#000000" stroke-width="0.5" stroke-linecap="round"/><path d="M63.2401,60.62605l-10.37763,-2.09048l16.24929,-7.89683c0,0 27.19955,10.17937 38.49634,16.82091c10.14174,5.96247 26.19378,21.21128 26.19378,21.21128l-2.00439,18.45094l-3.86728,-8.46363c0,0 -14.49257,-14.33198 -24.14013,-20.00392c-11.56598,-6.79979 -40.55001,-18.02827 -40.55001,-18.02827z" fill="#ff8900" stroke="#000000" stroke-width="0.5" stroke-linecap="butt"/><path d="M64.30641,61.13485l-10.87604,-2.3835l11.81795,-5.36558c1.86537,0.91789 3.4257,1.65637 3.97119,1.9703c12.98684,7.47395 28.01219,14.98915 39.37962,24.78295c1.16912,1.00728 2.16937,2.15369 3.09268,3.36507c-1.61364,-1.15223 -3.18015,-2.19197 -4.63896,-3.04961c-12.23433,-7.19272 -42.74648,-19.3196 -42.74648,-19.3196z" fill="#d67200" stroke="none" stroke-width="0" stroke-linecap="butt"/><path d="M116.0497,85.69813c-0.52975,-0.15607 -0.37368,-0.6858 -0.37368,-0.6858l0.18934,-0.6281c1.06209,-1.8252 2.27409,-5.1285 4.54617,-5.24037c0,0 0.55224,-0.00494 0.55716,0.5473c0.00492,0.55224 -0.5473,0.55717 -0.5473,0.55717c-1.47268,-0.08648 -2.82017,3.36094 -3.54262,4.57516l-0.14329,0.50097c0,0 -0.15606,0.52975 -0.6858,0.37368z" fill="#ca6b00" stroke="none" stroke-width="0.5" stroke-linecap="butt"/><path d="M103.21409,76.49319c-0.53455,0.13872 -0.67327,-0.39583 -0.67327,-0.39583l-0.04294,-0.8094c1.55946,-2.65254 2.92974,-4.86579 5.76295,-6.23971c0,0 0.49697,-0.24086 0.73784,0.25609c0.24086,0.49697 -0.25609,0.73784 -0.25609,0.73784c-2.61911,1.26875 -3.84634,3.34568 -5.29253,5.80557l0.15989,-0.02784c0,0 0.13872,0.53455 -0.39583,0.67327z" fill="#ca6b00" stroke="none" stroke-width="0.5" stroke-linecap="butt"/><path d="M92.32212,71.43633c-0.47608,-0.27988 -0.19619,-0.75596 -0.19619,-0.75596l0.00244,0.07378c0.48984,-3.20596 2.19389,-5.67723 4.88266,-7.42306c0,0 0.46326,-0.30063 0.7639,0.16261c0.30063,0.46324 -0.16261,0.76389 -0.16261,0.76389c-2.42144,1.57073 -3.95376,3.77043 -4.39199,6.66267l-0.14224,0.31989c0,0 -0.27988,0.47607 -0.75597,0.19619z" fill="#ca6b00" stroke="none" stroke-width="0.5" stroke-linecap="butt"/><path d="M81.10303,65.17166c-0.47608,-0.27988 -0.1962,-0.75597 -0.1962,-0.75597l0.14469,-0.24609c1.35387,-2.30284 2.70748,-3.74481 4.62437,-5.57069c0,0 0.3999,-0.38087 0.78077,0.01904c0.38087,0.39991 -0.01904,0.78078 -0.01904,0.78078c-1.86351,1.77451 -3.11823,3.09272 -4.43394,5.33065l-0.14469,0.24609c0,0 -0.27988,0.47608 -0.75596,0.19619z" fill="#ca6b00" stroke="none" stroke-width="0.5" stroke-linecap="butt"/><path d="M72.88781,60.83857c-0.47608,-0.27988 -0.19619,-0.75597 -0.19619,-0.75597l0.09101,-0.12227c0.63869,-2.11852 2.10251,-3.38412 3.52165,-4.86352c0,0 0.38701,-0.39398 0.78098,-0.00698c0.39398,0.387 0.00697,0.78098 0.00697,0.78098c-1.30492,1.3048 -2.69816,2.47177 -3.25011,4.40166l-0.19835,0.36991c0,0 -0.27988,0.47607 -0.75596,0.19619z" fill="#ca6b00" stroke="none" stroke-width="0.5" stroke-linecap="butt"/><path d="M86.56157,67.59655c0,0 -1.6473,-3.19052 -1.78199,-5.24709c-0.19211,-2.93368 0.73915,-10.67814 0.73915,-10.67814l5.18242,8.88405c0,0 4.47259,4.82902 7.33756,6.51338c0.83359,0.49007 4.24845,2.55194 4.24845,2.55194l0.2662,0.30818l0.54141,2.93553l2.54571,1.55474l2.3516,-1.86572l5.46719,1.38173c0,0 2.85499,-0.13309 4.53446,0.04594c2.49808,0.26627 8.99902,1.39658 8.99902,1.39658c0,0 -5.17629,3.36867 -8.23584,4.33791c-0.82734,0.26209 -7.37151,2.36617 -7.37151,2.36617l1.00403,-4.48599l-2.82967,-0.75404l-2.66329,3.41973l-3.06809,-0.35106c0,0 -5.1317,-2.64151 -6.6194,-3.51613c-0.49464,-0.2908 -3.18581,-1.61711 -3.5722,-3.12218c-0.06402,-0.24935 -0.25288,-0.86435 -0.25288,-0.86435l1.68896,-2.86752l-3.07925,-2.29326c0,0 -2.14065,2.68034 -2.74515,2.71924c-0.9993,0.06431 -2.6869,-2.36965 -2.6869,-2.36965z" fill="#ffe500" stroke="#000000" stroke-width="1" stroke-linecap="butt"/><path d="M110.16474,56.14435l-0.65694,13.77612l-11.06123,-6.50305z" fill="#ffe500" stroke="#000000" stroke-width="1" stroke-linecap="butt"/><path d="M103.22731,40.28763l-0.65693,13.77611l-11.06123,-6.50305z" fill="#ffe500" stroke="#000000" stroke-width="1" stroke-linecap="butt"/><path d="M126.97395,55.03596l-0.65693,13.77612l-11.06123,-6.50305z" fill="#ffe500" stroke="#000000" stroke-width="1" stroke-linecap="butt"/></g><text transform="translate(0.0726,137.62537) scale(0.58266,0.58266)" font-size="40" xml:space="preserve" fill="#ffffff" stroke="#000000" stroke-width="1" stroke-linecap="butt" font-family="Pixel" font-weight="normal" text-anchor="start"><tspan x="0" dy="0">Jack o Lantern</tspan></text><path d="M212.78926,135.24724c0,0 -1.74527,-4.17415 -1.74527,-17.64792c0,-18.08964 0,-41.64079 0,-52.71156c0,-11.74508 2.55973,-21.82775 2.55973,-21.82775c0,0 1.60749,-6.50188 6.05027,-6.50188c12.24638,0 70.1998,0 92.35388,0c5.37202,0 5.84665,6.96628 5.84665,6.96628c0,0 2.79244,5.29752 2.79244,20.43449c0,17.86156 0,39.72363 0,50.15727c0,11.45719 -1.91981,20.43443 -1.91981,20.43443c0,0 -1.2036,7.01698 -6.36987,7.09904c-21.91751,0.3481 -80.60268,1.26052 -93.54684,1.26052c-5.07806,0 -6.02117,-7.66292 -6.02117,-7.66292z" fill="#c7c7c7" stroke="#000000" stroke-width="2.5" stroke-linecap="butt"/><path d="M215.41372,132.58523c0,0 -1.65894,-3.92629 -1.65894,-16.59992c0,-17.01541 0,-39.16805 0,-49.5814c0,-11.04764 2.43312,-20.53155 2.43312,-20.53155c0,0 1.52797,-6.11578 5.75097,-6.11578c11.64061,0 66.72731,0 87.78551,0c5.1063,0 5.55745,6.55261 5.55745,6.55261c0,0 2.65431,4.98292 2.65431,19.22101c0,16.80087 0,37.36475 0,47.17879c0,10.77683 -1.82484,19.22096 -1.82484,19.22096c0,0 -1.14408,6.6003 -6.05479,6.67747c-20.83335,0.32744 -76.61559,1.18567 -88.91945,1.18567c-4.82686,0 -5.72335,-7.20789 -5.72335,-7.20789z" fill="none" stroke="#8f8f8f" stroke-width="6.5" stroke-linecap="butt"/><g fill="#ffffff" stroke="none" stroke-width="0" stroke-linecap="butt"><path d="M293.4636,57.90346c0.09088,-4.29377 1.03657,-7.48051 2.11229,-7.11779c1.07572,0.36272 1.87409,4.13753 1.78322,8.43131c-0.09088,4.29377 -1.03657,7.48051 -2.11229,7.11779c-1.07572,-0.36272 -1.87409,-4.13753 -1.78322,-8.43131z"/><path d="M301.97381,59.65442c0.09088,-4.29377 1.60979,-7.28723 3.39257,-6.6861c0.62355,0.21025 1.52357,0.63188 2.00154,1.53576c0.48278,0.913 3.00592,0.72287 4.75204,2.50011c1.46771,1.49385 2.24242,4.92187 2.21543,6.19693c-0.0242,1.14329 0.22477,5.22315 -1.50176,6.18306c-1.63969,0.9116 -0.06641,0.62014 -0.38499,1.20815c-0.60581,1.11817 -6.55405,-1.78586 -7.41133,-2.0749c-1.78279,-0.60113 -3.15437,-4.56923 -3.0635,-8.86298z"/></g><text transform="translate(289.96823,53.78923) scale(0.58508,0.58508)" font-size="40" xml:space="preserve" fill="#ffffff" stroke="#000000" stroke-width="1" stroke-linecap="butt" font-family="Pixel" font-weight="normal" text-anchor="start"><tspan x="0" dy="0">25%</tspan></text><g><path d="M241.68109,122.856l3.77194,-8.15461" fill="none" stroke="#000000" stroke-width="1" stroke-linecap="round"/><path d="M302.11431,87.16816l2.3801,2.53057" fill="none" stroke="#000000" stroke-width="0.5" stroke-linecap="round"/><path d="M243.06869,124.07391l4.68972,-8.69944" fill="none" stroke="#000000" stroke-width="0.5" stroke-linecap="round"/><path d="M263.72837,79.64287l-3.20081,5.55166" fill="none" stroke="#000000" stroke-width="1" stroke-linecap="round"/><path d="M257.37528,94.51489l-2.01,4.1144" fill="none" stroke="#000000" stroke-width="1" stroke-linecap="round"/><path d="M263.34496,76.10952l1.65009,-3.06093" fill="none" stroke="#000000" stroke-width="1" stroke-linecap="round"/><path d="M283.25994,81.37446l-0.1873,-0.09431c0,0 0.06696,0.03276 0.1873,0.09431z" fill="#89440f" stroke="none" stroke-width="0" stroke-linecap="butt"/><path d="M253.18009,56.00652l-14.08493,-5.51373" fill="none" stroke="#000000" stroke-width="0.5" stroke-linecap="round"/><path d="M261.05422,55.67715l5.40566,2.70615" fill="none" stroke="#000000" stroke-width="0.5" stroke-linecap="round"/><path d="M258.08892,61.56365l12.81977,6.70298" fill="none" stroke="#000000" stroke-width="0.5" stroke-linecap="round"/><path d="M272.3851,65.5279l5.66621,2.22287" fill="none" stroke="#000000" stroke-width="0.5" stroke-linecap="round"/><path d="M288.75149,71.43989l-5.96351,-3.21482" fill="none" stroke="#000000" stroke-width="0.5" stroke-linecap="round"/><path d="M282.60023,74.36138l11.82768,6.99982" fill="none" stroke="#000000" stroke-width="0.5" stroke-linecap="round"/><path d="M298.89232,80.02539l2.93794,3.03924" fill="none" stroke="#000000" stroke-width="0.5" stroke-linecap="round"/><path d="M238.16867,124.09949c0,0 19.68826,-40.07787 24.42797,-49.72617c1.94576,-3.96084 -0.70475,-10.23865 -0.70475,-10.23865l19.52328,9.67796c0,0 -6.12299,0.75184 -8.36283,5.11021c-0.68824,1.33922 -3.22617,2.57494 -4.01561,4.0978c-1.34422,2.59308 -1.01147,5.59682 -2.44595,8.30265c-2.03438,3.83739 -4.0308,7.52226 -5.62421,10.30036c-5.24852,9.15069 -16.46813,26.25845 -16.46813,26.25845c0,0 -2.93598,0.72454 -3.89737,0.15002c-1.12325,-0.67125 -2.4324,-3.93265 -2.4324,-3.93265z" fill="#613600" stroke="none" stroke-width="NaN" stroke-linecap="butt"/><path d="M238.55708,124.50021c0,0 19.68826,-40.07787 24.42796,-49.72618c1.94576,-3.96084 -0.70474,-10.23867 -0.70474,-10.23867l19.5233,9.67799c0,0 -2.41461,0.2965 -4.7659,1.5964c-0.95194,-0.34116 -1.95357,-0.61569 -3.00613,-0.81666c-5.27807,-1.00778 -11.6521,2.65914 -14.14573,7.28488c-6.0634,11.24763 -9.59801,24.37819 -14.54544,36.39404c-1.28354,3.11732 -3.50444,5.56125 -5.77484,7.9402c-0.57851,-1.04089 -1.00847,-2.11201 -1.00847,-2.11201z" fill="#573000" stroke="none" stroke-width="NaN" stroke-linecap="butt"/><path d="M252.32295,110.76591l6.89844,-13.95424" fill="none" stroke="#000000" stroke-width="0.5" stroke-linecap="round"/><path d="M263.09424,82.68181l-3.12647,5.79964" fill="none" stroke="#000000" stroke-width="0.5" stroke-linecap="round"/><path d="M270.91985,78.58374l-2.14614,3.20932" fill="none" stroke="#000000" stroke-width="0.5" stroke-linecap="round"/><path d="M234.02391,54.00651l-10.87924,-1.77488l16.60373,-8.8441c0,0 28.69562,9.54277 40.70694,16.01785c10.78317,5.813 28.07471,21.06103 28.07471,21.06103l-1.3738,19.27671l-4.35071,-8.65774c0,0 -15.63343,-14.35414 -25.89116,-19.88391c-12.29752,-6.62935 -42.89047,-17.195 -42.89047,-17.195z" fill="#00ceff" stroke="#000000" stroke-width="0.5" stroke-linecap="butt"/><path d="M235.15313,54.49481l-11.40919,-2.06054l12.09031,-6.03922c1.97644,0.88314 3.62857,1.59139 4.2083,1.89702c13.80201,7.27606 29.72681,14.51634 41.93325,24.26881c1.25541,1.00303 2.34048,2.15737 3.34797,3.38224c-1.72356,-1.13671 -3.39373,-2.15817 -4.94482,-2.99433c-13.00812,-7.01243 -45.22588,-18.45396 -45.22588,-18.45396z" fill="#00b7e4" stroke="none" stroke-width="0" stroke-linecap="butt"/><path d="M298.40915,87.54301l7.22021,-9.14766l2.59853,1.89308l-7.22021,9.14766z" fill="#9f00e3" stroke="none" stroke-width="0" stroke-linecap="butt"/><path d="M291.17235,80.95701l8.15324,-8.32682l2.38218,2.15902l-8.15324,8.32682z" fill="#9f00e3" stroke="none" stroke-width="0" stroke-linecap="butt"/><path d="M282.23143,74.15082l7.01037,-8.70729l2.60945,1.87017l-7.01037,8.70729z" fill="#9f00e3" stroke="none" stroke-width="0" stroke-linecap="butt"/><path d="M275.1715,70.294l5.71879,-10.15415l2.86003,1.46848l-5.71879,10.15415z" fill="#9f00e3" stroke="none" stroke-width="0" stroke-linecap="butt"/><path d="M286.61625,68.03342l1.48429,-1.83752l10.0403,8.11035l-1.48428,1.8375z" fill="#ffffff" stroke="none" stroke-width="0" stroke-linecap="butt"/><path d="M299.05874,79.39434l1.824,-1.92022l2.00465,1.90419l-1.82398,1.92022z" fill="#ffffff" stroke="none" stroke-width="0" stroke-linecap="butt"/><path d="M240.83935,56.449l3.8901,-10.98537l2.98695,1.18923l-3.8901,10.98537z" fill="#9f00e3" stroke="none" stroke-width="0" stroke-linecap="butt"/><path d="M250.59248,60.06757l3.8901,-10.98537l2.98695,1.18923l-3.8901,10.98537z" fill="#9f00e3" stroke="none" stroke-width="0" stroke-linecap="butt"/><path d="M261.50742,64.42926l3.8901,-10.98537l2.98695,1.18923l-3.8901,10.98537z" fill="#9f00e3" stroke="none" stroke-width="0" stroke-linecap="butt"/><path d="M267.9711,66.91674l4.90154,-10.5729l2.8625,1.46366l-4.90154,10.5729z" fill="#9f00e3" stroke="none" stroke-width="0" stroke-linecap="butt"/></g><text transform="translate(196.62656,139.15498) scale(0.58285,0.58285)" font-size="40" xml:space="preserve" fill="#ffffff" stroke="#000000" stroke-width="1" stroke-linecap="butt" font-family="Pixel" font-weight="normal" text-anchor="start"><tspan x="0" dy="0">Candy Slicer</tspan></text><path d="M398.50893,41.83204c0.5444,-0.72652 1.57469,-0.87417 2.30122,-0.32976c0.72652,0.5444 0.87417,1.57469 0.32976,2.30122c-0.5444,0.72652 -1.57469,0.87417 -2.30122,0.32976c-0.72652,-0.5444 -0.87417,-1.57469 -0.32976,-2.30122z" fill="#969696" stroke="none" stroke-width="0" stroke-linecap="butt"/><path d="M372.28709,135.4986c0,0 -1.69082,-4.04392 -1.69082,-17.09731c0,-17.52525 0,-40.34161 0,-51.06699c0,-11.37864 2.47987,-21.14673 2.47987,-21.14673c0,0 1.55733,-6.29902 5.8615,-6.29902c11.86431,0 68.0096,0 89.47247,0c5.20441,0 5.66423,6.74894 5.66423,6.74894c0,0 2.70531,5.13225 2.70531,19.79695c0,17.30428 0,38.48427 0,48.59239c0,11.09973 -1.85991,19.79689 -1.85991,19.79689c0,0 -1.16606,6.79805 -6.17114,6.87755c-21.2337,0.33724 -78.08791,1.22119 -90.62821,1.22119c-4.91963,0 -5.83332,-7.42385 -5.83332,-7.42385z" fill="#c7c7c7" stroke="#000000" stroke-width="2.5" stroke-linecap="butt"/><path d="M374.82968,132.91963c0,0 -1.60719,-3.8038 -1.60719,-16.08201c0,-16.48453 0,-37.94602 0,-48.03448c0,-10.70295 2.3572,-19.89097 2.3572,-19.89097c0,0 1.4803,-5.92497 5.57155,-5.92497c11.27743,0 64.64544,0 85.04664,0c4.94698,0 5.38406,6.34817 5.38406,6.34817c0,0 2.57149,4.82746 2.57149,18.62133c0,16.27669 0,36.19898 0,45.70685c0,10.44059 -1.76791,18.62127 -1.76791,18.62127c0,0 -1.10838,6.39436 -5.86588,6.46913c-20.18336,0.31722 -74.22521,1.14868 -86.1452,1.14868c-4.67628,0 -5.54479,-6.983 -5.54479,-6.983z" fill="none" stroke="#8f8f8f" stroke-width="6.5" stroke-linecap="butt"/><g fill="#ffffff" stroke="none" stroke-width="0" stroke-linecap="butt"><path d="M450.44441,60.56791c0.08804,-4.1598 1.00424,-7.24712 2.04639,-6.89572c1.04216,0.3514 1.81563,4.00844 1.72759,8.16824c-0.08804,4.1598 -1.00424,7.24712 -2.04639,6.89573c-1.04216,-0.3514 -1.81563,-4.00845 -1.72759,-8.16824z"/><path d="M458.68906,62.26425c0.08804,-4.1598 1.55956,-7.05988 3.28674,-6.47749c0.6041,0.20368 1.47604,0.61216 1.93909,1.48785c0.46771,0.88453 2.91213,0.70032 4.60378,2.42212c1.42193,1.44724 2.17245,4.76831 2.14631,6.00359c-0.02345,1.10761 0.21777,5.0602 -1.45491,5.99015c-1.58853,0.88316 -0.06435,0.60079 -0.37299,1.17047c-0.5869,1.08328 -6.34957,-1.73014 -7.1801,-2.01015c-1.72717,-0.58238 -3.05595,-4.42668 -2.96791,-8.58646z"/></g><text transform="translate(446.63006,56.58207) scale(0.56683,0.56683)" font-size="40" xml:space="preserve" fill="#ffffff" stroke="#000000" stroke-width="1" stroke-linecap="butt" font-family="Pixel" font-weight="normal" text-anchor="start"><tspan x="0" dy="0">20%</tspan></text><g><path d="M401.5933,125.64908l3.59795,-8.40064" fill="none" stroke="#000000" stroke-width="1" stroke-linecap="round"/><path d="M461.99975,87.6075l2.49348,2.5037" fill="none" stroke="#000000" stroke-width="0.5" stroke-linecap="round"/><path d="M407.55476,117.86575l-4.51525,8.98128" fill="none" stroke="#000000" stroke-width="0.5" stroke-linecap="round"/><path d="M419.66011,86.80984l3.09294,-5.73756" fill="none" stroke="#000000" stroke-width="1" stroke-linecap="round"/><path d="M416.72606,96.37772l-1.924,4.24165" fill="none" stroke="#000000" stroke-width="1" stroke-linecap="round"/><path d="M423.8492,74.33089l-1.58869,3.16008" fill="none" stroke="#000000" stroke-width="1" stroke-linecap="round"/><path d="M442.66162,82.26502l-0.19319,-0.09045c0,0 0.06903,0.03135 0.19319,0.09045z" fill="#89440f" stroke="none" stroke-width="0" stroke-linecap="butt"/><path d="M411.34121,57.34726l-14.48079,-5.19648" fill="none" stroke="#000000" stroke-width="0.5" stroke-linecap="round"/><path d="M419.33747,56.78348l5.57474,2.59426" fill="none" stroke="#000000" stroke-width="0.5" stroke-linecap="round"/><path d="M429.72274,69.29703l-13.22904,-6.4424" fill="none" stroke="#000000" stroke-width="0.5" stroke-linecap="round"/><path d="M436.96982,68.56491l-5.82559,-2.09534" fill="none" stroke="#000000" stroke-width="0.5" stroke-linecap="round"/><path d="M441.7995,68.90943l6.15671,3.09522" fill="none" stroke="#000000" stroke-width="0.5" stroke-linecap="round"/><path d="M454.01599,81.92688l-12.22898,-6.77304" fill="none" stroke="#000000" stroke-width="0.5" stroke-linecap="round"/><path d="M458.51624,80.43893l3.07543,3.00465" fill="none" stroke="#000000" stroke-width="0.5" stroke-linecap="round"/><path d="M398.05827,127.01549c0,0 18.85243,-41.32052 23.39091,-51.26797c1.86316,-4.08365 -1.01419,-10.3894 -1.01419,-10.3894l20.13115,9.27226c0,0 -6.20354,0.94242 -8.35415,5.4388c-0.66081,1.38162 -3.20527,2.71179 -3.96365,4.28308c-1.29133,2.67552 -0.86568,5.71982 -2.24549,8.51262c-1.95685,3.96071 -3.87953,7.76525 -5.41883,10.63612c-5.07029,9.45632 -15.98018,27.17637 -15.98018,27.17637c0,0 -2.96402,0.82201 -3.9582,0.26582c-1.16155,-0.64983 -2.58741,-3.92771 -2.58741,-3.92771z" fill="#613600" stroke="none" stroke-width="NaN" stroke-linecap="butt"/><path d="M398.46485,127.41161c0,0 18.85243,-41.32052 23.3909,-51.26798c1.86316,-4.08365 -1.01417,-10.38942 -1.01417,-10.38942l20.13116,9.27228c0,0 -2.44638,0.37166 -4.7992,1.76166c-0.97777,-0.31918 -2.00413,-0.5692 -3.08014,-0.74293c-5.39563,-0.8712 -11.76967,3.04235 -14.17054,7.81795c-5.83783,11.61202 -9.04983,25.06493 -13.73068,37.42557c-1.21438,3.20677 -3.40138,5.75615 -5.64059,8.24089c-0.61845,-1.04148 -1.08673,-2.11802 -1.08673,-2.11802z" fill="#573000" stroke="none" stroke-width="NaN" stroke-linecap="butt"/><path d="M412.06168,113.0474l6.60815,-14.38816" fill="none" stroke="#000000" stroke-width="0.5" stroke-linecap="round"/><path d="M422.19667,84.18049l-3.01017,5.98753" fill="none" stroke="#000000" stroke-width="0.5" stroke-linecap="round"/><path d="M427.94528,83.11176l2.08873,-3.3254" fill="none" stroke="#000000" stroke-width="0.5" stroke-linecap="round"/><path d="M391.80651,55.87071l-11.1128,-1.48829l16.62431,-9.47471c0,0 29.45296,8.86816 41.85341,15.10234c11.1325,5.59674 29.15652,20.59711 29.15652,20.59711l-0.83639,19.63905l-4.67517,-8.67606c0,0 -16.31219,-14.13972 -26.90224,-19.46376c-12.69592,-6.38272 -44.10768,-16.2357 -44.10768,-16.2357z" fill="#2d2d2d" stroke="#000000" stroke-width="0.5" stroke-linecap="butt"/><path d="M392.96882,56.33434l-11.6599,-1.76332l12.11695,-6.4917c2.03517,0.84045 3.73552,1.51252 4.33383,1.8064c14.24437,6.9965 30.64599,13.89492 43.3401,23.45565c1.30558,0.98332 2.44233,2.1254 3.50229,3.34148c-1.78542,-1.10562 -3.51323,-2.0956 -5.11456,-2.90066c-13.42954,-6.75156 -46.51875,-17.44782 -46.51875,-17.44782z" fill="#000000" stroke="none" stroke-width="0" stroke-linecap="butt"/><path d="M445.68623,68.60328l1.4557,-1.9114l10.444,7.95412l-1.4557,1.91139z" fill="#ffffff" stroke="none" stroke-width="0" stroke-linecap="butt"/><path d="M458.66709,79.79249l1.79868,-2.00536l2.09352,1.87776l-1.79867,2.00535z" fill="#ffffff" stroke="none" stroke-width="0" stroke-linecap="butt"/><g stroke="none" stroke-width="0" stroke-linecap="butt"><path d="M398.14986,61.44277c0,0 1.52567,-2.90979 0.49361,-4.60798c-0.84334,-1.38765 -4.28816,-1.51955 -4.24894,-2.30333c0.0739,-1.47651 4.24541,-2.88027 4.24541,-2.88027c0,0 0.17613,-5.29997 1.33806,-5.74232c0.15877,-0.06045 2.48912,-0.74146 2.61676,-0.73507c0.16623,0.00832 2.29633,1.54206 2.4925,1.65899c1.083,0.64548 -0.00903,5.14064 -0.00903,5.14064c0,0 4.69965,4.16366 4.62725,5.61028c-0.05055,1.00996 -2.48879,-1.49488 -3.91124,-0.63106c-1.05166,0.63865 -1.20609,4.81234 -1.20609,4.81234c0,0 -6.00461,3.53177 -7.09907,3.47699c-1.04977,-0.05255 0.66079,-3.79923 0.66079,-3.79923z" fill-opacity="0.59608" fill="#ffffff"/><path d="M400.78419,49.68465c0.03377,-0.67464 0.60805,-1.19417 1.28269,-1.16041c0.67464,0.03377 1.19417,0.60805 1.16041,1.28269c-0.03377,0.67464 -0.60805,1.19417 -1.28269,1.16041c-0.67464,-0.03377 -1.19417,-0.60805 -1.16041,-1.28269z" fill-opacity="0.69412" fill="#000000"/><path d="M400.043,47.22235c0.02251,-0.44975 0.40537,-0.79612 0.85512,-0.77361c0.44975,0.02251 0.79612,0.40537 0.77361,0.85512c-0.02251,0.44975 -0.40537,0.79612 -0.85512,0.77361c-0.44975,-0.02251 -0.79612,-0.40537 -0.77361,-0.85512z" fill-opacity="0.69412" fill="#000000"/><path d="M402.86453,47.45963c0.02251,-0.44975 0.40537,-0.79612 0.85512,-0.77361c0.44975,0.02251 0.79612,0.40537 0.77361,0.85512c-0.02251,0.44975 -0.40537,0.79612 -0.85512,0.77361c-0.44975,-0.02251 -0.79612,-0.40537 -0.77361,-0.85512z" fill-opacity="0.69412" fill="#000000"/></g><g stroke="none" stroke-width="0" stroke-linecap="butt"><path d="M450.72889,75.45638c0,0 3.20144,-0.73843 3.8173,-2.62783c0.50322,-1.54387 -1.64116,-4.24311 -1.02101,-4.72401c1.16826,-0.90594 4.95105,1.34403 4.95105,1.34403c0,0 4.1354,-3.31953 5.228,-2.72628c0.14929,0.08107 2.18424,1.4052 2.26254,1.50619c0.10199,0.13154 0.32633,2.74676 0.36544,2.97175c0.21595,1.24213 -3.90565,3.34248 -3.90565,3.34248c0,0 -0.09661,6.27801 -1.2412,7.16562c-0.79911,0.61968 -0.4875,-2.862 -2.0696,-3.37828c-1.1697,-0.3817 -4.43653,2.22048 -4.43653,2.22048c0,0 -6.59151,-2.25411 -7.26302,-3.12008c-0.64412,-0.8306 3.31269,-1.97406 3.31269,-1.97406z" fill-opacity="0.59608" fill="#ffffff"/><path d="M461.36514,69.79395c0.5338,-0.41394 1.30209,-0.31678 1.71604,0.21702c0.41394,0.5338 0.31678,1.30209 -0.21702,1.71604c-0.5338,0.41394 -1.30209,0.31678 -1.71604,-0.21702c-0.41394,-0.5338 -0.31678,-1.30209 0.21702,-1.71604z" fill-opacity="0.69412" fill="#000000"/><path d="M462.75016,67.62737c0.35586,-0.27597 0.86806,-0.21118 1.14402,0.14469c0.27597,0.35586 0.21118,0.86806 -0.14469,1.14402c-0.35586,0.27597 -0.86806,0.21118 -1.14402,-0.14469c-0.27597,-0.35586 -0.21119,-0.86806 0.14467,-1.14402z" fill-opacity="0.69412" fill="#000000"/><path d="M464.40852,69.92244c0.35586,-0.27597 0.86806,-0.21119 1.14402,0.14467c0.27597,0.35586 0.21118,0.86806 -0.14469,1.14402c-0.35586,0.27597 -0.86806,0.21118 -1.14402,-0.14469c-0.27597,-0.35586 -0.21118,-0.86806 0.14469,-1.14402z" fill-opacity="0.69412" fill="#000000"/></g><g stroke="none" stroke-width="0" stroke-linecap="butt"><path d="M427.82673,64.29c0,0 2.65717,-1.93235 2.48455,-3.91207c-0.14105,-1.61767 -3.1707,-3.26252 -2.78819,-3.94773c0.72057,-1.29086 5.08217,-0.7006 5.08217,-0.7006c0,0 2.50661,-4.67309 3.74423,-4.5547c0.16912,0.01619 2.55994,0.4384 2.67151,0.50068c0.14533,0.08113 1.37517,2.40001 1.49921,2.59177c0.68481,1.05857 -2.2862,4.6043 -2.2862,4.6043c0,0 2.36783,5.81519 1.66184,7.0799c-0.49287,0.88297 -1.56859,-2.44299 -3.22655,-2.299c-1.22579,0.10646 -3.21381,3.77951 -3.21381,3.77951c0,0 -6.94793,0.50505 -7.90478,-0.02907c-0.91777,-0.51231 2.27602,-3.11297 2.27602,-3.11297z" fill-opacity="0.59608" fill="#ffffff"/><path d="M435.39894,54.91691c0.32925,-0.58982 1.07428,-0.80106 1.66411,-0.4718c0.58982,0.32925 0.80106,1.07428 0.47181,1.6641c-0.32925,0.58982 -1.07428,0.80106 -1.6641,0.47181c-0.58982,-0.32925 -0.80106,-1.07428 -0.47181,-1.66411z" fill-opacity="0.69412" fill="#000000"/><path d="M435.82568,52.38113c0.2195,-0.39322 0.7162,-0.53403 1.1094,-0.31454c0.39322,0.2195 0.53403,0.7162 0.31454,1.1094c-0.2195,0.39322 -0.71619,0.53403 -1.1094,0.31454c-0.39322,-0.2195 -0.53404,-0.71619 -0.31455,-1.1094z" fill-opacity="0.69412" fill="#000000"/><path d="M438.24989,53.84422c0.2195,-0.39322 0.71619,-0.53403 1.1094,-0.31454c0.39322,0.2195 0.53403,0.7162 0.31454,1.1094c-0.2195,0.39322 -0.7162,0.53403 -1.1094,0.31454c-0.39322,-0.2195 -0.53402,-0.71619 -0.31453,-1.10939z" fill-opacity="0.69412" fill="#000000"/></g></g><text transform="translate(348.66106,136.05456) scale(0.56683,0.56683)" font-size="40" xml:space="preserve" fill="#ffffff" stroke="#000000" stroke-width="1" stroke-linecap="butt" font-family="Pixel" font-weight="normal" text-anchor="start"><tspan x="0" dy="0">Soul Splitter</tspan></text><path d="M543.47446,129.53151c0,0 -1.60436,-3.83714 -1.60436,-16.2231c0,-16.62916 0,-38.27891 0,-48.45587c0,-10.79683 2.35307,-20.06547 2.35307,-20.06547c0,0 1.4777,-5.97695 5.5618,-5.97695c11.25767,0 64.53217,0 84.89761,0c4.9383,0 5.37462,6.40385 5.37462,6.40385c0,0 2.56698,4.86984 2.56698,18.7847c0,16.41949 0,36.51652 0,46.10779c0,10.53217 -1.76481,18.78465 -1.76481,18.78465c0,0 -1.10643,6.45046 -5.85559,6.52589c-20.14799,0.31999 -74.09515,1.15875 -85.99426,1.15875c-4.66809,0 -5.53505,-7.04425 -5.53505,-7.04425z" fill="#c7c7c7" stroke="#000000" stroke-width="2.5" stroke-linecap="butt"/><path d="M545.88708,127.08444c0,0 -1.52501,-3.6093 -1.52501,-15.25972c0,-15.64166 0,-36.00579 0,-45.57842c0,-10.1557 2.23668,-18.87392 2.23668,-18.87392c0,0 1.40461,-5.62201 5.28667,-5.62201c10.7008,0 61.34003,0 80.69808,0c4.69404,0 5.10877,6.02358 5.10877,6.02358c0,0 2.44001,4.58063 2.44001,17.6692c0,15.44443 0,34.34807 0,43.36978c0,9.90675 -1.67751,17.66913 -1.67751,17.66913c0,0 -1.05171,6.06741 -5.56595,6.13835c-19.15136,0.301 -70.42998,1.08995 -81.74048,1.08995c-4.43718,0 -5.26126,-6.62595 -5.26126,-6.62595z" fill="none" stroke="#8f8f8f" stroke-width="6.5" stroke-linecap="butt"/><g fill="#ffffff" stroke="none" stroke-width="0" stroke-linecap="butt"><path d="M617.63551,58.43215c0.08354,-3.94711 0.95289,-6.87656 1.94176,-6.54313c0.98888,0.33343 1.72279,3.80348 1.63925,7.7506c-0.08354,3.94711 -0.95288,6.87656 -1.94176,6.54313c-0.98888,-0.33343 -1.7228,-3.80348 -1.63925,-7.75059z"/><path d="M625.45865,60.04174c0.08354,-3.9471 1.47982,-6.6989 3.11868,-6.14629c0.57321,0.19327 1.40056,0.58086 1.83994,1.41177c0.4438,0.83929 2.76324,0.66451 4.36838,2.29827c1.34921,1.37324 2.06138,4.52451 2.03657,5.69661c-0.02225,1.05098 0.20663,4.80146 -1.38052,5.68387c-1.50731,0.838 -0.06105,0.57008 -0.35391,1.11062c-0.5569,1.0279 -6.0249,-1.64168 -6.81297,-1.90738c-1.63886,-0.55261 -2.8997,-4.20034 -2.81617,-8.14742z"/></g><text transform="translate(616.98558,54.6501) scale(0.53785,0.53785)" font-size="40" xml:space="preserve" fill="#ffffff" stroke="#000000" stroke-width="1" stroke-linecap="butt" font-family="Pixel" font-weight="normal" text-anchor="start"><tspan x="0" dy="0">10%</tspan></text><g><path d="M573.74197,114.31423l-3.76888,8.49247" fill="none" stroke="#000000" stroke-width="1" stroke-linecap="round"/><path d="M571.42746,124.04366l4.70909,-9.0706" fill="none" stroke="#000000" stroke-width="0.5" stroke-linecap="round"/><path d="M592.07414,77.77l-3.22024,5.79186" fill="none" stroke="#000000" stroke-width="1" stroke-linecap="round"/><path d="M583.73244,97.53632l2.01207,-4.2866" fill="none" stroke="#000000" stroke-width="1" stroke-linecap="round"/><path d="M591.62085,74.12272l1.65689,-3.19152" fill="none" stroke="#000000" stroke-width="1" stroke-linecap="round"/><path d="M612.29742,79.24606l-0.19519,-0.09451c0,0 0.06977,0.0328 0.19519,0.09451z" fill="#89440f" stroke="none" stroke-width="0" stroke-linecap="butt"/><path d="M585.95203,59.16707l13.36337,6.72446" fill="none" stroke="#000000" stroke-width="0.5" stroke-linecap="round"/><path d="M566.36129,124.14899c0,0 19.71233,-41.75692 24.45783,-51.80943c1.94815,-4.12678 -0.89351,-10.57529 -0.89351,-10.57529l20.34261,9.69264c0,0 -6.319,0.87595 -8.56482,5.41851c-0.69007,1.39581 -3.29437,2.71439 -4.08614,4.30172c-1.34818,2.70284 -0.95576,5.80332 -2.39544,8.62421c-2.04175,4.00057 -4.04672,7.84279 -5.64956,10.74097c-5.27963,9.54619 -16.60519,27.41598 -16.60519,27.41598c0,0 -3.0241,0.79643 -4.02742,0.21785c-1.17223,-0.67599 -2.57837,-4.02715 -2.57837,-4.02715z" fill="#613600" stroke="none" stroke-width="NaN" stroke-linecap="butt"/><path d="M566.76937,124.55707c0,0 19.71232,-41.7569 24.45782,-51.80943c1.94815,-4.12678 -0.89349,-10.57532 -0.89349,-10.57532l20.34262,9.69268c0,0 -2.49192,0.34545 -4.90218,1.72737c-0.98978,-0.33743 -2.02986,-0.60517 -3.12144,-0.79603c-5.47368,-0.95708 -12.00532,2.93706 -14.50925,7.76015c-6.08844,11.72751 -9.53183,25.36124 -14.45401,37.8651c-1.27699,3.24393 -3.53402,5.80667 -5.84331,8.30301c-0.61492,-1.06695 -1.07673,-2.16755 -1.07673,-2.16755z" fill="#573000" stroke="none" stroke-width="NaN" stroke-linecap="butt"/><path d="M580.78205,110.13441l6.90829,-14.53954" fill="none" stroke="#000000" stroke-width="0.5" stroke-linecap="round"/><path d="M588.32799,86.96951l3.13939,-6.04708" fill="none" stroke="#000000" stroke-width="0.5" stroke-linecap="round"/><path d="M599.49298,76.55912l-2.16742,3.35295" fill="none" stroke="#000000" stroke-width="0.5" stroke-linecap="round"/><path d="M560.94747,51.74044l-11.27758,-1.66009l17.02569,-9.41194c0,0 29.8245,9.40523 42.34828,15.90705c11.24323,5.83701 29.3679,21.32497 29.3679,21.32497l-1.11022,19.95399l-4.63793,-8.88196c0,0 -16.39581,-14.59037 -27.09119,-20.14297c-12.82219,-6.65673 -44.62498,-17.08906 -44.62498,-17.08906z" fill-opacity="0.47451" fill="#000000" stroke="#000000" stroke-width="0.5" stroke-linecap="butt"/><path d="M562.12293,52.22715l-11.83012,-1.94693l12.40402,-6.43908c2.05783,0.88134 3.7775,1.58707 4.38186,1.89376c14.38822,7.30119 30.9708,14.53123 43.74908,24.4187c1.31422,1.01693 2.45475,2.19301 3.51619,3.44331c-1.80043,-1.1476 -3.54381,-2.17689 -5.16107,-3.01651c-13.56311,-7.0414 -47.06001,-18.35321 -47.06001,-18.35321z" fill-opacity="0.18431" fill="#000000" stroke="none" stroke-width="0" stroke-linecap="butt"/><path d="M615.55307,65.39756l1.50517,-1.92386l10.51209,8.2244l-1.50515,1.92386z" fill="#ffffff" stroke="none" stroke-width="0" stroke-linecap="butt"/><path d="M628.60131,76.94435l1.85509,-2.01484l2.10342,1.93665l-1.85507,2.01483z" fill="#ffffff" stroke="none" stroke-width="0" stroke-linecap="butt"/></g><text transform="translate(510.74905,135.71356) scale(0.50501,0.50501)" font-size="40" xml:space="preserve" fill="#ffffff" stroke="#000000" stroke-width="1" stroke-linecap="butt" font-family="Pixel" font-weight="normal" text-anchor="start"><tspan x="0" dy="0">Shadow Cleaver</tspan></text><path d="M36.73564,269.79359c0,0 -1.68167,-4.02204 -1.68167,-17.00484c0,-17.43048 0,-40.12346 0,-50.79082c0,-11.3171 2.46646,-21.03236 2.46646,-21.03236c0,0 1.54891,-6.26496 5.8298,-6.26496c11.80014,0 67.6418,0 88.98859,0c5.17626,0 5.63361,6.71244 5.63361,6.71244c0,0 2.69068,5.1045 2.69068,19.68988c0,17.2107 0,38.27615 0,48.32959c0,11.03969 -1.84985,19.68982 -1.84985,19.68982c0,0 -1.15975,6.76129 -6.13776,6.84035c-21.11886,0.33541 -77.66559,1.21458 -90.13808,1.21458c-4.89303,0 -5.80177,-7.38369 -5.80177,-7.38369z" fill="#c7c7c7" stroke="#000000" stroke-width="2.5" stroke-linecap="butt"/><path d="M39.26452,267.2286c0,0 -1.59849,-3.78322 -1.59849,-15.99504c0,-16.39539 0,-37.7408 0,-47.77471c0,-10.64507 2.34446,-19.7834 2.34446,-19.7834c0,0 1.4723,-5.89292 5.54142,-5.89292c11.21644,0 64.29583,0 84.58669,0c4.92023,0 5.35495,6.31384 5.35495,6.31384c0,0 2.55758,4.80136 2.55758,18.52063c0,16.18866 0,36.00321 0,45.45965c0,10.38413 -1.75834,18.52056 -1.75834,18.52056c0,0 -1.10239,6.35978 -5.83416,6.43414c-20.07421,0.31551 -73.8238,1.14247 -85.67932,1.14247c-4.65099,0 -5.51479,-6.94523 -5.51479,-6.94523z" fill="none" stroke="#8f8f8f" stroke-width="6.5" stroke-linecap="butt"/><g fill="#ffffff" stroke="none" stroke-width="0" stroke-linecap="butt"><path d="M114.47031,195.26816c0.08756,-4.13732 0.99881,-7.20793 2.03533,-6.85843c1.03653,0.3495 1.80581,3.98676 1.71824,8.12408c-0.08756,4.13732 -0.9988,7.20793 -2.03533,6.85843c-1.03653,-0.3495 -1.80581,-3.98676 -1.71824,-8.12407z"/><path d="M122.67042,196.95532c0.08756,-4.1373 1.55113,-7.0217 3.26896,-6.44246c0.60084,0.20258 1.46805,0.60885 1.9286,1.4798c0.46519,0.87974 2.89639,0.69653 4.57888,2.40902c1.41423,1.43942 2.16071,4.74253 2.1347,5.97112c-0.02332,1.10162 0.21658,5.03283 -1.44704,5.95776c-1.57995,0.87838 -0.06399,0.59755 -0.37097,1.16413c-0.58373,1.07743 -6.31522,-1.72079 -7.14126,-1.99929c-1.71783,-0.57923 -3.03943,-4.40274 -2.95187,-8.54002z"/></g><text transform="translate(113.78906,191.30386) scale(0.56376,0.56376)" font-size="40" xml:space="preserve" fill="#ffffff" stroke="#000000" stroke-width="1" stroke-linecap="butt" font-family="Pixel" font-weight="normal" text-anchor="start"><tspan x="0" dy="0">4.5%</tspan></text><path d="M92.52081,191.89983c0,0 -1.95965,-2.4286 -2.17451,-3.8666c-0.19063,-1.27587 0.94928,-4.33335 0.94928,-4.33335c0,0 1.66273,-2.84318 2.74455,-3.00484c1.09809,-0.16406 3.79588,2.02757 3.79588,2.02757c0,0 2.08767,2.61756 2.27212,3.85201c0.21824,1.46063 -1.04689,4.34793 -1.04689,4.34793c0,0 -1.62125,2.43779 -2.60766,2.58518c-1.16416,0.17394 -3.93278,-1.60793 -3.93278,-1.60793z" fill="#009d0d" stroke="none" stroke-width="0" stroke-linecap="butt"/><path d="M95.501,194.54055c0,0 2.16961,-6.38305 3.9429,-8.691c1.52309,-1.98229 11.26476,-4.23733 11.26476,-4.23733l4.62243,7.45846c0,0 -5.68918,1.81123 -7.23225,3.81954c-1.7623,2.29365 -2.77152,9.20034 -2.77152,9.20034z" fill="#794100" stroke="none" stroke-width="0" stroke-linecap="butt"/><path d="M67.27586,253.67687l-4.04464,8.45934" fill="none" stroke="#000000" stroke-width="1" stroke-linecap="round"/><path d="M129.21984,228.3718l-2.45002,-2.67241" fill="none" stroke="#000000" stroke-width="0.5" stroke-linecap="round"/><path d="M64.66302,263.4256l5.00962,-9.01566" fill="none" stroke="#000000" stroke-width="0.5" stroke-linecap="round"/><path d="M83.39924,223.08636l3.41402,-5.7507" fill="none" stroke="#000000" stroke-width="1" stroke-linecap="round"/><path d="M79.98572,232.77043l-2.15224,4.26673" fill="none" stroke="#000000" stroke-width="1" stroke-linecap="round"/><path d="M88.22285,210.47122l-1.76263,3.17219" fill="none" stroke="#000000" stroke-width="1" stroke-linecap="round"/><path d="M107.17191,219.4026l-0.1942,-0.10091c0,0 0.06943,0.03507 0.1942,0.10091z" fill="#89440f" stroke="none" stroke-width="0" stroke-linecap="butt"/><path d="M76.12046,192.53013l-14.6246,-5.94118" fill="none" stroke="#000000" stroke-width="0.5" stroke-linecap="round"/><path d="M89.94664,195.18711l-5.60493,-2.89589" fill="none" stroke="#000000" stroke-width="0.5" stroke-linecap="round"/><path d="M81.16899,198.39447l13.28854,7.16536" fill="none" stroke="#000000" stroke-width="0.5" stroke-linecap="round"/><path d="M101.91788,205.1166l-5.88323,-2.39504" fill="none" stroke="#000000" stroke-width="0.5" stroke-linecap="round"/><path d="M106.85445,205.67457l6.18028,3.43411" fill="none" stroke="#000000" stroke-width="0.5" stroke-linecap="round"/><path d="M106.57684,212.07545l12.24932,7.46193" fill="none" stroke="#000000" stroke-width="0.5" stroke-linecap="round"/><path d="M123.50267,218.20283l3.02536,3.21061" fill="none" stroke="#000000" stroke-width="0.5" stroke-linecap="round"/><path d="M59.54937,263.3871c0,0 21.07863,-41.56025 26.15305,-51.5654c2.08316,-4.10732 -0.59915,-10.69369 -0.59915,-10.69369l20.24422,10.35906c0,0 -6.39951,0.70308 -8.79485,5.22134c-0.73601,1.38834 -3.40086,2.64408 -4.24493,4.22272c-1.43726,2.68804 -1.12998,5.82695 -2.66291,8.63147c-2.174,3.97734 -4.30635,7.79601 -6.00609,10.67382c-5.59877,9.47913 -17.53441,27.18219 -17.53441,27.18219c0,0 -3.07343,0.71699 -4.06901,0.10467c-1.16321,-0.71543 -2.48592,-4.13618 -2.48592,-4.13618z" fill="#613600" stroke="none" stroke-width="NaN" stroke-linecap="butt"/><path d="M59.94936,263.81041c0,0 21.07862,-41.56023 26.15303,-51.5654c2.08316,-4.10732 -0.59915,-10.69369 -0.59915,-10.69369l20.24423,10.35908c0,0 -2.52366,0.27728 -4.99458,1.60248c-0.98883,-0.36865 -2.0304,-0.66848 -3.1261,-0.89221c-5.49439,-1.12189 -12.19465,2.6198 -14.85837,7.41368c-6.477,11.6565 -10.34023,25.31152 -15.66293,37.78451c-1.3809,3.23592 -3.731,5.75666 -6.13188,8.20894c-0.58983,-1.09389 -1.02424,-2.21737 -1.02424,-2.21737z" fill="#573000" stroke="none" stroke-width="NaN" stroke-linecap="butt"/><path d="M81.88162,235.19176l-7.38442,14.46979" fill="none" stroke="#000000" stroke-width="0.5" stroke-linecap="round"/><path d="M82.77135,226.5089l3.33975,-6.01046" fill="none" stroke="#000000" stroke-width="0.5" stroke-linecap="round"/><path d="M94.33185,216.32615l-2.28226,3.32045" fill="none" stroke="#000000" stroke-width="0.5" stroke-linecap="round"/><path d="M56.15712,190.18813l-11.32915,-1.99694l17.44414,-9.00806c0,0 29.8176,10.34007 42.26554,17.25683c11.17515,6.20953 29.01636,22.35139 29.01636,22.35139l-1.69017,20.09745l-4.42485,-9.09248c0,0 -16.12282,-15.18698 -26.75344,-21.09396c-12.74453,-7.08158 -44.52846,-18.51426 -44.52846,-18.51426z" fill="#d20000" stroke="#000000" stroke-width="0.5" stroke-linecap="butt"/><path d="M57.32899,190.71269l-11.87835,-2.30207l12.69692,-6.14117c2.05071,0.94788 3.76533,1.70896 4.36622,2.03559c14.3059,7.77643 30.82748,15.54383 43.43541,25.88323c1.2967,1.0634 2.41364,2.28241 3.44869,3.57402c-1.78344,-1.20912 -3.51272,-2.29727 -5.12019,-3.19047c-13.48096,-7.4908 -46.94874,-19.8591 -46.94874,-19.8591z" fill="#9e0000" stroke="none" stroke-width="0" stroke-linecap="butt"/><path d="M123.68472,217.54654l1.92895,-1.97952l2.06655,2.01374l-1.92893,1.97952z" fill="#ffffff" stroke="none" stroke-width="0" stroke-linecap="butt"/><path d="M64.99155,188.28301c-0.27193,-0.16653 -0.53104,-0.33047 -0.77786,-0.49182c-8.61032,-5.62929 -2.23823,-8.1239 -2.23823,-8.1239l9.78481,3.22925c0,0 10.33014,3.49061 14.19358,5.42959c1.77201,0.88934 8.39341,2.71894 14.14175,5.57716c2.89181,1.43788 11.62562,6.56905 18.70377,11.92296c8.4541,6.39466 15.16256,13.031 15.16256,13.031c0,0 -8.80303,-6.02969 -15.39356,-8.1449c-3.06214,-0.98278 -3.77639,2.56312 -6.28668,1.29718c-3.70188,-1.86686 -2.73576,-5.68667 -5.21645,-7.78246c-1.04521,-0.88305 -3.81869,-0.58532 -5.52479,-1.82535c-1.30615,-0.94934 -1.44372,-3.60248 -2.95932,-3.56146c-2.42254,0.06557 -5.1816,4.26518 -7.10282,3.41349c-1.86138,-0.82514 -0.16663,-7.56408 -1.65128,-8.23788c-2.51943,-1.14344 -6.5654,2.33964 -8.53774,1.94196c-2.67554,-0.53948 -3.85805,-4.45998 -5.6774,-5.76442c-1.60873,-1.15343 -3.89352,0.33887 -5.56459,-0.68652c-1.45136,-0.89059 -3.09577,-0.02361 -5.05571,-1.22385z" fill="#d18400" stroke="none" stroke-width="0" stroke-linecap="butt"/><path d="M110.85188,205.52553l1.57336,-1.89773l10.36938,8.59699l-1.57336,1.89773z" fill="#ffffff" stroke="none" stroke-width="0" stroke-linecap="butt"/><text transform="translate(16.24905,276.50853) scale(0.56376,0.56376)" font-size="40" xml:space="preserve" fill="#ffffff" stroke="#000000" stroke-width="1" stroke-linecap="butt" font-family="Pixel" font-weight="normal" text-anchor="start"><tspan x="0" dy="0">Carmel Apple</tspan></text><path d="M210.3948,268.72813c0,0 -1.75722,-4.20272 -1.75722,-17.76873c0,-18.21348 0,-41.92585 0,-53.07241c0,-11.82549 2.57725,-21.97718 2.57725,-21.97718c0,0 1.6185,-6.5464 6.0917,-6.5464c12.33023,0 70.68038,0 92.9861,0c5.4088,0 5.88669,7.01397 5.88669,7.01397c0,0 2.81155,5.3338 2.81155,20.57439c0,17.98383 0,39.99556 0,50.50063c0,11.53562 -1.93295,20.57432 -1.93295,20.57432c0,0 -1.21186,7.06501 -6.41347,7.14763c-22.06755,0.35048 -81.15447,1.26915 -94.18723,1.26915c-5.11283,0 -6.0624,-7.71538 -6.0624,-7.71538z" fill="#c7c7c7" stroke="#000000" stroke-width="2.5" stroke-linecap="butt"/><path d="M213.03724,266.04791c0,0 -1.6703,-3.95318 -1.6703,-16.71357c0,-17.13189 0,-39.43618 0,-49.92083c0,-11.12326 2.44977,-20.6721 2.44977,-20.6721c0,0 1.53843,-6.15765 5.79036,-6.15765c11.7203,0 67.1841,0 88.38646,0c5.14124,0 5.59549,6.59747 5.59549,6.59747c0,0 2.67248,5.01703 2.67248,19.3526c0,16.91588 0,37.62053 0,47.50177c0,10.8506 -1.83734,19.35253 -1.83734,19.35253c0,0 -1.15191,6.64548 -6.09624,6.72319c-20.97596,0.32968 -77.14009,1.19379 -89.52817,1.19379c-4.85991,0 -5.76252,-7.25723 -5.76252,-7.25723z" fill="none" stroke="#8f8f8f" stroke-width="6.5" stroke-linecap="butt"/><g fill="#ffffff" stroke="none" stroke-width="0" stroke-linecap="butt"><path d="M291.6214,190.85489c0.0915,-4.32317 1.04368,-7.53172 2.12676,-7.16652c1.08309,0.3652 1.88692,4.16586 1.79543,8.48901c-0.0915,4.32317 -1.04368,7.53172 -2.12676,7.16652c-1.08309,-0.3652 -1.88692,-4.16586 -1.79543,-8.48901z"/><path d="M300.18986,192.61784c0.0915,-4.32316 1.62081,-7.33712 3.41579,-6.73187c0.62782,0.21169 1.534,0.63619 2.01524,1.54627c0.48608,0.91926 3.0265,0.72783 4.78458,2.51724c1.47775,1.50407 2.25777,4.95557 2.2306,6.23935c-0.02436,1.15111 0.22632,5.25891 -1.51205,6.22539c-1.6509,0.91784 -0.06686,0.62439 -0.38763,1.21643c-0.60995,1.12582 -6.59893,-1.79808 -7.46207,-2.0891c-1.79501,-0.60525 -3.17596,-4.60051 -3.08446,-8.92365z"/></g><text transform="translate(302.83911,184.95904) scale(0.58701,0.58701)" font-size="40" xml:space="preserve" fill="#ffffff" stroke="#000000" stroke-width="1" stroke-linecap="butt" font-family="Pixel" font-weight="normal" text-anchor="start"><tspan x="0" dy="0">1%</tspan></text><g><path d="M311.28833,227.1911c-3.45185,8.37006 -21.19321,-7.27185 -45.98348,-17.49547c-24.79028,-10.22362 -51.70418,-14.57902 -48.25232,-22.94907c3.45185,-8.37006 32.49495,-12.46412 57.28524,-2.24051c24.79028,10.22362 40.40242,34.31499 36.95058,42.68504z" fill="url(#color-1)" stroke="none" stroke-width="0" stroke-linecap="butt"/><path d="M265.65755,193.51128c0,0 1.69133,-6.52427 3.28873,-8.95636c1.37201,-2.08892 10.9178,-5.05722 10.9178,-5.05722l5.15984,7.09445c0,0 -5.53826,2.22629 -6.92827,4.34263c-1.58751,2.41703 -2.0832,9.3776 -2.0832,9.3776z" fill="#404040" stroke="none" stroke-width="0" stroke-linecap="butt"/><path d="M260.2863,215.08546l-2.72088,6.0972" fill="none" stroke="#000000" stroke-width="1" stroke-linecap="round"/><path d="M253.65845,235.66016l1.64114,-4.47982" fill="none" stroke="#000000" stroke-width="1" stroke-linecap="round"/><path d="M242.07892,262.23715l3.03321,-8.85611" fill="none" stroke="#000000" stroke-width="1" stroke-linecap="round"/><path d="M260.89077,208.11547l-1.38131,3.34939" fill="none" stroke="#000000" stroke-width="1" stroke-linecap="round"/><path d="M280.71373,214.78223l-0.20424,-0.07762c0,0 0.0729,0.02674 0.20424,0.07762z" fill="#89440f" stroke="none" stroke-width="0" stroke-linecap="butt"/><path d="M246.81601,191.72294l-15.18905,-4.20137" fill="none" stroke="#000000" stroke-width="0.5" stroke-linecap="round"/><path d="M260.83374,192.75982l-5.89278,-2.22393" fill="none" stroke="#000000" stroke-width="0.5" stroke-linecap="round"/><path d="M266.50575,202.52454l-14.00564,-5.56973" fill="none" stroke="#000000" stroke-width="0.5" stroke-linecap="round"/><path d="M273.85256,201.22278l-6.1109,-1.69509" fill="none" stroke="#000000" stroke-width="0.5" stroke-linecap="round"/><path d="M278.81235,201.20559l6.52555,2.69117" fill="none" stroke="#000000" stroke-width="0.5" stroke-linecap="round"/><path d="M292.28621,213.56903l-13.00937,-5.98393" fill="none" stroke="#000000" stroke-width="0.5" stroke-linecap="round"/><path d="M296.76941,211.70514l3.37115,2.83413" fill="none" stroke="#000000" stroke-width="0.5" stroke-linecap="round"/><path d="M300.87564,218.76149l2.73841,2.36692" fill="none" stroke="#000000" stroke-width="0.5" stroke-linecap="round"/><path d="M238.5724,263.9031c0,0 16.09934,-43.64912 19.97506,-54.15715c1.59107,-4.31377 -1.83003,-10.5351 -1.83003,-10.5351l21.27231,7.93287c0,0 -6.26479,1.4368 -8.11795,6.19414c-0.56943,1.46181 -3.06687,3.01505 -3.72143,4.67804c-1.1146,2.83171 -0.4471,5.90886 -1.64311,8.86712c-1.69617,4.19536 -3.36939,8.22859 -4.72234,11.27879c-4.45646,10.04699 -14.24644,28.98158 -14.24644,28.98158c0,0 -2.96488,1.06621 -4.02292,0.57407c-1.23616,-0.57501 -2.94317,-3.81435 -2.94317,-3.81435z" fill="#613600" stroke="none" stroke-width="NaN" stroke-linecap="butt"/><path d="M239.01796,264.27666c0,0 16.09934,-43.64912 19.97506,-54.15715c1.59107,-4.31377 -1.83002,-10.53512 -1.83002,-10.53512l21.27231,7.93287c0,0 -2.47052,0.56661 -4.76765,2.16631c-1.02319,-0.25131 -2.09071,-0.42824 -3.20309,-0.52347c-5.57814,-0.47753 -11.78998,4.00725 -13.87745,9.06894c-5.07574,12.30768 -7.32857,26.29511 -11.16527,39.27904c-0.99537,3.36848 -3.03453,6.13976 -5.13194,8.84904c-0.71133,-1.01659 -1.27195,-2.08046 -1.27195,-2.08046z" fill="#573000" stroke="none" stroke-width="NaN" stroke-linecap="butt"/><path d="M251.80906,248.56465l5.65042,-15.20234" fill="none" stroke="#000000" stroke-width="0.5" stroke-linecap="round"/><path d="M257.3383,224.64919l2.61721,-6.34623" fill="none" stroke="#000000" stroke-width="0.5" stroke-linecap="round"/><path d="M247.57358,253.83095l-3.92581,9.51932" fill="none" stroke="#000000" stroke-width="0.5" stroke-linecap="round"/><path d="M267.62542,213.21543l-1.87945,3.55649" fill="none" stroke="#000000" stroke-width="0.5" stroke-linecap="round"/><path d="M226.74879,191.70767l-11.46528,-0.67091l16.25732,-10.94885c0,0 30.76352,6.80764 43.90683,12.228c11.79946,4.86615 31.35714,18.81119 31.35714,18.81119l0.64666,20.12489l-5.43871,-8.50511c0,0 -17.74332,-13.19679 -28.96779,-17.82582c-13.45649,-5.54951 -46.29618,-13.21338 -46.29618,-13.21338z" fill="#565656" stroke="#000000" stroke-width="0.5" stroke-linecap="butt"/><path d="M227.97148,192.09243l-12.04517,-0.91007l11.8811,-7.55725c2.14313,0.70296 3.93137,1.25951 4.565,1.51398c15.08512,6.05812 32.36637,11.85118 46.06389,20.64711c1.40877,0.90465 2.65725,1.98438 3.83291,3.14559c-1.90828,-0.99291 -3.74888,-1.87212 -5.44612,-2.57207c-14.23407,-5.87019 -48.85164,-14.26728 -48.85164,-14.26728z" fill="#363636" stroke="none" stroke-width="0" stroke-linecap="butt"/><path d="M287.28356,210.62744c-0.59275,-0.08727 -0.50548,-0.68002 -0.50548,-0.68002l0.10809,-0.70347c0.86396,-2.12187 1.66469,-5.85433 4.08847,-6.31928c0,0 0.59248,-0.08911 0.68157,0.50338c0.08911,0.59248 -0.50338,0.68157 -0.50338,0.68157c-1.59514,0.13056 -2.51954,4.03841 -3.11136,5.45239l-0.07789,0.55991c0,0 -0.08727,0.59275 -0.68002,0.50548z" fill="#000000" stroke="none" stroke-width="0.5" stroke-linecap="butt"/><path d="M272.09822,202.68687c-0.55318,0.23013 -0.78332,-0.32304 -0.78332,-0.32304l-0.16894,-0.86297c1.27273,-3.0861 2.40888,-5.67162 5.24395,-7.57745c0,0 0.49732,-0.33417 0.83147,0.16315c0.33417,0.49732 -0.16315,0.83147 -0.16315,0.83147c-2.62102,1.76039 -3.62419,4.17773 -4.80449,7.03969l0.16753,-0.05416c0,0 0.23013,0.55318 -0.32304,0.78332z" fill="#000000" stroke="none" stroke-width="0.5" stroke-linecap="butt"/><path d="M259.63028,198.90742c-0.55388,-0.22843 -0.32546,-0.78231 -0.32546,-0.78231l0.01381,0.07888c0.03971,-3.5183 1.49527,-6.4316 4.11872,-8.71507c0,0 0.45202,-0.39326 0.84529,0.05875c0.39326,0.45202 -0.05875,0.84529 -0.05875,0.84529c-2.36286,2.0548 -3.67514,4.65031 -3.70702,7.82378l-0.10426,0.36521c0,0 -0.22843,0.55388 -0.78231,0.32546z" fill="#000000" stroke="none" stroke-width="0.5" stroke-linecap="butt"/><path d="M246.62763,193.88011c-0.55388,-0.22843 -0.32546,-0.78231 -0.32546,-0.78231l0.11808,-0.28633c1.10493,-2.67924 2.34021,-4.43367 4.12235,-6.68598c0,0 0.3718,-0.46982 0.84163,-0.09802c0.46982,0.3718 0.09802,0.84163 0.09802,0.84163c-1.73258,2.18904 -2.88042,3.7955 -3.95421,6.39923l-0.11808,0.28633c0,0 -0.22843,0.55388 -0.78231,0.32546z" fill="#000000" stroke="none" stroke-width="0.5" stroke-linecap="butt"/><path d="M237.14499,190.47196c-0.55388,-0.22843 -0.32546,-0.78231 -0.32546,-0.78231l0.07922,-0.14518c0.36462,-2.37271 1.74508,-3.9544 3.04507,-5.75898c0,0 0.35595,-0.48195 0.83789,-0.126c0.48195,0.35595 0.126,0.83789 0.126,0.83789c-1.20379,1.59968 -2.52338,3.06473 -2.82346,5.22164l-0.15694,0.42748c0,0 -0.22843,0.55388 -0.78231,0.32546z" fill="#000000" stroke="none" stroke-width="0.5" stroke-linecap="butt"/></g><text transform="translate(183.78852,275.29384) scale(0.58909,0.58909)" font-size="40" xml:space="preserve" fill="#ffffff" stroke="#000000" stroke-width="1" stroke-linecap="butt" font-family="Pixel" font-weight="normal" text-anchor="start"><tspan x="0" dy="0">Void Pumpkin</tspan></text><path d="M432.75079,300.70221c0,0 -2.27607,-5.44365 -2.27607,-23.01527c0,-23.59134 0,-54.30523 0,-68.74301c0,-15.31718 3.33823,-28.46635 3.33823,-28.46635c0,0 2.09639,-8.47934 7.89039,-8.47934c15.97096,0 91.55006,0 120.44195,0c7.00585,0 7.62484,9.08497 7.62484,9.08497c0,0 3.64171,6.9087 3.64171,26.64936c0,23.29389 0,51.80498 0,65.41187c0,14.94172 -2.50369,26.64927 -2.50369,26.64927c0,0 -1.56968,9.15108 -8.30716,9.2581c-28.5834,0.45397 -105.11682,1.64389 -121.99774,1.64389c-6.62249,0 -7.85243,-9.99349 -7.85243,-9.99349z" fill="#8b8b8b" stroke="#000000" stroke-width="2.5" stroke-linecap="butt"/><path d="M436.17346,297.2306c0,0 -2.16349,-5.12043 -2.16349,-21.64856c0,-22.19039 0,-51.08044 0,-64.66087c0,-14.40761 3.17311,-26.77592 3.17311,-26.77592c0,0 1.99268,-7.97581 7.50007,-7.97581c15.18093,0 87.02144,0 114.48418,0c6.65929,0 7.24766,8.54549 7.24766,8.54549c0,0 3.46158,6.4984 3.46158,25.06681c0,21.9106 0,48.72868 0,61.52754c0,14.05444 -2.37985,25.06672 -2.37985,25.06672c0,0 -1.49203,8.60768 -7.89627,8.70834c-27.1695,0.42702 -99.91712,1.54628 -115.96301,1.54628c-6.29489,0 -7.46401,-9.40006 -7.46401,-9.40006z" fill="none" stroke="#646464" stroke-width="6.5" stroke-linecap="butt"/><g fill="#ffffff" stroke="none" stroke-width="0" stroke-linecap="butt"><path d="M537.96103,199.83546c0.11852,-5.59967 1.35185,-9.7556 2.75472,-9.28257c1.40289,0.47303 2.44407,5.39591 2.32556,10.99555c-0.11852,5.59967 -1.35185,9.7556 -2.75472,9.28257c-1.40289,-0.47303 -2.44407,-5.39591 -2.32556,-10.99555z"/><path d="M549.05949,202.11896c0.11852,-5.59965 2.09938,-9.50354 4.42436,-8.71958c0.8132,0.2742 1.98694,0.82404 2.61028,2.00283c0.6296,1.19069 3.92013,0.94274 6.19732,3.2605c1.91408,1.94817 2.92442,6.41879 2.88923,8.08163c-0.03155,1.491 0.29315,6.8117 -1.95851,8.06355c-2.13836,1.18885 -0.0866,0.80875 -0.50208,1.5756c-0.79005,1.45824 -8.54739,-2.329 -9.66538,-2.70595c-2.32502,-0.78396 -4.11372,-5.95889 -3.9952,-11.55852z"/></g><text transform="translate(552.49098,192.19876) scale(0.76034,0.76034)" font-size="40" xml:space="preserve" fill="#ffffff" stroke="#000000" stroke-width="1" stroke-linecap="butt" font-family="Pixel" font-weight="normal" text-anchor="start"><tspan x="0" dy="0">1%</tspan></text><text transform="translate(397.28852,310.20656) scale(0.76303,0.76303)" font-size="40" xml:space="preserve" fill="#ffffff" stroke="#000000" stroke-width="1" stroke-linecap="butt" font-family="Pixel" font-weight="normal" text-anchor="start"><tspan x="0" dy="0">Rainbow Pack</tspan></text><path d="M469.40499,196.87661l-5.87769,-8.72035l76.40991,-0.36335l-6.94635,9.08369z" fill="url(#color-2)" stroke="#000000" stroke-width="2.5" stroke-linecap="butt"/><path d="M532.52636,281.37139l6.94635,9.08369l-76.40991,-0.36335l5.87769,-8.72035z" fill="url(#color-3)" stroke="#000000" stroke-width="2.5" stroke-linecap="butt"/><path d="M468.8008,281.2317v-85.4936h63.58586v85.4936z" fill="url(#color-4)" stroke="#000000" stroke-width="2.5" stroke-linecap="butt"/><path d="M521.69997,239.01925c0,19.77204 -9.32997,35.80044 -20.83907,35.80044c-11.5091,0 -20.83907,-16.0284 -20.83907,-35.80044c0,-19.77204 9.32997,-35.80044 20.83907,-35.80044c11.5091,0 20.83907,16.0284 20.83907,35.80044z" fill="url(#color-5)" stroke="#000000" stroke-width="2.5" stroke-linecap="butt"/><g stroke-linecap="butt"><path d="M499.15411,233.16728c0,0 -0.72065,-3.8897 -0.28473,-5.71815c0.44034,-1.84701 2.91366,-5.30876 2.91366,-5.30876l4.90085,1.16841c0,0 -2.56717,3.36169 -2.99849,5.17082c-0.44459,1.86481 0.36955,5.85608 0.36955,5.85608z" fill="#773200" stroke="none" stroke-width="0"/><g fill="#ff6900" stroke="none" stroke-width="0"><path d="M494.98042,242.43262c0,6.60849 -2.8804,11.96573 -6.43354,11.96573c-3.55315,0 -6.43354,-5.35724 -6.43354,-11.96573c0,-6.60849 2.8804,-11.96573 6.43354,-11.96573c3.55315,0 6.43354,5.35724 6.43354,11.96573z"/><path d="M501.07464,242.58252c0,7.05116 -2.8804,12.76727 -6.43354,12.76727c-3.55315,0 -6.43354,-5.7161 -6.43354,-12.76727c0,-7.05116 2.8804,-12.76727 6.43354,-12.76727c3.55315,0 6.43354,5.7161 6.43354,12.76727z"/><path d="M514.45313,231.0748c3.55315,0 6.43354,5.35724 6.43354,11.96573c0,6.60849 -2.8804,11.96573 -6.43354,11.96573c-3.55315,0 -6.43354,-5.35724 -6.43354,-11.96573c0,-6.60849 2.8804,-11.96573 6.43354,-11.96573z"/><path d="M508.35891,230.42317c3.55315,0 6.43355,5.7161 6.43355,12.76727c0,7.05116 -2.8804,12.76727 -6.43355,12.76727c-3.55315,0 -6.43354,-5.7161 -6.43354,-12.76727c0,-7.05116 2.88039,-12.76727 6.43354,-12.76727z"/><path d="M501.68421,229.42802c3.55315,0 6.43354,5.97243 6.43354,13.33979c0,7.36736 -2.8804,13.33979 -6.43354,13.33979c-3.55315,0 -6.43354,-5.97243 -6.43354,-13.33979c0,-7.36736 2.8804,-13.33979 6.43354,-13.33979z"/></g><path d="M489.4293,249.18711c-0.69588,0 -0.69588,-0.69588 -0.69588,-0.69588v-0.57252c0,-4.33697 0.52605,-8.29468 2.47807,-12.21969c0,0 0.31121,-0.62241 0.93361,-0.31121c0.62241,0.31121 0.31121,0.93361 0.31121,0.93361c-1.87076,3.71885 -2.33113,7.48566 -2.33113,11.59727v0.57252c0,0 0,0.69588 -0.69588,0.69588z" fill="#ce5600" stroke="none" stroke-width="0.5"/><path d="M497.11644,248.91379c-0.65157,0.24434 -0.89591,-0.40723 -0.89591,-0.40723l-0.37666,-1.03622c-0.04318,-3.57952 0.41183,-8.86492 3.61934,-11.00858c0,0 0.57901,-0.386 0.96501,0.193c0.386,0.57901 -0.193,0.96501 -0.193,0.96501c-2.71789,1.807 -2.9721,6.57952 -3.02193,9.60225l0.31037,0.79586c0,0 0.24434,0.65157 -0.40723,0.89591z" fill="#ce5600" stroke="none" stroke-width="0.5"/><path d="M504.42941,248.72909c-0.69588,0 -0.69588,-0.69588 -0.69588,-0.69588v-0.1145c0,-3.97474 0.0995,-7.46256 2.80113,-10.64379c0,0 0.45287,-0.52835 0.98122,-0.07548c0.52835,0.45287 0.07548,0.98122 0.07548,0.98122c-2.49692,2.8816 -2.46608,6.12579 -2.46608,9.73804v0.1145c0,0 0,0.69588 -0.69588,0.69588z" fill="#ce5600" stroke="none" stroke-width="0.5"/><path d="M511.29969,247.46954c-0.69588,0 -0.69588,-0.69588 -0.69588,-0.69588v-0.68702c0.00535,-2.60089 0.72999,-6.69045 3.31415,-7.75086c0,0 0.65157,-0.24434 0.89591,0.40723c0.24434,0.65157 -0.40723,0.89591 -0.40723,0.89591c-1.91853,0.61467 -2.4153,4.63512 -2.41107,6.44772v0.68702c0,0 0,0.69588 -0.69588,0.69588z" fill="#ce5600" stroke="none" stroke-width="0.5"/><path d="M493.59615,250.36096c0,0 -1.57865,-0.99568 -2.18078,-1.88174c-0.85893,-1.26395 -2.48183,-4.9795 -2.48183,-4.9795l4.66261,2.61561c0,0 3.27628,0.98559 5.00377,0.98559c0.50263,0 2.57598,0.0243 2.57598,0.0243l0.20047,0.06797l1.01593,1.17275l1.55029,0.02602l0.56222,-1.45551l2.8138,-0.82113c0,0 1.24424,-0.81175 2.04396,-1.17397c1.18951,-0.53877 4.4003,-1.7449 4.4003,-1.7449c0,0 -1.43202,2.87311 -2.54763,4.11342c-0.30168,0.33539 -2.67977,3.00221 -2.67977,3.00221l-0.73189,-2.27463l-1.4666,0.40757l-0.29251,2.23397l-1.46727,0.65095c0,0 -2.99535,0.16825 -3.89239,0.16825c-0.29826,0 -1.85354,0.11466 -2.42318,-0.45796c-0.09437,-0.09487 -0.34102,-0.32069 -0.34102,-0.32069l0.0014,-1.72985l-1.98392,-0.2164c0,0 -0.2531,1.76497 -0.51372,1.94165c-0.43083,0.29207 -1.82824,-0.35399 -1.82824,-0.35399z" fill="#ffe500" stroke="#000000" stroke-width="1"/><path d="M501.15557,238.06855l3.3348,6.34603h-6.6696z" fill="#ffe500" stroke="#000000" stroke-width="1"/><path d="M493.39831,232.67303l3.3348,6.34603h-6.6696z" fill="#ffe500" stroke="#000000" stroke-width="1"/><path d="M508.51349,232.31878l3.3348,6.34603h-6.6696z" fill="#ffe500" stroke="#000000" stroke-width="1"/></g></g></g></svg>