<svg version="1.1" xmlns="http://www.w3.org/2000/svg" xmlns:xlink="http://www.w3.org/1999/xlink" width="131.42655" height="42.97973" viewBox="0,0,131.42655,42.97973"><g transform="translate(-274.28673,-163.51013)"><g stroke-miterlimit="10"><path d="M279.42612,166.42076c0,0 3.53935,-1.91063 14.99207,-1.91063c28.85336,0 81.66051,0 95.98204,0c7.0545,0 11.72592,1.38356 11.72592,1.38356c0,0 2.58713,1.26214 2.58713,5.08381c0,7.90673 0,20.84715 0,25.80554c0,3.82026 -5.43295,6.66442 -5.43295,6.66442c0,0 -2.27736,2.0424 -9.65623,2.0424c-14.52753,0 -66.76256,0 -95.33526,0c-11.37674,0 -17.32047,-2.10828 -17.32047,-2.10828c0,0 -1.68164,-0.78423 -1.68164,-4.90075c0,-8.12812 0,-21.0283 0,-25.85623c0,-3.61392 4.13939,-6.20383 4.13939,-6.20383z" fill="#595959" stroke="#000000" stroke-width="2"/><g stroke="none"><path d="M398.56886,180.36033c0,3.91463 -7.20455,7.08806 -16.09182,7.08806c-8.88726,0 -16.09182,-3.17343 -16.09182,-7.08806c0,-3.91463 7.20455,-7.08807 16.09182,-7.08807c8.88727,0 16.09182,3.17343 16.09182,7.08807z" fill="#b97f00" stroke-width="0"/><path d="M387.06794,180.99962c-0.76628,0.57471 -1.34099,-0.19157 -1.34099,-0.19157l-0.48573,-0.66369c-1.106,-0.87012 -2.5373,-0.42463 -3.82598,-0.29882c-0.82004,0.08006 -1.8322,-0.203 -2.62253,0.13179c-0.96698,0.40961 -1.86687,1.11334 -2.83769,1.51786c-0.75408,0.3142 -1.56624,0.47255 -2.32434,0.77691c0,0 -0.88934,0.35574 -1.24508,-0.5336c-0.35574,-0.88934 0.53361,-1.24508 0.53361,-1.24508c0.74177,-0.29572 1.5362,-0.44852 2.27332,-0.75565c0.98726,-0.41135 1.91033,-1.16426 2.90939,-1.54725c1.05916,-0.40603 2.04978,-0.14105 3.12455,-0.25135c2.0679,-0.21221 3.59506,-0.45041 5.36935,0.85059l0.66368,0.86887c0,0 0.57471,0.76628 -0.19157,1.34099z" fill="#9f6d00" stroke-width="0.5"/><path d="M401.29413,189.22126c0,3.91463 -7.20455,7.08807 -16.09182,7.08807c-8.88726,0 -16.09182,-3.17343 -16.09182,-7.08807c0,-3.91463 7.20455,-7.08807 16.09182,-7.08807c8.88727,0 16.09182,3.17343 16.09182,7.08807z" fill="#b97f00" stroke-width="0"/><path d="M384.59487,186.83857c0,3.91463 -7.20455,7.08807 -16.09182,7.08807c-8.88726,0 -16.09182,-3.17343 -16.09182,-7.08807c0,-3.91463 7.20455,-7.08807 16.09182,-7.08807c8.88727,0 16.09182,3.17343 16.09182,7.08807z" fill="#b97f00" stroke-width="0"/><path d="M373.09395,187.47787c-0.76628,0.57471 -1.34099,-0.19157 -1.34099,-0.19157l-0.48573,-0.66368c-1.106,-0.87012 -2.5373,-0.42463 -3.82598,-0.29882c-0.82004,0.08006 -1.8322,-0.203 -2.62253,0.13179c-0.96698,0.40961 -1.86687,1.11334 -2.83769,1.51786c-0.75408,0.3142 -1.56624,0.47255 -2.32434,0.77691c0,0 -0.88934,0.35574 -1.24508,-0.5336c-0.35574,-0.88934 0.53361,-1.24508 0.53361,-1.24508c0.74177,-0.29572 1.5362,-0.44852 2.27332,-0.75565c0.98726,-0.41135 1.91033,-1.16426 2.90938,-1.54725c1.05916,-0.40603 2.04978,-0.14105 3.12455,-0.25135c2.0679,-0.21221 3.59506,-0.45041 5.36935,0.85059l0.66368,0.86887c0,0 0.57471,0.76628 -0.19157,1.34099z" fill="#9f6d00" stroke-width="0.5"/><path d="M391.32712,190.88316c-0.76628,0.57471 -1.34099,-0.19157 -1.34099,-0.19157l-0.48573,-0.66368c-1.106,-0.87012 -2.5373,-0.42463 -3.82598,-0.29882c-0.82004,0.08006 -1.8322,-0.203 -2.62253,0.13179c-0.96698,0.40961 -1.86687,1.11334 -2.83769,1.51786c-0.75408,0.3142 -1.56624,0.47255 -2.32434,0.77691c0,0 -0.88934,0.35574 -1.24507,-0.5336c-0.35574,-0.88934 0.5336,-1.24508 0.5336,-1.24508c0.74177,-0.29572 1.5362,-0.44852 2.27332,-0.75565c0.98726,-0.41135 1.91033,-1.16426 2.90939,-1.54725c1.05916,-0.40603 2.04978,-0.14105 3.12455,-0.25135c2.0679,-0.21221 3.59506,-0.45041 5.36935,0.85059l0.66368,0.86887c0,0 0.57471,0.76628 -0.19157,1.34099z" fill="#9f6d00" stroke-width="0.5"/></g><text transform="translate(281.92596,192.8584) scale(0.56032,0.56032)" font-size="40" xml:space="preserve" fill="#ffffff" stroke="#000000" stroke-width="1" font-family="Pixel" font-weight="normal" text-anchor="start"><tspan x="0" dy="0">Area 9</tspan></text></g></g></svg>