<svg version="1.1" xmlns="http://www.w3.org/2000/svg" xmlns:xlink="http://www.w3.org/1999/xlink" width="211.64427" height="183.16455" viewBox="0,0,211.64427,183.16455"><g transform="translate(-250.71983,-88.68269)"><g stroke-miterlimit="10"><text transform="translate(252.0961,138.00654) scale(0.97671,0.97671)" font-size="40" xml:space="preserve" fill="#000000" stroke="#ffffff" stroke-width="1" font-family="Pixel" font-weight="normal" text-anchor="start"><tspan x="0" dy="0">You Got!</tspan></text><path d="M283.42955,261.85686c0,0 -1.99067,-4.76107 -1.99067,-20.12938c0,-20.63321 0,-47.49588 0,-60.1233c0,-13.39654 2.91966,-24.89694 2.91966,-24.89694c0,0 1.83351,-7.41611 6.901,-7.41611c13.96834,0 80.07055,0 105.33968,0c6.12738,0 6.66875,7.94581 6.66875,7.94581c0,0 3.18508,6.04242 3.18508,23.30777c0,20.37306 0,45.30915 0,57.20985c0,13.06817 -2.18975,23.3077 -2.18975,23.3077c0,0 -1.37285,8.00363 -7.26553,8.09723c-24.99932,0.39704 -91.93616,1.43775 -106.70039,1.43775c-5.79209,0 -6.86781,-8.7404 -6.86781,-8.7404z" fill="#c7c7c7" stroke="#000000" stroke-width="2.5"/><path d="M286.42307,258.82057c0,0 -1.8922,-4.47837 -1.8922,-18.93403c0,-19.40793 0,-44.67543 0,-56.55301c0,-12.60103 2.77523,-23.41848 2.77523,-23.41848c0,0 1.74282,-6.97571 6.55963,-6.97571c13.27739,0 76.10979,0 100.12897,0c5.82429,0 6.33887,7.47397 6.33887,7.47397c0,0 3.02754,5.68357 3.02754,21.92367c0,19.16323 0,42.61857 0,53.81257c0,12.29215 -2.08143,21.9236 -2.08143,21.9236c0,0 -1.30495,7.52836 -6.90615,7.61638c-23.76271,0.37348 -87.38844,1.35239 -101.42235,1.35239c-5.50557,0 -6.5281,-8.22139 -6.5281,-8.22139z" fill="none" stroke="#8f8f8f" stroke-width="6.5"/><g fill="#ffffff" stroke="none" stroke-width="0"><path d="M375.44741,173.63784c0.10366,-4.89751 1.18233,-8.53234 2.40931,-8.11862c1.22698,0.41373 2.13762,4.71932 2.03397,9.61682c-0.10366,4.89751 -1.18233,8.53234 -2.40931,8.11862c-1.22698,-0.41373 -2.13762,-4.71932 -2.03397,-9.61682z"/><path d="M385.15423,175.63501c0.10366,-4.89751 1.83613,-8.31189 3.8696,-7.62623c0.71122,0.23981 1.73779,0.72072 2.28296,1.75171c0.55066,1.04138 3.42858,0.82452 5.42023,2.85166c1.67408,1.7039 2.55771,5.61393 2.52694,7.06827c-0.02761,1.30403 0.25638,5.95757 -1.71293,7.05246c-1.87024,1.03979 -0.07575,0.70734 -0.43913,1.37804c-0.69099,1.27539 -7.47562,-2.03697 -8.45343,-2.36664c-2.03348,-0.68566 -3.59791,-5.21172 -3.49425,-10.1092z"/></g><path d="M280.25,263.66667v-33.78297h134.16667v33.78297z" fill-opacity="0.38039" fill="#000000" stroke="none" stroke-width="0"/><path d="M288.21313,254.2557v-42.47002h115.82734v42.47002z" fill="#bb794b" stroke="none" stroke-width="0"/><path d="M311.76113,219.71865v-36.67865h67.08333v36.67865z" fill="#bb794b" stroke="none" stroke-width="0"/><path d="M327.20478,187.38351v-30.40468h38.60912v30.40468z" fill="#bb794b" stroke="none" stroke-width="0"/><path d="M327.08412,184.09297v-10.13489h39.57434v10.13489z" fill="#ffffff" stroke="none" stroke-width="0"/><path d="M309.83068,189.40171v-10.13489h72.39209v10.13489z" fill="#ffffff" stroke="none" stroke-width="0"/><path d="M286.18259,223.66731v-12.54797h119.20563v12.54797z" fill="#ffffff" stroke="none" stroke-width="0"/><path d="M330.02985,181.04783c0,-1.19944 0.97233,-2.17176 2.17176,-2.17176c1.19944,0 2.17176,0.97233 2.17176,2.17176c0,1.19944 -0.97233,2.17176 -2.17176,2.17176c-1.19944,0 -2.17176,-0.97233 -2.17176,-2.17176z" fill="#28ff00" stroke="none" stroke-width="0.5"/><path d="M339.68212,177.42822c0,-1.19944 0.97233,-2.17176 2.17176,-2.17176c1.19944,0 2.17176,0.97233 2.17176,2.17176c0,1.19944 -0.97233,2.17176 -2.17176,2.17176c-1.19944,0 -2.17176,-0.97233 -2.17176,-2.17176z" fill="#28ff00" stroke="none" stroke-width="0.5"/><path d="M345.95611,182.49567c0,-0.06357 0.00274,-0.1265 0.00808,-0.18868c-0.08214,-0.15285 -0.12874,-0.32763 -0.12874,-0.51329c0,-0.59062 0.47152,-1.0711 1.05866,-1.08555c0.35039,-0.2423 0.77549,-0.38423 1.23375,-0.38423c1.19944,0 2.17176,0.97233 2.17176,2.17176c0,1.19944 -0.97233,2.17176 -2.17176,2.17176c-1.19944,0 -2.17176,-0.97233 -2.17176,-2.17176z" fill="#28ff00" stroke="none" stroke-width="0.5"/><path d="M353.67793,177.66953c0,-1.19944 0.97233,-2.17176 2.17176,-2.17176c1.19944,0 2.17176,0.97233 2.17176,2.17176c0,1.19944 -0.97233,2.17176 -2.17176,2.17176c-1.19944,0 -2.17176,-0.97233 -2.17176,-2.17176z" fill="#28ff00" stroke="none" stroke-width="0.5"/><path d="M358.74538,181.53045c0,-1.19944 0.97233,-2.17176 2.17176,-2.17176c1.19944,0 2.17176,0.97233 2.17176,2.17176c0,1.19944 -0.97233,2.17176 -2.17176,2.17176c-1.19944,0 -2.17176,-0.97233 -2.17176,-2.17176z" fill="#28ff00" stroke="none" stroke-width="0.5"/><path d="M369.48354,182.97829c0,-1.19944 0.97233,-2.17176 2.17176,-2.17176c1.19944,0 2.17176,0.97233 2.17176,2.17176c0,1.19944 -0.97233,2.17176 -2.17176,2.17176c-1.19944,0 -2.17176,-0.97233 -2.17176,-2.17176z" fill="#28ff00" stroke="none" stroke-width="0.5"/><path d="M358.62473,184.90874c0,-1.19944 0.97233,-2.17176 2.17176,-2.17176c1.19944,0 2.17176,0.97233 2.17176,2.17176c0,1.19944 -0.97233,2.17176 -2.17176,2.17176c-1.19944,0 -2.17176,-0.97233 -2.17176,-2.17176z" fill="#28ff00" stroke="none" stroke-width="0.5"/><path d="M345.59415,184.18482c0,-1.19944 0.97233,-2.17176 2.17176,-2.17176c1.19944,0 2.17176,0.97233 2.17176,2.17176c0,1.19944 -0.97233,2.17176 -2.17176,2.17176c-1.19944,0 -2.17176,-0.97233 -2.17176,-2.17176z" fill="#28ff00" stroke="none" stroke-width="0.5"/><path d="M330.87442,187.32182c0,-1.19944 0.97233,-2.17176 2.17176,-2.17176c1.19944,0 2.17176,0.97233 2.17176,2.17176c0,1.19944 -0.97233,2.17176 -2.17176,2.17176c-1.19944,0 -2.17176,-0.97233 -2.17176,-2.17176z" fill="#28ff00" stroke="none" stroke-width="0.5"/><path d="M318.32646,183.94351c0,-1.19944 0.97233,-2.17176 2.17176,-2.17176c1.19944,0 2.17176,0.97233 2.17176,2.17176c0,1.19944 -0.97233,2.17176 -2.17176,2.17176c-1.19944,0 -2.17176,-0.97233 -2.17176,-2.17176z" fill="#28ff00" stroke="none" stroke-width="0.5"/><path d="M292.74793,214.83081c0,-1.19944 0.97233,-2.17176 2.17176,-2.17176c1.19944,0 2.17176,0.97233 2.17176,2.17176c0,1.19944 -0.97233,2.17176 -2.17176,2.17176c-1.19944,0 -2.17176,-0.97233 -2.17176,-2.17176z" fill="#28ff00" stroke="none" stroke-width="0.5"/><path d="M303.36543,218.45041c0,-1.19944 0.97233,-2.17176 2.17176,-2.17176c1.19944,0 2.17176,0.97233 2.17176,2.17176c0,1.19944 -0.97233,2.17176 -2.17176,2.17176c-1.19944,0 -2.17176,-0.97233 -2.17176,-2.17176z" fill="#28ff00" stroke="none" stroke-width="0.5"/><path d="M315.67208,216.27865c0,-1.19944 0.97233,-2.17176 2.17176,-2.17176c1.19944,0 2.17176,0.97233 2.17176,2.17176c0,1.19944 -0.97233,2.17176 -2.17176,2.17176c-1.19944,0 -2.17176,-0.97233 -2.17176,-2.17176z" fill="#28ff00" stroke="none" stroke-width="0.5"/><path d="M320.01561,220.86347c0,-1.19944 0.97233,-2.17176 2.17176,-2.17176c1.19944,0 2.17176,0.97233 2.17176,2.17176c0,1.19944 -0.97233,2.17176 -2.17176,2.17176c-1.19944,0 -2.17176,-0.97233 -2.17176,-2.17176z" fill="#28ff00" stroke="none" stroke-width="0.5"/><path d="M336.9071,218.45041c0,-1.19944 0.97233,-2.17176 2.17176,-2.17176c1.19944,0 2.17176,0.97233 2.17176,2.17176c0,1.19944 -0.97233,2.17176 -2.17176,2.17176c-1.19944,0 -2.17176,-0.97233 -2.17176,-2.17176z" fill="#28ff00" stroke="none" stroke-width="0.5"/><path d="M349.21376,220.86347c0,-1.19944 0.97233,-2.17176 2.17176,-2.17176c1.19944,0 2.17176,0.97233 2.17176,2.17176c0,1.19944 -0.97233,2.17176 -2.17176,2.17176c-1.19944,0 -2.17176,-0.97233 -2.17176,-2.17176z" fill="#28ff00" stroke="none" stroke-width="0.5"/><path d="M353.79858,218.45041c0,-1.19944 0.97233,-2.17176 2.17176,-2.17176c1.19944,0 2.17176,0.97233 2.17176,2.17176c0,1.19944 -0.97233,2.17176 -2.17176,2.17176c-1.19944,0 -2.17176,-0.97233 -2.17176,-2.17176z" fill="#28ff00" stroke="none" stroke-width="0.5"/><path d="M363.45086,219.17433c0,-1.19944 0.97233,-2.17176 2.17176,-2.17176c1.19944,0 2.17176,0.97233 2.17176,2.17176c0,1.19944 -0.97233,2.17176 -2.17176,2.17176c-1.19944,0 -2.17176,-0.97233 -2.17176,-2.17176z" fill="#28ff00" stroke="none" stroke-width="0.5"/><path d="M370.69007,216.27865c0,-1.19944 0.97233,-2.17176 2.17176,-2.17176c1.19944,0 2.17176,0.97233 2.17176,2.17176c0,1.19944 -0.97233,2.17176 -2.17176,2.17176c-1.19944,0 -2.17176,-0.97233 -2.17176,-2.17176z" fill="#28ff00" stroke="none" stroke-width="0.5"/><path d="M379.13581,219.65694c0,-1.19944 0.97233,-2.17176 2.17176,-2.17176c1.19944,0 2.17176,0.97233 2.17176,2.17176c0,1.19944 -0.97233,2.17176 -2.17176,2.17176c-1.19944,0 -2.17176,-0.97233 -2.17176,-2.17176z" fill="#28ff00" stroke="none" stroke-width="0.5"/><path d="M395.54469,217.72649c0,-1.19944 0.97233,-2.17176 2.17176,-2.17176c1.19944,0 2.17176,0.97233 2.17176,2.17176c0,1.19944 -0.97233,2.17176 -2.17176,2.17176c-1.19944,0 -2.17176,-0.97233 -2.17176,-2.17176z" fill="#28ff00" stroke="none" stroke-width="0.5"/><path d="M331.71899,190.2175c0,-1.19944 0.97233,-2.17176 2.17176,-2.17176c1.19944,0 2.17176,0.97233 2.17176,2.17176c0,1.19944 -0.97233,2.17176 -2.17176,2.17176c-1.19944,0 -2.17176,-0.97233 -2.17176,-2.17176z" fill="#2a00ff" stroke="none" stroke-width="0.5"/><path d="M346.92133,195.76756c0,-1.19944 0.97233,-2.17176 2.17176,-2.17176c1.19944,0 2.17176,0.97233 2.17176,2.17176c0,1.19944 -0.97233,2.17176 -2.17176,2.17176c-1.19944,0 -2.17176,-0.97233 -2.17176,-2.17176z" fill="#2a00ff" stroke="none" stroke-width="0.5"/><path d="M359.4693,191.18272c0,-1.19944 0.97233,-2.17176 2.17176,-2.17176c1.19944,0 2.17176,0.97233 2.17176,2.17176c0,1.19944 -0.97233,2.17176 -2.17176,2.17176c-1.19944,0 -2.17176,-0.97233 -2.17176,-2.17176z" fill="#2a00ff" stroke="none" stroke-width="0.5"/><path d="M318.56777,196.25016c0,-1.19944 0.97233,-2.17176 2.17176,-2.17176c1.19944,0 2.17176,0.97233 2.17176,2.17176c0,1.19944 -0.97233,2.17176 -2.17176,2.17176c-1.19944,0 -2.17176,-0.97233 -2.17176,-2.17176z" fill="#2a00ff" stroke="none" stroke-width="0.5"/><path d="M326.5309,205.66114c0,-1.19944 0.97233,-2.17176 2.17176,-2.17176c1.19944,0 2.17176,0.97233 2.17176,2.17176c0,1.19944 -0.97233,2.17176 -2.17176,2.17176c-1.19944,0 -2.17176,-0.97233 -2.17176,-2.17176z" fill="#2a00ff" stroke="none" stroke-width="0.5"/><path d="M336.9071,195.04363c0,-1.19944 0.97233,-2.17176 2.17176,-2.17176c1.19944,0 2.17176,0.97233 2.17176,2.17176c0,1.19944 -0.97233,2.17176 -2.17176,2.17176c-1.19944,0 -2.17176,-0.97233 -2.17176,-2.17176z" fill="#2a00ff" stroke="none" stroke-width="0.5"/><path d="M340.52671,206.86768c0,-1.19944 0.97233,-2.17176 2.17176,-2.17176c1.19944,0 2.17176,0.97233 2.17176,2.17176c0,1.19944 -0.97233,2.17176 -2.17176,2.17176c-1.19944,0 -2.17176,-0.97233 -2.17176,-2.17176z" fill="#2a00ff" stroke="none" stroke-width="0.5"/><path d="M363.93347,201.55892c0,-1.19944 0.97233,-2.17176 2.17176,-2.17176c1.19944,0 2.17176,0.97233 2.17176,2.17176c0,1.19944 -0.97233,2.17176 -2.17176,2.17176c-1.19944,0 -2.17176,-0.97233 -2.17176,-2.17176z" fill="#2a00ff" stroke="none" stroke-width="0.5"/><path d="M351.38552,203.972c0,-1.19944 0.97233,-2.17176 2.17176,-2.17176c1.19944,0 2.17176,0.97233 2.17176,2.17176c0,1.19944 -0.97233,2.17176 -2.17176,2.17176c-1.19944,0 -2.17176,-0.97233 -2.17176,-2.17176z" fill="#2a00ff" stroke="none" stroke-width="0.5"/><path d="M353.07466,194.0784c0,-1.19944 0.97233,-2.17176 2.17176,-2.17176c1.19944,0 2.17176,0.97233 2.17176,2.17176c0,1.19944 -0.97233,2.17176 -2.17176,2.17176c-1.19944,0 -2.17176,-0.97233 -2.17176,-2.17176z" fill="#2a00ff" stroke="none" stroke-width="0.5"/><path d="M389.99462,245.67423c0,-1.19944 0.97233,-2.17176 2.17176,-2.17176c1.19944,0 2.17176,0.97233 2.17176,2.17176c0,1.19944 -0.97233,2.17176 -2.17176,2.17176c-1.19944,0 -2.17176,-0.97233 -2.17176,-2.17176z" fill="#2a00ff" stroke="none" stroke-width="0.5"/><path d="M378.17059,234.5741c0,-1.19944 0.97233,-2.17176 2.17176,-2.17176c1.19944,0 2.17176,0.97233 2.17176,2.17176c0,1.19944 -0.97233,2.17176 -2.17176,2.17176c-1.19944,0 -2.17176,-0.97233 -2.17176,-2.17176z" fill="#2a00ff" stroke="none" stroke-width="0.5"/><path d="M364.17478,243.50246c0,-1.19944 0.97233,-2.17176 2.17176,-2.17176c1.19944,0 2.17176,0.97233 2.17176,2.17176c0,1.19944 -0.97233,2.17176 -2.17176,2.17176c-1.19944,0 -2.17176,-0.97233 -2.17176,-2.17176z" fill="#2a00ff" stroke="none" stroke-width="0.5"/><path d="M341.25063,236.26325c0,-1.19944 0.97233,-2.17176 2.17176,-2.17176c1.19944,0 2.17176,0.97233 2.17176,2.17176c0,1.19944 -0.97233,2.17176 -2.17176,2.17176c-1.19944,0 -2.17176,-0.97233 -2.17176,-2.17176z" fill="#2a00ff" stroke="none" stroke-width="0.5"/><path d="M336.66579,245.91552c0,-1.19944 0.97233,-2.17176 2.17176,-2.17176c1.19944,0 2.17176,0.97233 2.17176,2.17176c0,1.19944 -0.97233,2.17176 -2.17176,2.17176c-1.19944,0 -2.17176,-0.97233 -2.17176,-2.17176z" fill="#2a00ff" stroke="none" stroke-width="0.5"/><path d="M303.36543,242.05462c0,-1.19944 0.97233,-2.17176 2.17176,-2.17176c1.19944,0 2.17176,0.97233 2.17176,2.17176c0,1.19944 -0.97233,2.17176 -2.17176,2.17176c-1.19944,0 -2.17176,-0.97233 -2.17176,-2.17176z" fill="#2a00ff" stroke="none" stroke-width="0.5"/><path d="M316.39601,233.60887c0,-1.19944 0.97233,-2.17176 2.17176,-2.17176c1.19944,0 2.17176,0.97233 2.17176,2.17176c0,1.19944 -0.97233,2.17176 -2.17176,2.17176c-1.19944,0 -2.17176,-0.97233 -2.17176,-2.17176z" fill="#2a00ff" stroke="none" stroke-width="0.5"/><path d="M317.60254,246.63944c0,-1.19944 0.97233,-2.17176 2.17176,-2.17176c1.19944,0 2.17176,0.97233 2.17176,2.17176c0,1.19944 -0.97233,2.17176 -2.17176,2.17176c-1.19944,0 -2.17176,-0.97233 -2.17176,-2.17176z" fill="#2a00ff" stroke="none" stroke-width="0.5"/><text transform="translate(323.99717,176.94531) scale(0.82848,0.82848)" font-size="40" xml:space="preserve" fill="#ff0000" stroke="#000000" stroke-width="1" font-family="Pixel" font-weight="normal" text-anchor="start"><tspan x="0" dy="0">OG</tspan></text><text transform="translate(367.93407,168.24689) scale(0.66735,0.66735)" font-size="40" xml:space="preserve" fill="#ffffff" stroke="#000000" stroke-width="1" font-family="Pixel" font-weight="normal" text-anchor="start"><tspan x="0" dy="0">64.5%</tspan></text><text transform="translate(277.68486,262.18406) scale(0.80212,0.80212)" font-size="40" xml:space="preserve" fill="#ffffff" stroke="#000000" stroke-width="1" font-family="Pixel" font-weight="normal" text-anchor="start"><tspan x="0" dy="0">OG Cake</tspan></text></g></g></svg>