<svg version="1.1" xmlns="http://www.w3.org/2000/svg" xmlns:xlink="http://www.w3.org/1999/xlink" width="208.62234" height="190.18383" viewBox="0,0,208.62234,190.18383"><g transform="translate(-250.71983,-88.68269)"><g stroke-miterlimit="10"><text transform="translate(252.09611,138.00654) scale(0.97671,0.97671)" font-size="40" xml:space="preserve" fill="#000000" stroke="#ffffff" stroke-width="1" stroke-linecap="butt" font-family="Pixel" font-weight="normal" text-anchor="start"><tspan x="0" dy="0">You Got!</tspan></text><path d="M285.04146,267.90402c0,0 -2.07146,-4.9543 -2.07146,-20.94634c0,-21.47062 0,-49.42352 0,-62.56343c0,-13.94025 3.03815,-25.90739 3.03815,-25.90739c0,0 1.90793,-7.71709 7.18107,-7.71709c14.53525,0 83.32025,0 109.61495,0c6.37606,0 6.9394,8.26829 6.9394,8.26829c0,0 3.31435,6.28764 3.31435,24.25373c0,21.19991 0,47.14803 0,59.53174c0,13.59855 -2.27862,24.25365 -2.27862,24.25365c0,0 -1.42856,8.32846 -7.56041,8.42586c-26.01393,0.41316 -95.66744,1.49611 -111.03088,1.49611c-6.02716,0 -7.14654,-9.09513 -7.14654,-9.09513z" fill="#c7c7c7" stroke="#000000" stroke-width="2.5" stroke-linecap="butt"/><path d="M288.15644,265.74448c0,0 -1.969,-4.66012 -1.969,-19.70247c0,-20.19561 0,-46.48861 0,-58.84824c0,-13.11246 2.88787,-24.36893 2.88787,-24.36893c0,0 1.81355,-7.25883 6.82584,-7.25883c13.81626,0 79.19874,0 104.19275,0c6.06067,0 6.59615,7.7773 6.59615,7.7773c0,0 3.1504,5.91424 3.1504,22.81345c0,19.94098 0,44.34828 0,55.99658c0,12.79104 -2.16591,22.81338 -2.16591,22.81338c0,0 -1.35791,7.8339 -7.18644,7.9255c-24.72713,0.38864 -90.93515,1.40727 -105.53863,1.40727c-5.72901,0 -6.79305,-8.55505 -6.79305,-8.55505z" fill="none" stroke="#8f8f8f" stroke-width="6.5" stroke-linecap="butt"/><g fill="#ffffff" stroke="none" stroke-width="0" stroke-linecap="butt"><path d="M380.79396,177.10458c0.10787,-5.09628 1.23031,-8.87863 2.50708,-8.44812c1.27677,0.43051 2.22436,4.91084 2.11651,10.00713c-0.10787,5.09628 -1.23031,8.87863 -2.50708,8.44812c-1.27677,-0.43051 -2.22436,-4.91084 -2.11651,-10.00713z"/><path d="M390.89474,179.1828c0.10787,-5.09628 1.91066,-8.64922 4.02665,-7.93574c0.74009,0.24955 1.80833,0.74998 2.37563,1.82279c0.57301,1.08364 3.56773,0.85798 5.6402,2.96739c1.74203,1.77305 2.66153,5.84178 2.6295,7.35515c-0.02872,1.35697 0.26678,6.19937 -1.78244,7.33868c-1.94615,1.08198 -0.07882,0.73605 -0.45695,1.43396c-0.71904,1.32716 -7.77901,-2.11964 -8.79652,-2.4627c-2.116,-0.71348 -3.74393,-5.42323 -3.63607,-10.51948z"/></g><text transform="translate(376.6453,172.2214) scale(0.69443,0.69443)" font-size="40" xml:space="preserve" fill="#ffffff" stroke="#000000" stroke-width="1" stroke-linecap="butt" font-family="Pixel" font-weight="normal" text-anchor="start"><tspan x="0" dy="0">20%</tspan></text><path d="M321.63734,271.91666v-32.24646h46.83097v32.24646z" fill-opacity="0.38039" fill="#000000" stroke="none" stroke-width="0" stroke-linecap="butt"/><path d="M330.37693,261.20912v-15.97831h13.71113v15.97831z" fill="#6e6e6e" stroke="#000000" stroke-width="0" stroke-linecap="butt"/><path d="M344.8438,260.88524v-15.87035h13.71113v15.87035z" fill="#6e6e6e" stroke="#000000" stroke-width="0" stroke-linecap="butt"/><path d="M365.33484,234.93384l-2.29766,-8.77289l7.41518,-1.94208l2.29766,8.77289z" fill="#ffef00" stroke="none" stroke-width="0" stroke-linecap="butt"/><path d="M315.74998,234.07138l2.29766,-8.77289l7.41518,1.94208l-2.29766,8.77289z" fill="#ffef00" stroke="none" stroke-width="0" stroke-linecap="butt"/><path d="M361.76093,228.17024c0,0 -2.58616,-10.3499 -3.49102,-14.47854c-0.65483,-2.98776 -1.43487,-7.997 -1.43487,-7.997c0,0 3.25948,-1.79202 5.00555,-2.17469c1.63248,-0.35778 5.15301,-0.05173 5.15301,-0.05173c0,0 1.32707,5.14877 1.95768,8.02611c0.90799,4.1429 2.96821,14.44943 2.96821,14.44943z" fill="#66aaff" stroke="none" stroke-width="0" stroke-linecap="butt"/><path d="M316.45738,226.69955c0,0 2.06022,-10.30654 2.96821,-14.44943c0.63061,-2.87734 1.95768,-8.02611 1.95768,-8.02611c0,0 3.52053,-0.30605 5.15301,0.05173c1.74606,0.38269 5.00555,2.17469 5.00555,2.17469c0,0 -0.78005,5.00924 -1.43487,7.997c-0.90485,4.12863 -3.49102,14.47854 -3.49102,14.47854z" fill="#66aaff" stroke="none" stroke-width="0" stroke-linecap="butt"/><path d="M330.05305,233.9341c0,0 -0.53981,-16.16677 -0.53981,-22.69158c0,-4.53164 0.53981,-12.70607 0.53981,-12.70607c0,0 9.38538,-1.61943 14.03502,-1.61943c4.97316,0 14.8987,1.61943 14.8987,1.61943c0,0 0.8637,7.78458 0.8637,12.49014c0,6.50235 -0.8637,22.90749 -0.8637,22.90749z" fill="#66aaff" stroke="none" stroke-width="0" stroke-linecap="butt"/><path d="M329.65653,196.25106c0,0 -1.29554,-8.71257 -1.29554,-13.45712c0,-4.56984 1.29554,-14.50572 1.29554,-14.50572c0,0 9.35596,-2.44674 13.92705,-2.44674c4.75995,0 14.089,2.44674 14.089,2.44674c0,0 0.97166,9.57673 0.97166,13.98142c0,4.86955 -0.97166,13.98142 -0.97166,13.98142c0,0 -10.00191,2.44674 -14.73676,2.44674c-4.59993,0 -13.27928,-2.44674 -13.27928,-2.44674z" fill="#ffd300" stroke="none" stroke-width="0" stroke-linecap="butt"/><path d="M333.48399,188.29165h20.78261" fill="none" stroke="#000000" stroke-width="2" stroke-linecap="round"/><path d="M330.81195,182.71003c0,-1.14779 0.93046,-2.07827 2.07827,-2.07827c1.14779,0 2.07827,0.93046 2.07827,2.07827c0,1.14779 -0.93046,2.07827 -2.07827,2.07827c-1.14779,0 -2.07827,-0.93046 -2.07827,-2.07827z" fill="#000000" stroke="none" stroke-width="0.5" stroke-linecap="butt"/><path d="M352.42586,182.59128c0,-1.14779 0.93046,-2.07827 2.07827,-2.07827c1.14779,0 2.07827,0.93046 2.07827,2.07827c0,1.14779 -0.93046,2.07827 -2.07827,2.07827c-1.14779,0 -2.07827,-0.93046 -2.07827,-2.07827z" fill="#000000" stroke="none" stroke-width="0.5" stroke-linecap="butt"/><path d="M328.49616,173.32816c0,0 -0.51215,-2.47171 -0.63724,-3.59749c-0.11066,-0.99591 -0.0753,-2.81543 -0.0753,-2.81543c0,0 9.49995,-4.03777 14.84472,-4.03777c4.5969,0 16.03231,3.20647 16.03231,3.20647c0,0 0.5938,2.98672 0.5938,3.91901c0,1.33484 -0.5938,3.32522 -0.5938,3.32522c0,0 -3.28574,-1.85423 -7.01874,-1.60586c-2.74811,0.18285 -5.7386,2.53875 -7.83905,2.33311c-3.01591,-0.29526 -0.45997,-2.49014 -3.53575,-2.29228c-3.42926,0.2206 -6.77079,3.34638 -8.32696,3.34638c-2.43353,0 -3.44397,-1.78137 -3.44397,-1.78137z" fill="#6d5335" stroke="#000000" stroke-width="0" stroke-linecap="butt"/><path d="M326.59828,169.70673v-3.77866h34.00792v3.77866z" fill="#000000" stroke="none" stroke-width="0" stroke-linecap="butt"/><path d="M325.73458,166.90954v-5.82993h4.42643v5.82993z" fill="#000000" stroke="none" stroke-width="0" stroke-linecap="butt"/><path d="M326.70625,165.72197v-3.88663h2.48311v3.88663z" fill="#f000ff" stroke="none" stroke-width="0" stroke-linecap="butt"/><path d="M332.10432,166.90954v-5.82993h4.42643v5.82993z" fill="#000000" stroke="none" stroke-width="0" stroke-linecap="butt"/><path d="M333.07597,165.72195v-3.88661h2.48311v3.88661z" fill="#f000ff" stroke="none" stroke-width="0" stroke-linecap="butt"/><path d="M338.9059,166.69362v-5.82993h4.42643v5.82993z" fill="#000000" stroke="none" stroke-width="0" stroke-linecap="butt"/><path d="M339.87756,165.50604v-3.88661h2.48311v3.88661z" fill="#f000ff" stroke="none" stroke-width="0" stroke-linecap="butt"/><path d="M345.27564,166.69362v-5.82993h4.42643v5.82993z" fill="#000000" stroke="none" stroke-width="0" stroke-linecap="butt"/><path d="M346.24728,165.50604v-3.88661h2.48311v3.88661z" fill="#f000ff" stroke="none" stroke-width="0" stroke-linecap="butt"/><path d="M351.32149,166.69362v-5.82993h4.42643v5.82993z" fill="#000000" stroke="none" stroke-width="0" stroke-linecap="butt"/><path d="M352.29315,165.50603v-3.88661h2.48311v3.88661z" fill="#f000ff" stroke="none" stroke-width="0" stroke-linecap="butt"/><path d="M357.69123,166.69362v-5.82993h4.42643v5.82993z" fill="#000000" stroke="none" stroke-width="0" stroke-linecap="butt"/><path d="M358.66287,165.50603v-3.88661h2.48311v3.88661z" fill="#f000ff" stroke="none" stroke-width="0" stroke-linecap="butt"/><text transform="translate(330.37693,209.99284) scale(0.16874,0.16874)" font-size="40" xml:space="preserve" fill="#66e6ff" stroke="#000000" stroke-width="2" stroke-linecap="butt" font-family="Pixel" font-weight="normal" text-anchor="start"><tspan x="0" dy="0">rain_SIM</tspan></text><path d="M334.37152,223.87403v-6.90954c0,0 6.67237,-5.0742 9.93246,-5.0742c3.45786,0 10.25635,5.0742 10.25635,5.0742v6.90954z" fill="#ffffff" stroke="#000000" stroke-width="0.5" stroke-linecap="butt"/><path d="M344.43589,230.75962c-0.83975,-0.83975 0,-1.67949 0,-1.67949l0.91749,-0.91425c0.73872,-0.57647 1.48892,-1.13835 2.24668,-1.68956c0,0 0.96044,-0.6985 1.65894,0.26194c0.6985,0.96044 -0.26194,1.65894 -0.26194,1.65894c-0.69745,0.50712 -1.39011,1.02115 -2.0718,1.54929l-0.80988,0.81314c0,0 -0.83975,0.83975 -1.67949,0z" fill="#66edff" stroke="none" stroke-width="0.5" stroke-linecap="butt"/><path d="M338.38225,228.06384c-0.19524,-1.17142 0.97618,-1.36667 0.97618,-1.36667l0.16198,0.09056c0.67687,-0.4722 1.32738,-0.98483 1.94333,-1.53413c0,0 0.88759,-0.78899 1.67659,0.09862c0.78899,0.88761 -0.09862,1.67659 -0.09862,1.67659c-0.68628,0.60823 -1.40873,1.17776 -2.15922,1.70472l-1.13356,0.30648c0,0 -1.17142,0.19524 -1.36667,-0.97618z" fill="#66edff" stroke="none" stroke-width="0.5" stroke-linecap="butt"/><path d="M332.21757,228.66683c-0.69026,-0.96637 0.2761,-1.65664 0.2761,-1.65664l0.65701,-0.46104c0.68365,-0.60731 1.38447,-1.19567 2.09839,-1.76713c0,0 0.92735,-0.74187 1.66922,0.18547c0.74187,0.92735 -0.18547,1.66922 -0.18547,1.66922c-0.68214,0.54539 -1.35159,1.10721 -2.00417,1.68765l-0.85445,0.61857c0,0 -0.96637,0.69026 -1.65663,-0.2761z" fill="#66edff" stroke="none" stroke-width="0.5" stroke-linecap="butt"/><path d="M330.4849,256.99862v-23.53563h13.71113v23.53563z" fill="#4352a7" stroke="#000000" stroke-width="0" stroke-linecap="butt"/><path d="M344.95176,256.78269v-23.53563h13.71113v23.53563z" fill="#4352a7" stroke="#000000" stroke-width="0" stroke-linecap="butt"/><text transform="translate(252.92632,272.12511) scale(0.64204,0.64204)" font-size="40" xml:space="preserve" fill="#ffffff" stroke="#000000" stroke-width="1" stroke-linecap="butt" font-family="Pixel" font-weight="normal" text-anchor="start"><tspan x="0" dy="0">rain_SIM Gnome</tspan></text></g></g></svg>