<svg version="1.1" xmlns="http://www.w3.org/2000/svg" xmlns:xlink="http://www.w3.org/1999/xlink" width="187.22591" height="193.496" viewBox="0,0,187.22591,193.496"><g transform="translate(-250.72028,-88.00501)"><g stroke-miterlimit="10"><text transform="translate(252.09655,137.32887) scale(0.97671,0.97671)" font-size="40" xml:space="preserve" fill="#000000" stroke="#ffffff" stroke-width="1" font-family="Pixel" font-weight="normal" text-anchor="start"><tspan x="0" dy="0">You Got!</tspan></text><path d="M319.86163,156.24283c0.6617,-0.88306 1.91398,-1.06252 2.79705,-0.40081c0.88306,0.6617 1.06252,1.91398 0.40081,2.79705c-0.6617,0.88306 -1.91398,1.06252 -2.79705,0.40081c-0.88306,-0.6617 -1.06252,-1.91398 -0.40081,-2.79705z" fill="#969696" stroke="none" stroke-width="0"/><path d="M287.98992,270.09118c0,0 -2.05513,-4.91524 -2.05513,-20.78117c0,-21.30132 0,-49.03379 0,-62.0701c0,-13.83033 3.01419,-25.7031 3.01419,-25.7031c0,0 1.89288,-7.65624 7.12445,-7.65624c14.42064,0 82.66324,0 108.75059,0c6.32578,0 6.88467,8.2031 6.88467,8.2031c0,0 3.28821,6.23807 3.28821,24.06249c0,21.03274 0,46.77626 0,59.06232c0,13.49132 -2.26065,24.06241 -2.26065,24.06241c0,0 -1.41731,8.26279 -7.5008,8.35942c-25.8088,0.4099 -94.91307,1.48431 -110.15535,1.48431c-5.97963,0 -7.09019,-9.02342 -7.09019,-9.02342z" fill="#c7c7c7" stroke="#000000" stroke-width="2.5"/><path d="M291.08035,266.95655c0,0 -1.95348,-4.62338 -1.95348,-19.54711c0,-20.03636 0,-46.12203 0,-58.3842c0,-13.00905 2.86509,-24.17676 2.86509,-24.17676c0,0 1.79925,-7.20159 6.77202,-7.20159c13.70731,0 78.57423,0 103.37115,0c6.01288,0 6.54413,7.71597 6.54413,7.71597c0,0 3.12556,5.8676 3.12556,22.63356c0,19.78373 0,43.99857 0,55.55504c0,12.69016 -2.14883,22.63349 -2.14883,22.63349c0,0 -1.3472,7.77212 -7.12977,7.863c-24.53215,0.38557 -90.21809,1.39618 -104.70642,1.39618c-5.68385,0 -6.73949,-8.48759 -6.73949,-8.48759z" fill="none" stroke="#8f8f8f" stroke-width="6.5"/><path d="M302.45903,264.36235v-33.47277h98.41526v33.47277z" fill-opacity="0.40392" fill="#000000" stroke="none" stroke-width="NaN"/><path d="M340.07202,258.91067v-44.56259h20.87617v44.56259z" fill="#66963c" stroke="#000000" stroke-width="2"/><path d="M306.25195,222.4337l-0.43218,-52.18863l90.72793,-0.75133l0.43218,52.18863z" fill="#66963c" stroke="#000000" stroke-width="2"/><text transform="translate(324.71298,209.43288) rotate(-0.4742) scale(0.94124,0.94124)" font-size="40" xml:space="preserve" fill="#000000" stroke="#00ff1d" stroke-width="1" font-family="Pixel" font-weight="normal" text-anchor="start"><tspan x="0" dy="0">OG</tspan></text><text transform="translate(297.27333,274.26694) scale(0.68896,0.68896)" font-size="40" xml:space="preserve" fill="#ffffff" stroke="#000000" stroke-width="1" font-family="Pixel" font-weight="normal" text-anchor="start"><tspan x="0" dy="0">OG Sign</tspan></text><text transform="translate(378.35115,174.17096) scale(0.68896,0.68896)" font-size="40" xml:space="preserve" fill="#ffffff" stroke="#000000" stroke-width="1" font-family="Pixel" font-weight="normal" text-anchor="start"><tspan x="0" dy="0">12%</tspan></text><g fill="#ffffff" stroke="none" stroke-width="0"><path d="M382.98735,179.0156c0.10701,-5.05609 1.22062,-8.80862 2.48732,-8.3815c1.26671,0.42711 2.20683,4.87212 2.09982,9.92821c-0.10701,5.05609 -1.22062,8.80862 -2.48732,8.38151c-1.26671,-0.42711 -2.20683,-4.87213 -2.09982,-9.92821z"/><path d="M393.00843,181.07745c0.10701,-5.05609 1.89559,-8.58103 3.99491,-7.87316c0.73426,0.24757 1.79407,0.74406 2.35689,1.80843c0.56849,1.07511 3.53959,0.85121 5.59573,2.944c1.7283,1.75907 2.64054,5.79571 2.60876,7.29715c-0.0285,1.34626 0.26469,6.15049 -1.76839,7.28081c-1.9308,1.07345 -0.07821,0.73024 -0.45335,1.42266c-0.71335,1.31669 -7.71767,-2.10292 -8.72716,-2.44327c-2.09931,-0.70786 -3.7144,-5.38047 -3.60739,-10.43653z"/></g></g></g></svg>