<svg version="1.1" xmlns="http://www.w3.org/2000/svg" xmlns:xlink="http://www.w3.org/1999/xlink" width="178.99627" height="88.28536" viewBox="0,0,178.99627,88.28536"><g transform="translate(-252.06864,-136.03164)"><g stroke-miterlimit="10"><path d="M305.8982,204.52483c0,0 -4.54203,-4.93847 -4.54203,-12.1064c0,-7.10124 0,-22.82682 0,-35.7139c0,-10.84076 4.31493,-15.81397 4.31493,-15.81397c0,0 6.16463,-3.85892 18.698,-3.85892c14.13345,0 30.87857,0 38.15303,0c6.96388,0 10.29528,5.44788 10.29528,5.44788c0,0 5.45044,5.25901 5.45044,13.01437c0,8.22432 0,26.97104 0,39.95116c0,7.86971 -2.27101,9.53379 -2.27101,9.53379c0,0 -6.51084,4.08591 -13.47471,4.08591c-7.53606,0 -25.23615,0 -39.66705,0c-11.85202,0 -16.95688,-4.53991 -16.95688,-4.53991z" fill="#66c0ff" stroke="#000000" stroke-width="2"/><text transform="translate(252.66504,219.80389) scale(0.42325,0.42982)" font-size="40" xml:space="preserve" fill="#ffffff" stroke="#000000" stroke-width="1" font-family="Pixel" font-weight="normal" text-anchor="start"><tspan x="0" dy="0">Bookshelf - $2,400</tspan></text><g><path d="M315.3298,206.23209v-12.47865h49.00168v12.47865z" fill-opacity="0.40392" fill="#000000" stroke="none" stroke-width="NaN"/><path d="M318.67298,203.9554v-62.60068h40.19248v62.60068z" fill="#985800" stroke="#000000" stroke-width="1.5"/><path d="M322.73821,160.31658v-15.29449h33.07876v15.29449z" fill="#8d5200" stroke="#000000" stroke-width="1.5"/><path d="M322.56037,179.87929v-15.29449h33.07876v15.29449z" fill="#8d5200" stroke="#000000" stroke-width="1.5"/><path d="M322.56037,199.97553v-15.29449h33.07876v15.29449z" fill="#8d5200" stroke="#000000" stroke-width="1.5"/><path d="M330.91899,158.98275v-10.67057h4.09039v10.67057z" fill="#dbc800" stroke="#000000" stroke-width="1.5"/><path d="M324.87232,159.07168v-10.67057h4.09039v10.67057z" fill="#c40000" stroke="#000000" stroke-width="1.5"/><path d="M336.34318,159.07168v-12.09332h4.00146v12.09332z" fill="#880099" stroke="#000000" stroke-width="1.5"/><path d="M341.67847,159.24952v-12.09332h4.35715v12.09332z" fill="#00990d" stroke="#000000" stroke-width="1.5"/><path d="M346.74699,159.07168v-6.84694h4.44608v6.84694z" fill="#dbc800" stroke="#000000" stroke-width="1.5"/><path d="M352.08227,159.42736v-12.00439h3.46793v12.00439z" fill="#00990d" stroke="#000000" stroke-width="1.5"/><path d="M344.7018,178.99007v-10.67057h4.09039v10.67057z" fill="#00990d" stroke="#000000" stroke-width="1.5"/><path d="M350.74845,179.079v-10.67057h4.09039v10.67057z" fill="#c40000" stroke="#000000" stroke-width="1.5"/><path d="M339.36652,179.079v-12.0933h4.00146v12.0933z" fill="#dbc800" stroke="#000000" stroke-width="1.5"/><path d="M333.67554,179.25684v-12.09332h4.35715v12.09332z" fill="#c40000" stroke="#000000" stroke-width="1.5"/><path d="M328.5181,179.079v-6.84696h4.44608v6.84696z" fill="#880099" stroke="#000000" stroke-width="1.5"/><path d="M324.16096,179.43469v-12.00439h3.46793v12.00439z" fill="#00990d" stroke="#000000" stroke-width="1.5"/><path d="M334.92044,198.90847v-10.67057h4.09039v10.67057z" fill="#dbc800" stroke="#000000" stroke-width="1.5"/><path d="M329.40732,198.73064v-10.67057h4.09039v10.67057z" fill="#00990d" stroke="#000000" stroke-width="1.5"/><path d="M350.126,199.08631v-12.0933h4.00146v12.0933z" fill="#c40000" stroke="#000000" stroke-width="1.5"/><path d="M323.89418,198.99739v-12.09332h4.35715v12.09332z" fill="#880099" stroke="#000000" stroke-width="1.5"/><path d="M340.52249,198.90847v-6.84696h4.44608v6.84696z" fill="#00990d" stroke="#000000" stroke-width="1.5"/><path d="M346.12455,198.90847v-12.00439h3.46793v12.00439z" fill="#880099" stroke="#000000" stroke-width="1.5"/></g></g></g></svg>