<svg version="1.1" xmlns="http://www.w3.org/2000/svg" xmlns:xlink="http://www.w3.org/1999/xlink" width="166.29877" height="88.28536" viewBox="0,0,166.29877,88.28536"><g transform="translate(-261.21396,-136.03164)"><g stroke-miterlimit="10"><path d="M305.8982,204.52483c0,0 -4.54203,-4.93847 -4.54203,-12.1064c0,-7.10124 0,-22.82682 0,-35.7139c0,-10.84076 4.31493,-15.81397 4.31493,-15.81397c0,0 6.16463,-3.85892 18.698,-3.85892c14.13345,0 30.87857,0 38.15303,0c6.96388,0 10.29528,5.44788 10.29528,5.44788c0,0 5.45044,5.25901 5.45044,13.01437c0,8.22432 0,26.97104 0,39.95116c0,7.86971 -2.27101,9.53379 -2.27101,9.53379c0,0 -6.51084,4.08591 -13.47471,4.08591c-7.53606,0 -25.23615,0 -39.66705,0c-11.85202,0 -16.95688,-4.53991 -16.95688,-4.53991z" fill="#66c0ff" stroke="#000000" stroke-width="2"/><text transform="translate(261.81036,219.80389) scale(0.42325,0.42982)" font-size="40" xml:space="preserve" fill="#ffffff" stroke="#000000" stroke-width="1" font-family="Pixel" font-weight="normal" text-anchor="start"><tspan x="0" dy="0">Haystack - $1,500</tspan></text><path d="M303.53132,193.99899v-28.6339h73.00993v28.6339z" fill-opacity="0.40392" fill="#000000" stroke="none" stroke-width="NaN"/><path d="M307.81682,189.93144v-36.46753h65.21786v36.46753z" fill="#ffb900" stroke="none" stroke-width="0"/><path d="M318.26825,189.72236v-36.1649h8.32246v36.1649z" fill="#ff0000" stroke="none" stroke-width="0"/><path d="M354.41653,189.85706v-36.31621h8.32246v36.31621z" fill="#ff0000" stroke="none" stroke-width="0"/><path d="M341.11914,156.52605c0,0.42244 -0.42244,0.42244 -0.42244,0.42244l-0.01264,-0.02168c-1.18195,0.38051 -2.17724,0.63029 -3.47288,0.58844c-0.78572,-0.49287 -1.51875,-1.07639 -2.33955,-1.46221c-0.35107,-0.16502 -1.58425,0.81543 -2.00324,0.89c-1.42757,0.25408 -2.69264,-0.31149 -4.00302,-0.74733c0,0 -0.40076,-0.13358 -0.26717,-0.53435c0.13358,-0.40076 0.53435,-0.26717 0.53435,-0.26717c1.20588,0.40289 2.29094,0.91038 3.60051,0.71489c0.85318,-0.12736 1.43425,-1.11871 2.38341,-0.86466c0.79816,0.21363 1.6757,0.9801 2.33955,1.46221c1.10079,-0.0631 1.93742,-0.2244 2.96087,-0.58133l0.27981,-0.02168c0,0 0.42244,0 0.42244,0.42244z" fill="#b18200" stroke="none" stroke-width="0.5"/><path d="M352.98559,155.9349c0.2987,0.2987 0,0.59742 0,0.59742l-0.59115,0.41618c-1.22774,0 -1.96513,0.67521 -3.14921,0.87188c-1.2887,0.21404 -2.48725,-0.43321 -3.72321,-0.43321c0,0 -0.42244,0 -0.42244,-0.42244c0,-0.42244 0.42244,-0.42244 0.42244,-0.42244c1.19866,0 2.36663,0.64863 3.58788,0.44412c1.2243,-0.20502 1.97676,-0.88278 3.28455,-0.88278l-0.00626,-0.16871c0,0 0.2987,-0.2987 0.59742,0z" fill="#b18200" stroke="none" stroke-width="0.5"/><path d="M350.62356,160.03537c0,0.42244 -0.42244,0.42244 -0.42244,0.42244h-0.43867c-0.98634,0 -1.54398,-0.4103 -2.39562,-0.58862c-0.98028,-0.20526 -2.60473,1.29424 -3.46589,1.5905c-0.93108,0.30087 -1.8589,1.17526 -2.89559,1.19114c-2.08702,0.03196 -4.29605,-0.43835 -6.44996,-0.43835c0,0 -0.42244,0 -0.42244,-0.42244c0,-0.42244 0.42244,-0.42244 0.42244,-0.42244c2.17371,0 4.30399,0.3923 6.41755,0.43898c0.88783,0.01961 1.85991,-0.875 2.66083,-1.14841c1.15449,-0.36978 2.4978,-1.82298 3.8452,-1.62638c0.84511,0.12331 1.33315,0.58115 2.28347,0.58115h0.43867c0,0 0.42244,0 0.42244,0.42244z" fill="#b18200" stroke="none" stroke-width="0.5"/><path d="M345.21335,167.49268c0,0.42244 -0.42244,0.42244 -0.42244,0.42244l0.0881,-0.07094c-1.22983,0.77123 -3.75175,0.4727 -5.09902,0.02799c-1.75275,-1.16849 -2.70322,-0.19887 -4.58811,0.03979c-1.3856,0.17544 -3.54089,-0.3473 -4.6726,-1.09133c0,0 -0.35149,-0.23433 -0.11717,-0.58582c0.23433,-0.35149 0.58582,-0.11717 0.58582,-0.11717c3.08058,2.08921 6.33221,-0.89179 9.16324,0.99556c0.96528,0.3272 3.42555,0.63932 4.25917,0.02799l0.38055,-0.07094c0,0 0.42244,0 0.42244,0.42244z" fill="#b18200" stroke="none" stroke-width="0.5"/><path d="M351.35466,166.32291c0,0.42244 -0.42244,0.42244 -0.42244,0.42244l0.0427,-0.0446c-1.24976,0.60155 -2.61666,0.48326 -3.99068,0.48326c0,0 -0.42244,0 -0.42244,-0.42244c0,-0.42244 0.42244,-0.42244 0.42244,-0.42244c1.19854,0 2.54211,0.16874 3.61285,-0.39407l0.33514,-0.0446c0,0 0.42244,0 0.42244,0.42244z" fill="#b18200" stroke="none" stroke-width="0.5"/><path d="M351.20844,171.87933c0,0.42244 -0.42244,0.42244 -0.42244,0.42244c-0.29244,0 -0.73111,0 -1.02356,0c-2.32078,0 -4.35467,1.69893 -6.47539,1.46016c-1.26526,-0.14245 -2.82624,-1.85892 -3.67204,-1.23867c-2.33011,1.46121 -6.74124,0.65583 -9.4463,0.65583c0,0 -0.42244,0 -0.42244,-0.42244c0,-0.42244 0.42244,-0.42244 0.42244,-0.42244c2.31544,0 7.08024,0.87749 8.97765,-0.51394c1.54174,-0.96682 2.54945,0.91774 4.22393,1.10088c1.31293,0.14359 2.418,-0.79432 3.59848,-1.2859c0.83312,-0.34693 1.90353,-0.17838 2.79365,-0.17838c0.29244,0 0.58489,0 0.87733,0h0.14622c0,0 0.42244,0 0.42244,0.42244z" fill="#b18200" stroke="none" stroke-width="0.5"/><path d="M351.93955,176.85087c0,0.42244 -0.42244,0.42244 -0.42244,0.42244h-0.29244c-1.81827,0 -3.62074,0.14622 -5.4102,0.14622c-3.01493,0 -6.17084,2.692 -8.92579,0.02249c0,0 -0.2987,-0.2987 0,-0.59742c0.2987,-0.2987 0.59742,0 0.59742,0c2.28334,2.38412 5.73964,-0.26995 8.32838,-0.26995c1.78719,0 3.5934,-0.14622 5.4102,-0.14622h0.29244c0,0 0.42244,0 0.42244,0.42244z" fill="#b18200" stroke="none" stroke-width="0.5"/><path d="M329.03687,179.32401c-0.13358,-0.40076 0.26717,-0.53435 0.26717,-0.53435l0.43867,-0.14622c0.93762,-0.30299 0.7345,-0.95232 1.24431,-1.73445c0,0 0.23433,-0.35149 0.58582,-0.11717c0.35149,0.23433 0.11717,0.58582 0.11717,0.58582c-0.64055,0.93304 -0.42103,1.63751 -1.68012,2.06731l-0.43867,0.14622c0,0 -0.40076,0.13358 -0.53435,-0.26717z" fill="#b18200" stroke="none" stroke-width="0.5"/><path d="M349.30756,184.30819c0,0.42244 -0.42244,0.42244 -0.42244,0.42244h-0.14622c-0.50207,0 -0.9449,0.34096 -1.40819,0.53441c-1.58027,0.65986 -4.14662,0.05491 -5.86805,0.34148c-1.00251,-0.04765 -1.74291,0.7678 -2.80018,-0.10431c-0.50815,-0.41916 -0.30462,-1.50785 -0.55232,-1.72865c-0.30375,-0.27076 -0.7593,0.32305 -1.1636,0.36902c-1.10792,0.12598 -2.19726,-0.15881 -3.26849,-0.14305c0,0 -0.42244,0 -0.42244,-0.42244c0,-0.42244 0.42244,-0.42244 0.42244,-0.42244c1.04722,0.01128 2.08718,0.26582 3.16527,0.14939c0.50315,-0.05434 1.25456,-0.58887 1.76083,-0.21587c0.60394,0.44495 0.06521,1.31135 0.61745,1.78067c0.68692,0.58377 1.47722,-0.0823 2.17136,-0.10431c1.49804,-0.24996 4.24062,0.36215 5.53725,-0.24341c0.67775,-0.31652 0.87862,-0.63536 1.80869,-0.63536h0.14622c0,0 0.42244,0 0.42244,0.42244z" fill="#b18200" stroke="none" stroke-width="0.5"/><path d="M318.16232,157.40338c0,0.42244 -0.42244,0.42244 -0.42244,0.42244h-0.29244c-2.06347,0 -5.08134,1.21216 -6.99484,0.56676c-0.72508,-0.24456 -0.71491,-0.81095 -1.19985,-1.27538c0,0 -0.2987,-0.2987 0,-0.59742c0.2987,-0.2987 0.59742,0 0.59742,0c1.8475,1.90663 4.91449,0.46116 7.59727,0.46116h0.29244c0,0 0.42244,0 0.42244,0.42244z" fill="#b18200" stroke="none" stroke-width="0.5"/><path d="M313.33701,163.83714c0,0.42244 -0.42244,0.42244 -0.42244,0.42244h-0.14797c-0.90779,-0.0038 -1.60092,-0.02886 -2.47138,-0.31412c0,0 -0.40076,-0.13358 -0.26717,-0.53435c0.13358,-0.40076 0.53435,-0.26717 0.53435,-0.26717c0.7812,0.2655 1.38966,0.2674 2.20771,0.27076h0.14446c0,0 0.42244,0 0.42244,0.42244z" fill="#b18200" stroke="none" stroke-width="0.5"/><path d="M314.52301,164.99068c-0.42244,0 -0.42244,-0.42244 -0.42244,-0.42244c0,-0.14622 0,-0.43867 0,-0.58489c0,0 0,-0.42244 0.42244,-0.42244c0.42244,0 0.42244,0.42244 0.42244,0.42244c0,0.14622 0,0.29244 0,0.43867v0.14622c0,0 0,0.42244 -0.42244,0.42244z" fill="#b18200" stroke="none" stroke-width="0.5"/><path d="M315.87679,168.07402l0.2109,0.70582c-1.51669,0.37139 -3.99815,0.182 -5.50002,-0.30151c0,0 -0.40076,-0.13358 -0.26717,-0.53435c0.13358,-0.40076 0.53435,-0.26717 0.53435,-0.26717c1.22295,0.42652 3.3679,0.59839 4.73007,0.34821c0.11777,-0.07745 0.2541,-0.07745 0.2541,-0.07745l0.00656,0.02194c0.0125,-0.00307 0.0249,-0.00618 0.03721,-0.00933z" fill="#b18200" stroke="none" stroke-width="0.5"/><path d="M315.98523,173.76399c-0.42244,0 -0.42244,-0.42244 -0.42244,-0.42244l0.01812,-0.31625c-0.28769,-0.62045 -1.65712,0.67479 -2.02539,0.73495c-0.90711,0.14817 -2.40327,-0.43492 -3.41917,-0.43492c0,0 -0.42244,0 -0.42244,-0.42244c0,-0.42244 0.42244,-0.42244 0.42244,-0.42244c0.93782,0 2.52941,0.57805 3.30703,0.4424c1.26885,-0.22133 1.774,-1.76527 2.94615,-0.14238l0.01812,0.56108c0,0 0,0.42244 -0.42244,0.42244z" fill="#b18200" stroke="none" stroke-width="0.5"/><path d="M315.82277,179.33664c0,0.42244 -0.42244,0.42244 -0.42244,0.42244l-0.50633,-0.00546c-0.39614,-0.15645 -0.79116,-0.47871 -0.92281,-0.88376c-0.02027,-0.06235 -0.03344,-0.15827 -0.04044,-0.26305c-0.57458,0.61587 -3.05028,0.21287 -3.29762,0.05776c0,0 -0.35149,-0.23433 -0.11717,-0.58582c0.23433,-0.35149 0.58582,-0.11717 0.58582,-0.11717c1.42753,1.04687 2.12632,-1.04607 3.35086,-0.59275c0.48511,0.17959 -0.03773,1.4681 0.57669,1.55081l0.371,-0.00546c0,0 0.42244,0 0.42244,0.42244z" fill="#b18200" stroke="none" stroke-width="0.5"/><path d="M315.36244,182.41994c0.13358,0.40076 -0.26717,0.53435 -0.26717,0.53435l-0.45414,0.15105c-1.13921,0.27966 -3.16305,0.05595 -3.31875,-1.28292c0,0 0,-0.42244 0.42244,-0.42244c0.42244,0 0.42244,0.42244 0.42244,0.42244c-0.18849,0.45307 1.79547,0.5848 2.23767,0.47174l0.42319,-0.14139c0,0 0.40076,-0.13358 0.53435,0.26717z" fill="#b18200" stroke="none" stroke-width="0.5"/><path d="M314.65301,185.33173c0,0.42244 -0.42244,0.42244 -0.42244,0.42244l-0.15886,-0.02168c-1.28754,0.41606 -3.68175,1.17951 -4.33611,-0.55962c0,0 -0.13358,-0.40076 0.26717,-0.53435c0.40076,-0.13358 0.53435,0.26717 0.53435,0.26717c0.28124,1.09425 2.59172,0.25593 3.26742,0.02527l0.42603,-0.02168c0,0 0.42244,0 0.42244,0.42244z" fill="#b18200" stroke="none" stroke-width="0.5"/><path d="M369.62114,156.33308l0.30727,0.59373c-1.54943,0.51536 -4.21157,2.15318 -4.21157,-0.54698c0,0 0,-0.42244 0.42244,-0.42244c0.42244,0 0.42244,0.42244 0.42244,0.42244c0,1.30724 1.46117,0.47614 2.54711,-0.02557c0.09528,-0.25064 0.39355,-0.25064 0.39355,-0.25064l0.03439,0.06646c0.04284,-0.01639 0.08439,-0.0314 0.12446,-0.04478z" fill="#b18200" stroke="none" stroke-width="0.5"/><path d="M369.04749,161.20515c0,0.42244 -0.42244,0.42244 -0.42244,0.42244h-0.58489c-0.68136,-0.02671 -1.0488,0.60346 -1.79736,0.24784c-0.38886,-0.18473 -0.56138,-0.66966 -0.92274,-0.90368c0,0 -0.35149,-0.23433 -0.11717,-0.58582c0.23433,-0.35149 0.58582,-0.11717 0.58582,-0.11717c0.32782,0.22338 0.52186,0.60354 0.83192,0.85098c0.02943,0.02348 1.31735,-0.33443 1.41952,-0.33705h0.58489c0,0 0.42244,0 0.42244,0.42244z" fill="#b18200" stroke="none" stroke-width="0.5"/><path d="M369.37239,161.35137c0,-0.2333 0.18913,-0.42244 0.42244,-0.42244c0.2333,0 0.42244,0.18913 0.42244,0.42244c0,0.2333 -0.18913,0.42244 -0.42244,0.42244c-0.2333,0 -0.42244,-0.18913 -0.42244,-0.42244z" fill="#b18200" stroke="none" stroke-width="0.5"/><path d="M371.29779,164.84721c0.09012,-0.26274 0.39793,-0.26274 0.39793,-0.26274l0.38055,0.77393c-0.61801,0.40846 -2.93784,2.44189 -3.71117,1.88236c-0.36471,-0.26388 0.02632,-1.43143 -0.03874,-1.49647c-0.06762,-0.06762 -2.74836,-0.1713 -3.06439,-0.16871c0,0 -0.42244,0 -0.42244,-0.42244c0,-0.42244 0.42244,-0.42244 0.42244,-0.42244c0.61334,0.00396 3.24934,0.00371 3.66181,0.41618c0.49567,0.49567 -0.16383,1.09359 -0.03874,1.42796c0.15726,0.42034 0.73161,-0.52652 1.04975,-0.84307c0.4333,-0.43112 0.88272,-0.60902 1.363,-0.88455z" fill="#b18200" stroke="none" stroke-width="0.5"/><path d="M367.17906,169.68601c0,-0.42244 0.42244,-0.42244 0.42244,-0.42244l0.38024,0.07074c0.36466,0.26222 0.51217,0.74333 0.70037,1.15116c0.09814,0.21265 0.43984,-0.197 0.67405,-0.19835c0.58484,-0.00338 1.16981,0 1.75466,0c0,0 0.42244,0 0.42244,0.42244c0,0.42244 -0.42244,0.42244 -0.42244,0.42244c-0.41483,0 -2.59967,0.28297 -2.83527,0.09409c-0.36713,-0.29432 -0.35533,-0.95142 -0.76185,-1.18839l0.08779,0.07074c0,0 -0.42244,0 -0.42244,-0.42244z" fill="#b18200" stroke="none" stroke-width="0.5"/><path d="M370.00009,173.83833c0.23433,0.35149 -0.11717,0.58582 -0.11717,0.58582l-0.55058,0.34527c-1.20962,0.03908 -2.42156,0.01812 -3.63174,0.01812c0,0 -0.42244,0 -0.42244,-0.42244c0,-0.42244 0.42244,-0.42244 0.42244,-0.42244c1.12605,0 2.26249,-0.04632 3.38691,0.01812l0.32675,-0.23962c0,0 0.35149,-0.23433 0.58582,0.11717z" fill="#b18200" stroke="none" stroke-width="0.5"/><path d="M370.68839,174.07266c0,-0.2333 0.18913,-0.42244 0.42244,-0.42244c0.2333,0 0.42244,0.18913 0.42244,0.42244c0,0.2333 -0.18913,0.42244 -0.42244,0.42244c-0.2333,0 -0.42244,-0.18913 -0.42244,-0.42244z" fill="#b18200" stroke="none" stroke-width="0.5"/><path d="M367.44902,178.17313c-0.2987,-0.2987 0,-0.59742 0,-0.59742l0.34248,-0.25734c0.69105,-0.16941 1.17257,-0.46139 1.78599,-0.82974c0,0 0.36224,-0.21734 0.57957,0.1449c0.21734,0.36224 -0.1449,0.57957 -0.1449,0.57957c-0.68229,0.40905 -1.2458,0.72922 -2.01577,0.92492l0.05003,0.0351c0,0 -0.2987,0.2987 -0.59742,0z" fill="#b18200" stroke="none" stroke-width="0.5"/><path d="M364.40085,177.87443c0,-0.2333 0.18913,-0.42244 0.42244,-0.42244c0.2333,0 0.42244,0.18913 0.42244,0.42244c0,0.2333 -0.18913,0.42244 -0.42244,0.42244c-0.2333,0 -0.42244,-0.18913 -0.42244,-0.42244z" fill="#b18200" stroke="none" stroke-width="0.5"/><path d="M371.75207,181.6556c-0.68906,0.53269 -1.70848,1.40678 -2.44753,1.3172c-0.91211,-0.11056 -0.86812,-0.75808 -1.50766,-1.03169c-0.21378,-0.09146 -3.00378,0.15606 -3.41227,0.15752c0,0 -0.42244,0 -0.42244,-0.42244c0,-0.42244 0.42244,-0.42244 0.42244,-0.42244c0.68049,0.00207 3.02712,-0.30941 3.60637,-0.13492c0.35184,0.10598 1.07942,1.39146 1.64216,1.04441c0.68878,-0.42477 1.37042,-1.02715 2.08635,-1.47625l0.12241,0.04213v-0.06026h0.43867v0c0.2333,0 0.42244,0.18913 0.42244,0.42244c0,0.19003 -0.12547,0.35075 -0.29809,0.40384l-0.42942,0.14314z" fill="#b18200" stroke="none" stroke-width="0.5"/><path d="M367.30906,185.64041c0.42244,0 0.42244,0.42244 0.42244,0.42244l-0.02168,0.01264c-0.01988,0.60583 2.28262,-0.05973 2.66363,-0.45757c0,0 0.2987,-0.2987 0.59742,0c0.2987,0.2987 0,0.59742 0,0.59742c-0.93582,0.90679 -3.42368,1.50694 -4.06256,0.12732l-0.02168,-0.27981c0,0 0,-0.42244 0.42244,-0.42244z" fill="#b18200" stroke="none" stroke-width="0.5"/><path d="M365.57063,186.06284c0,-0.2333 0.18913,-0.42244 0.42244,-0.42244c0.2333,0 0.42244,0.18913 0.42244,0.42244c0,0.2333 -0.18913,0.42244 -0.42244,0.42244c-0.2333,0 -0.42244,-0.18913 -0.42244,-0.42244z" fill="#b18200" stroke="none" stroke-width="0.5"/><path d="M366.44796,189.1335c0,-0.42244 0.42244,-0.42244 0.42244,-0.42244h0.43867c0.63127,0.00516 1.33216,-0.12296 1.94464,-0.27983c0,0 0.40982,-0.10246 0.51228,0.30736c0.10246,0.40982 -0.30736,0.51228 -0.30736,0.51228c-0.68935,0.1688 -1.43994,0.30048 -2.14956,0.30506h-0.43867c0,0 -0.42244,0 -0.42244,-0.42244z" fill="#b18200" stroke="none" stroke-width="0.5"/><path d="M349.72454,187.68392c0.13358,0.40076 -0.26717,0.53435 -0.26717,0.53435l-0.3762,0.11965c-1.48252,1.11189 -3.81045,0.77936 -5.60626,0.77936c-3.32464,0 -7.36592,1.50478 -10.34276,-0.66938c0,0 -0.33795,-0.25346 -0.08449,-0.59141c0.25346,-0.33795 0.59141,-0.08449 0.59141,-0.08449c2.63951,2.04816 6.84277,0.5004 9.83584,0.5004c1.66323,0 3.84658,0.34282 5.21415,-0.68286l0.50114,-0.17279c0,0 0.40076,-0.13358 0.53435,0.26717z" fill="#b18200" stroke="none" stroke-width="0.5"/></g></g></svg>