<svg version="1.1" xmlns="http://www.w3.org/2000/svg" xmlns:xlink="http://www.w3.org/1999/xlink" width="538.40689" height="486.38081" viewBox="0,0,538.40689,486.38081"><g transform="translate(-90.72944,58.19041)"><g stroke-miterlimit="10"><path d="M448.81023,254.59788c-28.28272,52.92003 -94.11056,72.89252 -147.0306,44.60982c-52.92003,-28.28272 -72.89253,-94.11058 -44.60984,-147.0306c28.28272,-52.92003 94.11058,-72.89253 147.0306,-44.60984c52.92003,28.28272 72.89253,94.11058 44.60984,147.0306z" fill="#ffea00" stroke="none" stroke-width="0"/><path d="M437.99669,248.81867c-25.09092,46.94787 -83.48993,64.66643 -130.4378,39.5755c-46.94787,-25.09092 -64.66644,-83.48992 -39.5755,-130.4378c25.09092,-46.94787 83.48994,-64.66643 130.43783,-39.5755c46.94787,25.09092 64.66643,83.48993 39.5755,130.4378z" fill="#fffde3" stroke="#000000" stroke-width="0"/><path d="M471.34207,264.1399c0.77019,-2.68484 3.86356,-3.06762 3.86356,-3.06762l4.46581,7.91167c-3.7633,3.24141 -7.16617,6.91458 -11.13306,9.90338c-5.06629,3.81709 -11.08293,4.53083 -15.85832,8.97247c-3.59224,3.34122 -2.45018,4.92514 -5.62946,9.38741c-3.93212,5.51891 -10.08084,9.16697 -15.86715,12.37116c-2.7836,1.53382 -5.63758,3.30717 -8.57963,4.83591c-6.44224,8.02976 -15.44728,14.6295 -24.06794,20.0777c0,0 -3.46823,2.1784 -6.14446,-0.47108c-5.38687,1.9263 -10.8042,3.89007 -16.49092,3.76066c-1.32853,-0.03022 -2.64811,-0.13712 -3.95811,-0.30827c-0.11788,0.0362 -0.23626,0.07092 -0.35516,0.10405c-13.3136,3.70913 -27.79271,-0.21361 -40.60916,-3.58694c0,0 -4.4341,-1.16718 -3.26693,-5.60128c1.16719,-4.4341 5.60128,-3.26693 5.60128,-3.26693c4.85251,1.27745 10.06773,2.7471 15.37127,3.72983c-1.01124,-1.14606 -1.90001,-3.03858 -0.52083,-5.61918l-0.00001,0.00002c2.40801,-4.50565 6.91366,-2.09765 6.91366,-2.09765l1.98519,1.08474c4.99826,2.12674 10.35293,4.31516 15.85548,5.07731c1.14592,-0.50392 2.29321,-1.00321 3.49579,-1.33613c1.1889,-0.32914 2.5792,0.27776 3.69213,-0.2544c1.12515,-0.53801 1.55459,-1.98876 2.55541,-2.73291c6.42996,-4.78109 14.95858,-11.19614 22.8202,-13.49719c2.42091,-0.70858 5.06099,-0.34443 7.50536,-0.96744c0.42554,-0.10845 0.8509,-0.23434 1.27574,-0.37532c-0.995,-2.82376 1.38613,-5.17505 1.38613,-5.17505c7.31264,-7.21711 14.41677,-14.53698 21.31348,-22.14818l2.77428,-2.66381c0,0 3.69756,-3.52524 7.22284,0.17231l0.00002,0.00004c0.47371,0.49687 0.81701,0.99061 1.05635,1.47314c4.88928,-3.6996 10.32474,-4.64639 15.16913,-8.38979c2.88823,-2.23182 5.47752,-4.82045 8.15801,-7.30256z" fill="#ffee37" stroke="none" stroke-width="0.5"/><path d="M313.22279,87.07168c-0.56308,-4.55044 3.98734,-5.11353 3.98734,-5.11353l2.72352,-0.24728c6.21856,0.49581 12.44647,-0.07025 18.68121,-0.95822c-0.79191,-0.14502 -1.58573,-0.27622 -2.38169,-0.39172l-0.00002,-0.00001c-1.1214,0.55246 -2.6182,0.72982 -4.46893,-0.25926c-4.50565,-2.40801 -2.09765,-6.91366 -2.09765,-6.91366l5.38914,-3.27044c9.79288,1.13665 19.07886,4.51538 28.54303,7.31897c2.63583,-0.18141 5.27222,-0.24446 7.909,-0.13355c7.35896,-0.8972 14.34789,-0.89237 21.45912,1.6117c0.62384,0.21967 1.23823,0.46273 1.8459,0.72253c2.13433,-0.79936 4.30731,0.36197 4.30731,0.36197c3.50521,1.87333 7.01044,3.74668 10.51565,5.62002c1.23023,0.21922 2.4546,0.45586 3.61343,0.90575c3.02855,1.17577 6.0294,2.74245 8.95004,4.54355c10.75373,1.43355 19.08134,7.80576 29.04549,14.79746l1.1152,0.78252c0,0 2.96148,2.07803 2.15146,5.22882c2.62131,-2.07567 5.49506,0.16518 5.49506,0.16518c7.08079,5.52137 17.99809,13.36639 -0.28138,16.15697c-2.41252,0.3683 -4.6468,-1.56686 -6.79655,-2.72203c-7.58578,-4.07625 -14.81076,-10.03216 -21.20629,-15.65322c-3.28357,-2.88594 -7.00453,-6.01986 -10.94103,-8.7701c-2.4121,-0.28415 -4.97035,-0.21353 -7.73389,0.31315c0,0 -5.03204,0.88214 -5.91417,-4.14989c-0.08918,-0.50883 -0.11791,-0.97524 -0.09752,-1.40256c-1.60752,-0.85913 -3.3142,-1.77125 -4.98755,-2.66556c-3.21474,-1.155 -6.034,-2.32604 -8.71546,-3.37213c-7.38263,0.95282 -14.97713,0.69442 -22.22584,1.96635c-1.15358,0.97979 -3.01654,1.79361 -5.53477,0.44775c-2.26562,-1.21085 -2.78313,-2.9521 -2.73773,-4.38415c-0.97996,-0.28975 -1.95861,-0.58816 -2.93648,-0.89156c-13.55912,1.3902 -27.06835,5.09132 -40.64462,4.14043l-0.91683,0.20317c0,0 -4.55044,0.56308 -5.11351,-3.98736z" fill="#ffee37" stroke="none" stroke-width="0.5"/><path d="M215.25378,241.10716c-0.79194,-1.75988 -1.5839,-3.51978 -2.37584,-5.27966c-3.52964,-4.89215 -6.11541,-9.49355 -9.39335,-14.95144c-3.79859,-1.61014 -2.72901,-5.87283 -2.72901,-5.87283c2.82455,-11.24484 4.81058,-22.15409 6.40426,-33.66915l2.14913,-5.69739c0,0 0.63249,-1.64796 2.12257,-2.63473c4.15269,-7.74714 8.39372,-15.09857 14.65156,-21.60766l0.00002,0.00001c0.24377,-0.42595 2.54522,-4.19137 6.6566,-2.17954c1.1269,-3.59086 2.42,-7.11073 4.02725,-10.49452c0.5274,-2.09152 1.03342,-3.61069 3.19893,-5.82696c0.95785,-1.5111 2.00513,-2.98332 3.15743,-4.40979c1.57955,-1.95541 3.20821,-4.00762 5.3638,-5.30071c1.71664,-1.02977 4.18798,-0.28085 5.8357,-1.41763c3.91673,-2.70224 4.51664,-10.23048 9.22903,-10.89081c0.73226,-0.10261 1.45478,-0.09341 2.16998,-0.00078l0.03028,-0.19352l6.49572,1.0162c2.01783,0.26875 3.68024,1.86798 3.94189,3.98264c0.19201,1.55162 -0.41503,3.01794 -1.49909,3.98604l-4.347,3.98134l-0.03537,-0.03863l-0.10868,0.16512c-6.95852,5.37387 -15.16777,8.8855 -22.03412,14.04275c-0.18898,0.14192 -0.37243,0.29514 -0.55066,0.45873c-0.37825,0.62227 -0.65141,1.09428 -0.76269,1.30085c-7.82571,14.52544 -8.77371,31.33115 -15.49816,46.10386c-1.15253,2.53196 -2.62328,4.97386 -4.49539,7.03163c-1.7377,1.91001 -4.64947,2.59887 -6.16699,4.68809c-1.30258,1.79333 0.43506,10.7122 0.47149,11.31056c0.4178,6.85892 0.93429,14.77873 0.46053,21.80966c0.6481,0.86904 1.33425,1.7503 2.0699,2.65144l2.12391,2.20351c0,0 3.52524,3.69756 -0.17231,7.22284h-0.00003c-3.26124,3.10926 -6.38843,0.59977 -7.08106,-0.0358zM223.03751,181.81477c1.28023,-2.98956 2.34795,-6.07425 3.30126,-9.21085c-0.38035,0.36671 -0.77268,0.74434 -1.17803,1.13472c0,0 -1.42451,1.37201 -3.30348,1.37823c-1.54438,2.84745 -3.03464,5.75733 -4.59876,8.68402c0,0 -0.08006,0.14976 -0.23824,0.38009c-0.19925,1.56538 -0.41097,3.11898 -0.63523,4.66327c2.54344,-2.14051 5.37965,-4.05732 6.65244,-7.02948zM211.40672,214.47612c0.02542,0.02748 0.05015,0.05463 0.07416,0.08143c-0.00752,-0.09886 -0.015,-0.1977 -0.02243,-0.29652c-0.01723,0.0717 -0.03448,0.14339 -0.05174,0.2151z" fill="#ffee37" stroke="none" stroke-width="0.5"/><path d="M500.60293,234.82893c-4.55044,0.56308 -5.11353,-3.98734 -5.11353,-3.98734l-0.59641,-5.00157c0.19793,-2.82602 1.49104,-5.71445 0.79788,-8.4613c-0.20964,-0.83078 -0.78948,-1.50917 -1.3221,-2.2078c-0.85528,0.6059 -2.04144,0.97153 -3.67927,0.72701l0.00001,-0.00002c-5.05275,-0.75442 -4.29837,-5.80714 -4.29837,-5.80714l0.27792,-1.80185c0.35533,-1.69231 0.52523,-3.43445 1.066,-5.07691c0.26277,-0.79812 1.80641,-1.47051 1.31385,-2.15122c-0.92934,-1.28435 -2.87737,-1.33184 -4.31605,-1.99774c0,0 -4.18194,-2.9344 -1.24751,-7.11635c0.10985,-0.15656 0.22143,-0.30311 0.3345,-0.44025c-0.20998,-0.60291 -0.26713,-1.04215 -0.26713,-1.04215c-0.87168,-7.05508 -3.27068,-12.4479 -3.44081,-19.69462l-0.62222,-2.94003c-0.91818,-1.17282 -1.28829,-2.70825 -0.98261,-4.18552c-2.84065,-6.75361 -6.22495,-13.34403 -8.52938,-20.21787c0,0 -1.44456,-4.35164 2.90708,-5.7962c4.35164,-1.44456 5.7962,2.90708 5.7962,2.90708c2.26221,6.89448 5.65819,13.50342 8.52247,20.27287c1.51067,1.21406 1.9118,3.15393 1.9118,3.15393l0.79953,3.9433c0.30892,0.93231 0.59783,1.8703 0.86265,2.81507c0.42214,1.50598 -0.23521,3.24089 0.3862,4.67615c0.50201,1.15947 2.06287,1.54342 2.76226,2.59567c1.67474,2.51979 6.01089,11.35316 6.94766,14.57941c1.30284,4.48693 0.38466,7.34236 0.59186,11.98338c0.16839,3.77137 2.41227,7.17307 3.18519,10.86823c0.19888,0.95087 -0.45797,8.53337 -0.59014,10.1909l0.52975,4.09932c0,0 0.56308,4.55044 -3.98736,5.11351z" fill="#ffee37" stroke="none" stroke-width="0.5"/><path d="M448.75818,308.69805c4.55044,-0.56308 5.11353,3.98734 5.11353,3.98734l-0.00335,3.91463c-1.01351,2.80122 -1.64954,5.76945 -3.04051,8.40368c-3.32243,6.29207 -10.80006,9.42614 -15.53146,14.72306c-6.54124,7.32307 -11.94299,15.52811 -22.03363,18.55734c-0.61115,0.18347 -12.50127,1.6303 -13.59158,1.76522c-11.52776,1.42648 -23.05555,2.85296 -34.58331,4.27944c0,0 -4.55043,0.5631 -5.11353,-3.98734c-0.56308,-4.55044 3.98734,-5.11353 3.98734,-5.11353c5.04839,-0.62471 10.09682,-1.24941 15.14522,-1.87412c-0.10902,-0.99602 0.12364,-2.15624 1.01931,-3.43265l-0.00006,0.00003c2.9344,-4.18195 7.11636,-1.24754 7.11636,-1.24754l-1.06484,-0.0883c6.99393,1.46658 8.23293,-0.97183 12.09375,-6.73518c0,0 1.9414,-2.76678 4.9165,-2.22029l1.31759,-0.7663c8.25566,-3.25206 13.8544,-0.99209 18.36899,-8.08565c-0.29275,-1.183 -0.16573,-2.47424 0.45394,-3.63369c1.3299,-2.4884 4.42526,-3.42756 6.91365,-2.09765c1.45654,0.77842 2.38229,2.16172 2.63288,3.67411c0.0973,0.15367 0.18198,0.30902 0.25526,0.46515c3.13599,-2.55499 8.13646,-5.31866 9.65612,-8.58992c1.04876,-2.2576 1.62554,-4.70578 2.4383,-7.05868l-0.45381,0.27429c0,0 -0.56309,-4.55043 3.98734,-5.11353zM410.43587,349.56042c2.09267,-0.61003 3.96915,-1.5414 5.69193,-2.69379c-2.66275,0.26474 -5.34936,0.44049 -7.78277,1.46554l-2.70272,1.68922c0,0 -0.34522,0.20673 -0.89992,0.40726c-0.01095,0.01608 -0.0219,0.03211 -0.03283,0.04811c1.94094,-0.14655 3.86527,-0.37388 5.72626,-0.91637z" fill="#ffee37" stroke="none" stroke-width="0.5"/><path d="M211.10745,132.52842c3.75315,3.46604 0.28711,7.21918 0.28711,7.21918l-0.46211,0.50041c-1.01449,0.86155 -2.65621,1.31126 -3.04343,2.58464c-0.45517,1.49676 1.23159,3.09675 0.85409,4.61496c-0.74829,3.0094 -2.72038,5.57363 -4.08059,8.36045c0,0 -2.35639,4.53288 -6.88926,2.17648c-0.77551,-0.40313 -1.34933,-0.86997 -1.76785,-1.36692c-0.83451,-0.19371 -1.63161,-0.60027 -2.30602,-1.22308c-2.07279,-1.91422 -2.20134,-5.14636 -0.28711,-7.21918c1.29941,-1.40705 3.20612,-1.9182 4.9452,-1.50264c0.13516,-0.3224 0.24568,-0.6543 0.32322,-0.99897c0.43586,-1.93775 -1.24157,-4.08073 -0.52959,-5.93488c0.99316,-2.58635 3.51668,-4.28194 5.27503,-6.42291l0.4621,-0.50041c0,0 3.46604,-3.75315 7.21916,-0.28712z" fill="#fff15b" stroke="none" stroke-width="0.5"/><path d="M394.26693,62.14472c-2.40801,4.50565 -6.91366,2.09765 -6.91366,2.09765l-3.85092,-2.17638c-0.61229,-0.03816 -1.24385,-0.04729 -1.88983,-0.03779c-1.55362,1.37681 -3.85976,1.71735 -5.79775,0.68162c-0.20427,-0.10917 -0.39813,-0.23027 -0.58117,-0.36192c-3.51868,0.12156 -7.00802,-0.12636 -9.80917,-2.13628c-0.15309,-0.10985 -0.30341,-0.22274 -0.45113,-0.33853l-0.05488,0.10268l-4.80602,-2.56855c-2.4884,-1.3299 -3.42754,-4.42527 -2.09765,-6.91366c1.05211,-1.96862 3.20919,-2.96763 5.29652,-2.64055l5.34762,0.71029c4.12876,-0.10187 8.27639,0.32009 12.34991,1.0005c0,0 2.62293,0.44772 3.75976,2.58991c0.54731,0.02483 1.09389,0.06231 1.63955,0.11674l5.76116,2.96067c0,0 4.50565,2.40801 2.09765,6.91366z" fill="#fff15b" stroke="none" stroke-width="0.5"/><path d="M288.47137,310.67978c-1.3299,2.4884 -4.42527,3.42756 -6.91366,2.09765c-2.4884,-1.3299 -3.42756,-4.42527 -2.09765,-6.91366c1.3299,-2.4884 4.42527,-3.42754 6.91366,-2.09765c2.4884,1.3299 3.42756,4.42526 2.09765,6.91365z" fill="#fff15b" stroke="none" stroke-width="0.5"/><path d="M516.03203,208.40734c-3.81821,2.53865 -6.35687,-1.27955 -6.35687,-1.27955l-2.46827,-3.74097c-3.57853,-6.71919 -2.8109,-12.98416 -4.36771,-19.93088c-0.1162,-0.06854 -0.23057,-0.1422 -0.34287,-0.22101c-1.89765,-1.33156 -2.61319,-3.71992 -1.90919,-5.81064c-1.73954,-3.79011 -4.10886,-8.6529 -4.26591,-8.98217c0,0 -1.97317,-4.13887 2.1657,-6.11202c4.13887,-1.97317 6.11202,2.16569 6.11202,2.16569c1.09067,2.2885 5.82081,11.87843 6.6418,14.7827c1.91083,6.75951 0.42137,13.49298 3.99787,19.68279l2.07302,3.08924c0,0 2.53865,3.81821 -1.27955,6.35687z" fill="#ffee37" stroke="none" stroke-width="0.5"/><path d="M180.83588,217.70206c-4.4341,-1.16719 -3.26693,-5.60128 -3.26693,-5.60128c2.45031,-9.1394 7.85055,-16.50094 7.50658,-26.42605c-0.32264,-9.31021 -4.52696,-19.50764 -2.30529,-28.78709c1.24517,-5.2008 7.8324,-12.88884 12.11744,-15.80213c2.39815,-1.63044 5.40696,-2.18607 7.85293,-3.74383c0.16422,-0.10457 0.32649,-0.2158 0.48692,-0.33311c1.1867,-3.25501 2.44291,-6.46379 4.71531,-8.892c0.04677,-0.04997 0.09366,-0.09979 0.14066,-0.14952l-0.02919,-0.02011l5.19156,-7.53139c0.7167,-1.05006 1.86415,-1.79864 3.22504,-1.96704c2.51312,-0.31099 4.80254,1.47423 5.11353,3.98737c0.04184,0.33807 0.04575,0.67207 0.01505,0.99776l-0.33999,4.56862l-0.70819,-0.05271l0.3342,1.55529c-2.59831,2.9346 -5.21596,7.21783 -8.12875,10.76007c-1.92328,4.75949 -4.63136,9.30529 -7.40651,12.54729c-1.40793,1.64479 -4.02705,1.95108 -5.37675,3.64396c-0.47639,0.59752 -0.02535,1.45901 0.14449,2.26728c1.09863,-0.81306 2.71041,-1.31921 4.89246,-0.35924l0.00005,0.00003c4.6762,2.05727 2.61892,6.73349 2.61892,6.73349l-1.89298,4.05636c-4.23589,5.32534 -2.23426,8.28308 -4.21115,15.02274c-3.07575,10.486 -8.4447,20.63968 -12.38682,30.89828c0,0 -1.83252,4.76879 -6.60132,2.93626c-0.09557,-0.03671 -0.1885,-0.07464 -0.27883,-0.11366c-0.43189,0.00044 -0.90495,-0.05948 -1.42255,-0.19572z" fill="#ffee37" stroke="none" stroke-width="0.5"/><path d="M447.99465,81.97772c-2.81948,3.61582 -6.43528,0.79632 -6.43528,0.79632l-1.81549,-1.58925c-0.84443,-1.14886 -1.68886,-2.29772 -2.5333,-3.44659c-5.8834,-2.61795 -11.41547,-4.78868 -17.34273,-6.56374c-2.36638,0.82881 -4.63235,-0.76121 -4.63235,-0.76121l-0.6845,-0.51128c-0.11645,-0.06713 -0.23281,-0.13301 -0.34909,-0.19772c-6.48061,-1.24159 -13.53848,-0.98373 -19.80809,-3.39531c-1.57524,-0.60587 -3.09959,-1.35951 -4.6195,-2.12213c-0.48456,-0.12809 -0.97216,-0.26733 -1.46314,-0.41931c-2.92649,-0.90605 -5.35783,-2.2587 -8.00346,-3.19523c-2.2666,-0.45541 -4.55035,-0.78424 -6.84667,-1.01375c-2.20079,0.23109 -4.34509,1.25276 -6.55337,1.09766c-1.32243,-0.09289 -2.46553,-0.98392 -3.68242,-1.55323c-1.60589,0.00271 -3.2146,0.03357 -4.82459,0.08356c-0.66654,0.20682 -1.33241,0.4248 -2.00291,0.56633c0,0 -1.56329,0.27405 -3.0999,-0.35468c-8.32984,0.41512 -16.6522,1.08652 -24.7596,0.76687c0,0 -4.58109,-0.19268 -4.38844,-4.77375c0.19268,-4.58109 4.77375,-4.38843 4.77375,-4.38843c7.85344,0.35392 15.88987,-0.23341 23.94325,-0.65317c0.93072,-0.51435 1.76665,-0.66089 1.76665,-0.66089c2.67239,-0.40575 5.31902,-1.37954 8.01717,-1.21725c1.29524,0.0779 2.41658,0.95005 3.60453,1.52352c1.38074,0.01846 2.75925,0.06011 4.1347,0.13063c1.18728,-0.345 2.36876,-0.80769 3.58817,-0.82711c6.88986,-0.10969 11.60929,2.85247 17.70556,4.82399c9.90558,3.20343 18.30131,1.59642 27.8749,6.87309l1.34325,0.91561c7.63901,2.14634 14.62226,5.09061 22.01332,8.64692c1.35112,1.65953 2.70225,3.31906 4.05339,4.9786l0.22992,0.00567c0,0 3.61582,2.81948 0.79632,6.43528z" fill="#ffee37" stroke="none" stroke-width="0.5"/><path d="M243.75752,301.71793c-0.03687,-0.02264 -0.07374,-0.0453 -0.11062,-0.06796c0,0 -3.90506,-2.40295 -1.50211,-6.30799c0.93778,-1.524 2.10434,-2.08727 3.17829,-2.20753c-0.24695,-0.17337 -0.48121,-0.36488 -0.69924,-0.57947c-1.76806,-1.74001 -2.14817,-4.50465 -3.61602,-6.50443c-3.50026,-4.76863 -7.98654,-8.72827 -11.96548,-13.10544c0,0 -3.0842,-3.39284 0.30866,-6.47702c3.39284,-3.08418 6.47702,0.30866 6.47702,0.30866c0.54577,0.60039 12.43974,13.66666 12.70798,14.03727c1.09289,1.51009 1.08559,3.71585 2.37333,5.0636c0.93754,0.98121 2.59253,0.83105 3.81736,1.41548c2.76806,1.32078 5.44135,2.9451 8.0747,4.62585c0.13628,-0.26899 0.30121,-0.54413 0.49821,-0.82487l0.00003,-0.00005c0.05505,-0.07844 0.11051,-0.15438 0.16639,-0.22789c-2.6152,-1.38452 -5.19632,-2.75338 -7.42012,-4.25827l-4.3254,-2.52446c0,0 -3.95884,-2.31324 -1.64562,-6.27209c2.31324,-3.95884 6.27209,-1.64562 6.27209,-1.64562l4.58763,2.68361c5.82396,3.95465 13.64385,6.95091 18.97519,11.52896c4.29089,3.68461 7.68986,8.518 10.87155,13.40874l4.02456,3.13821c0.62912,0.49055 1.13098,1.14427 1.43672,1.90742c1.13499,0.955 2.17465,2.59157 1.39224,5.21246c-1.46138,4.89529 -6.35666,3.4339 -6.35666,3.4339c-2.6769,-0.80955 -5.08269,-1.3839 -7.39536,-2.2901c-0.4883,1.71934 -1.96396,3.06608 -3.84932,3.29937c-0.2844,0.03519 -0.56593,0.04355 -0.84206,0.02702l-5.48683,-0.23076l0.0032,-0.07601c-0.14789,0.01462 -0.29624,0.02666 -0.44512,0.03594c-0.69274,0.04321 -1.39393,0.03285 -2.10138,-0.02459c-0.12893,0.70053 -0.40718,1.38517 -0.84309,2.00639c-1.62064,2.3096 -4.80672,2.86817 -7.11636,1.24754c-2.04188,-1.43277 -2.71512,-4.08912 -1.72393,-6.28164c-4.76323,-2.31917 -9.36807,-5.43946 -13.17482,-7.4909l-2.68946,-2.01535c0,0 -2.07118,-1.61504 -1.85609,-3.96799z" fill="#ffee37" stroke="none" stroke-width="0.5"/><path d="M411.77281,377.46857c-4.32184,-1.53138 -2.79047,-5.85324 -2.79047,-5.85324l2.26016,-4.07292c4.15672,-3.08248 5.6895,-4.60636 8.73098,-6.00517c0.64886,-1.37368 1.96593,-2.39541 3.5852,-2.59577c0.89443,-0.11068 1.76054,0.04417 2.5192,0.40283c0.93107,-0.30545 1.89925,-0.55159 2.72432,-0.27197l4.05822,-1.93472c0.4595,-0.23241 0.96625,-0.39077 1.50669,-0.45763c2.51312,-0.31099 4.80254,1.47423 5.11353,3.98737c0.24171,1.95323 -0.78281,3.77133 -2.43117,4.63048l-4.23166,2.3317l-0.12814,-0.23255c-0.21688,0.19963 -0.44033,0.39277 -0.67121,0.57855c-0.93882,0.75551 -2.28831,0.48489 -3.55624,0.48805c-0.4523,0.06033 -0.90461,0.12066 -1.35689,0.18101c-4.86292,1.40259 -6.19514,3.08625 -10.36974,6.24086l0.89045,-0.20734c0,0 -1.53138,4.32186 -5.85324,2.79047z" fill="#ffee37" stroke="none" stroke-width="0.5"/><path d="M405.42175,33.15765c-2.2798,3.9782 -6.25799,1.69841 -6.25799,1.69841l-3.72661,-2.14584c-5.59137,-2.33518 -11.54719,-6.87352 -17.60981,-7.64566c-5.92616,-0.75474 -11.92736,-0.71004 -17.88494,-1.15326c0,0 -4.5725,-0.34027 -4.23224,-4.91275c0.34027,-4.5725 4.91275,-4.23224 4.91275,-4.23224c6.23534,0.46412 12.52873,0.35078 18.71582,1.2534c7.15874,1.04437 13.56695,5.70855 20.15477,8.46616l4.22979,2.41377c0,0 3.9782,2.2798 1.69841,6.25799z" fill="#ffee37" stroke="none" stroke-width="0.5"/><path d="M443.33365,349.78992c2.98086,-0.29774 7.16583,-0.28357 8.75736,2.22029c0.53457,-0.11555 1.16457,-0.11272 1.90441,0.07431c3.72305,0.94111 2.78194,4.66415 2.78194,4.66415l-0.80403,2.06001c-3.12217,4.15791 -6.64161,6.24513 -10.63511,7.73422c-7.98289,8.86422 -21.74393,12.7185 -33.03939,11.41173c0,0 -3.81103,-0.47205 -3.33897,-4.28309c0.47205,-3.81103 4.28309,-3.33897 4.28309,-3.33897c3.3547,0.44944 6.23281,0.35648 8.91615,-0.16701c-1.8704,-0.64118 -2.96688,-2.62128 -2.47364,-4.57255c0.23141,-0.9155 0.77378,-1.67029 1.48579,-2.18014l3.47153,-2.52301c4.03751,-2.92762 13.57851,-10.58929 18.69092,-11.09994zM440.98044,359.70783c-1.05806,0.52632 -2.12453,1.00577 -3.1902,1.53858c0.94617,-0.27375 1.88584,-0.55191 2.80675,-0.85701c0.12883,-0.22245 0.25639,-0.45085 0.38344,-0.68156z" fill="#ffea00" stroke="none" stroke-width="0.5"/><path d="M452.94302,337.0833c-2.10701,0.951 -4.16691,1.95642 -5.79854,3.54854c-4.15452,4.05389 -5.81128,8.0469 -10.86997,11.31693c-4.96876,3.2119 -10.73955,2.31575 -16.1088,3.75142c-6.08992,1.62836 -12.05893,4.2547 -18.24657,5.76758c-8.24951,2.01702 -16.60906,2.11669 -25.00035,2.62915c-6.05794,0.36996 -12.84836,1.69126 -18.62841,-1.36174c-0.0938,-0.04955 -0.18684,-0.10027 -0.27917,-0.15213l-0.01624,0.03707l-4.22161,-1.84861c-1.72718,-0.7202 -2.71288,-2.61539 -2.24052,-4.4841c0.29315,-1.15969 1.0852,-2.0615 2.08904,-2.53419l5.38233,-2.58106l0.00436,0.00909l0.03356,-0.02703c2.95857,-1.33944 9.64872,-4.45213 11.75791,-4.77057c3.18235,-0.48045 8.74282,1.14565 12.04783,1.97569c0,0 3.72305,0.94111 2.78194,4.66415c-0.94111,3.72305 -4.66415,2.78194 -4.66415,2.78194c-1.6863,-0.4293 -7.55278,-2.07768 -9.17769,-1.80529c-0.49009,0.08215 -3.33522,1.33189 -5.85298,2.46298c1.30846,0.37481 2.68713,0.74533 4.15797,0.69c9.84959,-0.37057 20.51265,-0.80734 30.14475,-3.17938c6.07878,-1.49697 11.92646,-4.10491 17.92083,-5.687c4.39111,-1.15892 10.13238,-0.21923 14.08518,-2.8756c2.49273,-1.67519 5.66179,-5.92002 8.06495,-8.69215c-0.2739,-0.39854 -0.49644,-0.90157 -0.63548,-1.53508c-0.82324,-3.75088 2.92762,-4.57412 2.92762,-4.57412l1.67743,-0.36818c2.36733,-0.51518 4.76774,-0.86604 7.1784,-1.13952c0.85526,-0.24279 1.69005,-0.52455 2.42326,-1.00907c1.8769,-1.24034 3.30607,-3.08374 4.99859,-4.56359c0.07964,-0.49725 0.18774,-0.98665 0.35247,-1.46017c3.77358,-10.84723 10.46567,-21.71612 17.53153,-30.68856c1.67294,-2.12436 2.82568,-4.79808 5.0299,-6.36431c0.11816,-0.08396 0.23818,-0.1643 0.35994,-0.24131l-0.03954,-0.04892l2.95195,-2.38569c0.91103,-0.75273 2.1561,-1.07624 3.38964,-0.76443c2.05618,0.51975 3.3017,2.60797 2.78194,4.66415c-0.03372,0.13336 -0.07403,0.26332 -0.12048,0.38961l-1.30354,3.67305l-0.0402,-0.01427l0.00059,0.12083c-5.95923,14.05625 -14.7549,25.52287 -24.01726,37.54969c-0.05149,0.03104 -0.10267,0.0625 -0.15356,0.09436c-0.34385,1.89433 -0.65321,3.79428 -1.74967,5.32047c-2.03125,2.8273 -6.58691,3.41322 -10.90916,3.70929z" fill="#ffea00" stroke="none" stroke-width="0.5"/><path d="M505.84399,210.59028c-0.00459,0.02078 -3.31742,15.02581 -3.31799,15.0277c-0.2415,0.80725 -1.32216,1.35909 -1.24766,2.19838c0.10113,1.13952 2.49406,1.08856 3.40846,0.4011c0.67939,-0.51077 0.81797,-1.50414 1.06145,-2.3185c2.10054,-7.02544 3.57246,-14.33493 5.38288,-21.44381c0.23539,-2.944 0.37126,-5.89282 0.46083,-8.84399c-0.69754,0.37152 -1.511,0.53006 -2.33644,0.41353c-1.18877,4.84377 -2.3367,9.69672 -3.41151,14.56557zM516.29954,168.28226c0.00534,0.00026 0.01068,0.00052 0.01604,0.00079c3.83532,0.19269 3.64264,4.02799 3.64264,4.02799l-0.1965,3.91128c-0.49491,9.83035 -0.22219,19.68386 -1.05464,29.4945c-1.81892,7.24562 -2.84737,16.43073 -5.91039,23.23283c-0.98525,2.18797 -2.07968,4.69563 -4.17564,5.86397c-3.90541,2.17695 -10.02285,1.16401 -13.19159,-2.28327c0.01254,0.69851 0.00415,1.39966 -0.03025,2.10396l0.69243,6.20226c0.06393,0.47239 0.0404,0.96467 -0.08357,1.45513c-0.51975,2.05618 -2.60797,3.3017 -4.66415,2.78194c-1.56568,-0.39576 -2.66133,-1.70094 -2.86551,-3.20889l-0.90241,-5.68953l0.058,-0.0092c-0.03249,-0.09804 -0.06382,-0.1966 -0.09393,-0.29566c-0.81558,-2.68317 -0.61133,-5.62851 -0.18299,-8.56388c-0.5679,-4.84939 -1.51013,-9.62241 -1.24896,-14.56425c0.14348,-2.71456 0.89311,-5.35423 1.48137,-8.0171c-0.17608,-1.53068 -0.3525,-3.04331 -0.5057,-4.52069c-1.09976,-10.60572 -5.08504,-19.3328 -8.54713,-28.83595c-2.17817,-0.77116 -2.36932,-3.34433 -2.36932,-3.34433l-0.5332,-7.17676c-0.042,-0.42921 -0.01187,-0.87285 0.09989,-1.31502c0.51975,-2.05618 2.60797,-3.3017 4.66415,-2.78194c1.48626,0.3757 2.54896,1.57085 2.82761,2.98107l1.05763,4.81873c1.78475,5.59712 4.25097,10.65622 6.27971,16.02828c0.61287,-0.83316 1.66742,-1.56241 3.46397,-1.33989c3.81103,0.47205 3.33897,4.28309 3.33897,4.28309c-0.76255,6.15318 -0.82004,12.40503 -1.52729,18.51821c-0.08727,0.75436 -0.21265,1.50353 -0.35936,2.24977c0.46963,6.18258 0.41247,12.39776 -0.16444,18.12803c0.8733,-4.52157 2.03619,-8.98553 3.02935,-13.48324c1.85591,-8.40482 3.90579,-16.76949 6.02094,-25.11882c-0.00294,-0.08235 -0.00532,-0.16542 -0.00712,-0.24914c-0.29291,-0.62378 -0.58579,-1.24755 -0.8787,-1.87133c0,0 -1.453,-3.19217 1.46889,-4.86372c0.24103,-1.57664 0.48924,-2.93644 0.60336,-3.74949c1.5717,-11.19747 3.97462,-21.87599 6.74273,-32.82676l1.88221,-7.44611c0.51975,-2.05618 2.60797,-3.3017 4.66415,-2.78194c1.8042,0.45607 2.98426,2.11971 2.89527,3.9097l-0.21992,7.6015c1.22523,7.90745 -2.90667,17.6093 -4.82024,25.17947c-0.13182,0.52151 -0.26394,1.04299 -0.39629,1.56439z" fill="#ffea00" stroke="none" stroke-width="0.5"/><path d="M446.52479,69.06193c12.88219,0.08786 25.81884,0.42968 38.67421,-0.01547c1.50112,-0.05198 2.91156,-0.28309 4.30323,-0.53144c-2.36686,-0.26433 -4.61875,-0.51813 -4.70425,-0.53643c-3.05064,-0.65303 -5.80408,-2.41705 -8.87316,-2.97708c-3.87,-0.70618 -8.14186,0.10771 -12.1168,-0.40264c-14.79008,-1.92218 -29.68558,-4.47433 -44.47553,-5.75494c-5.78324,-0.50075 -11.47907,-1.31254 -17.16732,-2.09804c3.85967,2.61728 7.49107,4.98425 12.49898,6.54719c7.31153,2.28187 14.718,3.61295 21.91713,5.74972l3.70796,0c1.93445,-0.51401 4.06742,-0.35787 6.23555,0.01914zM377.22618,54.52328c0,0 -2.5,0 -2.5,-2.5c0,-2.5 2.5,-2.5 2.5,-2.5c1.20847,0 2.41224,0.02173 3.61204,0.06228c-0.0794,-0.87697 0.17637,-1.89749 1.20022,-2.91601c2.72248,-2.70829 5.43078,0.01419 5.43078,0.01419c1.43816,1.47228 3.11734,2.67197 4.86587,3.78234c9.13491,1.01718 18.16837,2.59812 27.4278,3.39641c14.86466,1.28153 29.82792,3.8466 44.68953,5.77808c4.03712,0.5317 8.31775,-0.28305 12.27331,0.4255c4.89712,0.87722 4.66417,2.07271 9.14486,3.02892c3.17407,0.67737 6.45291,0.70299 9.67861,1.0614l3.5447,0.39386c1.2652,0.12362 2.2539,1.19037 2.2539,2.48804c0,0.69036 -0.27982,1.31536 -0.73223,1.76777l-3.003,3.003l-0.09836,-0.09836c-0.22292,0.22748 -0.45941,0.44194 -0.7127,0.64029c-0.96006,0.75186 -2.4507,-0.02455 -3.65425,0.17157c-3.84621,0.62674 -6.48493,1.21169 -9.90366,1.42999c2.94249,-0.05446 6.0542,-0.40525 8.5922,-0.40525l4.00901,0c0,0 0,0 0,0c1.38071,0 2.5,1.11929 2.5,2.5c0,0.88153 -0.45626,1.6565 -1.14551,2.10163l-4.12799,2.75199l-0.05545,-0.08318c-0.1709,0.12834 -0.34585,0.25175 -0.52538,0.36959c-1.02607,0.67347 -2.4703,0.04967 -3.6685,0.31553c-1.5727,0.34897 -2.99679,1.2698 -4.58872,1.51665c-1.77892,0.27584 -3.60028,0.02669 -5.40046,0.03228c-7.84267,0.02434 -15.68581,0 -23.52853,0c-3.16817,0 -6.33917,0.13397 -9.5045,0c-1.27887,-0.05413 -2.77427,0.36217 -3.82184,-0.37337c-1.27854,-0.89772 -1.61549,-2.6744 -2.42324,-4.0116l-0.05854,-0.58096c-8.74936,-3.37055 -18.05575,-4.561 -27.08531,-7.45051c-5.43815,-1.74024 -9.44888,-4.21775 -13.6575,-6.99408c2.12635,2.57486 4.31886,5.08143 6.5627,7.53495c12.93601,7.29907 24.65173,16.01886 34.79419,26.97318c4.28416,4.62708 10.01656,9.44415 13.48379,14.69825c0.67566,1.02388 0.4382,2.46124 1.04013,3.53014c0.6316,1.1216 1.92969,1.76541 2.57062,2.88173l4.12339,4.80109c0.88594,0.98407 1.09951,2.45849 0.42586,3.68454c-0.8515,1.54975 -2.79811,2.11578 -4.34786,1.26427l-5.61213,-3.08357l0.08344,-0.15184l-0.51301,-0.13135c-16.11265,-17.09974 -34.25121,-32.08585 -50.11965,-49.4075c-0.24809,-0.13802 -0.49682,-0.27558 -0.74618,-0.41267c-3.62716,-1.99404 -7.02877,-4.46203 -10.87143,-6.00036c-3.29069,-1.31735 -7.01949,-1.3315 -10.27866,-2.72504c-0.29106,-0.12445 -11.09527,-6.0693 -11.57611,-6.3335l-4.4897,-2.46687c0,0 -2.80607,-1.54179 -1.26427,-4.34786l-0.00003,0c1.54179,-2.80607 4.34786,-1.26427 4.34786,-1.26427l4.4897,2.46687c3.62794,1.99337 7.07226,4.35933 10.8724,6.00082c3.25399,1.40558 6.98797,1.40769 10.27868,2.72505c0.03752,0.01501 0.34444,0.17916 0.83595,0.44561c0.16486,-0.49857 0.499,-1.01207 1.09294,-1.50015c0.88881,-0.73038 1.72068,-0.87899 2.4218,-0.76958c-1.2132,-0.80314 -2.46567,-1.62321 -3.79289,-2.45066c-2.47296,-1.54173 -5.018,-3.03947 -7.35374,-4.78529c-2.64396,-0.18507 -5.30303,-0.294 -7.98495,-0.294zM455.30425,78.05181c6.17618,0 12.35235,0 18.52853,0c0.83788,0 1.67855,0.03713 2.51981,0.0828c-0.72514,-0.39752 -1.38586,-0.98469 -2.18586,-1.17669c-4.33886,-1.04136 -9.79067,-0.62021 -14.24708,-0.92472c-0.20703,-0.01415 -4.4535,-0.30265 -7.40791,-0.50791c0.82065,0.60261 1.37105,1.51246 1.52483,2.51771c0.42263,0.00542 0.8452,0.00881 1.26767,0.00881z" fill="#ffea00" stroke="none" stroke-width="0.5"/><path d="M378.46308,30.37547c0.94111,-3.72305 4.66415,-2.78194 4.66415,-2.78194l0.86666,0.47128c1.8624,-0.2079 3.72942,-0.38237 5.59337,-0.57989c-12.87607,-3.48577 -25.68381,-7.12731 -38.65822,-10.40696c0,0 -3.72305,-0.94111 -2.78194,-4.66415c0.94111,-3.72305 4.66415,-2.78194 4.66415,-2.78194c18.1681,4.5925 36.00965,9.89464 54.16834,14.48477l4.46766,1.12933c2.05618,0.51975 3.3017,2.60797 2.78194,4.66415c-0.43313,1.7135 -1.9555,2.86403 -3.64086,2.89913l-7.58672,0.33301l-0.02172,-0.4947c-5.87903,1.40351 -11.70877,2.33283 -18.13389,3.05014l-3.60101,-0.65806c0,0 -3.72305,-0.94111 -2.78194,-4.66415z" fill="#ffea00" stroke="none" stroke-width="0.5"/><path d="M254.63061,345.30434c-5.62543,-2.95584 -11.1628,-5.96735 -16.96077,-8.64706c-9.31245,-4.30404 -18.65624,-8.03442 -27.12344,-13.88381c0,0 -3.15556,-2.18843 -0.96712,-5.34399c2.18843,-3.15556 5.34399,-0.96712 5.34399,-0.96712c8.07272,5.62248 17.10728,9.12771 26.01036,13.24259c7.74023,3.57742 15.00984,7.73441 22.63873,11.57197l6.25749,3.14922c1.61728,0.77228 2.52034,2.60114 2.06427,4.40534c-0.51975,2.05618 -2.60797,3.3017 -4.66415,2.78194l-9.67994,-2.44689c0,0 -3.1783,-0.80341 -2.91941,-3.86222z" fill="#ffea00" stroke="none" stroke-width="0.5"/><path d="M527.00876,63.50166c1.32358,0.75981 2.87382,1.21833 3.97073,2.27944c1.37217,1.3274 1.89975,3.36834 3.25628,4.71172c0.96731,0.95793 2.69666,0.96178 3.54661,2.02523c4.81121,6.01975 7.12546,15.57785 9.69207,22.69858l1.74628,2.85534c0.60838,0.95464 0.69062,2.20314 0.10706,3.26525c-0.69356,1.26228 -2.11362,1.87194 -3.454,1.59457l-3.91137,-0.71445l0.01696,-0.09282c-0.44968,-0.08897 -0.8859,-0.23361 -1.30416,-0.45254c-1.35979,-0.71177 -2.05761,-2.13131 -2.68159,-3.6298c-3.69147,0.76193 -4.50452,-2.94245 -4.50452,-2.94245l-0.11521,-0.91596c-1.69734,-3.75957 -3.97093,-7.23212 -5.87732,-10.89011c-2.46401,-4.728 -3.70513,-9.12861 -7.62515,-12.98457c0,0 -2.70829,-2.72248 0.01419,-5.43078c1.26386,-1.25727 2.52467,-1.34416 3.51287,-1.07637c1.5586,-1.42759 3.61027,-0.3003 3.61027,-0.3003z" fill="#ffea00" stroke="none" stroke-width="0.5"/><path d="M545.75421,309.50637c1.56233,-6.23435 4.56432,-12.33748 6.7152,-18.35996c3.86766,-10.82945 8.24459,-21.6112 11.54919,-32.62695c0.16488,-0.54963 0.32932,-1.09894 0.49341,-1.64795c-0.12374,-0.4234 -0.26355,-0.83995 -0.4425,-1.23912c-1.97688,-4.40979 -4.87038,-8.65928 -7.2359,-12.87561c-0.15892,-0.28326 -4.94016,-8.79692 -5.00659,-8.95061c-1.35655,-3.13861 -2.35715,-6.52075 -3.2069,-9.97264c-0.63957,-0.91206 -0.67671,-1.99056 -0.6221,-2.64288c-0.20273,-0.89624 -0.39891,-1.79418 -0.59203,-2.69084c-0.32392,0.67774 -0.59092,1.34552 -0.77124,1.99213c-1.50788,5.40729 -1.6904,11.31976 -3.13674,16.82081c-0.27066,1.02943 -3.57508,13.63231 -3.68541,13.75644c-1.76667,1.98798 -4.88536,2.11266 -7.38789,3.01296c-3.49077,1.25584 -9.93266,4.35454 -12.03012,-2.39569c-0.57881,-1.86278 4.12738,-9.10894 5.11168,-11.23782c4.27996,-9.25695 8.83922,-19.45817 11.59091,-29.21885c1.02136,-3.5876 1.5994,-7.33508 3.08358,-10.75726c0.5073,-1.16972 1.09644,-2.31792 1.73489,-3.45344c-0.73167,-2.61508 -1.41784,-5.2409 -1.97903,-7.93075c-1.85692,-8.90043 -1.54678,-18.41029 -1.54678,-27.45545c0,0 0,-2.5 2.5,-2.5c2.5,0 2.5,2.5 2.5,2.5c0,8.68428 -0.36441,17.87914 1.43833,26.41969c0.21946,1.03968 0.45685,2.06876 0.70775,3.09071c1.9839,-3.11749 3.91006,-6.25618 5.07367,-9.60747c0.84584,-2.43607 1.59352,-4.97324 2.2732,-7.5631c-0.19497,-4.62482 -0.58783,-9.17403 -1.17929,-13.57055c0,0 -0.50891,-3.80629 3.29738,-4.3152c0.70374,-0.0941 1.29476,-0.04067 1.79067,0.10891c0.19731,-0.96714 0.39462,-1.92635 0.59353,-2.87507l0.16151,-0.20445l-0.08296,-0.03127l2.23948,-5.94026c0.05652,-0.15749 0.12614,-0.31257 0.20927,-0.46387c0.8515,-1.54975 2.79811,-2.11578 4.34786,-1.26427c1.39768,0.76796 1.99522,2.42662 1.47441,3.88158l-1.38087,4.09452c0.79202,3.44699 3.01658,6.46044 3.9597,9.87829c0.94928,3.44015 2.70422,9.98805 3.02063,13.77906c0.53162,6.36959 -1.72761,12.19874 -2.4006,18.41568c-0.5867,5.41982 0.25961,10.24105 1.01278,15.58335l0.96366,3.31405l-1.23852,0.36013l-0.25947,3.32061c-0.90294,-0.57963 -1.8059,-1.15927 -2.70885,-1.7389l-1.21759,1.12666l-5.50113,-5.94515c0,0 -2.17451,-2.35003 0.17552,-4.52454l0.00004,-0.00001c0.96098,-0.88921 1.89262,-1.02183 2.65822,-0.86795c-0.44204,-3.7155 -0.66362,-7.36784 -0.24958,-11.32946c0.58844,-5.63047 2.91959,-11.1905 2.40976,-16.93455c-0.32498,-3.6614 -1.89216,-9.42143 -2.82588,-12.81378c-0.07236,-0.26289 -0.2098,-0.66077 -0.39248,-1.15396c-0.44159,2.15326 -0.89968,4.32091 -1.39015,6.47627c1.03157,16.85514 -0.47907,34.80374 -4.46085,50.65409l-0.37645,1.48922c0,0 -0.36321,1.43687 -1.53099,2.29969c0.66693,2.43475 1.44387,4.80488 2.41342,7.03694c1.29408,2.97918 3.18997,5.65905 4.77924,8.49179c1.72833,3.0806 3.72782,6.1835 5.46717,9.34968c2.36045,-7.91033 4.74655,-15.77142 7.47994,-23.62991c1.64775,-4.73728 3.21666,-9.5137 4.94722,-14.22127c0.89232,-2.42735 1.46834,-4.51643 2.75018,-6.26365c0.03335,-0.63883 0.06494,-1.27687 0.09466,-1.9139v-2.95934c0,-1.38071 1.11929,-2.5 2.5,-2.5c1.38071,0 2.5,1.11929 2.5,2.5v4.5045l-0.0705,0c-0.00085,0.01685 -0.00169,0.0337 -0.00254,0.05055c0.01329,0.14003 0.02271,0.28075 0.02794,0.42222c0.00109,0.02942 -0.02068,0.11009 -0.06144,0.23329c-0.32941,6.34384 -0.81143,12.77131 -1.40712,19.0598c-0.83519,8.8169 -3.66545,17.85801 -5.48886,26.51922c-0.05192,0.24661 -2.06917,9.83965 -2.10587,9.96839c-0.36774,1.28992 -1.22421,2.43315 -1.44213,3.75664c-0.26833,1.62969 0.5923,3.41017 0.00774,4.9549c-0.04744,0.12537 -0.09761,0.24934 -0.15031,0.37202l0.0543,0.0181l-1.48327,4.44981c-0.31417,1.02156 -1.26534,1.76412 -2.38994,1.76412c-1.38071,0 -2.5,-1.11929 -2.5,-2.5l0,-2.89643c-0.27887,-2.49626 0.40436,-5.25229 -0.72051,-7.49652c-0.26876,-0.5362 -0.7032,-0.94769 -1.1847,-1.3251c-3.21785,10.20774 -7.24265,20.23358 -10.83803,30.30064c-2.58375,7.2345 -6.91423,15.01886 -7.3847,22.58928l-0.36124,4.9659c-0.08272,1.30594 -1.16812,2.33954 -2.49493,2.33954c-0.50517,0 -0.97535,-0.14983 -1.36851,-0.40749c0.08189,0.64557 -0.03164,1.32191 -0.36757,1.93626l-1.77764,3.25375l-0.11242,-0.06142c-0.05204,0.16619 -0.10921,0.33113 -0.17212,0.49469c-0.08597,0.22355 -0.46921,0.63918 -1.02955,1.16276l-0.46927,0.734c-4.63609,7.25146 -8.71084,15.44652 -14.53728,21.82041l0.00001,-0.00001c-6.46639,7.07395 -15.2652,12.92907 -22.60236,19.10556c-2.23101,1.87808 -4.51994,3.76712 -7.01242,5.28458c-5.04847,6.78101 -10.19242,13.50825 -15.45977,20.20549l-1.27042,1.98766c-1.18211,4.02031 -2.26129,8.07927 -3.48393,12.15089c-0.5969,1.98778 -1.24852,3.9599 -1.79307,5.96265c-0.45364,1.66841 -0.2201,3.62184 -1.20022,5.04617c-0.98941,1.43784 -2.81103,2.0802 -4.3141,2.96737c-2.33229,1.37659 -4.48141,3.52435 -7.17416,3.81343c-3.09801,0.33258 -9.31501,-7.09304 -9.9185,-8.39686c-0.21449,-0.4634 -1.66791,-13.39576 -1.66364,-14.18232c0.01816,-3.34143 1.86689,-6.49441 1.93898,-9.8351c0.13046,-6.04472 -2.19133,-5.97281 -2.78879,-12.25187c-0.15112,-1.58825 0.5171,-3.14868 0.77565,-4.72302c0,0 0.57531,-3.14962 3.72494,-2.57431c3.14962,0.57531 2.57431,3.72494 2.57431,3.72494c-1.20051,5.73059 2.20501,10.01493 2.11634,15.93906c-0.05078,3.39291 -1.95213,6.59931 -1.94376,9.99259c0.00488,1.97414 0.48386,3.91896 0.67631,5.88372c0.17596,1.79633 -0.2864,3.74058 0.42876,5.39777c2.74299,6.35621 4.35364,4.0729 7.91075,1.75028c0.73399,-0.47925 1.8983,-0.39222 2.37595,-1.12725c0.5327,-0.81976 0.03427,-1.96947 0.25522,-2.92181c0.49574,-2.13676 1.25615,-4.20334 1.8854,-6.30465c0.53028,-1.77087 1.03429,-3.54015 1.53169,-5.30542c-2.90704,-2.07251 -0.93674,-5.15091 -0.93674,-5.15091l4.03141,-6.29038c0.14925,-0.19026 0.29841,-0.38053 0.44749,-0.57084c0.44181,-1.34408 0.90666,-2.68246 1.40375,-4.01401c-0.85344,0.33364 -1.84325,0.30041 -2.70915,-0.17536c-1.54975,-0.8515 -2.11578,-2.79811 -1.26427,-4.34786l2.46687,-4.4897c3.42498,-6.23348 6.4227,-15.53248 13.13741,-18.88143c2.1608,-1.07769 4.57543,-1.589 6.94131,-2.07175c1.7013,-0.34714 3.63907,0.36977 5.19333,-0.4043c0.90697,-0.45171 0.55764,-2.01479 1.21391,-2.78677c0.92892,-1.09267 2.20652,-1.82597 3.32486,-2.73002c4.12163,-5.82351 8.19483,-11.70284 12.23466,-17.6544c0,0 2.15678,-3.17727 5.33405,-1.02053c0.88942,0.60375 1.36085,1.28746 1.57862,1.95906c3.55079,-2.71674 7.06825,-5.51341 10.49668,-8.33366c0.7655,-0.6297 1.26464,-1.7683 2.12682,-2.16117l1.98793,-3.10937c0.89462,-1.42635 2.75818,-1.92348 4.25269,-1.10232c0.18165,0.09981 0.34979,0.21467 0.50372,0.34216c-0.00007,-0.00607 -0.00012,-0.01215 -0.00014,-0.01824l-0.0414,-8.43822c0,0 -0.00821,-1.67376 1.35834,-2.28894zM569.65407,257.1269c0.10493,0.27219 0.23012,0.53511 0.3862,0.78404c0.67906,1.08304 1.92232,1.74712 2.83339,2.64344c0.05004,-0.17085 0.10016,-0.34423 0.15012,-0.52032c0.89263,-3.14636 1.34057,-6.40222 2.01434,-9.6026c1.78212,-8.46505 4.6234,-17.36354 5.40594,-25.98186c0.05639,-0.621 0.11211,-1.24325 0.16706,-1.86656c-0.57966,1.69827 -1.15837,3.39648 -1.74729,5.08964c-3.40353,9.78515 -6.26102,19.5709 -9.20975,29.45421zM490.76848,372.19205c2.06578,-2.77 4.1159,-5.54848 6.15208,-8.33729c-1.64384,0.20121 -3.25907,0.48922 -4.73913,1.16256c-2.88484,1.31241 -5.16714,5.22462 -7.05445,9.11712c1.81284,-0.73848 3.90746,-1.32579 5.6415,-1.94239zM522.49948,347.20462c1.98238,-2.16502 3.74854,-4.57627 5.40141,-7.0956c-2.83869,2.04408 -5.67166,4.10294 -8.26544,6.32049c-0.96604,0.82592 -1.86778,1.71952 -2.74067,2.64372c-1.9462,2.79617 -3.90192,5.57865 -5.86894,8.34897c4.0982,-3.22072 8.1126,-6.54693 11.47364,-10.21759zM543.3001,212.82671c0.69983,-1.15054 1.43087,-2.28437 2.09024,-3.36454c-0.20875,-0.83451 -0.425,-1.66212 -0.64644,-2.48438c-0.50816,1.93988 -0.90353,3.92017 -1.4438,5.84892zM550.69085,206.56767c0.1097,0.06028 0.21274,0.12248 0.30949,0.18636c0.7963,-4.97645 1.35845,-10.07833 1.68556,-15.2052c-1.62013,2.64901 -3.37206,5.25167 -4.86679,7.9337c0.63838,2.20912 1.28297,4.42984 1.88718,6.69861c0.30841,0.07113 0.63678,0.19544 0.98456,0.38653zM539.86314,222.23467c-1.23703,2.91576 -2.54644,5.80599 -3.75745,8.85772c-2.60497,6.56452 -4.42972,13.77429 -9.5623,18.80612c-0.17029,0.16695 0.34513,-0.34094 0.55895,-0.44654c1.04874,-0.5179 2.10074,-1.0469 3.21091,-1.41515c1.53633,-0.50962 3.63548,0.00694 4.70279,-1.20996c1.0827,-1.23443 0.31159,-3.2755 0.64201,-4.88389c0.41203,-2.00559 2.79088,-10.19075 3.23654,-12.27563c0.45553,-2.13109 0.65115,-4.91235 0.96855,-7.43265z" fill="#ffea00" stroke="none" stroke-width="0.5"/><path d="M338.64128,419.55715c0.19269,-3.83532 4.02799,-3.64264 4.02799,-3.64264l0.15192,0.00762c9.16668,0.46183 17.18074,0.35784 26.10977,2.59289c0,0 3.72305,0.94111 2.78194,4.66415c-0.94111,3.72305 -4.66415,2.78194 -4.66415,2.78194c-8.38017,-2.14115 -15.97166,-1.93544 -24.61291,-2.36836l-0.15192,-0.00762c0,0 -3.83532,-0.19269 -3.64264,-4.02799z" fill="#ffea00" stroke="none" stroke-width="0.5"/><path d="M316.35113,366.40675c-0.94111,3.72305 -4.66415,2.78194 -4.66415,2.78194l-6.70149,-1.69398c0,0 -3.72305,-0.94111 -2.78194,-4.66415c0.94111,-3.72305 4.66415,-2.78194 4.66415,-2.78194l6.70149,1.69398c0,0 3.72305,0.94111 2.78194,4.66415z" fill="#ffea00" stroke="none" stroke-width="0.5"/><path d="M350.50999,-21.62659c-6.10216,7.00076 -12.13716,14.06155 -18.20791,21.08945c-5.52183,6.39243 -10.77364,13.98097 -17.01524,19.66182c-1.61053,1.46583 -3.65548,2.38627 -5.3274,3.78166c-3.26566,2.72554 -5.89233,6.15192 -9.09707,8.94886c-6.11025,5.33274 -13.15148,9.88642 -19.63722,14.75763c-1.22457,0.91972 -2.45712,1.83233 -3.69228,2.74319c1.05651,6.70919 0.60038,13.40046 -2.36985,18.96671l-0.64512,3.5318c-0.05632,0.35512 -0.17387,0.70674 -0.35698,1.04c-0.8515,1.54975 -2.79811,2.11578 -4.34786,1.26427c-0.98945,-0.54365 -1.57792,-1.53371 -1.65247,-2.58186l-0.26313,-3.06702c-0.84293,-1.56062 -1.60414,-3.15325 -2.11087,-4.84726c-0.09172,-0.30664 -0.41672,-2.28992 -0.78698,-4.62461c-0.84014,0.96318 -1.62113,2.02848 -2.81247,2.26305c-11.39504,2.24374 -8.63562,-1.87977 -6.87323,-9.87772c0.44651,-2.02636 1.35388,-3.9274 1.8742,-5.93607c0.46252,-1.7856 0.2375,-3.78314 1.06978,-5.42925c0.04048,-0.08005 0.08156,-0.15974 0.12321,-0.23908l-0.03941,-0.01486l0.26064,-0.69137c-1.34163,-3.36626 -2.85412,-6.63409 -4.69511,-9.69484c0,0 -1.96713,-3.29807 1.33093,-5.26519c3.29807,-1.96713 5.26519,1.33093 5.26519,1.33093c1.19749,2.02245 2.26602,4.1164 3.24417,6.25922c0.20699,0.00962 0.41444,0.03947 0.61942,0.09041c-0.6369,-1.07443 -1.29029,-2.0916 -1.9489,-3.0392c0,0 -1.82032,-2.63393 0.81362,-4.45424c2.63393,-1.82032 4.45424,0.81362 4.45424,0.81362c3.26108,4.74297 6.34249,10.89571 8.28426,17.39698c2.17657,-1.6344 4.35319,-3.26872 6.52961,-4.90335c4.67376,-3.5103 9.78323,-6.79909 14.18596,-10.64575c1.63722,-1.43043 7.6214,-7.715 9.16761,-9.00868c1.60391,-1.34197 3.57958,-2.20793 5.13082,-3.61047c6.05436,-5.47399 11.13016,-12.92111 16.47206,-19.10525c5.58245,-6.46262 11.1348,-12.95297 16.73672,-19.39907c-0.59612,-0.73169 -1.07164,-1.89618 -0.21974,-3.44665c1.54179,-2.80607 4.34786,-1.26427 4.34786,-1.26427l0.01998,0.03498c1.99718,-2.12895 4.06664,-4.19982 5.76129,-6.56763c2.43721,-4.43572 4.87441,-8.87145 7.31162,-13.30718c0.82228,-1.49657 1.02126,-3.58081 2.46687,-4.4897l1.85015,-3.36728v0c0.8515,-1.54975 2.79811,-2.11578 4.34786,-1.26427c1.54975,0.8515 2.11578,2.79811 1.26427,4.34786l-1.85015,3.36728c-0.36043,1.441 -1.33823,2.63988 -2.12785,3.91255c-2.48262,4.7285 -4.80595,9.88248 -7.82438,14.20054c-0.17731,0.3227 -0.35464,0.64543 -0.53194,0.96814c-0.66234,1.20547 -4.55034,8.65461 -5.74818,9.2067c-0.85626,0.39464 -1.79201,0.34357 -2.75058,0.16446zM270.49098,46.66541c-0.85538,-3.51259 -2.13626,-6.96888 -3.63762,-10.14521l0.05675,1.68094c0.73668,2.49274 1.52388,5.01647 2.18857,7.55764c0.1771,0.51809 0.35373,1.03622 0.53036,1.55414c0.2873,-0.21585 0.57462,-0.4317 0.86194,-0.64753zM260.49024,54.52131c0.4384,-0.49277 0.89634,-0.96751 1.40033,-1.39015c0.42163,-0.35356 0.85235,-0.69569 1.28873,-1.03067c-0.18782,-0.55657 -0.37489,-1.11414 -0.56191,-1.67226c-0.56198,1.42592 -1.28045,2.80138 -2.12717,4.09308z" fill="#ffea00" stroke="none" stroke-width="0.5"/><path d="M242.19884,259.3508c0.7003,0.68681 1.49769,1.9658 0.5097,3.76394c-1.54179,2.80607 -4.34786,1.26427 -4.34786,1.26427l-2.74939,-3.88113c0.2333,-1.61292 1.57361,-10.95686 1.69908,-11.38759c0.28132,-0.96573 1.75417,-1.49759 1.68807,-2.50128c-0.10321,-1.56742 -1.75002,-2.67954 -2.1296,-4.20381c-0.55724,-2.23773 -0.441,-4.59114 -0.63282,-6.88921c-0.20517,-2.45816 -0.39927,-9.97719 -4.22,-11.25277c-1.17318,-0.39167 -2.24475,1.04417 -3.40004,1.48584c-1.35025,0.51621 -2.78794,0.79947 -4.10955,1.38513c-3.54568,1.57121 -7.41486,2.75871 -10.3764,5.26269c-0.89808,0.75933 -0.85812,2.24182 -1.63012,3.12907c-3.74434,4.30343 -8.90656,7.53005 -12.48439,12.11091c-1.27348,1.6305 -1.83105,3.79481 -3.28656,5.26508c-0.03182,0.03215 -0.06377,0.06418 -0.09582,0.09609l0.01735,0.01304l-3.81799,5.08201c-0.93408,1.28555 -2.70073,1.70581 -4.12988,0.92057c-1.40847,-0.77388 -2.0044,-2.45228 -1.46215,-3.91522l1.3592,-3.87601c2.11657,-6.03578 3.84864,-12.53566 6.45467,-18.37371c3.29686,-7.38564 7.93665,-14.46741 11.83521,-21.56279c7.81173,-14.2174 15.62347,-28.43478 23.43521,-42.65218c0,0 1.54179,-2.80607 4.34786,-1.26427c2.80607,1.54179 1.26427,4.34786 1.26427,4.34786c-7.81173,14.2174 -15.62347,28.43478 -23.43521,42.65218c-3.81278,6.9393 -8.37588,13.86671 -11.59999,21.08939c-0.522,1.16938 -1.00719,2.3667 -1.46658,3.58213c0.06809,-0.07 0.13536,-0.13944 0.20173,-0.20832c2.51224,-2.6077 5.57477,-4.67067 7.94526,-7.40787c0.90726,-1.0476 1.00708,-2.71644 2.07018,-3.60549c0.44463,-0.37184 11.46768,-6.19031 12.33857,-6.57376c1.81314,-0.79835 10.56789,-3.5411 11.73686,-3.15276c7.23309,2.4028 8.36638,10.94839 8.88836,16.87588c0.17219,1.95544 0.01697,3.95895 0.46189,5.87085c0.49088,2.10946 2.25288,3.90543 2.3169,6.07029c0.04618,1.5617 -1.59197,2.72846 -2.01222,4.23328c-0.74378,2.66327 -0.89842,5.44861 -1.18379,8.20773z" fill="#ffea00" stroke="none" stroke-width="0.5"/><path d="M338.50943,320.13634c1.54179,-2.80607 4.34786,-1.26427 4.34786,-1.26427l3.36728,1.85015c2.38158,1.66522 6.08833,2.28847 7.14474,4.99567c2.06941,5.30313 -5.80016,8.35573 -8.31872,9.82695c-2.20907,1.16287 -4.20105,2.90038 -6.6272,3.48862c-1.59051,0.38563 -3.22874,-0.56071 -4.85907,-0.70372c-7.68919,-0.6745 -14.66256,-2.47735 -22.25135,-4.01982c-1.88019,-0.38216 -3.75328,-1.00424 -5.67177,-0.98057c-2.22506,0.02745 -4.36207,1.32283 -6.57908,1.13171c-0.96772,-0.08343 -11.29971,-3.94245 -12.69011,-4.34493c-5.61857,-1.6265 -11.74473,-1.7496 -17.29038,-3.61032c-2.10206,-0.70529 -4.09134,-1.73768 -6.01396,-2.84203c-1.14923,-0.66011 -1.8349,-2.27854 -3.15232,-2.42305c-0.76386,-0.08377 0.79247,1.39592 0.79368,2.16435c0.00396,2.51398 -1.01208,7.63755 -1.52353,10.44279c0,0 -0.57531,3.14962 -3.72494,2.57431c-3.14962,-0.57531 -2.57431,-3.72494 -2.57431,-3.72494c0.6208,-3.39195 0.68577,-6.88374 1.48941,-10.23708c0.55814,-2.32896 0.15992,-5.85819 2.36911,-6.78287c2.79084,-1.16815 5.9591,1.14408 8.8313,2.09477c3.82391,1.2657 7.50296,3.05534 11.44811,3.8678c3.68944,0.7598 7.44356,1.26209 11.06268,2.30669c3.9076,1.12786 7.42376,3.84381 11.48072,4.13104c2.03883,0.14435 3.97879,-1.14369 6.0227,-1.15147c2.81485,-0.01073 10.47907,1.91266 13.30355,2.56487c5.57378,1.28704 9.76994,1.8568 15.37168,2.47383c1.05976,0.11674 2.07764,1.02221 3.10891,0.75173c1.71638,-0.45019 3.03426,-1.84064 4.55139,-2.76095c1.41555,-0.74401 2.79532,-1.56053 4.24667,-2.23202c0.32383,-0.14982 1.3724,-0.06903 1.04803,-0.21768c-1.28619,-0.58938 -2.71968,-0.78099 -4.07952,-1.17149l-3.36728,-1.85015c0,0 -2.80607,-1.54179 -1.26427,-4.34786z" fill="#ffea00" stroke="none" stroke-width="0.5"/><path d="M410.33923,315.4198c3.19933,0.12411 3.07522,3.32343 3.07522,3.32343l-0.79765,0.75312c0.24925,0.32278 0.53738,0.62802 0.83815,0.92761c1.21822,-3.92879 2.09523,-7.8647 3.20684,-12.02558c0.75881,-2.84026 3.62848,-5.6398 2.65008,-8.4121c-0.52972,-1.50098 -2.62067,-1.80728 -3.93101,-2.71093c0,0 -2.4492,-2.06216 -0.38704,-4.51136c2.06216,-2.4492 4.51136,-0.38704 4.51136,-0.38704c1.95526,1.8459 5.00904,2.98893 5.8658,5.53773c0.87149,2.59264 -0.72269,5.42733 -1.27987,8.10519c-1.47374,7.08296 -3.34311,14.56845 -6.36523,21.13406l0.3379,3.93859c0.06254,0.62237 -0.05624,1.26945 -0.38021,1.85908c-0.8515,1.54975 -2.79811,2.11578 -4.34786,1.26427c-0.77488,-0.42576 -1.30383,-1.12529 -1.53261,-1.91209l-1.56613,-5.38596c-0.85305,-1.17311 -1.73076,-2.32746 -2.64555,-3.45281l-0.57564,-4.97001c0,0 0.12411,-3.19933 3.32343,-3.07522z" fill="#ffea00" stroke="none" stroke-width="0.5"/><path d="M480.11973,38.46916c-3.16992,0.45021 -3.62013,-2.71971 -3.62013,-2.71971l-0.76944,-5.78217c-5.69951,-10.20513 -14.02958,-19.08494 -18.94608,-29.72626l-3.37434,-5.36689c-0.62882,-0.95897 -0.72029,-2.22502 -0.12959,-3.3001c0.73374,-1.33541 2.2806,-1.94039 3.68602,-1.53737l1.96324,0.51689c-3.1936,-2.58798 -6.34971,-5.24387 -9.48772,-7.71402c0,0 -2.51441,-1.98213 -0.53229,-4.49654c1.98213,-2.51441 4.49654,-0.53229 4.49654,-0.53229c5.88879,4.64921 11.83462,9.94853 17.99114,14.18078c2.57057,1.76713 5.32466,3.36081 8.14346,4.87713c2.19958,0.96879 4.33513,2.02013 6.37011,3.1359c1.87163,1.0262 4.00246,1.68178 5.61213,3.08357l0.8682,0.47702c0.08526,0.04672 0.17043,0.09351 0.25548,0.14036l3.36603,1.84947c1.54975,0.8515 2.11578,2.79811 1.26427,4.34786c-0.8515,1.54975 -2.79811,2.11578 -4.34786,1.26427l-3.64328,-2.0018c-0.28527,-0.1563 -0.5717,-0.31193 -0.85918,-0.46695c-0.48557,-0.07753 -1.97681,-0.93063 -3.62717,-1.90834c-2.60209,-1.34397 -5.246,-2.67447 -7.84644,-4.06095c-4.62079,-1.89803 -9.48651,-3.63952 -14.3367,-4.71651c2.1898,2.422 3.32393,5.39971 5.35905,8.69934c4.46564,7.24033 9.80084,13.71358 13.83289,21.23963l1.03138,6.89754c0,0 0.45021,3.16992 -2.71971,3.62013z" fill="#ffea00" stroke="none" stroke-width="0.5"/><path d="M180.34618,334.06197c1.54179,-2.80607 4.34786,-1.26427 4.34786,-1.26427l3.36728,1.85015c5.77892,3.17523 11.81615,6.21289 17.77655,9.41092c-1.05515,-2.30174 -2.14716,-4.59347 -3.35391,-6.84295c-2.60667,-4.85905 -4.13559,-9.77014 -7.94129,-13.80707c0,0 -2.17451,-2.35003 0.17552,-4.52454c2.35003,-2.17451 4.52454,0.17552 4.52454,0.17552c6.3637,6.9802 10.72156,17.49334 14.34882,26.2128c0.62621,1.5053 1.19097,2.86055 1.75014,4.13508c4.56281,2.72861 8.9654,5.65703 13.04295,8.93176c1.01831,0.81782 1.5908,2.12079 2.64741,2.88847c6.13294,4.45588 13.58174,7.11908 19.83267,11.52663c2.18013,1.53723 6.90982,4.33318 8.49563,7.10118l2.70042,2.91838c0.95287,0.98264 1.19973,2.50821 0.50618,3.77049c-0.8515,1.54975 -2.79811,2.11578 -4.34786,1.26427l-4.4897,-2.46687c-2.35278,-1.29323 -7.3685,-4.16974 -10.0801,-5.25421c-7.48472,-2.99339 -15.2348,-4.53781 -21.88839,-9.43546c-2.37445,-1.74782 -4.68952,-5.51802 -6.28505,-7.8307c-1.87656,-2.72004 -3.4532,-5.57326 -4.89743,-8.49017c-8.31924,-5.02261 -17.10042,-9.40093 -25.60068,-14.07139l-3.36728,-1.85015c0,0 -2.80607,-1.54179 -1.26427,-4.34786zM222.65016,362.00389c1.01639,1.45298 2.19092,2.9909 3.05346,3.60263c2.15171,1.52601 4.42436,2.68698 6.76355,3.66818c-2.59173,-1.42806 -5.20032,-2.87295 -5.37785,-3.00114c-1.13007,-0.81605 -1.76913,-2.18107 -2.85371,-3.05667c-0.51816,-0.41832 -1.04746,-0.82155 -1.58547,-1.21297z" fill="#ffea00" stroke="none" stroke-width="0.5"/><path d="M112.91757,255.72409c-2.49961,-0.04434 -2.45527,-2.54395 -2.45527,-2.54395l0.02349,-1.3243c0.0427,-1.79973 -0.19755,-3.62865 0.12809,-5.39918c0.65183,-3.544 2.59719,-6.73495 4.23125,-9.85929c2.31726,-4.43061 4.64007,-8.85832 6.9601,-13.28747c2.29263,-4.37684 4.78167,-8.71153 6.90385,-13.17306c1.06759,-2.24443 1.9942,-5.81174 3.13347,-7.75373c2.37002,-4.03988 6.54341,-7.3357 9.38281,-11.06021c8.01363,-10.51166 14.97843,-22.03486 22.41323,-32.96716c1.84819,-2.71762 3.33642,-5.6901 5.3912,-8.25508c0.00653,-0.00815 0.01306,-0.0163 0.01959,-0.02444c-0.01427,-0.15244 -0.02464,-0.30433 -0.02892,-0.45534c0,0 0,-2.5 2.5,-2.5c0.01848,0 0.03682,0.00014 0.05503,0.00041c0.34123,-0.38248 0.68419,-0.76352 1.027,-1.14467l1.03254,-3.09762c0.31417,-1.02156 1.26534,-1.76412 2.38994,-1.76412c1.38071,0 2.5,1.11929 2.5,2.5c0,0.18573 -0.02025,0.36673 -0.05867,0.54091l-0.5108,2.55398c-1.38973,6.82883 -4.51149,12.6375 -7.44823,18.93052c-2.47721,5.3083 -5.2588,10.64395 -7.10096,16.22449c-0.8075,2.44619 -0.76883,5.11337 -1.5231,7.57649c-1.29438,4.22689 -3.94666,8.46222 -5.82005,12.4588c-3.53695,7.54549 -7.0739,15.09098 -10.61085,22.63647c-0.3263,0.6961 -0.65152,1.39004 -0.97726,2.08182c-0.37711,1.11366 -0.66617,1.96431 -0.73883,2.17898c-0.02543,0.03849 -0.05099,0.0769 -0.07667,0.11526c0.20182,0.28971 0.40182,0.59035 0.60018,0.90303c1.19124,1.87779 1.67506,4.12484 2.66847,6.11439c0.04277,0.08567 0.0854,0.17135 0.12787,0.25705c0.37524,-0.16383 0.83024,-0.2667 1.38194,-0.27611c3.20127,-0.05463 3.2559,3.14664 3.2559,3.14664l0.04096,3.33148c0.10313,0.46332 0.71676,3.20234 1.34003,6.0206c0.18208,-1.68448 0.01958,-3.40636 0.0754,-5.10455c0,0 0.12411,-3.19933 3.32343,-3.07522c3.19933,0.12411 3.07522,3.32343 3.07522,3.32343c-0.10055,2.28995 0.10468,4.61401 -0.30165,6.86987c-0.35096,1.94847 -1.54921,3.6719 -1.94651,5.61145c-0.66395,3.24135 -0.86829,6.75197 -0.89379,10.25018c0.85747,5.50511 1.35175,11.12327 1.57571,16.87766l0.8786,6.1863c0.10288,0.67207 -0.00661,1.38209 -0.35931,2.02402c-0.8515,1.54975 -2.79811,2.11578 -4.34786,1.26427c-0.77488,-0.42576 -1.30383,-1.12529 -1.53261,-1.91209l-1.78795,-6.14878l0.03443,-0.01001c-0.02947,-0.06527 -0.05852,-0.13079 -0.08712,-0.19653c-0.0112,-0.02574 -0.06907,-0.37956 -0.15847,-0.95653c-2.28101,-0.97971 -1.70343,-3.587 -1.70343,-3.587l0.00003,-0.00001l0.70314,-3.1124c-0.4353,-2.9571 -0.82663,-5.6444 -0.827,-5.65504c-0.05139,-1.54439 0.78121,-3.05894 0.61311,-4.59502c-0.23092,-2.1102 -1.53604,-4.00499 -1.78492,-6.11315c-0.15295,-1.29565 0.32374,-2.59352 0.46203,-3.89333c-1.2059,-4.8774 -2.78505,-9.67209 -4.84416,-14.35054c-0.98886,-2.24676 -1.96721,-4.51329 -3.12603,-6.67716c-0.47936,0.89781 -0.97176,1.79184 -1.48096,2.68211c-0.18999,0.33217 -0.38436,0.66199 -0.58002,0.9911c-0.00573,0.45616 -0.0353,0.90722 -0.17682,1.33195c-0.24141,0.72455 -0.56359,1.41596 -0.91535,2.09524c0.16797,1.05561 0.39232,2.10237 0.68878,3.13746c-0.42595,7.9165 -1.79379,16.22488 -1.49384,24.13409c0.12899,3.40119 1.71038,6.60875 2.12837,9.98662c0.01677,0.13555 0.50028,12.76104 0.50848,13.06928c0.01447,0.54502 0.09204,1.34428 0.16065,2.2821c0.46571,0.32133 0.96021,0.56552 1.51919,0.64213c1.03362,0.14168 1.72009,-1.18112 2.58014,-1.77167l-0.09307,-0.94726c0,0 1.54179,-2.80607 4.34786,-1.26427c2.80607,1.54179 1.26427,4.34786 1.26427,4.34786l-2.55993,3.54243c-1.86996,0.832 -3.56924,2.65361 -5.60985,2.49601c-0.62108,-0.04797 -1.2146,-0.19953 -1.78982,-0.41902c-0.57278,2.05503 -1.8017,3.68648 -4.28949,3.92653c-5.65146,0.54532 -8.9341,-5.94865 -12.29845,-8.83622c-1.15316,-0.98973 -2.96133,-1.17092 -3.89417,-2.37056c-1.08775,-1.39886 -1.61961,-3.24058 -1.95094,-5.20493c-0.66244,-0.47613 -2.23707,-1.91549 -0.99642,-4.17347c0.12709,-0.23131 0.26278,-0.43307 0.40477,-0.60859c-0.18448,-1.51725 -0.41925,-2.95417 -0.87022,-4.16125c-1.36755,-3.66039 -3.94083,-6.75211 -5.74738,-10.21695c0,0 -1.47957,-2.83938 1.35981,-4.31893c2.83938,-1.47957 4.31893,1.35981 4.31893,1.35981c1.91556,3.6783 4.59626,6.98857 6.04428,10.87476c0.06352,0.17048 0.86442,4.1958 1.45873,7.23205c3.3862,1.82553 6.80337,3.62103 10.16391,5.4974c-0.06521,-3.40294 0.03126,-6.81679 -0.38628,-10.19082c-0.43111,-3.48375 -2.00784,-6.80005 -2.15988,-10.30708c-0.27012,-6.2311 0.48941,-12.76607 1.09984,-19.11612c-1.31466,-0.0736 -2.35802,-1.16297 -2.35802,-2.49604c0,-0.34761 0.07094,-0.67865 0.19914,-0.97943l1.83244,-4.59108c0.00095,-0.00592 0.00191,-0.01184 0.00288,-0.01776c-0.85489,-5.35707 -0.26415,-10.9821 -0.23952,-16.40571l-0.38182,-4.45049c-0.06254,-0.62237 0.05624,-1.26945 0.38021,-1.85908c0.8515,-1.54975 2.79811,-2.11578 4.34786,-1.26427c0.35986,0.19772 0.66668,0.4545 0.91502,0.75163l4.17155,4.76004c0.05289,0.04522 0.10563,0.09066 0.15821,0.13635c0.79217,-2.15634 1.65694,-4.29214 2.14301,-6.53224c0.26385,-1.21597 -0.03158,-2.51595 0.27048,-3.72299c1.18605,-4.7394 3.54304,-9.19395 4.2071,-14.13105c0.2179,-1.62005 -0.29199,-3.31934 0.11476,-4.90256c0.69427,-2.70232 2.23886,-5.60125 3.8235,-8.39531c-1.70162,2.48086 -3.44329,4.9259 -5.25547,7.30298c-2.71094,3.556 -6.82769,6.75461 -9.07836,10.6125c-0.13548,0.23223 -2.45616,6.3842 -2.87254,7.26129c-2.15502,4.53952 -4.68449,8.95012 -7.01636,13.40188c-4.35633,8.31663 -10.64674,16.73318 -10.74939,26.31459l-0.02349,1.3243c0,0 -0.04434,2.49961 -2.54395,2.45527zM157.81908,184.39813c-0.71685,1.29001 -1.42315,2.56348 -2.0482,3.81358c-1.40765,2.81531 -3.52264,5.36225 -4.27915,8.4176c-0.25695,1.03773 -0.03931,2.12855 0.01713,3.20618c0.71639,-1.5283 1.43278,-3.0566 2.14917,-4.58489c1.15309,-2.45991 2.68848,-4.77182 3.47566,-7.37203c0.34246,-1.13123 0.51674,-2.30528 0.68539,-3.48043zM133.06657,299.41335c0.24911,0.203 -0.27387,-0.59403 -0.30787,-0.91359c-0.00248,-0.02336 -0.00496,-0.04672 -0.00741,-0.07009c-0.51978,-0.27007 -1.0385,-0.54266 -1.55629,-0.81737c0.58453,0.64226 1.19879,1.25284 1.87155,1.80105z" fill="#ffea00" stroke="none" stroke-width="0.5"/><path d="M207.31632,89.50352c-2.8068,-1.54044 -1.26636,-4.34724 -1.26636,-4.34724l1.26849,-2.31128c5.56391,-10.13291 9.91504,-20.70233 15.49459,-30.85713c1.64457,-2.99314 2.66838,-6.4237 4.93372,-8.97941l2.46687,-4.4897v0c0.8515,-1.54975 2.79811,-2.11578 4.34786,-1.26427c1.29913,0.71381 1.90697,2.19716 1.56799,3.57119l-0.72553,3.25995c-1.33114,5.96402 -1.5541,12.27281 -3.26211,18.12988c-2.18592,7.49583 -6.41872,14.529 -9.85648,21.4857c-5.70198,11.53861 -11.87516,22.77434 -18.07243,34.05339c0,0 -1.54179,2.80607 -4.34786,1.26427c-2.80607,-1.54179 -1.26427,-4.34786 -1.26427,-4.34786c6.15263,-11.19782 12.28293,-22.35134 17.94379,-33.80671c3.25712,-6.59116 7.36546,-13.29347 9.43785,-20.39983c0.15701,-0.53839 0.30108,-1.08116 0.43433,-1.62758c-4.66044,8.98196 -8.60727,18.19763 -13.48471,27.089l-1.26849,2.31128c0,0 -1.54044,2.8068 -4.34724,1.26636z" fill="#ffea00" stroke="none" stroke-width="0.5"/><path d="M178.09636,88.98643c3.29145,-6.87214 7.14204,-13.39728 10.73238,-20.11148c1.29751,-2.42643 1.66048,-5.30297 3.08763,-7.65549c0.83363,-1.37415 2.24124,-2.30429 3.36186,-3.45644c0,0 1.76777,-1.76777 3.53553,0c1.76777,1.76777 0,3.53553 0,3.53553c-0.88138,0.84985 -2.02062,1.49585 -2.64414,2.54956c-1.34395,2.27117 -1.68028,5.02897 -2.91838,7.35953c-2.35554,4.43402 -4.80145,8.81877 -7.21019,13.22408c0.49276,-0.59182 0.99557,-1.20782 1.49443,-1.87241c4.32864,-5.76671 10.45529,-12.10116 16.09905,-16.61154c1.13797,-0.90944 2.66866,-1.27332 3.74059,-2.25973c0.29627,-0.27263 0.57811,-0.55823 0.84829,-0.85431c0.66413,-0.8355 1.33161,-1.69125 1.98806,-2.61249c0.87458,-1.22735 1.44439,-2.75647 2.53952,-3.76636c0.1011,-0.14047 0.20337,-0.27989 0.30702,-0.41809l2.98254,-3.97672c0.45492,-0.62044 1.18914,-1.02328 2.01746,-1.02328c1.38071,0 2.5,1.11929 2.5,2.5c0,0.5524 -0.17916,1.06295 -0.48254,1.47672l-2.88917,4.04507c-1.17576,2.59744 -3.15997,4.55279 -5.0686,6.54945c-0.7521,0.99142 -1.30522,1.71073 -1.3768,1.77752c-0.22734,0.21213 -0.47338,0.39935 -0.73134,0.5708c-0.14475,0.17896 -0.28657,0.36007 -0.42494,0.54372c-2.52985,3.35779 -4.53124,7.72246 -6.83424,11.30491c-2.55845,3.97981 -5.90126,8.07807 -7.95402,12.33697c-0.72533,1.50485 -0.73634,3.32764 -1.62974,4.7392c-0.21182,0.33467 -6.92754,7.02212 -7.42993,7.52451l-3.43944,3.43944c-0.45241,0.45241 -1.07741,0.73223 -1.76777,0.73223c-1.38071,0 -2.5,-1.11929 -2.5,-2.5v-7.50751c0,0 0,-1.31909 0.95817,-2.04094c-0.58337,-0.45767 -0.95817,-1.1691 -0.95817,-1.96807v-5l0.17752,0zM183.02948,98.56982v1.51492c2.06108,-1.86641 4.43003,-3.48307 5.88388,-5.83225c0.78678,-1.2713 0.72273,-2.92369 1.37327,-4.2698c1.51804,-3.14119 3.4286,-6.12623 5.4442,-9.06403c-3.45781,3.69349 -6.11646,8.51172 -9.97218,11.66584l-3.38707,3.6665c-0.09231,0.10055 -0.19275,0.19353 -0.30027,0.27788c0.95817,0.72184 0.95817,2.04094 0.95817,2.04094z" fill="#ffea00" stroke="none" stroke-width="0.5"/><path d="M611.46041,181.65541c2.5,0 2.5,2.5 2.5,2.5c0,2.67267 0,9.84985 0,12.52252c0,5.34428 0.31747,10.80559 -0.00383,16.14426c-0.27195,4.51883 -1.1891,8.99763 -1.5015,13.51351c-0.12858,1.85871 0.27217,5.36578 -0.35914,7.01793c-0.63187,1.65361 -2.07836,2.88172 -2.89425,4.45271c-1.92462,3.70586 -2.82082,8.53241 -4.13967,12.48897c-3.0664,9.1992 -5.74569,18.43002 -9.83317,27.12581l0.35007,0.08752l-1.19999,4.79998c-0.25265,1.1133 -1.24829,1.9444 -2.43804,1.9444c-1.38071,0 -2.5,-1.11929 -2.5,-2.5v-3.51351c0,-9.44526 0.8001,-17.96877 3.07765,-27.12286c0,0 0.60634,-2.42536 3.0317,-1.81902c2.42536,0.60634 1.81902,3.0317 1.81902,3.0317c-1.01948,4.05709 -1.72277,7.97479 -2.18407,11.91006c1.21347,-3.58357 2.35687,-7.19554 3.55229,-10.78179c1.90413,-5.71239 3.20147,-12.50439 5.97265,-17.848c0.71973,-1.38784 2.04313,-2.42819 2.65275,-3.86779c0.34168,-0.80687 0.08211,-1.75079 0.0975,-2.62689c0.04792,-2.72709 0.2658,-5.452 0.56598,-8.16295c0.90321,-8.15698 0.93405,-16.06259 0.93405,-24.27402c0,-2.67267 0,-5.34535 0,-8.01802v-4.5045c0,0 0,-2.5 2.5,-2.5z" fill="#ffea00" stroke="none" stroke-width="0.5"/><path d="M611.82044,115.43948l-4.09759,2.26639c-3.21012,-6.42024 -4.74233,-12.7147 -6.48412,-19.68501c-0.71761,-2.87174 -0.7015,-5.96492 -1.8864,-8.67746c-0.65757,-1.50535 -2.10244,-2.57611 -2.76534,-4.07912c-2.89008,-6.55279 -2.29846,-13.96207 -5.50928,-20.41765c-1.18026,-5.68223 -2.37712,-11.47157 -1.63682,-17.32786c0.22353,-1.76829 -0.36891,-4.53297 1.28808,-5.18961c1.18289,-0.46876 2.40144,0.08053 3.60159,0.80151c0.33331,-0.57687 0.95505,-1.1149 2.11483,-1.1149c2.5,0 2.5,2.5 2.5,2.5c0,0.47585 0,0.9517 0,1.42755c2.4612,1.54017 6.16836,3.86348 6.24522,3.90784c2.64901,1.529 5.46855,2.82987 7.85477,4.74326c3.63993,2.91867 6.87744,6.83168 10.16077,10.14357c2.94921,2.97487 4.88507,4.03575 5.71847,8.31541c0.35054,1.80007 0.04193,3.66754 0.0508,5.5014c0.01621,3.35083 0.60265,7.80698 -0.56947,11.0979l-0.9715,4.85749c-0.20987,1.16847 -1.23166,2.05512 -2.46053,2.05512c-0.84394,0 -1.59021,-0.41817 -2.0429,-1.05862l-1.79624,-2.47777c-1.84143,-2.5401 -3.07994,-5.62575 -5.46731,-7.66128c-2.5041,-2.13506 -6.20849,-2.43212 -8.82077,-4.43336c-0.18865,-0.14452 -7.05234,-7.75659 -7.22873,-8.01689c-0.82186,-1.21282 -0.93384,-2.85777 -1.84169,-3.9967c1.10796,4.7865 1.34064,9.78129 3.37824,14.30947c0.69376,1.54174 2.16172,2.65774 2.82293,4.21372c1.25146,2.94496 1.33558,6.26009 2.11199,9.36431c1.40852,5.63151 2.63513,10.7763 4.84177,15.93273c1.5277,0.54515 1.5277,2.34542 1.5277,2.34542l-0.35657,0.19722c0.03071,0.06207 0.06159,0.12415 0.09264,0.18625zM598.94539,51.84166c0,1.72721 0,3.45441 0,5.18162c0,1.66667 0.08632,3.33557 0,5c-0.03851,0.74255 -0.79948,1.58984 -0.37337,2.19919c0.54333,0.77697 2.01756,0.33654 2.64414,1.04806c1.20223,1.36521 1.50782,3.33144 2.5348,4.83293c1.7323,2.53269 3.70062,4.99564 6.13644,6.86169c2.67992,2.05306 6.45516,2.40739 9.0241,4.59774c0.20997,0.17903 3.09366,4.14315 4.88466,6.61496c-0.26112,-3.14717 0.16255,-6.49896 0.17926,-9.62303c0.01496,-2.79701 0.67218,-4.79683 -1.07239,-7.11301c-6.37739,-8.4669 -15.18853,-14.1178 -23.95764,-19.60014z" fill="#ffea00" stroke="none" stroke-width="0.5"/><path d="M93.44239,165.13889c0.3834,0 0.70801,0.0588 0.98283,0.15836c0.29207,-0.56858 0.55106,-1.15123 0.75178,-1.75888c2.59789,-7.86469 4.58189,-16.57677 8.06295,-24.08678c1.0636,-2.29461 3.2887,-3.88076 4.54311,-6.07688c2.30806,-4.04076 3.6825,-9.07978 5.56512,-13.35159c3.99666,-9.06875 8.05279,-17.94839 12.6558,-26.62862l-0.08655,-0.01999l1.11381,-4.82278c0.23685,-1.13435 1.24252,-1.98642 2.4472,-1.98642c1.38071,0 2.5,1.11929 2.5,2.5l0,2.75443c1.07921,-1.39518 2.15719,-2.763 3.09512,-4.10093c4.35559,-6.21317 8.53755,-12.60186 12.76228,-18.93978c2.77242,-4.15917 5.49995,-8.35412 8.3205,-12.48075c1.17326,-1.71654 2.4514,-3.69961 2.35363,-5.7765c0,0 0,-2.5 2.5,-2.5c2.5,0 2.5,2.5 2.5,2.5c-0.03576,1.24249 0.32764,2.56303 -0.10727,3.72746c-0.59416,1.59082 -1.74878,2.90323 -2.73062,4.29926c0.10722,-0.01063 0.21976,-0.01622 0.33789,-0.01622c2.5,0 2.5,2.5 2.5,2.5c0,0.1475 0.02792,9.25195 -0.07752,9.62673c-0.12195,0.43348 -4.6424,8.67295 -5.01627,9.35837c-3.36443,6.16813 -6.66199,12.31133 -10.2775,18.33718c-0.70159,1.16932 -4.97821,8.98731 -6.74418,8.71943c-8.66999,-1.31519 -1.79937,-9.20979 -0.71218,-11.04816l-0.17127,-0.76748c0,0 0.30848,-2.4809 2.78937,-2.17242c0.75937,0.09442 1.25741,0.39237 1.58295,0.76042c0.36766,-0.48873 0.68401,-0.9247 0.89987,-1.2843c2.92945,-4.88006 5.51693,-9.94027 8.24346,-14.93892c1.49763,-2.74565 3.68945,-5.19584 4.56078,-8.19954c0.70923,-2.4449 0.06334,-5.07297 -0.05855,-7.63429c-2.163,3.26393 -4.36115,6.50612 -6.53285,9.76325c-4.24802,6.37122 -8.45508,12.78006 -12.82637,19.03359c-2.32932,3.3323 -5.73775,6.91849 -7.45811,10.60902c-0.64298,1.37932 -0.85987,2.92438 -1.42497,4.33739c-2.31222,5.78168 -5.89736,11.06887 -9.12666,16.35547c-1.33446,2.1832 -2.64523,4.38234 -3.8885,6.61875c-0.10272,0.20265 -0.20541,0.40532 -0.30805,0.60802v2.48808c0,1.38071 -1.11929,2.5 -2.5,2.5c-0.52877,0 -1.0192,-0.16416 -1.42311,-0.4443c-0.49677,1.21402 -0.86811,2.11282 -0.90555,2.17844c-1.22691,2.15051 -3.45115,3.67675 -4.4659,5.93514c-2.62236,5.83619 -4.1419,12.52778 -6.1673,18.60397c-0.9298,2.7894 -1.45675,5.75101 -2.81037,8.36117c-0.71973,1.38784 -2.04313,2.42819 -2.65275,3.86779c-0.2671,0.63076 -0.15632,1.34555 -0.11076,2.04584h0.01473l0,0.31927c0.00159,0.07177 0.00175,0.14322 0,0.21425l0,4.46648c0,0 0,0 0,0c0,1.38071 -1.11929,2.5 -2.5,2.5c-1.38071,0 -2.5,-1.11929 -2.5,-2.5v-5c-0.47914,-1.24749 0,-2.67267 0,-4.00901v-3.003c0,0 0,-2.5 2.5,-2.5z" fill="#ffea00" stroke="none" stroke-width="0.5"/><path d="M97.02304,323.18871c0.60634,-2.42536 3.0317,-1.81902 3.0317,-1.81902l1.15529,0.28882c1.51661,0.38559 3.00509,0.90665 4.54983,1.15677c1.20375,0.1949 2.55352,-0.3532 3.65425,0.17157c1.34795,0.64263 1.97839,2.2878 3.22594,3.10852c1.97379,1.29847 4.68514,0.68659 6.96953,1.28944c6.61786,1.74644 12.37812,4.71708 18.37946,7.90104c13.24876,7.02902 26.19526,14.16468 40.00987,20.00933c7.67512,3.24717 15.92391,5.99707 23.29634,9.8762c3.06606,1.61326 5.75614,4.31126 8.58602,6.33252c0.14843,0.10602 8.26634,5.90118 8.30018,5.93917c0.04586,0.05148 0.09117,0.10337 0.13597,0.15565l0.01586,-0.01586l3.003,3.003c0.45241,0.45241 0.73223,1.07741 0.73223,1.76777c0,1.38071 -1.11929,2.5 -2.5,2.5h-3.003c-10.88319,0 -21.76578,-0.10595 -32.64864,-0.18687c-9.39027,-0.06982 -18.99225,-0.37435 -28.11804,-2.91807c-7.4847,-2.08629 -14.86217,-5.85161 -22.09355,-8.70397c-3.05019,-1.20313 -6.03221,-2.59495 -9.14862,-3.61435c-1.76274,-0.5766 -3.72324,-0.59945 -5.37205,-1.44865c-2.13872,-1.10152 -4.17564,-5.63028 -5.05318,-7.20393c-1.62345,-2.91127 -3.23762,-5.82772 -4.85643,-8.74157c0,0 -1.21411,-2.18539 0.97129,-3.3995c2.18539,-1.21411 3.3995,0.97129 3.3995,0.97129c1.61881,2.91386 3.24254,5.82499 4.85643,8.74157c1.00946,1.82427 1.32484,4.5473 3.25198,5.34295c1.36743,0.56457 2.91785,0.53378 4.32938,0.9767c0.09412,0.02954 9.26804,3.64997 9.45635,3.72425c7.08616,2.79509 14.33652,6.52723 21.67213,8.55909c8.67892,2.40395 17.81771,2.64798 26.74198,2.71433c9.70324,0.07215 19.40627,0.16428 29.10969,0.18323c-0.69837,-0.43167 -1.3715,-0.909 -2.02,-1.37136c-3.88896,-2.77272 -8.03338,-6.79457 -12.24101,-8.97293c-11.75107,-6.08374 -24.80267,-9.68611 -36.69182,-15.50753c-8.96354,-4.38892 -17.63994,-9.61339 -26.46521,-14.29556c-5.66632,-3.00622 -11.07041,-5.83702 -17.31946,-7.48542c-2.65129,-0.69937 -5.69789,-0.29679 -8.04548,-1.71356c-1.14598,-0.6916 -1.59798,-2.26959 -2.78007,-2.89749c-0.69415,-0.36872 -1.57402,0.28528 -2.35175,0.17157c-1.74989,-0.25584 -3.4344,-0.84573 -5.15159,-1.26859l-1.15529,-0.28882c0,0 -2.42536,-0.60634 -1.81902,-3.0317z" fill="#ffea00" stroke="none" stroke-width="0.5"/></g></g></svg>