<svg version="1.1" xmlns="http://www.w3.org/2000/svg" xmlns:xlink="http://www.w3.org/1999/xlink" width="140.66667" height="124.14584" viewBox="0,0,140.66667,124.14584"><g transform="translate(-276.09754,-131.83333)"><g stroke-miterlimit="10"><path d="M286.83333,185c0,-29.36314 23.80353,-53.16667 53.16667,-53.16667c29.36314,0 53.16667,23.80353 53.16667,53.16667c0,29.36314 -23.80353,53.16667 -53.16667,53.16667c-29.36314,0 -53.16667,-23.80353 -53.16667,-53.16667z" fill="#fff15b" stroke="none" stroke-width="0"/><path d="M292.83333,185c0,-26.04943 21.11724,-47.16667 47.16667,-47.16667c26.04943,0 47.16667,21.11724 47.16667,47.16667c0,26.04943 -21.11724,47.16667 -47.16667,47.16667c-26.04943,0 -47.16667,-21.11724 -47.16667,-47.16667z" fill="#fff799" stroke="#000000" stroke-width="0"/><path d="M286.59754,157.64584c-2.5,0 -2.5,-2.5 -2.5,-2.5l0.01931,-0.64342c0.71029,-5.4115 3.28398,-10.85399 5.97675,-15.59693c0,0 1.24035,-2.17061 3.41096,-0.93026c2.17061,1.24035 0.93026,3.41096 0.93026,3.41096c-2.35827,4.0962 -4.80636,9.04051 -5.35658,13.73641l0.01931,0.02325c0,0 0,2.5 -2.5,2.5z" fill="#fff15b" stroke="none" stroke-width="0.5"/><path d="M357.97876,237.44905c0.27186,-0.68894 0.88818,-1.46988 2.28545,-1.46988c2.5,0 2.5,2.5 2.5,2.5l-0.89954,2.25389c-3.14242,2.58813 -6.80903,4.39592 -10.14737,6.78045c0,0 -2.03433,1.4531 -3.48743,-0.58124c-1.4531,-2.03433 0.58124,-3.48743 0.58124,-3.48743c2.97366,-2.12404 6.3234,-3.76767 9.16765,-5.99579z" fill="#fff15b" stroke="none" stroke-width="0.5"/><path d="M406.24096,166.62653c-2.48069,0.31009 -2.79078,-2.17061 -2.79078,-2.17061l-0.28005,-2.3787c-2.03135,-5.309 -3.62199,-10.49404 -4.99794,-15.99171c0,0 -0.60634,-2.42536 1.81902,-3.0317c2.42536,-0.60634 3.0317,1.81902 3.0317,1.81902c1.37468,5.50462 3.03382,10.67097 5.00206,16.00829l0.38661,2.95463c0,0 0.31009,2.48069 -2.17061,2.79078z" fill="#fff15b" stroke="none" stroke-width="0.5"/><path d="M280.76421,220.14584c0,-1.38071 1.11929,-2.5 2.5,-2.5c1.38071,0 2.5,1.11929 2.5,2.5c0,1.38071 -1.11929,2.5 -2.5,2.5c-1.38071,0 -2.5,-1.11929 -2.5,-2.5z" fill="#fff15b" stroke="none" stroke-width="0.5"/><path d="M276.09754,147.81251c0,-1.38071 1.11929,-2.5 2.5,-2.5c1.38071,0 2.5,1.11929 2.5,2.5c0,1.38071 -1.11929,2.5 -2.5,2.5c-1.38071,0 -2.5,-1.11929 -2.5,-2.5z" fill="#fff15b" stroke="none" stroke-width="0.5"/><path d="M411.76421,149.81251c0,-1.38071 1.11929,-2.5 2.5,-2.5c1.38071,0 2.5,1.11929 2.5,2.5c0,1.38071 -1.11929,2.5 -2.5,2.5c-1.38071,0 -2.5,-1.11929 -2.5,-2.5z" fill="#fff15b" stroke="none" stroke-width="0.5"/><path d="M360.09754,253.47917c0,-1.38071 1.11929,-2.5 2.5,-2.5c1.38071,0 2.5,1.11929 2.5,2.5c0,1.38071 -1.11929,2.5 -2.5,2.5c-1.38071,0 -2.5,-1.11929 -2.5,-2.5z" fill="#fff15b" stroke="none" stroke-width="0.5"/></g></g></svg>