<svg version="1.1" xmlns="http://www.w3.org/2000/svg" xmlns:xlink="http://www.w3.org/1999/xlink" width="216.6105" height="201.40428" viewBox="0,0,216.6105,201.40428"><g transform="translate(-246.65546,-88.005)"><g stroke-miterlimit="10"><path d="M288.45745,273.6237c0,0 -2.10109,-5.02518 -2.10109,-21.24601c0,-21.7778 0,-50.13062 0,-63.45852c0,-14.13969 3.08162,-26.27803 3.08162,-26.27803c0,0 1.93522,-7.8275 7.28381,-7.8275c14.74321,0 84.51229,0 111.18317,0c6.46727,0 7.03868,8.38658 7.03868,8.38658c0,0 3.36176,6.37761 3.36176,24.60072c0,21.50321 0,47.82258 0,60.38344c0,13.79309 -2.31122,24.60065 -2.31122,24.60065c0,0 -1.449,8.44762 -7.66857,8.5464c-26.3861,0.41906 -97.03611,1.51751 -112.61936,1.51751c-6.1134,0 -7.24878,-9.22525 -7.24878,-9.22525z" fill="#c7c7c7" stroke="#000000" stroke-width="2.5" stroke-linecap="butt"/><path d="M291.61705,270.41898c0,0 -1.99717,-4.72679 -1.99717,-19.98435c0,-20.48455 0,-47.15371 0,-59.69017c0,-13.30005 2.92919,-24.71757 2.92919,-24.71757c0,0 1.8395,-7.36267 6.9235,-7.36267c14.01393,0 80.33181,0 105.6834,0c6.14738,0 6.69052,7.88857 6.69052,7.88857c0,0 3.19547,5.99886 3.19547,23.13985c0,20.22626 0,44.98274 0,56.79771c0,12.97403 -2.19689,23.13976 -2.19689,23.13976c0,0 -1.37734,7.94597 -7.28925,8.03888c-25.0809,0.3942 -92.23614,1.42741 -107.04854,1.42741c-5.81099,0 -6.89023,-8.67744 -6.89023,-8.67744z" fill="none" stroke="#8f8f8f" stroke-width="6.5" stroke-linecap="butt"/><g fill="#ffffff" stroke="none" stroke-width="0" stroke-linecap="butt"><path d="M385.57986,180.51093c0.1094,-5.1692 1.24792,-9.00565 2.54296,-8.56898c1.29505,0.43667 2.25619,4.9811 2.14679,10.1503c-0.1094,5.1692 -1.24791,9.00565 -2.54296,8.56898c-1.29505,-0.43667 -2.2562,-4.9811 -2.14679,-10.15029z"/><path d="M395.82516,182.61888c0.1094,-5.16918 1.938,-8.77298 4.08427,-8.04927c0.75069,0.25311 1.83419,0.7607 2.40961,1.84887c0.58121,1.09915 3.61878,0.87025 5.7209,3.00985c1.76695,1.79842 2.69961,5.92536 2.66712,7.46037c-0.02914,1.37638 0.2706,6.28806 -1.80795,7.44368c-1.974,1.09746 -0.07995,0.74658 -0.46349,1.45448c-0.72932,1.34615 -7.8903,-2.14997 -8.92236,-2.49793c-2.14627,-0.7237 -3.79749,-5.50083 -3.6881,-10.66998z"/></g><text transform="translate(384.7287,175.5579) scale(0.70437,0.70437)" font-size="40" xml:space="preserve" fill="#ffffff" stroke="#000000" stroke-width="1" stroke-linecap="butt" font-family="Pixel" font-weight="normal" text-anchor="start"><tspan x="0" dy="0">4.5%</tspan></text><text transform="translate(248.03173,137.32886) scale(0.97671,0.97671)" font-size="40" xml:space="preserve" fill="#000000" stroke="#ffffff" stroke-width="1" stroke-linecap="butt" font-family="Pixel" font-weight="normal" text-anchor="start"><tspan x="0" dy="0">You Got!</tspan></text><path d="M358.15596,176.30251c0,0 -2.4484,-3.03432 -2.71685,-4.83097c-0.23818,-1.59409 1.18604,-5.41413 1.18604,-5.41413c0,0 2.07743,-3.5523 3.42907,-3.75428c1.37196,-0.20498 4.74261,2.53327 4.74261,2.53327c0,0 2.60835,3.2704 2.83881,4.81274c0.27267,1.82493 -1.308,5.43235 -1.308,5.43235c0,0 -2.02561,3.0458 -3.25803,3.22995c-1.45451,0.21732 -4.91365,-2.00896 -4.91365,-2.00896z" fill="#009d0d" stroke="none" stroke-width="0" stroke-linecap="butt"/><path d="M361.87943,179.60185c0,0 2.71073,-7.97504 4.9263,-10.85861c1.90296,-2.47669 14.07429,-5.29416 14.07429,-5.29416l5.77531,9.31867c0,0 -7.10811,2.26297 -9.03604,4.77217c-2.20184,2.86571 -3.46276,11.49499 -3.46276,11.49499z" fill="#794100" stroke="none" stroke-width="0" stroke-linecap="butt"/><path d="M321.56127,264.0565l5.05341,-10.56918" fill="none" stroke="#000000" stroke-width="1" stroke-linecap="round"/><path d="M400.94699,218.53199l3.06108,3.33893" fill="none" stroke="#000000" stroke-width="0.5" stroke-linecap="round"/><path d="M323.35018,265.66747l6.25907,-11.26425" fill="none" stroke="#000000" stroke-width="0.5" stroke-linecap="round"/><path d="M351.02489,208.08227l-4.26551,7.18498" fill="none" stroke="#000000" stroke-width="1" stroke-linecap="round"/><path d="M342.4945,227.36662l-2.68903,5.33089" fill="none" stroke="#000000" stroke-width="1" stroke-linecap="round"/><path d="M350.58379,203.46914l2.20225,-3.96336" fill="none" stroke="#000000" stroke-width="1" stroke-linecap="round"/><path d="M376.46118,210.66472l-0.24263,-0.12608c0,0 0.08675,0.04382 0.24263,0.12608z" fill="#89440f" stroke="none" stroke-width="0" stroke-linecap="butt"/><path d="M319.39309,169.66704l18.27211,7.42297" fill="none" stroke="#000000" stroke-width="0.5" stroke-linecap="round"/><path d="M347.93691,176.79152l7.00285,3.61815" fill="none" stroke="#000000" stroke-width="0.5" stroke-linecap="round"/><path d="M360.57571,193.36944l-16.60283,-8.95247" fill="none" stroke="#000000" stroke-width="0.5" stroke-linecap="round"/><path d="M369.89674,192.81566l-7.35056,-2.99238" fill="none" stroke="#000000" stroke-width="0.5" stroke-linecap="round"/><path d="M383.78624,197.8034l-7.7217,-4.29061" fill="none" stroke="#000000" stroke-width="0.5" stroke-linecap="round"/><path d="M375.71769,201.51012l15.30441,9.323" fill="none" stroke="#000000" stroke-width="0.5" stroke-linecap="round"/><path d="M396.86498,209.16572l3.77991,4.01137" fill="none" stroke="#000000" stroke-width="0.5" stroke-linecap="round"/><path d="M316.96113,265.61937c0,0 26.33584,-51.92576 32.67587,-64.42629c2.60272,-5.13173 -0.74858,-13.36079 -0.74858,-13.36079l25.29332,12.9427c0,0 -7.99561,0.87843 -10.98837,6.52359c-0.91958,1.73461 -4.24907,3.30354 -5.30365,5.2759c-1.79572,3.35846 -1.41181,7.28025 -3.32707,10.78424c-2.71621,4.96933 -5.38039,9.74041 -7.50407,13.33597c-6.99515,11.84331 -21.90765,33.96168 -21.90765,33.96168c0,0 -3.83997,0.89582 -5.08386,0.13078c-1.45332,-0.89386 -3.10593,-5.16778 -3.10593,-5.16778z" fill="#613600" stroke="none" stroke-width="NaN" stroke-linecap="butt"/><path d="M317.46088,266.14826c0,0 26.33582,-51.92574 32.67584,-64.42629c2.60272,-5.13173 -0.74858,-13.3608 -0.74858,-13.3608l25.29333,12.94273c0,0 -3.15309,0.34643 -6.24028,2.00215c-1.23545,-0.4606 -2.5368,-0.83521 -3.90578,-1.11473c-6.86474,-1.4017 -15.23611,3.2732 -18.56419,9.26272c-8.09243,14.56374 -12.91918,31.62445 -19.56941,47.20832c-1.72531,4.04299 -4.66154,7.19243 -7.66123,10.25633c-0.73694,-1.36672 -1.2797,-2.7704 -1.2797,-2.7704z" fill="#573000" stroke="none" stroke-width="NaN" stroke-linecap="butt"/><path d="M344.86325,230.39185l-9.22616,18.07869" fill="none" stroke="#000000" stroke-width="0.5" stroke-linecap="round"/><path d="M350.1476,212.03387l-4.17271,7.50953" fill="none" stroke="#000000" stroke-width="0.5" stroke-linecap="round"/><path d="M360.41869,206.82098l-2.85148,4.1486" fill="none" stroke="#000000" stroke-width="0.5" stroke-linecap="round"/><path d="M312.72282,174.16389l-14.15474,-2.49499l21.79487,-11.25476c0,0 37.25439,12.91898 52.80696,21.56085c13.96234,7.75824 36.25331,27.92604 36.25331,27.92604l-2.11171,25.10994l-5.52845,-11.36023c0,0 -20.144,-18.97476 -33.426,-26.35499c-15.92314,-8.84779 -55.63427,-23.13189 -55.63427,-23.13189z" fill="#d20000" stroke="#000000" stroke-width="0.5" stroke-linecap="butt"/><path d="M314.18697,174.81928l-14.84092,-2.87623l15.86365,-7.67283c2.56218,1.18429 4.70444,2.13519 5.45519,2.54328c17.87392,9.71595 38.51614,19.4206 54.2686,32.33875c1.62011,1.32862 3.01563,2.85166 4.30882,4.46542c-2.22825,-1.51068 -4.38883,-2.87023 -6.39721,-3.9862c-16.84324,-9.35907 -58.65819,-24.81214 -58.65819,-24.81214z" fill="#9e0000" stroke="none" stroke-width="0" stroke-linecap="butt"/><path d="M397.09244,208.34575l2.41005,-2.47323l2.58197,2.51598l-2.41002,2.47323z" fill="#ffffff" stroke="none" stroke-width="0" stroke-linecap="butt"/><path d="M323.76064,171.78362c-0.33975,-0.20807 -0.66349,-0.41289 -0.97186,-0.61449c-10.75781,-7.03329 -2.79647,-10.15008 -2.79647,-10.15008l12.22523,4.03465c0,0 12.90657,4.3612 17.73359,6.78378c2.21396,1.11115 10.4868,3.39707 17.66884,6.96816c3.61306,1.7965 14.52516,8.20743 23.36867,14.89666c10.56263,7.98955 18.94424,16.28105 18.94424,16.28105c0,0 -10.99859,-7.53355 -19.23286,-10.17631c-3.82586,-1.2279 -4.71826,3.20238 -7.85464,1.62071c-4.62516,-2.33247 -3.41808,-7.10498 -6.51748,-9.72348c-1.30589,-1.10329 -4.77111,-0.7313 -6.90273,-2.28061c-1.63191,-1.18612 -1.8038,-4.50097 -3.6974,-4.44972c-3.02674,0.08192 -6.47394,5.32895 -8.87433,4.26485c-2.32563,-1.03094 -0.20819,-9.45063 -2.06313,-10.29249c-3.1478,-1.42863 -8.20287,2.92317 -10.66713,2.4263c-3.34284,-0.67403 -4.82028,-5.57234 -7.0934,-7.20212c-2.00996,-1.4411 -4.8646,0.42339 -6.95245,-0.85775c-1.81334,-1.11271 -3.86788,-0.0295 -6.31665,-1.52909z" fill="#d18400" stroke="none" stroke-width="0" stroke-linecap="butt"/><path d="M381.05897,193.32658l1.96577,-2.37104l12.9556,10.74116l-1.96577,2.37104z" fill="#ffffff" stroke="none" stroke-width="0" stroke-linecap="butt"/><text transform="translate(262.86131,282.0134) scale(0.70437,0.70437)" font-size="40" xml:space="preserve" fill="#ffffff" stroke="#000000" stroke-width="1" stroke-linecap="butt" font-family="Pixel" font-weight="normal" text-anchor="start"><tspan x="0" dy="0">Carmel Apple</tspan></text></g></g></svg>