<svg version="1.1" xmlns="http://www.w3.org/2000/svg" xmlns:xlink="http://www.w3.org/1999/xlink" width="78.50001" height="95.07346" viewBox="0,0,78.50001,95.07346"><g transform="translate(-296.09754,-148.33905)"><g stroke-miterlimit="10"><path d="M374.59755,231.61251c0,6.51696 -16.96841,11.8 -37.9,11.8c-20.93159,0 -37.9,-5.28304 -37.9,-11.8c0,-6.51696 16.96841,-11.8 37.9,-11.8c20.93159,0 37.9,5.28304 37.9,11.8z" fill-opacity="0.40392" fill="#000000" stroke="none" stroke-width="0"/><path d="M323.59753,215.14584l-5.33332,-54.56861l13.72631,28.43135l5.6148,-18.43649l7.14023,19.51627l13.18532,-33.6092l-7.99999,58.66665z" fill="#ff9400" stroke="#000000" stroke-width="2"/><path d="M302.59754,233.47917c0,0 14.33333,-18.61415 14.33333,-26c0,-5.48387 10.66667,-9.33333 10.66667,-9.33333c0,0 7.38887,4.73272 8.30351,5.07881c2.09772,0.79373 12.02982,-3.41214 12.02982,-3.41214c0,0 9.20436,2.10015 11.57984,6.12813c1.57126,2.66432 -1.61397,1.52646 -0.37532,6.15042c2.07012,7.72785 8.12881,21.38812 8.12881,21.38812z" fill="#868686" stroke="#000000" stroke-width="2"/><path d="M296.09754,230.14583c0,-1.38071 1.11929,-2.5 2.5,-2.5c1.38071,0 2.5,1.11929 2.5,2.5c0,1.38071 -1.11929,2.5 -2.5,2.5c-1.38071,0 -2.5,-1.11929 -2.5,-2.5z" fill="#ff9400" stroke="none" stroke-width="0.5"/><path d="M367.76421,235.47917c0,-1.38071 1.11929,-2.5 2.5,-2.5c1.38071,0 2.5,1.11929 2.5,2.5c0,1.38071 -1.11929,2.5 -2.5,2.5c-1.38071,0 -2.5,-1.11929 -2.5,-2.5z" fill="#ff9400" stroke="none" stroke-width="0.5"/><path d="M367.43088,209.14584c0,-1.38071 1.11929,-2.5 2.5,-2.5c1.38071,0 2.5,1.11929 2.5,2.5c0,1.38071 -1.11929,2.5 -2.5,2.5c-1.38071,0 -2.5,-1.11929 -2.5,-2.5z" fill="#ff9400" stroke="none" stroke-width="0.5"/><path d="M308.09755,208.81251c0,-1.38071 1.11929,-2.5 2.5,-2.5c1.38071,0 2.5,1.11929 2.5,2.5c0,1.38071 -1.11929,2.5 -2.5,2.5c-1.38071,0 -2.5,-1.11929 -2.5,-2.5z" fill="#ff9400" stroke="none" stroke-width="0.5"/></g></g></svg>