<svg version="1.1" xmlns="http://www.w3.org/2000/svg" xmlns:xlink="http://www.w3.org/1999/xlink" width="191.12955" height="199.62723" viewBox="0,0,191.12955,199.62723"><g transform="translate(-250.72028,-88.00501)"><g stroke-miterlimit="10"><text transform="translate(252.09655,137.32886) scale(0.97671,0.97671)" font-size="40" xml:space="preserve" fill="#000000" stroke="#ffffff" stroke-width="1" font-family="Pixel" font-weight="normal" text-anchor="start"><tspan x="0" dy="0">You Got!</tspan></text><path d="M286.39403,270.15968c0,0 -2.113,-5.05365 -2.113,-21.36636c0,-21.90116 0,-50.41457 0,-63.81798c0,-14.21979 3.09906,-26.4269 3.09906,-26.4269c0,0 1.9462,-7.87185 7.32508,-7.87185c14.82673,0 84.99103,0 111.81299,0c6.50392,0 7.07857,8.43409 7.07857,8.43409c0,0 3.3808,6.41373 3.3808,24.74008c0,21.62501 0,48.09346 0,60.72549c0,13.87123 -2.32431,24.74 -2.32431,24.74c0,0 -1.45722,8.49546 -7.71201,8.59481c-26.53557,0.42144 -97.5858,1.52611 -113.25731,1.52611c-6.14802,0 -7.28985,-9.27751 -7.28985,-9.27751z" fill="#c7c7c7" stroke="#000000" stroke-width="2.5"/><path d="M289.57149,266.93679c0,0 -2.00849,-4.75358 -2.00849,-20.09756c0,-20.60058 0,-47.42082 0,-60.02829c0,-13.37538 2.94577,-24.85758 2.94577,-24.85758c0,0 1.84992,-7.40439 6.96273,-7.40439c14.09331,0 80.78686,0 106.28206,0c6.18219,0 6.72841,7.93326 6.72841,7.93326c0,0 3.21358,6.03283 3.21358,23.27092c0,20.34084 0,45.23756 0,57.11945c0,13.04752 -2.20934,23.27084 -2.20934,23.27084c0,0 -1.38514,7.99099 -7.33055,8.08443c-25.22296,0.39643 -92.75863,1.4355 -107.65493,1.4355c-5.8439,0 -6.92926,-8.7266 -6.92926,-8.7266z" fill="none" stroke="#8f8f8f" stroke-width="6.5"/><g fill="#ffffff" stroke="none" stroke-width="0"><path d="M384.06657,176.51945c0.11003,-5.19848 1.25499,-9.05667 2.55737,-8.61752c1.30238,0.43914 2.26897,5.00932 2.15895,10.20778c-0.11003,5.19848 -1.25499,9.05667 -2.55737,8.61752c-1.30238,-0.43914 -2.26897,-5.00932 -2.15895,-10.20778z"/><path d="M394.36989,178.63934c0.11003,-5.19847 1.94897,-8.82266 4.10739,-8.09487c0.75494,0.25455 1.84459,0.765 2.42326,1.85934c0.5845,1.10538 3.63927,0.87519 5.75331,3.0269c1.77695,1.8086 2.7149,5.95892 2.68223,7.50263c-0.02929,1.38417 0.27214,6.32368 -1.81819,7.48584c-1.98516,1.10368 -0.0804,0.75081 -0.46611,1.46272c-0.73345,1.35376 -7.93501,-2.16214 -8.97292,-2.51208c-2.15844,-0.72779 -3.819,-5.53198 -3.70897,-10.73042z"/></g><text transform="translate(397.55553,169.42987) scale(0.70586,0.70586)" font-size="40" xml:space="preserve" fill="#ffffff" stroke="#000000" stroke-width="1" font-family="Pixel" font-weight="normal" text-anchor="start"><tspan x="0" dy="0">1%</tspan></text><g><path d="M345.72658,199.22021c0,0 -2.14331,-11.56856 -0.84683,-17.00665c1.30964,-5.49328 8.66568,-15.78906 8.66568,-15.78906l14.57587,3.47504c0,0 -7.63514,9.99815 -8.91795,15.37882c-1.32229,5.54625 1.0991,17.41689 1.0991,17.41689z" fill="#773200" stroke="none" stroke-width="0"/><g fill="#ff6900" stroke="none" stroke-width="0"><path d="M333.31337,226.77672c0,19.65466 -8.56672,35.58789 -19.13433,35.58789c-10.56761,0 -19.13433,-15.93327 -19.13433,-35.58789c0,-19.65466 8.56672,-35.58789 19.13433,-35.58789c10.56761,0 19.13433,15.93327 19.13433,35.58789z"/><path d="M351.43853,227.22254c0,20.97124 -8.56672,37.97178 -19.13433,37.97178c-10.56761,0 -19.13433,-17.00054 -19.13433,-37.97178c0,-20.97124 8.56672,-37.97178 19.13433,-37.97178c10.56761,0 19.13433,17.00054 19.13433,37.97178z"/><path d="M391.2282,192.99689c10.56761,0 19.13433,15.93327 19.13433,35.58789c0,19.65466 -8.56672,35.58789 -19.13433,35.58789c-10.56761,0 -19.13433,-15.93327 -19.13433,-35.58789c0,-19.65466 8.56672,-35.58789 19.13433,-35.58789z"/><path d="M373.10303,191.05882c10.56761,0 19.13436,17.00054 19.13436,37.97178c0,20.97124 -8.56672,37.97178 -19.13436,37.97178c-10.56761,0 -19.13433,-17.00054 -19.13433,-37.97178c0,-20.97124 8.56672,-37.97178 19.13433,-37.97178z"/><path d="M353.2515,188.09911c10.56761,0 19.13433,17.76291 19.13433,39.67457c0,21.91166 -8.56672,39.67457 -19.13433,39.67457c-10.56761,0 -19.13433,-17.76291 -19.13433,-39.67457c0,-21.91166 8.56672,-39.67457 19.13433,-39.67457z"/></g><path d="M316.8035,246.86561c-2.06966,0 -2.06966,-2.06966 -2.06966,-2.06966v-1.70276c0,-12.8988 1.56457,-24.66962 7.37015,-36.34321c0,0 0.92557,-1.85114 2.77671,-0.92557c1.85114,0.92557 0.92557,2.77671 0.92557,2.77671c-5.5639,11.0604 -6.93314,22.26349 -6.93314,34.49207v1.70276c0,0 0,2.06966 -2.06966,2.06966z" fill="#ce5600" stroke="none" stroke-width="0.5"/><path d="M339.66625,246.05276c-1.93786,0.7267 -2.66456,-1.21116 -2.66456,-1.21116l-1.12024,-3.08186c-0.12843,-10.64602 1.22485,-26.36562 10.76445,-32.74119c0,0 1.72205,-1.14805 2.87007,0.57401c1.14805,1.72205 -0.57401,2.87007 -0.57401,2.87007c-8.08339,5.37429 -8.83948,19.5685 -8.98768,28.55856l0.9231,2.36701c0,0 0.7267,1.93786 -1.21116,2.66456z" fill="#ce5600" stroke="none" stroke-width="0.5"/><path d="M361.41611,245.5034c-2.06966,0 -2.06966,-2.06966 -2.06966,-2.06966v-0.34055c0,-11.82146 0.29592,-22.19478 8.331,-31.65623c0,0 1.34691,-1.57139 2.9183,-0.2245c1.57139,1.34691 0.2245,2.9183 0.2245,2.9183c-7.42621,8.57032 -7.33448,18.21903 -7.33448,28.96243v0.34055c0,0 0,2.06966 -2.06966,2.06966z" fill="#ce5600" stroke="none" stroke-width="0.5"/><path d="M381.84936,241.75732c-2.06966,0 -2.06966,-2.06966 -2.06966,-2.06966v-2.04331c0.01593,-7.73543 2.17109,-19.89842 9.8568,-23.05221c0,0 1.93786,-0.7267 2.66456,1.21116c0.7267,1.93786 -1.21116,2.66456 -1.21116,2.66456c-5.706,1.82813 -7.18346,13.78555 -7.17092,19.17648v2.04331c0,0 0,2.06966 -2.06966,2.06966z" fill="#ce5600" stroke="none" stroke-width="0.5"/><path d="M324.41143,211.44548c0,-5.19576 4.21201,-9.40783 9.4078,-9.40783c5.19576,0 9.4078,4.21201 9.4078,9.40783c0,5.19576 -4.21201,9.4078 -9.4078,9.4078c-5.19576,0 -9.4078,-4.21201 -9.4078,-9.4078z" fill="#ffffff" stroke="none" stroke-width="0"/><path d="M328.65753,211.64098c0,-3.31383 2.68642,-6.00025 6.00025,-6.00025c3.31383,0 6.00025,2.68642 6.00025,6.00025c0,3.31383 -2.68642,6.00025 -6.00025,6.00025c-3.31383,0 -6.00025,-2.68642 -6.00025,-6.00025z" fill="#000000" stroke="none" stroke-width="0"/><path d="M334.35257,209.032c0,-0.77731 0.63016,-1.40747 1.40747,-1.40747c0.77731,0 1.40747,0.63016 1.40747,1.40747c0,0.77731 -0.63016,1.40747 -1.40747,1.40747c-0.77731,0 -1.40747,-0.63016 -1.40747,-1.40747z" fill="#ffeded" stroke="none" stroke-width="0"/><path d="M360.25071,213.87634c0,-5.26861 4.27105,-9.53963 9.53966,-9.53963c5.26861,0 9.53963,4.27105 9.53963,9.53963c0,5.26861 -4.27105,9.53966 -9.53963,9.53966c-5.26861,0 -9.53966,-4.27105 -9.53966,-9.53966z" fill="#ffffff" stroke="none" stroke-width="0"/><path d="M364.13858,214.49218c0,-3.36031 2.72405,-6.08432 6.08432,-6.08432c3.36031,0 6.08432,2.72405 6.08432,6.08432c0,3.36031 -2.72405,6.08432 -6.08432,6.08432c-3.36031,0 -6.08432,-2.72405 -6.08432,-6.08432z" fill="#000000" stroke="none" stroke-width="0"/><path d="M370.74871,212.26426c0,-0.78821 0.63897,-1.42718 1.42718,-1.42718c0.78821,0 1.42718,0.63897 1.42718,1.42718c0,0.78821 -0.63897,1.42718 -1.42718,1.42718c-0.78821,0 -1.42718,-0.63897 -1.42718,-1.42718z" fill="#ffeded" stroke="none" stroke-width="0"/><path d="M365.54033,230.26376c2.59404,0.47166 2.12238,3.06572 2.12238,3.06572l-0.82795,3.72928c-8.13633,7.71891 -23.05221,11.50595 -32.1055,2.93658c0,0 -1.86436,-1.86436 0,-3.72866c1.86436,-1.86436 3.72866,0 3.72866,0c5.9642,6.50867 17.89753,2.60639 23.78998,-1.80928l0.22667,-2.07118c0,0 0.47166,-2.59404 3.06572,-2.12238z" fill="#000000" stroke="none" stroke-width="0.5"/><g stroke="#000000" stroke-width="0.5"><path d="M311.59816,200.29606v-17.57083l14.64238,-34.94646l13.80079,29.64504l13.54941,-28.61897l15.31463,29.61107l11.48127,-29.62462l13.59927,33.93396v17.57083z" fill="#fff800"/><path d="M323.11682,190.86284c0,-3.82773 3.103,-6.93073 6.93073,-6.93073c3.82773,0 6.93073,3.103 6.93073,6.93073c0,3.82773 -3.103,6.93073 -6.93073,6.93073c-3.82773,0 -6.93073,-3.103 -6.93073,-6.93073z" fill="#8000ff"/><path d="M371.53427,191.05807c0,-4.04339 3.27781,-7.32117 7.32117,-7.32117c4.04339,0 7.32117,3.27781 7.32117,7.32117c0,4.04339 -3.27781,7.32117 -7.32117,7.32117c-4.04339,0 -7.32117,-3.27781 -7.32117,-7.32117z" fill="#ff0000"/><path d="M348.69215,190.86284c0,-3.93556 3.1904,-7.12594 7.12594,-7.12594c3.93556,0 7.12594,3.1904 7.12594,7.12594c0,3.93556 -3.1904,7.12594 -7.12594,7.12594c-3.93556,0 -7.12594,-3.1904 -7.12594,-7.12594z" fill="#00ff91"/></g></g><text transform="translate(267.23909,280.19446) scale(0.70836,0.70836)" font-size="40" xml:space="preserve" fill="#ffffff" stroke="#000000" stroke-width="1" font-family="Pixel" font-weight="normal" text-anchor="start"><tspan x="0" dy="0">Pumkin King</tspan></text></g></g></svg>