<svg version="1.1" xmlns="http://www.w3.org/2000/svg" xmlns:xlink="http://www.w3.org/1999/xlink" width="206.56549" height="265.473" viewBox="0,0,206.56549,265.473"><g transform="translate(-236.9724,-52.26351)"><g stroke-miterlimit="10"><path d="M259.05757,78.45369l-14.82331,-21.9924l192.70295,-0.91636l-17.51843,22.90872z" fill="#ff8900" stroke="#000000" stroke-width="6.5"/><path d="M418.24731,291.54636l17.51843,22.90872l-192.70295,-0.91636l14.82331,-21.9924z" fill="#ff8900" stroke="#000000" stroke-width="6.5"/><path d="M257.53383,291.19408v-215.61167h160.36116v215.61167z" fill="#ff8900" stroke="#000000" stroke-width="6.5"/><path d="M390.94357,184.73585c0,49.86436 -23.52984,90.28738 -52.55535,90.28738c-29.02551,0 -52.55535,-40.42302 -52.55535,-90.28738c0,-49.86436 23.52984,-90.28738 52.55535,-90.28738c29.02551,0 52.55535,40.42302 52.55535,90.28738z" fill="#717171" stroke="#000000" stroke-width="6.5"/><g><path d="M334.08373,169.97741c0,0 -1.81744,-9.80969 -0.71807,-14.42095c1.11053,-4.65808 7.34814,-13.38849 7.34814,-13.38849l12.35975,2.94669c0,0 -6.4743,8.47805 -7.56207,13.04062c-1.12124,4.70299 0.932,14.76882 0.932,14.76882z" fill="#773200" stroke="none" stroke-width="0"/><g fill="#ff6900" stroke="none" stroke-width="0"><path d="M323.55785,193.34424c0,16.66636 -7.26425,30.17713 -16.22516,30.17713c-8.96091,0 -16.22516,-13.51077 -16.22516,-30.17713c0,-16.66636 7.26425,-30.17713 16.22516,-30.17713c8.96091,0 16.22516,13.51077 16.22516,30.17713z"/><path d="M338.92725,193.72227c0,17.78277 -7.26425,32.19857 -16.22516,32.19857c-8.96091,0 -16.22516,-14.4158 -16.22516,-32.19857c0,-17.78277 7.26425,-32.19857 16.22516,-32.19857c8.96091,0 16.22516,14.4158 16.22516,32.19857z"/><path d="M372.66731,164.70025c8.96091,0 16.22516,13.51077 16.22516,30.17713c0,16.66636 -7.26425,30.17713 -16.22516,30.17713c-8.96091,0 -16.22516,-13.51077 -16.22516,-30.17713c0,-16.66636 7.26425,-30.17713 16.22516,-30.17713z"/><path d="M357.29789,163.05685c8.96091,0 16.22517,14.4158 16.22517,32.19857c0,17.78277 -7.26425,32.19857 -16.22517,32.19857c-8.96091,0 -16.22516,-14.4158 -16.22516,-32.19857c0,-17.78277 7.26424,-32.19857 16.22516,-32.19857z"/><path d="M340.46457,160.54713c8.96091,0 16.22516,15.06224 16.22516,33.64245c0,18.58021 -7.26425,33.64245 -16.22516,33.64245c-8.96091,0 -16.22516,-15.06224 -16.22516,-33.64245c0,-18.58021 7.26425,-33.64245 16.22516,-33.64245z"/></g><path d="M309.55814,210.3788c-1.75498,0 -1.75498,-1.75498 -1.75498,-1.75498v-1.44388c0,-10.93768 1.32669,-20.91887 6.24959,-30.8176c0,0 0.78485,-1.56969 2.35454,-0.78485c1.56969,0.78485 0.78485,2.35454 0.78485,2.35454c-4.71798,9.37879 -5.87902,18.87856 -5.87902,29.24789v1.44388c0,0 0,1.75498 -1.75498,1.75498z" fill="#ce5600" stroke="none" stroke-width="0.5"/><path d="M328.94482,209.68951c-1.64323,0.61621 -2.25944,-1.02701 -2.25944,-1.02701l-0.94991,-2.6133c-0.1089,-9.02741 1.03863,-22.357 9.12784,-27.76324c0,0 1.46023,-0.97349 2.43371,0.48674c0.97349,1.46023 -0.48674,2.43371 -0.48674,2.43371c-6.85441,4.55719 -7.49552,16.5933 -7.62119,24.21652l0.78275,2.00713c0,0 0.61621,1.64323 -1.02701,2.25944z" fill="#ce5600" stroke="none" stroke-width="0.5"/><path d="M347.38785,209.22369c-1.75498,0 -1.75498,-1.75498 -1.75498,-1.75498v-0.28877c0,-10.02414 0.25094,-18.8203 7.06435,-26.84323c0,0 1.14212,-1.33248 2.4746,-0.19036c1.33248,1.14212 0.19036,2.4746 0.19036,2.4746c-6.29714,7.26729 -6.21935,15.44901 -6.21935,24.55898v0.28877c0,0 0,1.75498 -1.75498,1.75498z" fill="#ce5600" stroke="none" stroke-width="0.5"/><path d="M364.71443,206.04716c-1.75498,0 -1.75498,-1.75498 -1.75498,-1.75498v-1.73265c0.01349,-6.55934 1.841,-16.87307 8.35817,-19.54737c0,0 1.64323,-0.61621 2.25944,1.02701c0.61621,1.64323 -1.02701,2.25944 -1.02701,2.25944c-4.83846,1.55017 -6.09129,11.68959 -6.08064,16.26091v1.73265c0,0 0,1.75498 -1.75498,1.75498z" fill="#ce5600" stroke="none" stroke-width="0.5"/><path d="M320.06676,213.33921c0,0 -3.9813,-2.51108 -5.49985,-4.74567c-2.16618,-3.18764 -6.25908,-12.55812 -6.25908,-12.55812l11.75893,6.59648c0,0 8.26265,2.48562 12.61933,2.48562c1.26761,0 6.49653,0.06128 6.49653,0.06128l0.50557,0.17142l2.56214,2.95764l3.90978,0.06563l1.41791,-3.67075l7.09631,-2.07085c0,0 3.13793,-2.04721 5.15478,-2.96071c2.9999,-1.35877 11.0974,-4.40057 11.0974,-4.40057c0,0 -3.61149,7.24588 -6.42504,10.37389c-0.76082,0.84585 -6.75828,7.57145 -6.75828,7.57145l-1.84579,-5.73654l-3.69871,1.02787l-0.73769,5.63398l-3.70039,1.64167c0,0 -7.55415,0.42432 -9.81645,0.42432c-0.7522,0 -4.67457,0.28916 -6.11117,-1.15497c-0.23801,-0.23925 -0.86003,-0.80876 -0.86003,-0.80876l0.00352,-4.36262l-5.00337,-0.54575c0,0 -0.6383,4.45118 -1.29559,4.89678c-1.08654,0.73659 -4.61076,-0.89274 -4.61076,-0.89274z" fill="#ffe500" stroke="#000000" stroke-width="1"/><path d="M339.13135,182.33823l8.41024,16.00444h-16.82048z" fill="#ffe500" stroke="#000000" stroke-width="1"/><path d="M319.56782,168.73093l8.41024,16.00444h-16.82048z" fill="#ffe500" stroke="#000000" stroke-width="1"/><path d="M357.68774,167.8375l8.41024,16.00444h-16.82048z" fill="#ffe500" stroke="#000000" stroke-width="1"/></g></g></g></svg>