<svg version="1.1" xmlns="http://www.w3.org/2000/svg" xmlns:xlink="http://www.w3.org/1999/xlink" width="409.31015" height="416.00183" viewBox="0,0,409.31015,416.00183"><g transform="translate(-135.34493,23.00092)"><g stroke-miterlimit="10"><path d="M409.4149,251.42067c-40.99835,31.52849 -99.79297,23.85165 -131.32147,-17.14668c-31.52849,-40.99835 -23.85165,-99.79299 17.14667,-131.32148c40.99835,-31.52849 99.79299,-23.85165 131.32148,17.14667c31.52849,40.99835 23.85165,99.79299 -17.14667,131.32148z" fill="#ffea00" stroke="none" stroke-width="0"/><path d="M402.97245,243.04318c-36.37156,27.97043 -88.53107,21.15995 -116.5015,-15.21162c-27.97043,-36.37156 -21.15996,-88.53107 15.21162,-116.5015c36.37156,-27.97043 88.53108,-21.15995 116.50152,15.21163c27.97043,36.37156 21.15995,88.53107 -15.21162,116.5015z" fill="#fffde3" stroke="#000000" stroke-width="0"/><path d="M423.72616,266.91296c1.5579,-1.83549 4.12351,-1.03821 4.12351,-1.03821l0.69962,7.79944c-4.10644,1.2103 -8.08303,2.88766 -12.25972,3.82728c-5.33423,1.2 -10.31344,-0.37489 -15.64085,1.41892c-4.00751,1.34941 -3.67264,2.99889 -7.75368,5.37542c-5.04741,2.93928 -11.17186,3.62232 -16.8541,4.08535c-2.73084,0.21677 -5.60197,0.5967 -8.45546,0.75325c-7.91022,4.02055 -17.32587,6.00823 -26.03088,7.22785c0,0 -3.49738,0.48007 -4.65908,-2.5509c-4.91493,-0.39894 -9.86708,-0.77926 -14.28789,-2.89932c-1.03279,-0.49528 -2.03134,-1.04761 -2.99955,-1.64701c-0.10544,-0.01341 -0.21075,-0.02815 -0.3159,-0.04433c-11.77391,-1.81206 -21.75448,-10.03239 -30.62408,-17.23103c0,0 -3.06857,-2.4906 -0.57798,-5.55918c2.49061,-3.06857 5.55918,-0.57798 5.55918,-0.57798c3.35808,2.72572 6.93284,5.73115 10.7498,8.38546c-0.38752,-1.25912 -0.4139,-3.06109 1.58535,-4.59855l-0.00001,0.00001c3.49063,-2.68436 6.17499,0.80626 6.17499,0.80626l1.17429,1.55664c3.17112,3.44454 6.6003,7.06404 10.65186,9.61573c1.07894,0.01091 2.15732,0.02595 3.22007,0.19129c1.05067,0.16345 1.92729,1.13362 2.99035,1.11064c1.07473,-0.02323 1.92696,-1.01033 2.9772,-1.23961c6.74751,-1.47318 15.72339,-3.48489 22.71517,-2.50193c2.15305,0.3027 4.0975,1.52578 6.2386,1.90402c0.37274,0.06585 0.75153,0.11795 1.13527,0.158c0.22071,-2.57113 2.92557,-3.57285 2.92557,-3.57285c8.30545,-3.0733 16.4836,-6.30132 24.60223,-9.8318l3.12459,-1.10765c0,0 4.15555,-1.45657 5.61215,2.69898l0,0.00004c0.19573,0.55841 0.29013,1.06808 0.30686,1.53204c5.15349,-1.17054 9.75892,0.01502 14.8927,-1.20586c3.06076,-0.72789 6.01337,-1.84215 8.99979,-2.84037z" fill="#ffee37" stroke="none" stroke-width="0.5"/><path d="M362.37614,71.70942c1.17283,-3.77408 4.9469,-2.60127 4.9469,-2.60127l2.22701,0.77244c4.7085,2.59663 9.80124,4.36251 15.01361,5.87796c-0.57055,-0.39499 -1.1475,-0.77979 -1.73171,-1.15303l-0.00001,-0.00001c-1.07691,0.03592 -2.31555,-0.35604 -3.41818,-1.78982c-2.68436,-3.49063 0.80626,-6.17499 0.80626,-6.17499l5.39379,-0.65603c7.28856,4.36864 13.38318,10.31844 19.82189,15.87974c2.13475,0.79306 4.22793,1.67928 6.25967,2.70228c6.09868,1.90723 11.58655,4.39164 16.28341,8.88253c0.41204,0.39397 0.80835,0.80295 1.19344,1.2227c1.96017,0.12968 3.25478,1.81313 3.25478,1.81313c2.08832,2.71556 4.17665,5.43115 6.26497,8.14672c0.8885,0.60884 1.76621,1.22929 2.51675,1.99397c1.96151,1.99847 3.76251,4.29415 5.41731,6.7455c7.9379,4.94288 12.21725,12.90381 17.56218,21.93219l0.59821,1.01047c0,0 1.58858,2.68336 -0.16599,4.8707c2.79568,-0.69998 4.25757,2.08013 4.25757,2.08013c3.60201,6.85008 9.39273,16.88703 -5.95569,12.59092c-2.02568,-0.567 -3.09378,-2.88003 -4.37233,-4.5504c-4.51159,-5.89422 -8.07262,-13.1368 -11.101,-19.82196c-1.55482,-3.43227 -3.36518,-7.21456 -5.48102,-10.77199c-1.79377,-1.07933 -3.82826,-1.93187 -6.18587,-2.49906c0,0 -4.26561,-1.09315 -3.17245,-5.35875c0.11055,-0.43132 0.25353,-0.80787 0.42122,-1.13628c-0.95772,-1.24538 -1.97452,-2.56759 -2.97146,-3.86397c-2.11513,-2.04824 -3.91392,-3.96871 -5.64883,-5.74212c-6.13701,-1.87194 -12.01054,-4.77046 -18.15562,-6.34422c-1.25386,0.36015 -3.00601,0.33815 -4.50631,-1.61279c-1.3498,-1.75523 -1.13826,-3.30661 -0.59431,-4.41533c-0.66689,-0.57541 -1.32967,-1.15716 -1.99007,-1.74255c-11.14369,-3.72065 -23.06842,-5.60843 -33.39465,-11.17402l-0.79225,-0.16583c0,0 -3.77408,-1.17283 -2.60125,-4.94691z" fill="#ffee37" stroke="none" stroke-width="0.5"/><path d="M230.75202,157.92681c0.0026,-1.66342 0.00519,-3.32686 0.00779,-4.99027c-1.03603,-5.09542 -1.43387,-9.62746 -2.07139,-15.07791c-2.41218,-2.61297 -0.05908,-5.58154 -0.05908,-5.58154c6.20978,-7.82994 11.64182,-15.69389 16.9807,-24.17296l3.71028,-3.71232c0,0 1.08172,-1.06993 2.60237,-1.31612c6.01154,-4.6112 11.95201,-8.88023 19.17765,-11.77178l0.00001,0.00001c0.34266,-0.24805 3.48685,-2.3888 6.00214,0.6507c2.15967,-2.42053 4.42468,-4.72631 6.88815,-6.8137c1.15661,-1.45563 2.09328,-2.46929 4.58085,-3.44148c1.2887,-0.84695 2.63385,-1.63161 4.04525,-2.34307c1.93473,-0.97528 3.94239,-2.00915 6.0945,-2.25974c1.71387,-0.19956 3.38921,1.26586 5.08692,0.95779c4.03559,-0.73234 7.17883,-6.43261 11.11464,-5.27868c0.61159,0.17931 1.17584,0.44298 1.70473,0.76959l0.09247,-0.14126l4.7415,3.10375c1.48955,0.92729 2.2277,2.77348 1.68265,4.52735c-0.39991,1.2869 -1.39717,2.22319 -2.59227,2.59883l-4.82755,1.58431l-0.01407,-0.0429l-0.14397,0.09112c-7.37307,1.75118 -15.06758,1.59571 -22.29137,3.20946c-0.19881,0.0444 -0.39729,0.09963 -0.59535,0.16487c-0.51797,0.35452 -0.90006,0.62831 -1.06079,0.75107c-11.30243,8.63166 -18.01199,21.49553 -28.53718,30.71229c-1.80396,1.5797 -3.8259,2.97572 -6.02676,3.92755c-2.04284,0.88348 -4.57444,0.39107 -6.50794,1.49347c-1.65965,0.94627 -3.46041,8.56851 -3.64417,9.05144c-2.1063,5.53576 -4.51163,11.93984 -7.37928,17.29426c0.20061,0.91264 0.42677,1.84838 0.68475,2.8173l0.88616,2.48464c0,0 1.45657,4.15555 -2.69898,5.61215l-0.00002,-0.00001c-3.66519,1.2847 -5.23079,-1.79638 -5.54924,-2.54143zM257.91083,114.11722c2.06668,-1.89381 4.0002,-3.93776 5.86229,-6.0631c-0.42891,0.15304 -0.87111,0.3104 -1.32806,0.47316c0,0 -1.60588,0.57206 -3.08396,-0.08996c-2.22372,1.68843 -4.42709,3.4451 -6.69444,5.18876c0,0 -0.11604,0.08922 -0.32204,0.21399c-0.71211,1.15884 -1.42984,2.30399 -2.15411,3.43739c2.75753,-0.77855 5.66563,-1.27747 7.72029,-3.16025zM237.18256,135.64351c0.01021,0.03061 0.02,0.06071 0.02935,0.09028c0.02918,-0.08032 0.05839,-0.16061 0.08763,-0.24087c-0.03898,0.0502 -0.07798,0.10039 -0.11699,0.15059z" fill="#ffee37" stroke="none" stroke-width="0.5"/><path d="M457.11312,254.27582c-3.77408,-1.17283 -2.60127,-4.9469 -2.60127,-4.9469l1.30677,-4.14026c1.15852,-2.1495 3.19942,-3.9593 3.62992,-6.36289c0.13021,-0.72696 -0.08445,-1.46562 -0.25484,-2.20342c-0.88685,0.17235 -1.94832,0.03853 -3.14799,-0.73486l0.00001,-0.00001c-3.70101,-2.38597 -1.31508,-6.08697 -1.31508,-6.08697l0.85784,-1.31665c0.87976,-1.20314 1.63156,-2.51123 2.63928,-3.60939c0.48968,-0.53363 1.94081,-0.51388 1.79553,-1.22338c-0.27411,-1.33867 -1.78737,-2.0674 -2.68105,-3.10108c0,0 -2.24326,-3.78919 1.54596,-6.03245c0.14185,-0.08398 0.28151,-0.15949 0.419,-0.22708c0.04906,-0.5481 0.16007,-0.91339 0.16007,-0.91339c1.81942,-5.85093 1.84918,-10.93831 4.28766,-16.69077l0.55479,-2.53015c-0.30493,-1.24711 -0.05066,-2.5845 0.71378,-3.63636c0.16585,-6.31299 -0.15324,-12.69077 0.47647,-18.90787c0,0 0.40989,-3.9308 4.34069,-3.52091c3.9308,0.40989 3.52091,4.34069 3.52091,4.34069c-0.6702,6.21833 -0.34851,12.6148 -0.50142,18.94862c0.75567,1.48979 0.38222,3.15588 0.38222,3.15588l-0.77161,3.38112c-0.08826,0.84195 -0.19426,1.68125 -0.32158,2.51733c-0.20295,1.33273 -1.33505,2.46213 -1.35638,3.81004c-0.01722,1.08891 1.07251,1.94449 1.24837,3.01924c0.42109,2.57364 0.69173,11.05102 0.28243,13.91763c-0.56923,3.98676 -2.30392,5.90372 -3.78843,9.62264c-1.20633,3.02206 -0.65121,6.49042 -1.35565,9.66719c-0.18128,0.81747 -3.38851,6.54014 -4.08064,7.79517l-1.03889,3.40791c0,0 -1.17283,3.77408 -4.94691,2.60125z" fill="#ffee37" stroke="none" stroke-width="0.5"/><path d="M390.17198,293.89617c3.77408,1.17283 2.60127,4.9469 2.60127,4.9469l-1.39207,3.07363c-1.79033,1.84054 -3.34344,3.94624 -5.37098,5.52164c-4.84294,3.76298 -11.82877,3.57062 -17.4252,6.05184c-7.73715,3.43033 -14.89231,7.95786 -23.89337,6.7557c-0.54516,-0.07281 -10.398,-3.15659 -11.3023,-3.4376c-9.561,-2.97115 -19.12202,-5.94231 -28.68302,-8.91346c0,0 -3.77408,-1.17281 -2.60127,-4.9469c1.17283,-3.77408 4.9469,-2.60127 4.9469,-2.60127c4.18708,1.30116 8.37419,2.60234 12.56128,3.9035c0.26789,-0.82104 0.86244,-1.64977 2.019,-2.33445l-0.00006,0c3.7892,-2.24327 6.03247,1.54594 6.03247,1.54594l-0.80506,-0.44731c4.97297,3.63434 6.81164,2.15881 11.88981,-0.99778c0,0 2.50694,-1.48415 4.64981,0.00107l1.30691,-0.13425c7.63883,0.37583 11.23432,4.13815 17.29814,0.16877c0.18994,-1.03312 0.74802,-2.00226 1.64628,-2.69303c1.92781,-1.48253 4.69246,-1.12156 6.17498,0.80626c0.86778,1.1284 1.10394,2.54352 0.76397,3.8204c0.02188,0.15524 0.03326,0.30732 0.0354,0.45596c3.37008,-0.89379 8.27871,-1.28973 10.63344,-3.31982c1.62507,-1.40103 2.94706,-3.11928 4.42058,-4.67893l-0.45381,0.05437c0,0 1.17282,-3.77408 4.9469,-2.60127zM345.56754,312.39035c1.86025,0.2636 3.66474,0.19807 5.42695,-0.09562c-2.18547,-0.73716 -4.3581,-1.55268 -6.63329,-1.61124l-2.72246,0.36754c0,0 -0.34454,0.03985 -0.85141,0.00048c-0.01431,0.00874 -0.0286,0.01745 -0.04286,0.02614c1.57656,0.5738 3.16875,1.07825 4.82305,1.31267z" fill="#ffee37" stroke="none" stroke-width="0.5"/><path d="M266.03359,71.16996c1.71776,4.05459 -2.33682,5.77234 -2.33682,5.77234l-0.54059,0.22904c-1.10264,0.31664 -2.55178,0.08717 -3.3079,0.94993c-0.88877,1.0141 -0.13177,2.86953 -0.96715,3.92805c-1.6559,2.09819 -4.11505,3.41235 -6.17259,5.11853c0,0 -3.45975,2.72407 -6.18381,-0.73568c-0.46605,-0.5919 -0.75107,-1.16226 -0.90342,-1.70114c-0.58673,-0.44835 -1.06852,-1.05061 -1.37719,-1.77918c-0.94869,-2.23927 0.09754,-4.82364 2.33682,-5.77234c1.52006,-0.64399 3.19914,-0.36872 4.41764,0.57495c0.22059,-0.20526 0.42521,-0.42673 0.60845,-0.66994c1.03013,-1.36734 0.47318,-3.64596 1.69052,-4.84963c1.69808,-1.67899 4.28205,-2.11514 6.42308,-3.1727l0.54058,-0.22904c0,0 4.05459,-1.71776 5.77233,2.33681z" fill="#fff15b" stroke="none" stroke-width="0.5"/><path d="M434.8812,80.89547c-3.49063,2.68436 -6.17499,-0.80626 -6.17499,-0.80626l-2.2523,-3.0763c-0.46739,-0.2473 -0.96022,-0.47863 -1.47099,-0.70045c-1.709,0.53001 -3.64127,-0.02104 -4.79588,-1.52243c-0.1217,-0.15825 -0.23099,-0.32218 -0.32803,-0.49055c-2.80696,-1.15342 -5.45973,-2.58664 -6.94655,-5.1596c-0.08126,-0.14062 -0.15926,-0.28265 -0.23419,-0.42603l-0.07955,0.06117l-2.86331,-3.72334c-1.48253,-1.92781 -1.12154,-4.69246 0.80626,-6.17499c1.52513,-1.17286 3.57403,-1.19193 5.09747,-0.19415l3.94828,2.45597c3.27917,1.38543 6.38723,3.189 9.34535,5.16927c0,0 1.90132,1.28264 2.03392,3.36876c0.42108,0.21376 0.8371,0.4372 1.24638,0.67363l3.47436,4.37035c0,0 2.68436,3.49063 -0.80626,6.17499z" fill="#fff15b" stroke="none" stroke-width="0.5"/><path d="M263.56837,238.56138c-1.92781,1.48253 -4.69247,1.12156 -6.17499,-0.80626c-1.48253,-1.92781 -1.12156,-4.69247 0.80626,-6.17499c1.92781,-1.48253 4.69246,-1.12154 6.17499,0.80626c1.48253,1.92781 1.12156,4.69246 -0.80626,6.17498z" fill="#fff15b" stroke="none" stroke-width="0.5"/><path d="M478.61014,238.99882c-3.90014,0.63881 -4.53896,-3.26132 -4.53896,-3.26132l-0.61095,-3.81449c-0.42595,-6.54786 2.40066,-11.19633 3.64347,-17.20533c-0.06694,-0.09508 -0.13063,-0.19353 -0.19087,-0.29529c-1.01793,-1.71944 -0.73225,-3.84939 0.56279,-5.24171c-0.02111,-3.59443 -0.15616,-8.25496 -0.16265,-8.56933c0,0 -0.08083,-3.9513 3.87046,-4.03212c3.9513,-0.08083 4.03212,3.87045 4.03212,3.87045c0.04442,2.18466 0.35599,11.39614 -0.02997,13.96875c-0.89829,5.9876 -4.45816,10.74787 -3.84591,16.87919l0.53181,3.16229c0,0 0.63881,3.90014 -3.26132,4.53896z" fill="#ffee37" stroke="none" stroke-width="0.5"/><path d="M212.02513,127.32673c-3.06857,-2.49061 -0.57798,-5.55918 -0.57798,-5.55918c5.16853,-6.30901 12.02312,-10.17453 15.27571,-18.09248c3.05109,-7.42739 3.36816,-16.92941 8.40681,-23.42958c2.82399,-3.64311 10.7268,-7.34379 15.12659,-8.11117c2.46237,-0.42947 5.02291,0.20203 7.49704,-0.15338c0.16611,-0.02385 0.33304,-0.05362 0.50069,-0.08882c2.08743,-2.13551 4.21305,-4.21003 6.85981,-5.31076c0.05447,-0.02265 0.10899,-0.04514 0.16355,-0.06752l-0.01579,-0.02616l6.75096,-4.073c0.93565,-0.57041 2.10263,-0.75112 3.23134,-0.40037c2.08436,0.64772 3.24899,2.86255 2.60126,4.94692c-0.08713,0.28039 -0.20261,0.54413 -0.34232,0.78905l-1.88861,3.46783l-0.53755,-0.29276l-0.28952,1.34025c-3.08248,1.38281 -6.65883,3.81805 -10.204,5.56652c-3.19998,3.05579 -6.94056,5.66518 -10.27105,7.22667c-1.68968,0.79221 -3.85563,0.10317 -5.51664,0.95382c-0.58627,0.30025 -0.53777,1.13701 -0.69124,1.83216c1.15152,-0.24869 2.59718,-0.07418 3.97038,1.45433l0.00003,0.00004c2.94281,3.27567 -0.33287,6.21849 -0.33287,6.21849l-2.92662,2.51426c-5.21731,2.67942 -4.69489,5.71308 -8.63982,10.3052c-6.13775,7.14473 -13.95879,13.2145 -20.69633,19.87311c0,0 -3.132,3.09531 -6.22731,-0.0367c-0.06204,-0.06276 -0.12157,-0.12553 -0.17867,-0.18824c-0.33939,-0.15295 -0.6897,-0.36792 -1.0479,-0.65864z" fill="#ffee37" stroke="none" stroke-width="0.5"/><path d="M470.04321,115.54351c-3.49799,1.83938 -5.33735,-1.65862 -5.33735,-1.65862l-0.86193,-1.89269c-0.2555,-1.20211 -0.51101,-2.40422 -0.76651,-3.60634c-3.69202,-4.14454 -7.26682,-7.8131 -11.29247,-11.31115c-2.15289,-0.18891 -3.36838,-2.24209 -3.36838,-2.24209l-0.35618,-0.64455c-0.06764,-0.09406 -0.13565,-0.18711 -0.20402,-0.27921c-4.64963,-3.27542 -10.28489,-5.57797 -14.35352,-9.69749c-1.02226,-1.035 -1.95209,-2.168 -2.87525,-3.30649c-0.33514,-0.2726 -0.66872,-0.55503 -1.00042,-0.84867c-1.97708,-1.75039 -3.40671,-3.67582 -5.15237,-5.35046c-1.6187,-1.1622 -3.2958,-2.23107 -5.01803,-3.22639c-1.81067,-0.59962 -3.85758,-0.55822 -5.53706,-1.46384c-1.00576,-0.54234 -1.58737,-1.64794 -2.34113,-2.52703c-1.26234,-0.56786 -2.53688,-1.1146 -3.81922,-1.64678c-0.59695,-0.07413 -1.19734,-0.13925 -1.77423,-0.26607c0,0 -1.32518,-0.33961 -2.30899,-1.37885c-6.69017,-2.63049 -13.46542,-5.05702 -19.72007,-8.18569c0,0 -3.52991,-1.77733 -1.75261,-5.30724c1.77733,-3.52991 5.30724,-1.7526 5.30724,-1.7526c6.04301,3.06545 12.56384,5.45653 19.0385,7.98525c0.91361,-0.07366 1.62222,0.10794 1.62222,0.10794c2.24309,0.62982 4.66757,0.80432 6.72928,1.88946c0.98972,0.52091 1.56094,1.60396 2.29049,2.47605c1.07798,0.50457 2.14597,1.02657 3.20131,1.57015c1.05502,0.15042 2.14726,0.20634 3.11196,0.6239c5.4507,2.35929 8.10629,6.36107 12.19496,10.07341c6.64351,6.03203 13.80848,7.74971 19.45535,15.29237l0.7301,1.19595c5.23839,4.39723 9.67849,9.18846 14.22167,14.60518c0.47224,1.78307 0.94448,3.56614 1.41673,5.34922l0.17858,0.08606c0,0 1.83938,3.49799 -1.65862,5.33735z" fill="#ffee37" stroke="none" stroke-width="0.5"/><path d="M231.62793,215.65162c-0.02092,-0.03087 -0.04184,-0.06175 -0.06277,-0.09264c0,0 -2.21441,-3.27348 1.05907,-5.48788c1.27752,-0.8642 2.39374,-0.89258 3.27998,-0.60586c-0.13244,-0.22383 -0.24847,-0.4574 -0.34356,-0.70334c-0.77116,-1.99427 -0.08846,-4.30072 -0.53162,-6.39248c-1.05679,-4.98797 -3.17521,-9.69048 -4.74693,-14.54088c0,0 -1.2183,-3.75966 2.54136,-4.97794c3.75965,-1.21829 4.97794,2.54136 4.97794,2.54136c0.21559,0.6653 4.92025,15.15003 4.9994,15.53634c0.32245,1.57403 -0.46619,3.304 0.06693,4.81968c0.38814,1.10347 1.74138,1.57294 2.49601,2.46673c1.70543,2.01991 3.22869,4.24461 4.70055,6.49945c0.20252,-0.16291 0.42972,-0.32049 0.6841,-0.47108l0.00004,-0.00003c0.07108,-0.04207 0.1416,-0.08204 0.21158,-0.11994c-1.56274,-2.01572 -3.10427,-4.00705 -4.31686,-5.9784l-2.50145,-3.51812c0,0 -2.28849,-3.22211 0.9336,-5.51062c3.22211,-2.28849 5.51062,0.9336 5.51062,0.9336l2.65093,3.7362c3.17089,5.17338 8.24969,10.3024 10.81238,15.79059c2.06256,4.41713 3.01681,9.42002 3.78003,14.39083l2.04731,3.89342c0.32004,0.60861 0.48221,1.30021 0.45149,2.00816c0.55254,1.15297 0.78828,2.80746 -0.75652,4.58838c-2.88538,3.3264 -6.21177,0.44102 -6.21177,0.44102c-1.81528,-1.586 -3.5011,-2.89103 -4.99599,-4.42367c-0.9938,1.17717 -2.63089,1.71123 -4.19458,1.22529c-0.23588,-0.0733 -0.45998,-0.16666 -0.671,-0.27765l-4.22783,-2.12872l0.02949,-0.05857c-0.12135,-0.04101 -0.24215,-0.08421 -0.36238,-0.12976c-0.55946,-0.21194 -1.10655,-0.46895 -1.64184,-0.76517c-0.34991,0.50448 -0.81147,0.94349 -1.37436,1.27671c-2.09272,1.2389 -4.79354,0.54678 -6.03247,-1.54594c-1.09529,-1.85013 -0.68127,-4.17557 0.87548,-5.54591c-2.91821,-3.51227 -5.42767,-7.59758 -7.68962,-10.56007l-1.39717,-2.53758c0,0 -1.05361,-2.0037 -0.04952,-3.77552z" fill="#ffee37" stroke="none" stroke-width="0.5"/><path d="M336.71209,334.78584c-2.85113,-2.73682 -0.11431,-5.58797 -0.11431,-5.58797l3.22091,-2.39694c4.35905,-0.94583 6.10388,-1.59875 8.98935,-1.61794c0.99723,-0.84868 2.39439,-1.18374 3.73739,-0.76638c0.74183,0.23053 1.36717,0.65957 1.83577,1.21056c0.83974,0.09055 1.68758,0.24085 2.2364,0.75333l3.8743,-0.07926c0.44341,-0.01946 0.89766,0.03602 1.34589,0.17532c2.08436,0.64772 3.24899,2.86255 2.60126,4.94692c-0.50341,1.61999 -1.95345,2.68441 -3.55313,2.77419l-4.15144,0.32951l-0.01811,-0.22814c-0.24121,0.07982 -0.48527,0.15222 -0.73256,0.2162c-1.00557,0.26021 -1.9695,-0.43134 -2.96654,-0.87889c-0.37668,-0.11315 -0.75337,-0.2263 -1.13004,-0.33943c-4.3175,-0.62433 -5.9615,0.22528 -10.3602,1.22142l0.77301,0.15319c0,0 -2.73683,2.85114 -5.58797,0.11431z" fill="#ffee37" stroke="none" stroke-width="0.5"/><path d="M453.93148,62.08628c-3.20271,2.31557 -5.51828,-0.88713 -5.51828,-0.88713l-2.1655,-3.00819c-3.56301,-3.81878 -6.6303,-9.49743 -11.11824,-12.25576c-4.38693,-2.69623 -9.11655,-4.79115 -13.63872,-7.25384c0,0 -3.47078,-1.89021 -1.58058,-5.36098c1.89021,-3.47078 5.36098,-1.58058 5.36098,-1.58058c4.73293,2.57769 9.71642,4.72241 14.25581,7.6274c5.25228,3.36121 8.63025,9.29927 12.826,13.80353l2.46564,3.39724c0,0 2.31557,3.20271 -0.88713,5.51828z" fill="#ffee37" stroke="none" stroke-width="0.5"/><path d="M371.32625,324.24718c2.44705,0.82415 5.72918,2.32067 6.09057,4.85226c0.4609,0.09898 0.95474,0.32481 1.46948,0.73431c2.59031,2.06065 0.52966,4.65095 0.52966,4.65095l-1.36271,1.33269c-3.92815,2.15774 -7.43339,2.54801 -11.09869,2.30021c-9.41653,4.12916 -21.59341,2.2723 -30.00182,-2.76328c0,0 -2.8259,-1.72345 -1.10244,-4.54935c1.72345,-2.8259 4.54935,-1.10244 4.54935,-1.10244c2.47549,1.54372 4.76915,2.49225 7.06263,3.03347c-1.24156,-1.1675 -1.40001,-3.11198 -0.32001,-4.46958c0.50671,-0.63696 1.20062,-1.03732 1.94085,-1.18507l3.62228,-0.74958c4.21045,-0.8665 14.424,-3.49807 18.62088,-2.08459zM365.95767,331.20215c-1.01788,0.03787 -2.02573,0.03593 -3.0519,0.07619c0.84035,0.12081 1.67716,0.23584 2.5088,0.32306c0.18015,-0.129 0.36141,-0.26313 0.54309,-0.39925z" fill="#ffea00" stroke="none" stroke-width="0.5"/><path d="M383.38413,317.67723c-1.99253,-0.00087 -3.96738,0.05772 -5.81407,0.72916c-4.70211,1.70962 -7.4207,4.25796 -12.55479,5.03096c-5.04282,0.75926 -9.25752,-1.99289 -13.98446,-2.77095c-5.3614,-0.8825 -10.98205,-0.9382 -16.37922,-1.94609c-7.19564,-1.34373 -13.79718,-4.23254 -20.57016,-6.80838c-4.88963,-1.85958 -10.69227,-3.2319 -14.1487,-7.68148c-0.05609,-0.07221 -0.11117,-0.14508 -0.16528,-0.21858l-0.02591,0.02335l-2.65981,-2.95042c-1.10102,-1.17873 -1.20259,-3.0172 -0.16829,-4.31736c0.64187,-0.80685 1.58409,-1.23407 2.54035,-1.24905l5.14376,-0.11696l0.0002,0.00869l0.03595,-0.00932c2.79928,-0.00199 9.15898,-0.07234 10.92871,0.42616c2.67016,0.75215 6.46058,4.003 8.76195,5.82804c0,0 2.59031,2.06065 0.52966,4.65095c-2.06065,2.59031 -4.65095,0.52966 -4.65095,0.52966c-1.17216,-0.93573 -5.19503,-4.3127 -6.56803,-4.67548c-0.41411,-0.10942 -3.09244,-0.13763 -5.47153,-0.14283c0.89472,0.75882 1.84611,1.53919 3.02105,2.01778c7.86807,3.20489 16.39859,6.64651 24.80622,8.20212c5.30602,0.98175 10.82483,1.00884 16.09476,1.89377c3.86042,0.64826 8.03648,3.42414 12.08411,2.74063c2.55254,-0.43105 6.54838,-2.64042 9.41991,-3.96488c-0.07368,-0.41026 -0.06994,-0.88436 0.0457,-1.43131c0.68469,-3.23839 3.92307,-2.55371 3.92307,-2.55371l1.44825,0.30619c2.04232,0.43559 4.0523,1.01199 6.04286,1.65281c0.75795,0.11286 1.51366,0.18784 2.26155,0.06751c1.91449,-0.30807 3.69134,-1.24874 5.54601,-1.81038c0.23905,-0.36231 0.49766,-0.70835 0.79512,-1.02181c6.81409,-7.18078 15.92826,-13.3427 24.6629,-17.88234c2.06805,-1.07483 3.92249,-2.76581 6.20974,-3.21368c0.12261,-0.02401 0.2454,-0.04451 0.36837,-0.06179l-0.01369,-0.05246l3.16543,-0.82613c0.98276,-0.26789 2.07554,-0.08008 2.93378,0.60267c1.43059,1.13806 1.66772,3.22037 0.52966,4.65095c-0.07382,0.09278 -0.15161,0.18055 -0.23292,0.26326l-2.32758,2.42239l-0.02651,-0.02548l-0.04242,0.09512c-9.66984,8.9256 -20.64846,14.81038 -32.19249,20.96953c-0.05146,0.00611 -0.10283,0.01265 -0.15411,0.01961c-0.94245,1.36589 -1.8598,2.74844 -3.26273,3.55804c-2.59899,1.49979 -6.38528,0.34305 -9.88536,-0.95851z" fill="#ffea00" stroke="none" stroke-width="0.5"/><path d="M469.83295,237.09736c-0.01098,0.01469 -7.93891,10.62483 -7.94003,10.62611c-0.47621,0.54835 -1.5209,0.59824 -1.76028,1.28392c-0.32502,0.93095 1.57264,1.74026 2.53487,1.52483c0.71493,-0.16005 1.17636,-0.89113 1.65665,-1.44436c4.14348,-4.77271 7.89402,-9.99164 11.83924,-14.93286c1.22982,-2.22887 2.38318,-4.49685 3.50101,-6.78311c-0.67976,0.04424 -1.37498,-0.11996 -1.98198,-0.50447c-2.65296,3.38269 -5.27711,6.78709 -7.84946,10.22993zM493.06205,207.57679c0.0041,0.0021 0.0082,0.0042 0.01232,0.00631c2.94413,1.51264 1.4315,4.45676 1.4315,4.45676l-1.54259,3.00244c-3.87787,7.54577 -7.16101,15.38219 -11.29701,22.79267c-4.00043,5.04561 -8.06836,11.89519 -12.88857,16.15085c-1.55047,1.36888 -3.30017,2.95012 -5.36116,3.12388c-3.84025,0.32376 -8.28578,-2.64317 -9.55117,-6.47559c-0.23808,0.55311 -0.49353,1.10086 -0.77053,1.64186l-1.65752,5.11745c-0.11745,0.39374 -0.31066,0.77206 -0.58212,1.1133c-1.13806,1.43059 -3.22037,1.66772 -4.65095,0.52966c-1.08932,-0.86657 -1.48667,-2.28063 -1.11182,-3.53755l1.3106,-4.78924l0.04882,0.01336c0.00928,-0.08854 0.01965,-0.17708 0.03116,-0.26557c0.31174,-2.39702 1.51757,-4.638 2.89589,-6.79161c1.27515,-4.01061 2.22917,-8.0941 4.18834,-11.88306c1.07619,-2.08128 2.60191,-3.88858 4.00912,-5.77139c0.40499,-1.2648 0.8033,-2.51554 1.20734,-3.73035c2.90051,-8.7208 2.86775,-16.99016 3.52138,-25.6834c-1.43717,-1.37883 -0.67401,-3.46782 -0.67401,-3.46782l2.12847,-5.82637c0.11935,-0.35204 0.30048,-0.68981 0.54521,-0.99745c1.13806,-1.43059 3.22037,-1.66772 4.65095,-0.52966c1.03406,0.82263 1.44458,2.13857 1.16291,3.34515l-0.8796,4.16035c-0.58475,5.02983 -0.44326,9.87894 -0.75648,14.8186c0.77711,-0.43689 1.86426,-0.6354 3.19641,0.17704c2.8259,1.72345 1.10244,4.54935 1.10244,4.54935c-2.78294,4.56247 -5.04709,9.4527 -7.7724,14.00338c-0.3363,0.56155 -0.70069,1.1055 -1.08079,1.63957c-1.82553,5.02291 -4.07642,9.88445 -6.56343,14.18063c2.29081,-3.24159 4.78864,-6.33514 7.16513,-9.51544c4.44092,-5.94299 9.01995,-11.7856 13.6448,-17.593c0.02692,-0.06573 0.05453,-0.13182 0.08284,-0.19822c-0.00867,-0.59392 -0.01732,-1.18783 -0.02599,-1.78175c0,0 -0.00827,-3.02307 2.88007,-3.29894c0.74893,-1.15285 1.42653,-2.13283 1.80474,-2.73095c5.20889,-8.23741 10.88649,-15.77217 16.94756,-23.39115l4.1213,-5.18062c1.13806,-1.43059 3.22037,-1.66772 4.65095,-0.52966c1.25527,0.9986 1.59168,2.72418 0.88645,4.09858l-2.87078,5.89268c-1.84425,6.64593 -8.53325,12.79987 -12.72322,18.06681c-0.28864,0.36284 -0.57751,0.72555 -0.86653,1.08812z" fill="#ffea00" stroke="none" stroke-width="0.5"/><path d="M412.46001,63.01178c2.207,-1.65684 3.86384,0.55016 3.86384,0.55016l2.65094,3.5312c2.14212,2.85341 4.00776,5.93431 6.41003,8.57245c2.05702,2.25899 4.98919,3.58597 7.10636,5.7887c0.02414,0.02511 0.20696,0.26298 0.49845,0.64672c0.30645,-0.3331 0.75117,-0.61784 1.39093,-0.7904c0.95737,-0.25822 1.66352,-0.07969 2.1754,0.2551c-0.66787,-1.06145 -1.36057,-2.15013 -2.10937,-3.27114c-2.06474,-3.09103 -4.28766,-6.16243 -5.61651,-9.634c0,0 -1.16097,-3.09969 1.93872,-4.26067c3.09969,-1.16097 4.26067,1.93872 4.26067,1.93872c1.09798,3.01485 3.13178,5.60914 4.9187,8.27405c3.61149,5.38597 5.63541,10.05628 10.54682,14.42449c7.49067,6.66218 15.93139,11.68011 22.30813,19.50857l2.61625,2.90212c1.10102,1.17873 1.20259,3.0172 0.16829,4.31736c-1.13806,1.43059 -3.22037,1.66772 -4.65095,0.52966c-0.12279,-0.09768 -0.23678,-0.20233 -0.34187,-0.31291l-3.69586,-3.77779c0,0 -0.51223,-0.52359 -0.80847,-1.31911l0.00003,-0.00001c-5.90725,-6.49589 -13.41808,-10.96693 -19.97151,-16.88054c-3.65382,-3.29709 -5.92477,-6.66665 -8.24509,-10.34115c0.75627,2.77719 1.58875,5.52422 2.48038,8.2478c7.57013,10.32463 13.6775,21.33207 17.75602,33.53625c1.72276,5.15502 4.51563,10.97331 5.37417,16.33088c0.1673,1.04404 -0.52939,2.08876 -0.43598,3.14199c0.09801,1.10516 0.8891,2.07159 0.99631,3.17591l1.53472,5.23464c0.3466,1.08741 -0.00897,2.32132 -0.97327,3.04524c-1.21889,0.91505 -2.94879,0.66873 -3.86384,-0.55016l-3.31368,-4.41399l0.11943,-0.08965l-0.35633,-0.28526c-6.58668,-19.15025 -15.51486,-37.35937 -21.83096,-56.59724c-0.14588,-0.19647 -0.29242,-0.3928 -0.43963,-0.58898c-2.14127,-2.85366 -3.93715,-5.99954 -6.40943,-8.57174c-2.11716,-2.20272 -5.04099,-3.53731 -7.10635,-5.78869c-0.18445,-0.20106 -6.56078,-8.70534 -6.84469,-9.08353l-2.65094,-3.5312c0,0 -1.65684,-2.207 0.55016,-3.86384z" fill="#ffea00" stroke="none" stroke-width="0.5"/><path d="M433.74379,50.33239c2.06065,-2.59031 4.65095,-0.52966 4.65095,-0.52966l0.51346,0.67778c1.53665,0.49773 3.06506,1.02336 4.59924,1.5298c-8.87652,-7.30813 -17.64409,-14.71436 -26.67102,-21.89549c0,0 -2.59031,-2.06065 -0.52966,-4.65095c2.06065,-2.59031 4.65095,-0.52966 4.65095,-0.52966c12.64043,10.05576 24.77249,20.55301 37.40637,30.60356l3.10837,2.47278c1.43059,1.13806 1.66772,3.22037 0.52966,4.65095c-0.94839,1.19217 -2.55253,1.55553 -3.88878,0.98491l-6.07733,-2.43122l0.15853,-0.39628c-5.11595,-0.98426 -10.02487,-2.32349 -15.3262,-4.04056l-2.59491,-1.79501c0,0 -2.59031,-2.06065 -0.52966,-4.65095z" fill="#ffea00" stroke="none" stroke-width="0.5"/><path d="M224.69806,253.74661c-3.36947,-4.31838 -6.65001,-8.64923 -10.25301,-12.81196c-5.78698,-6.686 -11.80219,-12.93253 -16.37676,-20.53235c0,0 -1.70184,-2.83896 1.13713,-4.5408c2.83896,-1.70184 4.5408,1.13713 4.5408,1.13713c4.34525,7.28157 10.19748,13.2415 15.73006,19.63362c4.80995,5.55723 9.04454,11.40265 13.67471,17.12469l3.79729,4.69461c0.99621,1.18063 1.05641,2.93767 0.05781,4.19294c-1.13806,1.43059 -3.22037,1.66772 -4.65095,0.52966l-6.7348,-5.3577c0,0 -2.2113,-1.75914 -0.92227,-4.06985z" fill="#ffea00" stroke="none" stroke-width="0.5"/><path d="M538.66409,129.07601c0.76995,1.06659 1.82487,1.97698 2.30983,3.19978c0.60666,1.52966 0.29665,3.32001 0.88535,4.85667c0.41979,1.09576 1.77677,1.71259 2.06693,2.84957c1.64243,6.43599 0.0677,14.76498 -0.4437,21.26907l0.35819,2.8626c0.13903,0.96578 -0.23951,1.97562 -1.07486,2.60275c-0.9928,0.74531 -2.3246,0.72015 -3.27898,0.02654l-2.81867,-1.94946l0.04627,-0.06689c-0.32163,-0.22949 -0.61293,-0.49793 -0.86375,-0.81835c-0.81544,-1.04171 -0.85971,-2.40439 -0.81796,-3.80288c-3.16997,-0.71176 -2.49378,-3.91001 -2.49378,-3.91001l0.23461,-0.76035c0.0012,-3.55547 -0.55211,-7.09002 -0.75117,-10.6399c-0.25727,-4.58826 0.3298,-8.48531 -1.38064,-12.9054c0,0 -1.16097,-3.09969 1.93872,-4.26067c1.43897,-0.53896 2.46014,-0.1597 3.14129,0.40139c1.73093,-0.56813 2.94234,1.04553 2.94234,1.04553z" fill="#ffea00" stroke="none" stroke-width="0.5"/><path d="M513.78422,253.5261c1.07043,-0.35736 1.84928,-0.13086 2.39601,0.26175c0.97155,-3.0753 2.09385,-6.02275 3.82518,-8.98752c2.46065,-4.2137 6.26514,-7.75352 7.90345,-12.44625c1.0443,-2.99126 1.85776,-8.07183 2.32842,-11.06782c0.03647,-0.23218 0.06974,-0.59348 0.1013,-1.0457c-1.11112,1.53458 -2.24031,3.07461 -3.39057,4.59349c-5.17221,13.60532 -12.72936,27.1672 -21.48276,38.20388l-0.82427,1.03612c0,0 -2.06065,2.59031 -4.65095,0.52966l0,-0.00002c-2.59031,-2.06065 -0.52966,-4.65095 -0.52966,-4.65095l0.82427,-1.03612c0.76162,-0.95425 1.51396,-1.92979 2.25609,-2.92465c-1.58647,1.03837 -3.16724,2.14675 -4.18237,3.3609c-3.10363,3.71206 -5.34553,8.29133 -8.4341,12.09888c-0.57798,0.71252 -7.6467,9.43883 -7.77741,9.49717c-2.09327,0.93444 -4.58715,-0.07456 -6.87236,-0.25564c-3.18763,-0.25257 -9.34737,-0.10509 -8.59896,-6.15165c0.20653,-1.66859 6.47501,-5.68983 8.00376,-7.01264c6.64739,-5.75193 13.84931,-12.14643 19.47508,-18.83647c2.07561,-2.45543 3.85975,-5.19379 6.24018,-7.35502c4.50206,-4.08749 10.73832,-6.76823 14.91281,-11.17263c1.52903,-1.61324 3.01684,-3.34073 4.46994,-5.13374c1.48837,-3.70185 2.79446,-7.41455 3.89037,-11.07781c0,0 0.95125,-3.17035 4.1216,-2.2191c0.58616,0.17587 1.03143,0.42761 1.36786,0.72112c0.49825,-0.68963 0.99369,-1.37302 1.48666,-2.04761l0.19943,-0.10326l-0.05406,-0.05401l3.86745,-3.87102c0.10029,-0.10364 0.21002,-0.20074 0.32902,-0.29008c1.21889,-0.91505 2.94879,-0.66873 3.86384,0.55016c0.82526,1.09929 0.70589,2.61421 -0.21961,3.57218l-2.53792,2.726c-0.60135,2.98862 0.07639,6.14516 -0.39593,9.16452c-0.4754,3.03906 -1.42103,8.80512 -2.51806,11.89514c-1.84322,5.1918 -5.68674,8.96854 -8.42196,13.61288c-2.38452,4.04886 -3.43099,8.13617 -4.73557,12.5997l-0.41935,2.94512l-1.10064,-0.15672l-1.38241,2.51614c-0.5035,-0.77577 -1.00701,-1.55155 -1.51052,-2.32732l-1.35627,0.45279l-2.21082,-6.62227c0,0 -0.8739,-2.61768 1.74378,-3.49159zM504.18294,245.35145c-2.1984,1.98489 -3.82016,4.5263 -5.72318,6.79703c1.45433,-0.99477 2.95147,-1.93376 4.16291,-2.84321c0,0 2.207,-1.65684 3.86384,0.55016c0.06477,0.08628 0.12363,0.17171 0.17695,0.25623c2.39178,-3.62621 4.64417,-7.43405 6.72081,-11.34494c-3.14034,2.13682 -6.45606,4.10609 -9.20132,6.58473zM492.42092,258.31824c-2.00655,1.85117 -4.0609,3.6566 -6.09527,5.62381c-4.3761,4.23163 -8.36838,9.24701 -14.18583,11.37762c-0.19301,0.07069 0.3921,-0.1453 0.59753,-0.15235c1.00757,-0.03456 2.02165,-0.07668 3.02435,0.02811c1.38762,0.14501 2.85309,1.29581 4.12335,0.7188c1.28857,-0.58532 1.40733,-2.46221 2.23774,-3.60827c1.03549,-1.42908 5.8092,-7.01393 6.89925,-8.49336c1.1142,-1.51222 2.25502,-3.62738 3.39887,-5.49434z" fill="#ffea00" stroke="none" stroke-width="0.5"/><path d="M395.51286,358.20294c1.68604,0.06339 3.53976,0.34553 5.12065,0.47668c2.60577,-1.44253 5.20226,-2.89728 7.79146,-4.36509c-1.3626,-0.42541 -2.73354,-0.77249 -4.13507,-0.76893c-2.73178,0.00692 -5.91304,2.26979 -8.77705,4.65735zM434.42612,350.31522c2.32554,-0.99694 4.56864,-2.26403 6.76111,-3.65622c-2.95522,0.59801 -5.91119,1.20966 -8.7356,2.03085c-1.05194,0.30585 -2.0774,0.68769 -3.09106,1.1038c-2.52114,1.50553 -5.04489,2.99693 -7.57321,4.47476c4.36215,-1.07518 8.69592,-2.26296 12.63876,-3.9532zM436.4621,355.44538c-7.58994,3.26122 -16.57931,4.73722 -24.53467,6.98445c-2.41898,0.68331 -4.88735,1.35467 -7.38372,1.66192c-6.37223,3.53439 -12.80037,6.99266 -19.31479,10.38356l-1.70337,1.11033c-2.35546,2.73825 -4.64379,5.5434 -7.04929,8.30757c-1.17438,1.34948 -2.38618,2.66723 -3.52475,4.04705c-0.9485,1.14947 -1.4584,2.76672 -2.7338,3.53761c-1.28749,0.7782 -2.94631,0.6362 -4.44181,0.79955c-2.32054,0.25346 -4.77092,1.17766 -6.9886,0.44897c-2.55143,-0.83836 -4.79908,-8.87758 -4.81033,-10.11589c-0.004,-0.44012 3.44453,-11.11395 3.72706,-11.73025c1.20025,-2.61814 3.77148,-4.43853 5.01383,-7.03695c2.24795,-4.70163 0.39874,-5.46923 2.15811,-10.6133c0.44503,-1.30116 1.52374,-2.28965 2.28561,-3.43448c0,0 1.5698,-2.26973 3.83954,-0.69993c2.26973,1.5698 0.69993,3.83954 0.69993,3.83954c-2.97695,4.07509 -1.82268,8.64905 -3.99501,13.27079c-1.24415,2.647 -3.87566,4.49067 -5.07348,7.15896c-0.69686,1.55236 -1.01092,3.24996 -1.55712,4.86152c-0.49937,1.47341 -1.55262,2.83645 -1.57908,4.39196c-0.10151,5.96618 1.97403,4.74439 5.59241,4.18259c0.74663,-0.11592 1.63027,0.3657 2.26633,-0.04211c0.70938,-0.45482 0.72595,-1.53479 1.23752,-2.2044c1.1478,-1.5024 2.47858,-2.85574 3.71866,-4.28291c1.04506,-1.20275 2.06892,-2.41357 3.08617,-3.62359c-1.54778,-2.6597 1.09246,-4.37836 1.09246,-4.37836l5.39922,-3.51001c0.18476,-0.09647 0.36946,-0.19298 0.5541,-0.28955c0.82409,-0.89892 1.66425,-1.78518 2.52731,-2.65464c-0.78877,-0.04085 -1.55444,-0.41827 -2.06571,-1.09931c-0.91505,-1.21889 -0.66873,-2.94879 0.55016,-3.86384l3.5312,-2.65094c4.90269,-3.68056 10.55785,-9.92063 17.0207,-10.16784c2.07975,-0.07955 4.15785,0.37587 6.18752,0.83642c1.45953,0.33118 2.72713,1.58208 4.2227,1.52573c0.87272,-0.03289 1.15313,-1.38463 1.94261,-1.75806c1.11746,-0.52855 2.38125,-0.65107 3.58055,-0.96424c5.30438,-3.11127 10.59053,-6.28358 15.8761,-9.52447c0,0 2.82181,-1.73013 4.55195,1.09165c0.48432,0.78991 0.61194,1.49427 0.54462,2.09909c3.7533,-0.87361 7.50879,-1.82184 11.20272,-2.82019c0.82478,-0.22291 1.62097,-0.94008 2.43763,-0.94265l2.66508,-1.73673c1.20896,-0.80282 2.84917,-0.53186 3.73161,0.64359c0.91389,1.21735 0.66935,2.94443 -0.54556,3.86037l-2.55115,1.92477l-0.0665,-0.08814c-0.09986,0.11207 -0.20331,0.22133 -0.31078,0.32747c-0.14687,0.14508 -0.59542,0.33552 -1.22138,0.54789l-0.62912,0.40997c-6.2153,4.05028 -12.3246,9.04097 -19.1634,11.97945z" fill="#ffea00" stroke="none" stroke-width="0.5"/><path d="M264.33088,341.88816c1.51264,-2.94413 4.45676,-1.4315 4.45676,-1.4315l0.11662,0.05991c7.03622,3.61633 13.36792,6.37912 19.58809,11.3039c0,0 2.59031,2.06065 0.52966,4.65095c-2.06065,2.59031 -4.65095,0.52966 -4.65095,0.52966c-5.82239,-4.65622 -11.85828,-7.18913 -18.49205,-10.59625l-0.11662,-0.05991c0,0 -2.94413,-1.51264 -1.4315,-4.45676z" fill="#ffea00" stroke="none" stroke-width="0.5"/><path d="M265.6876,292.22865c-2.06065,2.59031 -4.65095,0.52966 -4.65095,0.52966l-4.66256,-3.70916c0,0 -2.59031,-2.06065 -0.52966,-4.65095c2.06065,-2.59031 4.65095,-0.52966 4.65095,-0.52966l4.66256,3.70916c0,0 2.59031,2.06065 0.52966,4.65095z" fill="#ffea00" stroke="none" stroke-width="0.5"/><path d="M430.24487,-0.43511c-7.27787,3.33301 -14.52429,6.737 -21.78712,10.10247c-6.60612,3.06116 -13.42469,7.15767 -20.3436,9.40444c-1.78529,0.57973 -3.71823,0.57688 -5.52675,1.07949c-3.53246,0.98173 -6.81177,2.74075 -10.32172,3.80018c-6.69218,2.01996 -13.83911,3.09755 -20.66241,4.62172c-1.2883,0.28777 -2.58035,0.56712 -3.87382,0.84417c-1.55147,5.64485 -4.28471,10.73873 -8.59339,14.05661l-1.76028,2.54514c-0.17028,0.25895 -0.38742,0.49341 -0.64953,0.69018c-1.21889,0.91505 -2.94879,0.66873 -3.86384,-0.55016c-0.58422,-0.77821 -0.69504,-1.76474 -0.38157,-2.61449l0.88191,-2.50244c-0.10818,-1.525 -0.1408,-3.04614 0.06244,-4.55659c0.03679,-0.27341 0.48545,-1.94657 1.02329,-3.91181c-1.00177,0.45835 -1.99332,1.01791 -3.01234,0.77931c-9.74683,-2.28211 -6.11581,-4.54158 -1.89276,-10.19819c1.06995,-1.43316 2.4574,-2.60431 3.57904,-3.99738c0.99707,-1.23837 1.52932,-2.88724 2.76731,-3.8848c0.06021,-0.04851 0.12076,-0.09652 0.18164,-0.14406l-0.02568,-0.02566l0.45012,-0.45054c0.14099,-3.12028 0.11285,-6.22389 -0.24682,-9.28145c0,0 -0.37452,-3.28873 2.9142,-3.66325c3.28873,-0.37452 3.66325,2.9142 3.66325,2.9142c0.22275,2.0136 0.31883,4.03759 0.32658,6.06789c0.15917,0.08102 0.31152,0.1781 0.45444,0.29087c-0.11891,-1.06999 -0.2711,-2.10085 -0.45208,-3.07893c0,0 -0.49493,-2.71496 2.22004,-3.20988c2.71496,-0.49493 3.20988,2.22004 3.20988,2.22004c0.87803,4.88292 1.11456,10.80941 0.33223,16.60515c2.28973,-0.51123 4.57948,-1.02238 6.86917,-1.53384c4.91702,-1.09835 10.09765,-1.86806 14.92117,-3.32681c1.79369,-0.54245 8.72469,-3.35479 10.39836,-3.82213c1.73613,-0.48479 3.59532,-0.46374 5.31158,-1.0148c6.69842,-2.15074 13.32854,-6.19864 19.7194,-9.16006c6.67865,-3.09478 13.34349,-6.22202 20.03157,-9.29691c-0.20853,-0.7863 -0.16872,-1.86975 1.05074,-2.78523c2.207,-1.65684 3.86384,0.55016 3.86384,0.55016l0.00328,0.03457c2.32436,-0.96335 4.68488,-1.85543 6.85639,-3.11378c3.48874,-2.61907 6.97748,-5.23815 10.46623,-7.85722c1.17706,-0.88365 2.07312,-2.45013 3.5312,-2.65094l2.6484,-1.98821v0c1.21889,-0.91505 2.94879,-0.66873 3.86384,0.55016c0.91505,1.21889 0.66873,2.94879 -0.55016,3.86384l-2.6484,1.98821c-0.79457,1.00393 -1.98812,1.59856 -3.06006,2.31794c-3.62833,2.83292 -7.28256,6.05658 -11.18607,8.37693c-0.25381,0.19054 -0.50764,0.38109 -0.76145,0.57164c-0.94811,0.71177 -6.64597,5.18285 -7.78279,5.19134c-0.81264,0.00606 -1.52951,-0.36618 -2.21887,-0.8471zM343.15325,24.80456c0.57487,-3.06263 0.79553,-6.23207 0.74365,-9.25986l-0.55205,1.34047c-0.30612,2.21944 -0.58356,4.48116 -0.96342,6.71309c-0.04478,0.4698 -0.08995,0.93947 -0.13504,1.40897c0.30228,-0.06757 0.60457,-0.13513 0.90686,-0.20268zM332.50965,27.42551c0.51925,-0.23145 1.04745,-0.44181 1.59333,-0.59489c0.45667,-0.12806 0.91642,-0.24391 1.37808,-0.35214c0.05002,-0.50383 0.10098,-1.00818 0.15218,-1.51295c-0.94753,0.92055 -2.00006,1.74592 -3.1236,2.45998z" fill="#ffea00" stroke="none" stroke-width="0.5"/><path d="M245.44121,181.82035c0.30629,0.78803 0.47866,2.07566 -0.9356,3.13737c-2.207,1.65684 -3.86384,-0.55016 -3.86384,-0.55016l-0.78201,-4.02436c0.75573,-1.18409 5.12499,-8.04774 5.37643,-8.34153c0.56374,-0.6587 1.90939,-0.55369 2.21372,-1.36552c0.47526,-1.26779 -0.42352,-2.72584 -0.18065,-4.05783c0.35655,-1.95545 1.28316,-3.76272 1.94816,-5.63587c0.71133,-2.00363 3.22764,-7.97848 0.67932,-10.33652c-0.78248,-0.72405 -2.13379,0.02342 -3.198,-0.03971c-1.2438,-0.07378 -2.4736,-0.36158 -3.71955,-0.37065c-3.3427,-0.02435 -6.8033,-0.46491 -10.01825,0.45073c-0.97493,0.27767 -1.46973,1.4563 -2.39102,1.8792c-4.4685,2.05121 -9.6685,2.75337 -14.10468,5.08159c-1.579,0.8287 -2.78514,2.3308 -4.45025,2.96904c-0.03641,0.01396 -0.07287,0.02778 -0.10937,0.04147l0.009,0.0164l-4.80269,2.63662c-1.18998,0.67822 -2.72679,0.38128 -3.57063,-0.74276c-0.83163,-1.10777 -0.70399,-2.63762 0.24118,-3.59425l2.44334,-2.56206c3.80481,-3.98967 7.47233,-8.48035 11.59141,-12.14098c5.211,-4.63102 11.36898,-8.5467 16.94957,-12.73616c11.18212,-8.39466 22.36424,-16.78931 33.54636,-25.18397c0,0 2.207,-1.65684 3.86384,0.55016c1.65684,2.207 -0.55016,3.86384 -0.55016,3.86384c-11.18212,8.39466 -22.36424,16.78931 -33.54636,25.18397c-5.45782,4.09731 -11.50077,7.91897 -16.59679,12.44781c-0.82507,0.73323 -1.63114,1.50148 -2.42338,2.29311c0.07833,-0.03081 0.15581,-0.06148 0.23239,-0.09203c2.89885,-1.15658 6.03659,-1.68998 8.87006,-2.9986c1.08445,-0.50084 1.75519,-1.77623 2.90578,-2.09722c0.48122,-0.13425 11.20466,-0.79201 12.02481,-0.78409c1.70753,0.01647 9.5576,0.96949 10.33796,1.68943c4.82853,4.4546 2.68556,11.56913 0.99169,16.41026c-0.5588,1.59705 -1.39184,3.11565 -1.72097,4.77531c-0.36315,1.83114 0.38339,3.86722 -0.33471,5.59037c-0.51803,1.24306 -2.21887,1.57807 -3.08307,2.6109c-1.5295,1.82792 -2.63958,3.96083 -3.84304,6.02674z" fill="#ffea00" stroke="none" stroke-width="0.5"/><path d="M299.51523,263.74946c2.207,-1.65684 3.86384,0.55016 3.86384,0.55016l1.98821,2.6484c1.27961,2.15328 3.96993,3.95848 3.83883,6.45986c-0.25681,4.89995 -7.52158,4.50448 -10.02202,4.76615c-2.1479,0.12932 -4.32924,0.78706 -6.44369,0.38798c-1.38617,-0.26163 -2.33706,-1.58641 -3.56687,-2.2774c-5.80021,-3.25896 -10.63768,-7.15013 -16.05096,-11.05522c-1.34119,-0.96752 -2.59164,-2.12097 -4.10696,-2.78332c-1.75746,-0.76819 -3.89579,-0.50921 -5.56934,-1.44622c-0.7305,-0.40901 -7.47625,-7.10733 -8.42551,-7.91697c-3.83591,-3.27179 -8.60412,-5.54287 -12.29962,-8.97275c-1.40077,-1.30008 -2.59686,-2.81705 -3.71504,-4.36689c-0.66839,-0.9264 -0.63252,-2.44099 -1.61602,-3.0221c-0.57025,-0.33692 0.127,1.37773 -0.14479,1.98173c-0.88919,1.97606 -3.50579,5.63983 -4.9032,7.66173c0,0 -1.5698,2.26973 -3.83954,0.69993c-2.26973,-1.5698 -0.69993,-3.83954 -0.69993,-3.83954c1.69154,-2.44393 2.98193,-5.16356 4.80338,-7.51226c1.26503,-1.63122 2.20489,-4.54466 4.26834,-4.48685c2.60673,0.07302 4.27461,3.01373 6.1932,4.77991c2.55432,2.35141 4.80889,5.06293 7.61931,7.10137c2.62826,1.90631 5.39872,3.63331 7.87066,5.73836c2.66898,2.27284 4.46683,5.65414 7.55149,7.31971c1.5502,0.83703 3.53115,0.51388 5.13934,1.23322c2.21478,0.99066 7.55211,5.22172 9.53916,6.73652c3.92121,2.98926 7.01494,4.92615 11.19592,7.39906c0.79097,0.46784 1.2691,1.54034 2.17514,1.69392c1.50795,0.25559 3.03662,-0.3688 4.55493,-0.55319c1.37595,-0.08197 2.74952,-0.23359 4.12785,-0.24589c0.30753,-0.00274 1.10248,0.43289 0.90046,0.201c-0.80107,-0.91945 -1.85902,-1.57875 -2.78853,-2.36813l-1.98821,-2.6484c0,0 -1.65684,-2.207 0.55016,-3.86384z" fill="#ffea00" stroke="none" stroke-width="0.5"/><path d="M357.60933,285.53967c2.46892,1.23304 1.23589,3.70195 1.23589,3.70195l-0.89384,0.30844c0.08121,0.342 0.19919,0.68403 0.3291,1.0261c2.35134,-2.65355 4.43719,-5.4338 6.78717,-8.30749c1.60413,-1.96161 4.85182,-3.14201 5.0673,-5.66683c0.11667,-1.36699 -1.41699,-2.34973 -2.12548,-3.5246c0,0 -1.19184,-2.48907 1.29723,-3.68091c2.48907,-1.19184 3.68091,1.29723 3.68091,1.29723c0.88062,2.14389 2.87357,4.12559 2.64187,6.43169c-0.23569,2.34576 -2.494,4.00649 -3.88211,5.9121c-3.67157,5.04036 -7.79676,10.25647 -12.5009,14.3409l-1.13253,3.21357c-0.17178,0.51105 -0.49475,0.97715 -0.9585,1.3253c-1.21889,0.91505 -2.94879,0.66873 -3.86384,-0.55016c-0.45753,-0.60945 -0.62471,-1.34665 -0.52515,-2.04586l0.68152,-4.78638c-0.25367,-1.22422 -0.53336,-2.44245 -0.85247,-3.65107l1.31188,-4.1081c0,0 1.23304,-2.46892 3.70195,-1.23589z" fill="#ffea00" stroke="none" stroke-width="0.5"/><path d="M510.71915,92.77122c-2.64967,-0.77149 -1.87818,-3.42116 -1.87818,-3.42116l1.44792,-4.81481c-0.85463,-10.03876 -4.24588,-19.9702 -4.33066,-30.07366l-0.74554,-5.41319c-0.15355,-0.97643 0.22397,-2.00334 1.06953,-2.63812c1.05031,-0.78849 2.48005,-0.71465 3.44092,0.10074l1.3586,1.10282c-1.58991,-3.1663 -3.12626,-6.37263 -4.71433,-9.42664c0,0 -1.27146,-2.44935 1.17788,-3.72082c2.44935,-1.27146 3.72082,1.17788 3.72082,1.17788c2.97529,5.74194 5.76464,12.01478 9.09822,17.52424c1.39189,2.30041 2.98948,4.52972 4.66537,6.72123c1.38384,1.54166 2.68809,3.12544 3.89048,4.72412c1.10587,1.47035 2.54688,2.7416 3.31368,4.41399l0.51263,0.68284c0.05039,0.06696 0.10068,0.13394 0.15085,0.20093l1.98747,2.64742c0.91505,1.21889 0.66873,2.94879 -0.55016,3.86384c-1.21889,0.91505 -2.94879,0.66873 -3.86384,-0.55016l-2.15117,-2.86548c-0.16859,-0.22402 -0.33834,-0.44793 -0.50912,-0.67173c-0.35388,-0.23324 -1.22241,-1.43262 -2.17169,-2.78635c-1.56684,-1.97922 -3.1713,-3.9627 -4.72176,-5.97472c-2.95581,-3.13092 -6.15956,-6.22582 -9.58697,-8.79326c0.86037,2.67964 0.6943,5.42108 1.12167,8.73517c0.93777,7.27206 2.83082,14.25024 3.32661,21.59283l-1.63806,5.78387c0,0 -0.77149,2.64967 -3.42116,1.87818z" fill="#ffea00" stroke="none" stroke-width="0.5"/><path d="M170.3403,218.54995c2.207,-1.65684 3.86384,0.55016 3.86384,0.55016l1.98821,2.6484c3.41216,4.54518 7.07604,9.07399 10.62265,13.7015c-0.01182,-2.18245 -0.05614,-4.37013 -0.20559,-6.56534c-0.32281,-4.74183 0.21939,-9.142 -1.33702,-13.66366c0,0 -0.8739,-2.61768 1.74378,-3.49159c2.61768,-0.8739 3.49159,1.74378 3.49159,1.74378c2.52097,7.74143 2.21245,17.54592 1.96671,25.68222c-0.04242,1.40463 -0.07984,2.66959 -0.093,3.86916c2.61546,3.76274 5.03416,7.62555 7.07463,11.64501c0.50958,1.00381 0.49678,2.23044 1.05424,3.20846c3.23568,5.67675 8.14122,10.41245 11.48673,16.09311c1.16681,1.98125 3.88945,5.85611 4.15259,8.59315l1.08526,3.25077c0.39968,1.11004 0.0521,2.39595 -0.94069,3.14126c-1.21889,0.91505 -2.94879,0.66873 -3.86384,-0.55016l-2.65094,-3.5312c-1.38902,-1.85087 -4.30774,-5.89054 -6.0527,-7.7048c-4.81655,-5.0078 -10.35583,-8.97167 -13.84366,-15.18021c-1.24469,-2.21563 -1.72493,-5.9987 -2.15732,-8.38155c-0.50854,-2.80256 -0.73424,-5.60328 -0.83332,-8.40703c-4.7518,-6.89789 -10.09512,-13.45367 -15.1141,-20.13921l-1.98821,-2.6484c0,0 -1.65684,-2.207 0.55016,-3.86384zM193.65118,255.5126c0.28263,1.50202 0.65932,3.12689 1.1197,3.91353c1.14847,1.96235 2.52149,3.6809 4.01059,5.28186c-1.52885,-2.04159 -3.06498,-4.10239 -3.15892,-4.26609c-0.59799,-1.04208 -0.61546,-2.34109 -1.15658,-3.4138c-0.25852,-0.51249 -0.53115,-1.01708 -0.81481,-1.51549z" fill="#ffea00" stroke="none" stroke-width="0.5"/><path d="M164.90545,164.79482l1.65699,-2.19512c0.70766,-2.47721 1.3541,-4.7269 1.35759,-4.73539c0.50779,-1.23131 1.69934,-2.12542 2.11251,-3.39163c0.5676,-1.73946 0.215,-3.69099 0.76777,-5.43522c0.33973,-1.07198 1.17482,-1.92222 1.74479,-2.8941c0.78396,-4.25906 1.24539,-8.58563 1.28857,-12.99126c0.02788,-2.84461 0.08337,-5.71055 -0.30376,-8.52884c-0.12758,-0.9288 -0.54213,-1.79812 -0.90633,-2.67573c-1.90046,3.8752 -3.82269,7.77063 -4.44481,12.01716c-3.14441,6.06698 -7.16774,12.10745 -9.73939,18.42635c-1.10588,2.71731 -1.00223,5.79804 -1.87283,8.59961c-0.03494,0.11242 -4.13638,10.20096 -4.23935,10.44598c-0.18208,0.43323 -0.40484,1.08856 -0.68381,1.84954c0.25175,0.41769 0.55349,0.78501 0.96536,1.04359c0.76159,0.47815 1.7703,-0.31721 2.65545,-0.47581l0.26311,-0.77708c0,0 2.207,-1.65684 3.86384,0.55016c1.65684,2.207 -0.55016,3.86384 -0.55016,3.86384l-3.26808,1.87386c-1.7641,-0.0102 -3.74538,0.81748 -5.29228,-0.03059c-0.47081,-0.25812 -0.88321,-0.58783 -1.25712,-0.9644c-1.1793,1.41086 -2.72364,2.25613 -4.76292,1.56168c-4.6326,-1.57757 -4.90607,-7.8435 -6.52376,-11.30572c-0.55448,-1.1867 -1.91043,-1.9708 -2.21735,-3.24418c-0.35789,-1.48484 -0.12196,-3.12023 0.31501,-4.78076c-0.35133,-0.60911 -1.07727,-2.29857 0.69865,-3.63179c0.18193,-0.13658 0.36012,-0.24689 0.53394,-0.33436c0.39362,-1.25723 0.71923,-2.46921 0.79344,-3.5774c0.22503,-3.36051 -0.69884,-6.70231 -0.88803,-10.06504c0,0 -0.15436,-2.75539 2.60103,-2.90974c2.75539,-0.15436 2.90974,2.60103 2.90974,2.60103c0.19905,3.56909 1.12973,7.12067 0.88776,10.68711c-0.01062,0.15645 -0.81026,3.60248 -1.42112,6.1983c2.01181,2.63578 4.0586,5.25896 6.03221,7.92556c1.1566,-2.69605 2.44407,-5.34328 3.31367,-8.14167c0.89788,-2.88939 0.83648,-6.05388 1.96182,-8.8625c2.5057,-6.25365 6.45091,-12.30821 9.672,-18.23146c0.77588,-5.61998 3.87805,-10.69346 6.22694,-15.82927l1.27973,-3.63124c0.17178,-0.51105 0.49475,-0.97715 0.9585,-1.3253c1.21889,-0.91505 2.94879,-0.66873 3.86384,0.55016c0.21248,0.28303 0.36234,0.59362 0.45194,0.91515l1.58712,5.21949c0.78538,1.67243 1.3813,3.46507 1.69854,5.70161c0.26919,1.89776 -0.14834,3.83447 -0.07421,5.74979c0.00319,0.08247 0.00626,0.1649 0.0092,0.24729c0.35289,0.0045 0.74679,0.0852 1.18347,0.27362c2.53389,1.09333 1.44055,3.62722 1.44055,3.62722l-1.15029,2.63131c-0.08344,0.40053 -0.57363,2.76974 -1.08437,5.20461c0.7409,-1.25848 1.22442,-2.66864 1.87101,-3.9827c0,0 1.23304,-2.46892 3.70195,-1.23589c2.46892,1.23304 1.23589,3.70195 1.23589,3.70195c-0.89176,1.763 -1.55545,3.66131 -2.67529,5.289c-0.96725,1.40589 -2.52014,2.33429 -3.52062,3.71673c-1.67198,2.31032 -3.07852,4.99527 -4.34019,7.73396c-1.28044,4.62844 -2.88628,9.21676 -4.7528,13.81614l-1.50562,5.17099c-0.15773,0.56441 -0.49574,1.08324 -1.00062,1.46227c-1.21889,0.91505 -2.94879,0.66873 -3.86384,-0.55016c-0.45753,-0.60945 -0.62471,-1.34665 -0.52515,-2.04586l0.77804,-5.46428l0.0306,0.00436c0.00002,-0.06173 0.00046,-0.1235 0.00133,-0.18529c0.00034,-0.02419 0.08047,-0.32265 0.21503,-0.80757c-1.44393,-1.57914 -0.06484,-3.42208 -0.06484,-3.42208zM145.50166,174.55337c0.12362,0.24787 -0.00427,-0.5638 0.08244,-0.82687c0.00634,-0.01923 0.01269,-0.03846 0.01906,-0.05768c-0.31241,-0.39662 -0.6231,-0.79484 -0.9323,-1.1944c0.23117,0.71195 0.49693,1.40956 0.83079,2.07895z" fill="#ffea00" stroke="none" stroke-width="0.5"/><path d="M278.32681,36.02965c-1.6579,-2.2062 0.5483,-3.8641 0.5483,-3.8641l1.81671,-1.36521c7.9668,-5.98425 15.13593,-12.74183 23.12278,-18.73773c2.35413,-1.7673 4.37592,-4.09851 7.06239,-5.30189l3.5312,-2.65094v0c1.21889,-0.91505 2.94879,-0.66873 3.86384,0.55016c0.76707,1.02178 0.71802,2.40265 -0.03593,3.36159l-1.72695,2.30307c-3.16241,4.21208 -5.57674,9.0883 -8.99721,13.08261c-4.3775,5.11188 -10.19855,9.13384 -15.36798,13.37793c-8.57418,7.03938 -17.41097,13.67362 -26.28206,20.33333c0,0 -2.207,1.65684 -3.86384,-0.55016c-1.65684,-2.207 0.55016,-3.86384 0.55016,-3.86384c8.80719,-6.61175 17.58112,-13.19663 26.09346,-20.18523c4.8978,-4.02108 10.50365,-7.82734 14.65374,-12.6736c0.31442,-0.36716 0.62023,-0.74235 0.91884,-1.12425c-6.84864,5.40089 -13.21971,11.23864 -20.20664,16.49136l-1.81671,1.36521c0,0 -2.2062,1.6579 -3.8641,-0.5483z" fill="#ffea00" stroke="none" stroke-width="0.5"/></g></g></svg>