<svg version="1.1" xmlns="http://www.w3.org/2000/svg" xmlns:xlink="http://www.w3.org/1999/xlink" width="203.6796" height="261.61905" viewBox="0,0,203.6796,261.61905"><defs><linearGradient x1="340.57703" y1="57.4719" x2="340.57703" y2="80.03965" gradientUnits="userSpaceOnUse" id="color-1"><stop offset="0" stop-color="#cb00ff"/><stop offset="1" stop-color="#ff0000"/></linearGradient><linearGradient x1="339.42297" y1="289.96033" x2="339.42297" y2="312.5281" gradientUnits="userSpaceOnUse" id="color-2"><stop offset="0" stop-color="#ffc000"/><stop offset="1" stop-color="#5aff00"/></linearGradient><linearGradient x1="337.74844" y1="77.21111" x2="337.74844" y2="289.61333" gradientUnits="userSpaceOnUse" id="color-3"><stop offset="0" stop-color="#ff0000"/><stop offset="1" stop-color="#ffc800"/></linearGradient><linearGradient x1="338.41223" y1="95.79635" x2="338.41223" y2="273.68319" gradientUnits="userSpaceOnUse" id="color-4"><stop offset="0" stop-color="#704100"/><stop offset="1" stop-color="#ff0000"/></linearGradient></defs><g transform="translate(-238.41534,-54.19048)"><g stroke-miterlimit="10"><path d="M260.26244,80.03965l-14.60266,-21.66503l189.8345,-0.90271l-17.25767,22.56772z" fill="url(#color-1)" stroke="#000000" stroke-width="6.5"/><path d="M417.08256,289.96038l17.25767,22.56772l-189.8345,-0.90271l14.60266,-21.66503z" fill="url(#color-2)" stroke="#000000" stroke-width="6.5"/><path d="M258.76137,289.61333v-212.40222h157.97414v212.40222z" fill="url(#color-3)" stroke="#000000" stroke-width="6.5"/><path d="M390.18526,184.73977c0,49.1221 -23.17959,88.94342 -51.77305,88.94342c-28.59347,0 -51.77305,-39.82132 -51.77305,-88.94342c0,-49.1221 23.17959,-88.94342 51.77305,-88.94342c28.59347,0 51.77305,39.82132 51.77305,88.94342z" fill="url(#color-4)" stroke="#000000" stroke-width="2.5"/><g><path d="M334.17182,170.201c0,0 -1.7904,-9.66366 -0.70739,-14.2063c1.09399,-4.58875 7.23876,-13.1892 7.23876,-13.1892l12.17578,2.90282c0,0 -6.37793,8.35186 -7.44952,12.8465c-1.10455,4.63298 0.91812,14.54898 0.91812,14.54898z" fill="#773200" stroke="none" stroke-width="0"/><g fill="#ff6900" stroke="none" stroke-width="0"><path d="M323.80261,193.22002c0,16.41828 -7.15613,29.72793 -15.98363,29.72793c-8.82753,0 -15.98363,-13.30965 -15.98363,-29.72793c0,-16.41828 7.15613,-29.72793 15.98363,-29.72793c8.82753,0 15.98363,13.30965 15.98363,29.72793z"/><path d="M338.94323,193.59244c0,17.51806 -7.15613,31.71929 -15.98363,31.71929c-8.82753,0 -15.98363,-14.20121 -15.98363,-31.71929c0,-17.51806 7.15613,-31.71929 15.98363,-31.71929c8.82753,0 15.98363,14.20121 15.98363,31.71929z"/><path d="M372.18105,165.0024c8.82753,0 15.98363,13.30965 15.98363,29.72793c0,16.41828 -7.15613,29.72793 -15.98363,29.72793c-8.82753,0 -15.98363,-13.30965 -15.98363,-29.72793c0,-16.41828 7.15613,-29.72793 15.98363,-29.72793z"/><path d="M357.04043,163.38348c8.82753,0 15.98366,14.20121 15.98366,31.71929c0,17.51806 -7.15613,31.71929 -15.98366,31.71929c-8.82753,0 -15.98363,-14.20121 -15.98363,-31.71929c0,-17.51806 7.15611,-31.71929 15.98363,-31.71929z"/><path d="M340.45766,160.9111c8.82753,0 15.98363,14.83804 15.98363,33.14167c0,18.30363 -7.15613,33.14167 -15.98363,33.14167c-8.82753,0 -15.98363,-14.83804 -15.98363,-33.14167c0,-18.30363 7.15613,-33.14167 15.98363,-33.14167z"/></g><path d="M310.01128,210.00103c-1.72886,0 -1.72886,-1.72886 -1.72886,-1.72886v-1.42238c0,-10.77487 1.30693,-20.60749 6.15657,-30.35887c0,0 0.77318,-1.54633 2.31948,-0.77318c1.54633,0.77318 0.77318,2.31948 0.77318,2.31948c-4.64776,9.23919 -5.79151,18.59754 -5.79151,28.81252v1.42238c0,0 0,1.72886 -1.72886,1.72886z" fill="#ce5600" stroke="none" stroke-width="0.5"/><path d="M329.10939,209.32199c-1.61878,0.60704 -2.22582,-1.01173 -2.22582,-1.01173l-0.93578,-2.57441c-0.10728,-8.89304 1.02316,-22.02421 8.99197,-27.34996c0,0 1.43851,-0.95899 2.39749,0.47949c0.95899,1.43851 -0.47949,2.39749 -0.47949,2.39749c-6.75239,4.48935 -7.38395,16.34631 -7.50775,23.85605l0.77109,1.97725c0,0 0.60704,1.61878 -1.01173,2.22582z" fill="#ce5600" stroke="none" stroke-width="0.5"/><path d="M347.27789,208.86311c-1.72886,0 -1.72886,-1.72886 -1.72886,-1.72886v-0.28447c0,-9.87493 0.2472,-18.54015 6.95919,-26.44367c0,0 1.12512,-1.31264 2.43776,-0.18752c1.31264,1.12512 0.18752,2.43776 0.18752,2.43776c-6.2034,7.15911 -6.12678,15.21905 -6.12678,24.19341v0.28447c0,0 0,1.72886 -1.72886,1.72886z" fill="#ce5600" stroke="none" stroke-width="0.5"/><path d="M364.34657,205.73386c-1.72886,0 -1.72886,-1.72886 -1.72886,-1.72886v-1.70685c0.01329,-6.46171 1.8136,-16.6219 8.23375,-19.25641c0,0 1.61878,-0.60704 2.22582,1.01173c0.60704,1.61878 -1.01173,2.22582 -1.01173,2.22582c-4.76644,1.5271 -6.00063,11.5156 -5.99012,16.01886v1.70685c0,0 0,1.72886 -1.72886,1.72886z" fill="#ce5600" stroke="none" stroke-width="0.5"/><path d="M320.3635,212.91737c0,0 -3.92203,-2.47369 -5.41798,-4.67504c-2.13394,-3.14019 -6.16591,-12.37118 -6.16591,-12.37118l11.58389,6.49828c0,0 8.13966,2.44862 12.43148,2.44862c1.24875,0 6.39982,0.06037 6.39982,0.06037l0.49805,0.16887l2.524,2.91361l3.85158,0.06464l1.39679,-3.6161l6.99067,-2.04003c0,0 3.09122,-2.01673 5.07806,-2.91664c2.95525,-1.33853 10.9322,-4.33507 10.9322,-4.33507c0,0 -3.55774,7.13802 -6.32939,10.21947c-0.7495,0.83325 -6.65768,7.45876 -6.65768,7.45876l-1.81832,-5.65114l-3.64365,1.01258l-0.72672,5.55013l-3.64532,1.61723c0,0 -7.44171,0.418 -9.67034,0.418c-0.741,0 -4.60498,0.28486 -6.0202,-1.13777c-0.23445,-0.2357 -0.84724,-0.79673 -0.84724,-0.79673l0.00348,-4.29768l-4.9289,-0.53763c0,0 -0.62881,4.38493 -1.2763,4.82388c-1.07036,0.72563 -4.54212,-0.87946 -4.54212,-0.87946z" fill="#ffe500" stroke="#000000" stroke-width="1"/><path d="M339.14429,182.37783l8.28505,15.76622h-16.5701z" fill="#ffe500" stroke="#000000" stroke-width="1"/><path d="M319.87198,168.97308l8.28505,15.76622h-16.5701z" fill="#ffe500" stroke="#000000" stroke-width="1"/><path d="M357.42447,168.09297l8.28505,15.76622h-16.5701z" fill="#ffe500" stroke="#000000" stroke-width="1"/></g></g></g></svg>