<svg version="1.1" xmlns="http://www.w3.org/2000/svg" xmlns:xlink="http://www.w3.org/1999/xlink" width="199.00125" height="199.22963" viewBox="0,0,199.00125,199.22963"><g transform="translate(-246.65545,-88.00501)"><g stroke-miterlimit="10"><path d="M288.45745,273.6237c0,0 -2.10109,-5.02518 -2.10109,-21.24601c0,-21.7778 0,-50.13062 0,-63.45852c0,-14.13969 3.08162,-26.27803 3.08162,-26.27803c0,0 1.93522,-7.8275 7.28381,-7.8275c14.74321,0 84.51229,0 111.18317,0c6.46727,0 7.03868,8.38658 7.03868,8.38658c0,0 3.36176,6.37761 3.36176,24.60072c0,21.50321 0,47.82258 0,60.38344c0,13.79309 -2.31122,24.60065 -2.31122,24.60065c0,0 -1.449,8.44762 -7.66857,8.5464c-26.3861,0.41906 -97.03611,1.51751 -112.61936,1.51751c-6.1134,0 -7.24878,-9.22525 -7.24878,-9.22525z" fill="#c7c7c7" stroke="#000000" stroke-width="2.5"/><path d="M291.61705,270.41898c0,0 -1.99717,-4.72679 -1.99717,-19.98435c0,-20.48455 0,-47.15371 0,-59.69017c0,-13.30005 2.92919,-24.71757 2.92919,-24.71757c0,0 1.8395,-7.36267 6.9235,-7.36267c14.01393,0 80.33181,0 105.6834,0c6.14738,0 6.69052,7.88857 6.69052,7.88857c0,0 3.19547,5.99886 3.19547,23.13985c0,20.22626 0,44.98274 0,56.79771c0,12.97403 -2.19689,23.13976 -2.19689,23.13976c0,0 -1.37734,7.94597 -7.28925,8.03888c-25.0809,0.3942 -92.23614,1.42741 -107.04854,1.42741c-5.81099,0 -6.89023,-8.67744 -6.89023,-8.67744z" fill="none" stroke="#8f8f8f" stroke-width="6.5"/><g fill="#ffffff" stroke="none" stroke-width="0"><path d="M385.57986,180.51093c0.1094,-5.1692 1.24792,-9.00565 2.54296,-8.56898c1.29505,0.43667 2.25619,4.9811 2.14679,10.1503c-0.1094,5.1692 -1.24791,9.00565 -2.54296,8.56898c-1.29505,-0.43667 -2.2562,-4.9811 -2.14679,-10.15029z"/><path d="M395.82516,182.61888c0.1094,-5.16918 1.938,-8.77298 4.08427,-8.04927c0.75069,0.25311 1.83419,0.7607 2.40961,1.84887c0.58121,1.09915 3.61878,0.87025 5.7209,3.00985c1.76695,1.79842 2.69961,5.92536 2.66712,7.46037c-0.02914,1.37638 0.2706,6.28806 -1.80795,7.44368c-1.974,1.09746 -0.07995,0.74658 -0.46349,1.45448c-0.72932,1.34615 -7.8903,-2.14997 -8.92236,-2.49793c-2.14627,-0.7237 -3.79749,-5.50083 -3.6881,-10.66998z"/></g><text transform="translate(384.7287,175.5579) scale(0.70437,0.70437)" font-size="40" xml:space="preserve" fill="#ffffff" stroke="#000000" stroke-width="1" font-family="Pixel" font-weight="normal" text-anchor="start"><tspan x="0" dy="0">10%</tspan></text><text transform="translate(248.03173,137.32886) scale(0.97671,0.97671)" font-size="40" xml:space="preserve" fill="#000000" stroke="#ffffff" stroke-width="1" font-family="Pixel" font-weight="normal" text-anchor="start"><tspan x="0" dy="0">You Got!</tspan></text><g><path d="M285.18823,223.86387l6.77049,-38.75136c0,0 19.81037,-10.5782 22.36143,-10.1325c2.52383,0.44096 6.28457,10.5417 5.00872,14.47442c-0.67387,2.07715 -6.48073,-0.69219 -6.48073,-0.69219l-6.77049,38.75136c0,0 -10.05155,8.85136 -13.60546,8.23045c-3.40261,-0.59449 -7.28393,-11.88016 -7.28393,-11.88016z" fill="#593e24" stroke="#000000" stroke-width="1.5"/><path d="M409.41851,238.81736c-3.55391,0.62093 -13.60546,-8.23045 -13.60546,-8.23045l-6.77049,-38.75136c0,0 -5.80686,2.76934 -6.48073,0.69219c-1.27585,-3.93272 2.48489,-14.03346 5.00872,-14.47442c2.55107,-0.4457 22.36143,10.1325 22.36143,10.1325l6.77049,38.75136c0,0 -3.88132,11.28567 -7.28393,11.88016z" fill="#593e24" stroke="#000000" stroke-width="1.5"/><path d="M312.9692,257.12334c0,0 -5.91612,-4.97466 -5.91612,-15.36174c0,-17.56668 0,-42.92244 0,-52.16946c0,-6.74553 2.15133,-11.52972 2.15133,-11.52972c0,0 3.9881,-3.22697 9.5694,-3.22697c8.98055,0 36.74616,0 55.39642,0c10.32748,0 13.01943,1.6135 13.01943,1.6135c0,0 4.84046,5.72517 4.84046,12.06755c0,8.80583 0,33.27299 0,51.09379c0,11.48022 -3.7648,15.36174 -3.7648,15.36174c0,0 -5.88924,4.84046 -13.55727,4.84046c-8.08274,0 -26.78982,0 -42.48853,0c-13.73455,0 -19.25035,-2.68916 -19.25035,-2.68916z" fill="#593e24" stroke="#000000" stroke-width="1.5"/><path d="M326.96119,243.9484c0,0 -2.20811,-1.78068 -2.23148,-2.69231c-0.02414,-0.94096 2.0889,-2.86829 2.0889,-2.86829h41.08657c0,0 4.84769,0.45763 4.84769,2.13868c0,0.5683 -1.28321,3.70706 -1.28321,3.70706z" fill="#291c11" stroke="none" stroke-width="0"/><path d="M367.62596,213.92197c0,-0.76775 0.6224,-1.39014 1.39014,-1.39014c0.76775,0 1.39014,0.6224 1.39014,1.39014c0,0.76775 -0.6224,1.39014 -1.39014,1.39014c-0.76775,0 -1.39014,-0.6224 -1.39014,-1.39014z" fill="#000000" stroke="none" stroke-width="0.5"/><path d="M362.06538,221.49055c0,-0.76775 0.6224,-1.39014 1.39014,-1.39014c0.76775,0 1.39014,0.6224 1.39014,1.39014c0,0.76775 -0.6224,1.39014 -1.39014,1.39014c-0.76775,0 -1.39014,-0.6224 -1.39014,-1.39014z" fill="#000000" stroke="none" stroke-width="0.5"/><path d="M374.26777,221.49055c0,-0.76775 0.6224,-1.39014 1.39014,-1.39014c0.76775,0 1.39014,0.6224 1.39014,1.39014c0,0.76775 -0.6224,1.39014 -1.39014,1.39014c-0.76775,0 -1.39014,-0.6224 -1.39014,-1.39014z" fill="#000000" stroke="none" stroke-width="0.5"/><path d="M325.7671,210.98722c0,-0.76775 0.6224,-1.39014 1.39014,-1.39014c0.76775,0 1.39014,0.6224 1.39014,1.39014c0,0.76775 -0.6224,1.39014 -1.39014,1.39014c-0.76775,0 -1.39014,-0.6224 -1.39014,-1.39014z" fill="#000000" stroke="none" stroke-width="0.5"/><path d="M333.49012,218.24689c0,-0.76775 0.6224,-1.39014 1.39014,-1.39014c0.76775,0 1.39014,0.6224 1.39014,1.39014c0,0.76775 -0.6224,1.39014 -1.39014,1.39014c-0.76775,0 -1.39014,-0.6224 -1.39014,-1.39014z" fill="#000000" stroke="none" stroke-width="0.5"/><path d="M320.05204,219.01918c0,-0.76775 0.6224,-1.39014 1.39014,-1.39014c0.76775,0 1.39014,0.6224 1.39014,1.39014c0,0.76775 -0.6224,1.39014 -1.39014,1.39014c-0.76775,0 -1.39014,-0.6224 -1.39014,-1.39014z" fill="#000000" stroke="none" stroke-width="0.5"/><path d="M358.20386,216.37932c0,3.83877 -3.66518,6.95072 -8.18641,6.95072c-4.52123,0 -8.18641,-3.11196 -8.18641,-6.95072c0,-1.48551 1.78455,-2.2443 2.71945,-3.37391c1.48107,-1.7895 2.69531,-5.2759 5.46696,-5.2759c1.90158,0 3.03391,3.02185 4.42361,3.94539c1.91449,1.27226 3.7628,2.4802 3.7628,4.70442z" fill="#403f3f" stroke="none" stroke-width="0"/><path d="M326.23048,192.69766c0,-5.41695 4.3913,-9.80827 9.80824,-9.80827c5.41695,0 9.80824,4.39132 9.80824,9.80827c0,5.41695 -4.3913,9.80824 -9.80824,9.80824c-5.41695,0 -9.80824,-4.3913 -9.80824,-9.80824z" fill="#ff0000" stroke="none" stroke-width="0"/><path d="M329.38062,193.55428c0,-3.45491 2.80076,-6.25566 6.25566,-6.25566c3.45491,0 6.25566,2.80076 6.25566,6.25566c0,3.45491 -2.80076,6.25566 -6.25566,6.25566c-3.45491,0 -6.25566,-2.80076 -6.25566,-6.25566z" fill="#000000" stroke="none" stroke-width="0"/><path d="M336.17692,190.61953c0,-0.8104 0.65697,-1.46737 1.46737,-1.46737c0.8104,0 1.46737,0.65697 1.46737,1.46737c0,0.8104 -0.65697,1.46737 -1.46737,1.46737c-0.8104,0 -1.46737,-0.65697 -1.46737,-1.46737z" fill="#ff0000" stroke="none" stroke-width="0"/><path d="M354.34234,192.85212c0,-5.41695 4.39132,-9.80824 9.80827,-9.80824c5.41695,0 9.80824,4.39132 9.80824,9.80824c0,5.41695 -4.39132,9.80827 -9.80824,9.80827c-5.41695,0 -9.80827,-4.39132 -9.80827,-9.80827z" fill="#ff0000" stroke="none" stroke-width="0"/><path d="M357.8131,193.70874c0,-3.45491 2.80076,-6.25566 6.25566,-6.25566c3.45491,0 6.25566,2.80076 6.25566,6.25566c0,3.45491 -2.80076,6.25566 -6.25566,6.25566c-3.45491,0 -6.25566,-2.80076 -6.25566,-6.25566z" fill="#000000" stroke="none" stroke-width="0"/><path d="M364.60937,190.77399c0,-0.8104 0.65697,-1.46737 1.46737,-1.46737c0.8104,0 1.46737,0.65697 1.46737,1.46737c0,0.8104 -0.65697,1.46737 -1.46737,1.46737c-0.8104,0 -1.46737,-0.65697 -1.46737,-1.46737z" fill="#ff0000" stroke="none" stroke-width="0"/><path d="M305.01317,204.89799v-1.37912c-0.18731,-1.30217 -0.30425,-2.63083 -0.17559,-3.87586c-0.04568,-0.62488 -0.09241,-1.28757 -0.12945,-1.96291c-0.17657,-0.21809 -0.30643,-0.47558 -0.37429,-0.75723c-0.47681,-0.35011 -0.78632,-0.91469 -0.78632,-1.55158c0,-0.10372 0.00821,-0.20552 0.02401,-0.30481l0.36173,-2.53214l0.2736,0.03909c-0.04224,-0.7907 -0.01642,-1.57897 0.11378,-2.35724l0.04371,-0.0682l-0.02657,-0.00664l0.13266,-0.53068c-0.12183,-0.25251 -0.19011,-0.5357 -0.19011,-0.83485v-2.19847h0.17698l-0.14227,-0.36378c0.26662,-0.69391 0.63812,-1.33692 1.07761,-1.94062c0.00364,-0.09931 0.00785,-0.19709 0.01267,-0.2934l-0.18908,-0.09454l0.22425,-0.4485c0.22604,-2.78934 1.11596,-4.256 4.07961,-5.60708c0,0 1.78609,-0.71442 2.50051,1.07164c0.71442,1.78609 -1.07164,2.50051 -1.07164,2.50051c-0.49028,0.14281 -0.84672,0.30063 -1.1047,0.4873c0.02434,0.06687 0.04507,0.13548 0.06197,0.20558c0.47681,0.35011 0.78632,0.91469 0.78632,1.55158v2.02516c0.29304,-0.18054 0.63817,-0.2847 1.00764,-0.2847c0.97974,0 1.78842,0.73243 1.90833,1.67962l0.36242,2.53688l-0.67813,0.09688c0.40792,2.43031 -0.41259,4.18182 -1.58364,7.69559l-0.71253,2.49389c-0.00926,0.03545 -0.01952,0.07051 -0.0307,0.10513c-0.08244,0.41143 -0.17244,0.82328 -0.27337,1.23612c0,0.00108 0,0.00215 0,0.00326v0.95529l0.34708,0.04958l-0.36242,2.53688c-0.04489,0.35447 -0.18621,0.67885 -0.39687,0.94603l-0.31989,2.23925c-0.02444,0.57613 -0.08785,1.1582 -0.18511,1.76067c0.55078,0.56976 0.55078,1.40543 0.55078,1.40543l-0.07402,2.36055l-0.72114,2.52401c-0.21337,0.81684 -0.95021,1.42208 -1.83064,1.43585c-0.31725,0.23063 -0.7077,0.36665 -1.12991,0.36665c-0.99851,0 -1.81935,-0.76077 -1.91446,-1.7343l-0.1176,-1.05845c-0.16408,-0.28319 -0.258,-0.61211 -0.258,-0.96296v-3.2977h0.05556c-0.03586,-0.36511 -0.0552,-0.73161 -0.05556,-1.09923v-2.93131c0,-0.62352 0.29666,-1.17775 0.75651,-1.52926c-0.01559,-0.09865 -0.0237,-0.19978 -0.0237,-0.30281z" fill="#593e24" stroke="none" stroke-width="0.5"/><path d="M392.20022,197.8922c0.00315,0.01947 0.00628,0.03891 0.00939,0.05838c0.00544,0.0019 0.01085,0.0038 0.01626,0.00572zM388.55531,190.27335c-0.70122,-1.79127 -1.10634,-3.55514 -0.68303,-4.8637c0.11519,-0.35608 0.24969,-0.6739 0.40074,-0.95606c-1.53611,-1.20781 -2.97158,-2.53178 -4.28406,-3.84426c0,0 -1.36024,-1.36024 0,-2.72048c1.36024,-1.36024 2.72048,0 2.72048,0c1.63938,1.63938 3.51739,3.37845 5.56332,4.77937c1.20991,0.26249 2.41487,0.97658 3.30743,1.84511c0.5574,0.2362 1.12324,0.43613 1.69634,0.59272l0.03463,0.02827l0.00516,-0.01547l2.15641,0.71881c0.78606,0.24174 1.35744,0.97363 1.35744,1.83897c0,1.0624 -0.86126,1.92367 -1.92367,1.92367h-2.19847v-0.62876l-0.4002,-0.1334c-0.83808,0.06753 -1.68508,0.07389 -2.43949,-0.03142v1.34044c2.50962,2.21976 3.06384,3.67715 2.34795,5.67092l0.48464,0.16154l-0.62871,1.88614c0.36101,0.53909 0.36101,1.16967 0.36101,1.16967v1.83208c-0.00413,2.98061 -0.08367,5.15043 -0.73281,7.34313v0.61109l0.34023,0.05671l-0.36121,2.16728c-0.13773,0.92723 -0.93713,1.63861 -1.90269,1.63861c-0.23592,0 -0.46194,-0.04247 -0.6708,-0.12019c-0.15966,0.90133 -0.94696,1.58585 -1.89409,1.58585c-1.0624,0 -1.92367,-0.86126 -1.92367,-1.92367v-2.10857c-0.02029,-0.16115 -0.04283,-0.33154 -0.06723,-0.51031c-0.34311,0.31779 -0.80227,0.512 -1.30681,0.512c-1.0624,0 -1.92367,-0.86126 -1.92367,-1.92367v-2.93131h0.40235c0.04417,-0.19922 0.08613,-0.39879 0.12606,-0.59862c-0.32215,-3.13637 0.03447,-6.18672 0.61791,-9.71757l0.06199,-0.09541l-0.03506,-0.01003l0.72114,-2.52401c0.10729,-0.41066 0.34688,-0.76785 0.67049,-1.02329z" fill="#593e24" stroke="none" stroke-width="0.5"/><path d="M333.73488,251.87145l-7.24443,-12.7749l14.76428,0.16015z" fill="#ffffff" stroke="none" stroke-width="0"/><path d="M365.15482,252.8333l-7.24443,-12.7749l14.76428,0.16015z" fill="#ffffff" stroke="none" stroke-width="0"/><path d="M314.22412,237.59173l6.48735,-7.4141c0,0 10.92292,8.21986 19.62903,7.58587c2.18357,-0.15902 7.60639,-5.79429 9.25512,-5.73232c1.79104,0.0673 3.90676,4.54888 6.13858,4.75543c8.64771,0.8004 19.03854,-4.44652 19.03854,-4.44652l7.72304,5.25166c0,0 -13.51333,3.01418 -23.94594,4.60418c-3.73738,0.56959 -6.77046,-1.20604 -8.95421,-1.20604c-2.60403,0 -7.10416,1.66328 -11.69767,0.96404c-10.73773,-1.63453 -23.67383,-4.36219 -23.67383,-4.36219z" fill="#000000" stroke="none" stroke-width="0"/></g><text transform="translate(267.10779,279.83876) scale(0.70437,0.70437)" font-size="40" xml:space="preserve" fill="#ffffff" stroke="#000000" stroke-width="1" font-family="Pixel" font-weight="normal" text-anchor="start"><tspan x="0" dy="0">Cursed Dog</tspan></text></g></g></svg>