<svg version="1.1" xmlns="http://www.w3.org/2000/svg" xmlns:xlink="http://www.w3.org/1999/xlink" width="263.26894" height="245.73933" viewBox="0,0,263.26894,245.73933"><g transform="translate(-198.90484,-74.38852)"><g stroke-miterlimit="10"><path d="M322.59897,257.89263c-37.91349,-9.40792 -61.02183,-47.7695 -51.61393,-85.68299c9.40792,-37.91349 47.76951,-61.02184 85.68299,-51.61394c37.91349,9.40792 61.02183,47.76951 51.61394,85.68299c-9.40792,37.91349 -47.76951,61.02183 -85.68299,51.61394z" fill="#ffea00" stroke="none" stroke-width="0"/><path d="M324.52136,250.14549c-33.63486,-8.34619 -54.13537,-42.37857 -45.78917,-76.01344c8.34619,-33.63486 42.37857,-54.13538 76.01344,-45.78917c33.63486,8.34619 54.13537,42.37858 45.78917,76.01345c-8.34619,33.63486 -42.37857,54.13537 -76.01344,45.78917z" fill="#fffde3" stroke="#000000" stroke-width="0"/><path d="M320.17124,273.63627c1.81745,0.05776 2.55258,1.94911 2.55258,1.94911l-4.28106,4.08092c-2.64627,-1.85811 -5.50755,-3.41984 -8.02686,-5.44675c-3.2175,-2.58866 -4.62791,-6.27226 -8.19319,-8.57767c-2.68197,-1.73422 -3.49948,-0.76068 -6.82313,-2.0554c-4.11067,-1.6013 -7.39419,-4.90012 -10.33972,-8.04101c-1.4122,-1.51219 -2.9868,-3.03059 -4.42107,-4.6436c-6.09591,-2.785 -11.69812,-7.4157 -16.51219,-11.9875c0,0 -1.92827,-1.84147 -0.68299,-3.95332c-2.07525,-3.09266 -4.17902,-6.19857 -5.00462,-9.80846c-0.19288,-0.84334 -0.33595,-1.69326 -0.43692,-2.54739c-0.04165,-0.06863 -0.08246,-0.1378 -0.12234,-0.20757c-4.46517,-7.81128 -4.29934,-17.5758 -4.21501,-26.20326c0,0 0.02925,-2.98485 3.0141,-2.95562c2.98486,0.02925 2.95562,3.0141 2.95562,3.0141c-0.03209,3.26653 -0.12762,6.79266 0.09827,10.29684c0.56202,-0.8211 1.6147,-1.684 3.46352,-1.22523h-0.00001c3.22799,0.801 2.42699,4.02898 2.42699,4.02898l-0.36792,1.42604c-0.54487,3.49402 -1.07182,7.22284 -0.67496,10.81744c0.50088,0.64286 0.99906,1.28734 1.40105,1.99324c0.39743,0.69788 0.23618,1.6722 0.74963,2.28975c0.51908,0.62432 1.50325,0.6639 2.13261,1.17686c4.04351,3.29556 9.45314,7.65502 12.15975,12.24986c0.83347,1.41494 1.02485,3.13936 1.80805,4.58275c0.13634,0.25128 0.28366,0.49967 0.44043,0.74532c1.6235,-1.07852 3.48744,0.04923 3.48744,0.04923c5.72186,3.46402 11.47531,6.78004 17.37955,9.91866l2.12392,1.32603c0,0 2.81493,1.77133 1.04361,4.58627l-0.00002,0.00002c-0.23802,0.37826 -0.49489,0.67371 -0.76125,0.90176c3.11511,2.49568 4.57988,5.77529 7.71546,8.23565c1.86944,1.46687 3.9164,2.68814 5.91067,3.98395z" fill="#ffee37" stroke="none" stroke-width="0.5"/><path d="M406.70308,145.58707c2.78223,-1.08139 3.86362,1.70083 3.86362,1.70083l0.5906,1.67953c0.6792,4.00402 2.0301,7.84454 3.58527,11.63801c-0.03481,-0.52296 -0.07866,-1.04492 -0.13274,-1.56573v-0.00001c-0.52761,-0.61964 -0.87836,-1.53607 -0.54936,-2.86198c0.801,-3.22799 4.02898,-2.42699 4.02898,-2.42699l2.92398,2.87965c0.84498,6.36225 0.19398,12.76227 -0.06559,19.18299c0.53503,1.63469 0.99544,3.28863 1.34613,4.97056c1.74036,4.50156 2.85235,8.91348 2.40643,13.80133c-0.03912,0.42879 -0.09451,0.85535 -0.16154,1.28033c0.84505,1.21958 0.45875,2.77636 0.45875,2.77636c-0.62314,2.51124 -1.24629,5.02249 -1.86943,7.53373c0.05792,0.81145 0.10389,1.62198 0.00482,2.42517c-0.25891,2.0991 -0.76898,4.24307 -1.43979,6.37383c0.81089,7.01607 -1.88239,13.28879 -4.70556,20.69328l-0.31597,0.82872c0,0 -0.83909,2.20071 -2.95698,2.19214c1.7283,1.32331 0.77245,3.49463 0.77245,3.49463c-2.35518,5.35003 -5.56488,13.49225 -10.24257,2.40015c-0.61736,-1.46393 0.24757,-3.18287 0.63369,-4.72401c1.36251,-5.4382 3.96896,-10.94857 6.49639,-15.882c1.29762,-2.5329 2.68198,-5.38143 3.78978,-8.30479c-0.20549,-1.56776 -0.65822,-3.17116 -1.43154,-4.83138c0,0 -1.35961,-3.03529 1.67568,-4.39489c0.30692,-0.13747 0.59672,-0.23002 0.86969,-0.28532c0.28578,-1.15167 0.58919,-2.37439 0.88667,-3.57323c0.2161,-2.2133 0.50542,-4.17954 0.73786,-6.03887c-1.77924,-4.50762 -2.82781,-9.34222 -4.78709,-13.7144c-0.80245,-0.57177 -1.61333,-1.61777 -1.16564,-3.4219c0.40278,-1.62316 1.41922,-2.2276 2.33032,-2.42742c0.02653,-0.66475 0.05874,-1.33004 0.09422,-1.99564c-3.04072,-8.33621 -7.53205,-16.27224 -9.0979,-24.99279l-0.27451,-0.54625c0,0 -1.08139,-2.78223 1.70084,-3.86362z" fill="#ffee37" stroke="none" stroke-width="0.5"/><path d="M293.85125,108.32816c0.98442,-0.78062 1.96885,-1.56126 2.95327,-2.34188c2.52461,-3.00829 5.0163,-5.37446 7.93814,-8.31415c0.41022,-2.65442 3.27131,-2.65942 3.27131,-2.65942c7.54797,-0.0113 14.75033,-0.49829 22.27247,-1.32959l3.93886,0.44747c0,0 1.14104,0.13628 2.00159,0.91933c5.55225,1.38501 10.86882,2.88891 15.97552,5.80014v0.00001c0.30774,0.0859 3.05151,0.93774 2.43766,3.85366c2.44621,0.13836 4.87412,0.39294 7.26627,0.86751c1.40423,-0.00081 2.44382,0.07619 4.18813,1.08939c1.10657,0.36347 2.20287,0.78959 3.28705,1.28929c1.48619,0.68498 3.04131,1.38551 4.20137,2.53973c0.92383,0.91918 0.84543,2.59849 1.8258,3.4571c2.33044,2.04097 7.1777,1.21852 8.34631,4.08746c0.18159,0.44581 0.29106,0.9033 0.3467,1.36949l0.12698,-0.01177l0.39497,4.26198c0.15231,1.31645 -0.59184,2.62085 -1.88478,3.12338c-0.94869,0.36874 -1.97103,0.21954 -2.75501,-0.31022l-3.20641,-2.10847l0.01874,-0.02849l-0.12156,-0.04225c-4.50198,-3.53459 -8.02812,-8.1557 -12.37868,-11.66667c-0.11973,-0.09663 -0.2457,-0.18798 -0.37739,-0.27437c-0.4531,-0.13946 -0.79459,-0.23656 -0.94273,-0.27384c-10.41647,-2.62184 -21.17485,-0.53894 -31.57168,-2.42625c-1.78196,-0.32348 -3.55785,-0.86216 -5.15532,-1.71547c-1.48277,-0.79204 -2.3821,-2.51994 -3.94286,-3.14441c-1.3397,-0.53603 -6.69173,1.98366 -7.06358,2.10212c-4.26244,1.358 -9.17872,2.94755 -13.69197,3.77028c-0.4451,0.54771 -0.89185,1.12138 -1.34325,1.72946l-1.05192,1.69209c0,0 -1.77133,2.81493 -4.58627,1.04361v-0.00002c-2.48276,-1.56231 -1.39779,-3.93645 -1.10715,-4.47501zM332.51625,103.7812c2.09116,0.33107 4.20844,0.51283 6.34024,0.6141c-0.29213,-0.18155 -0.59308,-0.36894 -0.90414,-0.56249c0,0 -1.09323,-0.6802 -1.39694,-1.86514c-2.0436,-0.52046 -4.11797,-0.9968 -6.21473,-1.51708c0,0 -0.1073,-0.02663 -0.27791,-0.08973c-1.0198,0.12399 -2.03415,0.23822 -3.04463,0.34307c1.7568,1.26382 3.41912,2.74811 5.4981,3.07726zM310.04599,101.6512c-0.01329,0.02043 -0.02648,0.04037 -0.03956,0.0598c0.06119,-0.02052 0.12239,-0.04101 0.18358,-0.06146c-0.048,0.00057 -0.096,0.00112 -0.14402,0.00166z" fill="#ffee37" stroke="none" stroke-width="0.5"/><path d="M343.33962,287.42823c-1.08139,-2.78223 1.70083,-3.86362 1.70083,-3.86362l3.06165,-1.1744c1.81526,-0.32595 3.84464,0.02938 5.46775,-0.84636c0.49091,-0.26486 0.82658,-0.73907 1.18255,-1.1867c-0.51888,-0.44315 -0.9389,-1.13348 -1.04587,-2.20623h0.00001c-0.32998,-3.30947 2.97947,-3.63947 2.97947,-3.63947l1.1816,-0.11206c1.12482,-0.04573 2.25149,-0.21644 3.37443,-0.13717c0.54566,0.03852 1.21633,0.90552 1.56738,0.48604c0.66236,-0.79148 0.38154,-2.02858 0.5723,-3.04286c0,0 1.18488,-3.10765 4.29254,-1.92276c0.11634,0.04436 0.22664,0.0914 0.33124,0.14088c0.34704,-0.22873 0.61514,-0.33487 0.61514,-0.33487c4.31383,-1.67576 7.33483,-4.05032 11.88155,-5.31387l1.75637,-0.86178c0.59375,-0.76664 1.5038,-1.2452 2.48498,-1.28796c3.80942,-2.87041 7.4291,-6.05792 11.39995,-8.60907c0,0 2.51612,-1.60603 4.12215,0.91009c1.60603,2.51612 -0.91009,4.12215 -0.91009,4.12215c-3.99062,2.52779 -7.62013,5.72563 -11.43577,8.61348c-0.52525,1.14717 -1.68563,1.70985 -1.68563,1.70985l-2.36131,1.13377c-0.53915,0.34373 -1.08508,0.67572 -1.63914,0.9936c-0.88317,0.50671 -2.08305,0.36861 -2.88979,0.98981c-0.65172,0.50184 -0.64503,1.54825 -1.19759,2.15756c-1.3232,1.45905 -6.20669,5.60518 -8.09352,6.71116c-2.62412,1.53816 -4.57285,1.41421 -7.46903,2.28544c-2.35349,0.70798 -4.14251,2.66696 -6.35145,3.74433c-0.56842,0.27723 -5.45901,1.0724 -6.52627,1.25343l-2.50282,0.98838c0,0 -2.78223,1.08139 -3.86362,-1.70084z" fill="#ffee37" stroke="none" stroke-width="0.5"/><path d="M288.44467,266.49115c1.08139,2.78223 -1.70083,3.86362 -1.70083,3.86362l-2.4713,0.62244c-1.92973,-0.19277 -3.90463,-0.12065 -5.78918,-0.5783c-4.5014,-1.09313 -7.67252,-5.31271 -11.7706,-7.4539c-5.66567,-2.96023 -11.7062,-5.06055 -15.22804,-10.94609c-0.21331,-0.35646 -3.02349,-7.63023 -3.2826,-8.29687c-2.73953,-7.04831 -5.47906,-14.09663 -8.21859,-21.14494c0,0 -1.0814,-2.78222 1.70083,-3.86362c2.78223,-1.08139 3.86362,1.70083 3.86362,1.70083c1.19973,3.08669 2.39947,6.1734 3.5992,9.26009c0.61126,-0.22772 1.38066,-0.26597 2.32919,0.09569l-0.00003,-0.00003c3.10766,1.18488 1.92277,4.29254 1.92277,4.29254l-0.11416,-0.68618c0.19019,4.64829 1.9269,5.04127 6.18048,6.55856c0,0 2.05603,0.78392 2.18576,2.74887l0.69388,0.70935c3.36972,4.69182 2.83656,8.5861 8.03403,10.3038c0.69996,-0.37352 1.5352,-0.49935 2.36587,-0.29322c1.78276,0.44237 2.86937,2.24621 2.42699,4.02897c-0.25893,1.04351 -0.98432,1.8485 -1.89891,2.24796c-0.08147,0.08593 -0.16601,0.16416 -0.25286,0.23532c2.11294,1.57169 4.65506,4.28687 6.96222,4.72411c1.59224,0.30175 3.22946,0.2752 4.84419,0.4128l-0.24552,-0.24267c0,0 2.78223,-1.0814 3.86362,1.70083zM256.53976,248.82289c0.7189,1.22349 1.60613,2.25926 2.60833,3.16276c-0.59192,-1.63839 -1.13148,-3.30604 -2.16669,-4.67837l-1.49737,-1.43635c0,0 -0.18556,-0.18491 -0.40063,-0.50302c-0.01189,-0.00435 -0.02376,-0.0087 -0.03561,-0.01304c0.40216,1.20167 0.85266,2.37997 1.49197,3.468z" fill="#ffee37" stroke="none" stroke-width="0.5"/><path d="M333.26969,84.04368c-0.801,3.22799 -4.02898,2.42699 -4.02898,2.42699l-0.43039,-0.10679c-0.8096,-0.30874 -1.58086,-1.10446 -2.4288,-0.9262c-0.99668,0.20952 -1.38079,1.67351 -2.36537,1.93408c-1.95164,0.51648 -4.03293,0.19516 -6.04941,0.29273c0,0 -3.32501,0.07657 -3.40157,-3.24844c-0.01311,-0.56885 0.07337,-1.04261 0.2257,-1.43719c-0.15109,-0.53687 -0.16901,-1.11912 -0.02508,-1.69916c0.44237,-1.78276 2.24622,-2.86936 4.02898,-2.42699c1.21017,0.30029 2.09955,1.22794 2.40765,2.35048c0.22631,-0.02395 0.45034,-0.06494 0.6713,-0.12876c1.24225,-0.35879 1.93909,-1.98768 3.2202,-2.16272c1.78702,-0.24415 3.54558,0.66412 5.31837,0.99618l0.43038,0.10679c0,0 3.22799,0.801 2.42699,4.02897z" fill="#fff15b" stroke="none" stroke-width="0.5"/><path d="M435.36617,192.76216c-3.22799,-0.801 -2.42699,-4.02898 -2.42699,-4.02898l0.75926,-2.77778c-0.0736,-0.39254 -0.1686,-0.79262 -0.27766,-1.19882c-1.11687,-0.76092 -1.69973,-2.16214 -1.35521,-3.55057c0.03631,-0.14635 0.08182,-0.28803 0.13571,-0.42455c-0.63811,-2.20147 -1.03833,-4.44336 -0.21665,-6.53201c0.04491,-0.11415 0.09218,-0.22704 0.14169,-0.33875l-0.07356,-0.01826l0.8544,-3.44318c0.44237,-1.78276 2.24622,-2.86936 4.02898,-2.42699c1.41038,0.34997 2.38507,1.55205 2.51164,2.92168l0.40487,3.48854c0.72302,2.58967 1.11842,5.27482 1.33888,7.95442c0,0 0.13589,1.72693 -1.03481,2.78622c0.07165,0.3494 0.1352,0.70036 0.1879,1.05345l-0.94951,4.10858c0,0 -0.801,3.22799 -4.02898,2.42699z" fill="#fff15b" stroke="none" stroke-width="0.5"/><path d="M261.62104,165.64027c-1.78276,-0.44237 -2.86937,-2.24622 -2.42699,-4.02898c0.44237,-1.78276 2.24622,-2.86937 4.02898,-2.42699c1.78276,0.44237 2.86936,2.24622 2.42699,4.02898c-0.44237,1.78276 -2.24621,2.86937 -4.02897,2.42699z" fill="#fff15b" stroke="none" stroke-width="0.5"/><path d="M362.47757,292.9511c-2.21147,-2.00489 -0.2066,-4.21636 -0.2066,-4.21636l1.96736,-2.15473c3.66997,-3.33065 7.74666,-3.84568 11.88279,-5.93659c0.02473,-0.08427 0.05297,-0.16821 0.08479,-0.25167c0.53767,-1.41017 1.93095,-2.24284 3.36286,-2.13206c2.11464,-1.70262 4.80584,-3.97388 4.98861,-4.12553c0,0 2.29749,-1.90572 4.20321,0.39177c1.90572,2.29749 -0.39177,4.2032 -0.39177,4.2032c-1.2704,1.05351 -6.56855,5.56901 -8.27062,6.55055c-3.96148,2.28448 -8.44904,2.41868 -11.7852,5.66358l-1.61908,1.80128c0,0 -2.00489,2.21148 -4.21636,0.2066z" fill="#ffee37" stroke="none" stroke-width="0.5"/><path d="M303.1325,82.87071c0.02925,-2.98486 3.0141,-2.95562 3.0141,-2.95562c6.15938,0.08841 11.66728,2.32235 17.87677,0.52175c5.82478,-1.68903 11.59024,-5.96958 17.80155,-6.04783c3.48122,-0.04385 9.38457,2.88718 11.90698,5.12694c1.41168,1.2535 2.24241,3.0639 3.61585,4.35917c0.0922,0.08696 0.18829,0.17164 0.28793,0.25418c2.24377,0.22968 4.46945,0.51061 6.3646,1.55746c0.039,0.02154 0.07793,0.04319 0.11681,0.06492l0.00804,-0.02163l5.58181,2.07513c0.77711,0.28482 1.43265,0.88962 1.75606,1.7217c0.59724,1.53658 -0.16426,3.26639 -1.70084,3.86363c-0.2067,0.08034 -0.41689,0.1361 -0.62735,0.16868l-2.93779,0.51431l-0.07972,-0.45539l-0.92832,0.45907c-2.26676,-1.17175 -5.3878,-2.14055 -8.08825,-3.41385c-3.31086,-0.45455 -6.61206,-1.43854 -9.10105,-2.67287c-1.26276,-0.62622 -1.87394,-2.23044 -3.15777,-2.81223c-0.45314,-0.20535 -0.92492,0.21678 -1.40797,0.45293c0.68845,0.56369 1.26507,1.50024 1.0073,3.03062l-0.00001,0.00004c-0.55241,3.27967 -3.83209,2.72726 -3.83209,2.72726l-2.86224,-0.54761c-4.03697,-1.82391 -5.58443,-0.08866 -10.15366,-0.26113c-7.10909,-0.26832 -14.3743,-2.03704 -21.47808,-2.88846c0,0 -3.30226,-0.39579 -2.90646,-3.69804c0.00793,-0.06618 0.01703,-0.13088 0.02725,-0.19412c-0.06918,-0.27252 -0.10684,-0.58066 -0.10343,-0.92908z" fill="#ffee37" stroke="none" stroke-width="0.5"/><path d="M431.42026,229.83733c-2.732,-1.20267 -1.52932,-3.93466 -1.52932,-3.93466l0.71343,-1.39943c0.59039,-0.71627 1.18079,-1.43254 1.77118,-2.14881c0.71369,-4.13106 1.20116,-7.96902 1.37585,-11.99329c-0.90065,-1.36134 -0.25862,-3.04521 -0.25862,-3.04521l0.21349,-0.5136c0.02379,-0.08421 0.04681,-0.16816 0.0691,-0.25188c-0.2503,-4.28841 -1.53909,-8.70193 -1.01728,-13.04383c0.13109,-1.0909 0.36355,-2.17325 0.6024,-3.25423c0.00354,-0.32627 0.01362,-0.65625 0.03122,-0.99037c0.10496,-1.99165 0.5708,-3.74202 0.7398,-5.56127c-0.07418,-1.50325 -0.231,-2.99713 -0.4525,-4.4831c-0.49698,-1.35218 -1.48393,-2.54259 -1.73836,-3.96112c-0.15236,-0.84949 0.22765,-1.71313 0.39283,-2.57202c-0.25792,-1.01315 -0.53406,-2.02357 -0.82247,-3.03177c-0.23687,-0.3877 -0.4807,-0.77319 -0.677,-1.17381c0,0 -0.42238,-0.94296 -0.27072,-2.01313c-1.59099,-5.19126 -3.34253,-10.3369 -4.43427,-15.50499c0,0 -0.60928,-2.92215 2.31286,-3.53144c2.92215,-0.60928 3.53144,2.31287 3.53144,2.31287c1.02959,5.01326 2.68246,9.99186 4.23226,15.00788c0.47313,0.50537 0.69899,1.00961 0.69899,1.00961c0.68246,1.62197 1.71933,3.13707 2.04737,4.86593c0.15748,0.82993 -0.21408,1.67683 -0.38651,2.51811c0.20864,0.87442 0.40228,1.75113 0.57722,2.63051c0.40718,0.69432 0.8877,1.36621 1.09451,2.13276c1.16847,4.33112 0.05182,7.78245 -0.2199,11.94473c-0.44151,6.76312 1.91227,11.80581 0.10924,18.69015l-0.36359,0.99389c-0.13593,5.16389 -0.8801,10.0412 -1.94552,15.27355c-0.83187,1.11755 -1.66374,2.2351 -2.49561,3.35265l0.0331,0.14602c0,0 -1.20267,2.732 -3.93466,1.52932z" fill="#ffee37" stroke="none" stroke-width="0.5"/><path d="M260.1436,135.98874c0.00841,-0.02688 0.01682,-0.05377 0.02524,-0.08066c0,0 0.89362,-2.8481 3.74172,-1.95448c1.11151,0.34875 1.65314,0.99517 1.90039,1.65382c0.07003,-0.18353 0.15352,-0.36193 0.25418,-0.53379c0.81615,-1.39354 2.50044,-2.07453 3.52844,-3.32004c2.45134,-2.97004 4.23475,-6.43335 6.36264,-9.64307c0,0 1.64937,-2.48794 4.1373,-0.83856c2.48793,1.64937 0.83856,4.1373 0.83856,4.1373c-0.29187,0.44026 -6.6412,10.03194 -6.83232,10.26036c-0.77874,0.93072 -2.17211,1.27802 -2.81731,2.30583c-0.46972,0.74828 -0.11091,1.7689 -0.28436,2.63521c-0.392,1.95782 -0.9907,3.90425 -1.63139,5.83448c0.19152,0.0431 0.39149,0.1033 0.60011,0.18284l0.00003,0.00001c0.05829,0.02223 0.11507,0.04512 0.17038,0.06866c0.45662,-1.87151 0.90879,-3.71901 1.50383,-5.36269l0.90325,-3.1328c0,0 0.82842,-2.86774 3.69616,-2.03933c2.86774,0.82842 2.03933,3.69616 2.03933,3.69616l-0.96187,3.32369c-1.56685,4.30681 -2.21036,9.72047 -4.24927,13.81581c-1.641,3.2961 -4.14937,6.21255 -6.7286,9.001l-1.33863,3.04084c-0.20925,0.47534 -0.54178,0.8964 -0.97467,1.21112c-0.42168,0.86873 -1.28876,1.78603 -3.06779,1.71035c-3.32288,-0.14135 -3.18152,-3.46423 -3.18152,-3.46423c0.08387,-1.81872 0.06255,-3.4288 0.26554,-5.03305c-1.16309,-0.03389 -2.24854,-0.75041 -2.69658,-1.90315c-0.06759,-0.17389 -0.11778,-0.35025 -0.1514,-0.52716l-0.72974,-3.4999l0.04849,-0.01011c-0.03282,-0.09101 -0.06409,-0.18273 -0.0937,-0.27521c-0.13779,-0.43034 -0.24313,-0.87456 -0.31974,-1.33024c-0.46272,0.03039 -0.93923,-0.036 -1.40087,-0.21202c-1.7163,-0.6544 -2.57716,-2.57623 -1.92277,-4.29254c0.57854,-1.51735 2.14772,-2.36608 3.6897,-2.09028c0.70383,-3.37638 1.93856,-6.78061 2.62601,-9.51058l0.84293,-2.01903c0,0 0.68891,-1.56492 2.20832,-1.80457z" fill="#ffee37" stroke="none" stroke-width="0.5"/><path d="M239.13848,254.1193c0.27702,-2.97211 3.24914,-2.69509 3.24914,-2.69509l2.93127,0.77672c2.60873,2.13177 3.81509,2.85608 5.18321,4.55258c0.97054,0.19038 1.82554,0.85865 2.21035,1.8487c0.21256,0.54687 0.25301,1.11823 0.14767,1.65429c0.34133,0.53892 0.65116,1.11073 0.60631,1.6761l1.86859,2.25272c0.22,0.25294 0.4008,0.54752 0.52923,0.87795c0.59724,1.53658 -0.16426,3.26639 -1.70084,3.86363c-1.19424,0.46418 -2.50521,0.10761 -3.31047,-0.7957l-2.14682,-2.29886l0.12633,-0.11798c-0.1606,-0.10504 -0.31815,-0.21526 -0.47225,-0.33134c-0.62663,-0.47201 -0.67113,-1.36693 -0.87541,-2.1667c-0.11024,-0.27585 -0.22048,-0.5517 -0.33073,-0.82754c-1.66111,-2.84552 -2.93632,-3.41774 -5.59343,-5.5493l0.27293,0.52894c0,0 -2.97212,-0.27702 -2.69509,-3.24914z" fill="#ffee37" stroke="none" stroke-width="0.5"/><path d="M455.44141,195.17795c-2.87462,-0.80422 -2.0704,-3.67884 -2.0704,-3.67884l0.75981,-2.69445c0.58181,-3.90163 2.49602,-8.38478 2.01611,-12.33448c-0.46911,-3.86079 -1.45479,-7.64139 -2.12554,-11.4723c0,0 -0.51475,-2.94028 2.42552,-3.45503c2.94028,-0.51475 3.45503,2.42552 3.45503,2.42552c0.70188,4.00956 1.77749,7.96363 2.1949,12.0127c0.48297,4.68495 -1.43849,9.47372 -2.12795,14.07167l-0.84864,3.05479c0,0 -0.80422,2.87462 -3.67884,2.0704z" fill="#ffee37" stroke="none" stroke-width="0.5"/><path d="M261.64356,269.62336c0.6635,1.83391 1.32225,4.47756 -0.00418,5.88155c0.15821,0.31897 0.25694,0.71705 0.25694,1.21385c0,2.5 -2.5,2.5 -2.5,2.5l-1.42848,-0.17881c-3.12244,-1.30722 -5.00132,-3.19556 -6.57832,-5.47854c-6.86839,-3.62427 -11.49656,-11.69479 -12.4739,-19.03256c0,0 -0.31009,-2.48069 2.17061,-2.79078c2.48069,-0.31009 2.79078,2.17061 2.79078,2.17061c0.25155,2.18907 0.76941,3.99079 1.52793,5.60089c0.10628,-1.28282 1.18111,-2.2908 2.49137,-2.2908c0.61475,0 1.17768,0.22189 1.61307,0.58995l2.14629,1.78857c2.49197,2.08124 8.84994,6.88079 9.98789,10.02608zM255.0083,269.72045c-0.501,-0.58383 -0.97376,-1.18046 -1.48007,-1.76806c0.32374,0.55351 0.64922,1.10222 0.98872,1.63479c0.16096,0.04582 0.32547,0.08989 0.49135,0.13327z" fill="#ffea00" stroke="none" stroke-width="0.5"/><path d="M271.19662,273.66117c-0.93639,-1.17814 -1.89962,-2.31787 -3.16483,-3.09368c-3.2215,-1.9754 -6.00606,-2.38402 -8.87706,-5.05517c-2.81997,-2.62366 -3.17505,-6.40894 -4.93782,-9.56875c-1.99937,-3.58393 -4.60934,-6.93233 -6.55142,-10.59637c-2.58923,-4.88498 -3.98586,-10.14532 -5.64808,-15.35982c-1.20001,-3.76452 -3.11734,-7.83958 -2.11257,-11.97482c0.01631,-0.06711 0.03348,-0.13393 0.05148,-0.20047l-0.02599,-0.00433l0.49324,-2.95946c0.179,-1.20503 1.21791,-2.12954 2.47274,-2.12954c0.77872,0 1.47428,0.35604 1.93278,0.91421l2.48778,2.98533l-0.00504,0.0042l0.02241,0.01687c1.31743,1.65364 4.34941,5.3796 4.88691,6.66004c0.81097,1.93193 0.67178,5.70093 0.67518,7.91935c0,0 0,2.5 -2.5,2.5c-2.5,0 -2.5,-2.5 -2.5,-2.5c0.00192,-1.13282 0.10636,-5.09852 -0.32482,-6.08065c-0.13005,-0.29622 -1.37275,-1.89257 -2.48835,-3.30122c-0.02781,0.88565 -0.04171,1.81493 0.22788,2.73444c1.80533,6.15757 3.78224,12.81801 6.81612,18.51899c1.91467,3.59787 4.49366,6.87262 6.44858,10.40363c1.43205,2.5866 1.75493,6.36021 4.06218,8.43125c1.45501,1.30605 4.6398,2.629 6.77288,3.70351c0.20785,-0.23646 0.48984,-0.45718 0.8675,-0.64601c2.23607,-1.11803 3.3541,1.11803 3.3541,1.11803l0.5,1c0.70285,1.41198 1.30728,2.87105 1.86449,4.34893c0.28969,0.50107 0.60071,0.98301 1.02351,1.36848c1.08231,0.98674 2.47381,1.59467 3.67786,2.42683c0.32655,-0.02907 0.65269,-0.03892 0.97784,-0.01049c7.44842,0.65113 15.37614,3.14086 22.16652,6.16907c1.60772,0.71697 3.47919,1.01796 4.81941,2.15929c0.07184,0.06118 0.1417,0.12412 0.20974,0.18868l0.02457,-0.03276l1.97672,1.48254c0.62044,0.45492 1.02328,1.18914 1.02328,2.01746c0,1.38071 -1.11929,2.5 -2.5,2.5c-0.08955,0 -0.17801,-0.00471 -0.26512,-0.01389l-2.52626,-0.23673l0.00259,-0.02765l-0.07617,0.01965c-9.82254,-1.51865 -18.46314,-5.24071 -27.53178,-9.16796c-0.02781,-0.02754 -0.05583,-0.05483 -0.08405,-0.08187c-1.25049,0.0852 -2.49903,0.19307 -3.63723,-0.25548c-2.10856,-0.83097 -3.2052,-3.61285 -4.08166,-6.29366z" fill="#ffea00" stroke="none" stroke-width="0.5"/><path d="M359.47433,286.86906c-0.01384,0.00042 -10.013,0.30345 -10.01429,0.30339c-0.54803,-0.02364 -1.06875,-0.61766 -1.58659,-0.43674c-0.70308,0.24563 -0.28914,1.74783 0.29064,2.21528c0.43077,0.34732 1.07986,0.2763 1.63269,0.30005c4.76933,0.20491 9.61764,-0.03225 14.39334,-0.02376c1.8957,-0.32113 3.77856,-0.70584 5.65552,-1.12015c-0.34578,-0.38098 -0.57562,-0.86912 -0.63377,-1.4087c-3.24686,0.02249 -6.49301,0.07222 -9.73753,0.17063zM387.8457,286.71822c0.00069,0.00341 0.00138,0.00682 0.00206,0.01025c0.49029,2.45145 -1.96116,2.94174 -1.96116,2.94174l-2.5,0.5c-6.28351,1.256 -12.45917,3.00021 -18.78409,4.04003c-4.86336,0.00796 -10.82475,0.82427 -15.60666,-0.02376c-1.53816,-0.27278 -3.29551,-0.56346 -4.36731,-1.69995c-1.99709,-2.11763 -2.33376,-6.14034 -0.66353,-8.69032c-0.43887,0.11935 -0.88275,0.22593 -1.33277,0.31658l-3.80417,1.42657c-0.28795,0.11572 -0.60242,0.17941 -0.93176,0.17941c-1.38071,0 -2.5,-1.11929 -2.5,-2.5c0,-1.05134 0.64897,-1.9511 1.56816,-2.32056l3.44704,-1.4773l0.01506,0.03514c0.0567,-0.03615 0.1139,-0.07165 0.17162,-0.10646c1.56339,-0.94285 3.45497,-1.28385 5.37601,-1.48181c2.97015,-1.13213 5.83237,-2.48834 8.99315,-3.11194c1.73622,-0.34254 3.52188,-0.29054 5.29644,-0.3441c0.93802,-0.35534 1.86458,-0.70803 2.77261,-1.04043c6.51847,-2.38621 11.39086,-6.29392 16.83653,-9.99524c0.13922,-1.49781 1.7328,-2.029 1.7328,-2.029l4.44464,-1.48155c0.2642,-0.09499 0.54902,-0.14675 0.84593,-0.14675c1.38071,0 2.5,1.11929 2.5,2.5c0,0.99801 -0.58479,1.85943 -1.43041,2.26029l-2.87267,1.43634c-3.24795,2.01946 -6.04759,4.38319 -9.11457,6.52074c0.62364,0.2539 1.25217,0.80314 1.39835,1.97255c0.31009,2.48069 -2.17061,2.79078 -2.17061,2.79078c-4.00532,0.50041 -7.96042,1.46157 -11.93168,1.9905c-0.49005,0.06527 -0.98291,0.10566 -1.4773,0.13212c-3.82729,1.28281 -7.7592,2.23832 -11.46797,2.78844c2.99318,-0.1702 5.99619,-0.14842 8.99343,-0.23916c5.6009,-0.16956 11.20742,-0.21028 16.81467,-0.20737c0.05151,-0.015 0.10356,-0.02975 0.15611,-0.04424c0.34697,-0.28439 0.69395,-0.56877 1.04092,-0.85316c0,0 1.78296,-1.42637 3.30415,0.15113c1.03358,-0.09941 1.93143,-0.1597 2.4628,-0.21739c7.31818,-0.7945 14.44144,-0.98156 21.79479,-0.98156h5c1.38071,0 2.5,1.11929 2.5,2.5c0,1.21151 -0.86176,2.22174 -2.00574,2.45115l-4.83287,1.07397c-4.79541,2.03491 -11.57807,0.97488 -16.66139,0.97488c-0.35019,0 -0.7004,-0.00019 -1.05061,-0.00054z" fill="#ffea00" stroke="none" stroke-width="0.5"/><path d="M432.31517,225.31055c1.06188,-6.54605 0.17291,-13.08783 0.58678,-19.74202c0.33846,-5.44183 2.16809,-9.19841 3.79719,-14.28624c0.85616,-2.67385 1.62633,-5.43196 3.05344,-7.84977c0,0 1.28624,-2.14373 3.42997,-0.85749c2.14373,1.28624 0.85749,3.42997 0.85749,3.42997c-1.26571,2.0666 -1.84281,4.48859 -2.57773,6.79786c-1.48533,4.66719 -3.29415,8.05951 -3.56667,13.01649c-0.41563,7.56016 0.58734,14.90872 -1.04143,22.35886l-0.48517,2.911c-0.179,1.20503 -1.21791,2.12954 -2.47274,2.12954c-1.38071,0 -2.5,-1.11929 -2.5,-2.5c0,-0.11851 0.00825,-0.23509 0.0242,-0.34921l0.49511,-3.96088l4.96139,0.62017l-0.13511,1.08084l0.1204,0.02007l-0.00808,0.04846c-0.00127,0.00579 -0.00253,0.01158 -0.0038,0.01737l-3.31472,4.99702l-1.40119,-5.86736l-0.1923,-0.08332c0.02832,-0.12553 0.0558,-0.25106 0.08247,-0.37658l-0.10906,-0.45667c0,0 0.06862,-0.54896 0.39954,-1.09812z" fill="#ffea00" stroke="none" stroke-width="0.5"/><path d="M452.89632,177.71876c2.5,0 2.5,2.5 2.5,2.5l-0.15918,0.62219c0.42836,1.14231 0.83634,2.29287 1.25839,3.43781c0.14579,-8.68303 0.40079,-17.34778 0.40079,-26.06c0,0 0,-2.5 2.5,-2.5c2.5,0 2.5,2.5 2.5,2.5c0,12.19973 -0.5,24.30658 -0.5,36.5v3c0,1.38071 -1.11929,2.5 -2.5,2.5c-1.1506,0 -2.11966,-0.7773 -2.4107,-1.83543l-1.4206,-4.73533l0.30877,-0.09263c-1.82381,-3.4867 -3.34046,-7.01795 -4.81829,-10.9588l-0.15918,-2.37781c0,0 0,-2.5 2.5,-2.5z" fill="#ffea00" stroke="none" stroke-width="0.5"/><path d="M234.36822,149.80539c0.96811,-4.02215 1.98541,-7.9976 2.75171,-12.0846c1.2308,-6.56435 2.09453,-13.05697 4.43556,-19.33439c0,0 0.87781,-2.34082 3.21863,-1.46301c2.34082,0.87781 1.46301,3.21863 1.46301,3.21863c-2.26075,5.99223 -3.0317,12.25375 -4.20843,18.52955c-1.02303,5.4561 -2.48694,10.70763 -3.69192,16.13496l-0.98932,4.45193c-0.22941,1.14398 -1.23964,2.00574 -2.45115,2.00574c-1.38071,0 -2.5,-1.11929 -2.5,-2.5l0,-6.5c0,0 0,-2.13421 1.97191,-2.45882z" fill="#ffea00" stroke="none" stroke-width="0.5"/><path d="M435.66025,289.24588c-1.11803,-2.23607 1.11803,-3.3541 1.11803,-3.3541l0.55974,-0.21885c2.1021,-1.67111 3.9311,-3.66015 5.93574,-5.447c2.59102,-2.30952 5.1705,-3.79495 6.97882,-6.88432c0,0 1.28624,-2.14373 3.42997,-0.85749c2.14373,1.28624 0.85749,3.42997 0.85749,3.42997c-3.23148,5.28461 -9.23896,9.79596 -14.08543,13.66868l-1.44026,0.78115c0,0 -2.23607,1.11803 -3.3541,-1.11803z" fill="#ffea00" stroke="none" stroke-width="0.5"/><path d="M357.39632,317.62785c0,-2.5 2.5,-2.5 2.5,-2.5h1c12.32533,0.01965 26.1175,-2.7288 37.57152,-7.32119c0,0 2.32119,-0.92848 3.24967,1.39272c0.92848,2.32119 -1.39272,3.24967 -1.39272,3.24967c-12.07301,4.81868 -26.44344,7.65966 -39.42848,7.67881h-1c0,0 -2.5,0 -2.5,-2.5z" fill="#ffea00" stroke="none" stroke-width="0.5"/><path d="M232.52461,296.83728c0.79057,-2.37171 3.16228,-1.58114 3.16228,-1.58114l4.61344,1.54088c14.3513,6.36799 28.67391,12.10841 43.45035,17.48135c0,0 2.34948,0.85436 1.49513,3.20384c-0.85436,2.34948 -3.20384,1.49513 -3.20384,1.49513c-14.80665,-5.38455 -29.17512,-11.11904 -43.54965,-17.51865l-4.38656,-1.45912c0,0 -2.37171,-0.79057 -1.58114,-3.16228z" fill="#ffea00" stroke="none" stroke-width="0.5"/><path d="M200.90603,214.67639c2.45145,-0.49029 2.94174,1.96116 2.94174,1.96116l0.01942,0.0971c1.171,5.85935 2.51523,10.90094 2.52913,16.89319c0,0 0,2.5 -2.5,2.5c-2.5,0 -2.5,-2.5 -2.5,-2.5c0.01441,-5.63086 -1.32661,-10.38951 -2.43203,-15.91261l-0.01942,-0.0971c0,0 -0.49029,-2.45145 1.96116,-2.94174z" fill="#ffea00" stroke="none" stroke-width="0.5"/><path d="M230.89632,192.12785c-2.5,0 -2.5,-2.5 -2.5,-2.5v-4.5c0,0 0,-2.5 2.5,-2.5c2.5,0 2.5,2.5 2.5,2.5v4.5c0,0 0,2.5 -2.5,2.5z" fill="#ffea00" stroke="none" stroke-width="0.5"/><path d="M414.6171,114.74597c-1.02721,-2.27922 1.25201,-3.30643 1.25201,-3.30643l0.99739,-0.40155c5.58729,-3.91083 11.96105,-7.25035 16.76205,-12.087c0,0 1.76777,-1.76777 3.53553,0c1.76777,1.76777 0,3.53553 0,3.53553c-5.07086,5.03834 -11.57585,8.54925 -17.43027,12.64762l-1.81029,0.86383c0,0 -2.27922,1.02721 -3.30643,-1.25201z" fill="#ffea00" stroke="none" stroke-width="0.5"/></g></g></svg>