<svg version="1.1" xmlns="http://www.w3.org/2000/svg" xmlns:xlink="http://www.w3.org/1999/xlink" width="356.17733" height="323.2619" viewBox="0,0,356.17733,323.2619"><g transform="translate(-184.10697,-26.67561)"><g stroke-miterlimit="10"><path d="M349.11636,257.77702c-46.84931,0.54346 -85.26874,-36.99485 -85.81222,-83.84415c-0.54346,-46.84931 36.99486,-85.26876 83.84415,-85.81223c46.84931,-0.54346 85.26875,36.99486 85.81223,83.84415c0.54346,46.84931 -36.99486,85.26875 -83.84415,85.81223z" fill="#ffea00" stroke="none" stroke-width="0"/><path d="M349.00531,248.20396c-41.56224,0.48215 -75.64595,-32.81986 -76.1281,-74.38211c-0.48215,-41.56224 32.81986,-75.64596 74.38211,-76.1281c41.56224,-0.48215 75.64596,32.81987 76.1281,74.38213c0.48215,41.56224 -32.81986,75.64595 -74.38211,76.1281z" fill="#fffde3" stroke="#000000" stroke-width="0"/><path d="M351.05856,276.78413c2.12691,-0.48245 3.55199,1.49051 3.55199,1.49051l-3.73504,6.03093c-3.63322,-1.35656 -7.42639,-2.30412 -10.96329,-3.89498c-4.51711,-2.03178 -7.26783,-5.88078 -12.10296,-7.47865c-3.6372,-1.20197 -4.29171,0.17515 -8.54081,-0.3227c-5.25526,-0.61574 -10.0637,-3.45181 -14.43211,-6.20677c-2.09629,-1.32818 -4.38296,-2.61446 -6.53535,-4.05298c-7.91734,-1.38939 -15.81969,-5.07029 -22.78948,-8.92112c0,0 -2.79483,-1.55433 -1.98798,-4.38198c-3.34372,-2.96211 -6.72454,-5.93097 -8.77422,-9.87123c-0.47885,-0.92052 -0.90187,-1.86374 -1.27731,-2.82457c-0.06909,-0.06706 -0.13737,-0.13501 -0.20475,-0.20393c-7.54426,-7.71627 -10.30403,-19.09975 -12.81461,-29.13884c0,0 -0.8685,-3.47326 2.60475,-4.34178c3.47327,-0.8685 4.34178,2.60475 4.34178,2.60475c0.95037,3.80105 1.90559,7.92259 3.22724,11.92148c0.40406,-1.12295 1.36498,-2.44276 3.64955,-2.46926l-0.00001,0c3.98879,-0.04627 4.03506,3.94251 4.03506,3.94251l0.00412,1.76639c0.42398,4.22013 0.93976,8.70736 2.48718,12.7595c0.77572,0.59471 1.54879,1.19211 2.22879,1.88989c0.67228,0.68984 0.77971,1.86946 1.56236,2.43099c0.79124,0.56769 1.9455,0.31607 2.83106,0.72116c5.68955,2.60251 13.28638,6.02682 17.81707,10.54157c1.39518,1.39028 2.13867,3.33389 3.48411,4.77239c0.23422,0.25043 0.48031,0.49419 0.73653,0.73191c1.55826,-1.74266 4.06264,-0.99727 4.06264,-0.99727c7.68849,2.2906 15.3689,4.39987 23.17069,6.25765l2.86608,0.89692c0,0 3.80274,1.20485 2.59791,5.0076l-0.00002,0.00003c-0.1619,0.511 -0.37071,0.93158 -0.61092,1.2768c4.37015,1.95482 7.06183,5.31848 11.44507,7.22611c2.61329,1.13733 5.35837,1.93593 8.06483,2.83698z" fill="#ffee37" stroke="none" stroke-width="0.5"/><path d="M412.77822,101.99948c2.90229,-2.09632 4.99861,0.80595 4.99861,0.80595l1.19328,1.77081c1.99891,4.44198 4.72801,8.4911 7.67998,12.42385c-0.19852,-0.59646 -0.40722,-1.18902 -0.62746,-1.77716l0,-0.00001c-0.79972,-0.55968 -1.4839,-1.5173 -1.50292,-3.15571c-0.04627,-3.98879 3.94251,-4.03506 3.94251,-4.03506l4.26441,2.45826c2.90433,7.12897 4.08374,14.75408 5.72373,22.28487c1.11523,1.73557 2.14967,3.51603 3.06522,5.36216c3.38099,4.69862 6.00556,9.48318 6.96581,15.29116c0.08424,0.50951 0.14892,1.02135 0.19961,1.53488c1.34955,1.16003 1.37187,3.08373 1.37187,3.08373c0.036,3.10311 0.07199,6.20624 0.10799,9.30935c0.31256,0.92431 0.61098,1.85117 0.73883,2.81335c0.33414,2.51463 0.39034,5.15728 0.25597,7.8332c3.06244,7.89814 1.83296,15.99297 0.7949,25.44067l-0.11618,1.0574c0,0 -0.30853,2.80798 -2.76929,3.43837c2.40607,1.01338 1.95314,3.82255 1.95314,3.82255c-1.11603,6.92167 -2.37967,17.3425 -11.16253,5.88255c-1.15916,-1.51248 -0.67497,-3.7691 -0.69277,-5.67459c-0.06279,-6.72388 1.2964,-13.90762 2.73831,-20.39783c0.7403,-3.33218 1.48584,-7.05692 1.88777,-10.7849c-0.71251,-1.75752 -1.72275,-3.48165 -3.12228,-5.1748c0,0 -2.49575,-3.11189 0.61614,-5.60763c0.31467,-0.25235 0.62305,-0.44739 0.92315,-0.59411c-0.01651,-1.42311 -0.03403,-2.93401 -0.05122,-4.4154c-0.41836,-2.63424 -0.67703,-5.00386 -0.96941,-7.2322c-3.42795,-4.6939 -6.1067,-9.98822 -9.70267,-14.47049c-1.10425,-0.42102 -2.36166,-1.38991 -2.38751,-3.61926c-0.02326,-2.00572 0.97374,-3.01459 1.97081,-3.52198c-0.17019,-0.77957 -0.33395,-1.56149 -0.49401,-2.34476c-6.04966,-8.75621 -13.662,-16.60936 -18.11603,-26.25758l-0.48377,-0.55102c0,0 -2.09632,-2.90229 0.80597,-4.99861z" fill="#ffee37" stroke="none" stroke-width="0.5"/><path d="M270.52999,92.87438c0.90657,-1.20367 1.81314,-2.40737 2.71971,-3.61104c2.02069,-4.25492 4.19731,-7.7546 6.69979,-12.04999c-0.32642,-3.20492 2.99284,-4.07576 2.99284,-4.07576c8.75725,-2.2952 16.96955,-5.03802 25.4489,-8.27715l4.70699,-0.67153c0,0 1.36557,-0.18681 2.60113,0.46187c6.86305,-0.07115 13.48851,0.06694 20.29587,1.90193l0,0.00001c0.38315,0.00666 3.8253,0.1658 3.99444,3.7358c2.88106,-0.57901 5.77603,-1.01759 8.696,-1.19002c1.6296,-0.4255 2.85949,-0.65044 5.19039,-0.00184c1.39425,0.0873 2.79552,0.25043 4.20497,0.50262c1.93207,0.34569 3.94884,0.68859 5.64426,1.67752c1.35017,0.78755 1.7669,2.76037 3.16438,3.46052c3.32194,1.66429 8.69932,-0.75584 10.92309,2.22072c0.34555,0.46253 0.61093,0.96043 0.81646,1.4847l0.14382,-0.05205l1.74701,4.82732c0.5748,1.48191 0.10547,3.22087 -1.24327,4.19505c-0.98963,0.71481 -2.22133,0.85074 -3.29144,0.4729l-4.35905,-1.47779l0.01314,-0.03873l-0.15386,-0.01229c-6.29395,-2.74133 -11.78379,-7.03879 -17.89485,-9.79849c-0.16818,-0.07596 -0.34201,-0.1439 -0.52098,-0.20435c-0.56806,-0.02487 -0.99378,-0.03433 -1.17699,-0.03281c-12.88273,0.10627 -24.73986,5.77655 -37.37772,6.72943c-2.16606,0.16331 -4.39014,0.07501 -6.50226,-0.43241c-1.96047,-0.47099 -3.52671,-2.20459 -5.52703,-2.45751c-1.71701,-0.2171 -7.16711,4.32557 -7.56289,4.57549c-4.53668,2.86491 -9.76225,6.19625 -14.75188,8.51571c-0.35102,0.77028 -0.6961,1.57119 -1.03617,2.41345l-0.70933,2.28199c0,0 -1.20485,3.80274 -5.0076,2.59791l-0.00001,-0.00002c-3.35401,-1.06267 -2.81253,-4.14629 -2.63802,-4.85925zM314.03238,75.90676c2.52723,-0.24799 5.03964,-0.67717 7.54457,-1.20417c-0.39396,-0.1224 -0.79991,-0.2489 -1.21947,-0.3795c0,0 -1.47453,-0.45895 -2.18529,-1.74245c-2.52929,0.01379 -5.08096,0.08809 -7.6719,0.11816c0,0 -0.13259,0.00153 -0.34969,-0.02012c-1.14616,0.45224 -2.28894,0.89151 -3.43007,1.31871c2.42117,0.93571 4.79933,2.15589 7.31185,1.90935zM287.30794,80.22829c-0.00925,0.02773 -0.01853,0.05486 -0.02784,0.08137c0.06482,-0.04232 0.12965,-0.0846 0.19449,-0.12684c-0.05554,0.01517 -0.11109,0.03032 -0.16666,0.04547z" fill="#ffee37" stroke="none" stroke-width="0.5"/><path d="M382.11922,285.78717c-2.09632,-2.90229 0.80595,-4.99861 0.80595,-4.99861l3.19848,-2.28876c2.00836,-0.92715 4.47122,-1.1283 6.09034,-2.63548c0.4897,-0.45584 0.73593,-1.10772 1.01375,-1.7349c-0.73623,-0.35747 -1.43245,-1.03172 -1.88094,-2.24448l0.00001,0c-1.38359,-3.74142 2.3578,-5.12503 2.3578,-5.12503l1.33756,-0.48731c1.29171,-0.39316 2.54779,-0.93194 3.87511,-1.17945c0.64498,-0.12027 1.68553,0.68326 1.96616,0.09024c0.52948,-1.1189 -0.17049,-2.46986 -0.25574,-3.70477c0,0 0.43567,-3.96518 4.40087,-3.5295c0.14844,0.01631 0.29069,0.03756 0.42705,0.06337c0.33364,-0.3704 0.61273,-0.57466 0.61273,-0.57466c4.50026,-3.24926 7.2887,-6.91871 12.18389,-9.75994l1.778,-1.53127c0.45736,-1.06933 1.36893,-1.89993 2.49482,-2.24621c3.55361,-4.48334 6.79113,-9.27736 10.62863,-13.43895c0,0 2.4348,-2.6248 5.0596,-0.19c2.6248,2.4348 0.19,5.0596 0.19,5.0596c-3.86751,4.14046 -7.11331,8.94944 -10.66887,13.4549c-0.2628,1.49029 -1.43949,2.4942 -1.43949,2.4942l-2.3979,2.02985c-0.52185,0.56196 -1.05512,1.11235 -1.60208,1.64882c-0.87186,0.85514 -2.30628,1.05763 -3.05482,2.02255c-0.6047,0.77951 -0.28056,1.99202 -0.73768,2.86629c-1.09466,2.09353 -5.5092,8.38229 -7.36479,10.23644c-2.58067,2.57868 -4.87997,3.024 -7.97806,4.91085c-2.51756,1.53329 -4.00173,4.34791 -6.23983,6.26624c-0.57593,0.49363 -6.01185,2.89519 -7.19585,3.42799l-2.60611,1.90389c0,0 -2.90229,2.09632 -4.99861,-0.80597z" fill="#ffee37" stroke="none" stroke-width="0.5"/><path d="M312.07434,278.08336c2.09632,2.90229 -0.80595,4.99861 -0.80595,4.99861l-2.68016,1.46963c-2.29805,0.3597 -4.56845,1.04051 -6.89415,1.07911c-5.55512,0.09221 -10.51149,-3.84654 -15.91537,-5.09272c-7.47095,-1.72286 -15.11701,-2.33431 -20.98414,-8.10065c-0.35535,-0.34924 -5.81621,-7.94201 -6.31851,-8.63742c-5.31069,-7.35245 -10.62138,-14.70491 -15.93207,-22.05736c0,0 -2.09633,-2.90227 0.80595,-4.99861c2.90229,-2.09632 4.99861,0.80595 4.99861,0.80595c2.32573,3.21988 4.65147,6.43979 6.9772,9.65967c0.64062,-0.44912 1.52207,-0.72614 2.73234,-0.59315l-0.00004,-0.00003c3.96519,0.43567 3.52952,4.40087 3.52952,4.40087l-0.33996,-0.76191c1.62613,5.33761 3.76068,5.26864 9.15641,5.74367c0,0 2.62338,0.28824 3.36804,2.52967l1.01983,0.61353c5.32966,4.42682 5.88825,9.10797 12.44011,9.53023c0.69949,-0.64516 1.63088,-1.04374 2.65733,-1.05564c2.20294,-0.02556 4.00951,1.73956 4.03506,3.9425c0.01497,1.28945 -0.58358,2.44309 -1.52434,3.18325c-0.06858,0.12437 -0.14305,0.24073 -0.22234,0.34958c2.92761,1.18537 6.69908,3.56819 9.50911,3.37813c1.93929,-0.13117 3.83153,-0.65699 5.74729,-0.98549l-0.35834,-0.20743c0,0 2.90228,-2.09633 4.99861,0.80595zM269.70153,267.22267c1.20432,1.20271 2.54725,2.13664 3.98364,2.88229c-1.18238,-1.72266 -2.31283,-3.49511 -3.92928,-4.77494l-2.17222,-1.2144c0,0 -0.27128,-0.15852 -0.61708,-0.46271c-0.01512,-0.00145 -0.03021,-0.00291 -0.04527,-0.00437c0.83009,1.27315 1.70922,2.50455 2.78021,3.5741z" fill="#ffee37" stroke="none" stroke-width="0.5"/><path d="M343.27481,49.21071c-0.96072,3.87165 -4.83235,2.91093 -4.83235,2.91093l-0.51621,-0.12808c-0.97103,-0.3703 -1.89608,-1.32469 -2.9131,-1.11088c-1.19542,0.2513 -1.65612,2.00721 -2.83702,2.31973c-2.34079,0.61947 -4.83709,0.23407 -7.25565,0.3511c0,0 -3.98801,0.09184 -4.07984,-3.89617c-0.01572,-0.68228 0.088,-1.2505 0.2707,-1.72376c-0.18122,-0.64392 -0.20271,-1.34227 -0.03008,-2.03797c0.53058,-2.13824 2.69411,-3.44151 4.83235,-2.91093c1.45148,0.36017 2.5182,1.47279 2.88773,2.81916c0.27144,-0.02873 0.54014,-0.07789 0.80516,-0.15443c1.48995,-0.43033 2.32574,-2.38402 3.8623,-2.59396c2.14335,-0.29283 4.25256,0.79654 6.37884,1.19482l0.5162,0.12808c0,0 3.87165,0.96072 2.91093,4.83234z" fill="#fff15b" stroke="none" stroke-width="0.5"/><path d="M460.30957,148.08787c-3.98879,0.04627 -4.03506,-3.94251 -4.03506,-3.94251l0.0414,-3.45363c-0.20411,-0.43336 -0.43533,-0.86899 -0.68473,-1.30748c-1.52637,-0.5455 -2.62653,-1.99562 -2.64644,-3.71129c-0.0021,-0.18084 0.00788,-0.35904 0.02915,-0.53379c-1.40623,-2.36224 -2.54858,-4.84332 -2.22637,-7.51598c0.01761,-0.14607 0.03835,-0.29139 0.06204,-0.43601l-0.0909,0.00105l-0.04935,-4.2547c-0.02556,-2.20294 1.73958,-4.0095 3.94251,-4.03506c1.74279,-0.02022 3.23752,1.0803 3.79853,2.63171l1.52466,3.92662c1.62215,2.78714 2.89292,5.78415 3.95896,8.82762c0,0 0.67985,1.9633 -0.35867,3.54674c0.1888,0.38387 0.36867,0.77201 0.53659,1.16589l0.14014,5.05577c0,0 0.04627,3.98879 -3.94251,4.03506z" fill="#fff15b" stroke="none" stroke-width="0.5"/><path d="M250.44946,169.13917c-2.20294,0.02556 -4.00951,-1.73957 -4.03506,-3.94251c-0.02556,-2.20294 1.73957,-4.00951 3.94251,-4.03506c2.20294,-0.02556 4.0095,1.73958 4.03506,3.94251c0.02556,2.20294 -1.73956,4.00951 -3.9425,4.03506z" fill="#fff15b" stroke="none" stroke-width="0.5"/><path d="M406.00178,286.41113c-3.17294,-1.65838 -1.51458,-4.83132 -1.51458,-4.83132l1.63198,-3.09574c3.25261,-4.97536 7.82856,-6.8057 11.99705,-10.48308c0.00322,-0.10529 0.01062,-0.21125 0.02232,-0.31774c0.1977,-1.7993 1.56308,-3.187 3.25854,-3.49135c1.93961,-2.61552 4.3765,-6.06536 4.54278,-6.29664c0,0 2.09044,-2.90654 4.99697,-0.8161c2.90654,2.09044 0.8161,4.99696 0.8161,4.99696c-1.15599,1.60687 -5.94013,8.44972 -7.61891,10.10357c-3.90726,3.84925 -9.07524,5.36179 -11.96633,10.1367l-1.3346,2.5802c0,0 -1.65838,3.17295 -4.83132,1.51458z" fill="#ffee37" stroke="none" stroke-width="0.5"/><path d="M273.60552,60.52067c-0.8685,-3.47327 2.60475,-4.34178 2.60475,-4.34178c7.17571,-1.75964 14.24396,-0.83206 20.9067,-4.79935c6.24995,-3.72148 11.64753,-10.43292 18.83312,-12.40169c4.02727,-1.10342 11.76527,0.51368 15.37012,2.35066c2.01748,1.02808 3.52904,2.87818 5.51476,3.96631c0.13331,0.07306 0.27044,0.14229 0.41104,0.20796c2.67371,-0.41181 5.34192,-0.75866 7.85806,-0.11661c0.05178,0.01321 0.10351,0.02657 0.15521,0.04003l0.00279,-0.02754l7.10602,0.72091c0.98808,0.09563 1.9318,0.5994 2.55874,1.46738c1.15777,1.60288 0.79692,3.84085 -0.80596,4.99862c-0.21562,0.15574 -0.44272,0.28401 -0.67714,0.38546l-3.25429,1.48516l-0.23021,-0.50445l-0.93867,0.8135c-2.98522,-0.67467 -6.90062,-0.8555 -10.41991,-1.51691c-3.98023,0.47344 -8.10932,0.32945 -11.3714,-0.35066c-1.65498,-0.34504 -2.84938,-2.02222 -4.51537,-2.30933c-0.58803,-0.10134 -1.00798,0.53125 -1.49724,0.95139c0.96949,0.44611 1.92191,1.35879 2.08543,3.21299l0,0.00005c0.35042,3.97362 -3.62321,4.32404 -3.62321,4.32404l-3.48767,0.22979c-5.23702,-0.8964 -6.50846,1.58551 -11.86395,2.76681c-8.3324,1.83796 -17.29964,1.98166 -25.80218,3.14123c0,0 -3.95248,0.53904 -4.49151,-3.41344c-0.01081,-0.07921 -0.0198,-0.15706 -0.02706,-0.23355c-0.16269,-0.29539 -0.29956,-0.64165 -0.40095,-1.04708z" fill="#ffee37" stroke="none" stroke-width="0.5"/><path d="M466.93914,192.31277c-3.53456,-0.56989 -2.96465,-4.10444 -2.96465,-4.10444l0.40494,-1.83997c0.46869,-1.00985 0.93738,-2.0197 1.40607,-3.02955c-0.42064,-5.01056 -1.01524,-9.61253 -2.02919,-14.33618c-1.45695,-1.30775 -1.22087,-3.45628 -1.22087,-3.45628l0.09251,-0.66067c0.00215,-0.10493 0.00349,-0.20933 0.00405,-0.31324c-1.58709,-4.90173 -4.41734,-9.6347 -5.12444,-14.83196c-0.17768,-1.3058 -0.23511,-2.63233 -0.28471,-3.9592c-0.09454,-0.37976 -0.1826,-0.7658 -0.2632,-1.15893c-0.48034,-2.34337 -0.46887,-4.51581 -0.82275,-6.67845c-0.5406,-1.72234 -1.17428,-3.40882 -1.88064,-5.06657c-0.98565,-1.41917 -2.49108,-2.50244 -3.21527,-4.07195c-0.43368,-0.93991 -0.25373,-2.0572 -0.32169,-3.10402c-0.60568,-1.09795 -1.23168,-2.18722 -1.87125,-3.2702c-0.39215,-0.37837 -0.7917,-0.75208 -1.14066,-1.15771c0,0 -0.77534,-0.96676 -0.92287,-2.25472c-3.41615,-5.54429 -7.00486,-10.98709 -9.83454,-16.65543c0,0 -1.59066,-3.20743 1.61675,-4.7981c3.20743,-1.59066 4.7981,1.61676 4.7981,1.61676c2.71074,5.50743 6.13441,10.78618 9.44978,16.13953c0.70194,0.44352 1.11654,0.96048 1.11654,0.96048c1.2825,1.67623 2.94404,3.12126 3.8475,5.02871c0.43371,0.91566 0.2585,2.01096 0.31273,3.03954c0.50654,0.95183 0.99636,1.91085 1.46528,2.87862c0.68252,0.68277 1.44339,1.31732 1.91519,2.1445c2.66569,4.6737 2.41312,9.01715 3.35618,13.93032c1.53234,7.98321 5.78892,13.12443 5.77764,21.65999l-0.12151,1.2635c1.4035,6.03465 2.01439,11.92057 2.35976,18.3157c-0.62764,1.54861 -1.25528,3.09722 -1.88292,4.64584l0.08257,0.15947c0,0 -0.56989,3.53456 -4.10444,2.96465z" fill="#ffee37" stroke="none" stroke-width="0.5"/><path d="M239.76969,135.17036c0.00163,-0.03374 0.00327,-0.06749 0.00491,-0.10125c0,0 0.17609,-3.57587 3.75196,-3.39978c1.39553,0.06872 2.21963,0.65524 2.70574,1.34496c0.02579,-0.23419 0.06876,-0.4665 0.13363,-0.6964c0.52595,-1.86419 2.27495,-3.16383 3.09155,-4.92026c1.94721,-4.18837 2.97005,-8.74732 4.46938,-13.11608c0,0 1.16215,-3.38634 4.54849,-2.22417c3.38633,1.16216 2.22417,4.54849 2.22417,4.54849c-0.20565,0.59924 -4.67512,13.65165 -4.82788,13.97456c-0.62246,1.3157 -2.13469,2.14008 -2.5728,3.52809c-0.31895,1.01052 0.40609,2.08663 0.46669,3.14457c0.13695,2.39089 0.03055,4.83106 -0.12948,7.26512c0.23532,-0.00788 0.48562,0.00153 0.75181,0.03078l0.00004,0c0.07438,0.00818 0.1472,0.01758 0.21851,0.02818c-0.03586,-2.31025 -0.06962,-4.59129 0.12407,-6.67896l0.10119,-3.90922c0,0 0.09448,-3.57895 3.67343,-3.48449c3.57895,0.09448 3.48449,3.67343 3.48449,3.67343l-0.11151,4.14851c-0.51645,5.47249 0.37343,11.9505 -0.75486,17.32027c-0.9081,4.32182 -2.93771,8.46523 -5.08826,12.4815l-0.63432,3.93412c-0.09915,0.61498 -0.3578,1.20422 -0.76509,1.70039c-0.22677,1.1358 -0.95582,2.46263 -3.04356,2.91267c-3.89949,0.84059 -4.74007,-3.0589 -4.74007,-3.0589c-0.45253,-2.13628 -0.96408,-3.9986 -1.21351,-5.92197c-1.3602,0.31232 -2.83668,-0.19114 -3.70523,-1.39363c-0.13102,-0.18139 -0.2426,-0.37091 -0.33511,-0.56608l-1.90516,-3.84158l0.05322,-0.02639c-0.06561,-0.09571 -0.12963,-0.19271 -0.19196,-0.2911c-0.29004,-0.45782 -0.54661,-0.94156 -0.7733,-1.44729c-0.52787,0.17517 -1.10102,0.24219 -1.69004,0.17746c-2.1899,-0.24063 -3.77013,-2.21095 -3.52952,-4.40087c0.21273,-1.93605 1.77742,-3.39558 3.65052,-3.54167c-0.20392,-4.13165 0.19995,-8.45613 0.17246,-11.83256l0.36792,-2.59827c0,0 0.32645,-2.02464 2.01752,-2.76217z" fill="#ffee37" stroke="none" stroke-width="0.5"/><path d="M251.1058,278.63119c-0.57707,-3.53338 2.95632,-4.11046 2.95632,-4.11046l3.63706,0.01526c3.67239,1.68554 5.29156,2.16149 7.39242,3.71691c1.18403,-0.07247 2.37845,0.44466 3.12442,1.47744c0.41205,0.57047 0.63175,1.2214 0.67156,1.87543c0.55911,0.52231 1.0916,1.09231 1.21048,1.76208l2.8499,2.0497c0.33182,0.22706 0.63073,0.51431 0.8797,0.859c1.15777,1.60288 0.79692,3.84085 -0.80596,4.99862c-1.24577,0.89983 -2.87518,0.88233 -4.08292,0.07736l-3.18679,-2.01913l0.11096,-0.17513c-0.21816,-0.07336 -0.43435,-0.15365 -0.6483,-0.24179c-0.87002,-0.35839 -1.19224,-1.38364 -1.67115,-2.25014c-0.21135,-0.28684 -0.42271,-0.57368 -0.63407,-0.8605c-2.78832,-2.80047 -4.44142,-3.07908 -8.1699,-4.74974l0.4767,0.5314c0,0 -3.53339,0.57707 -4.11046,-2.95632z" fill="#ffee37" stroke="none" stroke-width="0.5"/><path d="M484.34061,144.82217c-3.57962,-0.06431 -3.51532,-3.64393 -3.51532,-3.64393l0.06724,-3.35708c-0.50435,-4.70439 0.36196,-10.48658 -1.38922,-14.92576c-1.71177,-4.33925 -3.99885,-8.42925 -5.93562,-12.67286c0,0 -1.48643,-3.25705 1.77061,-4.74347c3.25705,-1.48643 4.74347,1.77061 4.74347,1.77061c2.02691,4.44155 4.47082,8.7057 6.17951,13.27911c1.97703,5.29164 1.19471,11.43074 1.78464,16.97587l-0.06139,3.80217c0,0 -0.06431,3.57962 -3.64393,3.51532z" fill="#ffee37" stroke="none" stroke-width="0.5"/><path d="M281.91422,289.82195c1.32457,1.92795 2.88845,4.79718 1.7734,6.82778c0.28007,0.32238 0.51502,0.75457 0.66522,1.33119c0.75586,2.90166 -2.1458,3.65752 -2.1458,3.65752l-1.71205,0.22435c-4.01934,-0.5732 -6.77102,-2.19686 -9.29163,-4.36984c-9.06768,-2.12995 -16.87951,-10.09783 -20.2324,-18.31903c0,0 -1.10993,-2.7855 1.67558,-3.89543c2.7855,-1.10993 3.89543,1.67558 3.89543,1.67558c0.95382,2.46472 2.09962,4.39935 3.46681,6.0388c-0.2645,-1.52106 0.67826,-3.01595 2.19904,-3.4121c0.71352,-0.18587 1.43398,-0.09852 2.0506,0.19703l3.03189,1.42701c3.52159,1.66219 12.35218,5.31057 14.62392,8.61715zM274.24226,291.94077c-0.75801,-0.52616 -1.48711,-1.07571 -2.25243,-1.60464c0.5431,0.54456 1.08678,1.08302 1.64184,1.59851c0.20067,0.00452 0.40494,0.00593 0.61059,0.00613z" fill="#ffea00" stroke="none" stroke-width="0.5"/><path d="M294.22294,291.62019c-1.44304,-1.08431 -2.90562,-2.11593 -4.60866,-2.63386c-4.33633,-1.31878 -7.69182,-0.95116 -11.8317,-3.18344c-4.06629,-2.19259 -5.62287,-6.47868 -8.62421,-9.6132c-3.40418,-3.55525 -7.44585,-6.65251 -10.80775,-10.31806c-4.48217,-4.88699 -7.69362,-10.57022 -11.19948,-16.11995c-2.53099,-4.00653 -5.98844,-8.15662 -6.0725,-13.26004c-0.00136,-0.08282 -0.00163,-0.16557 -0.00086,-0.24824l-0.03147,0.00283l-0.32229,-3.58407c-0.15657,-1.45276 0.76973,-2.83991 2.22617,-3.2193c0.90383,-0.23544 1.81879,-0.0325 2.51972,0.47673l3.79008,2.71281l-0.00458,0.0064l0.03111,0.0128c2.02906,1.52101 6.6747,4.9289 7.68569,6.25255c1.52537,1.99713 2.50335,6.41376 3.17802,8.98758c0,0 0.75586,2.90166 -2.1458,3.65752c-2.90166,0.75586 -3.65752,-2.1458 -3.65752,-2.1458c-0.34027,-1.31541 -1.41806,-5.94983 -2.21545,-6.95939c-0.2405,-0.30449 -2.16551,-1.7816 -3.88625,-3.07928c0.23549,1.03635 0.50032,2.11914 1.09123,3.10487c3.95709,6.60105 8.26536,13.73389 13.51034,19.43354c3.31008,3.59704 7.29353,6.61818 10.63012,10.12545c2.44417,2.56921 3.95986,6.85148 7.26397,8.55769c2.08366,1.07597 6.18012,1.64858 8.98078,2.2508c0.16975,-0.33729 0.43031,-0.67873 0.81156,-1.01208c2.2573,-1.97372 4.23102,0.28357 4.23102,0.28357l0.88268,1.00949c1.24268,1.42633 2.38536,2.93708 3.47892,4.48394c0.48773,0.49399 0.99443,0.95932 1.6017,1.2789c1.55453,0.81805 3.3534,1.10294 5.0025,1.70476c0.37023,-0.13247 0.74579,-0.24251 1.13177,-0.30782c8.84199,-1.49624 18.79618,-1.00339 27.5931,0.45832c2.0828,0.34608 4.34595,0.1296 6.24657,1.0491c0.10188,0.04929 0.20199,0.10122 0.30048,0.15558l0.01861,-0.04545l2.74255,1.12308c0.85767,0.34042 1.54721,1.07081 1.79765,2.03221c0.41745,1.60254 -0.54326,3.24007 -2.1458,3.65752c-0.10394,0.02707 -0.20803,0.04835 -0.31192,0.06404l-3.00372,0.48903l-0.00535,-0.03288l-0.08247,0.04584c-11.85984,1.20714 -23.01403,-0.5005 -34.72706,-2.31688c-0.0406,-0.02356 -0.08138,-0.04676 -0.12231,-0.06961c-1.42564,0.47697 -2.84216,0.97966 -4.29885,0.80317c-2.69857,-0.32697 -4.81249,-3.22424 -6.64029,-6.07077z" fill="#ffea00" stroke="none" stroke-width="0.5"/><path d="M400.67716,280.25993c-0.01594,0.00467 -11.53,3.37957 -11.53151,3.37989c-0.64323,0.13826 -1.42721,-0.39377 -1.97355,-0.02721c-0.74178,0.49767 0.19285,2.11607 1.00711,2.48333c0.60499,0.27288 1.33689,-0.0058 1.98573,-0.14538c5.59755,-1.20414 11.15311,-2.94526 16.69867,-4.37931c2.10318,-0.94588 4.17224,-1.96167 6.2255,-3.01003c-0.51652,-0.33765 -0.93088,-0.83472 -1.16151,-1.44341c-3.76172,1.00777 -7.51438,2.04694 -11.25043,3.14213zM433.56122,271.50695c0.00183,0.00375 0.00366,0.0075 0.00549,0.01127c1.31024,2.69708 -1.38683,4.00732 -1.38683,4.00732l-2.75049,1.33619c-6.91331,3.35758 -13.55383,7.24919 -20.58057,10.36837c-5.64233,1.47965 -12.3147,4.2295 -18.1213,4.691c-1.86776,0.14845 -3.99534,0.34239 -5.58296,-0.65264c-2.95821,-1.85405 -4.56521,-6.42128 -3.3976,-9.88594c-0.4733,0.27122 -0.95627,0.52912 -1.45118,0.7704l-3.98405,2.80594c-0.29923,0.22137 -0.64496,0.39037 -1.02722,0.48995c-1.60254,0.41745 -3.24007,-0.54326 -3.65752,-2.1458c-0.31787,-1.22025 0.16333,-2.46079 1.1185,-3.16752l3.55421,-2.75684l0.0281,0.03623c0.05488,-0.0591 0.11054,-0.1176 0.16701,-0.17545c1.52951,-1.56701 3.6219,-2.53471 5.79173,-3.34529c3.10506,-2.21203 6.0171,-4.65151 9.49716,-6.33094c1.91161,-0.92251 3.99988,-1.40204 6.04336,-2.00073c0.98129,-0.69604 1.95009,-1.38553 2.90351,-2.04587c6.84431,-4.74041 11.31805,-10.74909 16.51958,-16.69155c-0.29127,-1.78055 1.39775,-2.87889 1.39775,-2.87889l4.7108,-3.06339c0.27793,-0.19013 0.59286,-0.33632 0.93747,-0.42609c1.60254,-0.41745 3.24007,0.54326 3.65752,2.1458c0.30174,1.15836 -0.11656,2.33498 -0.97684,3.05592l-2.89994,2.53564c-3.15921,3.32591 -5.694,6.91587 -8.60746,10.32413c0.8006,0.10614 1.69617,0.55359 2.2194,1.86669c1.10993,2.7855 -1.67558,3.89543 -1.67558,3.89543c-4.49754,1.79179 -8.79749,4.10318 -13.24687,5.91777c-0.54905,0.22392 -1.10888,0.41981 -1.67471,0.6c-4.05435,2.64607 -8.32909,4.94389 -12.46741,6.70371c3.42262,-1.10251 6.9147,-1.98518 10.36606,-2.99669c6.44951,-1.8902 12.94449,-3.63256 19.45351,-5.3245c0.05525,-0.03298 0.1112,-0.06584 0.16782,-0.09855c0.31673,-0.43499 0.63348,-0.86996 0.95021,-1.30495c0,0 1.63817,-2.19461 3.88071,-0.82358c1.16958,-0.42788 2.19346,-0.76931 2.79276,-0.99693c8.25375,-3.13475 16.46491,-5.50554 24.99969,-7.72878l5.80333,-1.51172c1.60254,-0.41745 3.24007,0.54326 3.65752,2.1458c0.36629,1.40616 -0.32849,2.83924 -1.5869,3.45139l-5.28464,2.70771c-4.95063,3.81171 -13.14352,4.63207 -19.04355,6.16898c-0.40645,0.10588 -0.81299,0.21154 -1.21957,0.31702z" fill="#ffea00" stroke="none" stroke-width="0.5"/><path d="M453.79263,122.93752c2.5,0 2.5,2.5 2.5,2.5v4c0,3.23223 -0.32402,6.47891 -0.01847,9.69667c0.26164,2.75531 1.66419,5.31139 2,8.05865c0.00383,0.03132 0.00691,0.30308 0.00938,0.73962c0.40318,-0.07465 0.88022,-0.03906 1.43756,0.18387c0.83402,0.33361 1.2485,0.84701 1.43726,1.36795c0.09344,-1.13222 0.18371,-2.29767 0.25091,-3.51705c0.18529,-3.3623 0.24531,-6.7964 1.17069,-10.03415c0,0 0.84475,-2.87704 3.72179,-2.03229c2.87704,0.84475 2.03229,3.72179 2.03229,3.72179c-0.84424,2.78131 -0.78179,5.76691 -0.93659,8.6694c-0.31288,5.86613 -1.38666,10.35036 -0.20426,16.18615c1.80336,8.90048 5.18926,17.12646 5.55131,26.26603l0.317,3.52539c0.15657,1.45276 -0.76973,2.83991 -2.22617,3.2193c-1.60254,0.41745 -3.24007,-0.54326 -3.65752,-2.1458c-0.03583,-0.13755 -0.0615,-0.27536 -0.07749,-0.41263l-0.62289,-4.74695c0,0 -0.08633,-0.65791 0.13172,-1.39535l0.00003,0.00001c-0.74667,-7.91883 -3.75633,-15.24287 -5.28782,-23.09129c-0.85387,-4.37583 -0.66649,-8.05207 -0.34902,-11.97607c-0.96254,2.42329 -1.85347,4.86618 -2.68879,7.32425c-0.13098,11.59701 -1.69303,22.89314 -5.37579,33.95283c-1.55559,4.67159 -2.69665,10.4057 -4.9885,14.75401c-0.44662,0.84736 -1.51954,1.22531 -2.02469,2.03914c-0.53006,0.85396 -0.48256,1.98435 -1.0055,2.8427l-1.73512,4.627c-0.34031,0.9763 -1.269,1.67684 -2.36132,1.67684c-1.38071,0 -2.5,-1.11929 -2.5,-2.5v-5l0.13528,0l-0.103,-0.40046c5.64345,-17.45599 9.07872,-35.50364 14.96585,-52.87595c0.00117,-0.22168 0.00178,-0.44361 0.00183,-0.6658c0.00075,-3.23195 0.41065,-6.48776 0.01851,-9.69583c-0.33581,-2.74726 -1.72818,-5.30431 -2,-8.05864c-0.02428,-0.24598 -0.01847,-9.87493 -0.01847,-10.30333v-4c0,0 0,-2.5 2.5,-2.5z" fill="#ffea00" stroke="none" stroke-width="0.5"/><path d="M476.10794,125.32739c2.90166,-0.75586 3.65752,2.1458 3.65752,2.1458l0.00336,0.77028c0.84255,1.19633 1.66395,2.40839 2.49997,3.60968c-2.45605,-10.12217 -4.77981,-20.25615 -7.41389,-30.36812c0,0 -0.75586,-2.90166 2.1458,-3.65752c2.90166,-0.75586 3.65752,2.1458 3.65752,2.1458c3.68851,14.15981 6.76861,28.36298 10.45521,42.51546l0.90703,3.482c0.41745,1.60254 -0.54326,3.24007 -2.1458,3.65752c-1.33546,0.34788 -2.69523,-0.26132 -3.35295,-1.40146l-3.08054,-5.06662l0.33037,-0.20087c-3.17102,-3.49548 -5.99899,-7.13553 -8.90575,-11.26272l-0.90367,-2.71172c0,0 -0.75586,-2.90166 2.1458,-3.65752z" fill="#ffea00" stroke="none" stroke-width="0.5"/><path d="M214.03047,158.99989c-0.09242,-4.96107 -0.11363,-9.88281 -0.45989,-14.85814c-0.55614,-7.99114 -1.51664,-15.78804 -0.69743,-23.78182c0,0 0.31111,-2.98231 3.29342,-2.6712c2.98231,0.31111 2.6712,3.29342 2.6712,3.29342c-0.81226,7.6385 0.18605,15.13912 0.71771,22.779c0.46222,6.64201 0.35088,13.17989 0.59322,19.84352l0.19774,5.46632c0.07961,1.39714 -0.83238,2.70279 -2.23854,3.06908c-1.60254,0.41745 -3.24007,-0.54326 -3.65752,-2.1458l-1.96523,-7.54433c0,0 -0.64526,-2.4771 1.54532,-3.45006z" fill="#ffea00" stroke="none" stroke-width="0.5"/><path d="M509.29263,239.43752c-0.02229,1.19146 0.24683,2.42475 -0.06688,3.57438c-0.39243,1.43813 -1.59074,2.56657 -2,4c-0.29183,1.02215 0.35578,2.20705 -0.05238,3.18856c-2.31047,5.55592 -7.9812,10.73353 -11.88908,15.16738l-1.29739,2.26866c-0.42454,0.77529 -1.248,1.30101 -2.19426,1.30101c-1.1246,0 -2.07576,-0.74256 -2.38994,-1.76412l-0.98177,-2.94531l0.0699,-0.0233c-0.1082,-0.34118 -0.17324,-0.69409 -0.18068,-1.06264c-0.0242,-1.19818 0.68485,-2.20947 1.47569,-3.19992c-1.90943,-2.2397 0.31988,-4.18896 0.31988,-4.18896l0.5835,-0.42325c1.93459,-2.57516 3.45607,-5.43675 5.24254,-8.11678c2.30904,-3.46396 4.85384,-5.96794 6.01865,-10.1004c0,0 0.84475,-2.87704 3.72179,-2.03229c1.33561,0.39216 1.86914,1.2223 2.05745,1.99925c1.56299,0.52981 1.56299,2.3577 1.56299,2.3577z" fill="#ffea00" stroke="none" stroke-width="0.5"/><path d="M423.5832,316.06581c0.96985,0.32328 1.41091,0.91097 1.59347,1.49275c2.37642,-1.69955 4.79252,-3.22449 7.65926,-4.43074c4.07437,-1.7144 8.75579,-2.20972 12.49493,-4.71841c2.38342,-1.5991 5.73592,-4.83738 7.70633,-6.75189c0.1527,-0.14837 0.3733,-0.39203 0.64212,-0.70248c-1.63958,0.50744 -3.29522,1.00901 -4.95462,1.48379c-11.14663,7.04356 -23.99744,12.75855 -36.3415,15.99352l-1.16067,0.30234c0,0 -2.90166,0.75586 -3.65752,-2.1458l0.00001,-0.00001c-0.75586,-2.90166 2.1458,-3.65752 2.1458,-3.65752l1.16067,-0.30234c1.07076,-0.2771 2.14637,-0.57467 3.22509,-0.89178c-1.71408,-0.11057 -3.46211,-0.16732 -4.85788,0.16018c-4.26735,1.00128 -8.38207,3.0995 -12.69044,4.17815c-0.80625,0.20185 -10.67328,2.67928 -10.7997,2.65046c-2.02472,-0.4615 -3.28268,-2.54884 -4.83975,-3.92288c-2.17196,-1.91664 -6.71469,-5.1599 -2.88394,-9.13338c1.05712,-1.09651 7.78545,-0.60051 9.61242,-0.7274c7.94411,-0.55175 16.63943,-1.26742 24.35363,-3.05442c2.83915,-0.65001 5.62101,-1.66351 8.52098,-1.9346c5.48465,-0.5127 11.46058,0.93692 16.88028,0.01647c1.98512,-0.33714 4.00252,-0.77947 6.03041,-1.28814c3.0916,-1.87238 6.05705,-3.85175 8.84334,-5.90962c0,0 2.41341,-1.77945 4.19286,0.63396c0.329,0.44621 0.51467,0.87075 0.59877,1.26637c0.73603,-0.22863 1.46664,-0.45427 2.19067,-0.67487l0.20064,0.03366l-0.00979,-0.06853l4.90717,-0.70102c0.12902,-0.02054 0.26133,-0.03121 0.39613,-0.03121c1.38071,0 2.5,1.11929 2.5,2.5c0,1.24523 -0.9104,2.27782 -2.10191,2.46848l-3.32123,0.59459c-2.06108,1.83809 -3.28683,4.4935 -5.27116,6.42404c-1.99727,1.94314 -5.81834,5.60614 -8.29367,7.24811c-4.15902,2.7588 -8.99758,3.40454 -13.50507,5.28159c-3.92956,1.63639 -6.91066,4.02835 -10.28337,6.5525l-1.90557,1.90557l-0.71214,-0.71214l-2.36996,1.071c0.05715,-0.83586 0.1143,-1.67173 0.17144,-2.50759l-1.22883,-0.40961l2,-6c0,0 0.79057,-2.37171 3.16228,-1.58114zM421.07337,304.9217c-2.67219,0.24234 -5.2293,1.20147 -7.84295,1.81154c1.59464,0.07029 3.18995,0.20428 4.56222,0.20428c0,0 2.5,0 2.5,2.5c0,0.09773 -0.00382,0.19164 -0.01116,0.28187c3.70495,-1.32624 7.40771,-2.85988 11.03918,-4.56376c-3.43722,-0.15989 -6.91037,-0.53655 -10.24728,-0.23393zM405.49993,307.91866c-2.46047,0.2498 -4.9307,0.44047 -7.47444,0.75921c-5.47179,0.68563 -11.09178,2.14781 -16.4651,0.52742c-0.17828,-0.05376 0.36309,0.10799 0.51575,0.21461c0.74875,0.52295 1.50632,1.04397 2.17575,1.66522c0.92642,0.85974 1.36221,2.49048 2.59629,2.76332c1.25186,0.27677 2.35869,-1.01838 3.5836,-1.39702c1.52741,-0.47215 8.02324,-1.92189 9.61756,-2.40084c1.62965,-0.48957 3.60651,-1.40147 5.45058,-2.13191z" fill="#ffea00" stroke="none" stroke-width="0.5"/><path d="M280.96901,327.57612c1.187,0.96291 2.37651,2.1755 3.45048,3.13031c2.67234,0.37214 5.3446,0.73038 8.01869,1.0752c-0.75579,-1.04927 -1.56022,-2.04634 -2.57751,-2.80601c-1.98284,-1.48072 -5.51826,-1.57155 -8.89166,-1.3995zM313.45021,343.02555c2.22698,0.54255 4.54116,0.84454 6.8867,1.02837c-2.46619,-1.17402 -4.94035,-2.33857 -7.43316,-3.27976c-0.92844,-0.35054 -1.87902,-0.63163 -2.83969,-0.88147c-2.64529,-0.28047 -5.28479,-0.5726 -7.92022,-0.87704c3.74498,1.59352 7.53065,3.09003 11.30637,4.0099zM312.13506,347.84948c-7.27233,-1.76531 -14.58757,-5.58506 -21.57315,-8.28371c-2.1241,-0.82058 -4.27748,-1.67668 -6.25312,-2.81179c-6.53871,-0.90513 -13.07653,-1.89582 -19.64021,-2.98223l-1.83791,-0.12202c-3.1957,0.7027 -6.37916,1.49037 -9.62521,2.18464c-1.58474,0.33894 -3.17933,0.63454 -4.75463,1.01494c-1.31232,0.31689 -2.5613,1.21121 -3.90455,1.07604c-1.35598,-0.13645 -2.48051,-1.14151 -3.65279,-1.83653c-1.819,-1.07845 -4.09686,-1.74159 -5.30718,-3.47564c-1.39246,-1.99501 1.3515,-9.04158 2.01683,-9.94481c0.23647,-0.32103 8.54,-6.17829 9.07987,-6.47111c2.29347,-1.24397 5.14629,-1.16436 7.45954,-2.37114c4.18564,-2.18357 3.26343,-3.7454 7.33575,-6.51523c1.03007,-0.70061 2.34917,-0.83005 3.52376,-1.24508c0,0 2.37171,-0.79057 3.16228,1.58114c0.79057,2.37171 -1.58114,3.16228 -1.58114,3.16228c-4.37302,1.33318 -6.02444,5.27463 -10.11185,7.44145c-2.34097,1.241 -5.25013,1.14547 -7.56911,2.4271c-1.34914,0.74563 -2.49994,1.80467 -3.77212,2.67513c-1.16312,0.79584 -2.66748,1.21048 -3.53265,2.323c-3.31837,4.26708 -1.15022,4.51076 1.77672,6.07169c0.60395,0.32209 0.98218,1.15159 1.66478,1.20208c0.76129,0.05631 1.36065,-0.71708 2.09545,-0.92396c1.64865,-0.46418 3.3488,-0.72085 5.02339,-1.08035c1.41125,-0.30297 2.81153,-0.62332 4.20659,-0.94668c0.32522,-2.76865 3.17271,-2.57781 3.17271,-2.57781l5.82054,0.3936c0.18632,0.0306 0.37262,0.06113 0.5589,0.09159c1.08592,-0.20304 2.1766,-0.38816 3.27473,-0.54866c-0.54922,-0.45859 -0.89865,-1.14844 -0.89865,-1.91989c0,-1.38071 1.11929,-2.5 2.5,-2.5h4c5.55358,0 13.04434,-1.44504 17.8609,1.89083c1.54997,1.07348 2.80779,2.53364 4.02774,3.97117c0.87726,1.03372 1.11526,2.62937 2.2294,3.40194c0.65014,0.45082 1.58846,-0.37596 2.36351,-0.21712c1.09702,0.22484 2.07923,0.82342 3.11841,1.2488c5.53497,0.63089 11.08993,1.20765 16.68177,1.73441c0,0 2.98527,0.28128 2.70401,3.26654c-0.07874,0.83567 -0.36936,1.41536 -0.74708,1.81692c3.19427,1.40841 6.4307,2.76396 9.6498,4.04971c0.71876,0.28708 1.68562,0.20054 2.27866,0.64284l2.87531,0.19126c1.31248,0.0759 2.35339,1.16427 2.35339,2.49577c0,1.37897 -1.11647,2.49718 -2.49478,2.49999l-2.89505,0.00693l-0.00024,-0.10002c-0.1333,0.02688 -0.26767,0.04977 -0.40325,0.06822c-0.18531,0.02523 -0.61384,-0.08076 -1.18283,-0.26735l-0.67875,-0.04515c-6.7056,-0.44604 -13.84586,-0.15313 -20.39849,-1.74373z" fill="#ffea00" stroke="none" stroke-width="0.5"/><path d="M194.8054,244.41051c2.69708,-1.31024 4.00732,1.38683 4.00732,1.38683l0.0519,0.10683c3.13068,6.4467 6.21517,11.89188 8.04302,18.84268c0,0 0.75586,2.90166 -2.1458,3.65752c-2.90166,0.75586 -3.65752,-2.1458 -3.65752,-2.1458c-1.68573,-6.5399 -4.68095,-11.65765 -7.63385,-17.73391l-0.0519,-0.10683c0,0 -1.31024,-2.69708 1.38683,-4.00732z" fill="#ffea00" stroke="none" stroke-width="0.5"/><path d="M222.79668,209.17182c-2.90166,0.75586 -3.65752,-2.1458 -3.65752,-2.1458l-1.36055,-5.22299c0,0 -0.75586,-2.90166 2.1458,-3.65752c2.90166,-0.75586 3.65752,2.1458 3.65752,2.1458l1.36055,5.22299c0,0 0.75586,2.90166 -2.1458,3.65752z" fill="#ffea00" stroke="none" stroke-width="0.5"/><path d="M501.18408,86.64515c-7.08529,-1.54357 -14.1864,-3.01862 -21.27845,-4.5305c-6.45078,-1.37518 -13.61857,-2.11582 -19.85303,-4.25111c-1.60868,-0.55097 -3.00747,-1.60431 -4.59104,-2.22379c-3.09308,-1.20998 -6.4255,-1.71915 -9.54453,-2.86059c-5.94685,-2.17629 -11.71062,-5.28263 -17.48281,-7.88942c-1.08984,-0.49219 -2.17781,-0.99252 -3.26557,-1.49529c-4.19406,3.2457 -8.94461,5.4495 -13.8706,5.50982l-2.65949,0.8865c-0.2642,0.09499 -0.54902,0.14675 -0.84593,0.14675c-1.38071,0 -2.5,-1.11929 -2.5,-2.5c0,-0.88153 0.45626,-1.6565 1.14551,-2.10163l1.99992,-1.33328c0.75103,-1.16365 1.5547,-2.2834 2.52343,-3.26713c0.17535,-0.17807 1.41038,-1.1462 2.86886,-2.27743c-0.97503,-0.21277 -1.9977,-0.34667 -2.60618,-1.07374c-5.82006,-6.95433 -1.96065,-6.61643 4.17526,-8.41765c1.5546,-0.45636 3.19671,-0.55022 4.76695,-0.94942c1.39586,-0.35488 2.67822,-1.25995 4.11765,-1.30934c0.07,-0.0024 0.13998,-0.00425 0.20994,-0.00558l-0.00465,-0.03256l0.57113,-0.08159c1.79917,-2.18385 3.46675,-4.44762 4.8691,-6.85832c0,0 1.51732,-2.58626 4.10357,-1.06895c2.58626,1.51732 1.06895,4.10357 1.06895,4.10357c-0.93376,1.57993 -1.96495,3.09849 -3.06356,4.57359c0.07125,0.14526 0.12882,0.29845 0.17103,0.45788c0.49579,-0.83984 0.94619,-1.66944 1.34702,-2.47645c0,0 1.11803,-2.23607 3.3541,-1.11803c2.23607,1.11803 1.11803,3.3541 1.11803,3.3541c-2.01958,4.01504 -5.07147,8.43722 -8.79037,12.21054c1.93687,0.87495 3.87372,1.74997 5.81068,2.62473c4.15957,1.87851 8.33138,4.13848 12.61922,5.70504c1.59449,0.58255 8.14531,2.31468 9.612,2.88637c1.52143,0.59302 2.8569,1.61943 4.39997,2.15363c6.0225,2.08494 13.02732,2.75831 19.26791,4.08867c6.52161,1.39027 13.05087,2.74951 19.56849,4.15931c0.27657,-0.68306 0.89467,-1.44633 2.27603,-1.44633c2.5,0 2.5,2.5 2.5,2.5l-0.01643,0.02683c2.20785,0.56624 4.40315,1.20378 6.66071,1.47317c3.95191,0 7.90382,0 11.85573,0c1.33333,0 2.83446,-0.64752 4,0h3c0,0 0,0 0,0c1.38071,0 2.5,1.11929 2.5,2.5c0,1.38071 -1.11929,2.5 -2.5,2.5l-3,0c-1.12165,0.29517 -2.30974,0.07682 -3.47757,0.01499c-4.16934,0.07901 -8.56996,0.427 -12.65989,-0.01499c-0.28751,0 -0.57503,0 -0.86254,0c-1.07398,0 -7.63358,0.14024 -8.46178,-0.47189c-0.59203,-0.43758 -0.90892,-1.09714 -1.14678,-1.82047zM424.36212,57.56377c2.08215,-1.90611 3.96578,-4.08225 5.57492,-6.30399l-1.12899,0.67088c-1.42886,1.44142 -2.85994,2.92906 -4.34902,4.33942c-0.28795,0.316 -0.57612,0.63169 -0.86413,0.94731c0.25574,0.11545 0.51148,0.23091 0.76722,0.34638zM415.22574,53.67381c0.50206,0.11473 0.99913,0.2496 1.47786,0.43559c0.40049,0.15559 0.79657,0.32171 1.18989,0.49439c0.31026,-0.3378 0.62148,-0.67547 0.9331,-1.01331c-1.18711,0.15157 -2.39853,0.17708 -3.60085,0.08333z" fill="#ffea00" stroke="none" stroke-width="0.5"/><path d="M268.17678,118.17344c-0.20669,0.73748 -0.78212,1.76407 -2.38414,1.76407c-2.5,0 -2.5,-2.5 -2.5,-2.5l1.62219,-3.34082c1.19149,-0.44681 8.08981,-3.04297 8.43175,-3.11906c0.76666,-0.1706 1.68442,0.63733 2.34643,0.21471c1.03383,-0.65999 1.17568,-2.20512 2.07606,-3.03801c1.32182,-1.22274 2.97604,-2.02809 4.47656,-3.02344c1.60505,-1.06469 6.67758,-4.02471 6.11388,-7.11899c-0.17309,-0.95012 -1.55859,-1.14354 -2.29524,-1.76807c-0.86096,-0.72992 -1.59538,-1.60727 -2.4931,-2.29148c-2.40843,-1.83564 -4.6759,-4.03693 -7.50301,-5.1221c-0.85732,-0.32908 -1.85681,0.25569 -2.75425,0.06101c-4.35286,-0.94426 -8.50197,-3.2637 -12.98208,-3.9897c-1.59464,-0.25841 -3.28539,0.17383 -4.83883,-0.2694c-0.03397,-0.00969 -0.0679,-0.01951 -0.10179,-0.02944l-0.0024,0.01678l-4.91336,-0.70191c-1.23096,-0.15585 -2.18283,-1.2068 -2.18283,-2.48007c0,-1.25484 0.92451,-2.29374 2.12954,-2.47274l3.16355,-0.52726c4.92632,-0.82105 10.02566,-2.07973 15.0007,-2.49148c6.29387,-0.5209 12.88473,-0.00852 19.2062,-0.00852c12.66667,0 25.33333,0 38,0c0,0 2.5,0 2.5,2.5c0,2.5 -2.5,2.5 -2.5,2.5c-12.66667,0 -25.33333,0 -38,0c-6.18241,0 -12.63881,-0.51792 -18.7938,-0.00852c-0.99652,0.08247 -1.99832,0.20064 -3.00281,0.34327c0.0735,0.02028 0.14632,0.0402 0.21841,0.05972c2.72915,0.7387 5.29243,2.0588 8.0569,2.65179c1.05804,0.22696 2.23762,-0.33222 3.24575,0.06101c0.42164,0.16446 8.54813,5.52011 9.138,5.9719c1.22809,0.94061 6.39687,5.90047 6.57066,6.84645c1.07537,5.8533 -4.34652,9.84203 -8.20662,12.42801c-1.27342,0.85309 -2.70285,1.5002 -3.84394,2.52356c-1.25899,1.12909 -1.82552,3.01018 -3.28293,3.86799c-1.05136,0.61881 -2.46576,-0.06352 -3.65357,0.21471c-2.10222,0.49241 -4.06647,1.43389 -6.06192,2.27604z" fill="#ffea00" stroke="none" stroke-width="0.5"/><path d="M262.79263,206.93752c2.5,0 2.5,2.5 2.5,2.5v3c-0.24408,2.25592 0.72317,5.02691 -0.73223,6.76777c-2.85099,3.41017 -7.89898,-0.82743 -9.85277,-1.99778c-1.62641,-1.07449 -3.56444,-1.78435 -4.87924,-3.22346c-0.86194,-0.94344 -0.83031,-2.42036 -1.34546,-3.58982c-2.4296,-5.51557 -3.81788,-10.96555 -5.61574,-16.73878c-0.44544,-1.43037 -0.72402,-2.94609 -1.46158,-4.25008c-0.85542,-1.51236 -2.54542,-2.48771 -3.24823,-4.07674c-0.30677,-0.69361 -1.55081,-9.21513 -1.79817,-10.31796c-0.99955,-4.45654 -3.21877,-8.69515 -4.03062,-13.18985c-0.30773,-1.7037 -0.34922,-3.45321 -0.31639,-5.18416c0.01962,-1.03466 0.86935,-2.11242 0.47288,-3.06831c-0.22988,-0.55423 -0.6573,1.06719 -1.1827,1.35695c-1.71891,0.94798 -5.60716,2.17916 -7.71919,2.88395c0,0 -2.37171,0.79057 -3.16228,-1.58114c-0.79057,-2.37171 1.58114,-3.16228 1.58114,-3.16228c2.55464,-0.85056 4.96862,-2.11903 7.56558,-2.82995c1.80364,-0.49375 4.06907,-2.09327 5.53253,-0.92914c1.84877,1.47063 1.45772,4.50818 1.8871,6.83118c0.57165,3.09274 0.73029,6.28333 1.65769,9.28862c0.8673,2.81049 1.93513,5.56841 2.58109,8.43787c0.69745,3.09817 0.16094,6.52561 1.48981,9.40991c0.66783,1.44951 2.27871,2.29278 3.05256,3.68857c1.06574,1.92226 2.6313,7.89033 3.24699,10.06845c1.21501,4.29825 2.40289,7.38405 4.08691,11.4495c0.31859,0.76912 0.08167,1.80615 0.65454,2.41018c0.95345,1.0053 2.4005,1.38435 3.60075,2.07653c1.04141,0.68896 2.11897,1.32616 3.12422,2.06688c0.22429,0.16527 0.56327,0.91322 0.54303,0.63535c-0.08028,-1.10179 -0.48816,-2.15482 -0.73223,-3.23223v-3c0,0 0,-2.5 2.5,-2.5z" fill="#ffea00" stroke="none" stroke-width="0.5"/><path d="M293.0287,254.31948c1.11803,2.23607 -1.11803,3.3541 -1.11803,3.3541l-0.81531,-0.26268c-0.12717,0.29193 -0.22772,0.60389 -0.31964,0.92236c3.14665,-0.64358 6.16988,-1.52334 9.43527,-2.32714c2.229,-0.54868 5.22382,0.36249 6.75311,-1.34946c0.82799,-0.92688 0.25139,-2.47296 0.37709,-3.70944c0,0 0.49029,-2.45145 2.94174,-1.96116c2.45145,0.49029 1.96116,2.94174 1.96116,2.94174c-0.52802,2.03212 -0.16199,4.5517 -1.58407,6.09637c-1.44654,1.57124 -3.98583,1.54615 -6.02787,2.17174c-5.40123,1.6547 -11.22668,3.19002 -16.85607,3.5906l-2.56825,1.71217c-0.40239,0.27681 -0.88987,0.43883 -1.41519,0.43883c-1.38071,0 -2.5,-1.11929 -2.5,-2.5c0,-0.69036 0.27982,-1.31536 0.73223,-1.76777l3.09691,-3.09691c0.48204,-1.02487 0.94198,-2.05955 1.36813,-3.10871l3.18469,-2.26268c0,0 2.23607,-1.11803 3.3541,1.11803z" fill="#ffea00" stroke="none" stroke-width="0.5"/><path d="M508.79263,197.93752c-1.5,-2 0.5,-3.5 0.5,-3.5l3.6676,-2.70068c4.84065,-7.73754 7.78523,-16.77692 13.21879,-24.14264l2.40396,-4.32714c0.41981,-0.7909 1.25182,-1.32954 2.20964,-1.32954c1.18975,0 2.18539,0.83109 2.43804,1.9444l0.38447,1.53786c0.57022,-3.15858 1.20102,-6.31703 1.71151,-9.39326c0,0 0.411,-2.46598 2.87698,-2.05499c2.46598,0.411 2.05499,2.87698 2.05499,2.87698c-0.96738,5.77801 -2.35822,11.83951 -2.93959,17.64396c-0.24275,2.42358 -0.29781,4.90752 -0.27559,7.40666c0.16408,1.86951 0.24759,3.72625 0.2492,5.53838c0.00148,1.66667 0.35405,3.37137 0,5v0.7735c0.00009,0.07592 0.00009,0.15179 0,0.22761v2.99889c0,1.38071 -1.11929,2.5 -2.5,2.5c-1.38071,0 -2.5,-1.11929 -2.5,-2.5l0,-3.2459c-0.0003,-0.25399 -0.0015,-0.50852 -0.00351,-0.76354c-0.12952,-0.36144 -0.10643,-1.70272 -0.0579,-3.19973c-0.05868,-2.28603 -0.1423,-4.59562 -0.17127,-6.89651c-0.43856,-3.87582 -1.07634,-7.8604 -2.16302,-11.58449c-0.83407,2.40924 -2.44537,4.30499 -3.9382,6.93837c-3.27568,5.77838 -5.69947,11.8634 -9.33371,17.4525l-4.3324,3.29932c0,0 -2,1.5 -3.5,-0.5z" fill="#ffea00" stroke="none" stroke-width="0.5"/><path d="M193.79263,103.93752c2.5,0 2.5,2.5 2.5,2.5v3c0,5.1486 0.19126,10.42224 0.24389,15.70361c1.17841,-1.58754 2.33612,-3.19654 3.42176,-4.86817c2.34508,-3.61086 5.13101,-6.50374 6.46265,-10.62601c0,0 0.79057,-2.37171 3.16228,-1.58114c2.37171,0.79057 1.58114,3.16228 1.58114,3.16228c-2.38399,6.97948 -7.93988,13.91469 -12.54301,19.67551c-0.79467,0.99453 -1.50975,1.8906 -2.1717,2.75249c-0.15164,4.14845 -0.50025,8.26238 -1.20806,12.28409c-0.17677,1.00437 -0.85317,1.88606 -0.98123,2.89779c-0.74328,5.8724 0.235,11.97123 -0.43085,17.9062c-0.23223,2.06994 -0.3672,6.35791 -1.66516,8.48391l-0.98177,2.94531c-0.31417,1.02156 -1.26534,1.76412 -2.38994,1.76412c-1.38071,0 -2.5,-1.11929 -2.5,-2.5v-4c0.00034,-2.09634 0.08289,-6.61035 -0.19455,-8.87375c-0.76582,-6.24756 -2.623,-12.1319 -1.77317,-18.5267c0.30328,-2.2821 2.01287,-5.28399 2.99558,-7.24544c1.15581,-2.30694 2.51553,-4.45871 3.96863,-6.54382c0.30905,-7.58165 0.0035,-15.23716 0.0035,-22.81028v-3c0,0 0,-2.5 2.5,-2.5zM190.57762,143.39378c-0.61215,1.24187 -1.22297,2.62391 -1.31727,3.44419c-0.23524,2.04627 -0.17521,4.03805 0.03288,6.00777c0.00276,-2.31056 0.0107,-4.63899 0.03168,-4.80868c0.13353,-1.08018 0.82737,-2.03077 1.01877,-3.10221c0.09144,-0.51188 0.16836,-1.02572 0.23393,-1.54107z" fill="#ffea00" stroke="none" stroke-width="0.5"/><path d="M219.09114,62.03795l2.39429,-0.6891c1.85996,-1.40978 3.55182,-2.68802 3.55897,-2.69227c1.03755,-0.61587 2.38707,-0.61557 3.37505,-1.30818c1.35725,-0.95148 2.16318,-2.55706 3.51228,-3.52006c0.82914,-0.59184 1.89656,-0.75363 2.83806,-1.14773c2.88433,-2.65917 5.57172,-5.54266 7.9991,-8.7109c1.5673,-2.04566 3.1662,-4.09175 4.41853,-6.34405c0.41272,-0.74227 0.58519,-1.59752 0.79865,-2.4314c-3.48443,1.77384 -6.99563,3.5505 -9.7559,6.28861c-5.57767,2.68516 -11.77767,4.8731 -17.07741,8.05227c-2.27904,1.36714 -3.87947,3.65539 -6.03388,5.21154c-0.08645,0.06244 -8.54467,5.14058 -8.75253,5.26208c-0.36753,0.21483 -0.88533,0.56844 -1.50131,0.96802c-0.04478,0.43952 -0.02596,0.86974 0.13179,1.28108c0.29169,0.76061 1.45504,0.73301 2.18256,1.09952l0.61325,-0.41987c0,0 2.5,0 2.5,2.5c0,2.5 -2.5,2.5 -2.5,2.5l-3.38675,-0.41987c-1.27248,-0.96683 -3.158,-1.44477 -3.81744,-2.90048c-0.2007,-0.44306 -0.32015,-0.90621 -0.38623,-1.38238c-1.62169,0.38073 -3.20023,0.15318 -4.29992,-1.45903c-2.49816,-3.66243 0.71158,-8.35061 1.42262,-11.73869c0.24371,-1.16129 -0.31218,-2.4668 0.15802,-3.55625c0.54828,-1.27036 1.60865,-2.32683 2.82833,-3.29217c0.07675,-0.63236 0.46968,-2.25113 2.48137,-2.25113c0.20608,0 0.39517,0.01699 0.56867,0.04816c0.96893,-0.69674 1.86399,-1.39769 2.52046,-2.16017c1.99071,-2.31219 3.13891,-5.23567 4.83074,-7.77474c0,0 1.38675,-2.08013 3.46688,-0.69338c2.08013,1.38675 0.69338,3.46688 0.69338,3.46688c-1.79692,2.69394 -3.05428,5.7731 -5.16926,8.22526c-0.09278,0.10757 -2.54629,2.16919 -4.40063,3.71755c0.02396,3.0037 0.08012,6.01729 0.05964,9.02254c2.30422,-1.32415 4.6767,-2.54176 6.82866,-4.09614c2.22194,-1.60493 3.89853,-3.93089 6.24133,-5.35359c5.21647,-3.16777 11.36754,-5.4084 16.92259,-7.94773c3.61864,-3.6495 8.62538,-5.63788 13.12029,-8.0811l2.90205,-1.9347c0.40239,-0.27681 0.88987,-0.43883 1.41519,-0.43883c1.38071,0 2.5,1.11929 2.5,2.5c0,0.32061 -0.06035,0.62712 -0.17031,0.90879l-1.68892,4.64453c-0.34061,1.63876 -0.88385,3.26157 -1.87041,5.0544c-0.83712,1.52126 -2.19292,2.69726 -3.18091,4.12516c-0.04254,0.06148 -0.08515,0.12287 -0.12783,0.18416c0.25321,0.19519 0.49469,0.46788 0.70857,0.84188c1.24108,2.17019 -0.92911,3.41127 -0.92911,3.41127l-2.26444,1.28068c-0.27829,0.24479 -1.92196,1.6946 -3.61623,3.1808c1.22121,-0.50877 2.33845,-1.26741 3.52156,-1.86774c0,0 2.23607,-1.11803 3.3541,1.11803c1.11803,2.23607 -1.11803,3.3541 -1.11803,3.3541c-1.6049,0.79223 -3.11815,1.80653 -4.81469,2.37668c-1.46536,0.49246 -3.09531,0.32048 -4.57199,0.77788c-2.46781,0.7644 -4.94706,1.94458 -7.3506,3.24248c-3.44491,2.65675 -7.10374,5.10745 -10.95744,7.4244l-3.90312,2.92734c-0.42124,0.32311 -0.94829,0.51515 -1.5202,0.51515c-1.38071,0 -2.5,-1.11929 -2.5,-2.5c0,-0.69036 0.27982,-1.31536 0.73223,-1.76777l3.53553,-3.53553l0.0198,0.0198c0.03359,-0.04471 0.0675,-0.08922 0.10174,-0.13351c0.0134,-0.01734 0.23378,-0.18998 0.595,-0.46811c-0.18723,-1.92934 1.8142,-2.51444 1.8142,-2.51444zM199.72638,58.55451c-0.04525,0.24681 0.30354,-0.41078 0.50944,-0.5542c0.01505,-0.01048 0.03011,-0.02096 0.04518,-0.03142c-0.01062,-0.45725 -0.01912,-0.91472 -0.02582,-1.37235c-0.21974,0.64151 -0.40661,1.29144 -0.5288,1.95797z" fill="#ffea00" stroke="none" stroke-width="0.5"/><path d="M371.29263,30.43872c-0.0012,-2.5 2.4988,-2.5012 2.4988,-2.5012l2.05864,-0.00099c9.02633,-0.00246 17.89537,-0.99901 26.94256,-0.99901c2.66667,0 5.39926,-0.58929 8,0l4,0c0,0 0,0 0,0c1.38071,0 2.5,1.11929 2.5,2.5c0,1.15743 -0.78655,2.13115 -1.8543,2.41581l-2.50369,0.72925c-4.58188,1.33156 -8.98302,3.55113 -13.63342,4.58457c-5.95155,1.32258 -12.35613,1.07045 -18.40944,1.33364c-10.04021,0.43653 -20.05033,0.43673 -30.09915,0.43673c0,0 -2.5,0 -2.5,-2.5c0,-2.5 2.5,-2.5 2.5,-2.5c9.97644,0 19.91418,0.00137 29.88197,-0.43201c5.73524,-0.24936 11.86659,0.042 17.50893,-1.21183c0.42747,-0.09499 0.85308,-0.20048 1.27712,-0.31475c-7.89899,0.18798 -15.68959,0.95218 -23.60818,0.9576l-2.05864,0.00099c0,0 -2.5,0.0012 -2.5012,-2.4988z" fill="#ffea00" stroke="none" stroke-width="0.5"/></g></g></svg>