<svg version="1.1" xmlns="http://www.w3.org/2000/svg" xmlns:xlink="http://www.w3.org/1999/xlink" width="215.86812" height="202.21337" viewBox="0,0,215.86812,202.21337"><defs><linearGradient x1="353.23226" y1="161.79291" x2="353.23226" y2="170.87661" gradientUnits="userSpaceOnUse" id="color-1"><stop offset="0" stop-color="#cb00ff"/><stop offset="1" stop-color="#ff0000"/></linearGradient><linearGradient x1="352.76774" y1="255.37137" x2="352.76774" y2="264.45508" gradientUnits="userSpaceOnUse" id="color-2"><stop offset="0" stop-color="#ffc000"/><stop offset="1" stop-color="#5aff00"/></linearGradient><linearGradient x1="352.09373" y1="169.7381" x2="352.09373" y2="255.2317" gradientUnits="userSpaceOnUse" id="color-3"><stop offset="0" stop-color="#ff0000"/><stop offset="1" stop-color="#ffc800"/></linearGradient><linearGradient x1="352.36091" y1="177.21881" x2="352.36091" y2="248.81969" gradientUnits="userSpaceOnUse" id="color-4"><stop offset="0" stop-color="#704100"/><stop offset="1" stop-color="#ff0000"/></linearGradient></defs><g transform="translate(-235.71334,-88.005)"><g stroke-miterlimit="10"><text transform="translate(252.09655,137.32886) scale(0.97671,0.97671)" font-size="40" xml:space="preserve" fill="#000000" stroke="#ffffff" stroke-width="1" font-family="Pixel" font-weight="normal" text-anchor="start"><tspan x="0" dy="0">You Got!</tspan></text><path d="M286.39403,270.15968c0,0 -2.113,-5.05365 -2.113,-21.36636c0,-21.90116 0,-50.41457 0,-63.81798c0,-14.21979 3.09906,-26.4269 3.09906,-26.4269c0,0 1.9462,-7.87185 7.32508,-7.87185c14.82673,0 84.99103,0 111.81299,0c6.50392,0 7.07857,8.43409 7.07857,8.43409c0,0 3.3808,6.41373 3.3808,24.74008c0,21.62501 0,48.09346 0,60.72549c0,13.87123 -2.32431,24.74 -2.32431,24.74c0,0 -1.45722,8.49546 -7.71201,8.59481c-26.53557,0.42144 -97.5858,1.52611 -113.25731,1.52611c-6.14802,0 -7.28985,-9.27751 -7.28985,-9.27751z" fill="#c7c7c7" stroke="#000000" stroke-width="2.5"/><path d="M289.57149,266.93679c0,0 -2.00849,-4.75358 -2.00849,-20.09756c0,-20.60058 0,-47.42082 0,-60.02829c0,-13.37538 2.94577,-24.85758 2.94577,-24.85758c0,0 1.84992,-7.40439 6.96273,-7.40439c14.09331,0 80.78686,0 106.28206,0c6.18219,0 6.72841,7.93326 6.72841,7.93326c0,0 3.21358,6.03283 3.21358,23.27092c0,20.34084 0,45.23756 0,57.11945c0,13.04752 -2.20934,23.27084 -2.20934,23.27084c0,0 -1.38514,7.99099 -7.33055,8.08443c-25.22296,0.39643 -92.75863,1.4355 -107.65493,1.4355c-5.8439,0 -6.92926,-8.7266 -6.92926,-8.7266z" fill="none" stroke="#8f8f8f" stroke-width="6.5"/><g fill="#ffffff" stroke="none" stroke-width="0"><path d="M384.06657,176.51945c0.11003,-5.19848 1.25499,-9.05667 2.55737,-8.61752c1.30238,0.43914 2.26897,5.00932 2.15895,10.20778c-0.11003,5.19848 -1.25499,9.05667 -2.55737,8.61752c-1.30238,-0.43914 -2.26897,-5.00932 -2.15895,-10.20778z"/><path d="M394.36989,178.63934c0.11003,-5.19847 1.94897,-8.82266 4.10739,-8.09487c0.75494,0.25455 1.84459,0.765 2.42326,1.85934c0.5845,1.10538 3.63927,0.87519 5.75331,3.0269c1.77695,1.8086 2.7149,5.95892 2.68223,7.50263c-0.02929,1.38417 0.27214,6.32368 -1.81819,7.48584c-1.98516,1.10368 -0.0804,0.75081 -0.46611,1.46272c-0.73345,1.35376 -7.93501,-2.16214 -8.97292,-2.51208c-2.15844,-0.72779 -3.819,-5.53198 -3.70897,-10.73042z"/></g><text transform="translate(397.55553,169.42987) scale(0.70586,0.70586)" font-size="40" xml:space="preserve" fill="#ffffff" stroke="#000000" stroke-width="1" font-family="Pixel" font-weight="normal" text-anchor="start"><tspan x="0" dy="0">1%</tspan></text><g><path d="M320.90499,170.87661l-5.87769,-8.72035l76.40991,-0.36335l-6.94635,9.08369z" fill="url(#color-1)" stroke="#000000" stroke-width="2.5"/><path d="M384.02635,255.37139l6.94635,9.08369l-76.40991,-0.36335l5.87769,-8.72035z" fill="url(#color-2)" stroke="#000000" stroke-width="2.5"/><path d="M320.3008,255.2317v-85.4936h63.58586v85.4936z" fill="url(#color-3)" stroke="#000000" stroke-width="2.5"/><path d="M373.19997,213.01925c0,19.77204 -9.32997,35.80044 -20.83907,35.80044c-11.5091,0 -20.83907,-16.0284 -20.83907,-35.80044c0,-19.77204 9.32997,-35.80044 20.83907,-35.80044c11.5091,0 20.83907,16.0284 20.83907,35.80044z" fill="url(#color-4)" stroke="#000000" stroke-width="2.5"/><g><path d="M350.65411,207.16728c0,0 -0.72065,-3.8897 -0.28473,-5.71815c0.44034,-1.84701 2.91366,-5.30876 2.91366,-5.30876l4.90085,1.16841c0,0 -2.56717,3.36169 -2.99849,5.17082c-0.44459,1.86481 0.36955,5.85608 0.36955,5.85608z" fill="#773200" stroke="none" stroke-width="0"/><g fill="#ff6900" stroke="none" stroke-width="0"><path d="M346.48042,216.43262c0,6.60849 -2.8804,11.96573 -6.43354,11.96573c-3.55315,0 -6.43354,-5.35724 -6.43354,-11.96573c0,-6.60849 2.8804,-11.96573 6.43354,-11.96573c3.55315,0 6.43354,5.35724 6.43354,11.96573z"/><path d="M352.57464,216.58252c0,7.05116 -2.8804,12.76727 -6.43354,12.76727c-3.55315,0 -6.43354,-5.7161 -6.43354,-12.76727c0,-7.05116 2.8804,-12.76727 6.43354,-12.76727c3.55315,0 6.43354,5.7161 6.43354,12.76727z"/><path d="M365.95313,205.0748c3.55315,0 6.43354,5.35724 6.43354,11.96573c0,6.60849 -2.8804,11.96573 -6.43354,11.96573c-3.55315,0 -6.43354,-5.35724 -6.43354,-11.96573c0,-6.60849 2.8804,-11.96573 6.43354,-11.96573z"/><path d="M359.85891,204.42317c3.55315,0 6.43355,5.7161 6.43355,12.76727c0,7.05116 -2.8804,12.76727 -6.43355,12.76727c-3.55315,0 -6.43354,-5.7161 -6.43354,-12.76727c0,-7.05116 2.88039,-12.76727 6.43354,-12.76727z"/><path d="M353.18421,203.42802c3.55315,0 6.43354,5.97243 6.43354,13.33979c0,7.36736 -2.8804,13.33979 -6.43354,13.33979c-3.55315,0 -6.43354,-5.97243 -6.43354,-13.33979c0,-7.36736 2.8804,-13.33979 6.43354,-13.33979z"/></g><path d="M340.9293,223.18711c-0.69588,0 -0.69588,-0.69588 -0.69588,-0.69588v-0.57252c0,-4.33697 0.52605,-8.29468 2.47807,-12.21969c0,0 0.31121,-0.62241 0.93361,-0.31121c0.62241,0.31121 0.31121,0.93361 0.31121,0.93361c-1.87076,3.71885 -2.33113,7.48566 -2.33113,11.59727v0.57252c0,0 0,0.69588 -0.69588,0.69588z" fill="#ce5600" stroke="none" stroke-width="0.5"/><path d="M348.61644,222.91379c-0.65157,0.24434 -0.89591,-0.40723 -0.89591,-0.40723l-0.37666,-1.03622c-0.04318,-3.57952 0.41183,-8.86492 3.61934,-11.00858c0,0 0.57901,-0.386 0.96501,0.193c0.386,0.57901 -0.193,0.96501 -0.193,0.96501c-2.71789,1.807 -2.9721,6.57952 -3.02193,9.60225l0.31037,0.79586c0,0 0.24434,0.65157 -0.40723,0.89591z" fill="#ce5600" stroke="none" stroke-width="0.5"/><path d="M355.92941,222.72909c-0.69588,0 -0.69588,-0.69588 -0.69588,-0.69588v-0.1145c0,-3.97474 0.0995,-7.46256 2.80113,-10.64379c0,0 0.45287,-0.52835 0.98122,-0.07548c0.52835,0.45287 0.07548,0.98122 0.07548,0.98122c-2.49692,2.8816 -2.46608,6.12579 -2.46608,9.73804v0.1145c0,0 0,0.69588 -0.69588,0.69588z" fill="#ce5600" stroke="none" stroke-width="0.5"/><path d="M362.79969,221.46954c-0.69588,0 -0.69588,-0.69588 -0.69588,-0.69588v-0.68702c0.00535,-2.60089 0.72999,-6.69045 3.31415,-7.75086c0,0 0.65157,-0.24434 0.89591,0.40723c0.24434,0.65157 -0.40723,0.89591 -0.40723,0.89591c-1.91853,0.61467 -2.4153,4.63512 -2.41107,6.44772v0.68702c0,0 0,0.69588 -0.69588,0.69588z" fill="#ce5600" stroke="none" stroke-width="0.5"/><path d="M345.09615,224.36096c0,0 -1.57865,-0.99568 -2.18078,-1.88174c-0.85893,-1.26395 -2.48183,-4.9795 -2.48183,-4.9795l4.66261,2.61561c0,0 3.27628,0.98559 5.00377,0.98559c0.50263,0 2.57598,0.0243 2.57598,0.0243l0.20047,0.06797l1.01593,1.17275l1.55029,0.02602l0.56222,-1.45551l2.8138,-0.82113c0,0 1.24424,-0.81175 2.04396,-1.17397c1.18951,-0.53877 4.4003,-1.7449 4.4003,-1.7449c0,0 -1.43202,2.87311 -2.54763,4.11342c-0.30168,0.33539 -2.67977,3.00221 -2.67977,3.00221l-0.73189,-2.27463l-1.4666,0.40757l-0.29251,2.23397l-1.46727,0.65095c0,0 -2.99535,0.16825 -3.89239,0.16825c-0.29826,0 -1.85354,0.11466 -2.42318,-0.45796c-0.09437,-0.09487 -0.34102,-0.32069 -0.34102,-0.32069l0.0014,-1.72985l-1.98392,-0.2164c0,0 -0.2531,1.76497 -0.51372,1.94165c-0.43083,0.29207 -1.82824,-0.35399 -1.82824,-0.35399z" fill="#ffe500" stroke="#000000" stroke-width="1"/><path d="M352.65557,212.06855l3.3348,6.34603h-6.6696z" fill="#ffe500" stroke="#000000" stroke-width="1"/><path d="M344.89831,206.67303l3.3348,6.34603h-6.6696z" fill="#ffe500" stroke="#000000" stroke-width="1"/><path d="M360.01349,206.31878l3.3348,6.34603h-6.6696z" fill="#ffe500" stroke="#000000" stroke-width="1"/></g></g><text transform="translate(236.78851,282.20656) scale(0.76303,0.76303)" font-size="40" xml:space="preserve" fill="#ffffff" stroke="#000000" stroke-width="1" font-family="Pixel" font-weight="normal" text-anchor="start"><tspan x="0" dy="0">Rainbow Pack</tspan></text></g></g></svg>