<svg version="1.1" xmlns="http://www.w3.org/2000/svg" xmlns:xlink="http://www.w3.org/1999/xlink" width="196.41011" height="191.21876" viewBox="0,0,196.41011,191.21876"><g transform="translate(-250.71984,-88.68269)"><g stroke-miterlimit="10"><text transform="translate(252.09611,138.00654) scale(0.97671,0.97671)" font-size="40" xml:space="preserve" fill="#000000" stroke="#ffffff" stroke-width="1" font-family="Pixel" font-weight="normal" text-anchor="start"><tspan x="0" dy="0">You Got!</tspan></text><path d="M285.04146,267.40401c0,0 -2.07146,-4.9543 -2.07146,-20.94634c0,-21.47062 0,-49.42352 0,-62.56343c0,-13.94025 3.03815,-25.90739 3.03815,-25.90739c0,0 1.90793,-7.71709 7.18107,-7.71709c14.53525,0 83.32025,0 109.61495,0c6.37606,0 6.9394,8.26829 6.9394,8.26829c0,0 3.31435,6.28764 3.31435,24.25373c0,21.19991 0,47.14803 0,59.53174c0,13.59855 -2.27862,24.25365 -2.27862,24.25365c0,0 -1.42856,8.32846 -7.56041,8.42586c-26.01393,0.41316 -95.66744,1.49611 -111.03088,1.49611c-6.02716,0 -7.14654,-9.09513 -7.14654,-9.09513z" fill="#c7c7c7" stroke="#000000" stroke-width="2.5"/><path d="M288.15644,264.24447c0,0 -1.969,-4.66012 -1.969,-19.70247c0,-20.19561 0,-46.48861 0,-58.84824c0,-13.11246 2.88787,-24.36893 2.88787,-24.36893c0,0 1.81355,-7.25883 6.82584,-7.25883c13.81626,0 79.19874,0 104.19275,0c6.06067,0 6.59615,7.7773 6.59615,7.7773c0,0 3.1504,5.91424 3.1504,22.81345c0,19.94098 0,44.34828 0,55.99658c0,12.79104 -2.16591,22.81338 -2.16591,22.81338c0,0 -1.35791,7.8339 -7.18644,7.9255c-24.72713,0.38864 -90.93515,1.40727 -105.53863,1.40727c-5.72901,0 -6.79305,-8.55505 -6.79305,-8.55505z" fill="none" stroke="#8f8f8f" stroke-width="6.5"/><g fill="#ffffff" stroke="none" stroke-width="0"><path d="M380.79396,175.60457c0.10787,-5.09628 1.23031,-8.87863 2.50708,-8.44812c1.27677,0.43051 2.22436,4.91084 2.11651,10.00713c-0.10787,5.09628 -1.23031,8.87863 -2.50708,8.44812c-1.27677,-0.43051 -2.22436,-4.91084 -2.11651,-10.00713z"/><path d="M390.89474,177.68279c0.10787,-5.09628 1.91066,-8.64922 4.02665,-7.93574c0.74009,0.24955 1.80833,0.74998 2.37563,1.82279c0.57301,1.08364 3.56773,0.85798 5.6402,2.96739c1.74203,1.77305 2.66153,5.84178 2.6295,7.35515c-0.02872,1.35697 0.26678,6.19937 -1.78244,7.33868c-1.94615,1.08198 -0.07882,0.73605 -0.45695,1.43396c-0.71904,1.32716 -7.77901,-2.11964 -8.79652,-2.4627c-2.116,-0.71348 -3.74393,-5.42323 -3.63607,-10.51948z"/></g><text transform="translate(376.6453,170.72139) scale(0.69443,0.69443)" font-size="40" xml:space="preserve" fill="#ffffff" stroke="#000000" stroke-width="1" font-family="Pixel" font-weight="normal" text-anchor="start"><tspan x="0" dy="0">25%</tspan></text><text transform="translate(280.11393,273.16003) scale(0.64204,0.64204)" font-size="40" xml:space="preserve" fill="#ffffff" stroke="#000000" stroke-width="1" font-family="Pixel" font-weight="normal" text-anchor="start"><tspan x="0" dy="0">Candy Bat</tspan></text><g><path d="M361.91919,183.79799l9.86219,-17.95238c0,0 7.75429,-0.47336 10.63273,1.10792c2.87844,1.58128 6.63792,8.37975 6.63792,8.37975l-9.86219,17.95238z" fill="#525252" stroke="#000000" stroke-width="1"/><path d="M366.65623,184.32953l5.70971,-10.39348c0,0 4.4893,-0.27405 6.15577,0.64143c1.66647,0.91548 3.84301,4.85144 3.84301,4.85144l-5.70969,10.39348z" fill="#000000" stroke="none" stroke-width="0"/><path d="M309.2955,193.80422l-9.86219,-17.95236c0,0 3.75948,-6.79849 6.6379,-8.37977c2.87844,-1.58128 10.63273,-1.10792 10.63273,-1.10792l9.86219,17.95236z" fill="#525252" stroke="#000000" stroke-width="1"/><path d="M311.8303,190.34094l-5.70969,-10.39348c0,0 2.17654,-3.93596 3.84301,-4.85144c1.66647,-0.91548 6.15579,-0.64143 6.15579,-0.64143l5.70969,10.39348z" fill="#000000" stroke="none" stroke-width="0"/><path d="M323.62098,218.50834c0,0 -5.5557,1.03253 -9.33972,3.98746c-2.11313,1.65015 -1.5662,5.62128 -4.27524,6.19381c-2.78499,0.58858 -8.8657,-0.14619 -10.4744,0.87852c-1.9629,1.2503 -1.20581,1.00135 -2.7231,4.61825c-1.67769,3.99924 -5.5987,4.96662 -5.5987,4.96662c0,0 -7.04364,-4.21471 -8.65759,-6.81025c-2.08362,-3.35078 -2.79893,-11.61369 -2.79893,-11.61369c0,0 6.73215,-6.08885 10.23605,-8.3207c5.94663,-3.78778 22.1751,-12.32396 22.1751,-12.32396z" fill="#ff9cda" stroke="none" stroke-width="0"/><path d="M375.73433,201.38079c0,0 16.22845,8.53619 22.1751,12.32396c3.5039,2.23184 10.23607,8.32072 10.23607,8.32072c0,0 -0.71532,8.26291 -2.79893,11.61369c-1.61395,2.59553 -8.65759,6.81025 -8.65759,6.81025c0,0 -3.92102,-0.96738 -5.5987,-4.96664c-1.51729,-3.61692 -0.7602,-3.36795 -2.7231,-4.61825c-1.60872,-1.02469 -7.68943,-0.28993 -10.47442,-0.87852c-2.70904,-0.57255 -2.16211,-4.54366 -4.27524,-6.19381c-3.78402,-2.95493 -9.33972,-3.98746 -9.33972,-3.98746z" fill="#ff9cda" stroke="none" stroke-width="0"/><path d="M314.21804,247.26936c0,0 -4.78436,-4.02299 -4.78436,-12.42301c0,-14.20613 0,-34.71128 0,-42.18932c0,-5.4551 1.73977,-9.32406 1.73977,-9.32406c0,0 3.22516,-2.60964 7.73875,-2.60964c7.26255,0 29.71653,0 44.79896,0c8.35181,0 10.52879,1.30483 10.52879,1.30483c0,0 3.91447,4.62993 3.91447,9.759c0,7.12126 0,26.90779 0,41.31943c0,9.28403 -3.04458,12.42301 -3.04458,12.42301c0,0 -4.76262,3.91447 -10.96373,3.91447c-6.53649,0 -21.66486,0 -34.36038,0c-11.1071,0 -15.56771,-2.17472 -15.56771,-2.17472z" fill="#9ccfff" stroke="#000000" stroke-width="1.5"/><path d="M352.602,196.8861c0,-4.00947 3.2503,-7.25977 7.25977,-7.25977c4.00947,0 7.25977,3.2503 7.25977,7.25977c0,4.00947 -3.2503,7.25977 -7.25977,7.25977c-4.00947,0 -7.25977,-3.2503 -7.25977,-7.25977z" fill="#000000" stroke="none" stroke-width="0"/><path d="M325.34083,196.29347c0,-4.00947 3.2503,-7.25977 7.25977,-7.25977c4.00947,0 7.25977,3.2503 7.25977,7.25977c0,4.00947 -3.2503,7.25977 -7.25977,7.25977c-4.00947,0 -7.25977,-3.2503 -7.25977,-7.25977z" fill="#000000" stroke="none" stroke-width="0"/><path d="M334.30656,193.6064c0,-1.30178 1.0553,-2.35706 2.35706,-2.35706c1.30178,0 2.35706,1.0553 2.35706,2.35706c0,1.30178 -1.0553,2.35706 -2.35706,2.35706c-1.30178,0 -2.35706,-1.0553 -2.35706,-2.35706z" fill="#ffffff" stroke="none" stroke-width="0"/><path d="M360.8943,193.79493c0,-1.30178 1.0553,-2.35708 2.35708,-2.35708c1.30176,0 2.35708,1.0553 2.35708,2.35708c0,1.30178 -1.0553,2.35706 -2.35708,2.35706c-1.30176,0 -2.35708,-1.0553 -2.35708,-2.35706z" fill="#ffffff" stroke="none" stroke-width="0"/><path d="M365.51736,221.50175c0.75462,3.01845 -2.26383,3.77305 -2.26383,3.77305l-1.28023,0.30985c-6.04185,0.96501 -10.70441,-2.42601 -16.36002,-2.04016c-1.92986,0.13167 -3.64934,1.75303 -5.31799,2.38805c-4.31521,1.64222 -9.06383,1.25011 -13.57669,1.25011c0,0 -3.11133,0 -3.11133,-3.11133c0,-3.11133 3.11133,-3.11133 3.11133,-3.11133c3.5985,0 7.88113,0.56581 11.31394,-0.82413c2.36567,-0.95785 4.58363,-2.5891 7.12735,-2.79748c5.59544,-0.45838 10.10255,3.10689 15.7904,2.10828l0.79399,-0.20873c0,0 3.01845,-0.75462 3.77305,2.26383z" fill="#000000" stroke="none" stroke-width="0.5"/><path d="M350.79921,214.31976c0,3.1044 -2.96402,5.62103 -6.62033,5.62103c-3.65631,0 -6.62033,-2.51663 -6.62033,-5.62103c0,-1.20133 1.44316,-1.81496 2.19921,-2.72847c1.19774,-1.44716 2.17969,-4.26661 4.42112,-4.26661c1.53781,0 2.45351,2.44376 3.57737,3.19063c1.54824,1.02888 3.04296,2.00573 3.04296,3.80445z" fill="#403f3f" stroke="none" stroke-width="0"/></g></g></g></svg>