<svg version="1.1" xmlns="http://www.w3.org/2000/svg" xmlns:xlink="http://www.w3.org/1999/xlink" width="200.04059" height="184.97472" viewBox="0,0,200.04059,184.97472"><g transform="translate(-243.3472,-93.21416)"><g stroke-miterlimit="10"><path d="M307.66708,237.32394c-26.74189,-18.84759 -33.14149,-55.80517 -14.29392,-82.54706c18.84759,-26.74189 55.80517,-33.14149 82.54706,-14.29392c26.74189,18.84759 33.14149,55.80517 14.29392,82.54706c-18.84759,26.74189 -55.80517,33.14149 -82.54706,14.29392z" fill="#ffee37" stroke="none" stroke-width="0"/><path d="M311.51835,231.85957c-23.72401,-16.72058 -29.4014,-49.5074 -12.68081,-73.23141c16.72058,-23.72401 49.5074,-29.4014 73.23141,-12.68081c23.72401,16.72058 29.4014,49.5074 12.68081,73.23141c-16.72058,23.72401 -49.5074,29.4014 -73.23141,12.68081z" fill="#fffac4" stroke="#000000" stroke-width="0"/><path d="M300.99508,248.87728c1.40123,0.59653 1.40123,2.29602 1.40123,2.29602l-4.58013,1.88675c-1.50198,-2.25341 -3.26173,-4.3407 -4.61338,-6.68736c-1.72624,-2.99702 -1.70959,-6.30049 -3.79326,-9.18191c-1.56744,-2.16753 -2.501,-1.6556 -4.7027,-3.67474c-2.72305,-2.49726 -4.28536,-6.06868 -5.63173,-9.41427c-0.64358,-1.60894 -1.41206,-3.272 -2.04228,-4.96634c-3.91364,-4.02364 -6.88187,-9.33829 -9.25272,-14.36783c0,0 -0.94654,-2.02257 0.66633,-3.29331c-0.68164,-3.04388 -1.38153,-6.10676 -0.93073,-9.17525c0.10531,-0.71686 0.25151,-1.42374 0.43184,-2.12114c-0.01169,-0.06621 -0.02256,-0.13259 -0.03252,-0.19915c-1.11559,-7.45251 1.97656,-15.02466 4.66008,-21.73393c0,0 0.92848,-2.32119 3.24967,-1.39272c2.32119,0.92848 1.39272,3.24967 1.39272,3.24967c-1.01616,2.54021 -2.16062,5.26383 -3.0475,8.06783c0.68786,-0.47045 1.77143,-0.82466 3.07548,0.09443l-0.00001,0c2.27683,1.6047 0.67213,3.88152 0.67213,3.88152l-0.71989,1.00158c-1.48548,2.56221 -3.02821,5.31315 -3.80906,8.23962c0.19595,0.65381 0.3893,1.30807 0.48893,1.98108c0.0985,0.66537 -0.323,1.37703 -0.10956,2.01489c0.21578,0.64486 0.97204,0.97437 1.3077,1.56576c2.15656,3.79947 5.05676,8.84395 5.77548,13.25204c0.22132,1.35743 -0.1525,2.76164 0.02094,4.12602c0.03019,0.23752 0.06983,0.47612 0.11767,0.71545c1.59459,-0.34933 2.70746,1.09657 2.70746,1.09657c3.41562,4.44021 6.9008,8.77447 10.55752,13.016l1.25566,1.67957c0,0 1.65997,2.23684 -0.57687,3.89682l-0.00002,0.00001c-0.30058,0.22306 -0.59074,0.37576 -0.86786,0.47297c1.67452,2.89337 1.82288,5.89796 3.5241,8.76997c1.01427,1.71229 2.24164,3.28673 3.40526,4.90337z" fill="#ffee37" stroke="none" stroke-width="0.5"/><path d="M407.39632,175.1733c2.5,0 2.5,2.5 2.5,2.5l-0.04855,1.49029c-0.68467,3.33173 -0.79539,6.73964 -0.73237,10.17279c0.1315,-0.4188 0.25564,-0.83956 0.37144,-1.26253l0,-0.00001c-0.22386,-0.64379 -0.21961,-1.46561 0.43952,-2.40083c1.6047,-2.27683 3.88152,-0.67213 3.88152,-0.67213l1.40882,3.13512c-1.27078,5.22294 -3.72083,10.02146 -5.87159,14.9549c-0.07833,1.43842 -0.22075,2.86923 -0.45731,4.2886c-0.00726,4.0421 -0.47785,7.82357 -2.30899,11.50387c-0.16064,0.32285 -0.3333,0.63904 -0.51457,0.95045c0.28963,1.20844 -0.48427,2.3065 -0.48427,2.3065c-1.24839,1.77128 -2.49678,3.54256 -3.74517,5.31384c-0.20099,0.65102 -0.41103,1.29769 -0.73207,1.89462c-0.83901,1.56006 -1.8877,3.07895 -3.05785,4.53875c-1.49577,5.72298 -5.50146,9.80248 -9.95194,14.72605l-0.4981,0.55105c0,0 -1.32274,1.46335 -2.97343,0.81406c0.94765,1.55741 -0.45732,2.96238 -0.45732,2.96238c-3.4618,3.4618 -8.43785,8.84398 -8.72389,-1.23411c-0.03775,-1.3301 1.15899,-2.40953 1.92801,-3.49543c2.71364,-3.83181 6.42024,-7.34254 9.8901,-10.42686c1.78148,-1.58354 3.72643,-3.38715 5.4782,-5.33309c0.31527,-1.28619 0.44835,-2.67521 0.34841,-4.20587c0,0 -0.1404,-2.78196 2.64156,-2.92235c0.2813,-0.01419 0.53561,0.00149 0.76548,0.04115c0.57252,-0.81232 1.18036,-1.67475 1.77633,-2.52034c0.84024,-1.6622 1.66268,-3.10932 2.40828,-4.49024c-0.02125,-4.05863 0.62709,-8.15081 0.4242,-12.15834c-0.45293,-0.68981 -0.76856,-1.75239 0.12832,-3.02491c0.80691,-1.14488 1.78377,-1.30832 2.55563,-1.18786c0.2224,-0.51087 0.44941,-1.02045 0.67906,-1.52927c0.15565,-7.43009 -0.94251,-14.98792 0.48108,-22.27054l-0.04855,-0.50971c0,0 0,-2.5 2.5,-2.5z" fill="#ffee37" stroke="none" stroke-width="0.5"/><path d="M330.60575,111.84705c1.00532,-0.31069 2.01065,-0.62139 3.01597,-0.93208c2.88354,-1.58236 5.54656,-2.67345 8.71938,-4.08172c1.12562,-1.94765 3.36059,-1.08346 3.36059,-1.08346c5.8956,2.28134 11.66573,4.08648 17.78996,5.71987l2.93902,1.54442c0,0 0.84938,0.4526 1.28356,1.32497c3.91402,2.76581 7.60799,5.55292 10.71112,9.37496l0,0.00001c0.21417,0.16043 2.09757,1.6579 0.73365,3.7479c1.8676,0.85022 3.68566,1.78562 5.40905,2.88189c1.09643,0.42543 1.8846,0.80097 2.93884,2.12115c0.75354,0.61948 1.48005,1.28476 2.17478,2.0038c0.95233,0.98565 1.95375,2.00434 2.50912,3.25734c0.44228,0.99784 -0.12845,2.28498 0.37634,3.25269c1.19995,2.30033 5.23341,3.12903 5.27518,5.72318c0.00649,0.40311 -0.04686,0.79345 -0.14488,1.17426l0.10269,0.02934l-0.98482,3.44686c-0.28053,1.07387 -1.25721,1.86634 -2.41899,1.86634c-0.85246,0 -1.60526,-0.42666 -2.05652,-1.07808l-1.86328,-2.61881l0.02327,-0.01655l-0.08207,-0.06987c-2.44193,-4.12517 -3.79243,-8.80242 -6.12333,-12.86321c-0.06415,-0.11176 -0.13477,-0.22129 -0.21136,-0.32869c-0.31139,-0.24635 -0.5485,-0.42576 -0.65283,-0.49981c-7.3359,-5.20719 -16.36619,-6.84546 -23.90962,-11.4733c-1.2929,-0.79319 -2.51577,-1.75253 -3.5039,-2.90334c-0.91718,-1.06818 -1.09495,-2.6899 -2.12385,-3.65094c-0.88317,-0.82492 -5.82563,-0.48186 -6.15185,-0.50221c-3.73942,-0.23319 -8.0595,-0.48401 -11.83231,-1.21115c-0.51364,0.29251 -1.03645,0.60478 -1.57333,0.94251l-1.33456,1.00173c0,0 -2.23684,1.65997 -3.89682,-0.57687l0.00001,-0.00001c-1.46409,-1.97289 0.10322,-3.49702 0.49351,-3.82925zM362.1684,120.02907c1.53197,0.89293 3.12963,1.67723 4.76305,2.4031c-0.17296,-0.23036 -0.35103,-0.46795 -0.53513,-0.71342c0,0 -0.64702,-0.86269 -0.52458,-1.87983c-1.43738,-1.02634 -2.91217,-2.02758 -4.3911,-3.06991c0,0 -0.07568,-0.05335 -0.18972,-0.15437c-0.83371,-0.21263 -1.6602,-0.43123 -2.48082,-0.65597c0.98795,1.51961 1.83525,3.18266 3.3583,4.0704zM345.27373,111.54853c-0.01657,0.01192 -0.03292,0.02348 -0.04903,0.03468c0.05399,0.00255 0.10798,0.00512 0.16196,0.00772c-0.03764,-0.01412 -0.07528,-0.02825 -0.11293,-0.0424z" fill="#ffee37" stroke="none" stroke-width="0.5"/><path d="M314.89632,266.6733c0,-2.5 2.5,-2.5 2.5,-2.5l2.74634,0.01217c1.51594,0.29633 2.99233,1.18945 4.52509,0.9983c0.46358,-0.05781 0.86949,-0.32614 1.28319,-0.56757c-0.2706,-0.50337 -0.38902,-1.16971 -0.14704,-2.03958l0.00001,0c0.74655,-2.68359 3.43013,-1.93706 3.43013,-1.93706l0.95639,0.27104c0.89194,0.30559 1.82325,0.51417 2.6758,0.91677c0.41427,0.19563 0.67476,1.07593 1.07607,0.85498c0.7572,-0.41688 0.91334,-1.4678 1.37,-2.2017c0,0 1.86786,-2.06642 3.93428,-0.19855c0.07736,0.06993 0.14919,0.14012 0.21583,0.21048c0.34031,-0.07326 0.5818,-0.07477 0.5818,-0.07477c3.87595,0.00073 6.95471,-0.93631 10.88739,-0.54313l1.63255,-0.13982c0.69611,-0.41831 1.55172,-0.51576 2.33063,-0.25144c3.84467,-1.08489 7.63743,-2.47489 11.51125,-3.26158c0,0 2.45145,-0.49029 2.94174,1.96116c0.49029,2.45145 -1.96116,2.94174 -1.96116,2.94174c-3.88216,0.76246 -7.68574,2.15754 -11.54055,3.25416c-0.75809,0.73615 -1.83465,0.82332 -1.83465,0.82332l-2.18731,0.1686c-0.52517,0.10474 -1.05207,0.19826 -1.58103,0.2783c-0.84317,0.12759 -1.73793,-0.34428 -2.55618,-0.10413c-0.66102,0.19401 -0.97329,1.0129 -1.58951,1.32089c-1.47563,0.7375 -6.54582,2.49237 -8.3543,2.78324c-2.51517,0.40454 -3.99879,-0.2835 -6.52398,-0.48213c-2.05201,-0.16141 -4.04296,0.82501 -6.09421,0.99582c-0.52784,0.04395 -4.58685,-0.8192 -5.47491,-1.0017l-2.25366,0.01217c0,0 -2.5,0 -2.5,-2.5z" fill="#ffee37" stroke="none" stroke-width="0.5"/><path d="M278.39632,233.6733c0,2.5 -2.5,2.5 -2.5,2.5l-2.11803,-0.26393c-1.44791,-0.73599 -3.01146,-1.2789 -4.34374,-2.20796c-3.18225,-2.21912 -4.37744,-6.47521 -6.92686,-9.3901c-3.52461,-4.02989 -7.60276,-7.50224 -8.56626,-13.16524c-0.05836,-0.34298 -0.04511,-6.87375 -0.04511,-7.47277c0,-6.33333 0,-12.66667 0,-19c0,0 0,-2.5 2.5,-2.5c2.5,0 2.5,2.5 2.5,2.5c0,2.77358 0,5.54717 0,8.32075c0.54626,0.0077 1.15848,0.21129 1.7892,0.78141l-0.00001,-0.00003c2.06642,1.86786 0.19855,3.93428 0.19855,3.93428l0.11908,-0.57029c-1.26189,3.6863 -0.0254,4.52001 2.8347,6.99505c0,0 1.36715,1.23578 0.87222,2.80904l0.32644,0.76427c1.20694,4.68499 -0.39084,7.56322 3.14528,10.48109c0.65974,-0.0792 1.34993,0.07599 1.93584,0.48894c1.25745,0.88624 1.55838,2.62407 0.67213,3.88152c-0.51875,0.73603 -1.32925,1.14434 -2.16441,1.17867c-0.08967,0.04236 -0.1794,0.07778 -0.26879,0.10697c1.17255,1.86801 2.33318,4.75887 4.00155,5.80022c1.15139,0.71866 2.43751,1.19469 3.65626,1.79204l-0.11803,-0.26393c0,0 2.5,0 2.5,2.5zM258.85121,210.20053c0.18997,1.17322 0.5683,2.25097 1.07651,3.26035c0.03504,-1.45857 0.11984,-2.9241 -0.2719,-4.30948l-0.73308,-1.57558c0,0 -0.08875,-0.20065 -0.16012,-0.51423c-0.00796,-0.007 -0.01591,-0.014 -0.02384,-0.02098c-0.05067,1.06008 -0.05651,2.11658 0.11243,3.15991z" fill="#ffee37" stroke="none" stroke-width="0.5"/><path d="M368.7452,104.84999c-1.6047,2.27683 -3.88152,0.67213 -3.88152,0.67213l-0.30357,-0.21395c-0.53832,-0.48666 -0.89896,-1.34183 -1.61497,-1.45995c-0.84161,-0.13885 -1.58565,0.88744 -2.4333,0.79211c-1.68021,-0.18898 -3.20744,-1.0713 -4.81117,-1.60696c0,0 -2.61883,-0.94908 -1.66974,-3.56791c0.16236,-0.44804 0.37362,-0.79163 0.61225,-1.05343c0.04495,-0.46494 0.20762,-0.9249 0.49597,-1.33402c0.88624,-1.25745 2.62407,-1.55838 3.88152,-0.67213c0.85358,0.6016 1.2664,1.5956 1.16631,2.56537c0.18393,0.04997 0.37125,0.08595 0.56311,0.10317c1.0786,0.09683 2.1168,-0.9633 3.16998,-0.71123c1.46908,0.35162 2.56628,1.59421 3.84942,2.39132l0.30357,0.21395c0,0 2.27683,1.6047 0.67213,3.88152z" fill="#fff15b" stroke="none" stroke-width="0.5"/><path d="M415.45798,220.69635c-2.27683,-1.6047 -0.67213,-3.88152 -0.67213,-3.88152l1.43552,-1.93805c0.06165,-0.32876 0.10888,-0.6699 0.14699,-1.02008c-0.64099,-0.93287 -0.67084,-2.20355 0.01938,-3.18287c0.07275,-0.10323 0.15126,-0.20002 0.23475,-0.29024c0.16983,-1.91214 0.53763,-3.78366 1.81278,-5.16481c0.06969,-0.07548 0.14085,-0.14927 0.21339,-0.22145l-0.05188,-0.03657l1.71168,-2.42861c0.88624,-1.25745 2.62407,-1.55838 3.88152,-0.67213c0.9948,0.70113 1.39094,1.93524 1.07418,3.04282l-0.74242,2.8461c-0.22133,2.24095 -0.72738,4.45703 -1.36831,6.61569c0,0 -0.4179,1.38932 -1.65318,1.86103c-0.05008,0.29449 -0.10696,0.58774 -0.17295,0.87937l-1.98782,2.91918c0,0 -1.6047,2.27683 -3.88152,0.67213z" fill="#fff15b" stroke="none" stroke-width="0.5"/><path d="M288.05659,146.80746c-1.25745,-0.88624 -1.55838,-2.62407 -0.67213,-3.88152c0.88624,-1.25745 2.62407,-1.55838 3.88152,-0.67213c1.25745,0.88624 1.55838,2.62407 0.67213,3.88152c-0.88624,1.25745 -2.62407,1.55838 -3.88152,0.67213z" fill="#fff15b" stroke="none" stroke-width="0.5"/><path d="M328.16025,276.79134c-1.11803,-2.23607 1.11803,-3.3541 1.11803,-3.3541l2.18956,-1.08512c3.87545,-1.48648 7.2141,-0.6516 11.0773,-1.02887c0.04487,-0.05828 0.09239,-0.11524 0.14255,-0.17074c0.84759,-0.93768 2.18787,-1.16495 3.27205,-0.64401c2.16735,-0.6875 4.95731,-1.64397 5.146,-1.7069c0,0 2.37171,-0.79057 3.16228,1.58114c0.79057,2.37171 -1.58114,3.16228 -1.58114,3.16228c-1.31136,0.43694 -6.81732,2.35434 -8.44382,2.60413c-3.78559,0.58136 -7.32943,-0.67547 -10.91828,0.84536l-1.81044,0.91488c0,0 -2.23607,1.11803 -3.3541,-1.11803z" fill="#ffee37" stroke="none" stroke-width="0.5"/><path d="M345.57512,94.79028c0.92848,-2.32119 3.24967,-1.39272 3.24967,-1.39272c4.78137,1.93786 8.40319,5.35291 13.79683,5.83136c5.05947,0.44881 10.85894,-1.14339 15.73141,0.68013c2.73085,1.02202 6.44986,5.10123 7.73935,7.61499c0.72167,1.40684 0.82086,3.07215 1.5,4.5c0.04559,0.09586 0.0949,0.19111 0.14764,0.28578c1.68186,0.86009 3.33406,1.75469 4.49584,3.14691c0.02391,0.02865 0.04773,0.05736 0.07149,0.08612l0.01284,-0.01444l3.7277,3.31351c0.52022,0.45813 0.84844,1.12915 0.84844,1.87683c0,1.38071 -1.11929,2.5 -2.5,2.5c-0.18573,0 -0.36673,-0.02025 -0.54091,-0.05867l-2.44938,-0.48988l0.07594,-0.37968l-0.86396,0.0767c-1.41397,-1.60247 -3.5564,-3.30571 -5.27812,-5.11904c-2.44664,-1.3594 -4.72509,-3.12916 -6.29356,-4.84791c-0.79574,-0.87198 -0.78611,-2.30973 -1.61178,-3.15342c-0.29143,-0.29779 -0.78779,-0.11141 -1.23653,-0.07363c0.36639,0.64892 0.53236,1.55497 -0.1332,2.67142l-0.00002,0.00003c-1.42633,2.3926 -3.81893,0.96627 -3.81893,0.96627l-2.06819,-1.29592c-2.59798,-2.64867 -4.33247,-1.76361 -7.84702,-3.28461c-5.46815,-2.36646 -10.60293,-5.95154 -15.89002,-8.77157c0,0 -2.45775,-1.31092 -1.14683,-3.76866c0.02627,-0.04926 0.05301,-0.097 0.08017,-0.14327c0.02868,-0.23373 0.09278,-0.4857 0.20116,-0.75665z" fill="#ffee37" stroke="none" stroke-width="0.5"/><path d="M401.12855,248.44107c-1.76777,-1.76777 0,-3.53553 0,-3.53553l0.98153,-0.87597c0.6782,-0.38001 1.35641,-0.76002 2.03461,-1.14003c1.81055,-3.00828 3.35557,-5.8564 4.71296,-8.94486c-0.29002,-1.33597 0.72208,-2.45565 0.72208,-2.45565l0.32249,-0.33615c0.04412,-0.05852 0.08757,-0.11707 0.13037,-0.17566c1.10577,-3.4236 1.43883,-7.25996 3.16356,-10.49105c0.43333,-0.81181 0.94319,-1.5862 1.45763,-2.35757c0.10176,-0.25362 0.20975,-0.50816 0.32487,-0.76364c0.68623,-1.52289 1.58097,-2.74794 2.26488,-4.11682c0.3982,-1.19599 0.72904,-2.40973 1.007,-3.63693c0.02231,-1.20634 -0.38694,-2.43507 -0.15516,-3.61961c0.13881,-0.70937 0.6975,-1.26825 1.08704,-1.88861c0.10606,-0.86915 0.19708,-1.7417 0.27784,-2.61624c-0.06728,-0.37452 -0.14065,-0.74942 -0.17233,-1.12172c0,0 -0.04362,-0.86426 0.39948,-1.65365c0.33313,-4.53518 0.52708,-9.08346 1.24291,-13.44907c0,0 0.411,-2.46598 2.87698,-2.05499c2.46598,0.411 2.05499,2.87698 2.05499,2.87698c-0.71737,4.22589 -0.93767,8.61384 -1.24978,12.99972c0.216,0.53806 0.23932,1.00021 0.23932,1.00021c0.04062,1.47323 0.39033,2.97055 0.12185,4.41969c-0.12888,0.69565 -0.67589,1.24403 -1.06575,1.84844c-0.10244,0.7459 -0.21729,1.48904 -0.34754,2.22859c0.10719,0.66555 0.27844,1.33585 0.2073,1.99699c-0.40198,3.73553 -2.32085,6.09093 -3.79586,9.25768c-2.39668,5.14553 -2.08928,9.79617 -5.58558,14.62323l-0.58539,0.66554c-1.67291,3.98984 -3.73367,7.57142 -6.15294,11.33268c-0.98846,0.61999 -1.97692,1.23998 -2.96539,1.85997l-0.01847,0.12403c0,0 -1.76777,1.76777 -3.53553,0z" fill="#ffee37" stroke="none" stroke-width="0.5"/><path d="M295.89996,123.21233c0.01472,-0.01843 0.02945,-0.03687 0.04418,-0.05531c0,0 1.56174,-1.95217 3.51391,-0.39043c0.76186,0.60949 0.98854,1.27844 0.98171,1.86762c0.11035,-0.12202 0.22966,-0.23595 0.36038,-0.33957c1.05993,-0.84021 2.58136,-0.86077 3.76175,-1.52114c2.81474,-1.57473 5.25774,-3.73718 7.89271,-5.59715c0,0 2.04242,-1.44171 3.48413,0.60071c1.44171,2.04242 -0.60071,3.48413 -0.60071,3.48413c-0.36142,0.25512 -8.22815,5.81619 -8.44665,5.93651c-0.8903,0.49027 -2.08338,0.33861 -2.8989,0.94519c-0.59372,0.44161 -0.62329,1.34721 -1.02154,1.97085c-0.90004,1.40939 -1.95797,2.74718 -3.04378,4.05958c0.13643,0.09175 0.27427,0.19942 0.41299,0.32481l0.00002,0.00002c0.03876,0.03504 0.07614,0.07014 0.11217,0.1053c0.92429,-1.32241 1.83783,-2.62743 2.80105,-3.72999l1.65564,-2.1715c0,0 1.5168,-1.98729 3.50409,-0.47049c1.98729,1.5168 0.47049,3.50409 0.47049,3.50409l-1.75932,2.30273c-2.52988,2.88662 -4.6748,6.91743 -7.50902,9.49574c-2.2811,2.07513 -5.12409,3.59072 -7.98357,4.98489l-1.96761,1.96761c-0.30757,0.30757 -0.69491,0.53537 -1.12833,0.64971c-0.59276,0.55021 -1.54795,1.0032 -2.91375,0.40434c-2.55105,-1.11855 -1.43249,-3.6696 -1.43249,-3.6696c0.6173,-1.3943 1.08917,-2.65764 1.73439,-3.84838c-0.89766,-0.37935 -1.52759,-1.26803 -1.52759,-2.30383c0,-0.15625 0.01433,-0.30915 0.04176,-0.45746l0.49226,-2.95354l0.04092,0.00682c0.00199,-0.081 0.00541,-0.16209 0.01036,-0.24326c0.02301,-0.37774 0.07556,-0.75648 0.15401,-1.13544c-0.37043,-0.11667 -0.72227,-0.31308 -1.02923,-0.59055c-1.14124,-1.03159 -1.23014,-2.79303 -0.19855,-3.93428c0.91201,-1.00895 2.39447,-1.19539 3.51451,-0.51223c1.57387,-2.42215 3.57063,-4.70495 4.93559,-6.62747l1.27062,-1.32036c0,0 1.0126,-1.0126 2.27141,-0.73866z" fill="#ffee37" stroke="none" stroke-width="0.5"/><path d="M243.66025,209.05527c1.11803,-2.23607 3.3541,-1.11803 3.3541,-1.11803l2.05257,1.49572c1.38964,2.45565 2.11159,3.38709 2.66485,5.12654c0.69987,0.44309 1.16454,1.22418 1.16454,2.1138c0,0.4914 -0.14178,0.94969 -0.38666,1.33619c0.10294,0.52426 0.1713,1.06464 -0.03525,1.49238l0.77517,2.3255c0.09499,0.2642 0.14675,0.54902 0.14675,0.84593c0,1.38071 -1.11929,2.5 -2.5,2.5c-1.0731,0 -1.98829,-0.67611 -2.34282,-1.62559l-0.97837,-2.44593l0.13442,-0.05377c-0.0935,-0.13073 -0.18305,-0.26457 -0.26812,-0.40194c-0.34595,-0.55859 -0.10916,-1.2707 -0.02597,-1.957c-0.00236,-0.24878 -0.00472,-0.49757 -0.00709,-0.74635c-0.43334,-2.7253 -1.25519,-3.55891 -2.68266,-6.02907l0.05257,0.49572c0,0 -2.23607,-1.11803 -1.11803,-3.3541z" fill="#ffee37" stroke="none" stroke-width="0.5"/><path d="M430.39632,228.6733c-2,-1.5 -0.5,-3.5 -0.5,-3.5l1.41066,-1.87283c1.63799,-2.8692 4.49253,-5.78808 5.31629,-9.01694c0.80522,-3.15618 1.18286,-6.4065 1.8216,-9.60053c0,0 0.49029,-2.45145 2.94174,-1.96116c2.45145,0.49029 1.96116,2.94174 1.96116,2.94174c-0.66865,3.34294 -1.02872,6.75596 -1.93142,10.04343c-1.04446,3.80375 -3.99739,6.959 -5.93069,10.3391l-1.58934,2.12717c0,0 -1.5,2 -3.5,0.5z" fill="#ffee37" stroke="none" stroke-width="0.5"/></g></g></svg>