<svg version="1.1" xmlns="http://www.w3.org/2000/svg" xmlns:xlink="http://www.w3.org/1999/xlink" width="78.50001" height="83.65965" viewBox="0,0,78.50001,83.65965"><g transform="translate(-296.09754,-159.75286)"><g stroke-miterlimit="10"><path d="M374.59755,231.61251c0,6.51696 -16.96841,11.8 -37.9,11.8c-20.93159,0 -37.9,-5.28304 -37.9,-11.8c0,-6.51696 16.96841,-11.8 37.9,-11.8c20.93159,0 37.9,5.28304 37.9,11.8z" fill-opacity="0.40392" fill="#000000" stroke="none" stroke-width="0"/><path d="M323.59753,215.14584l-9.99999,-42.23528l18.39298,16.09802l5.6148,-25.10316l7.14023,26.18294l16.85199,-20.27587l-11.66666,45.33332z" fill="#ff9400" stroke="#000000" stroke-width="2"/><path d="M302.59754,233.47917c0,0 14.33333,-18.61415 14.33333,-26c0,-5.48387 10.66667,-9.33333 10.66667,-9.33333c0,0 7.38887,4.73272 8.30351,5.07881c2.09772,0.79373 12.02982,-3.41214 12.02982,-3.41214c0,0 9.20436,2.10015 11.57984,6.12813c1.57126,2.66432 -1.61397,1.52646 -0.37532,6.15042c2.07012,7.72785 8.12881,21.38812 8.12881,21.38812z" fill="#868686" stroke="#000000" stroke-width="2"/><path d="M296.09754,215.47917c0,-1.38071 1.11929,-2.5 2.5,-2.5c1.38071,0 2.5,1.11929 2.5,2.5c0,1.38071 -1.11929,2.5 -2.5,2.5c-1.38071,0 -2.5,-1.11929 -2.5,-2.5z" fill="#ff9400" stroke="none" stroke-width="0.5"/><path d="M364.09754,215.81251c0,-1.38071 1.11929,-2.5 2.5,-2.5c1.38071,0 2.5,1.11929 2.5,2.5c0,1.38071 -1.11929,2.5 -2.5,2.5c-1.38071,0 -2.5,-1.11929 -2.5,-2.5z" fill="#ff9400" stroke="none" stroke-width="0.5"/><path d="M354.76421,179.81251c0,-1.38071 1.11929,-2.5 2.5,-2.5c1.38071,0 2.5,1.11929 2.5,2.5c0,1.38071 -1.11929,2.5 -2.5,2.5c-1.38071,0 -2.5,-1.11929 -2.5,-2.5z" fill="#ff9400" stroke="none" stroke-width="0.5"/><path d="M308.43088,175.81251c0,-1.38071 1.11929,-2.5 2.5,-2.5c1.38071,0 2.5,1.11929 2.5,2.5c0,1.38071 -1.11929,2.5 -2.5,2.5c-1.38071,0 -2.5,-1.11929 -2.5,-2.5z" fill="#ff9400" stroke="none" stroke-width="0.5"/></g></g></svg>