<svg version="1.1" xmlns="http://www.w3.org/2000/svg" xmlns:xlink="http://www.w3.org/1999/xlink" width="346.82465" height="192.57058" viewBox="0,0,346.82465,192.57058"><g transform="translate(-166.58768,-88.71471)"><g stroke-miterlimit="10"><path d="M171.36005,188.83471v-96.87h338.80227v96.87z" fill="#ff8900" stroke="#000000" stroke-width="6.5"/><path d="M169.83768,278.03529v-134.56584h338.80227v134.56584z" fill="#ff8900" stroke="#000000" stroke-width="6.5"/><path d="M328.20083,172.83176v-50.88939h23.5599v50.88939z" fill="#969696" stroke="none" stroke-width="NaN"/><g><path d="M329.64634,188.71282c0,0 -2.5073,-13.53318 -0.99063,-19.89475c1.53206,-6.42616 10.13729,-18.4704 10.13729,-18.4704l17.05118,4.06517c0,0 -8.93178,11.69609 -10.43243,17.99049c-1.54683,6.48811 1.28576,20.37466 1.28576,20.37466z" fill="#773200" stroke="none" stroke-width="0"/><g fill="#ff6900" stroke="none" stroke-width="0"><path d="M315.12511,220.94907c0,22.99247 -10.02156,41.63156 -22.3838,41.63156c-12.36224,0 -22.3838,-18.6391 -22.3838,-41.63156c0,-22.99247 10.02156,-41.63156 22.3838,-41.63156c12.36224,0 22.3838,18.6391 22.3838,41.63156z"/><path d="M336.32833,221.47059c0,24.53264 -10.02156,44.42029 -22.3838,44.42029c-12.36224,0 -22.3838,-19.88765 -22.3838,-44.42029c0,-24.53264 10.02156,-44.42029 22.3838,-44.42029c12.36224,0 22.3838,19.88765 22.3838,44.42029z"/><path d="M382.87521,181.4326c12.36224,0 22.3838,18.6391 22.3838,41.63156c0,22.99247 -10.02156,41.63156 -22.3838,41.63156c-12.36224,0 -22.3838,-18.6391 -22.3838,-41.63156c0,-22.99247 10.02156,-41.63156 22.3838,-41.63156z"/><path d="M361.67196,179.1654c12.36224,0 22.38381,19.88765 22.38381,44.42029c0,24.53264 -10.02156,44.42029 -22.38381,44.42029c-12.36224,0 -22.3838,-19.88765 -22.3838,-44.42029c0,-24.53264 10.02154,-44.42029 22.3838,-44.42029z"/><path d="M338.44918,175.70306c12.36224,0 22.3838,20.77947 22.3838,46.41223c0,25.63276 -10.02156,46.41223 -22.3838,46.41223c-12.36224,0 -22.3838,-20.77947 -22.3838,-46.41223c0,-25.63276 10.02156,-46.41223 22.3838,-46.41223z"/></g><path d="M295.81148,244.44949c-2.42113,0 -2.42113,-2.42113 -2.42113,-2.42113v-1.99194c0,-15.08932 1.83027,-28.8591 8.62177,-42.51513c0,0 1.08275,-2.16551 3.24826,-1.08275c2.16551,1.08275 1.08275,3.24826 1.08275,3.24826c-6.5088,12.93872 -8.11054,26.04435 -8.11054,40.3496v1.99194c0,0 0,2.42113 -2.42113,2.42113z" fill="#ce5600" stroke="none" stroke-width="0.5"/><path d="M322.55682,243.49857c-2.26696,0.8501 -3.11706,-1.41683 -3.11706,-1.41683l-1.31047,-3.60524c-0.15024,-12.45397 1.43286,-30.84312 12.59253,-38.30141c0,0 2.01449,-1.34299 3.35749,0.6715c1.34299,2.01449 -0.6715,3.35749 -0.6715,3.35749c-9.45615,6.28698 -10.34063,22.89167 -10.514,33.40846l1.07986,2.76898c0,0 0.8501,2.26696 -1.41683,3.11706z" fill="#ce5600" stroke="none" stroke-width="0.5"/><path d="M348.00034,242.85593c-2.42113,0 -2.42113,-2.42113 -2.42113,-2.42113v-0.39838c0,-13.82903 0.3462,-25.96398 9.74578,-37.0322c0,0 1.57563,-1.83825 3.4139,-0.26262c1.83825,1.57563 0.26262,3.4139 0.26262,3.4139c-8.68736,10.02575 -8.58005,21.31304 -8.58005,33.8809v0.39838c0,0 0,2.42113 -2.42113,2.42113z" fill="#ce5600" stroke="none" stroke-width="0.5"/><path d="M371.90362,238.47367c-2.42113,0 -2.42113,-2.42113 -2.42113,-2.42113v-2.39032c0.0186,-9.04909 2.5398,-23.27764 11.5307,-26.96703c0,0 2.26696,-0.8501 3.11706,1.41683c0.8501,2.26696 -1.41683,3.11706 -1.41683,3.11706c-6.67502,2.13857 -8.40339,16.12664 -8.38869,22.43311v2.39032c0,0 0,2.42113 -2.42113,2.42113z" fill="#ce5600" stroke="none" stroke-width="0.5"/><path d="M310.30889,248.5336c0,0 -5.4925,-3.46421 -7.58745,-6.54699c-2.98841,-4.39759 -8.63486,-17.32484 -8.63486,-17.32484l16.2223,9.10032c0,0 11.39893,3.4291 17.40928,3.4291c1.74875,0 8.96243,0.08454 8.96243,0.08454l0.69746,0.23649l3.53466,4.08028l5.39382,0.09053l1.95611,-5.06406l9.78988,-2.85689c0,0 4.329,-2.82428 7.11139,-4.08451c4.13858,-1.87452 15.30968,-6.0709 15.30968,-6.0709c0,0 -4.98232,9.99623 -8.86381,14.31154c-1.04962,1.16691 -9.32355,10.44536 -9.32355,10.44536l-2.54641,-7.91398l-5.10265,1.41803l-1.01769,7.77248l-5.10495,2.2648c0,0 -10.42151,0.58538 -13.54252,0.58538c-1.03772,0 -6.44892,0.39892 -8.4308,-1.59337c-0.32835,-0.33006 -1.18647,-1.11575 -1.18647,-1.11575l0.00486,-6.01855l-6.90251,-0.75291c0,0 -0.88058,6.14072 -1.78735,6.75547c-1.49896,1.01618 -6.36088,-1.2316 -6.36088,-1.2316z" fill="#ffe500" stroke="#000000" stroke-width="1"/><path d="M336.60989,205.76547l11.60255,22.0793h-23.20508z" fill="#ffe500" stroke="#000000" stroke-width="1"/><path d="M309.62057,186.9932l11.60255,22.0793h-23.20508z" fill="#ffe500" stroke="#000000" stroke-width="1"/><path d="M362.20979,185.76065l11.60255,22.0793h-23.20508z" fill="#ffe500" stroke="#000000" stroke-width="1"/></g></g></g></svg>