<svg version="1.1" xmlns="http://www.w3.org/2000/svg" xmlns:xlink="http://www.w3.org/1999/xlink" width="232.27768" height="231.9888" viewBox="0,0,232.27768,231.9888"><g transform="translate(-238.40264,-88.005)"><g stroke-miterlimit="10"><text transform="translate(252.09655,137.32886) scale(0.97671,0.97671)" font-size="40" xml:space="preserve" fill="#000000" stroke="#ffffff" stroke-width="1" stroke-linecap="butt" font-family="Pixel" font-weight="normal" text-anchor="start"><tspan x="0" dy="0">You Got!</tspan></text><path d="M286.39403,270.15968c0,0 -2.113,-5.05365 -2.113,-21.36636c0,-21.90116 0,-50.41457 0,-63.81798c0,-14.21979 3.09906,-26.4269 3.09906,-26.4269c0,0 1.9462,-7.87185 7.32508,-7.87185c14.82673,0 84.99103,0 111.81299,0c6.50392,0 7.07857,8.43409 7.07857,8.43409c0,0 3.3808,6.41373 3.3808,24.74008c0,21.62501 0,48.09346 0,60.72549c0,13.87123 -2.32431,24.74 -2.32431,24.74c0,0 -1.45722,8.49546 -7.71201,8.59481c-26.53557,0.42144 -97.5858,1.52611 -113.25731,1.52611c-6.14802,0 -7.28985,-9.27751 -7.28985,-9.27751z" fill="#c7c7c7" stroke="#000000" stroke-width="2.5" stroke-linecap="butt"/><path d="M289.57149,266.93679c0,0 -2.00849,-4.75358 -2.00849,-20.09756c0,-20.60058 0,-47.42082 0,-60.02829c0,-13.37538 2.94577,-24.85758 2.94577,-24.85758c0,0 1.84992,-7.40439 6.96273,-7.40439c14.09331,0 80.78686,0 106.28206,0c6.18219,0 6.72841,7.93326 6.72841,7.93326c0,0 3.21358,6.03283 3.21358,23.27092c0,20.34084 0,45.23756 0,57.11945c0,13.04752 -2.20934,23.27084 -2.20934,23.27084c0,0 -1.38514,7.99099 -7.33055,8.08443c-25.22296,0.39643 -92.75863,1.4355 -107.65493,1.4355c-5.8439,0 -6.92926,-8.7266 -6.92926,-8.7266z" fill="none" stroke="#8f8f8f" stroke-width="6.5" stroke-linecap="butt"/><g fill="#ffffff" stroke="none" stroke-width="0" stroke-linecap="butt"><path d="M384.06657,176.51945c0.11003,-5.19848 1.25499,-9.05667 2.55737,-8.61752c1.30238,0.43914 2.26897,5.00932 2.15895,10.20778c-0.11003,5.19848 -1.25499,9.05667 -2.55737,8.61752c-1.30238,-0.43914 -2.26897,-5.00932 -2.15895,-10.20778z"/><path d="M394.36989,178.63934c0.11003,-5.19847 1.94897,-8.82266 4.10739,-8.09487c0.75494,0.25455 1.84459,0.765 2.42326,1.85934c0.5845,1.10538 3.63927,0.87519 5.75331,3.0269c1.77695,1.8086 2.7149,5.95892 2.68223,7.50263c-0.02929,1.38417 0.27214,6.32368 -1.81819,7.48584c-1.98516,1.10368 -0.0804,0.75081 -0.46611,1.46272c-0.73345,1.35376 -7.93501,-2.16214 -8.97292,-2.51208c-2.15844,-0.72779 -3.819,-5.53198 -3.70897,-10.73042z"/></g><text transform="translate(374.55553,170.92987) scale(0.70586,0.70586)" font-size="40" xml:space="preserve" fill="#ffffff" stroke="#000000" stroke-width="1" stroke-linecap="butt" font-family="Pixel" font-weight="normal" text-anchor="start"><tspan x="0" dy="0">0.5%</tspan></text><g><path d="M322.46364,277.91666v-36.77228h53.40373v36.77228z" fill-opacity="0.38039" fill="#000000" stroke="none" stroke-width="0" stroke-linecap="butt"/><path d="M332.42984,265.7063v-18.22088h15.63549v18.22088z" fill="#6e6e6e" stroke="#000000" stroke-width="0" stroke-linecap="butt"/><path d="M348.92714,265.33697v-18.09777h15.63549v18.09777z" fill="#6e6e6e" stroke="#000000" stroke-width="0" stroke-linecap="butt"/><path d="M372.29412,235.74328l-2.62014,-10.00417l8.45591,-2.21465l2.62014,10.00417z" fill="#ffef00" stroke="none" stroke-width="0" stroke-linecap="butt"/><path d="M315.74998,234.75976l2.62014,-10.00417l8.45591,2.21465l-2.62014,10.00417z" fill="#ffef00" stroke="none" stroke-width="0" stroke-linecap="butt"/><path d="M368.2186,228.0304c0,0 -2.94913,-11.80251 -3.98098,-16.51061c-0.74673,-3.4071 -1.63626,-9.11939 -1.63626,-9.11939c0,0 3.71695,-2.04353 5.70808,-2.4799c1.8616,-0.408 5.87624,-0.05899 5.87624,-0.05899c0,0 1.51333,5.8714 2.23245,9.15258c1.03542,4.72436 3.3848,16.47742 3.3848,16.47742z" fill="#e0bc00" stroke="none" stroke-width="0" stroke-linecap="butt"/><path d="M316.55666,226.35329c0,0 2.34937,-11.75307 3.3848,-16.47742c0.71912,-3.28118 2.23245,-9.15258 2.23245,-9.15258c0,0 4.01464,-0.349 5.87624,0.05899c1.99112,0.4364 5.70808,2.4799 5.70808,2.4799c0,0 -0.88953,5.71229 -1.63626,9.11939c-1.03185,4.70808 -3.98098,16.51061 -3.98098,16.51061z" fill="#e0bc00" stroke="none" stroke-width="0" stroke-linecap="butt"/><path d="M332.06049,234.60321c0,0 -0.61558,-18.43578 -0.61558,-25.87636c0,-5.16766 0.61558,-14.48937 0.61558,-14.48937c0,0 10.70262,-1.84671 16.00484,-1.84671c5.67115,0 16.98975,1.84671 16.98975,1.84671c0,0 0.98492,8.87715 0.98492,14.24314c0,7.41496 -0.98492,26.12257 -0.98492,26.12257z" fill="#e0bc00" stroke="none" stroke-width="0" stroke-linecap="butt"/><path d="M331.60833,191.63133c0,0 -1.47737,-9.93538 -1.47737,-15.34583c0,-5.21122 1.47737,-16.54161 1.47737,-16.54161c0,0 10.66908,-2.79015 15.88173,-2.79015c5.42801,0 16.0664,2.79015 16.0664,2.79015c0,0 1.10804,10.92084 1.10804,15.94372c0,5.55299 -1.10804,15.94372 -1.10804,15.94372c0,0 -11.40568,2.79015 -16.80507,2.79015c-5.24553,0 -15.14303,-2.79015 -15.14303,-2.79015z" fill="#ffd300" stroke="none" stroke-width="0" stroke-linecap="butt"/><path d="M335.97298,182.55481h23.69946" fill="none" stroke="#000000" stroke-width="2" stroke-linecap="round"/><path d="M332.92591,176.18981c0,-1.30888 1.06106,-2.36995 2.36995,-2.36995c1.30888,0 2.36995,1.06106 2.36995,2.36995c0,1.30888 -1.06106,2.36995 -2.36995,2.36995c-1.30888,0 -2.36995,-1.06106 -2.36995,-2.36995z" fill="#000000" stroke="none" stroke-width="0.5" stroke-linecap="butt"/><path d="M357.57334,176.05439c0,-1.30888 1.06106,-2.36995 2.36995,-2.36995c1.30888,0 2.36995,1.06106 2.36995,2.36995c0,1.30888 -1.06106,2.36995 -2.36995,2.36995c-1.30888,0 -2.36995,-1.06106 -2.36995,-2.36995z" fill="#000000" stroke="none" stroke-width="0.5" stroke-linecap="butt"/><path d="M330.28509,165.49118c0,0 -0.58403,-2.81862 -0.72668,-4.1024c-0.12619,-1.13569 -0.08587,-3.21058 -0.08587,-3.21058c0,0 10.83328,-4.60447 16.92819,-4.60447c5.24207,0 18.28246,3.6565 18.28246,3.6565c0,0 0.67713,3.40591 0.67713,4.46905c0,1.52219 -0.67713,3.79191 -0.67713,3.79191c0,0 -3.74689,-2.11448 -8.00382,-1.83124c-3.1338,0.20851 -6.54401,2.89506 -8.93927,2.66057c-3.43919,-0.3367 -0.52452,-2.83964 -4.03199,-2.61401c-3.91056,0.25156 -7.72108,3.81605 -9.49565,3.81605c-2.77508,0 -3.92733,-2.03139 -3.92733,-2.03139z" fill="#6d5335" stroke="#000000" stroke-width="0" stroke-linecap="butt"/><path d="M328.12085,161.36149v-4.309h38.78096v4.309z" fill="#000000" stroke="none" stroke-width="0" stroke-linecap="butt"/><path d="M327.13593,158.17171v-6.64816h5.04768v6.64816z" fill="#000000" stroke="none" stroke-width="0" stroke-linecap="butt"/><path d="M328.24397,156.81746v-4.43212h2.83162v4.43212z" fill="#e0bc00" stroke="none" stroke-width="0" stroke-linecap="butt"/><path d="M334.39967,158.17171v-6.64816h5.04768v6.64816z" fill="#000000" stroke="none" stroke-width="0" stroke-linecap="butt"/><path d="M335.50769,156.81744v-4.4321h2.83162v4.4321z" fill="#e0bc00" stroke="none" stroke-width="0" stroke-linecap="butt"/><path d="M342.15585,157.92548v-6.64816h5.04768v6.64816z" fill="#000000" stroke="none" stroke-width="0" stroke-linecap="butt"/><path d="M343.26389,156.57123v-4.4321h2.83162v4.4321z" fill="#e0bc00" stroke="none" stroke-width="0" stroke-linecap="butt"/><path d="M349.41958,157.92548v-6.64816h5.04768v6.64816z" fill="#000000" stroke="none" stroke-width="0" stroke-linecap="butt"/><path d="M350.5276,156.57123v-4.4321h2.83162v4.4321z" fill="#e0bc00" stroke="none" stroke-width="0" stroke-linecap="butt"/><path d="M356.31397,157.92548v-6.64816h5.04768v6.64816z" fill="#000000" stroke="none" stroke-width="0" stroke-linecap="butt"/><path d="M357.42201,156.57121v-4.4321h2.83162v4.4321z" fill="#e0bc00" stroke="none" stroke-width="0" stroke-linecap="butt"/><path d="M363.57771,157.92548v-6.64816h5.04768v6.64816z" fill="#000000" stroke="none" stroke-width="0" stroke-linecap="butt"/><path d="M364.68573,156.57121v-4.4321h2.83162v4.4321z" fill="#e0bc00" stroke="none" stroke-width="0" stroke-linecap="butt"/><text transform="translate(332.42984,207.30178) scale(0.19242,0.19242)" font-size="40" xml:space="preserve" fill="#66e6ff" stroke="#000000" stroke-width="2" stroke-linecap="butt" font-family="Pixel" font-weight="normal" text-anchor="start"><tspan x="0" dy="0">rain_SIM</tspan></text><path d="M336.98507,223.13121v-7.8793c0,0 7.60884,-5.78637 11.32649,-5.78637c3.94317,0 11.69584,5.78637 11.69584,5.78637v7.8793z" fill="#ffffff" stroke="#000000" stroke-width="0.5" stroke-linecap="butt"/><path d="M348.46198,230.98319c-0.95761,-0.95761 0,-1.91521 0,-1.91521l1.04626,-1.04256c0.8424,-0.65738 1.69789,-1.29811 2.56201,-1.92669c0,0 1.09524,-0.79653 1.89177,0.29871c0.79653,1.09524 -0.29871,1.89177 -0.29871,1.89177c-0.79534,0.5783 -1.58521,1.16447 -2.36257,1.76674l-0.92355,0.92727c0,0 -0.95761,0.95761 -1.91521,0z" fill="#66edff" stroke="none" stroke-width="0.5" stroke-linecap="butt"/><path d="M341.55871,227.90906c-0.22265,-1.33583 1.11318,-1.55848 1.11318,-1.55848l0.18471,0.10327c0.77187,-0.53847 1.51368,-1.12305 2.21608,-1.74945c0,0 1.01217,-0.89973 1.9119,0.11246c0.89973,1.01219 -0.11246,1.9119 -0.11246,1.9119c-0.7826,0.6936 -1.60645,1.34306 -2.46227,1.94398l-1.29266,0.3495c0,0 -1.33583,0.22265 -1.55848,-1.11318z" fill="#66edff" stroke="none" stroke-width="0.5" stroke-linecap="butt"/><path d="M334.5288,228.59669c-0.78714,-1.102 0.31486,-1.88916 0.31486,-1.88916l0.74922,-0.52575c0.7796,-0.69255 1.57879,-1.36348 2.3929,-2.01515c0,0 1.0575,-0.84599 1.90349,0.2115c0.84599,1.0575 -0.2115,1.90349 -0.2115,1.90349c-0.77788,0.62193 -1.54129,1.26261 -2.28545,1.92451l-0.97438,0.70539c0,0 -1.102,0.78714 -1.88914,-0.31486z" fill="#66edff" stroke="none" stroke-width="0.5" stroke-linecap="butt"/><path d="M332.55295,260.90486v-26.83887h15.63549v26.83887z" fill="#b79900" stroke="#000000" stroke-width="0" stroke-linecap="butt"/><path d="M349.05026,260.65862v-26.83887h15.63549v26.83887z" fill="#b79900" stroke="#000000" stroke-width="0" stroke-linecap="butt"/></g><text transform="translate(239.40078,278.55474) scale(0.70836,0.70836)" font-size="40" xml:space="preserve" fill="#ffffff" stroke="#000000" stroke-width="1" stroke-linecap="butt" font-family="Pixel" font-weight="normal" text-anchor="start"><tspan x="0" dy="0">Golden rain_SIM</tspan><tspan x="0" dy="48px">         Gnome</tspan></text></g></g></svg>