<svg version="1.1" xmlns="http://www.w3.org/2000/svg" xmlns:xlink="http://www.w3.org/1999/xlink" width="80.71169" height="83.69605" viewBox="0,0,80.71169,83.69605"><g transform="translate(-298.16667,-141.90198)"><g stroke-miterlimit="10"><path d="M298.62066,178.81628c0,-20.3872 16.5271,-36.9143 36.9143,-36.9143c20.3872,0 36.9143,16.5271 36.9143,36.9143c0,20.3872 -16.5271,36.9143 -36.9143,36.9143c-20.3872,0 -36.9143,-16.5271 -36.9143,-36.9143z" fill="#fff15b" stroke="none" stroke-width="0"/><path d="M302.78654,178.81628c0,-18.08645 14.66197,-32.74842 32.74842,-32.74842c18.08645,0 32.74842,14.66197 32.74842,32.74842c0,18.08645 -14.66197,32.74842 -32.74842,32.74842c-18.08645,0 -32.74842,-14.66197 -32.74842,-32.74842z" fill="#fff799" stroke="#000000" stroke-width="0"/><path d="M375.40679,153.71848c0,-0.95864 0.77714,-1.73578 1.73578,-1.73578c0.95864,0 1.73578,0.77714 1.73578,1.73578c0,0.95864 -0.77714,1.73578 -1.73578,1.73578c-0.95864,0 -1.73578,-0.77714 -1.73578,-1.73578z" fill="#fff15b" stroke="none" stroke-width="0.5"/><path d="M298.16667,150.99653c0,-0.95864 0.77714,-1.73578 1.73578,-1.73578c0.95864,0 1.73578,0.77714 1.73578,1.73578c0,0.95864 -0.77714,1.73578 -1.73578,1.73578c-0.95864,0 -1.73578,-0.77714 -1.73578,-1.73578z" fill="#fff15b" stroke="none" stroke-width="0.5"/><path d="M347.98894,223.86224c0,-0.95864 0.77714,-1.73578 1.73578,-1.73578c0.95864,0 1.73578,0.77714 1.73578,1.73578c0,0.95864 -0.77714,1.73578 -1.73578,1.73578c-0.95864,0 -1.73578,-0.77714 -1.73578,-1.73578z" fill="#fff15b" stroke="none" stroke-width="0.5"/></g></g></svg>