<svg version="1.1" xmlns="http://www.w3.org/2000/svg" xmlns:xlink="http://www.w3.org/1999/xlink" width="257.24025" height="268.72395" viewBox="0,0,257.24025,268.72395"><g transform="translate(-211.43895,-43.08955)"><g stroke-miterlimit="10"><path d="M245.15309,308.0635v-184.94628h184.94628v184.94628z" fill="#00ff2d" stroke="#000000" stroke-width="7.5" stroke-linecap="butt"/><path d="M248.33863,128.69472l180.32263,178.0108" fill="none" stroke="#000000" stroke-width="7" stroke-linecap="round"/><path d="M247.46492,304.59576l180.32263,-178.0108" fill="none" stroke="#000000" stroke-width="7" stroke-linecap="round"/><g><path d="M308.1643,287.93555v-42.01376h61.01585v42.01376z" fill-opacity="0.38039" fill="#000000" stroke="none" stroke-width="0" stroke-linecap="butt"/><path d="M319.55107,273.98472v-20.81807h17.86416v20.81807z" fill="#6e6e6e" stroke="#000000" stroke-width="0" stroke-linecap="butt"/><path d="M338.39988,273.56276v-20.67741h17.86416v20.67741z" fill="#6e6e6e" stroke="#000000" stroke-width="0" stroke-linecap="butt"/><path d="M365.09756,239.75081l-2.99362,-11.43016l9.66121,-2.53033l2.99362,11.43016z" fill="#ffef00" stroke="none" stroke-width="0" stroke-linecap="butt"/><path d="M300.49369,238.62709l2.99362,-11.43016l9.66121,2.53033l-2.99362,11.43016z" fill="#ffef00" stroke="none" stroke-width="0" stroke-linecap="butt"/><path d="M360.44113,230.93853c0,0 -3.3695,-13.48483 -4.54842,-18.86401c-0.85317,-3.89275 -1.86949,-10.41926 -1.86949,-10.41926c0,0 4.24676,-2.33481 6.5217,-2.83338c2.12694,-0.46615 6.71383,-0.06741 6.71383,-0.06741c0,0 1.72904,6.7083 2.55066,10.45718c1.18301,5.39777 3.86726,18.82609 3.86726,18.82609z" fill="#66aaff" stroke="none" stroke-width="0" stroke-linecap="butt"/><path d="M301.41535,229.02238c0,0 2.68425,-13.42834 3.86726,-18.82609c0.82162,-3.74888 2.55066,-10.45718 2.55066,-10.45718c0,0 4.58688,-0.39874 6.71383,0.06741c2.27494,0.4986 6.5217,2.83338 6.5217,2.83338c0,0 -1.01633,6.52651 -1.86949,10.41926c-1.17893,5.37917 -4.54842,18.86401 -4.54842,18.86401z" fill="#66aaff" stroke="none" stroke-width="0" stroke-linecap="butt"/><path d="M319.12908,238.44824c0,0 -0.70332,-21.06361 -0.70332,-29.56475c0,-5.90426 0.70332,-16.55468 0.70332,-16.55468c0,0 12.22817,-2.10994 18.28616,-2.10994c6.4795,0 19.41145,2.10994 19.41145,2.10994c0,0 1.12532,10.14248 1.12532,16.27335c0,8.47188 -1.12532,29.84606 -1.12532,29.84606z" fill="#66aaff" stroke="none" stroke-width="0" stroke-linecap="butt"/><path d="M318.61247,189.35118c0,0 -1.68794,-11.35156 -1.68794,-17.53322c0,-5.95402 1.68794,-18.89944 1.68794,-18.89944c0,0 12.18984,-3.18785 18.14549,-3.18785c6.20171,0 18.35649,3.18785 18.35649,3.18785c0,0 1.26597,12.47748 1.26597,18.21632c0,6.3445 -1.26597,18.21632 -1.26597,18.21632c0,0 -13.03144,3.18785 -19.20045,3.18785c-5.99323,0 -17.30151,-3.18785 -17.30151,-3.18785z" fill="#ffd300" stroke="none" stroke-width="0" stroke-linecap="butt"/><path d="M323.59925,178.9809h27.07756" fill="none" stroke="#000000" stroke-width="2" stroke-linecap="round"/><path d="M320.11785,171.70865c0,-1.49545 1.2123,-2.70776 2.70776,-2.70776c1.49545,0 2.70776,1.2123 2.70776,2.70776c0,1.49545 -1.2123,2.70776 -2.70776,2.70776c-1.49545,0 -2.70776,-1.2123 -2.70776,-2.70776z" fill="#000000" stroke="none" stroke-width="0.5" stroke-linecap="butt"/><path d="M348.27851,171.55392c0,-1.49545 1.2123,-2.70776 2.70776,-2.70776c1.49545,0 2.70776,1.2123 2.70776,2.70776c0,1.49545 -1.2123,2.70776 -2.70776,2.70776c-1.49545,0 -2.70776,-1.2123 -2.70776,-2.70776z" fill="#000000" stroke="none" stroke-width="0.5" stroke-linecap="butt"/><path d="M317.10063,159.48505c0,0 -0.66727,-3.22038 -0.83026,-4.68715c-0.14418,-1.29757 -0.09811,-3.66821 -0.09811,-3.66821c0,0 12.37744,-5.26078 19.34112,-5.26078c5.98927,0 20.88842,4.17769 20.88842,4.17769c0,0 0.77365,3.89138 0.77365,5.10606c0,1.73916 -0.77365,4.33241 -0.77365,4.33241c0,0 -4.28097,-2.41587 -9.14467,-2.09226c-3.5805,0.23823 -7.4768,3.30772 -10.21347,3.0398c-3.92941,-0.38469 -0.59929,-3.2444 -4.6067,-2.9866c-4.46798,0.28742 -8.82164,4.35999 -10.84916,4.35999c-3.17063,0 -4.48713,-2.32094 -4.48713,-2.32094z" fill="#6d5335" stroke="#000000" stroke-width="0" stroke-linecap="butt"/><path d="M314.62789,154.76671v-4.9232h44.30875v4.9232z" fill="#000000" stroke="none" stroke-width="0" stroke-linecap="butt"/><path d="M313.50258,151.12226v-7.59578h5.76717v7.59578z" fill="#000000" stroke="none" stroke-width="0" stroke-linecap="butt"/><path d="M314.76856,149.57498v-5.06387h3.23523v5.06387z" fill="#f000ff" stroke="none" stroke-width="0" stroke-linecap="butt"/><path d="M321.80168,151.12226v-7.59578h5.76717v7.59578z" fill="#000000" stroke="none" stroke-width="0" stroke-linecap="butt"/><path d="M323.06764,149.57496v-5.06384h3.23523v5.06384z" fill="#f000ff" stroke="none" stroke-width="0" stroke-linecap="butt"/><path d="M330.66342,150.84094v-7.59578h5.76717v7.59578z" fill="#000000" stroke="none" stroke-width="0" stroke-linecap="butt"/><path d="M331.9294,149.29366v-5.06384h3.23523v5.06384z" fill="#f000ff" stroke="none" stroke-width="0" stroke-linecap="butt"/><path d="M338.96252,150.84094v-7.59578h5.76717v7.59578z" fill="#000000" stroke="none" stroke-width="0" stroke-linecap="butt"/><path d="M340.22848,149.29366v-5.06384h3.23523v5.06384z" fill="#f000ff" stroke="none" stroke-width="0" stroke-linecap="butt"/><path d="M346.83963,150.84094v-7.59578h5.76717v7.59578z" fill="#000000" stroke="none" stroke-width="0" stroke-linecap="butt"/><path d="M348.10562,149.29364v-5.06384h3.23523v5.06384z" fill="#f000ff" stroke="none" stroke-width="0" stroke-linecap="butt"/><path d="M355.13873,150.84094v-7.59578h5.76717v7.59578z" fill="#000000" stroke="none" stroke-width="0" stroke-linecap="butt"/><path d="M356.40469,149.29364v-5.06384h3.23523v5.06384z" fill="#f000ff" stroke="none" stroke-width="0" stroke-linecap="butt"/><text transform="translate(319.55107,207.25528) scale(0.21984,0.21984)" font-size="40" xml:space="preserve" fill="#66e6ff" stroke="#000000" stroke-width="2" stroke-linecap="butt" font-family="Pixel" font-weight="normal" text-anchor="start"><tspan x="0" dy="0">rain_SIM</tspan></text><path d="M324.75561,225.34103v-9.00241c0,0 8.6934,-6.61116 12.94096,-6.61116c4.50523,0 13.36294,6.61116 13.36294,6.61116v9.00241z" fill="#ffffff" stroke="#000000" stroke-width="0.5" stroke-linecap="butt"/><path d="M337.86842,234.31223c-1.0941,-1.0941 0,-2.1882 0,-2.1882l1.1954,-1.19118c0.96247,-0.75108 1.93991,-1.48315 2.92719,-2.20133c0,0 1.25136,-0.91007 2.16143,0.34129c0.91007,1.25136 -0.34129,2.16143 -0.34129,2.16143c-0.90872,0.66073 -1.81116,1.33045 -2.69934,2.01857l-1.05519,1.05943c0,0 -1.0941,1.0941 -2.1882,0z" fill="#66edff" stroke="none" stroke-width="0.5" stroke-linecap="butt"/><path d="M329.98117,230.7999c-0.25439,-1.52624 1.27186,-1.78063 1.27186,-1.78063l0.21104,0.11799c0.88189,-0.61523 1.72943,-1.28313 2.53195,-1.99882c0,0 1.15644,-1.02798 2.18442,0.12849c1.02798,1.15647 -0.12849,2.18442 -0.12849,2.18442c-0.89416,0.79246 -1.83543,1.5345 -2.81325,2.22107l-1.47692,0.39932c0,0 -1.52624,0.25439 -1.78063,-1.27186z" fill="#66edff" stroke="none" stroke-width="0.5" stroke-linecap="butt"/><path d="M321.94923,231.58554c-0.89934,-1.25907 0.35973,-2.15843 0.35973,-2.15843l0.85601,-0.60069c0.89072,-0.79127 1.80382,-1.55782 2.73398,-2.30238c0,0 1.20824,-0.96658 2.17482,0.24164c0.96658,1.20824 -0.24164,2.17482 -0.24164,2.17482c-0.88875,0.71057 -1.76098,1.44258 -2.61122,2.19882l-1.11326,0.80593c0,0 -1.25907,0.89934 -2.15841,-0.35973z" fill="#66edff" stroke="none" stroke-width="0.5" stroke-linecap="butt"/><path d="M319.69174,268.49888v-30.66446h17.86416v30.66446z" fill="#4352a7" stroke="#000000" stroke-width="0" stroke-linecap="butt"/><path d="M338.54055,268.21756v-30.66446h17.86416v30.66446z" fill="#4352a7" stroke="#000000" stroke-width="0" stroke-linecap="butt"/></g><text transform="translate(213.27048,108.72894) scale(1.29979,1.29979)" font-size="40" xml:space="preserve" fill="#000000" stroke="#ffffff" stroke-width="1" stroke-linecap="butt" font-family="Pixel" font-weight="normal" text-anchor="start"><tspan x="0" dy="0">OG Crate</tspan></text></g></g></svg>