<svg version="1.1" xmlns="http://www.w3.org/2000/svg" xmlns:xlink="http://www.w3.org/1999/xlink" width="186.74566" height="198.45623" viewBox="0,0,186.74566,198.45623"><g transform="translate(-246.65546,-88.00501)"><g stroke-miterlimit="10"><path d="M288.45745,273.6237c0,0 -2.10109,-5.02518 -2.10109,-21.24601c0,-21.7778 0,-50.13062 0,-63.45852c0,-14.13969 3.08162,-26.27803 3.08162,-26.27803c0,0 1.93522,-7.8275 7.28381,-7.8275c14.74321,0 84.51229,0 111.18317,0c6.46727,0 7.03868,8.38658 7.03868,8.38658c0,0 3.36176,6.37761 3.36176,24.60072c0,21.50321 0,47.82258 0,60.38344c0,13.79309 -2.31122,24.60065 -2.31122,24.60065c0,0 -1.449,8.44762 -7.66857,8.5464c-26.3861,0.41906 -97.03611,1.51751 -112.61936,1.51751c-6.1134,0 -7.24878,-9.22525 -7.24878,-9.22525z" fill="#c7c7c7" stroke="#000000" stroke-width="2.5"/><path d="M291.61705,270.41898c0,0 -1.99717,-4.72679 -1.99717,-19.98435c0,-20.48455 0,-47.15371 0,-59.69017c0,-13.30005 2.92919,-24.71757 2.92919,-24.71757c0,0 1.8395,-7.36267 6.9235,-7.36267c14.01393,0 80.33181,0 105.6834,0c6.14738,0 6.69052,7.88857 6.69052,7.88857c0,0 3.19547,5.99886 3.19547,23.13985c0,20.22626 0,44.98274 0,56.79771c0,12.97403 -2.19689,23.13976 -2.19689,23.13976c0,0 -1.37734,7.94597 -7.28925,8.03888c-25.0809,0.3942 -92.23614,1.42741 -107.04854,1.42741c-5.81099,0 -6.89023,-8.67744 -6.89023,-8.67744z" fill="none" stroke="#8f8f8f" stroke-width="6.5"/><g fill="#ffffff" stroke="none" stroke-width="0"><path d="M385.57986,180.51093c0.1094,-5.1692 1.24792,-9.00565 2.54296,-8.56898c1.29505,0.43667 2.25619,4.9811 2.14679,10.1503c-0.1094,5.1692 -1.24791,9.00565 -2.54296,8.56898c-1.29505,-0.43667 -2.2562,-4.9811 -2.14679,-10.15029z"/><path d="M395.82516,182.61888c0.1094,-5.16918 1.938,-8.77298 4.08427,-8.04927c0.75069,0.25311 1.83419,0.7607 2.40961,1.84887c0.58121,1.09915 3.61878,0.87025 5.7209,3.00985c1.76695,1.79842 2.69961,5.92536 2.66712,7.46037c-0.02914,1.37638 0.2706,6.28806 -1.80795,7.44368c-1.974,1.09746 -0.07995,0.74658 -0.46349,1.45448c-0.72932,1.34615 -7.8903,-2.14997 -8.92236,-2.49793c-2.14627,-0.7237 -3.79749,-5.50083 -3.6881,-10.66998z"/></g><text transform="translate(384.7287,175.5579) scale(0.70437,0.70437)" font-size="40" xml:space="preserve" fill="#ffffff" stroke="#000000" stroke-width="1" font-family="Pixel" font-weight="normal" text-anchor="start"><tspan x="0" dy="0">3%</tspan></text><text transform="translate(248.03173,137.32886) scale(0.97671,0.97671)" font-size="40" xml:space="preserve" fill="#000000" stroke="#ffffff" stroke-width="1" font-family="Pixel" font-weight="normal" text-anchor="start"><tspan x="0" dy="0">You Got!</tspan></text><g><path d="M315.38576,282.41666v-27.23067h71.07094v27.23067z" fill-opacity="0.38039" fill="#000000" stroke="none" stroke-width="0"/><path d="M328.1364,207.41743c0,0 -6.73637,0.38426 -11.50149,-3.78071c-2.70278,-2.36237 -4.11341,-9.10392 -4.93703,-10.95907c-1.34067,-3.01978 -3.36738,-12.4279 -0.3072,-18.64882c2.86713,-5.82849 10.79411,-8.58462 10.79411,-8.58462l2.22602,6.83743c0,0 -8.15799,10.4295 -7.29345,15.38138c0.84511,4.84059 12.42371,14.0036 12.42371,14.0036z" fill="#ffcd00" stroke="none" stroke-width="0"/><path d="M321.19095,272.78243v-15.59267h58.64199v15.59267z" fill="#8a5937" stroke="#000000" stroke-width="1.5"/><path d="M327.6314,256.17285v-12.20296h43.04933v12.20296z" fill="#ffcd00" stroke="#000000" stroke-width="0"/><path d="M342.54613,251.42725v-39.65961h14.91473v39.65961z" fill="#ffcd00" stroke="none" stroke-width="0"/><path d="M323.56375,204.68006l-4.74559,-42.71035h64.4045l-5.42354,42.71035c0,0 -19.83373,13.55884 -27.79563,13.55884c-9.7513,0 -26.43974,-13.55884 -26.43974,-13.55884z" fill="#ffcd00" stroke="none" stroke-width="0"/><path d="M373.85427,200.98868c0,0 11.57859,-9.16301 12.4237,-14.00359c0.86454,-4.95188 -7.29345,-15.38138 -7.29345,-15.38138l2.22602,-6.83743c0,0 7.92697,2.75613 10.79411,8.58462c3.06018,6.22093 1.03348,15.62905 -0.3072,18.64882c-0.82362,1.85515 -2.23427,8.5967 -4.93703,10.95907c-4.76512,4.16496 -11.50148,3.78071 -11.50148,3.78071z" fill="#ffcd00" stroke="none" stroke-width="0"/><text transform="translate(328.64831,196.83175) scale(0.85872,0.85872)" font-size="40" xml:space="preserve" fill="#008c05" stroke="#000000" stroke-width="1" font-family="Pixel" font-weight="normal" text-anchor="start"><tspan x="0" dy="0">OG</tspan></text></g><text transform="translate(273.86131,279.0134) scale(0.70437,0.70437)" font-size="40" xml:space="preserve" fill="#ffffff" stroke="#000000" stroke-width="1" font-family="Pixel" font-weight="normal" text-anchor="start"><tspan x="0" dy="0">OG Trophy</tspan></text></g></g></svg>