<svg version="1.1" xmlns="http://www.w3.org/2000/svg" xmlns:xlink="http://www.w3.org/1999/xlink" width="143.06757" height="150.81094" viewBox="0,0,143.06757,150.81094"><g transform="translate(-261.64791,-109.99676)"><g stroke-miterlimit="10"><g><path d="M294.50847,216.22152c-16.03141,-24.60056 -9.08475,-57.53929 15.5158,-73.57071c24.60056,-16.03141 57.53929,-9.08475 73.57071,15.5158c16.03141,24.60056 9.08475,57.53929 -15.5158,73.57071c-24.60056,16.03141 -57.53929,9.08475 -73.57071,-15.5158z" fill="#ffee37" stroke="none" stroke-width="0"/><path d="M299.53529,212.9457c-14.22224,-21.82432 -8.05952,-51.04583 13.76481,-65.26806c21.82432,-14.22224 51.04583,-8.05952 65.26806,13.76481c14.22224,21.82432 8.05952,51.04583 -13.76481,65.26806c-21.82432,14.22224 -51.04583,8.05952 -65.26806,-13.76481z" fill="#fffac4" stroke="#000000" stroke-width="0"/><path d="M284.75413,209.82801c-2.41654,0.64057 -3.05711,-1.77597 -3.05711,-1.77597l-0.38231,-1.46829c-1.46387,-4.24417 -2.79025,-8.50415 -4.03861,-12.81009c-0.85916,-0.30313 -1.35918,-1.07041 -1.35918,-1.07041l-0.33511,-0.5496c-2.35943,-4.92158 -3.17463,-10.88647 -3.50812,-16.33031c0,0 -0.11698,-2.0008 1.64999,-2.52423c0.44328,-2.76425 0.87766,-5.5504 2.27324,-7.95882c1.95646,-3.37636 5.0206,-5.96375 8.01553,-8.33711l1.30109,-0.86014c0,0 2.09451,-1.36493 3.45944,0.72958l-0.00001,0c1.36493,2.09451 -0.72958,3.45944 -0.72958,3.45944l-0.93304,0.59579c-2.47651,1.94626 -5.10809,4.08673 -6.75122,6.85604c-2.01775,3.40068 -1.74637,8.15486 -2.87942,11.87014c0,0 -0.01875,0.06091 -0.05997,0.1603c0.35594,3.07184 0.97675,6.20952 2.11092,8.94616c1.55811,0.15511 2.03444,1.83268 2.03444,1.83268c1.37203,4.83696 2.83726,9.60871 4.47633,14.36016l0.48869,1.81757c0,0 0.64057,2.41654 -1.77597,3.05711z" fill="#ffee37" stroke="none" stroke-width="0.5"/><path d="M353.86411,251.51363c-1.10205,-2.24399 1.14194,-3.34604 1.14194,-3.34604l0.5984,-0.29388c5.59788,-2.74919 11.08144,-4.51334 13.13481,-10.83396c0,0 0.80747,-2.36601 3.17348,-1.55853c0.23924,0.08165 0.44605,0.17924 0.62451,0.2887c1.92675,-1.2556 4.15997,-2.71093 5.64382,-3.67791c0.0414,-0.43549 0.16182,-0.74322 0.16182,-0.74322c1.33168,-3.40306 3.24073,-6.60897 4.40717,-10.02857c-0.14837,-0.72562 -0.05839,-1.7164 1.11225,-2.47926c1.05321,-0.68634 1.92194,-0.49796 2.52542,-0.14102c3.20604,-3.17725 6.69041,-6.14243 9.37628,-9.70109l0,-0.00001c0.02732,-0.61113 0.30397,-1.29488 1.1643,-1.85553c2.09451,-1.36493 3.45944,0.72958 3.45944,0.72958l0.13266,3.08198c-3.6398,5.12024 -8.70753,8.97596 -12.89186,13.68175c0,0 -0.44469,0.49991 -1.13257,0.75246c-1.12327,2.59803 -2.45372,5.11589 -3.49692,7.78176c0,0 -0.19136,0.48901 -0.62279,0.9311c-0.03435,1.24654 -1.19075,2.00014 -1.19075,2.00014c-2.14105,1.39526 -4.28211,2.79052 -6.42316,4.18578l-1.95487,1.27393c0,0 -0.3393,0.22112 -0.83378,0.34878c-3.10647,5.31038 -8.23522,7.53885 -14.16517,10.45112l-0.5984,0.29388c0,0 -2.24399,1.10205 -3.34604,-1.14194z" fill="#ffee37" stroke="none" stroke-width="0.5"/><path d="M352.24481,123.33877c-0.64057,-2.41654 1.77597,-3.05711 1.77597,-3.05711l1.84033,-0.47936c3.95718,-0.69844 7.02352,-0.69933 10.92137,-0.84916c1.5857,-1.2497 3.16183,0.21353 3.16183,0.21353c4.15707,3.86126 8.36779,7.28381 12.93081,10.68084l1.93704,2.26432c0,0 0.55773,0.65961 0.62979,1.53121c2.344,3.60663 4.49747,7.15789 5.81441,11.37563l0,0.00001c0.12761,0.20881 1.23875,2.15087 -0.74107,3.44106c-2.09451,1.36493 -3.45944,-0.72958 -3.45944,-0.72958l-0.48587,-0.93869c-1.43832,-4.96668 -4.33629,-8.90316 -7.1326,-13.19414c0,0 -0.04537,-0.06963 -0.10687,-0.19175c-4.1371,-3.01029 -7.92289,-6.13343 -11.67009,-9.54666c-0.30394,0.07582 -0.52121,0.08414 -0.52121,0.08414c-3.76665,0.14077 -6.62112,0.08539 -10.39176,0.78005l-1.44554,0.39164c0,0 -2.41654,0.64057 -3.05711,-1.77597z" fill="#ffee37" stroke="none" stroke-width="0.5"/><path d="M301.23715,243.30237c1.51424,-1.98924 3.50348,-0.47502 3.50348,-0.47502l0.70728,0.54381c0.64206,0.55119 1.34919,1.03459 1.92617,1.65357c0.28037,0.30077 0.20499,1.12126 0.613,1.07042c0.76983,-0.09592 1.24925,-0.92019 1.87387,-1.38029c0,0 2.24399,-1.10205 3.34604,1.14194c0.04126,0.08401 0.07782,0.1664 0.10999,0.24721c0.30807,0.05202 0.5099,0.13101 0.5099,0.13101c3.23118,1.2887 6.10938,1.53064 9.25744,3.16539l1.40754,0.42597c0.94754,-0.15466 1.9408,0.24677 2.49866,1.10282l-0.00002,0c0.71623,1.09908 0.45707,2.55211 -0.56275,3.34088c-0.98691,1.0753 -2.54626,0.59547 -2.54626,0.59547l-2.70889,-0.84504c-3.06522,-1.65155 -5.93832,-1.88528 -9.16777,-3.1293c0,0 -0.61035,-0.23884 -1.08373,-0.78445c-0.20042,0.01706 -0.40145,0.00975 -0.59859,-0.02099c-0.95495,0.52774 -1.9157,1.02025 -2.96594,0.96946c-0.81612,-0.03946 -4.25547,-3.10902 -5.16553,-3.89028l-0.47888,-0.3591c0,0 -1.98924,-1.51424 -0.47502,-3.50348z" fill="#ffee37" stroke="none" stroke-width="0.5"/><path d="M269.81185,164.30128c1.10205,2.24399 -1.14194,3.34604 -1.14194,3.34604l0.2888,-0.43588c-2.27712,2.65395 -1.52331,3.75994 0.03866,6.77391c0,0 0.72912,1.48463 -0.20635,2.63179l0.01817,0.74567c-0.55072,4.30703 -2.83933,6.17565 -0.86092,9.78347c0.57635,0.15322 1.1002,0.51198 1.45144,1.05097c0.75383,1.15676 0.42718,2.70561 -0.72958,3.45944c-0.67709,0.44124 -1.48851,0.5123 -2.1962,0.26337c-1.35697,0.08428 -2.18575,-1.18751 -2.18575,-1.18751c-1.64997,-2.61966 -3.02605,-3.91847 -2.54196,-7.45271c0.30903,-2.25611 1.86147,-4.2367 2.09728,-6.50163l-0.08757,-1.5572c0,0 -0.00731,-0.19678 0.0374,-0.48193c-1.25609,-2.47394 -2.00257,-3.8695 -0.9957,-7.47701c0.3382,-1.21174 1.45506,-2.05272 2.18259,-3.07907l1.48559,-1.02363c0,0 2.24399,-1.10205 3.34604,1.14194z" fill="#ffee37" stroke="none" stroke-width="0.5"/><path d="M389.45497,126.07453c-2.09451,1.36493 -3.45944,-0.72958 -3.45944,-0.72958l-0.18199,-0.27926c-0.28707,-0.58463 -0.30354,-1.41745 -0.86123,-1.75388c-0.65552,-0.39545 -1.6169,0.21291 -2.29191,-0.14827c-1.33801,-0.71594 -2.31806,-1.95908 -3.47709,-2.93863c0,0 -1.86794,-1.66157 -0.20636,-3.52951c0.28426,-0.31958 0.57457,-0.53583 0.86053,-0.67479c0.19199,-0.37269 0.48047,-0.7021 0.85683,-0.94736c1.15676,-0.75383 2.70561,-0.42718 3.45944,0.72958c0.51171,0.78523 0.52555,1.75113 0.11982,2.52638c0.13674,0.10279 0.28095,0.19503 0.43519,0.27315c0.86706,0.43918 2.08493,-0.09964 2.87921,0.46052c1.10793,0.78137 1.60973,2.18196 2.4146,3.27295l0.18199,0.27926c0,0 1.36493,2.09451 -0.72958,3.45944z" fill="#fff15b" stroke="none" stroke-width="0.5"/><path d="M389.90081,238.18098c-1.36493,-2.09451 0.72958,-3.45944 0.72958,-3.45944l1.84088,-1.13871c0.16065,-0.2536 0.3134,-0.52232 0.46155,-0.8016c-0.22438,-0.99076 0.17302,-2.06006 1.07392,-2.64715c0.09496,-0.06189 0.19258,-0.11649 0.29217,-0.16396c0.77705,-1.53773 1.70565,-2.97581 3.22775,-3.70352c0.08319,-0.03977 0.16704,-0.07764 0.2515,-0.11371l-0.0311,-0.04773l2.23415,-1.45592c1.15676,-0.75383 2.70561,-0.42718 3.45944,0.72958c0.59637,0.91514 0.51651,2.07568 -0.11566,2.89382l-1.56481,2.1261c-0.92926,1.79475 -2.08763,3.47415 -3.33936,5.06085c0,0 -0.81012,1.01941 -1.99675,1.00216c-0.13962,0.22888 -0.2845,0.45446 -0.43643,0.67566l-2.6274,1.77314c0,0 -2.09451,1.36493 -3.45944,-0.72958z" fill="#fff15b" stroke="none" stroke-width="0.5"/><path d="M308.24026,134.23976c-0.75383,-1.15676 -0.42718,-2.70561 0.72958,-3.45944c1.15676,-0.75383 2.70561,-0.42718 3.45944,0.72958c0.75383,1.15676 0.42718,2.70561 -0.72958,3.45944c-1.15676,0.75383 -2.70561,0.42718 -3.45944,-0.72958z" fill="#fff15b" stroke="none" stroke-width="0.5"/><path d="M311.3214,259.40919c-0.60864,-1.23932 -0.09738,-2.73739 1.14194,-3.34604c1.23932,-0.60864 2.73739,-0.09738 3.34604,1.14194c0.60864,1.23932 0.09738,2.73739 -1.14194,3.34604c-1.23932,0.60864 -2.73739,0.09738 -3.34604,-1.14194z" fill="#ffee37" stroke="none" stroke-width="0.5"/><path d="M322.57197,128.05954c1.10205,2.24399 -1.14194,3.34604 -1.14194,3.34604l-0.88524,0.41324c-4.83417,1.66423 -8.67641,1.90962 -12.37177,5.58314c0,0 -1.78034,1.75511 -3.53545,-0.02523c-1.75511,-1.78034 0.02523,-3.53545 0.02523,-3.53545c1.73934,-1.7025 2.95754,-3.2125 5.25867,-4.20788c2.75999,-1.19386 6.11662,-1.5471 8.9929,-2.5413l0.31155,-0.17452c0,0 2.24399,-1.10205 3.34604,1.14194z" fill="#ffee37" stroke="none" stroke-width="0.5"/><path d="M393.23285,134.3386c-1.98428,1.52073 -3.50501,-0.46355 -3.50501,-0.46355l-1.2936,-1.76774c-1.28574,-3.07161 -3.02593,-2.91015 -5.45058,-5.34621c-3.77242,-3.79017 -6.86191,-8.48553 -10.33264,-12.59368c0,0 -1.6134,-1.90971 0.29631,-3.5231c1.90971,-1.6134 3.5231,0.29631 3.5231,0.29631c3.3938,4.01709 6.41785,8.55559 10.06208,12.29829c1.23714,1.27057 3.19981,1.67899 4.41112,2.9742c0.95332,1.01936 1.31907,2.46005 1.9786,3.69008l0.7742,0.93037c0,0 1.52073,1.98428 -0.46355,3.50501z" fill="#ffee37" stroke="none" stroke-width="0.5"/><path d="M380.27138,248.57149c-1.10205,-2.24399 1.14194,-3.34604 1.14194,-3.34604l0.38058,-0.17308c4.18289,-2.53853 5.3524,-6.46367 8.81441,-9.8081c1.84235,-1.77977 3.90325,-2.63226 5.17084,-5.08965c0.54511,-1.05675 0.56311,-2.35724 1.20731,-3.35667c0.4964,-0.77013 1.59134,-1.01164 2.09971,-1.77392c0.48716,-0.73047 0.50961,-1.68047 0.76441,-2.5207c0,0 0.80747,-2.36601 3.17348,-1.55853c2.36601,0.80747 1.55853,3.17348 1.55853,3.17348c-0.45573,1.24175 -0.66178,2.6063 -1.3672,3.72524c-0.48864,0.77507 -1.60118,1.00517 -2.09971,1.77392c-0.55017,0.8484 -0.45155,1.99542 -0.92431,2.88927c-1.57656,2.98076 -3.95911,4.30679 -6.24125,6.45676c-3.70815,3.4934 -4.99741,7.47285 -9.51649,10.3353l-0.81622,0.41468c0,0 -2.24399,1.10205 -3.34604,-1.14194z" fill="#ffee37" stroke="none" stroke-width="0.5"/><path d="M308.4238,124.2046c-0.60864,-1.23932 -0.09738,-2.73739 1.14194,-3.34604c1.23932,-0.60864 2.73739,-0.09738 3.34604,1.14194c0.60864,1.23932 0.09738,2.73739 -1.14194,3.34604c-1.23932,0.60864 -2.73739,0.09738 -3.34604,-1.14194z" fill="#ffee37" stroke="none" stroke-width="0.5"/></g></g></g></svg>