<svg version="1.1" xmlns="http://www.w3.org/2000/svg" xmlns:xlink="http://www.w3.org/1999/xlink" width="76.83334" height="86.6705" viewBox="0,0,76.83334,86.6705"><g transform="translate(-297.76421,-156.74201)"><g stroke-miterlimit="10"><path d="M374.59755,231.61251c0,6.51696 -16.96841,11.8 -37.9,11.8c-20.93159,0 -37.9,-5.28304 -37.9,-11.8c0,-6.51696 16.96841,-11.8 37.9,-11.8c20.93159,0 37.9,5.28304 37.9,11.8z" fill-opacity="0.40392" fill="#000000" stroke="none" stroke-width="0"/><path d="M323.59753,215.14584l-8.66666,-51.56861l17.05965,25.43135l5.6148,-16.10316l7.14023,17.18294l14.51866,-27.27587l-9.33333,52.33332z" fill="#ff9400" stroke="#000000" stroke-width="2"/><path d="M302.59754,233.47917c0,0 14.33333,-18.61415 14.33333,-26c0,-5.48387 10.66667,-9.33333 10.66667,-9.33333c0,0 7.38887,4.73272 8.30351,5.07881c2.09772,0.79373 12.02982,-3.41214 12.02982,-3.41214c0,0 9.20436,2.10015 11.57984,6.12813c1.57126,2.66432 -1.61397,1.52646 -0.37532,6.15042c2.07012,7.72785 8.12881,21.38812 8.12881,21.38812z" fill="#868686" stroke="#000000" stroke-width="2"/><path d="M297.76421,195.47917c0,-1.38071 1.11929,-2.5 2.5,-2.5c1.38071,0 2.5,1.11929 2.5,2.5c0,1.38071 -1.11929,2.5 -2.5,2.5c-1.38071,0 -2.5,-1.11929 -2.5,-2.5z" fill="#ff9400" stroke="none" stroke-width="0.5"/><path d="M367.76421,200.47918c0,-1.38071 1.11929,-2.5 2.5,-2.5c1.38071,0 2.5,1.11929 2.5,2.5c0,1.38071 -1.11929,2.5 -2.5,2.5c-1.38071,0 -2.5,-1.11929 -2.5,-2.5z" fill="#ff9400" stroke="none" stroke-width="0.5"/><path d="M347.43088,168.47918c0,-1.38071 1.11929,-2.5 2.5,-2.5c1.38071,0 2.5,1.11929 2.5,2.5c0,1.38071 -1.11929,2.5 -2.5,2.5c-1.38071,0 -2.5,-1.11929 -2.5,-2.5z" fill="#ff9400" stroke="none" stroke-width="0.5"/><path d="M314.09755,162.81251c0,-1.38071 1.11929,-2.5 2.5,-2.5c1.38071,0 2.5,1.11929 2.5,2.5c0,1.38071 -1.11929,2.5 -2.5,2.5c-1.38071,0 -2.5,-1.11929 -2.5,-2.5z" fill="#ff9400" stroke="none" stroke-width="0.5"/></g></g></svg>