<svg version="1.1" xmlns="http://www.w3.org/2000/svg" xmlns:xlink="http://www.w3.org/1999/xlink" width="218.00786" height="201.40428" viewBox="0,0,218.00786,201.40428"><g transform="translate(-246.65545,-88.00501)"><g stroke-miterlimit="10"><path d="M288.45745,273.6237c0,0 -2.10109,-5.02518 -2.10109,-21.24601c0,-21.7778 0,-50.13062 0,-63.45852c0,-14.13969 3.08162,-26.27803 3.08162,-26.27803c0,0 1.93522,-7.8275 7.28381,-7.8275c14.74321,0 84.51229,0 111.18317,0c6.46727,0 7.03868,8.38658 7.03868,8.38658c0,0 3.36176,6.37761 3.36176,24.60072c0,21.50321 0,47.82258 0,60.38344c0,13.79309 -2.31122,24.60065 -2.31122,24.60065c0,0 -1.449,8.44762 -7.66857,8.5464c-26.3861,0.41906 -97.03611,1.51751 -112.61936,1.51751c-6.1134,0 -7.24878,-9.22525 -7.24878,-9.22525z" fill="#c7c7c7" stroke="#000000" stroke-width="2.5" stroke-linecap="butt"/><path d="M291.61705,270.41898c0,0 -1.99717,-4.72679 -1.99717,-19.98435c0,-20.48455 0,-47.15371 0,-59.69017c0,-13.30005 2.92919,-24.71757 2.92919,-24.71757c0,0 1.8395,-7.36267 6.9235,-7.36267c14.01393,0 80.33181,0 105.6834,0c6.14738,0 6.69052,7.88857 6.69052,7.88857c0,0 3.19547,5.99886 3.19547,23.13985c0,20.22626 0,44.98274 0,56.79771c0,12.97403 -2.19689,23.13976 -2.19689,23.13976c0,0 -1.37734,7.94597 -7.28925,8.03888c-25.0809,0.3942 -92.23614,1.42741 -107.04854,1.42741c-5.81099,0 -6.89023,-8.67744 -6.89023,-8.67744z" fill="none" stroke="#8f8f8f" stroke-width="6.5" stroke-linecap="butt"/><g fill="#ffffff" stroke="none" stroke-width="0" stroke-linecap="butt"><path d="M385.57986,180.51093c0.1094,-5.1692 1.24792,-9.00565 2.54296,-8.56898c1.29505,0.43667 2.25619,4.9811 2.14679,10.1503c-0.1094,5.1692 -1.24791,9.00565 -2.54296,8.56898c-1.29505,-0.43667 -2.2562,-4.9811 -2.14679,-10.15029z"/><path d="M395.82516,182.61888c0.1094,-5.16918 1.938,-8.77298 4.08427,-8.04927c0.75069,0.25311 1.83419,0.7607 2.40961,1.84887c0.58121,1.09915 3.61878,0.87025 5.7209,3.00985c1.76695,1.79842 2.69961,5.92536 2.66712,7.46037c-0.02914,1.37638 0.2706,6.28806 -1.80795,7.44368c-1.974,1.09746 -0.07995,0.74658 -0.46349,1.45448c-0.72932,1.34615 -7.8903,-2.14997 -8.92236,-2.49793c-2.14627,-0.7237 -3.79749,-5.50083 -3.6881,-10.66998z"/></g><text transform="translate(391.14786,175.02297) scale(0.70437,0.70437)" font-size="40" xml:space="preserve" fill="#ffffff" stroke="#000000" stroke-width="1" stroke-linecap="butt" font-family="Pixel" font-weight="normal" text-anchor="start"><tspan x="0" dy="0">1%</tspan></text><text transform="translate(248.03173,137.32886) scale(0.97671,0.97671)" font-size="40" xml:space="preserve" fill="#000000" stroke="#ffffff" stroke-width="1" stroke-linecap="butt" font-family="Pixel" font-weight="normal" text-anchor="start"><tspan x="0" dy="0">You Got!</tspan></text><text transform="translate(262.86131,282.0134) scale(0.70437,0.70437)" font-size="40" xml:space="preserve" fill="#ffffff" stroke="#000000" stroke-width="1" stroke-linecap="butt" font-family="Pixel" font-weight="normal" text-anchor="start"><tspan x="0" dy="0">Grave Digger</tspan></text><g><path d="M343.32005,189.02572l12.65468,-27.86246c0,0 13.34259,-3.54288 18.48958,-1.20521c4.97246,2.2584 11.88681,15.00166 11.88681,15.00166l-12.65468,27.86246z" fill="#777777" stroke="none" stroke-width="0" stroke-linecap="butt"/><path d="M327.7277,254.86384l-4.14583,9.41244" fill="none" stroke="#000000" stroke-width="1" stroke-linecap="round"/><path d="M394.77744,225.00738l-2.77727,-2.84634" fill="none" stroke="#000000" stroke-width="0.5" stroke-linecap="round"/><path d="M325.19561,265.64108l5.18483,-10.05531" fill="none" stroke="#000000" stroke-width="0.5" stroke-linecap="round"/><path d="M344.36128,220.77561l3.54683,-6.42128" fill="none" stroke="#000000" stroke-width="1" stroke-linecap="round"/><path d="M340.94914,231.50929l-2.21408,4.75129" fill="none" stroke="#000000" stroke-width="1" stroke-linecap="round"/><path d="M347.39508,210.31833l1.82429,-3.53799" fill="none" stroke="#000000" stroke-width="1" stroke-linecap="round"/><path d="M370.29902,215.92596l-0.21635,-0.10401c0,0 0.07732,0.03609 0.21635,0.10401z" fill="#89440f" stroke="none" stroke-width="0" stroke-linecap="butt"/><path d="M319.10233,181.50844l16.23649,6.01482" fill="none" stroke="#000000" stroke-width="0.5" stroke-linecap="round"/><path d="M344.3441,186.98091l6.24381,2.98374" fill="none" stroke="#000000" stroke-width="0.5" stroke-linecap="round"/><path d="M355.8873,201.18302l-14.81344,-7.40254" fill="none" stroke="#000000" stroke-width="0.5" stroke-linecap="round"/><path d="M357.51957,198.01744l6.53185,2.42515" fill="none" stroke="#000000" stroke-width="0.5" stroke-linecap="round"/><path d="M376.37564,204.44017l-6.89296,-3.55422" fill="none" stroke="#000000" stroke-width="0.5" stroke-linecap="round"/><path d="M383.08086,215.67623l-13.6842,-7.76311" fill="none" stroke="#000000" stroke-width="0.5" stroke-linecap="round"/><path d="M388.16248,214.05355l3.42642,3.41681" fill="none" stroke="#000000" stroke-width="0.5" stroke-linecap="round"/><path d="M319.5879,265.77327c0,0 21.69212,-46.284 26.91422,-57.42635c2.1438,-4.57418 -1.02166,-11.70368 -1.02166,-11.70368l22.54832,10.6667c0,0 -6.99218,0.98912 -9.46422,6.02446c-0.75958,1.54724 -3.63838,3.01486 -4.50993,4.77442c-1.48405,2.99609 -1.0401,6.42699 -2.62508,9.55403c-2.24782,4.43476 -4.45538,8.69414 -6.22075,11.90724c-5.81493,10.58352 -18.29682,30.39958 -18.29682,30.39958c0,0 -3.34511,0.89092 -4.45753,0.25356c-1.2997,-0.74468 -2.86656,-4.44995 -2.86656,-4.44995z" fill="#4a2900" stroke="none" stroke-width="NaN" stroke-linecap="butt"/><path d="M313.3719,185.63655l-12.48894,-1.80291l18.81778,-10.47111c0,0 33.04354,10.31932 46.92689,17.47799c12.46379,6.42669 32.57481,23.5154 32.57481,23.5154l-1.16749,22.0917l-5.16137,-9.81769c0,0 -18.19447,-16.10045 -30.05093,-22.21401c-14.21417,-7.32923 -49.45074,-18.77941 -49.45074,-18.77941z" fill="#307800" stroke="#000000" stroke-width="0.5" stroke-linecap="butt"/><path d="M314.67459,186.17169l-13.10148,-2.11873l13.71093,-7.16603c2.28065,0.96926 4.18644,1.74518 4.85639,2.08281c15.94969,8.03781 34.32824,15.99008 48.50375,26.89573c1.45793,1.12164 2.72407,2.42001 3.9029,3.80078c-1.99653,-1.2648 -3.92957,-2.39882 -5.7224,-3.32325c-15.03552,-7.75276 -52.15014,-20.17128 -52.15014,-20.17128z" fill="#255d00" stroke="none" stroke-width="0" stroke-linecap="butt"/><text transform="translate(354.58665,176.99332) rotate(24.42684) scale(0.3333,0.3333)" font-size="40" xml:space="preserve" fill="#000000" stroke="none" stroke-width="1" stroke-linecap="butt" font-family="Pixel" font-weight="normal" text-anchor="start"><tspan x="0" dy="0">RIP</tspan></text><path d="M350.72677,206.47605c0.2252,-0.49583 0.80972,-0.71523 1.30556,-0.49003c0.49583,0.2252 0.71523,0.80972 0.49003,1.30556c-0.2252,0.49583 -0.80972,0.71523 -1.30556,0.49003c-0.49583,-0.2252 -0.71523,-0.80972 -0.49003,-1.30556z" fill="#2f1a00" stroke="none" stroke-width="0.5" stroke-linecap="butt"/><path d="M350.93543,203.79104c0.2252,-0.49583 0.80972,-0.71523 1.30556,-0.49003c0.49583,0.2252 0.71523,0.80972 0.49003,1.30556c-0.2252,0.49583 -0.80972,0.71523 -1.30556,0.49003c-0.49583,-0.2252 -0.71523,-0.80972 -0.49003,-1.30556z" fill="#2f1a00" stroke="none" stroke-width="0.5" stroke-linecap="butt"/><path d="M346.93514,217.20875c-0.89779,-0.40777 -0.49003,-1.30556 -0.49003,-1.30556l0.25699,-0.54186c0.29185,-0.45709 0.58369,-0.9142 0.87554,-1.3713c0,0 0.53064,-0.8311 1.36174,-0.30047c0.8311,0.53064 0.30047,1.36174 0.30047,1.36174c-0.29185,0.45709 -0.58369,0.9142 -0.87554,1.3713l-0.12361,0.29612c0,0 -0.40777,0.89779 -1.30556,0.49003z" fill="#2f1a00" stroke="none" stroke-width="0.5" stroke-linecap="butt"/><path d="M342.27931,235.78379c-0.77209,-0.61334 -0.15875,-1.38543 -0.15875,-1.38543l1.11102,-1.38672c0.29657,-0.49045 -0.12823,-1.14169 -0.12575,-1.71483c0.00753,-1.74495 1.73907,-3.54121 2.81935,-4.63824c0,0 0.69703,-0.69746 1.39449,-0.00041c0.69746,0.69703 0.00041,1.39449 0.00041,1.39449c-2.46951,2.42769 -1.33533,3.28022 -2.40601,5.98779l-1.24933,1.58456c0,0 -0.61334,0.77209 -1.38543,0.15875z" fill="#2f1a00" stroke="none" stroke-width="0.5" stroke-linecap="butt"/><path d="M329.63952,252.0398c-0.80039,-0.57592 -0.22448,-1.37631 -0.22448,-1.37631l0.63238,-0.87065c0.99796,-2.21341 1.19232,-4.58584 2.93039,-6.29306c0,0 0.71202,-0.68214 1.39416,0.0299c0.68214,0.71202 -0.0299,1.39416 -0.0299,1.39416c-1.48827,1.37832 -1.71715,3.95222 -2.58819,5.85749l-0.73808,1.03398c0,0 -0.57592,0.80039 -1.37631,0.22448z" fill="#2f1a00" stroke="none" stroke-width="0.5" stroke-linecap="butt"/><path d="M325.83148,264.23018c-0.89779,-0.40777 -0.49003,-1.30556 -0.49003,-1.30556l0.1903,-0.41898c0.86541,-1.87267 1.81578,-2.75108 3.46479,-3.99908c0,0 0.78788,-0.59291 1.38079,0.19498c0.59291,0.78788 -0.19498,1.38079 -0.19498,1.38079c-1.41667,1.05936 -2.14647,1.64483 -2.85503,3.23883l-0.1903,0.41898c0,0 -0.40777,0.89779 -1.30556,0.49003z" fill="#2f1a00" stroke="none" stroke-width="0.5" stroke-linecap="butt"/><path d="M336.18524,246.1807c-0.94144,-0.29325 -0.64818,-1.23468 -0.64818,-1.23468l0.58314,-1.85759c0.58903,-1.11403 1.17957,-2.22728 1.77124,-3.33993c0,0 0.46297,-0.87061 1.33358,-0.40765c0.87061,0.46297 0.40765,1.33358 0.40765,1.33358c-0.56289,1.05852 -1.1268,2.1165 -1.69249,3.17351l-0.52025,1.68457c0,0 -0.29325,0.94144 -1.23468,0.64818z" fill="#2f1a00" stroke="none" stroke-width="0.5" stroke-linecap="butt"/><path d="M337.15243,233.74028c-0.89779,-0.40777 -0.49003,-1.30556 -0.49003,-1.30556l0.70684,-1.55629c1.03198,-2.27216 1.09412,-3.4091 3.56496,-4.17228c0,0 0.95579,-0.24244 1.19821,0.71335c0.24244,0.95579 -0.71335,1.19821 -0.71335,1.19821c-1.62364,0.25478 -1.57445,1.57947 -2.25426,3.07624l-0.70684,1.55629c0,0 -0.40777,0.89779 -1.30556,0.49003z" fill="#2f1a00" stroke="none" stroke-width="0.5" stroke-linecap="butt"/><path d="M348.72626,221.05473c-0.89779,-0.40777 -0.49003,-1.30556 -0.49003,-1.30556l0.59796,-1.31195c0.65667,-1.07197 1.31399,-2.14352 1.97178,-3.21478c0,0 0.51598,-0.84029 1.35624,-0.32431c0.84029,0.51598 0.32431,1.35624 0.32431,1.35624c-0.63643,1.03646 -1.27331,2.07264 -1.91092,3.10837l-0.54381,1.20195c0,0 -0.40777,0.89779 -1.30556,0.49003z" fill="#2f1a00" stroke="none" stroke-width="0.5" stroke-linecap="butt"/><path d="M357.0299,207.06446c0.2252,-0.49583 0.80972,-0.71523 1.30556,-0.49003c0.49583,0.2252 0.71523,0.80972 0.49003,1.30556c-0.2252,0.49583 -0.80972,0.71523 -1.30556,0.49003c-0.49583,-0.2252 -0.71523,-0.80972 -0.49003,-1.30556z" fill="#2f1a00" stroke="none" stroke-width="0.5" stroke-linecap="butt"/></g></g></g></svg>