<svg version="1.1" xmlns="http://www.w3.org/2000/svg" xmlns:xlink="http://www.w3.org/1999/xlink" width="197.30424" height="197.48751" viewBox="0,0,197.30424,197.48751"><defs><linearGradient x1="350.62928" y1="150.67659" x2="350.62928" y2="279.43717" gradientUnits="userSpaceOnUse" id="color-1"><stop offset="0" stop-color="#c7ad00"/><stop offset="1" stop-color="#ff0088"/></linearGradient><radialGradient cx="355.76793" cy="187.10898" r="58.38481" gradientUnits="userSpaceOnUse" id="color-2"><stop offset="0" stop-color="#000000" stop-opacity="0.73333"/><stop offset="1" stop-color="#000000" stop-opacity="0"/></radialGradient></defs><g transform="translate(-250.72028,-88.005)"><g stroke-miterlimit="10"><text transform="translate(252.09655,137.32886) scale(0.97671,0.97671)" font-size="40" xml:space="preserve" fill="#000000" stroke="#ffffff" stroke-width="1" stroke-linecap="butt" font-family="Pixel" font-weight="normal" text-anchor="start"><tspan x="0" dy="0">You Got!</tspan></text><path d="M286.39403,270.15968c0,0 -2.113,-5.05365 -2.113,-21.36636c0,-21.90116 0,-50.41457 0,-63.81798c0,-14.21979 3.09906,-26.4269 3.09906,-26.4269c0,0 1.9462,-7.87185 7.32508,-7.87185c14.82673,0 84.99103,0 111.81299,0c6.50392,0 7.07857,8.43409 7.07857,8.43409c0,0 3.3808,6.41373 3.3808,24.74008c0,21.62501 0,48.09346 0,60.72549c0,13.87123 -2.32431,24.74 -2.32431,24.74c0,0 -1.45722,8.49546 -7.71201,8.59481c-26.53557,0.42144 -97.5858,1.52611 -113.25731,1.52611c-6.14802,0 -7.28985,-9.27751 -7.28985,-9.27751z" fill="url(#color-1)" stroke="#000000" stroke-width="2.5" stroke-linecap="butt"/><path d="M289.57149,266.93679c0,0 -2.00849,-4.75358 -2.00849,-20.09756c0,-20.60058 0,-47.42082 0,-60.02829c0,-13.37538 2.94577,-24.85758 2.94577,-24.85758c0,0 1.84992,-7.40439 6.96273,-7.40439c14.09331,0 80.78686,0 106.28206,0c6.18219,0 6.72841,7.93326 6.72841,7.93326c0,0 3.21358,6.03283 3.21358,23.27092c0,20.34084 0,45.23756 0,57.11945c0,13.04752 -2.20934,23.27084 -2.20934,23.27084c0,0 -1.38514,7.99099 -7.33055,8.08443c-25.22296,0.39643 -92.75863,1.4355 -107.65493,1.4355c-5.8439,0 -6.92926,-8.7266 -6.92926,-8.7266z" fill="none" stroke="#2e29b1" stroke-width="6.5" stroke-linecap="butt"/><g fill="#ffffff" stroke="none" stroke-width="0" stroke-linecap="butt"><path d="M384.06657,176.51945c0.11003,-5.19848 1.25499,-9.05667 2.55737,-8.61752c1.30238,0.43914 2.26897,5.00932 2.15895,10.20778c-0.11003,5.19848 -1.25499,9.05667 -2.55737,8.61752c-1.30238,-0.43914 -2.26897,-5.00932 -2.15895,-10.20778z"/><path d="M394.36989,178.63934c0.11003,-5.19847 1.94897,-8.82266 4.10739,-8.09487c0.75494,0.25455 1.84459,0.765 2.42326,1.85934c0.5845,1.10538 3.63927,0.87519 5.75331,3.0269c1.77695,1.8086 2.7149,5.95892 2.68223,7.50263c-0.02929,1.38417 0.27214,6.32368 -1.81819,7.48584c-1.98516,1.10368 -0.0804,0.75081 -0.46611,1.46272c-0.73345,1.35376 -7.93501,-2.16214 -8.97292,-2.51208c-2.15844,-0.72779 -3.819,-5.53198 -3.70897,-10.73042z"/></g><text transform="translate(397.55553,169.42987) scale(0.70586,0.70586)" font-size="40" xml:space="preserve" fill="#ffffff" stroke="#000000" stroke-width="1" stroke-linecap="butt" font-family="Pixel" font-weight="normal" text-anchor="start"><tspan x="0" dy="0">4%</tspan></text><g><path d="M407.71546,220.21265c-4.15074,10.06474 -25.4842,-8.74418 -55.29375,-21.03777c-29.80957,-12.29359 -62.17272,-17.53083 -58.02196,-27.59557c4.15074,-10.06474 39.0742,-14.98773 68.88377,-2.69414c29.80957,12.29359 48.58269,41.26274 44.43196,51.32748z" fill="url(#color-2)" stroke="none" stroke-width="0" stroke-linecap="butt"/><path d="M352.84582,179.71368c0,0 2.03377,-7.84524 3.9546,-10.76975c1.6498,-2.51186 13.12833,-6.08115 13.12833,-6.08115l6.20455,8.53086c0,0 -6.65959,2.67705 -8.33103,5.22188c-1.90893,2.9064 -2.50499,11.27628 -2.50499,11.27628z" fill="#404040" stroke="none" stroke-width="0" stroke-linecap="butt"/><path d="M343.11528,212.98768l3.27178,-7.3317" fill="none" stroke="#000000" stroke-width="1" stroke-linecap="round"/><path d="M338.41727,230.39644l1.97342,-5.38685" fill="none" stroke="#000000" stroke-width="1" stroke-linecap="round"/><path d="M328.14057,251.70527l-3.64734,10.6492" fill="none" stroke="#000000" stroke-width="1" stroke-linecap="round"/><path d="M345.45293,201.30232l1.66098,-4.02754" fill="none" stroke="#000000" stroke-width="1" stroke-linecap="round"/><path d="M370.95043,205.29136l-0.24559,-0.09333c0,0 0.08766,0.03216 0.24559,0.09333z" fill="#89440f" stroke="none" stroke-width="0" stroke-linecap="butt"/><path d="M311.92507,172.51123l18.26437,5.05202" fill="none" stroke="#000000" stroke-width="0.5" stroke-linecap="round"/><path d="M347.04534,178.81007l-7.08589,-2.67421" fill="none" stroke="#000000" stroke-width="0.5" stroke-linecap="round"/><path d="M353.86576,190.55185l-16.84136,-6.69743" fill="none" stroke="#000000" stroke-width="0.5" stroke-linecap="round"/><path d="M362.70008,188.98653l-7.34817,-2.03829" fill="none" stroke="#000000" stroke-width="0.5" stroke-linecap="round"/><path d="M376.51085,192.20191l-7.84678,-3.23605" fill="none" stroke="#000000" stroke-width="0.5" stroke-linecap="round"/><path d="M369.22261,196.63702l15.64337,7.19549" fill="none" stroke="#000000" stroke-width="0.5" stroke-linecap="round"/><path d="M394.31061,204.99921l-4.05371,-3.40796" fill="none" stroke="#000000" stroke-width="0.5" stroke-linecap="round"/><path d="M398.48737,212.92244l-3.29285,-2.84615" fill="none" stroke="#000000" stroke-width="0.5" stroke-linecap="round"/><path d="M320.27675,264.35772c0,0 19.35897,-52.48675 24.01941,-65.12234c1.91321,-5.18718 -2.20055,-12.66814 -2.20055,-12.66814l25.57931,9.53904c0,0 -7.53322,1.72771 -9.76159,7.44827c-0.68472,1.75778 -3.68782,3.62551 -4.47491,5.6252c-1.34027,3.40504 -0.53763,7.10523 -1.97579,10.66244c-2.03959,5.0448 -4.05159,9.89463 -5.67847,13.5624c-5.35876,12.0812 -17.13091,34.84948 -17.13091,34.84948c0,0 -3.56518,1.28208 -4.83744,0.6903c-1.48645,-0.69143 -3.53907,-4.58664 -3.53907,-4.58664z" fill="#613600" stroke="none" stroke-width="NaN" stroke-linecap="butt"/><path d="M320.81252,264.80692c0,0 19.35897,-52.48675 24.01941,-65.12234c1.91321,-5.18718 -2.20054,-12.66816 -2.20054,-12.66816l25.57931,9.53904c0,0 -2.97073,0.68133 -5.73295,2.60492c-1.23035,-0.30219 -2.51401,-0.51495 -3.85162,-0.62946c-6.70755,-0.57422 -14.17709,4.8186 -16.68721,10.90513c-6.10343,14.79961 -8.81238,31.61908 -13.4259,47.23186c-1.1969,4.05049 -3.64893,7.38288 -6.171,10.6407c-0.85535,-1.22242 -1.52948,-2.50169 -1.52948,-2.50169z" fill="#573000" stroke="none" stroke-width="NaN" stroke-linecap="butt"/><path d="M336.19343,245.9137l6.79446,-18.28035" fill="none" stroke="#000000" stroke-width="0.5" stroke-linecap="round"/><path d="M345.98929,209.52493l-3.14712,7.63115" fill="none" stroke="#000000" stroke-width="0.5" stroke-linecap="round"/><path d="M326.37973,263.69297l4.72067,-11.4467" fill="none" stroke="#000000" stroke-width="0.5" stroke-linecap="round"/><path d="M352.95214,207.6839l2.25998,-4.27657" fill="none" stroke="#000000" stroke-width="0.5" stroke-linecap="round"/><path d="M306.05921,177.54489l-13.78665,-0.80675l19.54894,-13.16566c0,0 36.99221,8.18598 52.79664,14.7038c14.18849,5.8514 37.70602,22.61989 37.70602,22.61989l0.77759,24.19957l-6.53988,-10.22714c0,0 -21.33581,-15.86874 -34.8329,-21.43501c-16.18102,-6.67312 -55.66976,-15.88869 -55.66976,-15.88869z" fill="#565656" stroke="#000000" stroke-width="0.5" stroke-linecap="butt"/><path d="M307.52946,178.00755l-14.48395,-1.09433l14.28667,-9.08737c2.57705,0.84529 4.72736,1.51452 5.48927,1.82051c18.1394,7.28471 38.91958,14.25069 55.39044,24.82753c1.694,1.08781 3.19526,2.38616 4.60896,3.78248c-2.29465,-1.19394 -4.50791,-2.25117 -6.5488,-3.09284c-17.11604,-7.05873 -58.74263,-17.15597 -58.74263,-17.15597z" fill="#363636" stroke="none" stroke-width="0" stroke-linecap="butt"/><path d="M378.85045,200.29534c-0.71277,-0.10494 -0.60783,-0.8177 -0.60783,-0.8177l0.12998,-0.8459c1.03889,-2.55149 2.00174,-7.03966 4.91626,-7.59874c0,0 0.71244,-0.10715 0.81957,0.6053c0.10715,0.71244 -0.6053,0.81957 -0.6053,0.81957c-1.91811,0.157 -3.02967,4.85607 -3.74132,6.55633l-0.09366,0.67328c0,0 -0.10494,0.71277 -0.8177,0.60783z" fill="#000000" stroke="none" stroke-width="0.5" stroke-linecap="butt"/><path d="M360.59054,190.74705c-0.66518,0.27673 -0.94192,-0.38845 -0.94192,-0.38845l-0.20315,-1.0377c1.53042,-3.71094 2.8966,-6.81995 6.30569,-9.11165c0,0 0.59801,-0.40183 0.99982,0.19618c0.40183,0.59801 -0.19618,0.99982 -0.19618,0.99982c-3.1517,2.11681 -4.35798,5.02359 -5.77725,8.46502l0.20145,-0.06513c0,0 0.27673,0.66518 -0.38845,0.94192z" fill="#000000" stroke="none" stroke-width="0.5" stroke-linecap="butt"/><path d="M345.59821,186.20237c-0.66603,-0.27468 -0.39136,-0.94071 -0.39136,-0.94071l0.01661,0.09485c0.04775,-4.23065 1.79802,-7.73381 4.95264,-10.47961c0,0 0.54354,-0.47288 1.01643,0.07065c0.47288,0.54354 -0.07065,1.01643 -0.07065,1.01643c-2.84127,2.47083 -4.41925,5.59186 -4.45758,9.40786l-0.12537,0.43916c0,0 -0.27468,0.66603 -0.94071,0.39136z" fill="#000000" stroke="none" stroke-width="0.5" stroke-linecap="butt"/><path d="M329.96292,180.15719c-0.66603,-0.27468 -0.39136,-0.94071 -0.39136,-0.94071l0.14199,-0.3443c1.32865,-3.22171 2.81403,-5.33136 4.957,-8.03969c0,0 0.44708,-0.56495 1.01204,-0.11787c0.56495,0.44708 0.11787,1.01204 0.11787,1.01204c-2.08338,2.63225 -3.46362,4.56397 -4.75482,7.69488l-0.14199,0.3443c0,0 -0.27468,0.66603 -0.94071,0.39136z" fill="#000000" stroke="none" stroke-width="0.5" stroke-linecap="butt"/><path d="M318.56033,176.05899c-0.66603,-0.27468 -0.39136,-0.94071 -0.39136,-0.94071l0.09526,-0.17457c0.43845,-2.85311 2.09841,-4.75505 3.66161,-6.925c0,0 0.42802,-0.57953 1.00754,-0.15151c0.57953,0.42802 0.15151,1.00754 0.15151,1.00754c-1.44752,1.92357 -3.03429,3.68524 -3.39512,6.27886l-0.18872,0.51403c0,0 -0.27468,0.66603 -0.94071,0.39136z" fill="#000000" stroke="none" stroke-width="0.5" stroke-linecap="butt"/></g><text transform="translate(254.40078,278.05474) scale(0.70836,0.70836)" font-size="40" xml:space="preserve" fill="#ffffff" stroke="#000000" stroke-width="1" stroke-linecap="butt" font-family="Pixel" font-weight="normal" text-anchor="start"><tspan x="0" dy="0">Void Pumpkin</tspan></text><text transform="translate(282.90078,249.55474) scale(0.70836,0.70836)" font-size="40" xml:space="preserve" fill="#ffffff" stroke="#000000" stroke-width="1" stroke-linecap="butt" font-family="Pixel" font-weight="normal" text-anchor="start"><tspan x="0" dy="0">Rainbow</tspan></text></g></g></svg>