<svg version="1.1" xmlns="http://www.w3.org/2000/svg" xmlns:xlink="http://www.w3.org/1999/xlink" width="184.95027" height="189.06335" viewBox="0,0,184.95027,189.06335"><g transform="translate(-250.71983,-88.68268)"><g stroke-miterlimit="10"><text transform="translate(252.0961,138.00654) scale(0.97671,0.97671)" font-size="40" xml:space="preserve" fill="#000000" stroke="#ffffff" stroke-width="1" stroke-linecap="butt" font-family="Pixel" font-weight="normal" text-anchor="start"><tspan x="0" dy="0">You Got!</tspan></text><path d="M283.42955,261.85686c0,0 -1.99067,-4.76107 -1.99067,-20.12938c0,-20.63321 0,-47.49588 0,-60.1233c0,-13.39654 2.91966,-24.89694 2.91966,-24.89694c0,0 1.83351,-7.41611 6.901,-7.41611c13.96834,0 80.07055,0 105.33968,0c6.12738,0 6.66875,7.94581 6.66875,7.94581c0,0 3.18508,6.04242 3.18508,23.30777c0,20.37306 0,45.30915 0,57.20985c0,13.06817 -2.18975,23.3077 -2.18975,23.3077c0,0 -1.37285,8.00363 -7.26553,8.09723c-24.99932,0.39704 -91.93616,1.43775 -106.70039,1.43775c-5.79209,0 -6.86781,-8.7404 -6.86781,-8.7404z" fill="#c7c7c7" stroke="#000000" stroke-width="2.5" stroke-linecap="butt"/><path d="M286.42307,258.82057c0,0 -1.8922,-4.47837 -1.8922,-18.93403c0,-19.40793 0,-44.67543 0,-56.55301c0,-12.60103 2.77523,-23.41848 2.77523,-23.41848c0,0 1.74282,-6.97571 6.55963,-6.97571c13.27739,0 76.10979,0 100.12897,0c5.82429,0 6.33887,7.47397 6.33887,7.47397c0,0 3.02754,5.68357 3.02754,21.92367c0,19.16323 0,42.61857 0,53.81257c0,12.29215 -2.08143,21.9236 -2.08143,21.9236c0,0 -1.30495,7.52836 -6.90615,7.61638c-23.76271,0.37348 -87.38844,1.35239 -101.42235,1.35239c-5.50557,0 -6.5281,-8.22139 -6.5281,-8.22139z" fill="none" stroke="#8f8f8f" stroke-width="6.5" stroke-linecap="butt"/><g fill="#ffffff" stroke="none" stroke-width="0" stroke-linecap="butt"><path d="M375.44741,173.63784c0.10366,-4.89751 1.18233,-8.53234 2.40931,-8.11862c1.22698,0.41373 2.13762,4.71932 2.03397,9.61682c-0.10366,4.89751 -1.18233,8.53234 -2.40931,8.11862c-1.22698,-0.41373 -2.13762,-4.71932 -2.03397,-9.61682z"/><path d="M385.15423,175.63501c0.10366,-4.89751 1.83613,-8.31189 3.8696,-7.62623c0.71122,0.23981 1.73779,0.72072 2.28296,1.75171c0.55066,1.04138 3.42858,0.82452 5.42023,2.85166c1.67408,1.7039 2.55771,5.61393 2.52694,7.06827c-0.02761,1.30403 0.25638,5.95757 -1.71293,7.05246c-1.87024,1.03979 -0.07575,0.70734 -0.43913,1.37804c-0.69099,1.27539 -7.47562,-2.03697 -8.45343,-2.36664c-2.03348,-0.68566 -3.59791,-5.21172 -3.49425,-10.1092z"/></g><text transform="translate(367.93407,168.24689) scale(0.66735,0.66735)" font-size="40" xml:space="preserve" fill="#ffffff" stroke="#000000" stroke-width="1" stroke-linecap="butt" font-family="Pixel" font-weight="normal" text-anchor="start"><tspan x="0" dy="0">25%</tspan></text><g><path d="M369.72148,204.79593l-0.23402,-0.13676c0,0 0.08375,0.04766 0.23402,0.13676z" fill="#89440f" stroke="none" stroke-width="0" stroke-linecap="butt"/><path d="M338.84725,177.21173l15.99735,9.67986" fill="none" stroke="#000000" stroke-width="0.5" stroke-linecap="round"/><path d="M308.11103,256.27767c0,0 28.62728,-50.11389 35.51896,-62.17824c2.82918,-4.95268 -0.08409,-13.26464 -0.08409,-13.26464l24.40512,14.05775c0,0 -7.95924,0.47649 -11.19983,5.91827c-0.99575,1.67213 -4.36924,3.06172 -5.51032,4.96258c-1.94304,3.23673 -1.75576,7.13839 -3.82429,10.51331c-2.93357,4.7863 -5.80586,9.37888 -8.08522,12.83422c-7.50796,11.38144 -23.35977,32.54635 -23.35977,32.54635c0,0 -3.8458,0.69807 -5.0397,-0.12054c-1.3949,-0.95643 -2.82089,-5.2691 -2.82089,-5.2691z" fill="#303030" stroke="none" stroke-width="NaN" stroke-linecap="butt"/><path d="M308.23231,256.62724c0,0 28.62728,-50.11389 35.51896,-62.17824c2.82918,-4.95268 -0.08408,-13.26464 -0.08408,-13.26464l24.40513,14.05776c0,0 -3.13874,0.18791 -6.27663,1.67533c-1.20052,-0.51678 -2.47048,-0.95166 -3.81209,-1.29571c-6.72749,-1.72535 -15.24544,2.49134 -18.83498,8.2576c-8.72811,14.02084 -14.34581,30.67442 -21.69624,45.77615c-1.90696,3.91791 -4.96886,6.8916 -8.08937,9.77751c-0.6624,-1.38937 -1.13071,-2.80576 -1.13071,-2.80576z" fill="#1d1d1d" stroke="none" stroke-width="NaN" stroke-linecap="butt"/><path d="M308.41239,165.5239l-13.89118,-3.16624l22.13142,-10.07095c0,0 36.24833,14.62248 51.22114,23.94318c13.44188,8.36768 34.51922,29.43097 34.51922,29.43097l-3.32552,24.75619l-4.91478,-11.51903c0,0 -19.01042,-19.77657 -31.79728,-27.73651c-15.32956,-9.5428 -53.94305,-25.63763 -53.94305,-25.63763z" fill-opacity="0.47451" fill="#ffffff" stroke="#000000" stroke-width="0.5" stroke-linecap="butt"/></g><text transform="translate(300.38936,269.32378) scale(0.80212,0.80212)" font-size="40" xml:space="preserve" fill="#ffffff" stroke="#000000" stroke-width="1" stroke-linecap="butt" font-family="Pixel" font-weight="normal" text-anchor="start"><tspan x="0" dy="0">Ghost</tspan></text></g></g></svg>