<svg version="1.1" xmlns="http://www.w3.org/2000/svg" xmlns:xlink="http://www.w3.org/1999/xlink" width="652.32523" height="576.26552" viewBox="0,0,652.32523,576.26552"><g transform="translate(3.6522,103.13276)"><g stroke-miterlimit="10"><path d="M467.6788,195.02514c-5.04306,70.02992 -65.90174,122.71218 -135.93166,117.66914c-70.02992,-5.04306 -122.7122,-65.90176 -117.66916,-135.93165c5.04306,-70.02992 65.90176,-122.7122 135.93165,-117.66916c70.02992,5.04306 122.7122,65.90176 117.66916,135.93165z" fill="#ffea00" stroke="none" stroke-width="0"/><path d="M453.36907,193.99466c-4.47392,62.12685 -58.46454,108.86381 -120.59139,104.38988c-62.12685,-4.47392 -108.86381,-58.46452 -104.38988,-120.59139c4.47392,-62.12685 58.46455,-108.86381 120.59143,-104.3899c62.12685,4.47392 108.86381,58.46454 104.38988,120.59139z" fill="#fffde3" stroke="#000000" stroke-width="0"/><path d="M496.3056,194.50006c-0.45467,-3.2365 2.66973,-5.11807 2.66973,-5.11807l8.53947,6.33135c-2.47984,5.25611 -4.36889,10.80219 -7.18659,15.88518c-3.59863,6.49168 -9.69026,10.11845 -12.68065,17.13926c-2.24948,5.28138 -0.27477,6.43087 -1.54922,12.71402c-1.57624,7.77095 -6.41236,14.59717 -11.07237,20.77642c-2.2454,2.9645 -4.45201,6.21854 -6.86919,9.25302c-3.06425,11.64966 -9.54862,22.99058 -16.17023,32.91762c0,0 -2.67041,3.97938 -6.79222,2.42112c-4.84129,4.62315 -9.69731,9.30085 -15.8376,11.86931c-1.43449,0.60006 -2.89591,1.11389 -4.37767,1.55448c-0.10877,0.0948 -0.21879,0.18826 -0.33011,0.28027c-12.4658,10.30188 -29.81011,13.00059 -45.11564,15.49518c0,0 -5.2953,0.86293 -6.15824,-4.43236c-0.86292,-5.2953 4.43236,-6.15824 4.43236,-6.15824c5.79504,-0.94422 12.06927,-1.85564 18.20614,-3.32958c-1.62645,-0.74372 -3.4773,-2.34365 -3.23138,-5.7586l0,0.00003c0.42937,-5.9624 6.39176,-5.53304 6.39176,-5.53304l2.63835,0.21459c6.35508,-0.10576 13.1205,-0.31524 19.36511,-2.11969c0.98505,-1.0841 1.97377,-2.16389 3.10077,-3.09217c1.11418,-0.91773 2.88919,-0.93076 3.82553,-2.02934c0.94662,-1.11065 0.71513,-2.86581 1.43073,-4.13762c4.59744,-8.17121 10.66046,-19.08794 17.96871,-25.28962c2.25051,-1.90974 5.2459,-2.77713 7.56221,-4.60657c0.40325,-0.31848 0.79801,-0.65551 1.18503,-1.00842c-2.40765,-2.54479 -0.98157,-6.19154 -0.98157,-6.19154c4.38145,-11.19529 8.49111,-22.40117 12.24039,-33.81974l1.69757,-4.16794c0,0 2.27447,-5.52822 7.80272,-3.25378l0.00004,0.00003c0.74287,0.30564 1.34484,0.67001 1.83036,1.07188c3.46534,-6.28184 8.8248,-9.88109 12.22131,-16.18837c2.025,-3.76041 3.56062,-7.75994 5.24442,-11.68901z" fill="#ffee37" stroke="none" stroke-width="0.5"/><path d="M243.00543,80.48916c-2.76784,-4.59608 1.82822,-7.36392 1.82822,-7.36392l2.79355,-1.56068c6.8832,-2.42996 13.27096,-5.99943 19.51279,-9.91625c-0.91552,0.22192 -1.82651,0.45952 -2.73231,0.71493l-0.00003,0c-0.93573,1.12431 -2.45129,2.02635 -4.90037,1.85001c-5.9624,-0.42937 -5.53304,-6.39176 -5.53304,-6.39176l4.20393,-6.06102c11.00892,-3.44627 22.5432,-4.25464 33.9942,-5.7626c2.73117,-1.44853 5.51927,-2.77081 8.39059,-3.90732c7.43915,-4.4618 14.91212,-7.78327 23.70542,-8.49143c0.7714,-0.06213 1.54383,-0.09475 2.31705,-0.10629c1.90096,-1.87037 4.7765,-1.6633 4.7765,-1.6633c4.6385,0.33403 9.27703,0.66807 13.91553,1.00211c1.41937,-0.35124 2.84078,-0.68107 4.29362,-0.75176c3.79695,-0.18473 7.75037,0.06158 11.72962,0.59664c12.17732,-3.58625 24.11203,-0.73863 38.09094,1.99221l1.56454,0.30564c0,0 4.15472,0.81165 4.7886,4.56517c1.81401,-3.46645 5.95245,-2.439 5.95245,-2.439c10.19695,2.5316 25.60089,5.7209 7.38971,17.40459c-2.40351,1.54201 -5.7129,0.53695 -8.56068,0.3254c-10.0489,-0.7465 -20.60681,-3.67396 -30.11872,-6.6383c-4.88357,-1.52193 -10.35271,-3.10075 -15.86962,-4.16684c-2.71361,0.84439 -5.41459,2.13757 -8.11792,4.01595c0,0 -4.95901,3.33812 -8.29711,-1.62088c-0.33752,-0.50145 -0.59024,-0.98634 -0.77184,-1.45282c-2.12726,-0.15319 -4.38573,-0.31583 -6.6001,-0.47529c-3.98609,0.29556 -7.55708,0.38572 -10.92129,0.54386c-7.43798,4.53252 -15.67896,7.87118 -22.82189,12.68106c-0.76673,1.59641 -2.37074,3.35307 -5.70315,3.11308c-2.99813,-0.21591 -4.38012,-1.83086 -5.01323,-3.38323c-1.18542,0.15672 -2.37357,0.30357 -3.56326,0.44471c-13.83202,7.93997 -26.51075,18.3264 -41.47543,23.77207l-0.88332,0.65357c0,0 -4.59608,2.76784 -7.3639,-1.82825z" fill="#ffee37" stroke="none" stroke-width="0.5"/><path d="M211.60214,291.77397c-1.6842,-1.50423 -3.36844,-3.00848 -5.05265,-4.51272c-6.10153,-3.5493 -11.05573,-7.23709 -17.15749,-11.51093c-4.82683,0.08695 -5.7125,-4.97867 -5.7125,-4.97867c-2.33314,-13.36438 -5.40285,-25.97092 -9.18032,-39.03827l-0.41461,-7.11306c0,0 -0.10832,-2.06261 1.01478,-3.82665c0.75141,-10.25776 1.78559,-20.13459 5.37655,-30.07098l0.00003,0c0.05783,-0.57134 0.72563,-5.69176 6.078,-5.49822c-0.50462,-4.37476 -0.79779,-8.75275 -0.69039,-13.13481c-0.43178,-2.48672 -0.61398,-4.35146 0.64588,-7.75125c0.30461,-2.07118 0.72333,-4.14337 1.27607,-6.21664c0.75768,-2.84204 1.52178,-5.81092 3.21046,-8.21917c1.34481,-1.91785 4.34297,-2.29363 5.56318,-4.29305c2.90048,-4.75281 -0.04159,-13.08551 4.68131,-16.03439c0.73389,-0.45823 1.51059,-0.7923 2.31918,-1.03371l-0.05975,-0.22127l7.42716,-2.00562c2.28484,-0.67318 4.82305,0.245 6.10928,2.38088c0.94379,1.56718 0.99286,3.42351 0.29488,4.97434l-2.75158,6.32488l-0.0562,-0.02446l-0.03758,0.22823c-4.88028,9.05644 -11.9839,16.71761 -16.86877,25.49862c-0.13445,0.24165 -0.25762,0.49275 -0.37027,0.75246c-0.10813,0.8452 -0.17545,1.47977 -0.19608,1.75355c-1.45123,19.25159 5.53469,37.66693 5.37833,56.65865c-0.0268,3.25507 -0.43662,6.56535 -1.4583,9.65605c-0.94834,2.86878 -3.73293,4.99109 -4.36061,7.94663c-0.53877,2.53695 5.5639,11.2435 5.88765,11.86576c3.71134,7.13283 8.03315,15.35271 10.87335,23.09377c1.10642,0.62046 2.25934,1.23586 3.47462,1.84896l3.31915,1.34445c0,0 5.52822,2.27447 3.25378,7.80272l-0.00003,0.00001c-2.00607,4.87588 -6.5433,3.68191 -7.58619,3.33221zM191.70009,224.68967c-0.05451,-3.805 -0.38146,-7.61053 -0.85542,-11.4171c-0.23202,0.57303 -0.47165,1.16343 -0.71912,1.77366c0,0 -0.86964,2.14463 -2.87517,3.04564c-0.29549,3.77882 -0.50341,7.59862 -0.78228,11.47154c0,0 -0.01429,0.19819 -0.07374,0.51969c0.53211,1.76812 1.04529,3.52958 1.54063,5.28706c1.69991,-3.49869 3.81924,-6.89762 3.76506,-10.68048zM194.81392,265.13842c0.04025,0.01727 0.07961,0.03452 0.11803,0.05174c-0.05509,-0.10209 -0.11014,-0.20419 -0.16512,-0.30628c0.01571,0.08484 0.03139,0.16969 0.04708,0.25455z" fill="#ffee37" stroke="none" stroke-width="0.5"/><path d="M513.63179,149.24097c-4.59608,2.76784 -7.36392,-1.82822 -7.36392,-1.82822l-3.01819,-5.06244c-1.13357,-3.11503 -1.12618,-6.81805 -3.17458,-9.42431c-0.61953,-0.78826 -1.56224,-1.23741 -2.46411,-1.73068c-0.62583,1.05476 -1.71972,2.01019 -3.58683,2.5284l0,-0.00003c-5.76012,1.59861 -7.35877,-4.16146 -7.35877,-4.16146l-0.56058,-2.05834c-0.42569,-1.97809 -1.07331,-3.92119 -1.27706,-5.93426c-0.09901,-0.97821 1.23098,-2.4317 0.38046,-2.92487c-1.60473,-0.93053 -3.70964,-0.05406 -5.56445,-0.08107c0,0 -5.86693,-1.14612 -4.72078,-7.01308c0.0429,-0.21964 0.09242,-0.4294 0.148,-0.62981c-0.51143,-0.54452 -0.78159,-0.98683 -0.78159,-0.98683c-4.28988,-7.12647 -9.42114,-11.74913 -13.05233,-19.41438l-2.06452,-2.84652c-1.53971,-0.81662 -2.66618,-2.28172 -3.04259,-4.00632c-6.25107,-5.86702 -13.00559,-11.30084 -18.74071,-17.55161c0,0 -3.61545,-3.964 0.34856,-7.57945c3.964,-3.61545 7.57945,0.34856 7.57945,0.34856c5.69981,6.29293 12.47563,11.74098 18.7595,17.61369c2.19267,0.57869 3.5448,2.46134 3.5448,2.46134l2.73159,3.83454c0.77398,0.84953 1.52927,1.71466 2.26204,2.5985c1.16806,1.40885 1.29119,3.57624 2.6386,4.81465c1.0885,1.00044 2.93971,0.66791 4.18816,1.45979c2.98956,1.89633 11.82915,9.27463 14.36614,12.27737c3.52836,4.17608 3.90603,7.66537 6.33657,12.52767c1.97511,3.95118 5.99282,6.5193 8.57786,10.10126c0.66519,0.92175 3.57222,9.33955 4.2199,11.17425l2.51748,4.12973c0,0 2.76784,4.59608 -1.82825,7.3639z" fill="#ffee37" stroke="none" stroke-width="0.5"/><path d="M493.37405,252.87916c4.59608,-2.76784 7.36392,1.82822 7.36392,1.82822l1.85973,4.18606c0.24997,3.47672 0.98293,6.95229 0.74994,10.43018c-0.55651,8.3072 -7.05779,15.21654 -9.59407,23.13065c-3.50645,10.94138 -5.37506,22.28314 -14.71937,30.32416c-0.56595,0.48701 -12.58697,7.6931 -13.68822,8.35629c-11.64337,7.01185 -23.28678,14.02372 -34.93015,21.03557c0,0 -4.59606,2.76785 -7.36392,-1.82822c-2.76784,-4.59608 1.82822,-7.36392 1.82822,-7.36392c5.09902,-3.07073 10.19808,-6.14147 15.29711,-9.2122c-0.59063,-1.01278 -0.89418,-2.36372 -0.54432,-4.15444l-0.00005,0.00006c1.14612,-5.86694 7.01307,-4.72081 7.01307,-4.72081l-1.18027,0.41246c8.17409,-1.76134 8.33784,-4.95757 9.72151,-12.95588c0,0 0.75827,-3.88157 4.19856,-4.71351l1.04366,-1.44627c7.27678,-7.40579 14.33715,-7.65497 15.7865,-17.38636c-0.87602,-1.1252 -1.35486,-2.5659 -1.24435,-4.10023c0.23713,-3.29294 3.09882,-5.77018 6.39175,-5.53304c1.92745,0.13878 3.57545,1.17679 4.56318,2.67415c0.17715,0.11795 0.34161,0.2437 0.49426,0.37571c2.13601,-4.22379 6.16569,-9.55811 6.23303,-13.77819c0.04647,-2.91241 -0.5023,-5.80388 -0.75346,-8.70582l-0.35453,0.5092c0,0 -2.76784,-4.59606 1.82822,-7.36392zM471.86011,314.79899c1.94655,-1.64816 3.50906,-3.5369 4.80206,-5.58875c-2.72028,1.55042 -5.50842,3.01707 -7.62165,5.27104l-2.08497,3.09211c0,0 -0.27062,0.3853 -0.7681,0.86368c-0.00405,0.0224 -0.00813,0.04475 -0.01219,0.06705c2.00497,-1.08051 3.95374,-2.23946 5.68479,-3.70515z" fill="#ffee37" stroke="none" stroke-width="0.5"/><path d="M155.48812,177.68459c5.66164,1.91851 3.74312,7.58013 3.74312,7.58013l-0.25577,0.75486c-0.67433,1.40382 -2.21516,2.66596 -2.02296,4.21142c0.22589,1.81658 2.79049,2.72399 3.10961,4.52653c0.63256,3.57301 -0.25493,7.25268 -0.38241,10.87903c0,0 -0.36123,5.96693 -6.32816,5.60569c-1.02085,-0.06179 -1.85643,-0.28767 -2.54034,-0.61967c-0.98424,0.19015 -2.0298,0.13498 -3.04714,-0.20975c-3.12681,-1.05955 -4.80267,-4.45329 -3.74312,-7.58013c0.71924,-2.12254 2.51408,-3.57649 4.57083,-3.96006c-0.00898,-0.40896 -0.04882,-0.81634 -0.13,-1.22168c-0.45644,-2.27878 -3.26952,-3.77104 -3.39101,-6.09189c-0.16945,-3.23735 1.72094,-6.25098 2.58142,-9.37647l0.25576,-0.75486c0,0 1.91851,-5.66164 7.5801,-3.74313z" fill="#fff15b" stroke="none" stroke-width="0.5"/><path d="M317.771,15.26818c-0.42937,5.9624 -6.39176,5.53304 -6.39176,5.53304l-5.15229,-0.49341c-0.67266,0.25065 -1.3521,0.5415 -2.03808,0.85914c-1.00537,2.21121 -3.30838,3.67291 -5.87294,3.48825c-0.27031,-0.01947 -0.53518,-0.05664 -0.7935,-0.11024c-3.70336,1.80478 -7.55122,3.20064 -11.50214,2.38549c-0.21593,-0.04455 -0.43034,-0.09367 -0.64336,-0.14713l-0.00979,0.13588l-6.35989,-0.458c-3.29294,-0.23713 -5.77016,-3.09884 -5.53304,-6.39176c0.1876,-2.6051 2.01785,-4.69971 4.40474,-5.34363l6.05431,-1.78614c4.36486,-2.07412 8.99923,-3.59729 13.6774,-4.80891c0,0 3.01683,-0.7699 5.25168,0.97884c0.59685,-0.23397 1.19895,-0.45407 1.80813,-0.65561l7.56751,0.42252c0,0 5.9624,0.42937 5.53304,6.39176z" fill="#fff15b" stroke="none" stroke-width="0.5"/><path d="M322.9821,331.29166c-0.23713,3.29294 -3.09883,5.77018 -6.39176,5.53304c-3.29294,-0.23713 -5.77018,-3.09883 -5.53304,-6.39176c0.23713,-3.29294 3.09884,-5.77016 6.39176,-5.53304c3.29294,0.23713 5.77018,3.09882 5.53304,6.39175z" fill="#fff15b" stroke="none" stroke-width="0.5"/><path d="M517.54811,113.65414c-2.87304,4.53105 -7.40409,1.65803 -7.40409,1.65803l-4.41905,-2.82397c-7.02343,-5.47901 -9.18492,-12.5412 -14.15558,-19.22573c-0.15683,-0.01795 -0.31415,-0.04225 -0.4717,-0.07304c-2.66226,-0.52009 -4.56394,-2.73249 -4.80657,-5.30242c-3.66348,-3.22336 -8.51073,-7.29358 -8.83534,-7.57079c0,0 -4.07922,-3.48496 -0.59425,-7.56416c3.48496,-4.07922 7.56415,-0.59426 7.56415,-0.59426c2.25514,1.9271 11.87599,9.92658 14.13596,12.64026c5.25997,6.31591 6.87288,14.22247 13.64216,19.13658l3.68634,2.31545c0,0 4.53105,2.87304 1.65803,7.40409z" fill="#ffee37" stroke="none" stroke-width="0.5"/><path d="M163.67136,283.13799c-5.2953,0.86292 -6.15824,-4.43236 -6.15824,-4.43236c-1.73101,-10.93568 0.53748,-21.37508 -4.55441,-31.82059c-4.7764,-9.79838 -14.12435,-18.69752 -16.16642,-29.67407c-1.14451,-6.15197 2.23738,-17.50536 5.4311,-22.65908c1.78739,-2.88431 4.73912,-4.91039 6.61222,-7.73977c0.12577,-0.18994 0.24628,-0.38608 0.36193,-0.58784c-0.28084,-4.04423 -0.46537,-8.07212 0.80787,-11.74934c0.02621,-0.07568 0.05262,-0.15125 0.07919,-0.22678l-0.04077,-0.0076l1.96458,-10.52163c0.26629,-1.46358 1.13652,-2.80993 2.51106,-3.6377c2.53832,-1.52863 5.83529,-0.71009 7.36393,1.82825c0.20564,0.34146 0.3688,0.69662 0.49101,1.05937l1.81117,5.04536l-0.78209,0.28074l1.09753,1.50342c-1.38058,4.37364 -2.13991,10.19807 -3.56742,15.37092c0.2096,6.00301 -0.52141,12.15115 -1.94471,16.93755c-0.72208,2.42832 -3.37595,4.00238 -4.01289,6.45439c-0.22482,0.86546 0.66737,1.57164 1.23364,2.35479c0.78735,-1.39204 2.26931,-2.70026 5.0587,-2.71274l0.00007,0.00001c5.97776,-0.02673 6.00448,5.95106 6.00448,5.95106l-0.09269,5.23699c-1.99308,7.70863 1.55436,9.9175 2.64918,18.06269c1.70342,12.6728 0.7974,26.08191 1.4665,38.92401c0,0 0.31104,5.96975 -5.65873,6.28079c-0.11963,0.00625 -0.23702,0.00994 -0.35215,0.01122c-0.46145,0.20604 -0.99564,0.36716 -1.61376,0.4679z" fill="#ffee37" stroke="none" stroke-width="0.5"/><path d="M384.64233,10.89465c-1.29275,5.20709 -6.49982,3.91431 -6.49982,3.91431l-2.69709,-0.83465c-1.44948,-0.82611 -2.89895,-1.65223 -4.34844,-2.47835c-7.53504,0.00201 -14.48167,0.31484 -21.66239,1.23871c-2.13499,2.0123 -5.31398,1.39125 -5.31398,1.39125l-0.97504,-0.22071c-0.15643,-0.01633 -0.31217,-0.03136 -0.46726,-0.04519c-7.51829,1.7575 -14.93992,5.39258 -22.78956,5.79901c-1.97221,0.10216 -3.96035,0.02214 -5.94802,-0.06959c-0.57893,0.09372 -1.16642,0.17698 -1.76358,0.24822c-3.55948,0.42446 -6.80225,0.13586 -10.07601,0.39406c-2.6396,0.59207 -5.23729,1.3276 -7.80113,2.17529c-2.24249,1.29456 -4.0483,3.40731 -6.48262,4.29263c-1.4578,0.53016 -3.10381,0.12182 -4.67556,0.09249c-1.71529,0.76728 -3.4202,1.56599 -5.11737,2.38575c-0.61404,0.53834 -1.22205,1.08829 -1.8714,1.55872c0,0 -1.5406,1.03704 -3.4824,1.09638c-8.70642,4.40862 -17.28285,9.08762 -26.10124,12.60494c0,0 -4.98857,1.97457 -6.96317,-3.01397c-1.97457,-4.98857 3.01397,-6.96316 3.01397,-6.96316c8.56323,-3.35981 16.87404,-7.81284 25.28274,-12.09483c0.75005,-0.99281 1.57385,-1.54734 1.57385,-1.54734c2.66346,-1.70574 5.02901,-4.00641 7.99039,-5.11721c1.4216,-0.53325 3.03536,-0.13472 4.57816,-0.08717c1.4847,-0.63748 2.97805,-1.24911 4.48188,-1.82842c1.1049,-0.93391 2.14759,-1.99086 3.44181,-2.59204c7.31256,-3.39672 13.76724,-2.47676 21.22214,-3.27108c12.11315,-1.29067 20.32267,-7.0047 33.06778,-5.9212l1.87166,0.33935c9.18719,-1.34177 18.05321,-1.51848 27.64648,-1.23507c2.23416,1.13081 4.46834,2.26161 6.70253,3.39242l0.24847,-0.10338c0,0 5.20709,1.29275 3.91431,6.49982z" fill="#ffee37" stroke="none" stroke-width="0.5"/><path d="M270.92045,342.99522c-0.05019,-0.00665 -0.10038,-0.01332 -0.15059,-0.01999c0,0 -5.318,-0.70983 -4.60816,-6.02781c0.27702,-2.07542 1.25588,-3.23278 2.34661,-3.87251c-0.34649,-0.06778 -0.68806,-0.16098 -1.02326,-0.28658c-2.71815,-1.01838 -4.44039,-3.79265 -6.96128,-5.2316c-6.01133,-3.43125 -12.69157,-5.52843 -19.02825,-8.31339c0,0 -4.91173,-2.15867 -2.75303,-7.07039c2.15868,-4.91171 7.07039,-2.75303 7.07039,-2.75303c0.86917,0.382 19.80233,8.68756 20.26546,8.95603c1.887,1.09398 2.92911,3.45526 4.94712,4.28296c1.46921,0.60259 3.1668,-0.34567 4.75423,-0.30396c3.58753,0.09426 7.21824,0.5581 10.83312,1.10127c0.01764,-0.3524 0.06297,-0.72501 0.13993,-1.11887l0.00001,-0.00007c0.02151,-0.11005 0.04464,-0.21762 0.06939,-0.3228c-3.45447,-0.23516 -6.86507,-0.4698 -9.95846,-1.01992l-5.82515,-0.63964c0,0 -5.33279,-0.58834 -4.74447,-5.92113c0.58834,-5.33279 5.92113,-4.74447 5.92113,-4.74447l6.18121,0.68494c8.10776,1.45512 17.89284,0.93576 25.77075,3.29173c6.34048,1.89619 12.27436,5.44488 18.00328,9.15829l5.79571,1.43889c0.90598,0.22491 1.75359,0.68481 2.44366,1.35504c1.66779,0.48059 3.5581,1.7351 3.96926,4.90906c0.76797,5.92831 -5.16033,6.69627 -5.16033,6.69627c-3.24675,0.40881 -6.09175,0.94 -8.99517,1.07213c0.29642,2.07028 -0.63992,4.21224 -2.5442,5.35901c-0.28725,0.17299 -0.58421,0.31593 -0.88724,0.42969l-5.97487,2.36498l-0.03276,-0.08277c-0.15113,0.08602 -0.30397,0.1695 -0.45869,0.25029c-0.71992,0.37592 -1.47438,0.6986 -2.25793,0.97394c0.19562,0.81019 0.22407,1.67446 0.05381,2.54599c-0.63301,3.2402 -3.77284,5.3538 -7.01307,4.72081c-2.8646,-0.55962 -4.84863,-3.07862 -4.83273,-5.89406c-6.19545,-0.2118 -12.60291,-1.35533 -17.64851,-1.73622l-3.83412,-0.87412c0,0 -2.98268,-0.74051 -3.87273,-3.35803z" fill="#ffee37" stroke="none" stroke-width="0.5"/><path d="M486.57307,343.99446c-5.34865,0.4202 -5.76887,-4.92848 -5.76887,-4.92848l0.4773,-5.42947c2.97602,-5.27349 3.88911,-7.63199 6.47443,-10.57492c0.03973,-1.77721 0.96126,-3.49628 2.59678,-4.4812c0.9034,-0.54404 1.90292,-0.79078 2.88459,-0.76851c0.84986,-0.76968 1.76761,-1.49363 2.78265,-1.58745l3.41705,-3.99973c0.38055,-0.46715 0.84685,-0.87763 1.39272,-1.20634c2.53832,-1.52863 5.83529,-0.71009 7.36393,1.82825c1.18808,1.97281 0.95833,4.40389 -0.39471,6.10686l-3.41349,4.50663l-0.24766,-0.18759c-0.13681,0.31662 -0.28373,0.62943 -0.44209,0.93792c-0.64392,1.25445 -2.21524,1.60752 -3.56906,2.21441c-0.45476,0.27978 -0.90953,0.55956 -1.36426,0.83935c-4.5305,3.81395 -5.15316,6.24778 -8.11396,11.60688l0.85314,-0.64547c0,0 0.42021,5.34868 -4.92848,5.76887z" fill="#ffee37" stroke="none" stroke-width="0.5"/><path d="M315.89729,-21.02647c-0.54338,5.33756 -5.88093,4.79419 -5.88093,4.79419l-5.00487,-0.51994c-7.08829,0.16527 -15.61482,-1.85101 -22.46286,0.20934c-6.69389,2.014 -13.08747,4.91827 -19.66667,7.28022c0,0 -5.04964,1.81272 -6.86236,-3.2369c-1.81272,-5.04964 3.2369,-6.86236 3.2369,-6.86236c6.88605,-2.47182 13.55929,-5.58853 20.60248,-7.56866c8.14929,-2.2911 17.21929,-0.35563 25.57379,-0.54365l5.67026,0.56683c0,0 5.33756,0.54338 4.79419,5.88093z" fill="#ffee37" stroke="none" stroke-width="0.5"/><path d="M376.92343,-2.21178c13.81197,-6.03782 27.80303,-11.83009 41.33262,-18.42489c1.57985,-0.77007 2.9775,-1.68846 4.34689,-2.61635c-2.65582,0.84404 -5.18374,1.64461 -5.28384,1.66575c-3.57175,0.75402 -7.35463,0.179 -10.90182,1.04121c-4.47289,1.08721 -8.6518,3.99054 -13.14365,5.33703c-16.72448,4.98519 -33.86149,9.34716 -50.28045,15.01808c-6.42022,2.21747 -12.89506,4.06086 -19.34928,5.92874c5.3715,0.96054 10.37985,1.76217 16.47689,1.04915c8.90164,-1.04102 17.45221,-3.14357 26.16464,-4.28619l3.96355,-1.76493c1.82313,-1.47021 4.17744,-2.31857 6.67447,-2.94757zM295.92795,15.23255c0,0 -2.67232,1.18996 -3.86229,-1.48236c-1.18996,-2.67232 1.48236,-3.86229 1.48236,-3.86229c1.29177,-0.57521 2.58886,-1.12496 3.89066,-1.65271c-0.5023,-0.89963 -0.71465,-2.11223 -0.10503,-3.68829c1.62103,-4.19083 5.81187,-2.5698 5.81187,-2.5698c2.23807,0.88922 4.60403,1.37234 7.00161,1.72697c10.24873,-3.26079 20.65737,-5.87067 30.93501,-9.42471c16.49926,-5.7055 33.71485,-10.08591 50.52022,-15.0952c4.56848,-1.35326 8.75636,-4.26169 13.32183,-5.38709c5.65222,-1.39327 5.97225,-0.0045 11.21693,-1.11512c3.71527,-0.78675 7.23232,-2.32004 10.85096,-3.47232l3.9765,-1.26622c1.41125,-0.47008 2.97586,0.1996 3.59353,1.58671c0.3286,0.73795 0.32698,1.53922 0.05873,2.23815l-1.78061,4.63938l-0.15196,-0.05832c-0.13001,0.34927 -0.28072,0.69107 -0.45706,1.02366c-0.66836,1.26066 -2.63131,1.14026 -3.82447,1.92277c-3.81301,2.50068 -6.35518,4.38194 -9.90566,6.24255c3.11939,-1.4588 6.27862,-3.31489 8.99156,-4.52294l4.28535,-1.90823v0c1.47588,-0.6572 3.20509,0.00648 3.86229,1.48236c0.4196,0.94229 0.30076,1.98785 -0.22412,2.79174l-3.10262,4.90654l-0.09886,-0.06252c-0.12159,0.21853 -0.24986,0.43372 -0.38567,0.64514c-0.77623,1.20829 -2.61693,1.22892 -3.77118,2.08343c-1.515,1.12161 -2.59895,2.78375 -4.18311,3.80535c-1.77024,1.14159 -3.83574,1.74221 -5.75734,2.60504c-8.37167,3.75901 -16.76702,7.46622 -25.15033,11.19924c-3.38655,1.508 -6.71236,3.16056 -10.15964,4.524c-1.39279,0.55086 -2.79311,1.70765 -4.26299,1.42003c-1.79397,-0.35103 -2.99982,-2.08979 -4.49973,-3.13469l-0.3391,-0.59314c-10.95678,0.56169 -21.47128,3.71889 -32.49861,4.92814c-6.64133,0.72829 -12.10777,-0.01095 -17.92798,-0.97541c3.49851,1.74023 7.03524,3.37597 10.60159,4.93058c17.30193,1.64484 33.97569,5.38916 50.03136,12.27089c6.78189,2.90682 15.20227,5.32739 21.40937,9.2933c1.20958,0.77285 1.63992,2.42231 2.79212,3.27838c1.209,0.89828 2.90301,0.96859 4.11947,1.85679l6.69286,3.16935c1.41541,0.63021 2.3455,2.1046 2.209,3.73581c-0.17253,2.06187 -1.9839,3.59348 -4.04578,3.42093l-7.4667,-0.62483l0.01692,-0.20202l-0.61089,0.10378c-25.3625,-10.60902 -51.88451,-17.99442 -77.09159,-28.95689c-0.33089,-0.02945 -0.66224,-0.0581 -0.99404,-0.08594c-4.82631,-0.40501 -9.63712,-1.424 -14.47687,-1.23932c-4.14455,0.15817 -8.13711,1.9179 -12.28424,1.97962c-0.37036,0.00551 -14.74895,-1.20647 -15.38869,-1.26l-5.97336,-0.49988c0,0 -3.73336,-0.31242 -3.42093,-4.04578l-0.00003,0.00001c0.31242,-3.73336 4.04578,-3.42093 4.04578,-3.42093l5.97336,0.49988c4.82683,0.40392 9.63472,1.29352 14.47813,1.23935c4.14732,-0.04639 8.13968,-1.82145 12.28426,-1.97962c0.04725,-0.00181 0.45346,0.02756 1.10568,0.07843c-0.06109,-0.61141 0.05167,-1.31935 0.45423,-2.12378c0.60242,-1.20378 1.4209,-1.7586 2.22242,-1.97537c-1.67911,-0.28103 -3.40825,-0.56147 -5.22081,-0.81422c-3.37726,-0.47091 -6.81063,-0.86048 -10.13835,-1.61486c-2.9143,1.06066 -5.8085,2.2099 -8.67528,3.48645zM390.5871,3.21886c6.6019,-2.93977 13.20379,-5.87954 19.80568,-8.81931c0.89563,-0.39882 1.81192,-0.75928 2.73291,-1.11089c-0.96434,-0.07976 -1.95008,-0.39291 -2.89662,-0.21736c-5.13361,0.95209 -10.76074,3.99725 -15.66927,5.79294c-0.22804,0.08342 -4.90453,1.79629 -8.16029,2.98314c1.16405,0.25353 2.18546,0.96411 2.82833,1.96546c0.45434,-0.19537 0.90765,-0.39289 1.35924,-0.59398z" fill="#ffea00" stroke="none" stroke-width="0.5"/><path d="M285.75611,-11.16849c-0.76614,-4.42763 3.66148,-5.19376 3.66148,-5.19376l1.15072,0.09125c1.89182,-1.10871 3.80448,-2.18388 5.7029,-3.28222c-15.42278,2.40278 -30.84667,4.60653 -46.27645,7.27644c0,0 -4.42763,0.76614 -5.19376,-3.66148c-0.76614,-4.42763 3.66148,-5.19376 3.66148,-5.19376c21.60637,-3.73869 43.20146,-6.5634 64.79665,-10.30014l5.31316,-0.91937c2.4453,-0.42314 4.77064,1.21617 5.19376,3.66148c0.35262,2.03777 -0.72705,3.99223 -2.51188,4.83196l-7.95116,3.96713l-0.25869,-0.51846c-5.61622,4.29858 -11.40545,8.06683 -17.93202,11.89185l-4.16245,1.01061c0,0 -4.42763,0.76614 -5.19376,-3.66148z" fill="#ffea00" stroke="none" stroke-width="0.5"/><path d="M303.28951,384.41056c-7.42012,-0.48196 -14.77261,-1.06534 -22.24573,-1.17002c-12.00301,-0.16812 -23.76646,0.29187 -35.60152,-1.93045c0,0 -4.41473,-0.83728 -3.57744,-5.25201c0.83728,-4.41473 5.25201,-3.57744 5.25201,-3.57744c11.30538,2.16754 22.63112,1.61406 34.10651,1.77484c9.97656,0.13977 19.72592,1.12307 29.70728,1.59391l8.1878,0.38782c2.09635,0.05571 3.93217,1.58079 4.30344,3.72643c0.42314,2.4453 -1.21617,4.77064 -3.66148,5.19376l-11.51185,1.99196c0,0 -3.77979,0.65404 -4.959,-2.73884z" fill="#ffea00" stroke="none" stroke-width="0.5"/><path d="M460.30848,-46.46451c1.77647,0.18218 3.65182,-0.06559 5.32941,0.54655c2.09858,0.76576 3.63398,2.69626 5.72344,3.48655c1.48995,0.56353 3.34033,-0.2555 4.75505,0.47669c8.00815,4.14462 15.03144,13.26 21.16433,19.64989l3.22575,2.22095c1.10471,0.73086 1.78689,2.02628 1.66865,3.43936c-0.14054,1.67941 -1.36829,3.00702 -2.93309,3.34854l-4.52104,1.09806l-0.02605,-0.10729c-0.52302,0.11894 -1.05816,0.17196 -1.60946,0.13703c-1.79231,-0.11359 -3.21391,-1.29883 -4.59416,-2.6036c-3.58325,2.57153 -6.21558,-1.00118 -6.21558,-1.00118l-0.55913,-0.92426c-3.60384,-3.2108 -7.68703,-5.84052 -11.46597,-8.84324c-4.88431,-3.88106 -8.30561,-7.99425 -14.33121,-10.25012c0,0 -4.19083,-1.62103 -2.5698,-5.81187c0.75253,-1.94551 2.05889,-2.63852 3.24267,-2.82264c0.98652,-2.26786 3.71618,-2.03943 3.71618,-2.03943z" fill="#ffea00" stroke="none" stroke-width="0.5"/><path d="M428.4342,423.7937c-1.61958,-4.1914 2.57179,-5.81099 2.57179,-5.81099l0.16602,-0.06417c10.01835,-3.86954 18.53532,-7.79527 29.14367,-9.65625c0,0 4.42763,-0.76614 5.19376,3.66148c0.76614,4.42763 -3.66148,5.19376 -3.66148,5.19376c-9.97696,1.7001 -17.99381,5.53343 -27.43676,9.18378l-0.16602,0.06417c0,0 -4.1914,1.61958 -5.81099,-2.57179z" fill="#ffea00" stroke="none" stroke-width="0.5"/><path d="M379.3088,377.58948c0.76614,4.42763 -3.66148,5.19376 -3.66148,5.19376l-7.96973,1.37907c0,0 -4.42763,0.76614 -5.19376,-3.66148c-0.76614,-4.42763 3.66148,-5.19376 3.66148,-5.19376l7.96973,-1.37907c0,0 4.42763,-0.76614 5.19376,3.66148z" fill="#ffea00" stroke="none" stroke-width="0.5"/><path d="M231.12402,-53.44974c-3.19052,10.38785 -6.28067,20.80791 -9.42469,31.20982c-2.85974,9.46136 -4.86152,20.07276 -8.82935,29.11609c-1.02383,2.33346 -2.77162,4.29071 -3.8946,6.57809c-2.19344,4.46782 -3.37026,9.38063 -5.4646,13.89577c-3.99312,8.60871 -9.35221,16.82779 -13.96638,25.12189c-0.87121,1.56599 -1.75432,3.12818 -2.64107,4.68975c4.32281,6.66876 7.02019,14.03837 6.49467,21.40208l0.9915,4.08231c0.10883,0.40641 0.15054,0.83821 0.11344,1.2816c-0.17253,2.06187 -1.9839,3.59348 -4.04578,3.42093c-1.31642,-0.11016 -2.41671,-0.88836 -2.9953,-1.97327l-1.74112,-3.15318c-1.64386,-1.26697 -3.21561,-2.60705 -4.56359,-4.17663c-0.244,-0.28412 -1.53541,-2.24941 -3.04247,-4.56879c-0.43959,1.42947 -0.76735,2.93994 -1.92915,3.75773c-11.1125,7.82227 -10.12561,2.10109 -12.04864,-7.28702c-0.48723,-2.37857 -0.42218,-4.84254 -0.8221,-7.23733c-0.35552,-2.12883 -1.54685,-4.15695 -1.44072,-6.31268c0.00517,-0.10484 0.01115,-0.20957 0.0179,-0.31421l-0.0492,0.00287l-0.05048,-0.86309c-3.0364,-2.9597 -6.20858,-5.73285 -9.63334,-8.12829c0,0 -3.67256,-2.58908 -1.08348,-6.26162c2.58908,-3.67256 6.26162,-1.08348 6.26162,-1.08348c2.24269,1.59187 4.38156,3.32155 6.44708,5.14648c0.22584,-0.08824 0.46179,-0.15508 0.70515,-0.19819c-1.19221,-0.84533 -2.3748,-1.62161 -3.52985,-2.32104c0,0 -3.1995,-1.94904 -1.25045,-5.14854c1.94904,-3.1995 5.14854,-1.25045 5.14854,-1.25045c5.74345,3.51767 11.96587,8.62781 17.13599,14.65295c1.54865,-2.78307 3.09739,-5.56608 4.64577,-8.34933c3.32507,-5.9769 7.22131,-11.92442 10.09656,-18.13186c1.06921,-2.30832 4.47451,-11.87446 5.51152,-13.99329c1.07571,-2.19791 2.77537,-4.06395 3.76595,-6.30153c3.86614,-8.73309 5.74709,-19.10954 8.51364,-28.26262c2.89113,-9.56525 5.73689,-19.14581 8.65669,-28.70266c-0.98548,-0.49838 -2.04806,-1.5168 -1.87544,-3.57963c0.31242,-3.73336 4.04578,-3.42093 4.04578,-3.42093l0.03801,0.02788c1.12149,-3.22632 2.3479,-6.42497 3.03231,-9.76262c0.49387,-5.90155 0.98772,-11.8031 1.48158,-17.70465c0.16661,-1.99112 -0.61276,-4.31374 0.49988,-5.97336l0.3749,-4.48003v0c0.17253,-2.06187 1.9839,-3.59348 4.04578,-3.42093c2.06187,0.17253 3.59348,1.9839 3.42093,4.04578l-0.3749,4.48003c0.30062,1.71189 -0.17393,3.45882 -0.4122,5.19506c-0.40305,6.23612 -0.4333,12.85123 -1.60446,18.90366c-0.03593,0.42934 -0.07187,0.85872 -0.10779,1.28807c-0.13421,1.60383 -0.74452,11.41706 -1.76214,12.57736c-0.72744,0.82941 -1.752,1.22022 -2.86189,1.48503zM178.09537,57.63744c-2.58628,-3.34756 -5.6006,-6.43241 -8.71733,-9.11306l0.86076,1.76979c1.97397,2.31391 4.01669,4.63691 5.93675,7.03685c0.43591,0.4695 0.87134,0.93928 1.30667,1.40882c0.20436,-0.36748 0.40875,-0.73497 0.61314,-1.10243zM171.14458,70.79504c0.23407,-0.73541 0.4976,-1.46084 0.83516,-2.15251c0.2824,-0.57862 0.57996,-1.14935 0.88698,-1.71513c-0.46569,-0.50553 -0.93105,-1.01249 -1.39661,-1.52007c0.078,1.7917 -0.03529,3.60395 -0.32555,5.38771z" fill="#ffea00" stroke="none" stroke-width="0.5"/><path d="M206.18725,321.78704c-2.4965,0.13225 -2.62875,-2.36425 -2.62875,-2.36425l-0.15772,-3.32883c-1.24547,-4.01336 -2.8643,-8.20624 -4.29602,-12.42857c-0.25623,0.77192 -0.48646,1.55178 -0.6832,2.34156c-0.58517,2.34905 -0.15099,4.92794 -1.007,7.19235c-0.01871,0.04951 -0.03762,0.09896 -0.05669,0.14832l0.02475,0.00568l-1.6622,7.24962c-0.38656,1.81877 -2.07495,3.1089 -3.97637,2.94979c-1.87391,-0.15681 -3.30981,-1.66725 -3.42652,-3.48913l-0.39204,-4.79014c-0.12239,-1.49549 -0.27019,-3.00357 -0.42822,-4.51936c-0.1032,0.7293 -0.51827,1.61815 -1.85696,1.95282c-2.42536,0.60634 -3.0317,-1.81902 -3.0317,-1.81902l-0.28882,-1.15529c-2.26157,-9.18395 -1.28732,-19.06841 -1.28732,-28.5051c0,-14.80108 -0.03337,-29.60206 0.07846,-44.40275c0.03777,-4.9988 0.0268,-10.0014 0.11333,-14.99957c0.03299,-1.90517 -0.39279,-3.88728 0.14773,-5.71446c0.47193,-1.59531 2.13532,-2.61369 2.77075,-4.15122c0.29232,-0.70733 -0.09601,-1.52829 -0.10727,-2.29356c-0.02451,-1.66649 0,-3.33333 0,-5c0,-3.33333 0,-6.66667 0,-10c0,0 0,-2.5 2.5,-2.5c2.5,0 2.5,2.5 2.5,2.5c0,4.99833 0.06132,10.00209 0,15c-0.01531,1.24791 0.32008,2.56992 -0.10727,3.74248c-0.57174,1.56874 -2.26761,2.57897 -2.77625,4.16929c-0.43521,1.36072 0.06688,2.85664 0.07217,4.28525c0.01852,4.99852 -0.07557,10.00112 -0.11333,14.99957c-0.11174,14.7881 -0.07832,29.57649 -0.07832,44.36497c0,8.96334 -1.07594,18.58434 1.13803,27.29242l0.15601,0.62403c-0.59378,-5.52651 -1.25203,-11.13214 -1.24705,-16.58303c0.00865,-9.46398 1.59744,-19.24236 2.38743,-28.68248c1.58291,-18.91566 3.16584,-37.8313 4.74876,-56.74697c0,0 0.31242,-3.73336 4.04578,-3.42093c3.73336,0.31242 3.42093,4.04578 3.42093,4.04578c-1.58291,18.91566 -3.16584,37.8313 -4.74876,56.74697c-0.77259,9.23245 -2.35287,18.80932 -2.36133,28.06449c-0.00137,1.49845 0.0499,3.00924 0.13737,4.52711c0.03946,-0.10723 0.07832,-0.21348 0.11648,-0.3187c0.63583,-1.75371 1.43594,-3.44532 2.23749,-5.13557c-0.02269,-1.99788 -0.01613,-9.48195 -0.01613,-9.8876c0,0 0,-2.5 2.5,-2.5c0.51152,0 0.91839,0.10466 1.242,0.27116c1.95272,-2.63521 8.90683,-11.46775 9.56028,-12.18756c1.55812,-1.71641 9.61081,-8.81535 11.0452,-8.95665c8.87536,-0.87442 14.15434,7.72078 17.5337,13.80839c1.11482,2.00827 1.90254,4.22376 3.28817,6.05567c1.52879,2.02121 4.2671,3.10229 5.36597,5.3859c0.79271,1.64737 -0.403,3.67428 -0.13594,5.48286c0.47263,3.20086 1.6331,6.25178 2.64135,9.3369c1.07548,0.40082 2.53659,1.38843 2.33639,3.78077c-0.31242,3.73336 -4.04578,3.42093 -4.04578,3.42093l-4.78626,-2.83998c-0.51835,-1.83514 -3.53323,-12.46112 -3.60413,-12.98126c-0.15896,-1.1662 1.16225,-2.43578 0.61385,-3.47719c-0.85639,-1.62633 -3.14607,-2.03125 -4.27734,-3.47992c-1.66078,-2.12674 -2.65671,-4.69769 -3.9556,-7.06286c-1.38936,-2.52994 -5.17579,-10.47486 -9.86703,-10.01975c-1.44048,0.13975 -1.90247,2.18461 -2.92716,3.20663c-1.19761,1.19449 -2.59957,2.1816 -3.73352,3.43669c-3.04221,3.3672 -6.61285,6.47823 -8.58667,10.56446c-0.59855,1.23914 0.1498,2.8048 -0.25309,4.12067c-0.93418,3.0512 -2.3319,5.99358 -3.71608,8.95492c0.52957,1.50239 1.11393,2.99238 1.57833,4.51006c1.49273,4.87824 2.98471,9.75646 4.46034,14.6399l0.22704,3.93457c0,0 0.13225,2.4965 -2.36425,2.62875z" fill="#ffea00" stroke="none" stroke-width="0.5"/><path d="M485.23107,351.81844c-2.49787,-0.10321 -2.39466,-2.60108 -2.39466,-2.60108l0.11028,-2.36286c0.14917,-1.04416 0.30619,-2.08729 0.4636,-3.13036c-0.67878,-0.47568 -1.28324,-1.24093 -1.65141,-2.44951c-1.07957,-3.54391 1.6528,-5.05604 2.64528,-5.4777c-0.00015,-0.90435 -0.02692,-1.81252 0.29457,-2.64154c0.60383,-1.55703 2.19773,-2.6037 2.77687,-4.17008c0.45613,-1.23368 0.13262,-2.6274 0.22158,-3.93969c0.22044,-3.25156 0.19296,-6.93221 0.48716,-10.42947c-1.03581,0.65108 -2.04604,1.34174 -3.00131,2.11456c-5.2367,4.2365 -9.96951,9.31457 -15.24011,13.63863c-1.54902,2.31797 -3.27837,4.88989 -3.42422,5.03654c-3.28311,3.30092 -9.11399,4.95716 -13.24041,6.86166c-5.17184,2.387 -10.99745,5.94712 -16.65541,7.55099c6.56905,-0.04501 12.74791,-0.33389 19.1417,1.53518l0.25278,0.07523c0,0 2.39613,0.71313 1.683,3.10926c-0.71313,2.39613 -3.10926,1.683 -3.10926,1.683l-0.25278,-0.07523c-6.28177,-1.90811 -12.53874,-1.3224 -19.07913,-1.3224c-5.26725,0 -10.5345,0 -15.80176,0c-5.21226,9.47511 -10.46878,18.92068 -16.42591,27.88107c-1.74432,2.6237 -3.22566,5.28489 -4.6421,8.013c0.33506,-0.30534 0.65468,-0.62697 0.95321,-0.97097c2.82881,-3.25969 4.76393,-7.29899 7.57093,-10.58253c1.73019,-2.02392 4.03139,-3.47954 6.05304,-5.21238c5.06171,-4.33861 10.12342,-8.67722 15.18513,-13.01583c0,0 1.89814,-1.62698 3.52512,0.27116c1.62698,1.89814 -0.27116,3.52512 -0.27116,3.52512c-5.06171,4.33861 -10.12342,8.67722 -15.18513,13.01583c-1.86896,1.60196 -4.03013,2.91168 -5.61874,4.792c-2.74412,3.24804 -4.63511,7.24265 -7.44409,10.4385c-3.29741,3.75155 -7.10727,5.65054 -10.16653,9.6423l-1.76365,2.26806c-0.45672,0.59909 -1.1779,0.98572 -1.98938,0.98572c-1.38071,0 -2.5,-1.11929 -2.5,-2.5c0,-0.41989 0.10352,-0.81561 0.28642,-1.16302l2.21358,-4.42715c0.93748,-3.19879 2.98004,-5.96354 4.47214,-8.94427c3.74358,-7.4785 8.66181,-14.3448 12.87547,-21.58384c2.41226,-4.14426 4.82453,-8.28851 7.23679,-12.43277c-21.70831,0 -43.41663,0 -65.12494,0c0,0 -2.5,0 -2.5,-2.5c0,-0.37067 0.05496,-0.68637 0.14858,-0.95527c-0.23419,0.11483 -0.47495,0.21675 -0.72383,0.30281c-1.07414,0.37144 -13.95514,1.1643 -15.63295,1.39588c-6.40003,0.8833 -12.6459,3.41381 -19.05686,4.24198c5.67394,-0.09119 11.14563,-0.46596 16.85577,-1.15063l2.59364,-0.31099c0,0 2.48222,-0.29763 2.77985,2.18459c0.29763,2.48222 -2.18459,2.77985 -2.18459,2.77985l-2.59364,0.31099c-6.82838,0.81875 -13.34922,1.20829 -20.22651,1.20829c0,0 -2.5,0 -2.5,-2.5c0,-1.37127 0.75215,-1.99039 1.43133,-2.26991c-1.69602,0.00134 -3.39634,-0.12556 -5.0809,-0.29875c-1.54265,-0.15859 -3.04593,-1.56221 -4.52294,-1.08961c-0.85639,0.27404 1.51153,1.11494 1.87859,1.93576c0.78644,1.75866 1.63799,4.92193 2.35356,7.80642c2.81772,0.77518 5.85263,1.26605 8.51609,1.99345c2.39405,0.47806 4.74367,1.28509 7.17963,1.44683c4.7927,0.31822 6.45447,-0.86671 10.30389,1.96123l-1.03822,-0.9749c0,0 0,-2.5 2.5,-2.5c2.5,0 2.5,2.5 2.5,2.5l-1.03822,5.03111c-7.26347,-1.21145 -14.31208,-1.14708 -21.55552,-2.59795c-1.98309,-0.53959 -4.1498,-0.97331 -6.29841,-1.47131c-0.08731,1.13642 -0.63279,2.6823 -2.83709,3.21768c-3.64056,0.88421 -4.52477,-2.75636 -4.52477,-2.75636c-0.29554,-1.21871 -0.65307,-2.42217 -1.02763,-3.62124c-2.39998,-1.61085 -6.78635,-4.59415 -7.09665,-4.80471c-5.51651,-3.74334 -11.03301,-7.48669 -16.54952,-11.23003c-5.50087,-3.73273 -11.84111,-7.1497 -16.87123,-11.48964c-5.58238,-4.81643 -6.39083,-12.48138 -9.51961,-18.70906c0,0 -1.11803,-2.23607 1.11803,-3.3541c2.23607,-1.11803 3.3541,1.11803 3.3541,1.11803c2.73471,5.49357 3.54619,13.16074 8.49841,17.32697c4.88746,4.11175 10.93688,7.38015 16.2278,10.97042c5.51651,3.74334 11.03301,7.48669 16.54952,11.23003c0.73917,0.50158 1.45662,1.04119 2.17014,1.58756c-0.04725,-0.22468 -0.09201,-0.44995 -0.13399,-0.67588c-0.51194,-2.75516 -2.61747,-6.33811 -0.69614,-8.37807c2.42719,-2.57707 6.91442,-1.6135 10.43711,-1.96441c4.68994,-0.46718 9.47443,-0.30536 14.07823,-1.31473c4.3054,-0.94395 8.55737,-2.19394 12.92317,-2.79999c4.71379,-0.65436 9.76507,0.57516 14.23839,-1.04887c2.24807,-0.81615 3.70866,-3.11637 5.88976,-4.09756c3.00377,-1.3513 12.11178,-2.94339 15.44139,-3.59063c6.57059,-1.27728 11.32718,-2.66556 17.60874,-4.67235c1.18837,-0.37964 2.70741,0.10374 3.68102,-0.67625c1.6204,-1.29819 2.36729,-3.41178 3.55094,-5.11765c1.15898,-1.46907 2.24521,-2.99863 3.47698,-4.40722c0.27484,-0.31429 1.43414,-0.72703 1.01666,-0.73153c-1.65538,-0.0178 -3.27888,0.4597 -4.91833,0.68955l-4.48003,-0.3749c0,0 -3.73336,-0.31242 -3.42093,-4.04578l-0.00004,-0.00006c0.31242,-3.73336 4.04578,-3.42093 4.04578,-3.42093l4.48003,0.3749c3.33836,0.6464 7.59727,-0.45174 10.01509,1.93923c4.73626,4.68366 -2.22275,11.69247 -4.21464,14.4639c-1.80783,2.29451 -3.11009,5.09994 -5.42347,6.88354c-1.51659,1.16927 -3.71818,0.93747 -5.52896,1.56062c-8.54025,2.93895 -16.85242,4.33105 -25.69849,6.29441c-2.19169,0.48644 -4.48999,0.71304 -6.52946,1.65152c-1.29414,0.5955 -2.37944,1.58417 -3.50006,2.49689c0.05217,-0.00316 0.08141,-0.00316 0.08141,-0.00316c18.74089,0 37.48177,0 56.22266,0c0.55626,-1.5015 2.3359,-1.5015 2.3359,-1.5015h4.00901c0.29123,0.00092 0.58055,-0.00287 0.86812,-0.01102c0.16024,-0.74023 0.50526,-1.42296 0.99236,-1.98763l4.52478,-5.32088l0.00899,0.00764l0.02301,-0.04487c2.52495,-2.84 8.19465,-9.35166 10.29765,-10.69599c0.03303,-0.02111 0.06644,-0.0421 0.10023,-0.06298c2.83304,-4.98105 5.70552,-9.94021 9.01128,-14.61289c1.83604,-2.59176 3.63077,-5.21307 5.39248,-7.85592l0.2295,-0.34425c0,0 1.38675,-2.08013 3.46688,-0.69338c2.08013,1.38675 0.69338,3.46688 0.69338,3.46688l-0.2295,0.34425c-1.78813,2.6819 -3.6096,5.34206 -5.4726,7.9725c-2.1789,3.07217 -4.25783,6.21389 -6.265,9.40558c2.47296,-0.53194 5.00458,-0.91293 6.89203,-1.24251c0,0 4.42763,-0.76614 5.19376,3.66148c0.76614,4.42763 -3.66148,5.19376 -3.66148,5.19376c-2.00688,0.34376 -9.06233,1.37412 -10.66959,2.43872c-0.48477,0.32109 -2.93115,3.01121 -5.08408,5.41868c1.57705,-0.22216 3.22712,-0.48233 4.773,-1.24157c10.35213,-5.08437 21.54229,-10.62671 30.70926,-17.74699c5.78525,-4.49356 10.79466,-10.06468 16.44917,-14.60905c3.92857,-3.15726 10.05391,-4.87471 13.20122,-9.0711c0.24563,-1.05546 0.44152,-2.12534 0.74778,-3.16429c1.05425,-3.57631 2.73383,-7.25875 3.79009,-10.97644c-0.33435,-0.2669 -0.66294,-0.60691 -0.97822,-1.03482c-2.66535,-3.61757 0.9522,-6.28291 0.9522,-6.28291l0.88353,-0.65098c-0.19625,-1.57752 -0.66273,-3.15232 -1.49373,-4.71906c0,0 -1.11803,-2.23607 1.11803,-3.3541c2.23607,-1.11803 3.3541,1.11803 3.3541,1.11803c0.61842,1.29128 1.07386,2.60089 1.39074,3.92378c1.14931,-0.73904 2.31707,-1.45082 3.49593,-2.14454c0.79865,-0.66662 1.55687,-1.36515 2.10999,-2.23206c1.41589,-2.21921 2.06614,-4.86994 3.17094,-7.25741c-0.15155,-0.56943 -0.26895,-1.14402 -0.31825,-1.72859c-1.12943,-13.39109 0.8505,-28.1945 4.13266,-41.14864c0.77709,-3.06708 0.73664,-6.47379 2.34729,-9.19715c0.08634,-0.14599 0.17639,-0.289 0.26989,-0.42927l-0.06555,-0.03347l2.01987,-3.95522c0.61554,-1.23825 1.79244,-2.1767 3.25943,-2.43054c2.4453,-0.42314 4.77064,1.21617 5.19376,3.66148c0.02743,0.1586 0.0462,0.31671 0.05666,0.47381l0.35493,4.5467l-0.04976,0.00388l0.05814,0.12888c0.32057,17.86164 -3.62343,34.30525 -7.79964,51.56982c-0.04026,0.05769 -0.08,0.11568 -0.11923,0.17396c0.53412,2.18857 1.10779,4.36673 0.66219,6.52002c-0.82551,3.98903 -5.4163,6.78376 -9.89555,9.15757l0.00002,0.0001c-1.79958,2.01946 -3.5229,4.07466 -4.50917,6.55316c-2.51129,6.31081 -2.38164,11.36765 -6.23253,17.27094c-1.82652,2.8 -4.30893,4.66504 -6.95718,6.30576c-0.49044,2.36655 -0.51173,4.90761 -0.47327,7.47516c3.18846,-5.66379 9.13395,-16.70161 13.94864,-19.44865l-0.00005,0.00002c3.04461,-1.73711 7.52479,-3.71395 10.41782,-1.79504c0.51642,-0.37796 1.19119,-0.67481 2.07105,-0.82704c4.42763,-0.76614 5.19376,3.66148 5.19376,3.66148l0.12108,2.58471c-1.35827,5.93062 -4.12682,9.83691 -7.6868,13.32949c-4.19499,12.90904 -16.48562,23.35476 -28.83484,27.58034c-0.27778,1.94475 -0.51344,3.59376 -0.52037,3.64222l-0.06429,1.86217c0,0 -0.10321,2.49787 -2.60108,2.39466zM494.19915,331.24434c-0.74237,0.06601 -1.46502,-0.05473 -2.11705,-0.32632c-0.45337,1.01297 -1.31835,1.81731 -1.98951,2.72384c1.49079,-0.71519 2.84649,-1.51383 4.10656,-2.39752zM509.3401,311.10709c-0.88047,1.06622 -1.79224,2.08634 -2.67776,3.16312c0.88109,-0.74298 1.75313,-1.48758 2.59229,-2.25205c0.03183,-0.2991 0.05946,-0.60396 0.08546,-0.91105z" fill="#ffea00" stroke="none" stroke-width="0.5"/><path d="M455.50637,278.35109c3.47893,-1.39017 4.8691,2.08875 4.8691,2.08875l-0.49416,1.1847c0.42007,0.22639 0.87335,0.41552 1.33745,0.5926c-0.56786,-4.77945 -1.50383,-9.4041 -2.29612,-14.3809c-0.54081,-3.39722 1.19413,-7.75565 -1.17129,-10.25334c-1.28068,-1.3523 -3.66155,-0.68445 -5.49233,-1.02669c0,0 -3.59958,-1.03852 -2.56106,-4.6381c1.03852,-3.59958 4.6381,-2.56106 4.6381,-2.56106c2.96866,1.04246 6.777,0.81072 8.906,3.12741c2.16562,2.35653 1.81083,6.14542 2.48986,9.27307c1.79606,8.27266 3.36082,17.16391 3.25552,25.62057l2.2359,4.04924c0.36309,0.6355 0.54412,1.38372 0.47848,2.1682c-0.17253,2.06187 -1.9839,3.59348 -4.04578,3.42093c-1.03095,-0.08628 -1.92932,-0.58225 -2.54838,-1.31439l-4.23772,-5.01175c-1.47023,-0.84793 -2.9579,-1.66407 -4.47139,-2.43157l-2.98097,-5.03859c0,0 -1.39017,-3.47893 2.08875,-4.8691z" fill="#ffea00" stroke="none" stroke-width="0.5"/><path d="M398.27233,-50.90398c-3.17413,1.99008 -5.1642,-1.18405 -5.1642,-1.18405l-3.5747,-5.81449c-10.94986,-8.19568 -24.08078,-13.72257 -34.40128,-22.75721l-6.16149,-4.13069c-1.12862,-0.72576 -1.82902,-2.03554 -1.70932,-3.46589c0.14868,-1.77671 1.5142,-3.15967 3.20833,-3.39783l2.3446,-0.38195c-4.64557,-1.24626 -9.28339,-2.58296 -13.81346,-3.72972c0,0 -3.63119,-0.92193 -2.70927,-4.55312c0.92193,-3.63119 4.55312,-2.70927 4.55312,-2.70927c8.50765,2.1667 17.38572,5.00117 25.9811,6.59473c3.58888,0.66538 7.29138,1.05801 11.02622,1.33714c2.81232,-0.0114 5.5955,0.09592 8.30184,0.31998c2.4891,0.20607 5.07885,-0.10741 7.4667,0.62483l1.1551,0.09665c0.11337,0.00936 0.22669,0.01883 0.3399,0.02843l4.47837,0.37477c2.06187,0.17253 3.59348,1.9839 3.42093,4.04578c-0.17253,2.06187 -1.9839,3.59348 -4.04578,3.42093l-4.84724,-0.40563c-0.37933,-0.03129 -0.75958,-0.06131 -1.14066,-0.09018c-0.55594,0.14825 -2.55604,-0.05384 -4.78553,-0.3134c-3.42116,-0.19805 -6.88061,-0.3618 -10.32024,-0.60608c-5.84273,0.17057 -11.87276,0.62505 -17.5699,1.78244c3.49358,1.54663 6.12323,4.18976 9.8692,6.74815c8.21974,5.61382 17.00387,9.99379 24.89613,16.1194l4.3856,6.88206c0,0 1.99008,3.17413 -1.18405,5.1642z" fill="#ffea00" stroke="none" stroke-width="0.5"/><path d="M218.53352,407.75157c0.31242,-3.73336 4.04578,-3.42093 4.04578,-3.42093l4.48003,0.3749c7.68862,0.64341 15.58787,1.01682 23.48133,1.59823c-2.22347,-1.95816 -4.48159,-3.88808 -6.84224,-5.71822c-5.09918,-3.95324 -9.0711,-8.47511 -15.06064,-10.97884c0,0 -3.44298,-1.47698 -1.966,-4.91996c1.47698,-3.44298 4.91996,-1.966 4.91996,-1.966c10.12482,4.43231 19.78716,13.59583 27.81478,21.18979c1.38587,1.31099 2.63464,2.49084 3.83901,3.58707c6.1761,0.74486 12.27604,1.77956 18.19337,3.33916c1.47777,0.38949 2.70992,1.50978 4.20476,1.82744c8.67661,1.84383 17.90649,1.14508 26.68622,2.88109c3.0621,0.60548 9.44864,1.34289 12.46128,3.54686l4.27566,1.83418c1.48627,0.59682 2.4763,2.11004 2.33577,3.78945c-0.17253,2.06187 -1.9839,3.59348 -4.04578,3.42093l-5.97336,-0.49988c-3.13051,-0.26248 -9.86114,-0.94986 -13.27584,-0.8184c-9.42544,0.3629 -18.44485,2.40094 -27.88828,0.33272c-3.37006,-0.73809 -7.63926,-3.66623 -10.44557,-5.37887c-3.30061,-2.01431 -6.34402,-4.31375 -9.2762,-6.74428c-11.28337,-1.40898 -22.75384,-1.90938 -34.06309,-2.85577l-4.48003,-0.3749c0,0 -3.73336,-0.31242 -3.42093,-4.04578zM277.05342,417.48342c1.77805,1.06935 3.76556,2.15421 4.97873,2.39755c3.02638,0.60701 6.00829,0.76626 8.97575,0.70167c-3.45011,-0.29287 -6.92626,-0.5957 -7.17704,-0.64823c-1.59639,-0.3344 -2.92923,-1.48933 -4.50534,-1.90904c-0.75299,-0.20052 -1.51071,-0.3796 -2.27211,-0.54192z" fill="#ffea00" stroke="none" stroke-width="0.5"/><path d="M109.16944,356.10896c-2.69301,1.14238 -3.83539,-1.55063 -3.83539,-1.55063l-0.60524,-1.42676c-0.811,-1.94411 -1.93835,-3.78474 -2.43301,-5.83231c-0.99013,-4.09855 -0.42953,-8.43541 -0.16997,-12.55289c0.36808,-5.83899 0.74348,-11.67752 1.11521,-17.51627c0.36735,-5.76979 0.96471,-11.58801 1.10954,-17.3672c0.07286,-2.90729 -0.63464,-7.16155 -0.3412,-9.77967c0.61046,-5.44644 3.50276,-10.95591 4.76506,-16.28866c3.56261,-15.05059 5.52261,-30.68321 8.26627,-45.90792c0.68204,-3.78465 0.85799,-7.6704 1.83351,-11.39023c0.0031,-0.01182 0.0062,-0.02364 0.00931,-0.03545c-0.08781,-0.15616 -0.1712,-0.31358 -0.24765,-0.47296c0,0 -1.18996,-2.67232 1.48236,-3.86229c0.01975,-0.0088 0.03942,-0.01738 0.05902,-0.02576c0.1827,-0.57126 0.36793,-1.14181 0.55294,-1.71241l-0.37071,-3.80261c-0.15042,-1.24152 0.51286,-2.488 1.71498,-3.0233c1.47588,-0.6572 3.20509,0.00648 3.86229,1.48236c0.0884,0.19853 0.15291,0.40165 0.19475,0.60612l0.66965,2.97316c1.7649,7.96103 1.1928,15.65599 1.04902,23.78063c-0.12129,6.85331 -0.55492,13.88074 0.1322,20.72278c0.30119,2.99916 1.61206,5.83178 1.97821,8.8237c0.62834,5.13435 -0.19081,10.92406 -0.29101,16.08783c-0.18921,9.74913 -0.37841,19.49826 -0.56762,29.24739c-0.01746,0.8994 -0.03479,1.79597 -0.05371,2.69048c0.12698,1.36992 0.22289,2.4168 0.24741,2.68085c-0.00886,0.05325 -0.0179,0.10647 -0.02709,0.1597c0.35363,0.21362 0.71052,0.43978 1.07138,0.6796c2.16715,1.44021 3.75388,3.61186 5.76277,5.2657c0.0865,0.07122 0.17285,0.14251 0.25904,0.2139c0.32312,-0.35373 0.76052,-0.68027 1.34577,-0.95293c3.39593,-1.58215 4.97808,1.81377 4.97808,1.81377l1.62952,3.54162c0.33077,0.44617 2.29043,3.08191 4.29811,5.79776c-0.60716,-1.88726 -1.60045,-3.65048 -2.34909,-5.49229c0,0 -1.39017,-3.47893 2.08875,-4.8691c3.47893,-1.39017 4.8691,2.08875 4.8691,2.08875c0.9825,2.49565 2.3081,4.88222 2.94751,7.48698c0.55229,2.24983 0.09178,4.6624 0.59029,6.92475c0.83312,3.7808 2.2857,7.63067 3.92354,11.38215c3.53693,5.47643 6.73944,11.24657 9.71784,17.29101l3.88375,6.19451c0.42987,0.66943 0.65079,1.4805 0.57933,2.33456c-0.17253,2.06187 -1.9839,3.59348 -4.04578,3.42093c-1.03095,-0.08628 -1.92932,-0.58225 -2.54838,-1.31439l-4.83792,-5.72157l0.03204,-0.02709c-0.06257,-0.05574 -0.12481,-0.11195 -0.18667,-0.16861c-0.02422,-0.02218 -0.2545,-0.37285 -0.62469,-0.94703c-2.90457,0.03849 -3.52821,-3.02344 -3.52821,-3.02344l0.00003,-0.00002l-0.72985,-3.66162c-1.87284,-2.95373 -3.57026,-5.64 -3.57572,-5.6512c-0.79004,-1.62638 -0.62095,-3.64163 -1.53179,-5.20358c-1.25126,-2.14574 -3.54823,-3.54992 -4.81772,-5.68493c-0.7802,-1.31216 -0.88842,-2.92638 -1.35929,-4.38161c-3.61059,-4.6396 -7.58079,-9.01313 -12.00871,-13.03396c-2.12645,-1.93094 -4.25107,-3.88802 -6.51973,-5.64947c-0.08506,1.18786 -0.18585,2.37789 -0.3064,3.5719c-0.04498,0.4455 -0.09576,0.89057 -0.14825,1.3355c0.211,0.49033 0.39409,0.98656 0.44498,1.50792c0.08683,0.8894 0.07154,1.78182 0.01886,2.67536c0.682,1.04842 1.42006,2.06055 2.22964,3.02587c3.31283,8.66492 5.80537,18.19706 9.89066,26.50868c1.7568,3.57423 4.97394,6.25017 7.02856,9.66192c0.08245,0.13691 6.60883,13.40252 6.76431,13.7281c0.27489,0.5757 0.73824,1.39313 1.25797,2.36294c0.65076,0.12181 1.29558,0.14745 1.92955,-0.03672c1.1723,-0.34054 1.27646,-2.08127 1.9147,-3.1219l-0.55037,-0.96825c0,0 0.31242,-3.73336 4.04578,-3.42093c3.73336,0.31242 3.42093,4.04578 3.42093,4.04578l-1.05024,5.0051c-1.60283,1.77942 -2.55218,4.53543 -4.80847,5.33826c-0.68672,0.24435 -1.39329,0.36485 -2.11264,0.40403c0.3659,2.46932 -0.17118,4.79817 -2.71619,6.23892c-5.78145,3.27292 -12.38139,-2.10618 -17.35208,-3.59141c-1.70374,-0.50906 -3.72279,0.15792 -5.29094,-0.68039c-1.82856,-0.97753 -3.27372,-2.69304 -4.56289,-4.63508c-0.93473,-0.19364 -3.30301,-0.98271 -3.05161,-3.98686c0.02575,-0.30775 0.07476,-0.588 0.14299,-0.8432c-0.91938,-1.53402 -1.85429,-2.95824 -2.9109,-4.03387c-3.20411,-3.26176 -7.42637,-5.34175 -11.00666,-8.18553c0,0 -2.93306,-2.33084 -0.60221,-5.26388c2.33084,-2.93306 5.26388,-0.60221 5.26388,-0.60221c3.79841,3.02006 8.23953,5.28253 11.63713,8.74736c0.14904,0.152 2.92114,4.07356 5.00163,7.03621c4.48853,0.33958 8.99588,0.63232 13.48118,1.03846c-1.68945,-3.60646 -3.21128,-7.30154 -5.26359,-10.7094c-2.11904,-3.51868 -5.38296,-6.31307 -7.21478,-9.98947c-3.25465,-6.53203 -5.55332,-13.87897 -7.92334,-20.95728c-1.44031,0.54709 -3.07411,-0.12075 -3.70863,-1.54571c-0.16546,-0.37157 -0.2472,-0.7592 -0.25333,-1.14173l-0.22654,-5.77975c-0.0018,-0.00678 -0.00359,-0.01357 -0.00537,-0.02036c-3.4637,-5.31941 -5.50968,-11.61335 -8.06491,-17.42253l-2.52651,-4.57552c-0.36309,-0.6355 -0.54412,-1.38372 -0.47848,-2.1682c0.17253,-2.06187 1.9839,-3.59348 4.04578,-3.42093c0.47878,0.04006 0.92897,0.1685 1.33586,0.3679l6.7248,3.10255c0.07806,0.02316 0.15606,0.04663 0.23402,0.07044c-0.17961,-2.68204 -0.27184,-5.37667 -0.81852,-8.00254c-0.29675,-1.42537 -1.23131,-2.67434 -1.48296,-4.10836c-0.98808,-5.63062 -0.58893,-11.51412 -2.22908,-17.10761c-0.5382,-1.83544 -1.89207,-3.40916 -2.21088,-5.29511c-0.54414,-3.21905 -0.27293,-7.053 0.09101,-10.79392c-0.63806,3.46181 -1.33598,6.90439 -2.14161,10.30789c-1.2052,5.09148 -4.08322,10.47008 -4.65273,15.66518c-0.03428,0.31272 0.41332,7.99335 0.38573,9.12909c-0.14282,5.87818 -0.74726,11.79679 -1.12089,17.66534c-0.69801,10.96344 -3.41586,22.95427 1.03502,33.24498l0.60524,1.42676c0,0 1.14238,2.69301 -1.55063,3.83539zM123.21586,258.49411c-0.15224,1.72014 -0.30107,3.41758 -0.37417,5.05136c-0.16463,3.67939 -1.2131,7.40859 -0.56745,11.03463c0.21928,1.23156 0.97114,2.29398 1.54441,3.41903c0.03832,-1.97464 0.07664,-3.94927 0.11497,-5.9239c0.06169,-3.17832 0.60248,-6.38041 0.20626,-9.53454c-0.17238,-1.37221 -0.54492,-2.71014 -0.924,-4.04657zM151.50274,393.21905c0.36291,0.09842 -0.5755,-0.50462 -0.76395,-0.83002c-0.01377,-0.02379 -0.02754,-0.04758 -0.04128,-0.07139c-0.68416,-0.04128 -1.36838,-0.08575 -2.05262,-0.13294c0.93053,0.4083 1.87775,0.76859 2.85783,1.03436z" fill="#ffea00" stroke="none" stroke-width="0.5"/><path d="M143.25821,227.96522c-1.76777,1.76777 -3.53553,0 -3.53553,0l-1.23773,-1.27227c-1.30666,-1.02254 -2.93612,-1.7316 -3.91997,-3.06763c-0.27814,-0.37771 -3.7446,-9.11026 -4.04929,-9.87502c-1.19954,-3.01085 -1.6629,-6.26928 -2.68392,-9.34526c-0.54671,-1.64706 -1.89967,-2.98509 -2.28826,-4.67646c-0.416,-1.81068 -0.05489,-3.71535 -0.06659,-5.57317c-0.03782,-6.00546 0,-12.0124 0,-18.01802c0,-9.16403 -0.6535,-18.64413 0.4643,-27.76468c0.64255,-5.24284 1.77922,-10.49158 2.81869,-15.7085c-1.3942,-1.19224 -1.22634,-3.20979 -1.22634,-3.20979l0.25579,-3.07438c1.12431,-13.4797 0.74447,-26.84874 1.87508,-40.35928c0.33324,-3.98225 -0.20528,-8.13659 0.99973,-11.94673l0.49988,-5.97336c0.17253,-2.06187 1.9839,-3.59348 4.04578,-3.42093c1.72844,0.14465 3.08423,1.44092 3.3759,3.07101l0.77615,3.83c0.33131,1.63998 0.73646,3.27126 1.17508,4.89874c-0.02682,-2.6502 -0.04502,-5.29729 -0.04502,-7.9397c0,0 0,-2.5 2.5,-2.5c2.5,0 2.5,2.5 2.5,2.5c0,17.17872 0.75265,34.54888 -0.31676,51.69276c-0.38383,6.15322 0.19802,13.43774 -1.2458,19.42696c-0.28544,1.18406 -0.66152,2.34663 -1.0781,3.50102c-0.53686,7.33631 -1.15033,14.66803 -1.76503,22.01358c0,0 -0.31242,3.73336 -4.04578,3.42093c-0.45556,-0.03812 -0.85088,-0.12718 -1.19388,-0.25418c-1.3055,5.79128 -2.33341,11.61905 -2.36672,17.33447c-0.00008,0.01331 0.00024,9.98052 0.00007,9.98158c-0.09549,0.5965 -1.61075,1.29268 -1.03822,1.48541c0.61812,0.20808 1.05231,-0.81323 1.40472,-1.36203c1.07285,-1.67072 1.45016,-3.72115 2.49924,-5.40689c0.05207,-0.08367 5.78742,-8.12195 5.91981,-8.30091c0.42756,-0.57796 1.19531,-0.98066 1.34872,-1.68302c0.28563,-1.30774 -0.2531,-2.68408 -0.10433,-4.01435c0.61743,-5.52099 3.01867,-10.64859 2.98808,-16.24372c0,-9.17417 0,-18.34835 0,-27.52252v-4.00901c0,0 0,-2.5 2.5,-2.5c2.5,0 2.5,2.5 2.5,2.5c0,9.17417 0,22.35736 0,31.53153c-0.02653,5.8222 -2.33594,11.06457 -3.01793,16.78931c-0.19699,1.65356 0.32419,3.38549 -0.10433,4.99466c-0.31577,1.18577 -1.34208,2.0551 -2.04153,3.06333c-1.86286,2.68525 -3.97415,5.20155 -5.70495,7.97375c-2.0455,3.27623 -3.25771,9.60514 -8.42132,9.03773c0.14766,0.27937 0.2778,0.5658 0.37741,0.86435c0.99146,2.97158 1.40515,6.13195 2.57279,9.03882c1.15894,2.88522 1.55092,6.17906 3.37853,8.69451c0.71176,0.97964 1.97089,1.4074 2.95633,2.1111l1.76527,1.73073c0,0 1.76777,1.76777 0,3.53553zM136.45107,104.18406c0.42601,-0.97239 0.7967,-1.98957 1.13259,-3.03331c-0.01875,-2.55382 -0.15805,-5.08835 -0.49662,-7.57768c-0.08843,-0.65024 -0.19278,-1.29899 -0.31044,-1.9465c-0.25959,4.34344 -0.40115,8.67474 -0.52507,13.00316c0.06769,-0.14815 0.13426,-0.29668 0.19953,-0.44566zM130.90396,148.98204c-0.84178,6.84279 -0.64271,13.90661 -0.50484,20.87114c1.32399,-6.11847 2.98638,-12.2348 4.28719,-18.23584c0.84627,-10.56951 1.5972,-21.13273 2.02236,-31.74602c0.05555,-1.38663 0.13339,-2.7869 0.22,-4.19635c-0.44009,1.86483 -0.86777,3.75268 -1.28115,5.65651c-0.10649,1.88799 -0.23411,3.77768 -0.39115,5.66983l-0.25579,3.07438c0,0 -0.16249,1.95299 -1.66493,2.91642c-0.96263,5.36602 -1.78657,10.74567 -2.4317,15.98993z" fill="#ffea00" stroke="none" stroke-width="0.5"/><path d="M99.47626,146.85409c0.24729,-8.91251 1.25743,-17.72025 1.89938,-26.6062c0.232,-3.21128 -0.7492,-6.45886 -0.34344,-9.65284c0.23702,-1.86566 1.29892,-3.52992 1.94837,-5.29489c0,0 1.04819,-2.73105 3.77923,-1.68286c2.73105,1.04819 1.68286,3.77923 1.68286,3.77923c-0.53762,1.32795 -1.4479,2.56074 -1.61284,3.98387c-0.35554,3.06742 0.59762,6.1754 0.38349,9.25592c-0.40738,5.86086 -0.9348,11.71206 -1.41271,17.56755c0.24503,-0.86716 0.48929,-1.76495 0.7062,-2.7128c1.88214,-8.22457 5.41599,-17.91185 9.30189,-25.41947c0.78353,-1.51378 2.24653,-2.63133 2.92283,-4.19596c0.18692,-0.43244 0.35225,-0.87188 0.50012,-1.31697c0.31222,-1.20921 0.61839,-2.44165 0.88159,-3.73885c0.35066,-1.72824 0.23191,-3.63398 0.92183,-5.23475c0.04121,-0.19827 0.08416,-0.39598 0.12918,-0.59305l1.29526,-5.67048c0.19096,-0.87974 0.78404,-1.65983 1.66946,-2.0541c1.47588,-0.6572 3.20509,0.00648 3.86229,1.48236c0.26293,0.59048 0.31444,1.2215 0.1871,1.80819l-1.16292,5.6991c-0.02046,3.33612 -1.21072,6.37071 -2.30053,9.41348c-0.33204,1.41775 -0.58091,2.44991 -0.62563,2.55538c-0.14204,0.33496 -0.31592,0.6522 -0.51006,0.95825c-0.06955,0.26019 -0.13493,0.52129 -0.19543,0.78346c-1.10597,4.79341 -1.1678,10.41157 -1.92435,15.33714c-0.84047,5.47192 -2.46299,11.4438 -2.63007,16.97334c-0.05904,1.95382 0.79681,3.9075 0.51371,5.8416c-0.06712,0.45856 -4.06262,10.80356 -4.36051,11.5797l-2.03939,5.31364c-0.26825,0.69893 -0.80314,1.29553 -1.54109,1.62413c-1.47588,0.6572 -3.20509,-0.00648 -3.86229,-1.48236l-3.57346,-8.025c0,0 -0.62787,-1.41001 0.05276,-2.63769c-0.84143,-0.21154 -1.58069,-0.79361 -1.96099,-1.64765l-2.37993,-5.34465l0.18976,-0.0845zM109.31097,154.74996l0.72108,1.61934c1.31476,-2.9761 3.0775,-5.83178 3.51338,-9.0349c0.23589,-1.73343 -0.61909,-3.46923 -0.56443,-5.21777c0.12752,-4.08027 0.74893,-8.18047 1.50512,-12.28016c-1.93811,5.59395 -2.48661,12.00977 -5.10678,17.21657l-1.87534,5.53142c-0.05081,0.15142 -0.11392,0.29862 -0.1887,0.43996c1.3678,0.31552 1.99567,1.72555 1.99567,1.72555z" fill="#ffea00" stroke="none" stroke-width="0.5"/><path d="M575.68778,-31.31578l-3.30126,4.373c-6.48733,-5.33481 -11.12122,-11.33383 -16.30084,-17.95553c-2.13398,-2.72811 -3.58907,-6.04217 -6.14677,-8.37769c-1.41942,-1.29612 -3.47355,-1.75295 -4.89755,-3.04403c-6.20832,-5.62883 -9.10263,-13.83043 -15.60753,-19.20268c-3.96627,-5.51211 -8.00127,-11.13082 -9.99745,-17.74315c-0.60274,-1.99657 -2.55197,-4.66983 -1.09331,-6.16043c1.0413,-1.06411 2.6053,-1.05697 4.23135,-0.85755c0.0817,-0.77528 0.4902,-1.64634 1.72993,-2.19838c2.67232,-1.18996 3.86229,1.48236 3.86229,1.48236c0.2265,0.50865 0.453,1.0173 0.67949,1.52595c3.36395,0.47484 8.4325,1.19374 8.53577,1.20457c3.55939,0.3735 7.19247,0.42198 10.65391,1.33145c5.28007,1.3873 10.60327,4.02902 15.68933,6.00638c4.56849,1.77614 7.14275,1.98871 10.07065,6.16668c1.23151,1.7573 1.79052,3.90038 2.67289,5.85643c1.61227,3.57408 4.3602,8.05826 4.67371,12.13393l1.27363,5.65473c0.33184,1.34891 -0.33835,2.78303 -1.65192,3.36795c-0.90211,0.4017 -1.89886,0.30992 -2.6876,-0.1592l-3.09944,-1.79358c-3.17741,-1.83869 -5.97001,-4.54752 -9.49082,-5.58701c-3.69296,-1.09031 -7.79409,0.35539 -11.53899,-0.54039c-0.27044,-0.06469 -11.23047,-4.93443 -11.54292,-5.12872c-1.45579,-0.90523 -2.35847,-2.61026 -3.87101,-3.39557c3.46263,4.58906 6.0888,9.81738 10.4222,13.68782c1.47543,1.31779 3.57577,1.81199 5.02318,3.16049c2.73948,2.55228 4.40735,6.05588 6.71484,9.00451c4.18612,5.34925 7.94613,10.26482 12.75925,14.72635c1.89249,-0.14444 2.74939,1.77992 2.74939,1.77992l-0.28727,0.38054c0.06237,0.05173 0.12493,0.10339 0.18768,0.15499zM531.65364,-93.169c0.82213,1.84626 1.64425,3.69252 2.46638,5.53878c0.79331,1.78155 1.67995,3.5244 2.37993,5.34465c0.31228,0.81206 -0.09785,2.07997 0.64768,2.5285c0.95061,0.57191 2.31682,-0.60059 3.32526,-0.13827c1.93492,0.88707 3.19747,2.84337 5.00993,3.95953c3.05723,1.88272 6.33355,3.57854 9.82548,4.4138c3.84187,0.91897 8.04599,-0.49923 11.83458,0.61932c0.30966,0.09143 5.27898,2.9562 8.36998,4.7459c-1.77713,-3.23981 -2.91966,-7.0243 -4.3888,-10.37166c-1.31534,-2.99693 -1.56471,-5.44742 -4.532,-7.09286c-10.8471,-6.01497 -22.95533,-7.86141 -34.9384,-9.54767z" fill="#ffea00" stroke="none" stroke-width="0.5"/><path d="M45.23463,268.54971c0.40983,-0.18249 0.7848,-0.27415 1.12595,-0.29854c0.04157,-0.74679 0.04108,-1.49288 -0.0336,-2.23795c-0.96652,-9.64335 -2.99258,-19.9003 -2.84623,-29.5849c0.04471,-2.95903 1.6682,-5.71363 1.96376,-8.65821c0.54381,-5.41789 -0.38551,-11.45846 -0.40644,-16.92082c-0.04445,-11.5962 0.06469,-23.01857 0.85332,-34.48808l-0.10203,0.01983l-1.10499,-5.68537c-0.28676,-1.32528 0.38266,-2.71476 1.67038,-3.28817c1.47588,-0.6572 3.20509,0.00648 3.86229,1.48236l1.31107,2.94429c0.48951,-2.00504 0.99074,-3.98024 1.35648,-5.85683c1.69844,-8.71463 3.12773,-17.53424 4.62691,-26.31994c0.98382,-5.76549 1.90262,-11.54786 2.95337,-17.30147c0.43708,-2.39331 0.85941,-5.12145 -0.23367,-7.29496c0,0 -1.18996,-2.67232 1.48236,-3.86229c2.67232,-1.18996 3.86229,1.48236 3.86229,1.48236c0.55318,1.34515 1.57019,2.58375 1.65955,4.03545c0.12209,1.98329 -0.48743,3.93574 -0.87245,5.89534c0.10955,-0.0624 0.22719,-0.12194 0.35346,-0.17817c2.67232,-1.18996 3.86229,1.48236 3.86229,1.48236c0.07021,0.15767 4.43364,9.87639 4.49932,10.32719c0.07597,0.52141 -0.8342,11.48048 -0.90759,12.3911c-0.6604,8.19471 -1.26118,16.33095 -2.25769,24.49308c-0.19337,1.58387 -1.04353,11.97635 -3.05873,12.53058c-9.89362,2.72094 -6.30712,-8.98814 -6.02003,-11.47071l-0.54838,-0.73886c0,0 -0.85113,-2.79874 1.9476,-3.64986c0.85666,-0.26052 1.53084,-0.17909 2.05401,0.05937c0.16037,-0.69742 0.29101,-1.31402 0.35059,-1.80115c0.80854,-6.61081 1.16578,-13.25142 1.70097,-19.89241c0.29397,-3.64775 1.47062,-7.31011 0.97229,-10.93559c-0.40562,-2.95101 -2.34695,-5.45279 -3.6964,-8.13265c-0.75851,4.51847 -1.56494,9.03042 -2.33599,13.54576c-1.50822,8.83238 -2.95476,17.68547 -4.65077,26.45072c-0.90375,4.67071 -2.84015,10.12646 -2.92245,14.89024c-0.03076,1.78044 0.47282,3.53524 0.54134,5.31463c0.2804,7.28079 -1.03524,14.63889 -1.97079,21.82699c-0.38727,2.96887 -0.74163,5.9435 -1.0061,8.92584c-0.01334,0.26551 -0.02664,0.53103 -0.03987,0.79656l1.18429,2.65958c0.6572,1.47588 -0.00648,3.20509 -1.48236,3.86229c-0.56522,0.25169 -1.16759,0.30965 -1.73268,0.20245c0.04684,1.53416 0.07772,2.67166 0.06894,2.75963c-0.28787,2.88273 -1.93896,5.57288 -1.94869,8.46995c-0.02518,7.48668 1.53564,15.36279 2.26281,22.82187c0.33382,3.42424 1.18023,6.84081 0.97571,10.27519c-0.10875,1.82608 -1.02818,3.56806 -0.99459,5.39706c0.01472,0.80137 0.47337,1.5127 0.8554,2.23958l0.01575,-0.00701l0.15197,0.34128c0.03586,0.07596 0.07004,0.15226 0.10198,0.22902l2.12598,4.77435v0c0.6572,1.47588 -0.00648,3.20509 -1.48236,3.86229c-1.47588,0.6572 -3.20509,-0.00648 -3.86229,-1.48236l-2.37993,-5.34465c-1.10595,-1.10541 -1.27215,-2.85689 -1.90823,-4.28535l-1.42938,-3.20999c0,0 -1.18996,-2.67232 1.48236,-3.86229z" fill="#ffea00" stroke="none" stroke-width="0.5"/><path d="M124.29149,435.78942c-0.5063,-2.88115 2.37485,-3.38745 2.37485,-3.38745l1.3724,-0.24117c1.80468,-0.30972 3.64378,-0.46123 5.41405,-0.92915c1.37949,-0.36463 2.56141,-1.59298 3.9878,-1.55597c1.74675,0.04532 3.20372,1.50381 4.92791,1.78729c2.72789,0.44848 5.33489,-1.49614 8.06369,-1.93907c7.9053,-1.28318 15.47659,-0.84958 23.40712,-0.3027c17.50769,1.20731 34.74305,2.67248 52.29186,2.34444c9.74976,-0.18225 19.87605,-1.16911 29.60306,-0.53176c4.04529,0.26506 8.205,1.86859 12.19203,2.68219c0.20913,0.04268 11.64501,2.37329 11.69926,2.39779c0.07352,0.0332 0.14666,0.0671 0.21943,0.10166l0.0094,-0.0245l4.63938,1.78061c0.69893,0.26825 1.29553,0.80314 1.62413,1.54109c0.6572,1.47588 -0.00648,3.20509 -1.48236,3.86229l-3.20999,1.42938c-11.63336,5.18024 -23.3165,10.24694 -34.98803,15.34052c-10.07077,4.395 -20.47955,8.63988 -31.44515,10.26457c-8.99366,1.33251 -18.67189,0.81922 -27.7594,1.21228c-3.83311,0.16579 -7.68316,0.09743 -11.4996,0.49113c-2.1587,0.22269 -4.26521,1.13144 -6.43188,1.00851c-2.81045,-0.15945 -7.14339,-4.03083 -8.83046,-5.29525c-3.12107,-2.3392 -6.2347,-4.68836 -9.35204,-7.03253c0,0 -2.33801,-1.75813 -0.57987,-4.09614c1.75813,-2.33801 4.09614,-0.57987 4.09614,-0.57987c3.11735,2.34418 6.23865,4.6831 9.35204,7.03253c1.94737,1.46953 3.58061,4.23014 6.0193,4.16334c1.73041,-0.04739 3.37305,-0.81828 5.09269,-1.0167c0.11467,-0.01322 11.64421,-0.50989 11.88086,-0.52012c8.90502,-0.38516 18.43159,0.15317 27.23997,-1.16656c10.42139,-1.56139 20.30627,-5.65047 29.87726,-9.82736c10.40642,-4.54148 20.82212,-9.0615 31.20341,-13.65993c-0.95198,-0.12901 -1.89871,-0.31884 -2.81198,-0.5044c-5.4768,-1.11275 -11.82123,-3.43914 -17.35575,-3.76488c-15.45683,-0.90975 -31.12274,1.45194 -46.60231,0.88832c-11.67045,-0.42493 -23.43168,-1.87968 -35.09391,-2.68389c-7.48781,-0.51635 -14.61182,-0.97001 -22.07622,0.24243c-3.16693,0.5144 -6.23191,2.39486 -9.41568,1.99786c-1.55416,-0.1938 -2.78842,-1.66542 -4.35086,-1.77394c-0.9175,-0.06373 -1.54673,1.05415 -2.43219,1.30279c-1.99228,0.55945 -4.07368,0.7307 -6.11051,1.09605l-1.3724,0.24117c0,0 -2.88115,0.5063 -3.38745,-2.37485z" fill="#ffea00" stroke="none" stroke-width="0.5"/><path d="M81.43038,25.49925c2.5,0 2.5,2.5 2.5,2.5l-0.5,3.0015c-1.43401,1.91201 -3.09219,3.67192 -4.32031,5.72226c-0.531,0.8865 -0.57563,2.01661 -1.13754,2.88385c-1.81754,2.80516 -4.62492,4.8841 -6.41616,7.70613c-1.61518,2.54466 -2.69265,5.46416 -4.65566,7.75123c-0.04057,0.04727 -7.06543,7.07995 -7.19407,7.20329c-0.97393,0.93378 -2.37037,1.52778 -2.9936,2.72448c-0.49461,0.94972 0.49617,2.31978 -0.09753,3.21091c-0.95632,1.4354 -2.93347,1.87723 -4.12392,3.12534c-3.4251,3.59104 -4.89714,9.08334 -8.44575,12.59926c-0.72086,0.71422 -2.15948,0.45391 -2.76887,1.26531c-0.81433,1.08427 -0.58203,2.66592 -1.11885,3.91114c-0.61413,1.42456 -1.29223,2.51213 -2.05958,3.46164l-2.5489,4.24817c-0.43183,0.74893 -1.24069,1.25305 -2.16731,1.25305c-1.38071,0 -2.5,-1.11929 -2.5,-2.5c0,-0.15748 0.01456,-0.31157 0.04241,-0.46098l0.4273,-2.54271l0.11359,0.01909l-0.05524,-0.28003c1.72733,-4.35257 3.2352,-10.95094 5.9678,-14.73828c0.96371,-1.33568 2.79968,-1.8354 3.83345,-3.11763c0.95511,-1.18466 1.27959,-2.76297 1.99184,-4.10772c1.80949,-3.41636 3.97511,-6.69736 6.00566,-10.00162c-3.06509,2.8541 -6.25123,5.61456 -9.52778,8.4078c-6.51658,5.55535 -12.60248,11.21844 -20.0175,15.44607c-3.62489,2.06671 -6.43168,5.87734 -10.00134,7.81924c-1.55691,0.84696 -3.4098,1.30934 -5.3203,1.58396l-4.7521,1.35774c-0.23453,0.07283 -0.48384,0.11205 -0.74232,0.11205c-1.38071,0 -2.5,-1.11929 -2.5,-2.5c0,-0.41989 0.10352,-0.81561 0.28642,-1.16302l1.47901,-2.95802l0.05134,0.02567l0.04297,-0.19715c2.47811,-3.48748 5.24831,-6.88378 7.50831,-10.51184c1.51471,-2.43162 2.55388,-5.15544 4.21256,-7.49122c1.83096,-2.57839 4.78658,-4.37212 6.14533,-7.22769c0.51433,-1.08092 -0.05246,-2.46331 0.40921,-3.56775c1.72472,-4.12606 5.35218,-8.0832 7.67867,-11.95581c4.59281,-7.64505 11.33105,-13.06157 11.22522,-22.52074c0,0 0,-2.5 2.5,-2.5c2.5,0 2.5,2.5 2.5,2.5c-0.01504,1.65909 0.28349,3.35098 -0.04511,4.97727c-1.60549,7.94585 -7.89095,13.43783 -11.89265,20.11595c-2.14711,3.58314 -5.73447,7.30797 -7.27939,11.12528c-0.48133,1.18931 0.0596,2.66503 -0.5088,3.81527c-0.52868,1.06988 -5.768,6.88783 -6.65835,8.13674c-1.58987,2.23012 -2.55594,4.85017 -4.00477,7.17439c-1.71691,2.75426 -3.71682,5.38397 -5.67278,8.01113c0.99999,-0.19423 2.05629,-0.24358 2.93856,-0.72913c1.33435,-0.73435 2.20257,-2.10959 3.3885,-3.06527c3.59563,-2.89755 7.03893,-4.33967 10.80733,-6.8252c3.95053,-2.60566 7.56915,-6.47673 11.17322,-9.54919c9.36336,-7.98221 18.36504,-15.52828 25.89695,-25.31585l0.14947,-0.0822l-0.03744,-0.03744l3.003,-3.003c0.45241,-0.45241 1.07741,-0.73223 1.76777,-0.73223c1.38071,0 2.5,1.11929 2.5,2.5c0,0.34826 -0.07121,0.67989 -0.19986,0.98112l-1.8359,4.58974c-0.8396,4.01857 -1.94423,3.31297 -4.53689,6.52462c-0.68005,0.84242 -1.80089,2.61086 -2.85458,4.33702c2.28702,-2.09678 4.81971,-4.07321 6.63406,-6.15213c1.79838,-2.06062 2.6863,-4.76832 4.16117,-7.0716c1.79256,-2.79941 4.5892,-4.86258 6.38753,-7.6583c0.53619,-0.83357 0.56173,-1.92414 1.07379,-2.77275c0.13621,-0.22574 3.78283,-5.08192 4.6887,-6.28975l-0.5,-0.0015c0,0 0,-2.5 2.5,-2.5zM52.27435,64.88993c-0.36971,0.59485 -0.74035,1.18982 -1.10953,1.78578c0.41131,-0.19294 0.77906,-0.4314 1.02636,-0.80203c0.18934,-0.28377 0.16629,-0.62509 0.08316,-0.98374z" fill="#ffea00" stroke="none" stroke-width="0.5"/><path d="M558.40485,113.58484c0,0.29509 -0.03483,0.55535 -0.09627,0.78489c0.67657,0.35234 1.35465,0.70363 2.0345,1.05195c-0.20687,-0.26212 -0.41284,-0.52533 -0.61798,-0.78949c-0.58574,-0.35136 -1.01641,-0.83031 -1.32996,-1.31073c0.00639,0.08455 0.00971,0.1723 0.00971,0.26337zM538.09165,112.67924c-0.25186,-0.10095 -8.47466,-5.11846 -8.91175,-5.38451c-3.92255,-2.38764 -7.84511,-4.77528 -11.76766,-7.16292c-0.11011,1.26662 -0.22028,2.53323 -0.33053,3.79983c0.71035,1.84634 1.39553,3.7027 2.0452,5.57325c1.50451,8.61083 4.77715,18.91859 4.7407,27.64751c-0.00634,1.51791 -0.00231,3.15089 -0.2634,4.68585c1.80707,2.99403 3.6193,5.98781 5.34752,9.02346c0.52601,0.92394 0.6583,2.1608 1.49404,2.81799c0.40066,0.31507 0.85308,0.53297 1.3352,0.68233c0.32132,-1.50426 0.65058,-2.99877 1.00674,-4.47148c0.36876,-1.52482 0.91909,-3.01586 1.11495,-4.57236c0.23578,-1.87378 -0.49066,-3.89491 0.17299,-5.66301c0.55634,-1.4822 2.37193,-2.14556 3.25192,-3.46164c2.35606,-3.52359 3.80911,-8.47953 5.50266,-12.46934c-0.1157,-3.28739 -0.30033,-6.56254 -0.58284,-9.77988c-1.46835,-0.35491 -2.88334,-0.75508 -4.15573,-1.26507zM479.86201,58.86381c0,0 -4.81919,-8.76216 -4.81919,-8.76216c-0.24161,-0.43933 -3.93743,-6.96589 -4.15368,-8.0145c-0.85279,-4.13531 -0.06688,-9.86484 -0.06688,-14.0879c0,0 0,-2.5 2.5,-2.5c2.5,0 2.5,2.5 2.5,2.5c0,3.85798 -0.79594,9.13199 -0.06688,12.93913c0.48185,2.51618 2.43378,4.50895 3.66851,6.75367c0,0 2.55091,4.63801 3.94092,7.1653c-0.79531,-4.05781 -1.53645,-8.14248 -2.25135,-12.27394l-1.53229,-8.85527c-0.42314,-2.4453 1.21617,-4.77064 3.66148,-5.19376c2.14564,-0.37127 4.19891,0.84536 4.9558,2.80109l3.38312,8.23014c0.44127,0.68444 0.84569,1.40268 1.21734,2.14958c2.02962,-6.78207 6.03968,-13.28173 9.1166,-19.43559c2.91184,-5.82368 5.38141,-12.69732 9.4566,-17.82459c1.01669,-1.27917 2.43609,-2.19612 3.47557,-3.45684c1.54618,-1.87526 2.09222,-4.39467 3.32643,-6.48847c0.04656,-0.07898 5.52067,-8.28791 5.62056,-8.43774c0,0 1.38675,-2.08013 3.46688,-0.69338c2.08013,1.38675 0.69338,3.46688 0.69338,3.46688c-1.82342,2.73513 -3.80418,5.37142 -5.47345,8.20326c-1.31725,2.23467 -1.97561,4.87617 -3.59758,6.90055c-1.06256,1.32618 -2.52944,2.29085 -3.5955,3.61423c-2.87916,3.57411 -4.63138,8.41343 -6.66468,12.48003c-2.92905,5.85809 -6.35707,11.68595 -8.87216,17.73087c-1.16956,2.81098 -2.44576,5.64322 -2.94121,8.64722c-0.2336,1.41634 0.14905,2.8763 0.0244,4.30635c-0.09885,1.1341 -0.24252,2.33907 -0.42787,3.56249c0.41394,2.53499 0.72999,5.09553 1.03824,7.56876c4.25052,1.2893 8.31317,2.80549 12.77523,3.61382c2.65562,0.48108 5.30056,1.02544 7.9602,1.48234c0.32916,-0.87207 0.62383,-1.75423 0.8565,-2.65491c0.74069,-2.86722 0.88047,-5.85386 1.2487,-8.79543c-0.36765,-0.83422 -0.73477,-1.66519 -1.1027,-2.49146c0,0 -1.18996,-2.67232 1.48236,-3.86229c2.67232,-1.18996 3.86229,1.48236 3.86229,1.48236c3.36133,7.54861 6.6258,15.57281 10.95033,22.75511c1.46082,1.08767 2.80855,2.28452 3.20136,3.16641c0.25105,0.56363 0.17663,1.19787 0.1064,1.83457c0.68285,0.93772 1.37783,1.85845 2.08244,2.76693c0.63677,-4.27668 1.20173,-8.54854 0.85038,-12.6847c-0.25539,-3.00659 -0.66383,-6.07453 -1.17004,-9.16643c-2.40976,-4.8508 -4.99505,-9.52659 -7.71996,-13.94463c0,0 -2.35573,-3.82642 1.47069,-6.18215c0.70746,-0.43556 1.36465,-0.65976 1.96594,-0.73592c-0.24943,-1.12772 -0.49509,-2.24696 -0.73405,-3.35576l0.07533,-0.29542l-0.10356,0.00606l-0.43363,-7.41568c-0.01455,-0.19525 -0.01394,-0.39416 0.0029,-0.59545c0.17253,-2.06187 1.9839,-3.59348 4.04578,-3.42093c1.85956,0.15562 3.28778,1.64419 3.42361,3.44734l0.47288,5.03403c2.48733,3.3076 6.29958,5.4699 8.93456,8.67443c2.65217,3.22543 7.64478,9.38935 9.78747,13.29106c3.6001,6.5556 3.95973,13.8619 6.19952,20.82771c1.95261,6.07266 5.15209,10.82339 8.50004,16.17543l2.60752,3.0838l-1.15247,0.97447l1.30321,3.673c-1.24107,-0.1898 -2.48217,-0.3796 -3.72326,-0.56939l-0.76524,1.78387l-8.71012,-3.73649c0,0 -3.44298,-1.47698 -1.966,-4.91996l0.00004,-0.00003c0.60397,-1.40791 1.5367,-1.99312 2.42832,-2.19305c-2.24103,-3.7612 -4.21635,-7.55982 -5.65944,-11.99159c-2.05102,-6.29866 -2.20568,-13.35153 -5.48474,-19.24884c-2.09015,-3.75909 -6.50705,-9.1702 -9.11984,-12.35194c-0.20248,-0.24657 -0.53878,-0.60645 -0.9688,-1.04669c0.55289,2.51187 1.095,5.04698 1.59664,7.58436c9.12547,17.52594 16.05398,37.43076 19.34227,56.26893l0.30645,1.77106c0,0 0.29568,1.70879 -0.5419,3.18693c1.87181,2.28513 3.83045,4.44881 5.92925,6.37324c0.75031,0.68797 1.53655,1.33243 2.34419,1.95099c5.22118,1.68175 10.65514,2.96431 16.08039,4.23328c-0.85714,-6.90262 -1.6412,-13.81365 -2.23158,-20.80919c-0.49355,-5.84812 -1.09,-11.70055 -1.48089,-17.55633c-0.20156,-3.0194 -0.5802,-5.52665 -0.04166,-8.00444c-0.26842,-0.69874 -0.53836,-1.39579 -0.8098,-2.09088l-1.4086,-3.16332c-0.6572,-1.47588 0.00648,-3.20509 1.48236,-3.86229c1.47588,-0.6572 3.20509,0.00648 3.86229,1.48236l2.14408,4.81499l-0.07536,0.03356c0.00711,0.01842 0.01423,0.03683 0.02135,0.05524c0.08086,0.14336 0.15791,0.28929 0.23084,0.43802c0.01517,0.03093 0.0303,0.12752 0.04537,0.27861c2.66746,6.93791 5.2116,14.03785 7.56807,21.04334c3.30396,9.82218 4.58204,20.83365 6.75556,30.95978c0.00715,0.0333 0.04562,0.21236 0.10811,0.5033c5.24576,1.45911 10.48866,2.93463 15.741,4.37303c-1.01708,-3.62958 -1.8695,-7.34475 -2.55792,-11.23651c0,0 -0.5063,-2.88115 2.37485,-3.38745c2.88115,-0.5063 3.38745,2.37485 3.38745,2.37485c0.84136,4.822 1.95436,9.3445 3.3344,13.77059c-0.40861,-4.40818 -0.90564,-8.81336 -1.33483,-13.21581c-0.68363,-7.01248 -2.52976,-14.89016 -2.11105,-21.92114c0.10875,-1.82608 1.02818,-3.56806 0.99459,-5.39706c-0.01883,-1.02512 -0.74558,-1.91055 -1.14614,-2.85437c-1.24683,-2.93787 -2.31095,-5.95432 -3.28045,-8.99501c-2.91714,-9.14915 -6.64712,-17.61436 -10.55564,-26.3918c-1.27215,-2.85689 -2.54431,-5.7138 -3.81646,-8.57069l-2.14408,-4.81499c0,0 -1.18996,-2.67232 1.48236,-3.86229l-0.00001,-0.00002c2.67232,-1.18996 3.86229,1.48236 3.86229,1.48236c1.27215,2.85689 4.68838,10.52879 5.96054,13.38569c2.5438,5.71266 5.48266,11.3993 7.68034,17.25889c1.8602,4.95975 3.01168,10.18382 4.82724,15.15968c0.74728,2.04803 2.84496,5.60609 2.95654,7.67261c0.11167,2.06835 -0.84996,4.06962 -0.97432,6.13725c-0.29335,4.87739 1.04605,10.46321 1.51955,15.32024c0.69957,7.17592 1.5723,14.29109 2.05659,21.40935c0.34783,0.08875 0.69574,0.17715 1.04374,0.26519l3.06642,0.40705c0,0 1.42686,0.19131 1.96986,1.36634c0.2016,-1.10877 0.4032,-2.21753 0.60481,-3.3263c0.64947,-3.57185 1.78002,-7.21864 2.11279,-10.82357c0.40096,-4.34373 -0.01217,-8.90905 -0.01217,-13.26717v-1.5015c0,0 0,-2.5 2.5,-2.5c2.5,0 2.5,2.5 2.5,2.5v1.5015c0,4.51996 0.40868,9.25342 -0.01217,13.75986c-0.34977,3.7453 -1.49515,7.51832 -2.1691,11.22531c-1.49062,8.19893 -2.98142,16.39783 -4.47214,24.59675c-0.33391,1.77284 -0.46559,3.59603 -1.00174,5.31853c-1.70529,5.47866 -5.95507,10.36304 -8.00409,15.83937c-7.40473,19.79031 -16.2583,38.75371 -25.11141,57.93546c0,0 -1.04765,2.2699 -3.31754,1.22225c-2.2699,-1.04765 -1.22225,-3.31754 -1.22225,-3.31754c8.80277,-19.07268 17.57919,-37.93057 24.96956,-57.59579c2.65032,-7.05228 7.47579,-12.87525 8.76812,-20.29671c1.10946,-6.10202 2.21886,-12.20404 3.32833,-18.30606c-0.8434,0.79277 -2.0953,0.62493 -2.0953,0.62493l-3.16923,-0.42877c0.08652,2.35304 0.11575,4.70812 0.06744,7.06753l0.41586,-0.07308l1.00202,5.70202c0.25985,1.3103 -0.40883,2.67259 -1.68059,3.2389c-1.47588,0.6572 -3.20509,-0.00648 -3.86229,-1.48236l-1.67238,-3.75569c-2.04178,-4.58525 -3.81666,-9.04584 -5.32605,-13.56738c-5.43925,-1.46974 -10.86544,-2.99196 -16.29252,-4.50586c0.60226,2.80937 1.19003,5.55773 1.20087,5.63396c0.2209,1.55387 -0.15045,3.18357 0.24657,4.70201c0.44503,1.70202 1.94952,3.09232 2.29914,4.78346c0.84615,-1.22209 1.68286,-2.44501 2.50072,-3.6718c0,0 1.38675,-2.08013 3.46688,-0.69338c2.08013,1.38675 0.69338,3.46688 0.69338,3.46688c-4.55166,6.82749 -9.70843,13.53189 -13.7768,20.65447c-1.12196,1.96423 -2.14581,3.98597 -3.11748,6.0383c0.17479,2.7085 0.35753,5.41304 0.56265,8.11009c0.68167,8.96299 -0.24206,19.34517 2.85845,27.66135l1.97756,5.48014c0.53319,1.43533 -0.13505,3.05681 -1.55332,3.68835c-0.53999,0.24045 -1.1139,0.30409 -1.6568,0.21581c0.39482,0.65109 0.59539,1.42809 0.52873,2.24468l-0.35143,4.32416l-0.1494,-0.01214c0.02348,0.20242 0.04088,0.40594 0.05148,0.61072c0.01451,0.27988 -0.19731,0.90658 -0.54706,1.73296l-0.15224,1.00796c-1.50406,9.95801 -1.95895,20.65747 -5.15313,30.244l0.00001,-0.00002c-3.54502,10.63946 -10.16337,21.08627 -15.06635,31.18088c-1.49085,3.06946 -3.0384,6.17821 -4.9804,8.98665c-2.16879,9.65142 -4.46524,19.2908 -6.90788,28.95686l-0.41189,2.72937c0.65002,4.86009 1.42846,9.71251 2.05957,14.64674c0.30811,2.40891 0.55028,4.82713 0.92147,7.22712c0.30923,1.99934 1.48867,3.97625 1.11895,5.96528c-0.37322,2.00789 -2.01465,3.5616 -3.19904,5.22536c-1.83782,2.58161 -3.11277,5.90037 -5.85353,7.49108c-3.15325,1.83011 -13.33327,-3.14815 -14.59895,-4.25459c-0.44985,-0.39325 -8.15906,-13.52522 -8.52889,-14.36803c-1.57106,-3.5804 -1.09567,-7.83068 -2.60873,-11.43595c-2.73775,-6.52347 -5.18535,-5.34147 -8.81273,-11.76896c-0.91752,-1.6258 -0.94598,-3.61185 -1.41897,-5.41777c0,0 -0.88421,-3.64056 2.75636,-4.52477c3.64056,-0.88421 4.52477,2.75636 4.52477,2.75636c1.44442,6.69702 7.12396,9.6557 9.84898,16.03038c1.5607,3.65095 1.05449,7.98338 2.67858,11.60657c0.94488,2.10789 2.38258,3.95878 3.52349,5.96737c1.04312,1.83639 1.47432,4.13474 3.02757,5.56575c5.95752,5.48871 6.59237,2.28137 9.28914,-1.89448c0.55647,-0.86165 1.84246,-1.32282 2.00317,-2.33587c0.17922,-1.12982 -0.90081,-2.12154 -1.11793,-3.24469c-0.48716,-2.52001 -0.65799,-5.09098 -0.98556,-7.63665c-0.27608,-2.14534 -0.57948,-4.27648 -0.88803,-6.40018c-2.96391,-0.6021 -3.44611,-2.98462 -3.48649,-4.25399c-0.01444,0.00017 -0.02896,0.00025 -0.04356,0.00025c-2.5,0 -2.5,-2.5 -2.5,-2.5v-1.5015c0,-3.41588 -0.05126,-6.84877 -0.11083,-10.28907c-1.63196,-0.5158 -2.74952,-2.10703 -2.60079,-3.8844l0.49988,-5.97336c0.5663,-6.76723 -0.14301,-15.58082 2.61024,-22.27675c0.89405,-9.91119 2.6045,-19.61702 2.6045,-29.64849c0,0 0,-2.5 2.5,-2.5c2.5,0 2.5,2.5 2.5,2.5c0,7.53125 -0.94705,14.87701 -1.80243,22.26143c0.99819,-0.80075 2.0415,-1.55124 3.077,-2.29083c1.65334,-1.18086 4.06591,-1.33689 5.35886,-2.90412c0.75448,-0.91455 -0.36293,-2.4191 -0.02888,-3.55666c0.47285,-1.61014 1.48948,-3.0021 2.25459,-4.50078c1.63382,-8.18675 3.18931,-16.41012 4.67475,-24.69482c0,0 0.79311,-4.42287 5.21596,-3.6298c1.2381,0.22202 2.06746,0.72846 2.61992,1.3427c2.50241,-4.59413 4.93116,-9.25783 7.25351,-13.90436c0.51854,-1.03747 0.51013,-2.49214 1.24473,-3.32247l0.64494,-4.26992c0.27736,-1.95049 2.03275,-3.36892 4.02114,-3.20252c0.24168,0.02023 0.47608,0.06297 0.7013,0.12598c-0.00296,-0.00646 -0.00591,-0.01293 -0.00883,-0.01943l-4.06072,-9.00015c0,0 -0.80546,-1.78521 0.36246,-3.09325c-1.13306,-6.46923 -1.04482,-13.35411 -1.38225,-19.96441c-1.47817,3.28085 -3.0361,6.51502 -4.85555,9.59604c-1.94697,3.29695 -6.21915,6.81325 -7.4612,10.42469c-0.95961,2.79021 -0.57336,5.90904 -1.4079,8.73918c-0.05707,0.19352 -3.73692,9.17575 -3.87734,9.51901c-1.89316,4.62773 -3.78633,9.25547 -5.67949,13.8832c-1.69328,4.13913 -3.58987,7.65302 -3.86797,12.12973l0.00641,1.32255c0,0 0,2.5 -2.5,2.5c-2.5,0 -2.5,-2.5 -2.5,-2.5l0.00641,-1.68046c0.74369,-9.34987 6.36163,-18.88197 9.9069,-27.54819c1.22698,-2.99927 2.77469,-5.8849 3.69531,-8.99193c1.22289,-4.12717 -0.05035,-4.71405 1.5951,-9.27884c1.43256,-3.97418 5.63707,-7.43526 7.77843,-11.0614c3.31556,-5.61451 5.75946,-11.74301 8.43928,-17.73318c-0.7006,-10.86171 -1.26259,-21.7909 -2.64182,-32.55094c-0.08537,-0.666 -0.17106,-1.33144 -0.25698,-1.9964c-0.3338,-0.39369 -0.68152,-0.7724 -1.0628,-1.11391c-4.21214,-3.77279 -9.32778,-6.93793 -13.86327,-10.31893c-0.21908,-0.16331 -5.01759,-3.73726 -7.75068,-5.78227c-4.09804,-1.5171 -8.09023,-3.45769 -12.0276,-5.4784c1.07083,3.90773 2.28404,7.81878 2.93219,11.78893c0.20068,1.22922 2.66727,16.27366 2.60842,16.45886c-0.9422,2.96592 -4.21651,4.58364 -6.46301,6.73717c-0.83005,0.79571 -1.8199,1.82819 -2.92803,2.80064c-0.21982,2.15315 -2.48288,2.15315 -2.48288,2.15315l-0.54624,0c-1.7708,0.915 -3.70152,1.23447 -5.68174,0.16884c-2.95902,0.1738 -6.32113,0.39372 -9.47319,0.19825c-0.7858,3.64188 -1.63365,7.27394 -2.78119,10.73422c-0.39784,1.19965 -1.27745,2.21639 -1.59576,3.43955c-0.62786,2.4126 0.0556,4.98571 0.0556,7.47867v4.00901c0,0 0,2.5 -2.5,2.5c-2.5,0 -2.5,-2.5 -2.5,-2.5v-4.00901c0,-2.84251 -0.60785,-5.76334 0.0556,-8.52734c0.34025,-1.41749 1.29573,-2.62238 1.75281,-4.00662c1.05606,-3.19818 1.84235,-6.54416 2.56751,-9.90556c-1.29299,-0.37791 -2.46265,-0.90634 -3.44386,-1.6343c-1.32021,-0.97946 -1.79241,-2.75655 -2.65515,-4.15583c-1.32163,-2.14353 -2.61006,-4.30969 -3.89011,-6.48091c-3.52486,3.06941 -9.39204,4.1987 -13.75701,2.3091c0.34588,0.74069 0.67065,1.49416 0.96912,2.26338l3.69234,6.30019c0.29319,0.47452 0.50235,1.01193 0.60329,1.59521c0.42314,2.4453 -1.21617,4.77064 -3.66148,5.19376c-1.86198,0.3222 -3.6544,-0.55143 -4.59041,-2.06613l-3.67275,-5.65217l0.05762,-0.03744c-0.0814,-0.08933 -0.1618,-0.17977 -0.24113,-0.27133c-2.14895,-2.47991 -3.33256,-5.72549 -4.27188,-9.06708c-2.91528,-4.91334 -6.19435,-9.56687 -8.26742,-14.97366c-1.13872,-2.96997 -1.59386,-6.1484 -2.23254,-9.27482c-0.9168,-1.55238 -1.82537,-3.0853 -2.69234,-4.59159c-6.22373,-10.81329 -14.63768,-18.24499 -22.86176,-26.75528c-2.69537,0.21246 -4.12449,-2.44709 -4.12449,-2.44709l-3.98599,-7.41765c-0.24919,-0.4388 -0.42815,-0.92736 -0.51915,-1.45321c-0.42314,-2.4453 1.21617,-4.77064 3.66148,-5.19376c1.76753,-0.30584 3.47236,0.46586 4.44146,1.84065l3.42418,4.64746c4.57192,5.13341 9.61619,9.36734 14.34179,14.14404c0.25854,-1.18231 1.03867,-2.46377 3.06497,-3.08105c4.29841,-1.30941 5.60781,2.98902 5.60781,2.98902c2.11371,6.94028 5.02805,13.65042 7.18183,20.52162c0.26578,0.8479 0.48835,1.70839 0.68673,2.57589c3.44482,6.3852 6.34205,13.056 8.4529,19.45585c-1.21871,-5.24892 -2.10044,-10.57409 -3.17966,-15.85455c-2.01673,-9.86754 -3.80702,-19.78449 -5.52023,-29.71612c-0.04234,-0.08663 -0.08442,-0.17429 -0.1262,-0.26292c-0.61001,-0.52736 -1.21998,-1.05471 -1.82999,-1.58207c0,0 -2.77743,-2.45926 -1.0505,-5.43233c-2.81846,-1.41732 -5.55203,-2.92874 -8.06102,-4.63437c-7.02125,-4.77308 -12.78496,-11.66782 -18.09794,-18.16146c-0.66915,-0.81785 -6.50185,-7.88115 -6.75197,-8.4822c-0.20118,-0.48344 -0.14551,-9.25601 -0.14551,-9.35398c0,-6.17117 0,-12.34234 0,-18.51351c0,0 0,-2.5 2.5,-2.5c2.5,0 2.5,2.5 2.5,2.5c0,6.17117 0,12.34234 0,18.51351c0,1.66667 0.0316,3.33363 0,5c-0.01692,0.89217 -0.51064,1.85884 -0.14551,2.67305c1.24947,2.78623 3.97915,4.63362 5.91278,6.99694c5.00864,6.12167 10.41769,12.69271 17.03888,17.19246c1.27035,0.86332 2.60159,1.67501 3.97394,2.44898c-0.55368,-1.97696 -1.08074,-3.95068 -1.58446,-5.92353c-2.88304,-4.55518 -5.12185,-9.95258 -7.64237,-14.53536zM600.84637,133.39974c-1.26021,-0.34727 -2.52993,-0.6795 -3.80626,-1.00174c0.3367,2.59932 0.67754,5.20143 1.01596,7.81057l-0.00001,0.00002c0.24172,0.24101 0.50069,0.46246 0.78601,0.65426c1.24138,0.83447 2.88643,0.95255 4.28693,1.477c-0.02783,-0.20644 -0.05678,-0.41563 -0.0872,-0.62764c-0.3958,-2.75887 -1.07138,-5.46756 -1.71952,-8.18122c-0.15863,-0.04377 -0.31728,-0.08752 -0.47592,-0.13124zM591.30295,133.65148c-0.11788,-0.90915 -0.23531,-1.81793 -0.352,-2.72653c-1.69737,-0.3992 -3.39827,-0.79501 -5.09611,-1.19899c1.83139,1.28428 3.67417,2.57832 5.44811,3.92552zM555.88851,109.50873c-0.01459,0.54181 -0.00784,1.06926 0.02645,1.57624c0.09286,0.00179 0.80868,0.02861 1.4491,0.42962c-0.49488,-0.66708 -0.98637,-1.33644 -1.47555,-2.00586zM511.39509,125.99731c-0.53682,-2.92245 -0.03297,-5.94263 -0.03228,-8.91397c0.00001,-0.04233 0.00005,-0.08466 0.00011,-0.12698c-0.32348,-1.73325 -0.63865,-3.46477 -0.93472,-5.19406c-1.14969,-3.25897 -2.40805,-6.47572 -3.71701,-9.67295c-0.56878,0.72915 -1.36285,1.28581 -2.30065,1.55415c1.03485,5.74348 2.11773,11.47734 3.28634,17.19339l-0.00001,0.00003c0.00498,0.0244 3.60598,17.64057 3.60627,17.64286c0.12609,0.97784 -0.76639,2.0821 -0.28726,2.94378c0.6505,1.16993 3.18411,-0.02354 3.83432,-1.19363c0.4831,-0.86936 0.1584,-1.99716 0.03104,-2.98355c-0.04081,-0.31607 -0.08273,-0.63214 -0.1257,-0.94822c-1.53095,-3.27486 -2.70726,-6.74489 -3.36044,-10.30085zM514.41778,77.04173c0.3752,-1.83178 1.03284,-3.57468 1.75548,-5.29553c-3.99741,-0.60195 -8.12237,-1.31272 -11.93991,-2.28613c-2.07944,-0.53022 -4.08276,-1.2541 -6.0462,-2.07713c0.07273,0.47191 0.14812,0.93628 0.227,1.3921c0.10732,0.6202 0.21431,1.24051 0.32102,1.86085l-0.00007,0.00005c0.00583,-0.00226 0.01166,-0.00453 0.01752,-0.00679c4.1914,-1.61958 5.81099,2.57179 5.81099,2.57179l1.65167,4.27441c1.67687,4.34099 3.4895,8.62637 5.30376,12.91029c0.50384,0.25943 1.00765,0.51895 1.51142,0.77854c0.24307,-4.75734 0.46328,-9.6112 1.38731,-14.12246zM523.87814,65.55108c-0.17313,0.67018 -0.38287,1.33147 -0.61685,1.98696c0.15277,0.0399 0.3033,0.08874 0.45104,0.14879c1.22046,0.49601 2.13872,1.56267 3.2376,2.28729c-0.98947,-1.94919 -1.93292,-3.92705 -2.84804,-5.91431c-0.12622,0.86676 -0.21284,1.44906 -0.22375,1.49128zM519.31385,78.05587c-0.64358,3.17099 -0.54343,6.44843 -0.82373,9.67191c-0.17344,1.99461 -0.34674,3.98923 -0.52002,5.98385c7.75675,4.00255 15.5118,8.00994 23.29218,11.96569c-0.63726,-3.99356 -1.63848,-7.96068 -1.67774,-11.99937c-0.0145,-1.49182 0.06872,-2.99958 0.21069,-4.51726c-0.02578,-0.03113 -0.05156,-0.06227 -0.07733,-0.09341c-1.71041,0.31898 -2.56562,-1.39143 -2.56562,-1.39143l-0.76694,-1.53387c-0.63158,-1.30197 -1.42933,-2.53903 -2.00504,-3.86282c-0.15918,-0.2171 -0.31767,-0.43504 -0.47544,-0.65389c-1.39236,-1.93143 -2.68323,-3.94715 -3.89656,-6.02108c-0.14133,-0.07132 -0.28606,-0.13621 -0.43489,-0.19335c-1.04408,-0.40082 -2.30879,0.18564 -3.34726,-0.2295c-1.55857,-0.62306 -2.65213,-2.12421 -4.19484,-2.78556c-0.22827,-0.09786 -0.46749,-0.14802 -0.71305,-0.1716c-0.82244,1.90304 -1.59622,3.82053 -2.00441,5.8317zM542.92659,143.39442c0.03269,-2.31056 0.05971,-4.66395 0.06967,-7.04221c-0.47858,0.94443 -0.99017,1.84377 -1.54715,2.672c-0.69746,1.03713 -2.31515,1.37415 -2.75408,2.54437c-0.50811,1.35465 0.33142,2.89888 0.17299,4.33699c-0.19323,1.75396 -0.8095,3.43506 -1.21834,5.15162c-0.28055,1.17792 -0.54634,2.36948 -0.80607,3.56875c1.7745,-0.00882 3.54915,-0.00971 5.32382,-0.00781c-0.07062,-3.69768 0.73163,-9.27904 0.75915,-11.2237zM605.11134,155.28383c-1.48628,-2.53559 -2.06778,-5.80679 -4.33841,-7.6703c-0.54251,-0.44523 -1.20276,-0.6783 -1.89709,-0.85254c0.75081,6.58338 1.23593,13.21985 1.66681,19.85758c1.76272,-2.99404 3.7004,-5.91925 5.69062,-8.81519zM594.03588,100.143c-0.23531,-0.69065 -0.47193,-1.38231 -0.70988,-2.07474c0.18874,2.09124 0.37846,4.18196 0.55487,6.27215c0.64559,7.6497 1.52537,15.19543 2.47806,22.74055c1.25864,0.30669 2.51228,0.6205 3.7581,0.94637c-1.82824,-9.21456 -3.08416,-19.0882 -6.08115,-27.88433zM568.50229,300.75345c0.88969,-3.94421 1.75861,-7.89004 2.60771,-11.84027c-1.66138,0.99752 -3.25085,2.07421 -4.51243,3.49845c-2.459,2.77601 -3.03646,8.04423 -3.20109,13.10337c1.58629,-1.65227 3.54574,-3.27707 5.10581,-4.76155zM590.52683,258.94017c1.08851,-3.25784 1.82869,-6.67596 2.39632,-10.15568c-2.06141,3.53615 -4.10966,7.08538 -5.82671,10.69038c-0.6395,1.34267 -1.17806,2.72708 -1.67121,4.13047c-0.74941,3.91527 -1.51552,7.82044 -2.29949,11.71799c2.84767,-5.3934 5.55555,-10.85968 7.40108,-16.38316zM548.7993,105.39893c0.20043,-1.56295 0.44217,-3.1229 0.63285,-4.59138c-0.62035,-0.79267 -1.24544,-1.57439 -1.87353,-2.34793c0.38017,2.31547 0.90013,4.62045 1.24068,6.93931zM553.72027,95.19058c0.14595,0.01222 0.2857,0.02966 0.41953,0.05189c-1.51753,-5.6985 -3.34505,-11.41962 -5.43571,-17.05558c-0.47091,3.60276 -1.10477,7.21871 -1.42593,10.79708c1.73389,2.05753 3.47994,4.12451 5.2057,6.26207c0.36353,-0.07077 0.7737,-0.09419 1.23641,-0.05546zM549.60348,117.09132c0.06556,3.70555 0.0416,7.41826 0.1997,11.25677c0.34009,8.25693 1.8213,16.83222 -1.26998,24.65392c-0.10256,0.25951 0.20664,-0.52872 0.38493,-0.74337c0.87452,-1.05278 1.74723,-2.11898 2.75864,-3.04104c1.39966,-1.27602 3.88937,-1.72302 4.45103,-3.53182c0.56976,-1.83487 -1.22602,-3.64959 -1.6384,-5.52612c-0.5142,-2.33995 -1.86739,-12.22161 -2.38339,-14.66232c-0.52744,-2.49481 -1.64217,-5.56089 -2.50252,-8.40599z" fill="#ffea00" stroke="none" stroke-width="0.5"/></g></g></svg>