<svg version="1.1" xmlns="http://www.w3.org/2000/svg" xmlns:xlink="http://www.w3.org/1999/xlink" width="134.55502" height="89.10609" viewBox="0,0,134.55502,89.10609"><g transform="translate(-275.7136,-136.03164)"><g stroke-miterlimit="10"><path d="M305.8982,204.52483c0,0 -4.54203,-4.93847 -4.54203,-12.1064c0,-7.10124 0,-22.82682 0,-35.7139c0,-10.84076 4.31493,-15.81397 4.31493,-15.81397c0,0 6.16463,-3.85892 18.698,-3.85892c14.13345,0 30.87857,0 38.15303,0c6.96388,0 10.29528,5.44788 10.29528,5.44788c0,0 5.45044,5.25901 5.45044,13.01437c0,8.22432 0,26.97104 0,39.95116c0,7.86971 -2.27101,9.53379 -2.27101,9.53379c0,0 -6.51084,4.08591 -13.47471,4.08591c-7.53606,0 -25.23615,0 -39.66705,0c-11.85202,0 -16.95688,-4.53991 -16.95688,-4.53991z" fill="#66c0ff" stroke="#000000" stroke-width="2"/><text transform="translate(276.31,220.62462) scale(0.42325,0.42982)" font-size="40" xml:space="preserve" fill="#ffffff" stroke="#000000" stroke-width="1" font-family="Pixel" font-weight="normal" text-anchor="start"><tspan x="0" dy="0">Torch - $1,000</tspan></text><path d="M327.85378,203.9617v-25.22493h23.32832v25.22493z" fill-opacity="0.37255" fill="#000000" stroke="none" stroke-width="0"/><path d="M331.72627,162.54828v-17.40129h16.61032v17.40129z" fill="#ffd200" stroke="none" stroke-width="0"/><path d="M331.72627,197.74635v-41.52581h16.61032v41.52581z" fill="#9e5400" stroke="#000000" stroke-width="1.5"/><path d="M331.72627,159.58215v-5.14129h16.61032v5.14129z" fill="#ffffff" stroke="none" stroke-width="0"/></g></g></svg>