<svg version="1.1" xmlns="http://www.w3.org/2000/svg" xmlns:xlink="http://www.w3.org/1999/xlink" width="75.8" height="60.19547" viewBox="0,0,75.8,60.19547"><g transform="translate(-298.79755,-183.21704)"><g stroke-miterlimit="10"><path d="M374.59755,231.61251c0,6.51696 -16.96841,11.8 -37.9,11.8c-20.93159,0 -37.9,-5.28304 -37.9,-11.8c0,-6.51696 16.96841,-11.8 37.9,-11.8c20.93159,0 37.9,5.28304 37.9,11.8z" fill-opacity="0.40392" fill="#000000" stroke="none" stroke-width="0"/><path d="M326.89861,229.74584l-3.96773,-34.09664l11.00701,11.18794l2.92424,-19.66506l7.77352,20.61146l12.29522,-18.93996l-7.94623,40.90222z" fill="#ff9400" stroke="#000000" stroke-width="2"/><path d="M302.59754,233.47917c0,0 14.33333,-18.61415 14.33333,-26c0,-5.48387 10.66667,-9.33333 10.66667,-9.33333c0,0 7.38887,4.73272 8.30351,5.07881c2.09772,0.79373 12.02982,-3.41214 12.02982,-3.41214c0,0 9.20436,2.10015 11.57984,6.12813c1.57126,2.66432 -1.61397,1.52646 -0.37532,6.15042c2.07012,7.72785 8.12881,21.38812 8.12881,21.38812z" fill="#868686" stroke="#000000" stroke-width="2"/></g></g></svg>