<svg version="1.1" xmlns="http://www.w3.org/2000/svg" xmlns:xlink="http://www.w3.org/1999/xlink" width="140.90377" height="86.46151" viewBox="0,0,140.90377,86.46151"><g transform="translate(-271.76626,-136.03164)"><g stroke="#000000" stroke-miterlimit="10"><path d="M305.8982,204.52483c0,0 -4.54203,-4.93847 -4.54203,-12.1064c0,-7.10124 0,-22.82682 0,-35.7139c0,-10.84076 4.31493,-15.81397 4.31493,-15.81397c0,0 6.16463,-3.85892 18.698,-3.85892c14.13345,0 30.87857,0 38.15303,0c6.96388,0 10.29528,5.44788 10.29528,5.44788c0,0 5.45044,5.25901 5.45044,13.01437c0,8.22432 0,26.97104 0,39.95116c0,7.86971 -2.27101,9.53379 -2.27101,9.53379c0,0 -6.51084,4.08591 -13.47471,4.08591c-7.53606,0 -25.23615,0 -39.66705,0c-11.85202,0 -16.95688,-4.53991 -16.95688,-4.53991z" fill="#66c0ff" stroke-width="2" stroke-linecap="butt"/><text transform="translate(272.36266,217.98004) scale(0.42325,0.42982)" font-size="40" xml:space="preserve" fill="#ffffff" stroke-width="1" stroke-linecap="butt" font-family="Pixel" font-weight="normal" text-anchor="start"><tspan x="0" dy="0">Crate - $2,000</tspan></text><g stroke-width="3"><path d="M317.28914,196.44361v-46.69812h46.69812v46.69812z" fill="#6f6f6f" stroke-linecap="butt"/><path d="M323.7575,189.96076v-32.98508h32.98508v32.98508z" fill="#919191" stroke-linecap="butt"/><path d="M363.37021,196.10073l-45.53067,-44.94695" fill="none" stroke-linecap="round"/><path d="M317.61893,195.56802l45.53067,-44.94695" fill="none" stroke-linecap="round"/></g></g></g></svg>