<svg version="1.1" xmlns="http://www.w3.org/2000/svg" xmlns:xlink="http://www.w3.org/1999/xlink" width="189.46581" height="192.32284" viewBox="0,0,189.46581,192.32284"><defs><linearGradient x1="350.62928" y1="150.67659" x2="350.62928" y2="279.43717" gradientUnits="userSpaceOnUse" id="color-1"><stop offset="0" stop-color="#c7ad00"/><stop offset="1" stop-color="#ff0088"/></linearGradient></defs><g transform="translate(-250.71984,-88.68269)"><g stroke-miterlimit="10"><path d="M286.39403,270.15968c0,0 -2.113,-5.05365 -2.113,-21.36636c0,-21.90116 0,-50.41457 0,-63.81798c0,-14.21979 3.09906,-26.4269 3.09906,-26.4269c0,0 1.9462,-7.87185 7.32508,-7.87185c14.82673,0 84.99103,0 111.81299,0c6.50392,0 7.07857,8.43409 7.07857,8.43409c0,0 3.3808,6.41373 3.3808,24.74008c0,21.62501 0,48.09346 0,60.72549c0,13.87123 -2.32431,24.74 -2.32431,24.74c0,0 -1.45722,8.49546 -7.71201,8.59481c-26.53557,0.42144 -97.5858,1.52611 -113.25731,1.52611c-6.14802,0 -7.28985,-9.27751 -7.28985,-9.27751z" fill="url(#color-1)" stroke="#000000" stroke-width="2.5" stroke-linecap="butt"/><path d="M289.57149,266.93679c0,0 -2.00849,-4.75358 -2.00849,-20.09756c0,-20.60058 0,-47.42082 0,-60.02829c0,-13.37538 2.94577,-24.85758 2.94577,-24.85758c0,0 1.84992,-7.40439 6.96273,-7.40439c14.09331,0 80.78686,0 106.28206,0c6.18219,0 6.72841,7.93326 6.72841,7.93326c0,0 3.21358,6.03283 3.21358,23.27092c0,20.34084 0,45.23756 0,57.11945c0,13.04752 -2.20934,23.27084 -2.20934,23.27084c0,0 -1.38514,7.99099 -7.33055,8.08443c-25.22296,0.39643 -92.75863,1.4355 -107.65493,1.4355c-5.8439,0 -6.92926,-8.7266 -6.92926,-8.7266z" fill="none" stroke="#2e29b1" stroke-width="6.5" stroke-linecap="butt"/><text transform="translate(252.09611,138.00654) scale(0.97671,0.97671)" font-size="40" xml:space="preserve" fill="#000000" stroke="#ffffff" stroke-width="1" stroke-linecap="butt" font-family="Pixel" font-weight="normal" text-anchor="start"><tspan x="0" dy="0">You Got!</tspan></text><g fill="#ffffff" stroke="none" stroke-width="0" stroke-linecap="butt"><path d="M380.79396,175.60457c0.10787,-5.09628 1.23031,-8.87863 2.50708,-8.44812c1.27677,0.43051 2.22436,4.91084 2.11651,10.00713c-0.10787,5.09628 -1.23031,8.87863 -2.50708,8.44812c-1.27677,-0.43051 -2.22436,-4.91084 -2.11651,-10.00713z"/><path d="M390.89474,177.68279c0.10787,-5.09628 1.91066,-8.64922 4.02665,-7.93574c0.74009,0.24955 1.80833,0.74998 2.37563,1.82279c0.57301,1.08364 3.56773,0.85798 5.6402,2.96739c1.74203,1.77305 2.66153,5.84178 2.6295,7.35515c-0.02872,1.35697 0.26678,6.19937 -1.78244,7.33868c-1.94615,1.08198 -0.07882,0.73605 -0.45695,1.43396c-0.71904,1.32716 -7.77901,-2.11964 -8.79652,-2.4627c-2.116,-0.71348 -3.74393,-5.42323 -3.63607,-10.51948z"/></g><text transform="translate(376.6453,170.72139) scale(0.69443,0.69443)" font-size="40" xml:space="preserve" fill="#ffffff" stroke="#000000" stroke-width="1" stroke-linecap="butt" font-family="Pixel" font-weight="normal" text-anchor="start"><tspan x="0" dy="0">33%</tspan></text><g><path d="M323.81014,243.01812l-4.47692,9.67872" fill="none" stroke="#000000" stroke-width="1" stroke-linecap="round"/><path d="M391.06149,210.33889l2.82495,3.00354" fill="none" stroke="#000000" stroke-width="0.5" stroke-linecap="round"/><path d="M320.98017,254.14238l5.56623,-10.32538" fill="none" stroke="#000000" stroke-width="0.5" stroke-linecap="round"/><path d="M345.50117,201.40711l-3.79905,6.58927" fill="none" stroke="#000000" stroke-width="1" stroke-linecap="round"/><path d="M337.96067,219.05873l-2.38567,4.88339" fill="none" stroke="#000000" stroke-width="1" stroke-linecap="round"/><path d="M345.0461,197.21337l1.95849,-3.63302" fill="none" stroke="#000000" stroke-width="1" stroke-linecap="round"/><path d="M368.68322,203.46234l-0.22231,-0.11194c0,0 0.07947,0.03888 0.22231,0.11194z" fill="#89440f" stroke="none" stroke-width="0" stroke-linecap="butt"/><path d="M332.9814,173.3531l-16.71742,-6.54426" fill="none" stroke="#000000" stroke-width="0.5" stroke-linecap="round"/><path d="M348.7432,176.17409l-6.41599,-3.21193" fill="none" stroke="#000000" stroke-width="0.5" stroke-linecap="round"/><path d="M338.8077,179.94885l15.2158,7.95578" fill="none" stroke="#000000" stroke-width="0.5" stroke-linecap="round"/><path d="M355.77585,184.65403l6.72523,2.63833" fill="none" stroke="#000000" stroke-width="0.5" stroke-linecap="round"/><path d="M375.20115,191.67098l-7.0781,-3.81568" fill="none" stroke="#000000" stroke-width="0.5" stroke-linecap="round"/><path d="M367.90021,195.1385l14.03829,8.3081" fill="none" stroke="#000000" stroke-width="0.5" stroke-linecap="round"/><path d="M387.23731,201.86112l3.48705,3.60728" fill="none" stroke="#000000" stroke-width="0.5" stroke-linecap="round"/><path d="M315.16432,254.17274c0,0 23.36803,-47.56848 28.99359,-59.02006c2.30943,-4.70113 -0.83647,-12.15227 -0.83647,-12.15227l23.17221,11.48679c0,0 -7.26739,0.89236 -9.92586,6.06532c-0.81687,1.58952 -3.82914,3.0562 -4.76613,4.86369c-1.59546,3.07773 -1.20051,6.64287 -2.9031,9.85443c-2.41461,4.5546 -4.78416,8.92818 -6.67538,12.22551c-6.22948,10.86097 -19.54605,31.16619 -19.54605,31.16619c0,0 -3.48472,0.85996 -4.6258,0.17806c-1.33319,-0.79671 -2.88702,-4.66767 -2.88702,-4.66767z" fill="#613600" stroke="none" stroke-width="NaN" stroke-linecap="butt"/><path d="M315.62533,254.64835c0,0 23.36802,-47.56848 28.99358,-59.02007c2.30943,-4.70113 -0.83646,-12.15229 -0.83646,-12.15229l23.17223,11.48682c0,0 -2.86591,0.35192 -5.65665,1.89477c-1.12986,-0.40492 -2.31869,-0.73076 -3.56798,-0.9693c-6.26455,-1.19613 -13.82989,3.15614 -16.78959,8.64644c-7.19666,13.34983 -11.39189,28.93451 -17.264,43.19614c-1.52343,3.69995 -4.15942,6.60065 -6.85417,9.42424c-0.68663,-1.23543 -1.19695,-2.50675 -1.19695,-2.50675z" fill="#573000" stroke="none" stroke-width="NaN" stroke-linecap="butt"/><path d="M340.15183,221.78478l-8.18777,16.56231" fill="none" stroke="#000000" stroke-width="0.5" stroke-linecap="round"/><path d="M341.0377,211.89763l3.71081,-6.8836" fill="none" stroke="#000000" stroke-width="0.5" stroke-linecap="round"/><path d="M354.03674,200.15003l-2.54726,3.80915" fill="none" stroke="#000000" stroke-width="0.5" stroke-linecap="round"/><path d="M310.2449,170.97928l-12.91259,-2.10661l19.70699,-10.49707c0,0 34.05887,11.32633 48.31513,19.01161c12.79856,6.89946 33.32192,24.99737 33.32192,24.99737l-1.63056,22.87955l-5.16386,-10.27588c0,0 -18.55534,-17.03695 -30.73026,-23.60024c-14.59595,-7.86839 -50.90676,-20.40877 -50.90676,-20.40877z" fill="#00ceff" stroke="#000000" stroke-width="0.5" stroke-linecap="butt"/><path d="M311.58517,171.55884l-13.54158,-2.44566l14.35001,-7.16796c2.34584,1.0482 4.30675,1.88882 4.99484,2.25157c16.38162,8.63597 35.28279,17.22946 49.77063,28.80468c1.49005,1.1905 2.77792,2.56058 3.97371,4.01439c-2.04569,-1.34916 -4.02802,-2.56153 -5.86901,-3.55398c-15.43936,-8.32306 -53.67866,-21.90303 -53.67866,-21.90303z" fill="#00b7e4" stroke="none" stroke-width="0" stroke-linecap="butt"/><path d="M386.66384,210.7838l8.56968,-10.85737l3.0842,2.2469l-8.56968,10.85737z" fill="#9f00e3" stroke="none" stroke-width="0" stroke-linecap="butt"/><path d="M378.07447,202.96686l9.67709,-9.88311l2.82741,2.56254l-9.67709,9.88311z" fill="#9f00e3" stroke="none" stroke-width="0" stroke-linecap="butt"/><path d="M367.46247,194.88859l8.32062,-10.3347l3.09716,2.21971l-8.32062,10.3347z" fill="#9f00e3" stroke="none" stroke-width="0" stroke-linecap="butt"/><path d="M359.08304,190.31092l6.78764,-12.05198l3.39457,1.74294l-6.78764,12.05198z" fill="#9f00e3" stroke="none" stroke-width="0" stroke-linecap="butt"/><path d="M372.66683,187.62784l1.76171,-2.18095l11.91685,9.62619l-1.7617,2.18093z" fill="#ffffff" stroke="none" stroke-width="0" stroke-linecap="butt"/><path d="M387.43484,201.11213l2.16491,-2.27911l2.37932,2.26009l-2.16489,2.27911z" fill="#ffffff" stroke="none" stroke-width="0" stroke-linecap="butt"/><path d="M318.33416,173.87827l4.61716,-13.03855l3.54521,1.4115l-4.61716,13.03855z" fill="#9f00e3" stroke="none" stroke-width="0" stroke-linecap="butt"/><path d="M329.91016,178.17316l4.61716,-13.03855l3.54521,1.4115l-4.61717,13.03855z" fill="#9f00e3" stroke="none" stroke-width="0" stroke-linecap="butt"/><path d="M342.86512,183.35005l4.61716,-13.03855l3.54521,1.4115l-4.61716,13.03855z" fill="#9f00e3" stroke="none" stroke-width="0" stroke-linecap="butt"/><path d="M350.53687,186.30244l5.81764,-12.54899l3.3975,1.73722l-5.81764,12.54899z" fill="#9f00e3" stroke="none" stroke-width="0" stroke-linecap="butt"/></g><text transform="translate(261.92632,272.6251) scale(0.64204,0.64204)" font-size="40" xml:space="preserve" fill="#ffffff" stroke="#000000" stroke-width="1" stroke-linecap="butt" font-family="Pixel" font-weight="normal" text-anchor="start"><tspan x="0" dy="0">Candy Slicer</tspan></text><text transform="translate(282.90079,246.55475) scale(0.70836,0.70836)" font-size="40" xml:space="preserve" fill="#ffffff" stroke="#000000" stroke-width="1" stroke-linecap="butt" font-family="Pixel" font-weight="normal" text-anchor="start"><tspan x="0" dy="0">Rainbow</tspan></text></g></g></svg>